<?xml version="1.0" encoding="UTF-8" standalone="no"?>
<!DOCTYPE svg PUBLIC "-//W3C//DTD SVG 20010904//EN"
"http://www.w3.org/TR/2001/REC-SVG-20010904/DTD/svg10.dtd">
<svg
   id="svg559"
   sodipodi:version="0.32"
   width="600pt"
   height="500pt"
   sodipodi:docname="about.svg"
   inkscape:version="0.38cvs"
   xmlns="http://www.w3.org/2000/svg"
   xmlns:inkscape="http://www.inkscape.org/namespaces/inkscape"
   xmlns:sodipodi="http://sodipodi.sourceforge.net/DTD/sodipodi-0.dtd"
   xmlns:xml="http://www.w3.org/XML/1998/namespace"
   xmlns:xlink="http://www.w3.org/1999/xlink"
   sodipodi:docbase="/usr/src/inkscape-project/inkscape/share/screens">
  <defs
     id="defs561">
    <linearGradient
       id="linearGradient583">
      <stop
         style="stop-color:#ffffff;stop-opacity:1;"
         offset="0.000000"
         id="stop584" />
      <stop
         style="stop-color:#ffffff;stop-opacity:0;"
         offset="1.000000"
         id="stop585" />
    </linearGradient>
    <linearGradient
       xlink:href="#linearGradient583"
       id="linearGradient586"
       x1="0.497940"
       y1="0.009092"
       x2="0.485597"
       y2="0.972727" />
  </defs>
  <sodipodi:namedview
     id="base"
     inkscape:zoom="1.08000000"
     inkscape:cx="363.11930904"
     inkscape:cy="207.65686035"
     inkscape:window-width="1022"
     inkscape:window-height="740"
     inkscape:window-x="0"
     inkscape:window-y="25" />
  <rect
     style="font-size:12;fill:#0082ab;fill-rule:evenodd;stroke:none;stroke-width:2.05668pt;"
     id="rect3983"
     width="757.41528320"
     height="634.12880733"
     x="-5.32339811"
     y="-3.19833669" />
  <rect
     style="font-size:12;fill:#ffffff;fill-opacity:0.28125;fill-rule:evenodd;stroke-width:1pt;"
     id="rect4004"
     width="824.80096426"
     height="369.27360043"
     x="-29.37400576"
     y="91.14162889"
     ry="0" />
  <path
     style="font-size:12;fill:#ffffff;fill-opacity:0.28125;fill-rule:evenodd;stroke-width:1pt;"
     d="M -81.325091 516.3387 C -94.309499 516.3387 -98.121406 568.25078 -85.136996 568.25078 L 758.99002 568.25078 L 757.08406 522.97315 L -81.325091 516.3387 z "
     id="path4024"
     sodipodi:nodetypes="ccccc" />
  <path
     style="font-size:12;fill:#ffffff;fill-opacity:0.28125;fill-rule:evenodd;stroke-width:1pt;"
     d="M 754.62374 585.54258 C 767.6069 585.72359 767.1755 616.66715 754.19234 616.48615 L -24.546561 607.63433 L -26.113422 583.298 L 754.62374 585.54258 z "
     id="path4184"
     sodipodi:nodetypes="ccccc" />
  <path
     style="font-size:12;fill:#ffffff;fill-opacity:0.28125;fill-rule:evenodd;stroke-width:1pt;"
     d="M -12.682938 13.871229 C -27.056576 14.110142 -28.646009 -0.94688751 -14.272372 -1.1857995 L 774.96081 -7.0822348 L 778.50127 18.315933 L -12.682938 13.871229 z "
     id="path4172"
     sodipodi:nodetypes="ccccc" />
  <path
     style="font-size:12;fill:#ffffff;fill-opacity:0.28125;fill-rule:evenodd;stroke-width:1pt;"
     d="M -14.220778 7.5141617 C -27.425299 7.7336429 -27.703377 -11.42541 -14.498855 -11.644891 L 771.01072 -14.866225 L 771.84588 -5.9415839 L -14.220778 7.5141617 z "
     id="path4183"
     sodipodi:nodetypes="ccccc" />
  <path
     style="font-size:40;font-weight:normal;fill:#ffffff;stroke-width:1pt;font-family:Century Schoolbook L;fill-opacity:1;"
     d="M 706.13347 423.3561 L 651.07097 423.3561 L 651.07097 426.87918 L 652.72015 426.87918 C 660.14117 426.87918 660.9658 427.25402 660.9658 430.40227 L 660.9658 432.57608 L 660.9658 468.25654 L 660.9658 470.43042 C 660.9658 473.57869 660.14117 473.95346 652.72015 473.95346 L 651.07097 473.95346 L 651.07097 477.47656 L 707.32448 477.47656 L 709.15684 457.46249 L 705.12568 457.46249 C 703.93456 462.70961 701.8274 467.35707 699.6285 469.53088 C 696.78841 472.52931 691.56617 473.95346 683.87024 473.95346 L 677.82347 473.95346 C 675.07499 473.95346 672.78448 473.50373 671.95992 472.8291 C 671.31858 472.37933 671.22695 471.92961 671.22695 470.35541 L 671.22695 451.24085 L 673.05934 451.24085 C 678.64807 451.24085 680.93845 451.69066 682.77085 453.26479 C 685.15292 455.21373 686.06906 457.61239 686.25237 462.03498 L 690.55839 462.03498 L 690.55839 437.44838 L 686.25237 437.44838 C 685.7942 444.79438 682.1295 447.71777 673.42584 447.71777 L 671.22695 447.71777 L 671.22695 430.62712 C 671.22695 427.4039 672.05157 426.87918 676.99888 426.87918 L 681.76303 426.87918 C 689.82541 426.87918 693.76497 427.55381 696.88003 429.65267 C 699.9034 431.60157 702.10222 435.7993 703.47653 442.54562 L 707.41608 442.54562 L 706.13347 423.3561 z M 584.55636 453.41474 L 594.90921 453.41474 C 603.15481 453.41474 607.46082 452.89 611.12552 451.46577 C 617.63049 448.91715 621.2952 444.11979 621.2952 438.19798 C 621.2952 432.50114 618.08856 428.1535 612.04175 425.67982 C 608.46863 424.18063 602.78833 423.3561 596.46668 423.3561 L 564.40038 423.3561 L 564.40038 426.87918 L 566.04953 426.87918 C 573.47061 426.87918 574.29515 427.25402 574.29515 430.40227 L 574.29515 432.57608 L 574.29515 468.25654 L 574.29515 470.43042 C 574.29515 473.57869 573.47061 473.95346 566.04953 473.95346 L 564.40038 473.95346 L 564.40038 477.47656 L 595.18409 477.47656 L 595.18409 473.95346 L 592.80195 473.95346 C 585.3809 473.95346 584.55636 473.57869 584.55636 470.43042 L 584.55636 468.25654 L 584.55636 453.41474 z M 584.55636 449.89165 L 584.55636 430.70208 C 584.55636 427.25402 585.10604 426.87918 590.1451 426.87918 L 596.00863 426.87918 C 605.53687 426.87918 610.02613 430.55218 610.02613 438.49783 C 610.02613 446.2186 605.35363 449.89165 595.64213 449.89165 L 584.55636 449.89165 z M 504.8487 422.30669 L 501.00073 422.30669 L 479.92856 466.00777 C 478.09624 469.90563 477.72981 470.43042 476.35552 471.62975 C 474.88962 473.05395 472.32435 473.95346 469.85064 473.95346 L 469.48414 473.95346 L 469.48414 477.47656 L 493.76288 477.47656 L 493.76288 473.95346 L 491.93052 473.95346 C 486.98318 473.95346 484.5095 472.52931 484.5095 469.68084 C 484.5095 468.78128 484.78436 467.73187 485.33405 466.53251 L 488.35746 459.93611 L 512.63626 459.93611 L 517.58361 469.98064 C 518.13329 471.10506 518.31653 471.62975 518.31653 472.0045 C 518.31653 473.20388 516.02611 473.95346 512.63626 473.95346 L 508.78829 473.95346 L 508.78829 477.47656 L 537.1898 477.47656 L 537.1898 473.95346 L 535.90721 473.95346 C 531.32627 473.95346 530.31848 473.35384 528.21128 469.15609 L 504.8487 422.30669 z M 500.3594 434.59998 L 510.71224 455.88836 L 490.18979 455.88836 L 500.3594 434.59998 z M 437.143 422.83142 L 433.66152 422.83142 L 429.9968 427.25402 C 423.49191 423.3561 419.91883 422.23173 413.78042 422.23173 C 404.89341 422.23173 397.56396 425.15515 391.33396 431.2268 C 385.47038 436.9237 382.72185 443.22025 382.72185 450.94106 C 382.72185 467.05725 395.64002 478.60089 413.68877 478.60089 C 428.34766 478.60089 437.69274 471.55477 439.79989 458.96167 L 435.49391 458.36197 C 434.57768 462.3348 433.47827 465.03335 431.82919 467.28211 C 428.07279 472.45428 422.20925 475.07788 414.78822 475.07788 C 401.2287 475.07788 394.81543 467.35707 394.81543 451.24085 C 394.81543 442.77053 396.18967 437.0736 399.30472 432.57608 C 402.14487 428.37836 407.82508 425.75483 413.68877 425.75483 C 420.10207 425.75483 425.78237 428.52826 429.26388 433.32567 C 431.00459 435.7993 432.37886 438.72272 434.48612 444.49454 L 438.51728 444.49454 L 437.143 422.83142 z M 345.43329 422.90638 L 342.04345 422.90638 L 338.3787 427.4039 C 334.07269 424.03074 328.20911 422.23173 321.70433 422.23173 C 309.70242 422.23173 301.64 428.52826 301.64 437.89816 C 301.64 446.06869 306.58738 450.1165 320.05525 452.96495 L 328.75884 454.76396 C 335.53861 456.18815 336.17991 456.33808 338.10392 457.53745 C 340.85246 459.26147 342.3183 461.73518 342.3183 464.65856 C 342.3183 467.65686 340.94403 470.13057 338.19554 472.15445 C 335.17212 474.32827 332.14869 475.15281 327.10971 475.15281 C 320.33006 475.15281 315.47431 473.42873 311.16829 469.53088 C 307.32029 466.00777 305.39635 462.48471 304.02206 456.71289 L 300.08247 456.71289 L 300.44895 478.07621 L 304.02206 478.07621 L 308.14481 472.979 C 314.2833 477.10172 319.41384 478.60089 327.38456 478.60089 C 340.85246 478.60089 349.46455 472.15445 349.46455 462.10993 C 349.46455 457.46249 347.54055 453.48963 343.96743 450.64118 C 341.49376 448.69228 337.92065 447.41796 330.59118 445.91877 L 320.78811 443.89486 C 312.63416 442.17084 308.78617 439.24741 308.78617 434.67492 C 308.78617 429.42783 314.00843 425.82972 321.79594 425.82972 C 328.20911 425.82972 333.43134 428.07853 337.09612 432.35121 C 339.75305 435.42451 341.40215 438.5728 342.59317 442.39569 L 346.53276 442.39569 L 345.43329 422.90638 z M 221.56581 452.96495 L 221.56581 432.57608 L 221.56581 430.40227 C 221.56581 427.25402 222.3904 426.87918 229.81144 426.87918 L 231.5522 426.87918 L 231.5522 423.3561 L 201.40983 423.3561 L 201.40983 426.87918 L 203.05895 426.87918 C 210.48003 426.87918 211.30456 427.25402 211.30456 430.40227 L 211.30456 432.57608 L 211.30456 468.25654 L 211.30456 470.43042 C 211.30456 473.57869 210.48003 473.95346 203.05895 473.95346 L 201.40983 473.95346 L 201.40983 477.47656 L 231.5522 477.47656 L 231.5522 473.95346 L 229.81144 473.95346 C 222.3904 473.95346 221.56581 473.57869 221.56581 470.43042 L 221.56581 468.25654 L 221.56581 458.73681 L 232.19352 449.96653 L 248.13507 469.08109 C 249.60093 470.88015 249.9674 471.47984 249.9674 472.22942 C 249.9674 473.42873 248.2267 473.95346 243.7374 473.95346 L 240.89721 473.95346 L 240.89721 477.47656 L 272.23058 477.47656 L 272.23058 473.95346 L 270.48989 473.95346 C 265.45089 473.95346 264.16823 473.42873 261.5113 470.2055 L 239.33969 444.04479 L 252.99079 432.8759 C 257.38849 429.053 262.97718 426.87918 268.4743 426.87918 L 268.4743 423.3561 L 240.25592 423.3561 L 240.25592 426.87918 L 242.54636 426.87918 C 246.76077 426.87918 248.50152 427.55381 248.50152 429.12793 C 248.50152 430.17736 246.66918 432.35121 244.01225 434.52498 L 221.56581 452.96495 z M 119.13664 423.3561 L 100.26332 423.3561 L 100.26332 426.87918 L 102.55378 426.87918 C 107.22628 426.87918 109.3335 427.47885 110.98259 429.3528 L 110.98259 461.21044 C 110.98259 471.47984 109.15028 473.65365 100.35494 473.95346 L 100.35494 477.47656 L 126.46628 477.47656 L 126.46628 473.95346 C 117.76236 473.65365 115.92997 471.47984 115.92997 461.21044 L 115.92997 433.40063 L 156.79187 478.52603 L 160.63984 478.52603 L 160.63984 439.6222 C 160.63984 429.3528 162.47223 427.17905 171.26754 426.87918 L 171.26754 423.3561 L 145.15636 423.3561 L 145.15636 426.87918 C 153.86006 427.17905 155.69241 429.3528 155.69241 439.6222 L 155.69241 463.15935 L 119.13664 423.3561 z M 59.584917 432.57608 L 59.584917 430.40227 C 59.584917 427.25402 60.409463 426.87918 67.738898 426.87918 L 69.571271 426.87918 L 69.571271 423.3561 L 39.245704 423.3561 L 39.245704 426.87918 L 41.078075 426.87918 C 48.499082 426.87918 49.32369 427.25402 49.32369 430.40227 L 49.32369 432.57608 L 49.32369 468.25654 L 49.32369 470.43042 C 49.32369 473.57869 48.499082 473.95346 41.078075 473.95346 L 39.245704 473.95346 L 39.245704 477.47656 L 69.571271 477.47656 L 69.571271 473.95346 L 67.738898 473.95346 C 60.409463 473.95346 59.584917 473.57869 59.584917 470.43042 L 59.584917 468.25654 L 59.584917 432.57608 z "
     id="path4235" />
  <text
     xml:space="preserve"
     style="fill:#ffffff;fill-opacity:1;stroke:none;font-family:Nimbus Sans L;font-style:normal;font-weight:bold;font-size:12;stroke-opacity:1;stroke-width:1pt;stroke-linejoin:miter;stroke-linecap:butt;text-anchor:start;writing-mode:lr;font-stretch:normal;"
     x="45.7237203"
     y="317.165700"
     id="text4185"
     transform="scale(1.606053,1.606047)"
     sodipodi:linespacing="100%"><tspan
       x="45.72372055"
       y="317.16571045"
       sodipodi:role="line"
       id="tspan4186">Open Source Scalable Vector Graphics Editor . www.inkscape.org</tspan></text>
  <path
     style="font-size:12;fill:#ffffff;fill-opacity:0.28125;fill-rule:evenodd;stroke-width:1pt;"
     d="M -15.676142 73.753619 C -29.810186 73.753619 -31.1579 87.610158 -17.023856 87.610158 L 758.95034 80.975708 L 762.06856 57.589408 L -15.676142 73.753619 z "
     id="path4264"
     sodipodi:nodetypes="ccccc" />
  <path
     style="font-size:12;fill:#ffffff;fill-opacity:0.28125;fill-rule:evenodd;stroke-width:1pt;"
     d="M -17.097277 89.568748 C -30.081693 89.568748 -30.081688 107.17361 -17.097277 107.17361 L 755.17811 98.138525 L 755.8718 89.927077 L -17.097277 89.568748 z "
     id="path4265"
     sodipodi:nodetypes="ccccc" />
  <path
     style="font-size:12;fill:#ffffff;fill-opacity:0.28125;fill-rule:evenodd;stroke-width:1pt;"
     d="M -12.682938 487.0226 C -27.056576 487.2227 -28.646009 474.61187 -14.272372 474.41177 L 774.96081 469.4733 L 778.50127 490.74521 L -12.682938 487.0226 z "
     id="path4266"
     sodipodi:nodetypes="ccccc" />
  <path
     style="font-size:12;fill:#ffffff;fill-opacity:0.28125;fill-rule:evenodd;stroke-width:1pt;"
     d="M -14.220778 481.69831 C -27.425299 481.88214 -27.703377 465.83572 -14.498855 465.65189 L 771.01072 462.9539 L 771.84588 470.42863 L -14.220778 481.69831 z "
     id="path4267"
     sodipodi:nodetypes="ccccc" />
  <path
     style="font-size:12;fill:#ffffff;fill-opacity:0.28125;fill-rule:evenodd;stroke-width:1pt;"
     d="M -12.682938 65.806458 C -27.056576 66.006559 -28.646009 53.395729 -14.272372 53.195629 L 774.96081 48.257148 L 778.50127 69.52907 L -12.682938 65.806458 z "
     id="path4268"
     sodipodi:nodetypes="ccccc" />
  <path
     style="font-size:12;fill:#ffffff;fill-opacity:0.28125;fill-rule:evenodd;stroke-width:1pt;"
     d="M -14.220778 60.482179 C -27.425299 60.665998 -27.703377 44.619571 -14.498855 44.435751 L 771.01072 41.737757 L 771.84588 49.212484 L -14.220778 60.482179 z "
     id="path4269"
     sodipodi:nodetypes="ccccc" />
  <path
     style="font-size:12;fill:#ffffff;fill-opacity:0.28125;fill-rule:evenodd;stroke-width:1pt;"
     d="M -11.341943 556.01477 C -24.326354 556.01477 -31.950176 595.57454 -18.965764 595.57454 L 762.26473 597.4805 L 766.07664 551.70817 L -11.341943 556.01477 z "
     id="path836"
     sodipodi:nodetypes="ccccc" />
  <g
     id="g839"
     transform="translate(3.543306,0.000000)">
    <path
       style="font-size:12;fill:#ffffff;fill-rule:evenodd;stroke:#000000;stroke-width:0.936193pt;"
       d="M 397.64309 320.25301 L 280.39197 282.517 L 250.74227 124.83447 L 345.08225 29.146783 L 393.59996 46.667064 L 483.89679 135.61619 L 397.64309 320.25301 z "
       id="path805" />
    <path
       style="font-size:12;fill-rule:evenodd;stroke-width:1pt;fill:#000000;fill-opacity:1;"
       d="M 476.95792 339.17168 C 495.78197 342.93607 499.54842 356.11361 495.78197 359.87802 C 492.01856 363.6434 482.6065 367.40781 475.07663 361.76014 C 467.54478 356.11361 467.54478 342.93607 476.95792 339.17168 z "
       id="path580" />
    <path
       style="font-size:12;fill-rule:evenodd;stroke-width:1pt;fill:#000000;fill-opacity:1;"
       d="M 286.46194 340.42914 C 284.6277 340.91835 269.30405 327.71337 257.16909 333.8338 C 245.03722 339.95336 236.89276 353.65666 248.22676 359.27982 C 259.56184 364.90298 267.66433 358.41867 277.60113 351.44119 C 287.53903 344.46477 287.18046 343.1206 286.46194 340.42914 z "
       id="path582" />
    <path
       style="font-size:12;fill-rule:evenodd;stroke-width:1pt;fill:#000000;fill-opacity:1;"
       d="M 510.35756 306.92856 C 520.59494 304.36879 544.24333 306.92856 540.47688 321.98634 C 536.71354 337.04806 504.71297 331.39827 484.00371 323.87156 C 482.12141 308.81083 505.53237 308.13423 510.35756 306.92856 z "
       id="path583" />
    <text
       xml:space="preserve"
       style="font-size:12;font-weight:normal;stroke-width:1pt;font-family:helvetica;fill:#000000;fill-opacity:1;"
       x="584.349821"
       y="76.6435178"
       id="text3984"
       transform="scale(5.837823,5.837823)"><tspan
         id="tspan3985"
         style="fill:#000000;fill-opacity:1;"></tspan></text>
    <text
       xml:space="preserve"
       style="font-size:12;font-weight:normal;stroke-width:1pt;font-family:helvetica;fill:#000000;fill-opacity:1;"
       x="-103.763223"
       y="-258.476119"
       id="text3990"
       transform="scale(5.837823,5.837823)"><tspan
         id="tspan3991"
         style="fill:#000000;fill-opacity:1;"></tspan></text>
    <path
       style="font-size:12;fill-rule:evenodd;stroke-width:1pt;fill:#000000;fill-opacity:1;"
       d="M 359.2403 21.362537 C 347.92693 21.362537 336.6347 25.683095 327.96556 34.35223 L 173.87387 188.41466 C 165.37697 196.9114 161.1116 207.95813 160.94269 219.04577 L 160.88418 219.04577 C 160.88418 219.08524 160.94076 219.12322 160.94269 219.16279 C 160.94033 219.34888 160.88418 219.53256 160.88418 219.71865 L 161.14748 219.71865 C 164.0966 230.93917 240.29699 245.24198 248.79866 253.74346 C 261.63771 266.58263 199.5652 276.01151 212.4041 288.85074 C 225.24316 301.68979 289.99433 313.6933 302.8346 326.53254 C 315.67368 339.37161 276.5961 353.04289 289.43532 365.88196 C 302.27439 378.72118 345.40201 362.67257 337.5908 396.16198 C 354.92909 413.50026 391.10302 405.2208 415.32417 387.88252 C 428.16323 375.04345 390.6948 376.17577 403.53397 363.33668 C 416.37304 350.49745 448.78128 350.4282 476.08902 319.71589 C 465.09739 302.62116 429.10801 295.34136 441.94719 282.50217 C 454.78625 269.66311 479.74708 276.18423 533.60644 251.72479 C 559.89837 239.78398 557.72636 230.71459 557.62567 219.71865 C 557.62356 219.48727 557.62567 219.27892 557.62567 219.04577 L 557.56716 219.04577 C 557.3983 207.95812 553.10345 196.9114 544.60673 188.41466 L 390.54428 34.35223 C 381.87515 25.683095 370.55366 21.362537 359.2403 21.362537 z M 357.92378 41.402939 C 362.95327 41.533963 367.01541 45.368018 374.98006 50.530832 L 447.76915 104.50827 C 448.56596 105.02498 449.32484 105.564 450.02187 106.11735 C 450.7189 106.67062 451.3556 107.25745 451.95277 107.84347 C 452.54997 108.42842 453.09281 109.01553 453.59111 109.62808 C 454.08837 110.24052 454.53956 110.86661 454.93688 111.50048 C 455.33532 112.13538 455.69164 112.78029 455.9901 113.43137 C 456.28877 114.08363 456.52291 114.75639 456.7215 115.42078 C 456.92126 116.08419 457.08982 116.73973 457.18961 117.41019 C 457.28949 118.08184 457.33588 118.75535 457.33588 119.42886 L 414.21245 98.598549 L 409.9118 131.16055 L 386.18512 120.04324 L 349.55654 144.50131 L 335.54288 96.1703 L 317.4919 138.4453 L 267.08369 143.47735 L 267.63956 121.03795 C 267.63956 115.64823 296.69685 77.915899 314.39075 68.932902 L 346.77721 45.674327 C 351.55594 42.576634 354.90608 41.324327 357.92378 41.402939 z M 290.92738 261.61333 C 313.87149 267.56365 339.40299 275.37038 359.88393 275.50997 L 360.76161 284.72563 C 343.2235 282.91785 306.11346 274.45012 297.36372 269.98057 L 290.92738 261.61333 z "
       id="path831" />
  </g>
  <text
     xml:space="preserve"
     style="fill:black;fill-opacity:1;stroke:none;font-family:Bitstream Vera Serif;font-style:normal;font-weight:normal;font-size:12;stroke-opacity:1;stroke-width:1pt;stroke-linejoin:miter;stroke-linecap:butt;text-anchor:middle;writing-mode:lr;"
     x="377.259064"
     y="539.615512"
     id="text624"
     sodipodi:linespacing="120%"><tspan
       x="377.25906372"
       y="539.61553955"
       sodipodi:role="line"
       id="tspan985">CONTRIBUTORS: Alexander Clausen  John Bintz  Daniel Borgmann  Hans Breuer  Bulia Byak  Chema Celorio</tspan><tspan
       sodipodi:role="line"
       id="tspan1008"
       x="377.25906372"
       y="554.01554012">Johan Ceuppens  Zbigniew Chyla  Kees Cook  Robert Crosbie  Jon Cruz  Danilo Egan  Frank Felfe  Ted Gould</tspan><tspan
       sodipodi:role="line"
       id="tspan1010"
       x="377.25906372"
       y="568.41554070">Bryce Harrington  Nathan Hurst  Thomas Ingham  Bob Jamison  Lauris Kaplinski  Lynn Kerby  Petr Kovar</tspan><tspan
       sodipodi:role="line"
       id="tspan1016"
       x="377.25906372"
       y="582.81554127">Raph Levien  Vitaly Lipatov  Dmitry G. Mastrukov  Michael Meeks  Federico Mena  MenTaLguY  Peter Moulder</tspan><tspan
       sodipodi:role="line"
       id="tspan1020"
       x="377.25906372"
       y="597.21554184">Yukihiro Nakai  Christian Neumair  Mitsuru Oka  Jon Phillips  Christian Schaller</tspan><tspan
       sodipodi:role="line"
       id="tspan1022"
       x="377.25906372"
       y="611.61554241">Tom von Schwerdtner  Daniel Yacob  Masatake Yamato</tspan></text>
  <text
     style="fill:#ffffff;stroke:none;font-family:Baekmuk Batang;font-style:normal;font-weight:normal;font-size:36;text-anchor:end;writing-mode:lr;fill-opacity:1;stroke-opacity:1;stroke-width:1pt;stroke-linejoin:miter;stroke-linecap:butt;"
     x="706.831360"
     y="46.9632586"
     id="text1003"
     sodipodi:linespacing="100%"><tspan
       x="706.83135986"
       y="46.96325684"
       sodipodi:role="line"
       id="tspan1006"
       dx="0 0 0 0 0 0 0"
       dy="0 0 0 0 0 0 0">0.38CVS</tspan></text>
</svg>
