<?xml version="1.0" encoding="UTF-8" standalone="no"?>
<!DOCTYPE svg PUBLIC "-//W3C//DTD SVG 20010904//EN"
"http://www.w3.org/TR/2001/REC-SVG-20010904/DTD/svg10.dtd">
<svg
   id="svg559"
   sodipodi:version="0.32"
   width="600pt"
   height="500pt"
   sodipodi:docname="about.svg"
   inkscape:version="0.38cvs"
   xmlns="http://www.w3.org/2000/svg"
   xmlns:inkscape="http://www.inkscape.org/namespaces/inkscape"
   xmlns:sodipodi="http://sodipodi.sourceforge.net/DTD/sodipodi-0.dtd"
   xmlns:xml="http://www.w3.org/XML/1998/namespace"
   xmlns:xlink="http://www.w3.org/1999/xlink"
   sodipodi:docbase="/home/d/ink/inkscape/share/screens">
  <defs
     id="defs561">
    <linearGradient
       id="linearGradient676">
      <stop
         style="stop-color:#150000;stop-opacity:0.102362;"
         offset="0.00000000"
         id="stop677" />
      <stop
         style="stop-color:#000000;stop-opacity:0;"
         offset="1.00000000"
         id="stop678" />
    </linearGradient>
    <linearGradient
       id="linearGradient666">
      <stop
         style="stop-color:#ffffff;stop-opacity:0.336;"
         offset="0.00000000"
         id="stop667" />
      <stop
         style="stop-color:#ffffff;stop-opacity:0;"
         offset="1.00000000"
         id="stop668" />
    </linearGradient>
    <linearGradient
       id="linearGradient583">
      <stop
         style="stop-color:#ffffff;stop-opacity:0.72;"
         offset="0.00000000"
         id="stop584" />
      <stop
         style="stop-color:#ffffff;stop-opacity:0;"
         offset="1.00000000"
         id="stop585" />
    </linearGradient>
    <linearGradient
       xlink:href="#linearGradient583"
       id="linearGradient586"
       x1="0.497940"
       y1="0.009092"
       x2="0.485597"
       y2="0.972727" />
    <radialGradient
       xlink:href="#linearGradient583"
       id="radialGradient664" />
    <radialGradient
       xlink:href="#linearGradient666"
       id="radialGradient669"
       cx="0.50000000"
       cy="0.50000000"
       r="0.50000000"
       fx="0.50000000"
       fy="0.50000000" />
    <radialGradient
       xlink:href="#linearGradient676"
       id="radialGradient679"
       cx="0.50000000"
       cy="0.50000000"
       r="0.50000000"
       fx="0.50000000"
       fy="0.50000000" />
  </defs>
  <sodipodi:namedview
     id="base"
     inkscape:zoom="0.76367532"
     inkscape:cx="566.71947033"
     inkscape:cy="229.14234867"
     inkscape:window-width="1268"
     inkscape:window-height="1002"
     inkscape:window-x="0"
     inkscape:window-y="0" />
  <rect
     style="font-size:12;fill:#0082ab;fill-rule:evenodd;stroke:none;stroke-width:2.05668pt;"
     id="rect3983"
     width="757.41528320"
     height="634.12880733"
     x="-5.32339811"
     y="-3.19833669" />
  <path
     sodipodi:type="arc"
     style="fill:url(#radialGradient669);fill-opacity:0.75;fill-rule:evenodd;stroke:none;stroke-width:1pt;"
     id="path691"
     sodipodi:cx="427.08334351"
     sodipodi:cy="567.70831299"
     sodipodi:rx="179.39814758"
     sodipodi:ry="53.81944275"
     d="M 606.481491 567.708313 A 179.398148 53.819443 0 1 0 247.685196,567.708313 A 179.398 53.8194 0 1 0 606.481 567.708 L 427.083344 567.708313 z"
     transform="matrix(0.511688,0.000000,0.000000,1.748665,193.9225,-664.7778)" />
  <path
     sodipodi:type="arc"
     style="fill:url(#radialGradient669);fill-opacity:0.75;fill-rule:evenodd;stroke:none;stroke-width:1pt;"
     id="path690"
     sodipodi:cx="427.08334351"
     sodipodi:cy="567.70831299"
     sodipodi:rx="179.39814758"
     sodipodi:ry="53.81944275"
     d="M 606.481491 567.708313 A 179.398148 53.819443 0 1 0 247.685196,567.708313 A 179.398 53.8194 0 1 0 606.481 567.708 L 427.083344 567.708313 z"
     transform="matrix(0.511688,0.000000,0.000000,1.748665,143.8882,-644.7648)" />
  <path
     sodipodi:type="arc"
     style="fill:url(#radialGradient669);fill-opacity:0.75;fill-rule:evenodd;stroke:none;stroke-width:1pt;"
     id="path689"
     sodipodi:cx="427.08334351"
     sodipodi:cy="567.70831299"
     sodipodi:rx="179.39814758"
     sodipodi:ry="53.81944275"
     d="M 606.481491 567.708313 A 179.398148 53.819443 0 1 0 247.685196,567.708313 A 179.398 53.8194 0 1 0 606.481 567.708 L 427.083344 567.708313 z"
     transform="matrix(0.511688,0.000000,0.000000,1.748665,57.16154,-711.4776)" />
  <path
     sodipodi:type="arc"
     style="fill:url(#radialGradient669);fill-opacity:0.75;fill-rule:evenodd;stroke:none;stroke-width:1pt;"
     id="path688"
     sodipodi:cx="427.08334351"
     sodipodi:cy="567.70831299"
     sodipodi:rx="179.39814758"
     sodipodi:ry="53.81944275"
     d="M 606.481491 567.708313 A 179.398148 53.819443 0 1 0 247.685196,567.708313 A 179.398 53.8194 0 1 0 606.481 567.708 L 427.083344 567.708313 z"
     transform="matrix(0.511688,0.000000,0.000000,1.748665,240.6226,-704.8062)" />
  <path
     style="font-size:40;font-weight:normal;fill:#050000;stroke:#000000;stroke-width:1.48409;"
     d="M 644.62107,438.92101 L 599.29966,438.92101 L 599.29966,441.82007 L 600.65762,441.82007 C 606.76529,441.82007 607.44428,442.12862 607.44428,444.72006 L 607.44428,446.50899 L 607.44428,475.87753 L 607.44428,477.66652 C 607.44428,480.25793 606.76529,480.56656 600.65762,480.56656 L 599.29966,480.56656 L 599.29966,483.46556 L 645.60088,483.46556 L 647.10927,466.99332 L 643.79165,466.99332 C 642.81078,471.31195 641.07677,475.13685 639.26651,476.92591 C 636.92874,479.39389 632.63029,480.56656 626.29591,480.56656 L 621.31950,480.56656 C 619.05699,480.56656 617.17151,480.19619 616.49350,479.64067 C 615.96499,479.27038 615.88977,478.90007 615.88977,477.60480 L 615.88977,461.87222 L 617.39812,461.87222 C 621.99848,461.87222 623.88291,462.24264 625.39132,463.53783 C 627.35200,465.14165 628.10616,467.11577 628.25662,470.75644 L 631.80090,470.75644 L 631.80090,450.52005 L 628.25662,450.52005 C 627.87952,456.56600 624.86375,458.97220 617.70004,458.97220 L 615.88977,458.97220 L 615.88977,444.90524 C 615.88977,442.25210 616.56875,441.82007 620.64051,441.82007 L 624.56191,441.82007 C 631.19811,441.82007 634.44050,442.37559 637.00396,444.10280 C 639.49317,445.70757 641.30241,449.16217 642.43371,454.71532 L 645.67611,454.71532 L 644.62107,438.92101 z M 544.55300,463.66132 L 553.07470,463.66132 C 559.86136,463.66132 563.40560,463.22919 566.42137,462.05742 C 571.77590,459.95978 574.79166,456.01050 574.79166,451.13633 C 574.79166,446.44731 572.15299,442.86936 567.17556,440.83343 C 564.23503,439.59891 559.55949,438.92101 554.35641,438.92101 L 527.96290,438.92101 L 527.96290,441.82007 L 529.32085,441.82007 C 535.42855,441.82007 536.10752,442.12862 536.10752,444.72006 L 536.10752,446.50899 L 536.10752,475.87753 L 536.10752,477.66652 C 536.10752,480.25793 535.42855,480.56656 529.32085,480.56656 L 527.96290,480.56656 L 527.96290,483.46556 L 553.30038,483.46556 L 553.30038,480.56656 L 551.33966,480.56656 C 545.23194,480.56656 544.55300,480.25793 544.55300,477.66652 L 544.55300,475.87753 L 544.55300,463.66132 z M 544.55300,460.76124 L 544.55300,444.96694 C 544.55300,442.12862 545.00531,441.82007 549.15334,441.82007 L 553.97932,441.82007 C 561.82204,441.82007 565.51674,444.84355 565.51674,451.38321 C 565.51674,457.73776 561.67060,460.76124 553.67744,460.76124 L 544.55300,460.76124 z M 478.94783,438.05690 L 475.78065,438.05690 L 458.43635,474.02583 C 456.92800,477.23444 456.62616,477.66652 455.49487,478.65412 C 454.28836,479.82589 452.17724,480.56656 450.14134,480.56656 L 449.83945,480.56656 L 449.83945,483.46556 L 469.82239,483.46556 L 469.82239,480.56656 L 468.31499,480.56656 C 464.24221,480.56656 462.20631,479.39389 462.20631,477.04933 C 462.20631,476.30956 462.43296,475.44551 462.88526,474.45794 L 465.37349,469.02921 L 485.35742,469.02921 L 489.42921,477.29621 C 489.88152,478.22203 490.03196,478.65412 490.03196,478.96173 C 490.03196,479.94937 488.14750,480.56656 485.35742,480.56656 L 482.19023,480.56656 L 482.19023,483.46556 L 505.56696,483.46556 L 505.56696,480.56656 L 504.51094,480.56656 C 500.74099,480.56656 499.91059,480.07279 498.17657,476.61721 L 478.94783,438.05690 z M 475.25212,448.17554 L 483.77381,465.69714 L 466.88186,465.69714 L 475.25212,448.17554 z M 423.22032,438.48900 L 420.35500,438.48900 L 417.33826,442.12862 C 411.98374,438.92101 409.04321,437.99520 403.99059,437.99520 C 396.67634,437.99520 390.64383,440.40142 385.51602,445.39905 C 380.68901,450.08796 378.42743,455.27082 378.42743,461.62538 C 378.42743,474.89001 389.06026,484.39146 403.91535,484.39146 C 415.98131,484.39146 423.67263,478.59242 425.40661,468.22679 L 421.86240,467.73298 C 421.10817,471.00339 420.20358,473.22441 418.84665,475.07515 C 415.75467,479.33212 410.92865,481.49142 404.81997,481.49142 C 393.65960,481.49142 388.38129,475.13685 388.38129,461.87222 C 388.38129,454.90048 389.51253,450.21145 392.07602,446.50899 C 394.41380,443.05450 399.08927,440.89520 403.91535,440.89520 C 409.19366,440.89520 413.86922,443.17788 416.73451,447.12625 C 418.16766,449.16217 419.29894,451.56838 421.03298,456.31911 L 424.35160,456.31911 L 423.22032,438.48900 z M 347.73544,438.55071 L 344.94543,438.55071 L 341.92961,442.25210 C 338.38538,439.47553 333.55838,437.99520 328.20487,437.99520 C 318.32627,437.99520 311.69006,443.17788 311.69006,450.88940 C 311.69006,457.61529 315.76285,460.94638 326.84795,463.29089 L 334.01171,464.77125 C 339.59188,465.94401 340.11938,466.06749 341.70303,467.05409 C 343.96556,468.47369 345.17202,470.50963 345.17202,472.91583 C 345.17202,475.38375 344.04077,477.41969 341.77826,479.08516 C 339.29003,480.87519 336.80177,481.55310 332.65373,481.55310 C 327.07361,481.55310 323.07706,480.13445 319.53275,476.92591 C 316.36554,474.02583 314.78203,471.12685 313.65075,466.37605 L 310.40834,466.37605 L 310.71017,483.95937 L 313.65075,483.95937 L 317.04452,479.76415 C 322.09722,483.15791 326.31943,484.39146 332.88044,484.39146 C 343.96556,484.39146 351.05414,479.08516 351.05414,470.81816 C 351.05414,466.99332 349.47049,463.72298 346.52897,461.37841 C 344.49308,459.77470 341.55256,458.72538 335.51907,457.49183 L 327.45072,455.82530 C 320.73924,454.40667 317.57205,452.00040 317.57205,448.23727 C 317.57205,443.91766 321.87055,440.95693 328.28009,440.95693 C 333.55838,440.95693 337.85682,442.80762 340.87360,446.32391 C 343.05996,448.85354 344.41786,451.44491 345.39769,454.59182 L 348.64110,454.59182 L 347.73544,438.55071 z M 245.78301,463.29089 L 245.78301,446.50899 L 245.78301,444.72006 C 245.78301,442.12862 246.46197,441.82007 252.56963,441.82007 L 254.00284,441.82007 L 254.00284,438.92101 L 229.19287,438.92101 L 229.19287,441.82007 L 230.54982,441.82007 C 236.65850,441.82007 237.33744,442.12862 237.33744,444.72006 L 237.33744,446.50899 L 237.33744,475.87753 L 237.33744,477.66652 C 237.33744,480.25793 236.65850,480.56656 230.54982,480.56656 L 229.19287,480.56656 L 229.19287,483.46556 L 254.00284,483.46556 L 254.00284,480.56656 L 252.56963,480.56656 C 246.46197,480.56656 245.78301,480.25793 245.78301,477.66652 L 245.78301,475.87753 L 245.78301,468.04169 L 254.53035,460.82290 L 267.65136,476.55548 C 268.85783,478.03691 269.15976,478.53073 269.15976,479.14690 C 269.15976,480.13445 267.72661,480.56656 264.03193,480.56656 L 261.69411,480.56656 L 261.69411,483.46556 L 287.48385,483.46556 L 287.48385,480.56656 L 286.05170,480.56656 C 281.90366,480.56656 280.84762,480.13445 278.66127,477.48140 L 260.41236,455.94874 L 271.64799,446.75597 C 275.26746,443.61001 279.86778,441.82007 284.39194,441.82007 L 284.39194,438.92101 L 261.16654,438.92101 L 261.16654,441.82007 L 263.05202,441.82007 C 266.52010,441.82007 267.95323,442.37559 267.95323,443.67169 C 267.95323,444.53483 266.44489,446.32391 264.25849,448.11380 L 245.78301,463.29089 z M 161.47550,438.92101 L 145.94138,438.92101 L 145.94138,441.82007 L 147.82692,441.82007 C 151.67203,441.82007 153.40703,442.31385 154.76396,443.85592 L 154.76396,470.07755 C 154.76396,478.53073 153.25572,480.31967 146.01661,480.56656 L 146.01661,483.46556 L 167.50807,483.46556 L 167.50807,480.56656 C 160.34419,480.31967 158.83589,478.53073 158.83589,470.07755 L 158.83589,447.18800 L 192.46837,484.32977 L 195.63559,484.32977 L 195.63559,452.30911 C 195.63559,443.85592 197.14403,442.06690 204.38294,441.82007 L 204.38294,438.92101 L 182.89164,438.92101 L 182.89164,441.82007 C 190.05544,442.06690 191.56378,443.85592 191.56378,452.30911 L 191.56378,471.68131 L 161.47550,438.92101 z M 112.45946,446.50899 L 112.45946,444.72006 C 112.45946,442.12862 113.13839,441.82007 119.17079,441.82007 L 120.67924,441.82007 L 120.67924,438.92101 L 95.718871,438.92101 L 95.718871,441.82007 L 97.227222,441.82007 C 103.33495,441.82007 104.01392,442.12862 104.01392,444.72006 L 104.01392,446.50899 L 104.01392,475.87753 L 104.01392,477.66652 C 104.01392,480.25793 103.33495,480.56656 97.227222,480.56656 L 95.718871,480.56656 L 95.718871,483.46556 L 120.67924,483.46556 L 120.67924,480.56656 L 119.17079,480.56656 C 113.13839,480.56656 112.45946,480.25793 112.45946,477.66652 L 112.45946,475.87753 L 112.45946,446.50899 z "
     id="path682" />
  <path
     sodipodi:type="arc"
     style="fill:url(#radialGradient664);fill-opacity:0.75;fill-rule:evenodd;stroke:none;stroke-width:1pt;"
     id="path663"
     sodipodi:cx="427.08334351"
     sodipodi:cy="567.70831299"
     sodipodi:rx="179.39814758"
     sodipodi:ry="53.81944275"
     d="M 606.481491 567.708313 A 179.398148 53.819443 0 1 0 247.685196,567.708313 A 179.398 53.8194 0 1 0 606.481 567.708 L 427.083344 567.708313 z"
     transform="matrix(4.680819,0.000000,0.000000,2.424310,-1507.969,-814.2298)" />
  <path
     sodipodi:type="arc"
     style="fill:url(#radialGradient679);fill-opacity:0.75;fill-rule:evenodd;stroke:none;stroke-width:1pt;"
     id="path680"
     sodipodi:cx="427.08334351"
     sodipodi:cy="567.70831299"
     sodipodi:rx="179.39814758"
     sodipodi:ry="53.81944275"
     d="M 606.481491 567.708313 A 179.398148 53.819443 0 1 0 247.685196,567.708313 A 179.398 53.8194 0 1 0 606.481 567.708 L 427.083344 567.708313 z"
     transform="matrix(0.875806,0.000000,0.000000,2.029572,239.0085,-1082.245)" />
  <path
     sodipodi:type="arc"
     style="fill:url(#radialGradient669);fill-opacity:0.75;fill-rule:evenodd;stroke:none;stroke-width:1pt;"
     id="path674"
     sodipodi:cx="427.08334351"
     sodipodi:cy="567.70831299"
     sodipodi:rx="179.39814758"
     sodipodi:ry="53.81944275"
     d="M 606.481491 567.708313 A 179.398148 53.819443 0 1 0 247.685196,567.708313 A 179.398 53.8194 0 1 0 606.481 567.708 L 427.083344 567.708313 z"
     transform="matrix(0.511688,0.000000,0.000000,1.748665,303.9997,-781.5261)" />
  <path
     sodipodi:type="arc"
     style="fill:url(#radialGradient669);fill-opacity:0.75;fill-rule:evenodd;stroke:none;stroke-width:1pt;"
     id="path673"
     sodipodi:cx="427.08334351"
     sodipodi:cy="567.70831299"
     sodipodi:rx="179.39814758"
     sodipodi:ry="53.81944275"
     d="M 606.481491 567.708313 A 179.398148 53.819443 0 1 0 247.685196,567.708313 A 179.398 53.8194 0 1 0 606.481 567.708 L 427.083344 567.708313 z"
     transform="matrix(0.511688,0.000000,0.000000,1.748665,269.2186,-860.3575)" />
  <path
     sodipodi:type="arc"
     style="fill:url(#radialGradient669);fill-opacity:0.75;fill-rule:evenodd;stroke:none;stroke-width:1pt;"
     id="path672"
     sodipodi:cx="427.08334351"
     sodipodi:cy="567.70831299"
     sodipodi:rx="179.39814758"
     sodipodi:ry="53.81944275"
     d="M 606.481491 567.708313 A 179.398148 53.819443 0 1 0 247.685196,567.708313 A 179.398 53.8194 0 1 0 606.481 567.708 L 427.083344 567.708313 z"
     transform="matrix(0.511688,0.000000,0.000000,1.748665,195.8344,-913.7278)" />
  <path
     sodipodi:type="arc"
     style="fill:url(#radialGradient669);fill-opacity:0.75;fill-rule:evenodd;stroke:none;stroke-width:1pt;"
     id="path671"
     sodipodi:cx="427.08334351"
     sodipodi:cy="567.70831299"
     sodipodi:rx="179.39814758"
     sodipodi:ry="53.81944275"
     d="M 606.481491 567.708313 A 179.398148 53.819443 0 1 0 247.685196,567.708313 A 179.398 53.8194 0 1 0 606.481 567.708 L 427.083344 567.708313 z"
     transform="matrix(0.511688,0.000000,0.000000,1.748665,115.7791,-903.7206)" />
  <path
     sodipodi:type="arc"
     style="fill:url(#radialGradient669);fill-opacity:0.75;fill-rule:evenodd;stroke:none;stroke-width:1pt;"
     id="path670"
     sodipodi:cx="427.08334351"
     sodipodi:cy="567.70831299"
     sodipodi:rx="179.39814758"
     sodipodi:ry="53.81944275"
     d="M 606.481491 567.708313 A 179.398148 53.819443 0 1 0 247.685196,567.708313 A 179.398 53.8194 0 1 0 606.481 567.708 L 427.083344 567.708313 z"
     transform="matrix(0.511688,0.000000,0.000000,1.748665,49.06624,-830.3364)" />
  <path
     sodipodi:type="arc"
     style="fill:url(#radialGradient669);fill-opacity:0.75;fill-rule:evenodd;stroke:none;stroke-width:1pt;"
     id="path665"
     sodipodi:cx="427.08334351"
     sodipodi:cy="567.70831299"
     sodipodi:rx="179.39814758"
     sodipodi:ry="53.81944275"
     d="M 606.481491 567.708313 A 179.398148 53.819443 0 1 0 247.685196,567.708313 A 179.398 53.8194 0 1 0 606.481 567.708 L 427.083344 567.708313 z"
     transform="matrix(0.511688,0.000000,0.000000,1.748665,5.702846,-786.9735)" />
  <path
     style="font-size:12;fill:#ffffff;fill-opacity:0.28125;fill-rule:evenodd;stroke-width:1pt;"
     d="M -80.516098,778.85851 C -93.500506,778.85851 -97.312413,902.52985 -84.328003,902.52985 L 759.79902,902.52985 L 757.89306,780.49068 L -80.516098,778.85851 z "
     id="path4024"
     sodipodi:nodetypes="ccccc" />
  <path
     style="font-size:12;fill:#ffffff;fill-opacity:0.28125;fill-rule:evenodd;stroke-width:1pt;"
     d="M -12.682938,-257.07188 C -27.056576,-256.87178 -28.646009,-269.48261 -14.272372,-269.68271 L 774.96081,-274.62118 L 778.50127,-253.34927 L -12.682938,-257.07188 z "
     id="path4266"
     sodipodi:nodetypes="ccccc" />
  <path
     style="font-size:12;fill:#ffffff;fill-opacity:0.28125;fill-rule:evenodd;stroke-width:1pt;"
     d="M -14.220778,-226.96310 C -27.425299,-226.77927 -27.703377,-242.82569 -14.498855,-243.00952 L 771.01072,-245.70751 L 771.84588,-238.23278 L -14.220778,-226.96310 z "
     id="path4267"
     sodipodi:nodetypes="ccccc" />
  <path
     style="font-size:12;fill:#ffffff;fill-opacity:0.144;fill-rule:evenodd;stroke-width:1pt;"
     d="M -15.758318,-264.44393 C -28.742729,-264.44393 -36.366551,-236.01762 -23.382139,-236.01762 L 757.84836,-234.64806 L 761.66027,-267.53851 L -15.758318,-264.44393 z "
     id="path836"
     sodipodi:nodetypes="ccccc" />
  <g
     id="g839"
     transform="matrix(0.941392,0.000000,0.000000,0.941392,35.22540,15.84728)">
    <path
       style="font-size:12;fill:#ffffff;fill-rule:evenodd;stroke:#000000;stroke-width:0.936193pt;"
       d="M 397.64309 320.25301 L 280.39197 282.517 L 250.74227 124.83447 L 345.08225 29.146783 L 393.59996 46.667064 L 483.89679 135.61619 L 397.64309 320.25301 z "
       id="path805" />
    <path
       style="font-size:12;fill-rule:evenodd;stroke-width:1pt;fill:#000000;fill-opacity:1;"
       d="M 476.95792 339.17168 C 495.78197 342.93607 499.54842 356.11361 495.78197 359.87802 C 492.01856 363.6434 482.6065 367.40781 475.07663 361.76014 C 467.54478 356.11361 467.54478 342.93607 476.95792 339.17168 z "
       id="path580" />
    <path
       style="font-size:12;fill-rule:evenodd;stroke-width:1pt;fill:#000000;fill-opacity:1;"
       d="M 286.46194 340.42914 C 284.6277 340.91835 269.30405 327.71337 257.16909 333.8338 C 245.03722 339.95336 236.89276 353.65666 248.22676 359.27982 C 259.56184 364.90298 267.66433 358.41867 277.60113 351.44119 C 287.53903 344.46477 287.18046 343.1206 286.46194 340.42914 z "
       id="path582" />
    <path
       style="font-size:12;fill-rule:evenodd;stroke-width:1pt;fill:#000000;fill-opacity:1;"
       d="M 510.35756 306.92856 C 520.59494 304.36879 544.24333 306.92856 540.47688 321.98634 C 536.71354 337.04806 504.71297 331.39827 484.00371 323.87156 C 482.12141 308.81083 505.53237 308.13423 510.35756 306.92856 z "
       id="path583" />
    <path
       style="font-size:12;fill-rule:evenodd;stroke-width:1pt;fill:#000000;fill-opacity:1;"
       d="M 359.2403 21.362537 C 347.92693 21.362537 336.6347 25.683095 327.96556 34.35223 L 173.87387 188.41466 C 165.37697 196.9114 161.1116 207.95813 160.94269 219.04577 L 160.88418 219.04577 C 160.88418 219.08524 160.94076 219.12322 160.94269 219.16279 C 160.94033 219.34888 160.88418 219.53256 160.88418 219.71865 L 161.14748 219.71865 C 164.0966 230.93917 240.29699 245.24198 248.79866 253.74346 C 261.63771 266.58263 199.5652 276.01151 212.4041 288.85074 C 225.24316 301.68979 289.99433 313.6933 302.8346 326.53254 C 315.67368 339.37161 276.5961 353.04289 289.43532 365.88196 C 302.27439 378.72118 345.40201 362.67257 337.5908 396.16198 C 354.92909 413.50026 391.10302 405.2208 415.32417 387.88252 C 428.16323 375.04345 390.6948 376.17577 403.53397 363.33668 C 416.37304 350.49745 448.78128 350.4282 476.08902 319.71589 C 465.09739 302.62116 429.10801 295.34136 441.94719 282.50217 C 454.78625 269.66311 479.74708 276.18423 533.60644 251.72479 C 559.89837 239.78398 557.72636 230.71459 557.62567 219.71865 C 557.62356 219.48727 557.62567 219.27892 557.62567 219.04577 L 557.56716 219.04577 C 557.3983 207.95812 553.10345 196.9114 544.60673 188.41466 L 390.54428 34.35223 C 381.87515 25.683095 370.55366 21.362537 359.2403 21.362537 z M 357.92378 41.402939 C 362.95327 41.533963 367.01541 45.368018 374.98006 50.530832 L 447.76915 104.50827 C 448.56596 105.02498 449.32484 105.564 450.02187 106.11735 C 450.7189 106.67062 451.3556 107.25745 451.95277 107.84347 C 452.54997 108.42842 453.09281 109.01553 453.59111 109.62808 C 454.08837 110.24052 454.53956 110.86661 454.93688 111.50048 C 455.33532 112.13538 455.69164 112.78029 455.9901 113.43137 C 456.28877 114.08363 456.52291 114.75639 456.7215 115.42078 C 456.92126 116.08419 457.08982 116.73973 457.18961 117.41019 C 457.28949 118.08184 457.33588 118.75535 457.33588 119.42886 L 414.21245 98.598549 L 409.9118 131.16055 L 386.18512 120.04324 L 349.55654 144.50131 L 335.54288 96.1703 L 317.4919 138.4453 L 267.08369 143.47735 L 267.63956 121.03795 C 267.63956 115.64823 296.69685 77.915899 314.39075 68.932902 L 346.77721 45.674327 C 351.55594 42.576634 354.90608 41.324327 357.92378 41.402939 z M 290.92738 261.61333 C 313.87149 267.56365 339.40299 275.37038 359.88393 275.50997 L 360.76161 284.72563 C 343.2235 282.91785 306.11346 274.45012 297.36372 269.98057 L 290.92738 261.61333 z "
       id="path831" />
  </g>
  <text
     xml:space="preserve"
     style="fill:black;fill-opacity:1;stroke:none;font-family:Bitstream Vera Serif;font-style:normal;font-weight:normal;font-size:12;stroke-opacity:1;stroke-width:1pt;stroke-linejoin:miter;stroke-linecap:butt;text-anchor:middle;writing-mode:lr;font-stretch:normal;"
     x="349.88880040"
     y="491.78567505"
     id="text624"
     sodipodi:linespacing="128%"
     transform="scale(1.073540,1.073540)"><tspan
       x="349.88879395"
       y="491.78567505"
       sodipodi:role="line"
       id="tspan985">CONTRIBUTORS: Alexander Clausen  John Bintz  Daniel Borgmann  Hans Breuer  Bulia Byak  Chema Celorio</tspan><tspan
       sodipodi:role="line"
       id="tspan1008"
       x="349.88879395"
       y="507.14567471">Johan Ceuppens  Zbigniew Chyla  Kees Cook  Robert Crosbie  Jon Cruz  Danilo Egan  Frank Felfe  Ted Gould</tspan><tspan
       sodipodi:role="line"
       id="tspan1010"
       x="349.88879395"
       y="522.50567436">Bryce Harrington  Nathan Hurst  Thomas Ingham  Bob Jamison  Lauris Kaplinski  Lynn Kerby  Petr Kovar</tspan><tspan
       sodipodi:role="line"
       id="tspan1016"
       x="349.88879395"
       y="537.86567402">Raph Levien  Vitaly Lipatov  Dmitry G. Mastrukov  Michael Meeks  Federico Mena  MenTaLguY  Peter Moulder</tspan><tspan
       sodipodi:role="line"
       id="tspan1020"
       x="349.88879395"
       y="553.22567368">Yukihiro Nakai  Christian Neumair  Mitsuru Oka  Jon Phillips  Christian Schaller</tspan><tspan
       sodipodi:role="line"
       id="tspan1022"
       x="349.88879395"
       y="568.58567333">Tom von Schwerdtner  Daniel Yacob  Masatake Yamato</tspan></text>
  <text
     style="fill:#ffffff;stroke:none;font-family:Bitstream Vera Sans Mono;font-style:normal;font-weight:bold;font-size:36;text-anchor:end;writing-mode:lr;fill-opacity:1;stroke-opacity:1;stroke-width:1pt;stroke-linejoin:miter;stroke-linecap:butt;font-stretch:normal;"
     x="1268.90422740"
     y="835.37316895"
     id="text1003"
     sodipodi:linespacing="100%"
     transform="scale(0.511272,0.511272)"><tspan
       x="1268.90417480"
       y="835.37316895"
       sodipodi:role="line"
       id="tspan1006"
       dx="0 0 0 0 0 0 0"
       dy="0 0 0 0 0 0 0">0.38CVS</tspan></text>
  <path
     sodipodi:type="arc"
     style="fill:url(#radialGradient679);fill-opacity:0.75;fill-rule:evenodd;stroke:none;stroke-width:1pt;"
     id="path675"
     sodipodi:cx="427.08334351"
     sodipodi:cy="567.70831299"
     sodipodi:rx="179.39814758"
     sodipodi:ry="53.81944275"
     d="M 606.481491 567.708313 A 179.398148 53.819443 0 1 0 247.685196,567.708313 A 179.398 53.8194 0 1 0 606.481 567.708 L 427.083344 567.708313 z"
     transform="matrix(1.817741,0.000000,0.000000,1.266131,-409.4015,-253.1437)" />
  <path
     style="font-size:40;font-weight:normal;fill:#ffffff;stroke-width:1pt;fill-opacity:1;"
     d="M 645.74226,440.04223 L 600.42090,440.04223 L 600.42090,442.94123 L 601.77885,442.94123 C 607.88654,442.94123 608.56554,443.24995 608.56554,445.84129 L 608.56554,447.63031 L 608.56554,476.99878 L 608.56554,478.78781 C 608.56554,481.37923 607.88654,481.68777 601.77885,481.68777 L 600.42090,481.68777 L 600.42090,484.58684 L 646.72213,484.58684 L 648.23049,468.11460 L 644.91289,468.11460 C 643.93200,472.43324 642.19800,476.25811 640.38772,478.04705 C 638.05000,480.51503 633.75153,481.68777 627.41717,481.68777 L 622.44074,481.68777 C 620.17819,481.68777 618.29271,481.31749 617.61473,480.76197 C 617.08620,480.39161 617.01098,480.02125 617.01098,478.72603 L 617.01098,462.99348 L 618.51938,462.99348 C 623.11971,462.99348 625.00417,463.36380 626.51254,464.65903 C 628.47321,466.26285 629.22740,468.23701 629.37788,471.87773 L 632.92213,471.87773 L 632.92213,451.64129 L 629.37788,451.64129 C 629.00073,457.68725 625.98501,460.09349 618.82124,460.09349 L 617.01098,460.09349 L 617.01098,446.02640 C 617.01098,443.37334 617.68997,442.94123 621.76177,442.94123 L 625.68312,442.94123 C 632.31935,442.94123 635.56176,443.49674 638.12523,445.22408 C 640.61440,446.82888 642.42365,450.28340 643.55494,455.83651 L 646.79734,455.83651 L 645.74226,440.04223 z M 545.67422,464.78245 L 554.19593,464.78245 C 560.98259,464.78245 564.52686,464.35042 567.54259,463.17870 C 572.89715,461.08106 575.91289,457.13178 575.91289,452.25754 C 575.91289,447.56856 573.27423,443.99055 568.29679,441.95469 C 565.35626,440.72023 560.68072,440.04223 555.47762,440.04223 L 529.08413,440.04223 L 529.08413,442.94123 L 530.44207,442.94123 C 536.54979,442.94123 537.22874,443.24995 537.22874,445.84129 L 537.22874,447.63031 L 537.22874,476.99878 L 537.22874,478.78781 C 537.22874,481.37923 536.54979,481.68777 530.44207,481.68777 L 529.08413,481.68777 L 529.08413,484.58684 L 554.42159,484.58684 L 554.42159,481.68777 L 552.46089,481.68777 C 546.35319,481.68777 545.67422,481.37923 545.67422,478.78781 L 545.67422,476.99878 L 545.67422,464.78245 z M 545.67422,461.88248 L 545.67422,446.08815 C 545.67422,443.24995 546.12653,442.94123 550.27457,442.94123 L 555.10055,442.94123 C 562.94327,442.94123 566.63797,445.96469 566.63797,452.50444 C 566.63797,458.85899 562.79184,461.88248 554.79867,461.88248 L 545.67422,461.88248 z M 480.06905,439.17808 L 476.90187,439.17808 L 459.55759,475.14706 C 458.04923,478.35573 457.74738,478.78781 456.61610,479.77534 C 455.40959,480.94710 453.29849,481.68777 451.26256,481.68777 L 450.96070,481.68777 L 450.96070,484.58684 L 470.94360,484.58684 L 470.94360,481.68777 L 469.43622,481.68777 C 465.36344,481.68777 463.32754,480.51503 463.32754,478.17055 C 463.32754,477.43087 463.55421,476.56671 464.00651,475.57911 L 466.49472,470.15044 L 486.47866,470.15044 L 490.55045,478.41745 C 491.00276,479.34332 491.15320,479.77534 491.15320,480.08296 C 491.15320,481.07051 489.26874,481.68777 486.47866,481.68777 L 483.31146,481.68777 L 483.31146,484.58684 L 506.68818,484.58684 L 506.68818,481.68777 L 505.63216,481.68777 C 501.86220,481.68777 501.03183,481.19401 499.29780,477.73850 L 480.06905,439.17808 z M 476.37335,449.29684 L 484.89504,466.81836 L 468.00308,466.81836 L 476.37335,449.29684 z M 424.34152,439.61014 L 421.47624,439.61014 L 418.45950,443.24995 C 413.10497,440.04223 410.16445,439.11633 405.11180,439.11633 C 397.79757,439.11633 391.76507,441.52260 386.63720,446.52020 C 381.81022,451.20928 379.54869,456.39202 379.54869,462.74659 C 379.54869,476.01120 390.18152,485.51262 405.03656,485.51262 C 417.10255,485.51262 424.79388,479.71358 426.52787,469.34805 L 422.98363,468.85425 C 422.22942,472.12458 421.32478,474.34567 419.96786,476.19637 C 416.87587,480.45329 412.04991,482.61268 405.94123,482.61268 C 394.78086,482.61268 389.50254,476.25811 389.50254,462.99348 C 389.50254,456.02169 390.63379,451.33270 393.19725,447.63031 C 395.53499,444.17571 400.21054,442.01641 405.03656,442.01641 C 410.31490,442.01641 414.99043,444.29920 417.85577,448.24756 C 419.28888,450.28340 420.42016,452.68965 422.15422,457.44032 L 425.47280,457.44032 L 424.34152,439.61014 z M 348.85671,439.67185 L 346.06659,439.67185 L 343.05088,443.37334 C 339.50661,440.59675 334.67964,439.11633 329.32614,439.11633 C 319.44756,439.11633 312.81126,444.29920 312.81126,452.01067 C 312.81126,458.73657 316.88408,462.06768 327.96922,464.41215 L 335.13291,465.89256 C 340.71314,467.06528 341.24065,467.18868 342.82422,468.17527 C 345.08682,469.59493 346.29330,471.63081 346.29330,474.03706 C 346.29330,476.50497 345.16202,478.54085 342.89944,480.20646 C 340.41122,481.99642 337.92300,482.67440 333.77500,482.67440 C 328.19488,482.67440 324.19825,481.25573 320.65404,478.04705 C 317.48683,475.14706 315.90323,472.24800 314.77192,467.49735 L 311.52951,467.49735 L 311.83144,485.08060 L 314.77192,485.08060 L 318.16579,480.88540 C 323.21842,484.27919 327.44064,485.51262 334.00160,485.51262 C 345.08682,485.51262 352.17531,480.20646 352.17531,471.93947 C 352.17531,468.11460 350.59177,464.84416 347.65023,462.49971 C 345.61432,460.89583 342.67378,459.84654 336.64030,458.61310 L 328.57191,456.94655 C 321.86051,455.52792 318.69331,453.12170 318.69331,449.35856 C 318.69331,445.03888 322.99177,442.07807 329.40135,442.07807 C 334.67964,442.07807 338.97810,443.92885 341.99486,447.44507 C 344.18119,449.97476 345.53909,452.56619 346.51897,455.71311 L 349.76233,455.71311 L 348.85671,439.67185 z M 246.90419,464.41215 L 246.90419,447.63031 L 246.90419,445.84129 C 246.90419,443.24995 247.58314,442.94123 253.69093,442.94123 L 255.12400,442.94123 L 255.12400,440.04223 L 230.31411,440.04223 L 230.31411,442.94123 L 231.67103,442.94123 C 237.77976,442.94123 238.45875,443.24995 238.45875,445.84129 L 238.45875,447.63031 L 238.45875,476.99878 L 238.45875,478.78781 C 238.45875,481.37923 237.77976,481.68777 231.67103,481.68777 L 230.31411,481.68777 L 230.31411,484.58684 L 255.12400,484.58684 L 255.12400,481.68777 L 253.69093,481.68777 C 247.58314,481.68777 246.90419,481.37923 246.90419,478.78781 L 246.90419,476.99878 L 246.90419,469.16284 L 255.65157,461.94419 L 268.77265,477.67674 C 269.97915,479.15809 270.28094,479.65187 270.28094,480.26820 C 270.28094,481.25573 268.84787,481.68777 265.15308,481.68777 L 262.81531,481.68777 L 262.81531,484.58684 L 288.60509,484.58684 L 288.60509,481.68777 L 287.17296,481.68777 C 283.02495,481.68777 281.96891,481.25573 279.78253,478.60257 L 261.53359,457.07005 L 272.76915,447.87713 C 276.38872,444.73123 280.98901,442.94123 285.51314,442.94123 L 285.51314,440.04223 L 262.28784,440.04223 L 262.28784,442.94123 L 264.17329,442.94123 C 267.64134,442.94123 269.07447,443.49674 269.07447,444.79297 C 269.07447,445.65612 267.56612,447.44507 265.37981,449.23508 L 246.90419,464.41215 z M 162.59670,440.04223 L 147.06274,440.04223 L 147.06274,442.94123 L 148.94818,442.94123 C 152.79337,442.94123 154.52837,443.43504 155.88532,444.97712 L 155.88532,471.19873 C 155.88532,479.65187 154.37687,481.44093 147.13796,481.68777 L 147.13796,484.58684 L 168.62932,484.58684 L 168.62932,481.68777 C 161.46547,481.44093 159.95706,479.65187 159.95706,471.19873 L 159.95706,448.30926 L 193.58973,485.45095 L 196.75690,485.45095 L 196.75690,453.43024 C 196.75690,444.97712 198.26518,443.18820 205.50427,442.94123 L 205.50427,440.04223 L 184.01292,440.04223 L 184.01292,442.94123 C 191.17667,443.18820 192.68501,444.97712 192.68501,453.43024 L 192.68501,472.80260 L 162.59670,440.04223 z M 113.58065,447.63031 L 113.58065,445.84129 C 113.58065,443.24995 114.25958,442.94123 120.29213,442.94123 L 121.80040,442.94123 L 121.80040,440.04223 L 96.840110,440.04223 L 96.840110,442.94123 L 98.348460,442.94123 C 104.45616,442.94123 105.13518,443.24995 105.13518,445.84129 L 105.13518,447.63031 L 105.13518,476.99878 L 105.13518,478.78781 C 105.13518,481.37923 104.45616,481.68777 98.348460,481.68777 L 96.840110,481.68777 L 96.840110,484.58684 L 121.80040,484.58684 L 121.80040,481.68777 L 120.29213,481.68777 C 114.25958,481.68777 113.58065,481.37923 113.58065,478.78781 L 113.58065,476.99878 L 113.58065,447.63031 z "
     id="path4235" />
  <text
     xml:space="preserve"
     style="fill:#ffffff;fill-opacity:1;stroke:none;font-family:Bitstream Vera Sans Mono;font-style:normal;font-weight:normal;font-size:12;stroke-opacity:1;stroke-width:1pt;stroke-linejoin:miter;stroke-linecap:butt;text-anchor:start;writing-mode:lr;font-stretch:normal;"
     x="91.92363182"
     y="489.45169067"
     id="text683"
     transform="scale(1.031810,1.031804)"
     sodipodi:linespacing="100%"><tspan
       x="91.92362976"
       y="489.45169067"
       sodipodi:role="line"
       id="tspan684"
       style="letter-spacing:1.47798;">Open Source Scalable Vector Graphics Editor . www.inkscape.org</tspan></text>
  <text
     xml:space="preserve"
     style="fill:#ffffff;fill-opacity:1;stroke:none;font-family:Bitstream Vera Sans Mono;font-style:normal;font-weight:normal;font-size:12;stroke-opacity:1;stroke-width:1pt;stroke-linejoin:miter;stroke-linecap:butt;text-anchor:start;writing-mode:lr;font-stretch:normal;"
     x="91.92363182"
     y="489.45169067"
     id="text4185"
     transform="scale(1.031810,1.031804)"
     sodipodi:linespacing="100%"><tspan
       x="91.92362976"
       y="489.45169067"
       sodipodi:role="line"
       id="tspan4186"
       style="letter-spacing:1.47798;">Open Source Scalable Vector Graphics Editor . www.inkscape.org</tspan></text>
</svg>
