<?xml version="1.0" encoding="UTF-8" standalone="no"?>
<!DOCTYPE svg PUBLIC "-//W3C//DTD SVG 20010904//EN"
"http://www.w3.org/TR/2001/REC-SVG-20010904/DTD/svg10.dtd">
<svg
   id="svg1"
   sodipodi:version="0.32"
   inkscape:version="0.39cvs"
   width="600.00000pt"
   height="500.00000pt"
   sodipodi:docname="about05.svg"
   xmlns="http://www.w3.org/2000/svg"
   xmlns:inkscape="http://www.inkscape.org/namespaces/inkscape"
   xmlns:sodipodi="http://sodipodi.sourceforge.net/DTD/sodipodi-0.dtd"
   xmlns:xml="http://www.w3.org/XML/1998/namespace"
   xmlns:xlink="http://www.w3.org/1999/xlink"
   sodipodi:docbase="/home/d/ink">
  <defs
     id="defs3">
    <linearGradient
       id="linearGradient2482">
      <stop
         style="stop-color:#0f61ff;stop-opacity:0.85490197;"
         offset="0.00000000"
         id="stop2483" />
      <stop
         style="stop-color:#0057ff;stop-opacity:0.30578512;"
         offset="0.26069766"
         id="stop2487" />
      <stop
         style="stop-color:#0094ff;stop-opacity:0.00000000;"
         offset="1.0000000"
         id="stop2486" />
    </linearGradient>
    <linearGradient
       id="linearGradient2475">
      <stop
         style="stop-color:#1e3e62;stop-opacity:0.85490197;"
         offset="0.00000000"
         id="stop2476" />
      <stop
         style="stop-color:#020d27;stop-opacity:0.41568628;"
         offset="0.31421188"
         id="stop2477" />
      <stop
         style="stop-color:#000000;stop-opacity:0.25000000;"
         offset="0.47107276"
         id="stop2478" />
      <stop
         style="stop-color:#ffffff;stop-opacity:0.00000000;"
         offset="1.0000000"
         id="stop2479" />
    </linearGradient>
    <linearGradient
       id="linearGradient929">
      <stop
         style="stop-color:#a50000;stop-opacity:0.00000000;"
         offset="0.00000000"
         id="stop930" />
      <stop
         style="stop-color:#aa0000;stop-opacity:0.00000000;"
         offset="0.67945540"
         id="stop931" />
      <stop
         style="stop-color:#a40000;stop-opacity:0.19008264;"
         offset="0.80444026"
         id="stop934" />
      <stop
         style="stop-color:#9f0000;stop-opacity:0.38842976;"
         offset="0.85118532"
         id="stop932" />
      <stop
         style="stop-color:#922323;stop-opacity:0.00000000;"
         offset="1.0000000"
         id="stop933" />
    </linearGradient>
    <linearGradient
       id="linearGradient1075">
      <stop
         style="stop-color:#ffffff;stop-opacity:0.00000000;"
         offset="0.00000000"
         id="stop1076" />
      <stop
         style="stop-color:#ffffff;stop-opacity:0.00000000;"
         offset="0.35945737"
         id="stop1077" />
      <stop
         style="stop-color:#ffffff;stop-opacity:1.0000000;"
         offset="1.0000000"
         id="stop1079" />
    </linearGradient>
    <linearGradient
       id="linearGradient975">
      <stop
         style="stop-color:#ffffff;stop-opacity:0.61960787;"
         offset="0.00000000"
         id="stop976" />
      <stop
         style="stop-color:#ffffff;stop-opacity:0.00000000;"
         offset="1.0000000"
         id="stop977" />
    </linearGradient>
    <linearGradient
       id="linearGradient978">
      <stop
         style="stop-color:#ffffff;stop-opacity:0.61960787;"
         offset="0.00000000"
         id="stop979" />
      <stop
         style="stop-color:#ffffff;stop-opacity:0.00000000;"
         offset="1.0000000"
         id="stop980" />
    </linearGradient>
    <linearGradient
       id="linearGradient1028">
      <stop
         style="stop-color:#ffffff;stop-opacity:1.0000000;"
         offset="0.00000000"
         id="stop1029" />
      <stop
         style="stop-color:#000000;stop-opacity:1.0000000;"
         offset="1.0000000"
         id="stop1031" />
    </linearGradient>
    <linearGradient
       id="linearGradient1024">
      <stop
         style="stop-color:#000000;stop-opacity:0.00000000;"
         offset="0.00000000"
         id="stop1025" />
      <stop
         style="stop-color:#000000;stop-opacity:0.10588235;"
         offset="0.00000000"
         id="stop1026" />
      <stop
         style="stop-color:#000000;stop-opacity:0.21568628;"
         offset="1.0000000"
         id="stop1027" />
    </linearGradient>
    <linearGradient
       id="linearGradient909">
      <stop
         style="stop-color:#000000;stop-opacity:0.00000000;"
         offset="0.00000000"
         id="stop910" />
      <stop
         style="stop-color:#000000;stop-opacity:0.17000000;"
         offset="1.0000000"
         id="stop913" />
    </linearGradient>
    <linearGradient
       id="shade">
      <stop
         style="stop-color:#000000;stop-opacity:0.00000000;"
         offset="0.00000000"
         id="stop842" />
      <stop
         style="stop-color:#000000;stop-opacity:0.12156863;"
         offset="0.68551469"
         id="stop846" />
      <stop
         style="stop-color:#000000;stop-opacity:0.38842976;"
         offset="0.86672705"
         id="stop852" />
      <stop
         style="stop-color:#000000;stop-opacity:0.70247936;"
         offset="1.0000000"
         id="stop845" />
    </linearGradient>
    <linearGradient
       id="linearGradient833">
      <stop
         style="stop-color:#ffffff;stop-opacity:1.0000000;"
         offset="0.00000000"
         id="stop834" />
      <stop
         style="stop-color:#88bdee;stop-opacity:1.0000000;"
         offset="0.32656416"
         id="stop835" />
      <stop
         style="stop-color:#004c92;stop-opacity:1.0000000;"
         offset="0.68945539"
         id="stop837" />
      <stop
         style="stop-color:#85c5ff;stop-opacity:1.0000000;"
         offset="1.0000000"
         id="stop836" />
    </linearGradient>
    <linearGradient
       id="linearGradient826">
      <stop
         style="stop-color:#000000;stop-opacity:0.78431374;"
         offset="0.00000000"
         id="stop827" />
      <stop
         style="stop-color:#000000;stop-opacity:0.35294119;"
         offset="0.36585677"
         id="stop830" />
      <stop
         style="stop-color:#000000;stop-opacity:0.24793388;"
         offset="0.47107276"
         id="stop847" />
      <stop
         style="stop-color:#ffffff;stop-opacity:0.00000000;"
         offset="1.0000000"
         id="stop828" />
    </linearGradient>
    <radialGradient
       xlink:href="#linearGradient826"
       id="radialGradient829"
       cx="0.49382716"
       cy="0.46875000"
       r="0.41400504"
       fx="0.50617284"
       fy="0.15625000" />
    <radialGradient
       xlink:href="#linearGradient833"
       id="radialGradient832"
       cx="0.50000000"
       cy="0.21875000"
       r="0.65554053"
       fx="0.50000000"
       fy="0.21875000" />
    <linearGradient
       xlink:href="#linearGradient909"
       id="linearGradient839" />
    <radialGradient
       xlink:href="#shade"
       id="radialGradient840"
       cx="0.49374998"
       cy="0.41874999"
       r="0.56874990"
       fx="0.49647889"
       fy="0.75265020" />
    <radialGradient
       xlink:href="#linearGradient2475"
       id="radialGradient987"
       cx="0.49382716"
       cy="0.46875000"
       r="0.41400504"
       fx="0.50617284"
       fy="0.15625000" />
    <linearGradient
       xlink:href="#linearGradient909"
       id="linearGradient907"
       x1="0.51418442"
       y1="0.91670913"
       x2="0.51418442"
       y2="-5.2000084" />
    <linearGradient
       xlink:href="#linearGradient978"
       id="linearGradient908"
       x1="0.20774648"
       y1="1.3018181"
       x2="0.25352111"
       y2="0.50909090" />
    <linearGradient
       xlink:href="#linearGradient909"
       id="linearGradient1089"
       x1="0.49295777"
       y1="0.93336648"
       x2="0.49891651"
       y2="-1.9999946" />
    <linearGradient
       xlink:href="#linearGradient978"
       id="linearGradient977"
       x1="0.62323934"
       y1="-0.11653123"
       x2="0.26056281"
       y2="0.63685638" />
    <radialGradient
       xlink:href="#linearGradient826"
       id="radialGradient978"
       cx="0.50352114"
       cy="0.46315789"
       r="0.50000000"
       fx="0.23239437"
       fy="0.81403506" />
    <radialGradient
       xlink:href="#linearGradient2482"
       id="radialGradient1096"
       cx="0.50000000"
       cy="0.50000000"
       r="0.50000000"
       fx="0.49295777"
       fy="6.1101758e-008" />
    <radialGradient
       xlink:href="#shade"
       id="radialGradient1106"
       cx="0.49374998"
       cy="0.41874999"
       r="0.56874990"
       fx="0.54225355"
       fy="1.1908127" />
    <linearGradient
       xlink:href="#linearGradient909"
       id="linearGradient1173" />
    <linearGradient
       xlink:href="#linearGradient909"
       id="linearGradient1181"
       x1="0.45051429"
       y1="-6.0592088e-006"
       x2="0.44106123"
       y2="2.6728370"
       gradientTransform="scale(1.225053,0.816291)" />
    <linearGradient
       xlink:href="#linearGradient2482"
       id="linearGradient1384" />
  </defs>
  <sodipodi:namedview
     id="base"
     pagecolor="#ffffff"
     inkscape:pageopacity="0.00000000"
     inkscape:pageshadow="2"
     inkscape:zoom="0.42954326"
     inkscape:cx="162.35322"
     inkscape:cy="165.67351"
     inkscape:window-width="1268"
     inkscape:window-height="998"
     inkscape:window-x="0"
     inkscape:window-y="0"
     showguides="true"
     snaptoguides="true"
     showborder="true" />
  <path
     sodipodi:type="arc"
     style="fill:url(#radialGradient978);fill-opacity:0.75000000;fill-rule:evenodd;stroke-width:1.2500000;"
     id="path1184"
     sodipodi:cx="465.00000"
     sodipodi:cy="-25.000000"
     sodipodi:rx="307.50000"
     sodipodi:ry="307.50000"
     d="M 772.50000 -25.000000 A 307.50000 307.50000 0 1 0 157.50000,-25.000000 A 307.50000 307.50000 0 1 0 772.50000 -25.000000 z"
     transform="matrix(-1.398374,0.000000,0.000000,1.398374,1445.714,759.7840)" />
  <path
     sodipodi:type="arc"
     style="fill:url(#radialGradient978);fill-opacity:0.75000000;fill-rule:evenodd;stroke-width:1.2500000;"
     id="path1185"
     sodipodi:cx="465.00000"
     sodipodi:cy="-25.000000"
     sodipodi:rx="307.50000"
     sodipodi:ry="307.50000"
     d="M 772.50000 -25.000000 A 307.50000 307.50000 0 1 0 157.50000,-25.000000 A 307.50000 307.50000 0 1 0 772.50000 -25.000000 z"
     transform="matrix(2.000000,0.000000,0.000000,-2.000000,-940.1023,-316.7155)" />
  <g
     id="g972"
     transform="translate(-25.78427,103.7285)">
    <path
       style="opacity:0.69398910;fill:url(#radialGradient829);stroke-width:4.4309568;stroke-dasharray:17.723827 17.723827 ;stroke-dashoffset:0.00000000;"
       d="M 141.15417,163.14014 C 141.15417,133.39387 257.80881,109.25197 401.54395,109.25197 C 545.27912,109.25197 661.93375,133.39387 661.93375,163.14014 C 661.93375,192.88641 545.27912,217.02830 401.54395,217.02830 C 257.80881,217.02830 141.15417,192.88641 141.15417,163.14014 z "
       id="path924" />
    <path
       style="fill:url(#radialGradient987);stroke-width:4.4309568;stroke-dasharray:17.723827 17.723827;stroke-dashoffset:0.00000000;"
       d="M 202.81271,209.25624 C 202.81271,163.15967 285.89421,125.74798 388.26246,125.74798 C 490.63072,125.74798 573.71228,163.15967 573.71228,209.25624 C 573.71228,255.35282 490.63072,292.76452 388.26246,292.76452 C 285.89421,292.76452 202.81271,255.35282 202.81271,209.25624 z "
       id="path923" />
    <path
       sodipodi:type="arc"
       style="fill:url(#radialGradient1096);fill-opacity:0.75000000;fill-rule:evenodd;stroke:none;stroke-width:1.0000000pt;"
       id="path2481"
       sodipodi:cx="678.82251"
       sodipodi:cy="91.134377"
       sodipodi:rx="83.085045"
       sodipodi:ry="83.085045"
       d="M 761.90755 91.134377 A 83.085045 83.085045 0 1 0 595.73746,91.134377 A 83.085045 83.085045 0 1 0 761.90755 91.134377 z"
       transform="matrix(1.184354,0.000000,0.000000,0.393617,-407.5445,124.2053)" />
    <g
       id="g968"
       transform="translate(8.838835,-95.45942)">
      <path
         sodipodi:type="arc"
         style="fill:url(#radialGradient832);fill-opacity:0.75000000;"
         id="path925"
         sodipodi:cx="357.01260"
         sodipodi:cy="295.14999"
         sodipodi:rx="126.68188"
         sodipodi:ry="126.68188"
         d="M 483.69448 295.14999 A 126.68188 126.68188 0 1 0 230.33073,295.14999 A 126.68188 126.68188 0 1 0 483.69448 295.14999 z"
         transform="matrix(-0.618165,0.000000,0.000000,0.618165,610.9251,-0.500950)" />
      <path
         style="fill:url(#radialGradient840);fill-opacity:0.75000000;fill-rule:evenodd;stroke-width:3.6250000;stroke-dasharray:14.500000 14.500000 ;stroke-dashoffset:0.00000000;"
         d="M 383.33640,103.45007 C 336.15369,105.81639 300.70193,156.81652 313.76002,202.40808 C 322.73251,240.70508 366.72069,268.57498 406.92234,258.80995 C 456.90791,248.65258 484.59816,190.27684 460.33788,146.83537 C 446.46469,118.69710 414.63766,100.59946 383.33640,103.45007 z "
         id="path1620"
         sodipodi:nodetypes="ccccc" />
      <path
         style="fill:url(#linearGradient977);fill-opacity:0.30208334;fill-rule:evenodd;stroke-width:1.0000000pt;"
         d="M 418.25565,122.78552 C 418.02528,109.32643 461.28957,123.57512 445.57088,158.08100 C 427.33583,127.04501 418.45098,134.89906 418.25565,122.78552 z "
         id="path927"
         sodipodi:nodetypes="ccs"
         transform="translate(-1.767771,8.838832)" />
    </g>
  </g>
  <g
     id="g1051"
     transform="translate(-509.6347,-457.8033)">
    <text
       xml:space="preserve"
       style="font-size:26.000000;stroke-width:1.0000000pt;font-family:Bitstream Vera Sans;"
       x="565.28397"
       y="491.92953"
       id="versionno"
       sodipodi:linespacing="100%"><tspan
         id="versiontext"
         style="fill:#000000;fill-opacity:1.0000000;"> Version 0.39</tspan></text>
    <text
       xml:space="preserve"
       style="font-size:16.000000;stroke-width:1.0000000pt;font-family:Bitstream Vera Sans;"
       x="624.69241"
       y="509.98325"
       id="website"
       sodipodi:linespacing="100%"><tspan
         id="inkscapeorg"
         style="letter-spacing:0.68484813;">Inkscape.org</tspan></text>
    <g
       id="g1343"
       transform="matrix(0.481619,0.000000,0.000000,0.481619,505.8507,313.7123)"
       style="">
      <path
         style="fill-rule:evenodd;stroke-width:1.0000000pt;"
         d="M 112.47768,397.54463 C 116.75286,398.39957 117.60827,401.39236 116.75286,402.24730 C 115.89816,403.10247 113.76056,403.95742 112.05042,402.67476 C 110.33984,401.39236 110.33984,398.39957 112.47768,397.54463 z "
         id="path1072" />
      <path
         style="fill-rule:evenodd;stroke-width:1.0000000pt;"
         d="M 120.06318,390.22180 C 122.38821,389.64044 127.75906,390.22180 126.90365,393.64161 C 126.04895,397.06233 118.78121,395.77919 114.07788,394.06978 C 113.65038,390.64930 118.96731,390.49563 120.06318,390.22180 z "
         id="path1074" />
      <path
         style="fill-rule:evenodd;stroke-width:1.0000000pt;"
         d="M 112.47768,397.54463 C 116.75286,398.39957 117.60827,401.39236 116.75286,402.24730 C 115.89816,403.10247 113.76056,403.95742 112.05042,402.67476 C 110.33984,401.39236 110.33984,398.39957 112.47768,397.54463 z "
         id="path1077" />
      <path
         style="fill-rule:evenodd;stroke-width:1.0000000pt;"
         d="M 120.06318,390.22180 C 122.38821,389.64044 127.75906,390.22180 126.90365,393.64161 C 126.04895,397.06233 118.78121,395.77919 114.07788,394.06978 C 113.65038,390.64930 118.96731,390.49563 120.06318,390.22180 z "
         id="path1079" />
      <path
         style="fill:#ffffff;fill-rule:evenodd;stroke:#000000;stroke-width:0.51030946pt;"
         d="M 385.96513,260.18054 L 322.05272,239.61102 L 305.89096,153.65985 L 357.31474,101.50145 L 383.76126,111.05158 L 432.98116,159.53686 L 385.96513,260.18054 z "
         id="path1071"
         transform="matrix(0.427996,0.000000,0.000000,0.427996,-73.85429,282.8140)" />
      <path
         style="fill-rule:evenodd;stroke-width:1.0000000pt;"
         d="M 325.36140,271.17834 C 324.36157,271.44501 316.00880,264.24710 309.39416,267.58329 C 302.78120,270.91900 298.34173,278.38853 304.51978,281.45366 C 310.69842,284.51879 315.11501,280.98426 320.53146,277.18090 C 325.94851,273.37813 325.75306,272.64543 325.36140,271.17834 z "
         id="path1073"
         transform="matrix(0.427996,0.000000,0.000000,0.427996,-73.85429,282.8140)" />
      <path
         style="fill-rule:evenodd;stroke-width:1.0000000pt;"
         d="M 365.03216,97.258342 C 358.86535,97.258342 352.71007,99.613432 347.98461,104.33889 L 263.99077,188.31678 C 259.35919,192.94827 257.03418,198.96972 256.94211,205.01348 L 256.91022,205.01348 C 256.91022,205.03500 256.94106,205.05570 256.94211,205.07727 C 256.94082,205.17870 256.91022,205.27883 256.91022,205.38026 L 257.05374,205.38026 C 258.66128,211.49646 300.19735,219.29277 304.83152,223.92685 C 311.82996,230.92535 277.99486,236.06494 284.99321,243.06347 C 291.99165,250.06191 327.28687,256.60490 334.28597,263.60345 C 341.28443,270.60189 319.98363,278.05397 326.98216,285.05242 C 333.98061,292.05095 357.48904,283.30301 353.23123,301.55776 C 362.68216,311.00868 382.40021,306.49563 395.60291,297.04471 C 402.60136,290.04626 382.17769,290.66347 389.17619,283.66501 C 396.17464,276.66648 413.84005,276.62873 428.72522,259.88776 C 422.73380,250.56959 403.11635,246.60145 410.11485,239.60293 C 417.11330,232.60449 430.71920,236.15909 460.07739,222.82649 C 474.40886,216.31767 473.22492,211.37404 473.17004,205.38026 C 473.16889,205.25414 473.17004,205.14057 473.17004,205.01348 L 473.13814,205.01348 C 473.04610,198.96972 470.70502,192.94827 466.07354,188.31678 L 382.09564,104.33889 C 377.37019,99.613432 371.19895,97.258342 365.03216,97.258342 z M 364.31453,108.18216 C 367.05606,108.25358 369.27029,110.34349 373.61174,113.15768 L 413.28835,142.58025 C 413.72268,142.86190 414.13634,143.15571 414.51628,143.45734 C 414.89623,143.75892 415.24328,144.07880 415.56880,144.39823 C 415.89432,144.71708 416.19022,145.03711 416.46184,145.37100 C 416.73289,145.70484 416.97883,146.04611 417.19540,146.39163 C 417.41259,146.73771 417.60682,147.08924 417.76950,147.44414 C 417.93231,147.79968 418.05993,148.16639 418.16818,148.52855 C 418.27707,148.89016 418.36895,149.24749 418.42334,149.61295 C 418.47779,149.97906 418.50308,150.34619 418.50308,150.71331 L 394.99692,139.35892 L 392.65268,157.10814 L 379.71951,151.04820 L 359.75363,164.38005 L 352.11493,138.03530 L 342.27552,161.07898 L 314.79851,163.82190 L 315.10151,151.59041 C 315.10151,148.65253 330.94035,128.08501 340.58511,123.18847 L 358.23865,110.51045 C 360.84349,108.82193 362.66962,108.13931 364.31453,108.18216 z M 327.79547,228.21663 C 340.30207,231.46009 354.21904,235.71546 365.38299,235.79155 L 365.86141,240.81492 C 356.30156,239.82951 336.07325,235.21384 331.30385,232.77753 L 327.79547,228.21663 z "
         id="path1075"
         transform="matrix(0.427996,0.000000,0.000000,0.427996,-73.85429,282.8140)" />
      <path
         style="fill:url(#linearGradient908);fill-rule:evenodd;stroke-width:1.0000000pt;"
         d="M 81.266380,325.57011 C 75.911954,327.98127 72.228085,332.76513 68.057683,336.71517 C 58.713747,346.21634 49.349525,355.70301 40.018266,365.21324 C 39.436067,366.34672 38.991525,367.51834 38.747653,368.77095 C 43.775103,371.30993 49.263994,372.66991 54.505109,374.65961 C 55.745082,375.31477 57.348920,375.55151 58.382153,376.44433 C 59.876886,378.18513 58.788848,380.94106 56.796865,381.74346 C 54.946296,382.73923 53.143974,383.81766 51.360160,384.92780 C 55.969193,387.67679 61.347117,388.61194 66.183091,390.87401 C 67.887884,391.50908 69.461883,392.52548 70.994476,393.44759 C 72.395534,395.20990 71.993907,397.78663 70.526356,399.35929 C 69.738372,400.29418 68.992504,401.25867 68.373001,402.31514 C 71.221276,403.87898 74.865032,403.19660 77.587686,405.08989 C 79.275416,406.12550 79.732836,408.06518 80.169641,409.85857 C 82.082873,411.37206 84.723869,410.84660 86.963007,410.57769 C 89.387711,410.25056 91.534355,409.03056 93.731764,408.03958 C 92.653552,406.92989 90.634293,406.10213 91.104759,404.20459 C 91.405858,401.51186 94.365459,400.46688 96.453562,399.37742 C 100.13937,397.55201 103.90720,395.81070 107.10664,393.18010 C 106.49170,391.59070 104.50095,391.12054 103.32179,389.97729 C 101.98217,389.02188 100.43525,387.88528 99.913905,386.30696 C 99.785566,383.58202 102.41281,381.66696 104.82316,381.07083 C 111.57877,379.04941 118.58369,377.56583 124.81413,374.14021 C 127.21078,373.15221 127.45564,370.07807 126.75097,367.89728 C 125.40671,364.37452 122.60881,361.66208 120.05452,358.97426 C 109.25473,348.32762 98.459519,337.67077 87.646196,327.04134 C 85.727935,325.88622 83.491930,325.41459 81.266380,325.57011 z M 66.754641,377.55824 C 72.361799,378.87902 78.007127,380.01010 83.687233,380.96884 C 85.203160,382.00771 85.322524,384.13358 84.717098,385.70354 C 82.824388,387.56072 80.019654,386.16371 77.829363,385.79632 C 74.191705,384.94587 70.441570,384.28018 67.048888,382.69419 C 66.222488,381.39555 64.915499,379.98361 65.189781,378.37411 C 65.619480,377.81831 66.063470,377.62970 66.754641,377.55824 z "
         id="path1100" />
      <path
         style="fill-rule:evenodd;stroke-width:1.0000000pt;"
         d="M 325.36140,271.17834 C 324.36157,271.44501 316.00880,264.24710 309.39416,267.58329 C 302.78120,270.91900 298.34173,278.38853 304.51978,281.45366 C 310.69842,284.51879 315.11501,280.98426 320.53146,277.18090 C 325.94851,273.37813 325.75306,272.64543 325.36140,271.17834 z "
         id="path1078"
         transform="matrix(0.427996,0.000000,0.000000,0.427996,-73.85429,282.8140)" />
    </g>
  </g>
  <text
     xml:space="preserve"
     style="font-size:12.000000;stroke-width:1.0000000pt;font-family:Bitstream Vera Sans;text-anchor:middle;"
     x="414.82667"
     y="588.90875"
     id="text1653"
     sodipodi:linespacing="1.6835821"
     transform="scale(0.907692,0.907692)"><tspan
       x="414.82666"
       y="588.90875"
       sodipodi:role="line"
       id="tspan1656"
       style="letter-spacing:0.74070477;">Alexander Clausen  John Bintz  Arpad Biro  Daniel Borgmann  Hans Breuer  Bulia Byak  Chema Celorio  Johan Ceuppens </tspan><tspan
       x="414.82666"
       y="609.11174"
       sodipodi:role="line"
       id="tspan1658"
       style="letter-spacing:0.43510869;">Zbigniew Chyla  John Cliff  Kees Cook  Robert Crosbie  Jon Cruz  Danilo Egan  Frank Felfe  Fred  Ted Gould  Bryce Harrington</tspan><tspan
       x="414.82666"
       y="629.31472"
       sodipodi:role="line"
       id="tspan1660"
       style="letter-spacing:0.82352209;">Carl Hetherington  Nathan Hurst  Thomas Ingham  Bob Jamison  Lauris Kaplinski  Lynn Kerby  Petr Kovar  Raph Levien </tspan><tspan
       x="414.82666"
       y="649.51771"
       sodipodi:role="line"
       id="tspan1662"
       style="letter-spacing:0.12588029;">Vitaly Lipatov  Dmitry G. Mastrukov  Michael Meeks  Federico Mena  MenTaLguY  Peter Moulder  Yukihiro Nakai  Christian Neumair</tspan><tspan
       x="414.82666"
       y="669.72069"
       sodipodi:role="line"
       id="tspan1664"
       style="letter-spacing:0.25895482;">Mitsuru Oka  Jon Phillips  Christian Schaller  Tom von Schwerdtner  Pat Suwalski  Adib Taraben  Daniel Yacob  Masatake Yamato</tspan></text>
  <path
     style="font-size:40.000000;stroke-width:1.0000000pt;"
     d="M 619.47170,382.94892 L 578.62329,382.94892 L 578.62329,385.56180 L 579.84727,385.56180 C 585.35217,385.56180 585.96415,385.84003 585.96415,388.17558 L 585.96415,389.78802 L 585.96415,416.25799 L 585.96415,417.87043 C 585.96415,420.20616 585.35217,420.48421 579.84727,420.48421 L 578.62329,420.48421 L 578.62329,423.09719 L 620.35489,423.09719 L 621.71432,408.25062 L 618.72416,408.25062 C 617.84007,412.14309 616.27720,415.59040 614.64557,417.20283 C 612.53859,419.42725 608.66442,420.48421 602.95519,420.48421 L 598.46994,420.48421 C 596.43065,420.48421 594.73124,420.15046 594.12024,419.64978 C 593.64381,419.31594 593.57603,418.98219 593.57603,417.81482 L 593.57603,403.63495 L 594.93556,403.63495 C 599.08184,403.63495 600.78034,403.96870 602.13987,405.13616 C 603.90697,406.58167 604.58674,408.36094 604.72238,411.64241 L 607.91688,411.64241 L 607.91688,393.40315 L 604.72238,393.40315 C 604.38250,398.85244 601.66434,401.02116 595.20767,401.02116 L 593.57603,401.02116 L 593.57603,388.34241 C 593.57603,385.95125 594.18802,385.56180 597.85795,385.56180 L 601.39224,385.56180 C 607.37357,385.56180 610.29596,386.06247 612.60646,387.61930 C 614.84990,389.06571 616.48063,392.17927 617.50027,397.18431 L 620.42266,397.18431 L 619.47170,382.94892 z M 529.27986,405.24738 L 536.96052,405.24738 C 543.07737,405.24738 546.27184,404.85802 548.98994,403.80187 C 553.81603,401.91129 556.53413,398.35177 556.53413,393.95863 C 556.53413,389.73241 554.15589,386.50754 549.66970,384.67257 C 547.01939,383.56000 542.80530,382.94892 538.11572,382.94892 L 514.32713,382.94892 L 514.32713,385.56180 L 515.55105,385.56180 C 521.05597,385.56180 521.66791,385.84003 521.66791,388.17558 L 521.66791,389.78802 L 521.66791,416.25799 L 521.66791,417.87043 C 521.66791,420.20616 521.05597,420.48421 515.55105,420.48421 L 514.32713,420.48421 L 514.32713,423.09719 L 537.16391,423.09719 L 537.16391,420.48421 L 535.39672,420.48421 C 529.89182,420.48421 529.27986,420.20616 529.27986,417.87043 L 529.27986,416.25799 L 529.27986,405.24738 z M 529.27986,402.63360 L 529.27986,388.39811 C 529.27986,385.84003 529.68753,385.56180 533.42618,385.56180 L 537.77586,385.56180 C 544.84455,385.56180 548.17460,388.28680 548.17460,394.18116 C 548.17460,399.90850 544.70806,402.63360 537.50378,402.63360 L 529.27986,402.63360 z M 470.14960,382.17001 L 467.29500,382.17001 L 451.66251,414.58905 C 450.30302,417.48106 450.03096,417.87043 449.01134,418.76056 C 447.92390,419.81662 446.02116,420.48421 444.18616,420.48421 L 443.91409,420.48421 L 443.91409,423.09719 L 461.92478,423.09719 L 461.92478,420.48421 L 460.56617,420.48421 C 456.89536,420.48421 455.06039,419.42725 455.06039,417.31414 C 455.06039,416.64745 455.26469,415.86854 455.67235,414.97841 L 457.91498,410.08559 L 475.92661,410.08559 L 479.59653,417.53667 C 480.00420,418.37119 480.13980,418.76056 480.13980,419.03780 C 480.13980,419.92784 478.44132,420.48421 475.92661,420.48421 L 473.07200,420.48421 L 473.07200,423.09719 L 494.14155,423.09719 L 494.14155,420.48421 L 493.18976,420.48421 C 489.79187,420.48421 489.04345,420.03915 487.48056,416.92469 L 470.14960,382.17001 z M 466.81864,391.29013 L 474.49929,407.08235 L 459.27448,407.08235 L 466.81864,391.29013 z M 419.92209,382.55946 L 417.33960,382.55946 L 414.62060,385.84003 C 409.79454,382.94892 407.14423,382.11440 402.59025,382.11440 C 395.99790,382.11440 390.56078,384.28312 385.93900,388.78748 C 381.58842,393.01379 379.55009,397.68507 379.55009,403.41241 C 379.55009,415.36786 389.13352,423.93161 402.52244,423.93161 C 413.39757,423.93161 420.32981,418.70486 421.89266,409.36238 L 418.69822,408.91731 C 418.01845,411.86485 417.20309,413.86674 415.98009,415.53479 C 413.19327,419.37155 408.84361,421.31783 403.33782,421.31783 C 393.27892,421.31783 388.52155,415.59040 388.52155,403.63495 C 388.52155,397.35123 389.54115,393.12501 391.85161,389.78802 C 393.95863,386.67437 398.17272,384.72818 402.52244,384.72818 C 407.27983,384.72818 411.49391,386.78568 414.07646,390.34439 C 415.36813,392.17927 416.38775,394.34808 417.95067,398.62991 L 420.94172,398.62991 L 419.92209,382.55946 z M 351.88726,382.61507 L 349.37251,382.61507 L 346.65443,385.95125 C 343.45997,383.44869 339.10939,382.11440 334.28426,382.11440 C 325.38064,382.11440 319.39931,386.78568 319.39931,393.73609 C 319.39931,399.79818 323.07017,402.80052 333.06126,404.91363 L 339.51793,406.24792 C 344.54742,407.30488 345.02287,407.41610 346.45014,408.30533 C 348.48944,409.58491 349.57684,411.41979 349.57684,413.58860 C 349.57684,415.81293 348.55722,417.64790 346.51794,419.14911 C 344.27530,420.76245 342.03265,421.37344 338.29404,421.37344 C 333.26465,421.37344 329.66246,420.09485 326.46805,417.20283 C 323.61343,414.58905 322.18612,411.97607 321.16647,407.69433 L 318.24407,407.69433 L 318.51620,423.54216 L 321.16647,423.54216 L 324.22538,419.76101 C 328.77934,422.81985 332.58485,423.93161 338.49827,423.93161 C 348.48944,423.93161 354.87833,419.14911 354.87833,411.69802 C 354.87833,408.25062 353.45108,405.30299 350.79985,403.18988 C 348.96488,401.74437 346.31455,400.79863 340.87655,399.68687 L 333.60447,398.18485 C 327.55545,396.90625 324.70083,394.73744 324.70083,391.34574 C 324.70083,387.45238 328.57506,384.78379 334.35204,384.78379 C 339.10939,384.78379 342.98362,386.45193 345.70264,389.62110 C 347.67319,391.90113 348.89707,394.23677 349.78024,397.07309 L 352.70350,397.07309 L 351.88726,382.61507 z M 259.99694,404.91363 L 259.99694,389.78802 L 259.99694,388.17558 C 259.99694,385.84003 260.60888,385.56180 266.11386,385.56180 L 267.40550,385.56180 L 267.40550,382.94892 L 245.04422,382.94892 L 245.04422,385.56180 L 246.26722,385.56180 C 251.77305,385.56180 252.38502,385.84003 252.38502,388.17558 L 252.38502,389.78802 L 252.38502,416.25799 L 252.38502,417.87043 C 252.38502,420.20616 251.77305,420.48421 246.26722,420.48421 L 245.04422,420.48421 L 245.04422,423.09719 L 267.40550,423.09719 L 267.40550,420.48421 L 266.11386,420.48421 C 260.60888,420.48421 259.99694,420.20616 259.99694,417.87043 L 259.99694,416.25799 L 259.99694,409.19546 L 267.88100,402.68921 L 279.70709,416.86908 C 280.79452,418.20418 281.06652,418.64925 281.06652,419.20472 C 281.06652,420.09485 279.77489,420.48421 276.44476,420.48421 L 274.33771,420.48421 L 274.33771,423.09719 L 297.58217,423.09719 L 297.58217,420.48421 L 296.29139,420.48421 C 292.55276,420.48421 291.60095,420.09485 289.63035,417.70351 L 273.18249,398.29616 L 283.30916,390.01055 C 286.57150,387.17513 290.71776,385.56180 294.79538,385.56180 L 294.79538,382.94892 L 273.86230,382.94892 L 273.86230,385.56180 L 275.56167,385.56180 C 278.68744,385.56180 279.97913,386.06247 279.97913,387.23074 C 279.97913,388.00875 278.61964,389.62110 276.64911,391.23443 L 259.99694,404.91363 z M 184.01018,382.94892 L 170.00934,382.94892 L 170.00934,385.56180 L 171.70870,385.56180 C 175.17439,385.56180 176.73815,386.00686 177.96118,387.39677 L 177.96118,411.03042 C 177.96118,418.64925 176.60161,420.26177 170.07714,420.48421 L 170.07714,423.09719 L 189.44741,423.09719 L 189.44741,420.48421 C 182.99060,420.26177 181.63106,418.64925 181.63106,411.03042 L 181.63106,390.40000 L 211.94435,423.87600 L 214.79894,423.87600 L 214.79894,395.01559 C 214.79894,387.39677 216.15836,385.78433 222.68299,385.56180 L 222.68299,382.94892 L 203.31273,382.94892 L 203.31273,385.56180 C 209.76945,385.78433 211.12892,387.39677 211.12892,395.01559 L 211.12892,412.47594 L 184.01018,382.94892 z M 139.83178,389.78802 L 139.83178,388.17558 C 139.83178,385.84003 140.44370,385.56180 145.88087,385.56180 L 147.24028,385.56180 L 147.24028,382.94892 L 124.74345,382.94892 L 124.74345,385.56180 L 126.10294,385.56180 C 131.60783,385.56180 132.21983,385.84003 132.21983,388.17558 L 132.21983,389.78802 L 132.21983,416.25799 L 132.21983,417.87043 C 132.21983,420.20616 131.60783,420.48421 126.10294,420.48421 L 124.74345,420.48421 L 124.74345,423.09719 L 147.24028,423.09719 L 147.24028,420.48421 L 145.88087,420.48421 C 140.44370,420.48421 139.83178,420.20616 139.83178,417.87043 L 139.83178,416.25799 L 139.83178,389.78802 z "
     id="inkscapetext" />
  <g
     id="g831"
     transform="matrix(0.783606,0.000000,0.000000,1.274649,124.6135,424.8494)"
     style="fill:url(#linearGradient907);stroke-width:0.81864458;stroke:none;stroke-opacity:1.0000000;fill-opacity:1.0000000;">
    <path
       id="path963"
       fill="none"
       d="M 456.94000,32.180000 C 458.89000,28.660000 460.72000,25.200000 462.56000,21.820000 C 466.09000,15.970000 467.65000,9.7300000 474.64000,5.2900000 C 478.65000,3.9800000 477.82000,1.0800000 475.43000,-1.1700000 C 470.36000,-1.1700000 465.30000,-1.1600000 460.23000,-1.1500000 C 454.80000,-0.96000000 448.70000,-1.5500000 443.78000,-0.70000000 C 439.76000,-0.22000000 438.64000,2.6700000 442.27000,4.2700000 C 443.32000,5.2800000 448.28000,5.3600000 447.05000,6.5200000 C 443.59000,7.2000000 438.91000,6.9000000 434.80000,6.7400000 C 432.18000,7.0600000 429.45000,5.7400000 432.82000,5.3000000 C 437.09000,4.0200000 436.57000,1.0800000 434.45000,-1.1700000 C 426.74000,-1.1800000 419.03000,-1.2000000 411.33000,-1.2100000 C 406.55000,-1.3700000 402.37000,0.23000000 402.27000,2.5400000 C 402.77000,4.7100000 407.57000,5.6500000 411.28000,6.4400000 C 418.09000,11.410000 424.88000,16.610000 432.35000,21.820000 C 437.12000,25.280000 442.56000,28.850000 448.29000,32.030000 C 451.17000,32.080000 454.06000,32.140000 456.94000,32.180000 z M 373.63000,30.260000 C 377.92000,32.020000 383.27000,31.570000 388.13000,31.780000 C 387.57000,27.120000 387.91000,22.570000 386.48000,18.150000 C 386.05000,16.260000 382.52000,14.790000 378.90000,14.690000 C 374.12000,14.260000 371.99000,16.620000 370.04000,18.300000 C 367.36000,21.060000 362.47000,23.960000 355.43000,23.350000 C 348.37000,23.110000 344.66000,19.260000 344.21000,16.150000 C 343.82000,13.260000 343.43000,10.130000 346.51000,7.7200000 C 352.20000,4.3200000 364.76000,5.5900000 369.50000,9.4600000 C 371.53000,11.530000 376.20000,13.570000 380.92000,12.810000 C 385.28000,12.590000 386.82000,10.000000 384.96000,8.1300000 C 381.20000,5.2200000 377.54000,1.8200000 370.70000,0.56000000 C 366.10000,-0.61000000 361.13000,-1.0000000 356.16000,-1.2300000 C 350.38000,-1.2400000 344.68000,-0.80000000 339.33000,0.17000000 C 329.99000,1.6400000 323.16000,5.9100000 321.08000,10.680000 C 318.10000,16.600000 323.52000,23.350000 333.63000,27.230000 C 339.32000,29.360000 345.83000,31.120000 352.80000,31.820000 C 360.13000,32.410000 366.90000,31.260000 373.63000,30.260000 z M 292.55000,31.450000 C 293.22000,28.450000 293.84000,25.500000 294.47000,22.600000 C 295.38000,20.190000 294.80000,17.050000 289.86000,16.090000 C 295.00000,14.080000 298.30000,10.910000 297.54000,7.7800000 C 297.11000,4.2700000 292.25000,1.2500000 285.81000,0.010000000 C 276.25000,-2.3200000 264.88000,-1.0900000 254.45000,-0.23000000 C 251.16000,-1.6500000 246.23000,-1.1400000 241.98000,-1.1600000 C 241.09000,2.5900000 239.77000,6.4500000 239.05000,10.370000 C 238.65000,12.460000 242.63000,14.190000 246.84000,13.860000 C 242.88000,15.250000 239.55000,17.440000 238.92000,19.840000 C 238.12000,21.860000 238.63000,23.770000 239.98000,25.610000 C 242.56000,28.660000 248.58000,30.510000 254.69000,31.560000 C 261.48000,31.790000 268.63000,31.790000 275.41000,30.720000 C 278.69000,29.740000 281.80000,30.860000 284.63000,31.590000 C 287.30000,31.880000 289.86000,31.790000 292.55000,31.450000 z M -38.250000,31.590000 C -30.350000,31.580000 -22.440000,31.550000 -14.540000,31.540000 C -9.1200000,31.260000 -4.3400000,32.130000 1.6200000,30.880000 C 6.2300000,29.790000 9.8800000,27.310000 10.410000,25.290000 C 8.8500000,24.240000 6.1500000,23.560000 3.2000000,23.220000 C 8.0300000,17.920000 12.700000,12.790000 17.230000,7.8100000 C 17.920000,6.1900000 21.680000,5.8800000 24.370000,5.3000000 C 30.260000,4.0000000 33.400000,1.0800000 34.190000,-1.1700000 C 24.160000,-1.1700000 14.140000,-1.1600000 4.1100000,-1.1600000 C -0.42000000,-1.3000000 -6.8300000,0.58000000 -8.8800000,2.9100000 C -9.8700000,4.9600000 -5.9400000,5.5200000 -2.6600000,5.9700000 C -7.5000000,10.940000 -12.490000,16.060000 -17.640000,21.340000 C -18.600000,23.090000 -22.630000,23.310000 -25.400000,23.840000 C -31.850000,25.410000 -34.750000,28.660000 -37.980000,31.320000 C -37.980000,31.320000 -38.250000,31.590000 -38.250000,31.590000 z M 25.660000,31.590000 C 34.860000,31.590000 44.060000,31.590000 53.260000,31.590000 C 64.960000,27.210000 76.310000,22.540000 87.390000,18.240000 C 89.080000,17.820000 94.700000,14.750000 92.870000,16.790000 C 91.310000,19.320000 89.140000,22.670000 82.770000,23.810000 C 76.650000,25.360000 73.430000,28.790000 72.880000,31.590000 C 82.360000,31.590000 91.840000,31.590000 101.31000,31.590000 C 106.10000,31.830000 112.37000,29.800000 113.77000,27.130000 C 115.44000,24.380000 110.41000,23.370000 107.11000,22.350000 C 111.14000,15.190000 115.26000,8.3000000 118.81000,1.7400000 C 119.34000,-0.62000000 114.92000,-1.8700000 110.13000,-1.6500000 C 96.190000,3.6700000 81.840000,9.2300000 66.940000,14.950000 C 66.570000,14.430000 69.110000,12.050000 69.830000,10.840000 C 70.970000,8.7100000 74.060000,6.3000000 79.020000,5.4200000 C 84.730000,4.0700000 87.520000,1.1200000 87.860000,-1.1700000 C 79.320000,-1.1400000 70.800000,-1.1400000 62.250000,-1.0900000 C 58.020000,-1.2500000 52.090000,0.23000000 50.190000,2.4900000 C 48.330000,4.8400000 52.590000,5.7000000 55.440000,6.6700000 C 52.040000,11.310000 48.550000,16.090000 44.950000,21.010000 C 44.460000,22.760000 40.530000,23.070000 37.780000,23.700000 C 31.340000,25.020000 27.270000,28.490000 25.830000,31.340000 C 25.830000,31.340000 25.660000,31.590000 25.660000,31.590000 z M 599.40000,31.590000 C 615.02000,31.570000 630.63000,31.550000 646.24000,31.540000 C 652.67000,31.220000 661.06000,32.350000 665.68000,30.680000 C 664.89000,27.640000 661.49000,24.150000 658.60000,20.970000 C 657.29000,18.710000 652.07000,15.880000 646.95000,15.670000 C 641.71000,15.170000 640.72000,17.460000 640.76000,19.380000 C 636.89000,15.360000 634.10000,11.180000 627.14000,7.6300000 C 630.39000,8.5500000 633.18000,9.9200000 635.74000,11.280000 C 641.91000,13.770000 648.45000,13.660000 654.48000,14.090000 C 648.25000,8.8400000 642.16000,3.7600000 636.30000,-1.1700000 C 617.91000,-1.1700000 599.52000,-1.1600000 581.14000,-1.1600000 C 576.43000,-1.2700000 573.76000,0.73000000 576.03000,2.9600000 C 578.84000,4.9300000 583.54000,5.4700000 587.58000,5.9600000 C 591.85000,10.920000 596.26000,16.040000 600.80000,21.320000 C 603.06000,23.060000 599.52000,23.260000 597.93000,23.910000 C 594.21000,25.360000 596.17000,28.630000 599.16000,31.340000 C 599.16000,31.340000 599.40000,31.590000 599.40000,31.590000 z M 534.97000,31.370000 C 544.90000,30.960000 556.14000,31.700000 564.24000,29.560000 C 570.48000,28.560000 573.65000,25.430000 572.00000,21.810000 C 570.24000,18.900000 565.94000,15.860000 560.35000,13.930000 C 551.19000,10.790000 541.30000,10.680000 532.29000,10.280000 C 529.02000,10.560000 526.89000,9.1700000 526.78000,7.7000000 C 525.25000,6.1400000 528.36000,5.7400000 530.44000,5.3700000 C 534.36000,4.0600000 533.01000,1.1200000 530.18000,-1.1700000 C 519.90000,-1.1700000 509.62000,-1.1600000 499.34000,-1.1600000 C 494.66000,-1.2700000 491.47000,0.73000000 493.16000,2.9600000 C 495.47000,4.9300000 500.02000,5.4700000 503.94000,5.9600000 C 506.93000,10.980000 510.02000,16.170000 513.21000,21.520000 C 514.93000,23.720000 509.15000,23.160000 508.06000,24.540000 C 505.16000,26.220000 507.22000,29.790000 512.04000,31.380000 C 519.67000,31.370000 527.37000,31.440000 534.97000,31.370000 z M 258.08000,22.230000 C 261.82000,21.250000 265.69000,20.550000 269.68000,20.050000 C 271.61000,20.040000 277.63000,18.490000 276.95000,19.460000 C 274.03000,21.480000 269.52000,23.210000 264.55000,23.460000 C 262.09000,23.520000 259.27000,23.430000 258.08000,22.230000 z M 536.90000,22.980000 C 536.19000,21.220000 533.38000,19.200000 534.42000,17.700000 C 538.45000,17.750000 544.21000,17.770000 547.23000,20.110000 C 548.89000,22.600000 543.36000,23.230000 539.40000,23.320000 C 538.56000,23.230000 537.65000,23.410000 536.90000,22.980000 z M 622.51000,20.110000 C 622.60000,19.030000 627.69000,21.690000 629.66000,22.350000 C 634.41000,23.450000 629.21000,23.160000 627.49000,23.300000 C 624.74000,23.580000 623.27000,21.080000 622.51000,20.110000 z M 256.32000,9.7600000 C 259.92000,7.2100000 266.26000,5.4600000 272.29000,5.9100000 C 275.12000,5.7300000 279.84000,6.7000000 277.64000,8.3700000 C 269.75000,9.6000000 261.57000,10.430000 253.73000,11.980000 C 250.54000,12.850000 255.76000,10.300000 256.32000,9.7600000 z M 613.75000,10.110000 C 612.08000,10.290000 611.32000,7.4600000 610.03000,6.4600000 C 611.31000,5.9200000 615.70000,6.5000000 618.12000,6.3700000 C 614.81000,6.7100000 615.00000,8.5100000 614.34000,9.8600000 C 614.24000,9.9000000 613.85000,10.070000 613.75000,10.110000 z "
       stroke="black"
       stroke-width="1"
       style="fill-opacity:1.0000000;stroke:none;stroke-opacity:1.0000000;fill:url(#linearGradient907);" />
    <path
       id="path964"
       fill="none"
       d="M 454.98000,30.220000 C 457.70000,25.420000 460.28000,20.740000 462.84000,16.190000 C 465.65000,11.990000 465.79000,7.0200000 472.14000,4.1200000 C 476.52000,3.5900000 476.20000,0.88000000 474.02000,-1.0100000 C 468.95000,-1.0100000 463.87000,-1.0100000 458.80000,-1.0200000 C 453.99000,-0.88000000 448.66000,-1.3000000 444.15000,-0.80000000 C 440.26000,-0.24000000 440.60000,2.9400000 445.09000,3.8100000 C 447.87000,3.9000000 451.13000,4.4200000 449.19000,5.8600000 C 449.26000,7.7400000 444.92000,6.9400000 442.15000,7.1000000 C 438.13000,6.9000000 433.74000,7.6100000 429.94000,6.5200000 C 427.02000,5.7700000 427.11000,3.9600000 430.45000,4.1000000 C 434.92000,3.5800000 434.96000,0.88000000 433.01000,-1.0100000 C 425.86000,-1.0200000 418.71000,-1.0400000 411.56000,-1.0500000 C 407.64000,-1.3300000 403.26000,-0.12000000 404.02000,1.9500000 C 404.17000,3.9300000 409.26000,4.3800000 412.39000,4.9700000 C 418.11000,9.2600000 423.99000,13.660000 430.03000,18.190000 C 435.73000,22.010000 441.51000,26.250000 447.64000,30.070000 C 450.08000,30.120000 452.54000,30.180000 454.98000,30.220000 z M 373.81000,28.250000 C 377.04000,30.130000 381.81000,29.840000 385.92000,29.810000 C 385.57000,25.570000 385.19000,21.430000 384.84000,17.390000 C 384.29000,15.080000 378.31000,14.010000 374.93000,15.170000 C 372.67000,16.270000 372.09000,18.220000 370.08000,19.560000 C 367.55000,22.800000 360.28000,24.540000 353.33000,23.570000 C 345.87000,22.720000 342.31000,18.690000 342.00000,15.270000 C 341.16000,12.790000 341.82000,10.270000 343.04000,7.9800000 C 344.08000,6.0400000 347.26000,4.7100000 351.13000,4.2100000 C 355.60000,3.7800000 360.78000,3.9400000 364.85000,5.2700000 C 369.21000,6.1600000 370.88000,8.3600000 373.50000,10.080000 C 376.20000,12.090000 383.94000,11.790000 383.95000,9.2800000 C 383.66000,7.3900000 381.28000,5.4800000 378.62000,4.0200000 C 374.95000,1.2900000 368.63000,-0.040000000 362.58000,-0.80000000 C 355.91000,-1.3900000 348.86000,-1.4300000 342.60000,-0.27000000 C 330.35000,1.0900000 321.70000,7.1800000 322.07000,13.540000 C 321.98000,17.180000 325.10000,20.740000 330.06000,23.520000 C 334.11000,25.740000 339.10000,27.520000 344.62000,28.690000 C 348.42000,29.550000 352.26000,30.280000 356.39000,30.010000 C 362.65000,30.400000 368.20000,29.210000 373.81000,28.250000 z M 257.60000,29.950000 C 264.98000,29.980000 272.61000,29.730000 279.59000,28.100000 C 282.82000,29.290000 286.62000,30.530000 290.87000,29.660000 C 291.60000,26.350000 292.31000,23.100000 292.97000,19.920000 C 294.10000,17.630000 290.34000,15.300000 285.67000,15.730000 C 288.44000,15.050000 290.80000,13.890000 292.94000,12.750000 C 295.07000,11.200000 296.23000,9.3700000 296.10000,7.5500000 C 295.78000,5.3000000 294.07000,2.9700000 290.55000,1.5200000 C 284.34000,-1.0600000 275.37000,-1.5700000 267.23000,-1.0900000 C 262.79000,-1.0700000 258.33000,0.31000000 254.02000,-0.030000000 C 251.68000,-1.3900000 247.44000,-1.3800000 243.85000,-1.0200000 C 242.57000,2.2900000 241.62000,5.6800000 241.13000,9.1500000 C 239.83000,11.130000 244.05000,12.720000 247.78000,12.260000 C 251.31000,12.180000 252.04000,10.220000 253.98000,9.0700000 C 257.55000,5.7200000 265.24000,3.7100000 272.49000,3.9500000 C 275.63000,4.2900000 280.60000,4.5100000 280.91000,6.4700000 C 281.44000,8.1000000 278.12000,8.8500000 275.30000,8.9900000 C 266.51000,10.350000 256.92000,10.860000 248.75000,13.420000 C 243.21000,15.010000 239.95000,18.340000 240.40000,21.390000 C 240.70000,25.370000 246.77000,28.260000 253.77000,29.480000 C 255.05000,29.630000 256.32000,29.790000 257.60000,29.950000 z M 165.51000,29.780000 C 169.82000,30.150000 174.78000,27.890000 174.72000,25.630000 C 174.31000,23.650000 169.29000,23.520000 165.97000,23.230000 C 166.90000,20.970000 167.81000,18.730000 168.71000,16.530000 C 171.41000,17.920000 174.13000,19.330000 176.88000,20.750000 C 177.98000,21.780000 182.13000,22.480000 181.33000,23.730000 C 176.24000,24.420000 174.19000,27.450000 174.58000,29.640000 C 179.70000,29.640000 184.82000,29.640000 189.95000,29.640000 C 196.83000,29.400000 204.61000,30.710000 210.98000,28.000000 C 214.12000,26.070000 211.51000,23.580000 207.57000,23.270000 C 199.37000,22.120000 193.73000,19.120000 187.96000,16.470000 C 191.99000,14.540000 195.97000,12.630000 199.90000,10.750000 C 205.59000,8.2600000 210.65000,4.8600000 218.08000,4.1000000 C 222.82000,3.5000000 224.62000,0.88000000 223.85000,-1.0100000 C 214.92000,-1.0100000 206.00000,-1.0100000 197.07000,-1.0100000 C 193.66000,-1.1800000 188.34000,-0.96000000 186.85000,1.0900000 C 184.80000,2.8400000 187.94000,4.2300000 191.29000,4.2600000 C 188.36000,5.6800000 185.40000,7.1100000 182.42000,8.5500000 C 180.40000,9.2500000 178.28000,11.420000 175.84000,10.560000 C 172.92000,9.6000000 172.99000,7.6400000 173.58000,5.8800000 C 173.36000,4.4400000 176.86000,4.3400000 178.99000,4.1200000 C 183.85000,3.5400000 185.92000,0.88000000 185.46000,-1.0100000 C 175.89000,-1.0100000 166.31000,-1.0100000 156.74000,-1.0100000 C 153.16000,-1.3600000 148.77000,0.32000000 148.31000,2.1400000 C 148.86000,3.9400000 153.06000,4.2000000 156.39000,4.5100000 C 153.74000,10.040000 150.99000,15.750000 148.14000,21.670000 C 147.78000,23.580000 143.49000,23.270000 140.97000,23.890000 C 136.47000,24.600000 133.79000,27.720000 136.39000,29.190000 C 142.04000,29.700000 148.41000,29.650000 154.53000,29.620000 C 158.19000,29.670000 161.85000,29.730000 165.51000,29.780000 z M 662.97000,28.840000 C 660.77000,25.440000 658.39000,21.890000 654.32000,18.520000 C 652.80000,16.460000 646.72000,15.040000 643.95000,15.830000 C 640.11000,16.910000 644.04000,20.440000 641.39000,22.010000 C 639.16000,19.680000 636.96000,17.380000 634.80000,15.110000 C 632.03000,12.620000 630.88000,9.9100000 626.44000,7.7000000 C 622.92000,5.6700000 617.19000,5.8700000 616.33000,7.4400000 C 616.76000,9.1000000 616.36000,11.320000 611.65000,10.870000 C 609.45000,8.7100000 607.77000,6.6000000 606.63000,4.5300000 C 610.54000,4.4700000 614.47000,4.4500000 618.59000,4.6400000 C 624.68000,4.5800000 631.57000,7.1700000 635.90000,9.8800000 C 640.43000,12.230000 645.89000,11.960000 650.52000,12.180000 C 645.16000,7.6600000 639.90000,3.2700000 634.82000,-1.0100000 C 617.11000,-1.0100000 599.41000,-1.0100000 581.70000,-1.0100000 C 577.62000,-1.3600000 575.03000,0.19000000 577.13000,2.0900000 C 579.86000,4.0500000 584.60000,4.2300000 588.33000,4.4900000 C 592.96000,9.8800000 597.76000,15.460000 602.72000,21.220000 C 605.05000,22.810000 602.70000,23.760000 599.79000,23.550000 C 595.38000,24.250000 596.96000,27.330000 599.79000,29.640000 C 618.78000,29.620000 637.77000,29.600000 656.75000,29.580000 C 659.28000,29.710000 662.17000,29.850000 662.97000,28.840000 z M -34.140000,29.640000 C -22.830000,29.630000 -11.510000,29.610000 -0.20000000,29.600000 C 4.4900000,29.400000 9.3400000,26.610000 9.0600000,24.650000 C 7.1000000,23.880000 4.1200000,23.490000 1.2800000,23.210000 C 6.6400000,17.370000 11.810000,11.730000 16.820000,6.2700000 C 17.360000,4.8000000 20.940000,4.1500000 23.430000,4.1400000 C 28.570000,3.6000000 32.090000,0.89000000 32.540000,-1.0100000 C 23.040000,-1.0100000 13.540000,-1.0100000 4.0400000,-1.0100000 C 0.57000000,-1.3600000 -5.0100000,0.22000000 -6.2200000,2.1600000 C -6.9800000,4.1000000 -2.4200000,4.2100000 0.78000000,4.4900000 C -4.5800000,10.020000 -10.140000,15.750000 -15.890000,21.670000 C -16.980000,23.410000 -20.790000,23.340000 -23.340000,23.590000 C -28.860000,24.390000 -31.370000,27.250000 -33.870000,29.370000 C -33.870000,29.370000 -34.140000,29.640000 -34.140000,29.640000 z M 29.260000,29.640000 C 37.700000,29.640000 46.140000,29.640000 54.590000,29.640000 C 69.500000,23.720000 83.890000,17.990000 97.820000,12.460000 C 96.590000,14.240000 95.350000,16.030000 94.100000,17.850000 C 93.040000,20.030000 90.390000,22.890000 85.000000,23.550000 C 79.630000,24.250000 76.210000,27.360000 76.060000,29.640000 C 85.250000,29.640000 94.440000,29.640000 103.63000,29.640000 C 107.56000,29.960000 112.49000,27.890000 112.76000,25.790000 C 113.79000,23.180000 106.99000,23.760000 105.31000,22.150000 C 109.50000,15.030000 113.51000,8.2100000 117.36000,1.6700000 C 118.81000,-0.45000000 115.18000,-1.8400000 110.89000,-1.4800000 C 95.570000,4.4100000 79.680000,10.540000 63.160000,16.910000 C 65.140000,14.390000 67.100000,11.920000 69.020000,9.4800000 C 70.150000,7.4300000 72.970000,4.8000000 77.990000,4.2200000 C 83.040000,3.5900000 86.170000,0.92000000 86.230000,-1.0100000 C 77.910000,-0.98000000 69.580000,-0.95000000 61.250000,-0.92000000 C 57.670000,-1.2200000 52.290000,0.60000000 52.150000,2.4500000 C 51.550000,4.4300000 56.960000,4.1100000 58.460000,5.3800000 C 54.700000,10.510000 50.820000,15.810000 46.810000,21.280000 C 46.180000,23.090000 42.120000,23.230000 39.440000,23.540000 C 34.100000,24.160000 30.320000,27.120000 29.420000,29.390000 C 29.420000,29.390000 29.260000,29.640000 29.260000,29.640000 z M 511.53000,29.560000 C 519.33000,29.520000 527.18000,29.550000 534.94000,29.450000 C 545.64000,29.070000 558.27000,30.100000 565.86000,26.990000 C 570.64000,25.340000 571.51000,21.740000 567.60000,18.380000 C 564.55000,16.040000 560.24000,13.450000 554.85000,12.480000 C 545.04000,10.290000 535.68000,10.540000 526.45000,10.240000 C 525.57000,8.7700000 524.70000,7.3100000 523.84000,5.8600000 C 522.25000,4.2800000 526.06000,4.3700000 527.97000,4.0500000 C 532.15000,3.4800000 531.27000,0.85000000 528.79000,-1.0100000 C 519.15000,-1.0100000 509.50000,-1.0100000 499.86000,-1.0100000 C 495.88000,-1.3600000 492.88000,0.19000000 494.49000,2.0900000 C 496.71000,4.0500000 501.41000,4.2300000 505.06000,4.4900000 C 508.21000,9.7700000 511.46000,15.230000 514.82000,20.870000 C 516.42000,22.360000 515.42000,23.700000 512.23000,23.540000 C 507.09000,23.660000 506.71000,27.490000 511.30000,29.440000 C 511.30000,29.440000 511.53000,29.560000 511.53000,29.560000 z M 255.71000,20.930000 C 263.55000,18.390000 272.82000,18.080000 281.23000,16.690000 C 285.06000,15.630000 279.74000,17.680000 279.59000,18.600000 C 276.42000,21.890000 269.34000,23.900000 262.33000,23.850000 C 259.22000,23.670000 255.30000,22.840000 255.71000,20.930000 z M 535.13000,23.270000 C 533.18000,20.800000 531.66000,18.370000 530.54000,15.970000 C 533.42000,15.830000 536.40000,15.850000 539.52000,16.120000 C 543.82000,16.090000 548.72000,17.960000 549.86000,20.190000 C 550.70000,23.030000 544.27000,23.450000 539.57000,23.510000 C 538.09000,23.440000 536.61000,23.350000 535.13000,23.270000 z M 623.40000,23.210000 C 621.46000,21.150000 619.54000,19.110000 617.65000,17.100000 C 620.22000,17.190000 623.30000,17.920000 625.55000,19.040000 C 628.14000,20.450000 631.43000,21.840000 634.88000,22.010000 C 636.76000,22.600000 642.77000,21.530000 640.39000,22.440000 C 636.80000,23.200000 632.26000,23.500000 627.63000,23.490000 C 626.23000,23.410000 624.81000,23.310000 623.40000,23.210000 z M 443.27000,15.910000 C 442.64000,17.920000 439.97000,14.240000 438.36000,13.510000 C 436.51000,12.130000 443.28000,13.180000 445.16000,12.850000 C 444.54000,13.860000 443.91000,14.880000 443.27000,15.910000 z "
       stroke="black"
       stroke-width="1"
       style="fill-opacity:1.0000000;stroke:none;stroke-opacity:1.0000000;fill:url(#linearGradient907);" />
    <path
       id="path965"
       fill="none"
       d="M 453.09000,28.440000 C 456.87000,21.800000 460.44000,15.400000 463.91000,9.2500000 C 465.73000,6.9600000 465.07000,3.6300000 470.45000,2.7600000 C 474.32000,2.9200000 474.42000,0.69000000 472.65000,-0.71000000 C 463.90000,-0.71000000 455.14000,-0.72000000 446.39000,-0.72000000 C 442.78000,-1.1300000 441.71000,1.1500000 444.37000,2.3200000 C 446.76000,2.8400000 449.75000,2.4800000 452.32000,3.0400000 C 451.49000,4.4800000 450.65000,5.9400000 449.80000,7.4100000 C 443.95000,7.4100000 438.10000,7.4100000 432.25000,7.4100000 C 429.09000,7.7900000 427.11000,6.2200000 425.84000,4.9800000 C 423.79000,3.7400000 426.06000,2.4700000 428.80000,2.7400000 C 432.72000,2.9400000 433.24000,0.71000000 431.61000,-0.71000000 C 424.35000,-0.72000000 417.10000,-0.74000000 409.85000,-0.76000000 C 406.27000,-1.1100000 404.46000,0.80000000 406.00000,2.2700000 C 408.08000,3.0200000 411.43000,2.7600000 413.60000,3.6800000 C 418.28000,6.7900000 422.38000,10.250000 426.99000,13.600000 C 433.52000,18.340000 439.64000,23.620000 447.19000,28.290000 C 449.16000,28.340000 451.13000,28.410000 453.09000,28.440000 z M 361.35000,28.250000 C 366.25000,28.520000 369.55000,26.460000 374.20000,26.360000 C 376.28000,28.020000 380.46000,28.520000 383.77000,28.090000 C 383.20000,24.160000 383.75000,20.320000 382.89000,16.570000 C 382.82000,14.700000 377.41000,14.440000 375.39000,15.510000 C 373.02000,17.850000 372.24000,20.860000 367.51000,22.450000 C 363.68000,24.440000 357.30000,24.680000 352.05000,23.860000 C 347.05000,23.120000 343.22000,21.050000 341.36000,18.660000 C 339.31000,14.930000 338.45000,10.950000 340.67000,7.4400000 C 341.62000,4.7700000 346.27000,2.8000000 351.66000,2.4700000 C 357.18000,2.0700000 363.56000,2.5000000 368.22000,4.3400000 C 371.68000,5.6100000 373.19000,7.5100000 375.11000,9.3300000 C 377.22000,10.190000 380.80000,10.120000 382.32000,9.1200000 C 382.50000,7.3000000 379.64000,5.6800000 377.97000,4.1100000 C 374.27000,1.4900000 368.27000,-0.010000000 362.25000,-0.69000000 C 353.64000,-1.4600000 344.33000,-1.0800000 336.94000,1.0400000 C 331.63000,2.3400000 328.17000,4.7900000 325.80000,7.4500000 C 322.50000,11.150000 323.27000,15.860000 327.44000,19.580000 C 332.42000,23.950000 341.39000,26.970000 351.08000,28.170000 C 354.53000,28.300000 357.94000,28.460000 361.35000,28.250000 z M 265.54000,28.230000 C 270.65000,28.110000 275.52000,27.360000 280.21000,26.220000 C 282.43000,27.540000 285.49000,28.700000 289.18000,28.050000 C 289.70000,25.640000 290.17000,23.260000 290.66000,20.920000 C 290.57000,19.310000 292.96000,16.720000 288.92000,16.080000 C 285.66000,15.680000 283.08000,15.990000 282.29000,17.860000 C 278.95000,22.190000 268.97000,25.190000 260.17000,24.060000 C 255.92000,23.960000 251.98000,22.000000 253.93000,19.730000 C 258.68000,17.450000 265.20000,17.190000 271.00000,16.420000 C 278.13000,15.550000 286.54000,15.000000 291.30000,11.890000 C 294.34000,10.160000 295.05000,7.9000000 294.42000,5.8000000 C 293.66000,4.5900000 292.93000,3.2000000 291.06000,2.3100000 C 289.20000,0.93000000 286.25000,0.30000000 283.16000,-0.24000000 C 276.76000,-1.3700000 269.44000,-1.3700000 262.61000,-0.46000000 C 259.55000,-0.46000000 257.23000,0.76000000 254.29000,0.77000000 C 252.80000,-0.75000000 248.96000,-1.3400000 245.44000,-0.93000000 C 244.63000,2.1600000 243.77000,5.3200000 242.91000,8.5300000 C 241.27000,10.740000 248.70000,11.970000 250.56000,9.7400000 C 252.72000,7.2600000 256.15000,4.9600000 260.96000,3.5800000 C 267.35000,2.0200000 275.88000,1.5100000 281.38000,3.6900000 C 284.70000,4.8500000 284.12000,7.5200000 280.56000,8.6600000 C 270.50000,10.520000 259.38000,10.570000 249.70000,13.370000 C 245.01000,14.680000 242.13000,17.490000 242.31000,20.050000 C 241.75000,23.830000 247.65000,26.610000 254.12000,27.740000 C 257.69000,28.460000 261.64000,28.420000 265.54000,28.230000 z M 167.37000,28.010000 C 170.82000,28.450000 173.63000,26.320000 173.11000,24.780000 C 171.33000,23.320000 166.73000,24.180000 163.95000,23.420000 C 165.35000,20.140000 166.72000,16.910000 168.06000,13.750000 C 172.86000,16.210000 177.72000,18.710000 182.66000,21.250000 C 184.49000,21.840000 188.23000,24.030000 183.18000,23.840000 C 179.05000,23.520000 176.56000,26.160000 177.10000,27.870000 C 183.15000,27.870000 189.20000,27.870000 195.25000,27.870000 C 199.59000,27.600000 204.20000,28.560000 208.39000,27.380000 C 211.96000,26.600000 211.73000,23.910000 208.24000,23.790000 C 198.08000,23.060000 192.02000,19.070000 185.51000,15.960000 C 190.98000,13.340000 196.38000,10.750000 201.68000,8.2000000 C 206.49000,6.1800000 210.69000,2.8800000 217.22000,2.7700000 C 221.01000,2.9000000 222.93000,0.72000000 222.25000,-0.71000000 C 212.60000,-0.71000000 202.95000,-0.71000000 193.29000,-0.71000000 C 190.37000,-1.0100000 187.62000,0.59000000 188.27000,1.8800000 C 189.25000,3.3100000 193.25000,2.3100000 195.25000,3.0200000 C 190.06000,5.5400000 184.79000,8.1100000 179.44000,10.710000 C 176.89000,12.840000 175.31000,10.680000 173.41000,9.9800000 C 169.83000,8.9100000 171.46000,6.4000000 172.23000,4.4800000 C 172.13000,2.8100000 175.95000,2.8000000 178.34000,2.7600000 C 182.13000,2.9500000 184.33000,0.71000000 183.82000,-0.71000000 C 174.60000,-0.71000000 165.38000,-0.71000000 156.16000,-0.71000000 C 153.61000,-1.2800000 150.49000,0.32000000 150.56000,1.5700000 C 151.64000,3.1600000 156.27000,2.5400000 159.04000,3.1200000 C 156.13000,9.2300000 153.11000,15.560000 149.97000,22.150000 C 149.30000,24.120000 144.90000,23.550000 142.31000,23.930000 C 138.71000,23.970000 135.67000,27.080000 138.75000,27.810000 C 144.04000,28.120000 149.93000,27.770000 155.43000,27.850000 C 159.41000,27.900000 163.39000,27.960000 167.37000,28.010000 z M 660.31000,27.400000 C 658.25000,24.380000 655.16000,21.280000 652.60000,18.320000 C 652.00000,16.460000 646.41000,15.250000 644.24000,16.070000 C 642.64000,16.900000 644.32000,18.800000 644.20000,20.100000 C 645.49000,23.040000 639.29000,23.560000 634.24000,23.670000 C 630.15000,23.600000 626.33000,24.510000 621.69000,23.380000 C 618.53000,20.650000 616.01000,17.970000 614.19000,15.320000 C 618.19000,15.290000 623.53000,16.040000 626.89000,18.160000 C 629.13000,20.450000 634.84000,20.830000 637.93000,20.410000 C 635.70000,18.070000 633.50000,15.760000 631.32000,13.480000 C 628.89000,11.400000 628.22000,9.0800000 624.53000,7.2300000 C 622.27000,5.9700000 619.09000,6.2900000 617.78000,6.9100000 C 617.02000,8.0700000 619.71000,10.060000 617.03000,10.760000 C 615.51000,11.260000 612.05000,12.000000 609.88000,10.970000 C 608.10000,8.2800000 603.68000,5.4600000 603.72000,3.0000000 C 608.88000,2.7600000 614.27000,2.7800000 619.95000,3.1200000 C 626.21000,3.4300000 632.58000,6.0800000 636.53000,8.7900000 C 639.26000,10.810000 643.61000,10.390000 646.80000,10.510000 C 642.28000,6.6800000 637.80000,2.9400000 633.47000,-0.71000000 C 616.00000,-0.71000000 598.54000,-0.71000000 581.08000,-0.71000000 C 577.41000,-1.2100000 576.77000,0.58000000 579.05000,1.9200000 C 582.35000,3.1800000 585.65000,2.4300000 589.12000,3.1200000 C 594.41000,9.2400000 599.91000,15.590000 605.62000,22.190000 C 607.61000,24.090000 602.71000,23.570000 600.61000,23.860000 C 596.78000,23.900000 598.49000,26.360000 600.29000,27.870000 C 618.54000,27.820000 636.94000,27.950000 655.08000,27.800000 C 656.90000,27.850000 659.89000,28.260000 660.31000,27.400000 z M 107.21000,27.890000 C 111.03000,27.400000 112.72000,24.580000 110.04000,23.800000 C 107.48000,23.450000 103.50000,23.590000 103.59000,21.820000 C 107.39000,14.700000 111.46000,7.8700000 115.81000,1.3100000 C 117.70000,-0.35000000 115.01000,-1.6900000 111.44000,-1.1900000 C 94.880000,5.0800000 77.710000,11.920000 59.770000,18.860000 C 62.830000,14.960000 65.810000,11.150000 68.730000,7.4300000 C 69.720000,5.5600000 72.890000,3.0900000 77.530000,2.9100000 C 81.290000,3.0300000 84.680000,0.81000000 84.510000,-0.71000000 C 76.000000,-0.66000000 67.570000,-0.81000000 59.010000,-0.64000000 C 55.230000,-0.49000000 53.040000,2.1300000 55.560000,2.7900000 C 58.010000,2.8700000 61.290000,2.9800000 61.270000,4.3500000 C 58.010000,9.9100000 53.210000,15.810000 48.450000,21.840000 C 47.100000,23.810000 42.800000,23.660000 40.000000,23.820000 C 35.990000,23.790000 33.240000,26.260000 32.680000,27.870000 C 40.140000,27.870000 47.600000,27.870000 55.060000,27.870000 C 71.300000,21.450000 86.930000,15.250000 102.01000,9.2800000 C 99.910000,12.350000 97.770000,15.490000 95.600000,18.680000 C 94.760000,20.740000 91.490000,23.420000 86.550000,23.660000 C 82.550000,23.540000 78.930000,26.090000 79.090000,27.870000 C 87.990000,27.870000 96.900000,27.870000 105.81000,27.870000 C 106.28000,27.870000 106.74000,27.880000 107.21000,27.890000 z M -30.230000,27.870000 C -19.810000,27.870000 -9.3900000,27.870000 1.0300000,27.870000 C 4.6100000,28.200000 8.2900000,25.670000 7.5500000,24.300000 C 5.4300000,23.690000 1.3900000,24.070000 -0.83000000,23.400000 C 5.2300000,16.850000 11.050000,10.550000 16.650000,4.4800000 C 17.420000,2.8600000 21.140000,2.7800000 23.520000,2.7600000 C 27.210000,2.9400000 30.590000,0.73000000 30.760000,-0.71000000 C 21.470000,-0.71000000 12.170000,-0.71000000 2.8800000,-0.71000000 C 0.31000000,-1.2000000 -3.6600000,0.45000000 -3.8700000,1.7700000 C -3.6200000,3.3000000 1.9600000,2.3700000 4.0800000,3.1200000 C -1.8000000,9.2300000 -7.9200000,15.560000 -14.280000,22.150000 C -15.980000,24.090000 -19.950000,23.700000 -22.600000,23.820000 C -26.500000,23.970000 -28.550000,26.100000 -29.970000,27.600000 C -29.970000,27.600000 -30.230000,27.870000 -30.230000,27.870000 z M 514.93000,27.870000 C 527.05000,27.770000 539.46000,28.050000 551.26000,27.550000 C 558.75000,27.300000 566.97000,26.170000 567.71000,22.340000 C 568.83000,18.590000 561.10000,13.720000 552.67000,12.210000 C 542.93000,10.260000 533.83000,10.670000 524.76000,10.530000 C 523.49000,8.3900000 522.23000,6.2900000 520.99000,4.2200000 C 519.37000,2.5600000 523.36000,2.7800000 525.61000,2.7400000 C 529.69000,2.9800000 529.59000,0.74000000 527.48000,-0.71000000 C 518.04000,-0.71000000 508.61000,-0.71000000 499.17000,-0.71000000 C 495.63000,-1.2100000 494.52000,0.58000000 496.45000,1.9200000 C 499.43000,3.1800000 502.93000,2.4300000 506.22000,3.1200000 C 509.82000,9.0800000 513.57000,15.260000 517.45000,21.680000 C 519.44000,23.550000 515.93000,23.900000 513.07000,23.800000 C 509.01000,23.640000 509.01000,25.970000 510.82000,27.620000 C 511.50000,28.180000 513.72000,27.710000 514.93000,27.870000 z M 533.17000,23.480000 C 532.13000,21.890000 531.09000,20.310000 530.07000,18.750000 C 529.62000,17.340000 527.03000,15.550000 527.95000,14.420000 C 531.70000,13.720000 537.00000,14.430000 541.54000,14.640000 C 548.08000,15.040000 553.36000,19.110000 551.91000,21.670000 C 549.53000,24.240000 542.05000,23.730000 536.32000,23.940000 C 535.25000,23.910000 534.25000,23.760000 533.17000,23.480000 z M 443.45000,18.510000 C 440.20000,16.050000 437.00000,13.630000 433.84000,11.240000 C 438.47000,11.240000 443.10000,11.240000 447.73000,11.240000 C 446.32000,13.630000 444.89000,16.050000 443.45000,18.510000 z "
       stroke="black"
       stroke-width="1"
       style="fill-opacity:1.0000000;stroke:none;stroke-opacity:1.0000000;fill:url(#linearGradient907);" />
    <path
       id="path966"
       fill="none"
       d="M 355.42000,27.120000 C 362.30000,27.740000 368.24000,26.030000 373.98000,24.650000 C 376.02000,25.990000 378.82000,27.420000 382.25000,26.950000 C 382.11000,24.590000 381.92000,22.270000 381.77000,19.980000 C 381.20000,18.450000 382.63000,16.300000 379.72000,15.280000 C 375.25000,14.790000 375.44000,17.610000 374.10000,19.000000 C 370.55000,24.620000 354.89000,26.720000 345.44000,22.640000 C 339.61000,19.990000 338.33000,15.870000 337.92000,12.320000 C 338.15000,10.210000 338.22000,8.0200000 339.60000,6.0700000 C 341.92000,2.2200000 351.12000,0.71000000 358.81000,1.3600000 C 365.40000,1.6700000 371.68000,3.8000000 374.65000,6.8200000 C 375.19000,8.2200000 378.23000,9.4900000 380.93000,8.6600000 C 380.30000,5.8400000 376.47000,3.3600000 371.98000,1.6200000 C 363.99000,-0.97000000 353.78000,-1.3200000 345.08000,-0.23000000 C 339.20000,0.82000000 332.70000,2.1400000 329.56000,5.0100000 C 327.03000,6.8800000 325.43000,9.1200000 325.24000,11.440000 C 324.95000,13.500000 325.82000,15.480000 327.43000,17.430000 C 329.52000,19.840000 333.13000,21.890000 337.20000,23.620000 C 342.36000,25.430000 348.47000,26.980000 354.80000,27.110000 C 354.84000,27.110000 355.25000,27.120000 355.42000,27.120000 z M 451.75000,27.230000 C 455.60000,20.510000 459.29000,14.040000 462.80000,7.8000000 C 464.27000,5.6400000 464.18000,2.5400000 469.06000,1.7600000 C 471.66000,1.8500000 473.27000,0.84000000 471.66000,-0.39000000 C 464.02000,-0.36000000 456.32000,-0.43000000 448.72000,-0.35000000 C 446.73000,-0.44000000 442.48000,-0.050000000 445.27000,1.2300000 C 447.59000,2.1400000 451.31000,1.2200000 453.87000,2.3500000 C 452.95000,4.1300000 452.02000,5.9300000 451.08000,7.7500000 C 444.55000,7.7500000 438.02000,7.7500000 431.49000,7.7500000 C 427.84000,8.2200000 425.96000,6.1800000 424.54000,4.8500000 C 422.03000,3.3600000 424.06000,1.5500000 427.62000,1.7000000 C 430.27000,1.8800000 432.04000,0.85000000 430.57000,-0.39000000 C 424.20000,-0.39000000 417.83000,-0.40000000 411.46000,-0.40000000 C 408.93000,-0.76000000 405.68000,0.040000000 407.43000,1.4500000 C 409.86000,2.1200000 413.67000,2.0100000 415.70000,3.4100000 C 422.54000,8.3000000 429.08000,13.530000 436.16000,18.810000 C 440.25000,21.510000 442.95000,24.990000 448.38000,27.210000 C 449.50000,27.220000 450.62000,27.230000 451.75000,27.230000 z M 280.42000,24.570000 C 282.08000,25.900000 284.41000,27.360000 287.98000,26.910000 C 288.37000,25.030000 288.71000,23.180000 289.07000,21.350000 C 288.82000,19.680000 291.45000,17.280000 287.92000,16.280000 C 284.91000,15.730000 284.13000,17.490000 282.89000,18.510000 C 278.82000,23.260000 267.01000,25.970000 257.84000,24.210000 C 252.82000,23.800000 249.83000,20.480000 253.93000,18.370000 C 258.05000,16.840000 263.12000,16.130000 267.96000,15.620000 C 275.20000,14.830000 283.26000,14.460000 288.96000,11.870000 C 292.34000,10.390000 293.56000,8.2100000 293.32000,6.1300000 C 292.92000,3.7700000 289.99000,1.4900000 285.65000,0.49000000 C 276.00000,-1.6400000 264.01000,-1.0500000 254.27000,1.5800000 C 252.66000,0.34000000 250.56000,-1.0800000 246.88000,-0.66000000 C 246.19000,2.0800000 245.44000,4.8600000 244.70000,7.7000000 C 243.74000,8.9500000 245.58000,10.330000 248.42000,9.7000000 C 250.26000,8.7700000 251.14000,7.3100000 252.56000,6.1900000 C 255.71000,4.0300000 260.24000,2.3300000 265.32000,1.5700000 C 272.19000,0.87000000 280.74000,0.91000000 284.86000,3.9300000 C 286.75000,5.8800000 284.23000,8.3500000 280.08000,9.2400000 C 269.80000,10.770000 258.59000,11.090000 248.96000,14.030000 C 245.36000,15.710000 243.45000,18.130000 243.87000,20.480000 C 244.92000,24.190000 251.59000,26.630000 258.76000,27.110000 C 266.16000,27.500000 273.93000,26.750000 280.42000,24.570000 z M -1.7700000,26.780000 C 0.72000000,27.020000 4.5500000,26.840000 6.3600000,25.050000 C 4.8400000,23.600000 -0.82000000,24.800000 -2.1400000,23.320000 C 4.1500000,16.540000 10.190000,10.030000 16.000000,3.7700000 C 16.570000,2.3200000 20.170000,1.5400000 22.610000,1.7800000 C 25.080000,2.0600000 29.200000,1.0800000 29.310000,-0.39000000 C 21.530000,-0.41000000 13.640000,-0.32000000 5.9500000,-0.44000000 C 3.6000000,-0.62000000 0.23000000,-0.34000000 -2.0000000,0.79000000 C -0.81000000,2.2400000 4.4900000,1.2800000 6.3100000,2.4000000 C 0.16000000,8.8000000 -6.1200000,15.450000 -12.860000,22.390000 C -14.400000,24.230000 -18.310000,24.070000 -20.860000,24.160000 C -23.590000,23.860000 -26.990000,25.170000 -27.350000,26.660000 C -22.390000,26.660000 -17.430000,26.650000 -12.480000,26.640000 C -8.9100000,26.690000 -5.3400000,26.740000 -1.7700000,26.780000 z M 108.91000,24.250000 C 105.70000,24.110000 102.24000,23.410000 102.39000,21.600000 C 105.76000,14.690000 110.15000,7.9700000 114.23000,1.5700000 C 115.82000,0.32000000 115.18000,-1.4600000 111.66000,-0.87000000 C 94.200000,5.8100000 76.140000,13.060000 57.160000,20.460000 C 60.780000,15.850000 64.320000,11.350000 67.750000,6.9800000 C 69.000000,4.9200000 72.140000,2.3000000 77.280000,1.8800000 C 79.830000,2.0800000 83.260000,0.93000000 83.120000,-0.39000000 C 75.360000,-0.46000000 67.320000,-0.23000000 59.760000,-0.51000000 C 57.150000,-0.34000000 55.370000,1.2200000 57.400000,1.6900000 C 60.400000,1.8200000 63.530000,2.4200000 63.220000,4.0400000 C 59.820000,9.6300000 55.040000,15.530000 50.270000,21.580000 C 49.660000,23.650000 44.200000,24.280000 41.220000,24.170000 C 38.340000,23.880000 35.600000,25.160000 35.270000,26.660000 C 41.970000,26.660000 48.680000,26.660000 55.390000,26.660000 C 72.580000,19.890000 89.090000,13.360000 104.99000,7.0900000 C 102.70000,10.460000 100.35000,13.910000 97.960000,17.430000 C 96.530000,19.780000 94.440000,23.200000 88.280000,23.950000 C 85.430000,23.770000 81.270000,24.950000 81.390000,26.660000 C 89.960000,26.750000 98.780000,26.500000 107.21000,26.790000 C 109.98000,26.390000 111.12000,24.790000 108.91000,24.250000 z M 208.79000,25.990000 C 211.42000,24.410000 208.07000,23.910000 205.39000,23.990000 C 195.80000,22.790000 190.23000,18.680000 183.64000,15.690000 C 189.29000,13.000000 194.84000,10.340000 200.31000,7.7300000 C 205.49000,5.5100000 209.77000,2.1400000 216.74000,1.7300000 C 219.27000,1.8600000 221.63000,0.83000000 221.00000,-0.39000000 C 212.40000,-0.40000000 203.77000,-0.35000000 195.19000,-0.41000000 C 193.12000,-0.72000000 189.48000,-0.020000000 189.93000,1.0600000 C 191.80000,2.2100000 196.11000,1.1100000 197.75000,2.3300000 C 191.25000,5.7400000 184.40000,9.1100000 177.20000,12.460000 C 174.74000,11.240000 172.30000,10.020000 169.88000,8.8100000 C 169.39000,7.2900000 170.63000,5.4100000 171.24000,3.7700000 C 171.10000,2.2200000 174.32000,1.7000000 176.94000,1.7900000 C 179.55000,2.0400000 183.11000,1.0600000 182.53000,-0.39000000 C 174.32000,-0.39000000 166.11000,-0.39000000 157.90000,-0.39000000 C 155.68000,-0.64000000 152.64000,-0.17000000 152.12000,1.1800000 C 154.56000,2.0900000 158.97000,1.2600000 160.86000,2.5100000 C 157.92000,8.7400000 154.87000,15.210000 151.68000,21.950000 C 151.46000,23.830000 147.02000,24.290000 144.26000,24.240000 C 141.45000,23.870000 138.78000,25.220000 139.17000,26.660000 C 146.61000,26.660000 154.04000,26.660000 161.47000,26.660000 C 165.07000,26.480000 169.47000,27.430000 172.30000,25.310000 C 170.26000,23.630000 165.28000,24.650000 162.55000,23.520000 C 164.27000,19.520000 165.95000,15.620000 167.59000,11.810000 C 174.33000,15.130000 181.07000,18.590000 187.59000,22.290000 C 190.16000,23.400000 186.21000,24.370000 183.92000,24.210000 C 181.23000,24.050000 178.55000,25.250000 179.06000,26.660000 C 187.23000,26.670000 195.41000,26.680000 203.58000,26.680000 C 205.25000,26.770000 207.48000,26.840000 208.79000,25.990000 z M 600.93000,26.660000 C 620.10000,26.660000 639.27000,26.660000 658.44000,26.660000 C 656.22000,24.070000 653.99000,21.510000 651.82000,18.990000 C 651.51000,17.720000 648.04000,15.700000 645.35000,16.220000 C 643.58000,16.650000 646.17000,18.680000 645.62000,19.660000 C 646.44000,21.620000 644.86000,23.100000 641.46000,23.620000 C 635.74000,24.030000 629.89000,24.600000 623.31000,24.150000 C 619.10000,23.850000 618.79000,21.800000 617.14000,20.370000 C 615.67000,18.310000 612.06000,16.050000 612.08000,14.180000 C 616.55000,14.170000 623.10000,14.550000 627.04000,17.040000 C 628.73000,18.620000 632.95000,19.950000 635.46000,19.260000 C 632.96000,16.630000 630.50000,14.030000 628.07000,11.480000 C 626.08000,9.9200000 625.87000,7.5700000 621.44000,6.7400000 C 617.86000,6.2400000 619.01000,7.9500000 619.73000,9.0200000 C 620.45000,11.670000 614.44000,12.030000 609.48000,11.940000 C 608.07000,10.360000 606.67000,8.8000000 605.29000,7.2500000 C 604.33000,5.5100000 600.06000,3.1900000 602.31000,2.0000000 C 607.72000,1.6400000 613.51000,1.6700000 619.64000,2.1200000 C 625.55000,2.2700000 632.00000,4.7600000 635.99000,7.3300000 C 637.69000,8.8600000 641.74000,9.8600000 644.22000,9.3900000 C 640.28000,6.0600000 636.39000,2.8100000 632.60000,-0.39000000 C 616.06000,-0.44000000 599.69000,-0.28000000 583.04000,-0.47000000 C 581.15000,-0.65000000 578.25000,0.17000000 579.34000,0.84000000 C 582.92000,2.3000000 586.33000,1.2600000 590.01000,2.3900000 C 595.59000,8.7800000 601.43000,15.430000 607.46000,22.370000 C 609.10000,24.040000 605.65000,24.130000 603.23000,24.110000 C 600.22000,23.890000 598.27000,24.790000 600.71000,26.400000 C 600.71000,26.400000 600.93000,26.660000 600.93000,26.660000 z M 513.58000,26.640000 C 526.23000,26.530000 539.21000,26.880000 551.55000,26.350000 C 558.77000,26.130000 566.61000,24.670000 566.04000,20.710000 C 565.73000,17.480000 559.68000,13.890000 552.80000,12.510000 C 542.66000,10.460000 533.08000,11.010000 523.64000,10.870000 C 522.03000,8.3300000 520.44000,5.8200000 518.88000,3.3500000 C 517.35000,1.6400000 521.41000,1.8200000 523.73000,1.7600000 C 526.52000,1.9900000 528.52000,0.94000000 526.58000,-0.39000000 C 518.07000,-0.42000000 509.64000,-0.31000000 501.06000,-0.47000000 C 499.22000,-0.65000000 496.11000,0.17000000 497.03000,0.84000000 C 500.23000,2.3000000 503.90000,1.2600000 507.29000,2.3900000 C 511.15000,8.7300000 515.16000,15.330000 519.34000,22.210000 C 521.15000,24.340000 516.19000,24.090000 513.49000,24.190000 C 510.11000,23.620000 510.43000,25.950000 513.38000,26.560000 C 513.38000,26.560000 513.58000,26.640000 513.58000,26.640000 z M 531.86000,23.500000 C 530.36000,21.260000 528.89000,19.050000 527.43000,16.870000 C 527.16000,15.670000 523.83000,13.480000 526.63000,13.080000 C 532.75000,13.140000 539.15000,12.740000 545.76000,14.320000 C 550.61000,15.620000 553.63000,18.610000 553.53000,20.800000 C 553.96000,23.120000 549.52000,23.860000 545.57000,24.170000 C 541.13000,23.920000 536.43000,25.030000 531.86000,23.500000 z M 444.08000,19.900000 C 439.71000,16.590000 435.42000,13.340000 431.22000,10.160000 C 437.39000,10.160000 443.57000,10.160000 449.74000,10.160000 C 447.89000,13.340000 446.01000,16.590000 444.08000,19.900000 z "
       stroke="black"
       stroke-width="1"
       style="fill-opacity:1.0000000;stroke:none;stroke-opacity:1.0000000;fill:url(#linearGradient907);" />
    <path
       id="path967"
       fill="none"
       d="M 450.10000,25.800000 C 453.79000,19.380000 457.35000,13.190000 460.78000,7.2300000 C 462.37000,5.2400000 462.34000,2.7500000 465.16000,1.2200000 C 465.93000,0.11000000 471.17000,1.1400000 470.25000,-0.26000000 C 464.25000,-0.26000000 458.25000,-0.26000000 452.26000,-0.26000000 C 450.63000,-0.030000000 444.50000,-0.78000000 446.14000,0.43000000 C 449.12000,0.50000000 452.65000,0.24000000 455.12000,1.6200000 C 454.35000,3.7400000 453.32000,5.8400000 451.91000,7.8800000 C 443.87000,7.8800000 435.82000,7.8800000 427.77000,7.8800000 C 425.96000,7.1000000 424.46000,5.8100000 423.22000,4.7400000 C 421.03000,3.4100000 420.73000,1.3100000 424.02000,0.81000000 C 425.40000,0.15000000 429.92000,1.0900000 429.15000,-0.26000000 C 424.45000,-0.26000000 419.76000,-0.26000000 415.07000,-0.26000000 C 413.06000,0.030000000 407.88000,-1.0000000 408.38000,0.48000000 C 411.57000,0.59000000 414.70000,1.4200000 416.93000,2.6600000 C 426.71000,9.7600000 436.38000,17.390000 446.82000,25.260000 C 447.94000,25.850000 448.77000,25.920000 450.10000,25.800000 z M 354.57000,25.680000 C 361.47000,26.350000 367.60000,24.850000 373.18000,23.260000 C 375.53000,22.930000 376.61000,25.580000 379.46000,25.520000 C 381.67000,25.030000 379.67000,22.460000 380.17000,21.140000 C 379.64000,19.210000 380.66000,17.140000 379.21000,15.360000 C 376.03000,15.120000 377.06000,17.440000 375.57000,18.360000 C 374.21000,20.770000 370.91000,22.630000 366.57000,23.820000 C 362.51000,24.800000 357.60000,25.340000 352.93000,24.720000 C 346.13000,24.090000 340.37000,21.350000 338.41000,18.040000 C 336.09000,14.300000 335.52000,10.280000 337.24000,6.6700000 C 337.87000,4.2600000 340.77000,2.2100000 345.07000,1.1200000 C 348.97000,0.060000000 353.77000,-0.17000000 358.31000,0.10000000 C 364.49000,0.30000000 370.87000,1.9900000 374.20000,4.7200000 C 376.25000,5.5500000 375.94000,8.0500000 379.34000,7.4900000 C 378.18000,5.7200000 376.29000,4.0600000 373.65000,2.7200000 C 369.73000,0.68000000 364.26000,-0.20000000 358.91000,-0.54000000 C 353.03000,-0.91000000 346.84000,-0.63000000 341.55000,0.53000000 C 334.43000,1.8700000 328.64000,4.8500000 327.11000,8.6600000 C 325.01000,12.610000 327.50000,17.110000 333.37000,20.250000 C 337.93000,22.970000 344.40000,24.650000 351.17000,25.540000 C 352.30000,25.590000 353.44000,25.630000 354.57000,25.680000 z M 280.43000,23.070000 C 282.55000,23.330000 283.24000,25.880000 286.59000,25.480000 C 286.94000,23.620000 287.29000,21.770000 287.64000,19.950000 C 287.32000,18.830000 290.00000,16.120000 286.16000,16.460000 C 283.82000,19.340000 279.88000,22.040000 274.31000,23.630000 C 267.88000,25.140000 259.80000,25.620000 254.12000,23.620000 C 249.49000,22.470000 248.90000,18.870000 253.18000,17.030000 C 261.32000,14.140000 271.31000,14.350000 280.18000,12.890000 C 286.43000,12.130000 292.41000,9.4300000 291.97000,6.1700000 C 291.71000,3.6200000 288.82000,1.0000000 283.66000,0.27000000 C 278.42000,-0.59000000 272.72000,-1.0100000 267.09000,-0.48000000 C 262.46000,-0.27000000 258.31000,0.78000000 254.11000,1.8300000 C 252.04000,1.4500000 251.51000,-0.83000000 248.15000,-0.53000000 C 247.67000,1.3600000 247.18000,3.2700000 246.68000,5.2100000 C 246.90000,6.2600000 244.23000,8.8200000 248.05000,8.4800000 C 249.43000,7.0800000 250.34000,5.5100000 252.70000,4.4100000 C 256.93000,1.7900000 263.38000,0.080000000 269.94000,0.0000000 C 275.45000,-0.10000000 282.22000,0.11000000 285.25000,2.5800000 C 289.08000,4.5600000 286.35000,7.9900000 281.39000,9.1700000 C 272.25000,10.810000 262.24000,10.890000 253.15000,13.050000 C 246.28000,14.150000 243.36000,18.850000 246.54000,21.680000 C 248.96000,24.030000 253.88000,25.260000 259.04000,25.680000 C 266.39000,26.100000 274.10000,25.320000 280.43000,23.070000 z M 4.9000000,24.660000 C 2.5300000,23.860000 -3.3500000,25.000000 -3.3900000,23.050000 C 2.1900000,16.780000 8.1500000,10.650000 13.540000,4.7900000 C 15.060000,3.3500000 16.010000,0.98000000 20.390000,0.63000000 C 22.680000,0.34000000 26.330000,1.1100000 27.730000,-0.26000000 C 21.590000,-0.26000000 15.450000,-0.26000000 9.3100000,-0.26000000 C 6.2800000,0.020000000 3.6800000,-0.81000000 0.53000000,0.10000000 C 2.2500000,1.0200000 7.6100000,-0.030000000 8.3700000,1.4300000 C 3.3900000,7.2900000 -3.0600000,13.560000 -9.1300000,19.960000 C -10.460000,21.340000 -12.090000,23.700000 -15.860000,24.070000 C -18.620000,24.580000 -23.150000,23.500000 -24.560000,25.240000 C -16.040000,25.240000 -7.5300000,25.240000 0.99000000,25.240000 C 1.9800000,25.370000 4.1000000,25.530000 4.9000000,24.660000 z M 170.27000,24.820000 C 167.97000,23.760000 162.96000,24.920000 161.20000,23.360000 C 162.57000,18.800000 165.01000,14.130000 166.99000,9.7200000 C 173.76000,13.340000 181.62000,16.630000 188.19000,20.620000 C 190.04000,21.360000 191.57000,23.180000 188.13000,24.040000 C 185.89000,24.570000 181.65000,23.690000 181.00000,25.240000 C 187.58000,25.240000 194.17000,25.240000 200.76000,25.240000 C 203.08000,24.970000 207.47000,26.070000 208.07000,24.360000 C 205.24000,24.210000 202.46000,24.000000 200.08000,23.320000 C 192.67000,21.310000 187.67000,17.880000 181.66000,15.210000 C 188.23000,12.090000 194.65000,9.0100000 200.97000,6.0100000 C 205.23000,4.2900000 208.39000,1.6600000 213.63000,0.84000000 C 215.48000,0.26000000 219.25000,1.0700000 219.49000,-0.26000000 C 212.99000,-0.26000000 206.50000,-0.26000000 200.00000,-0.26000000 C 197.30000,-0.020000000 193.54000,-0.76000000 191.55000,0.15000000 C 193.86000,0.94000000 199.28000,-0.18000000 199.60000,1.7600000 C 192.84000,5.6000000 184.86000,9.1300000 177.14000,12.880000 C 174.15000,11.410000 171.22000,9.9400000 168.29000,8.4900000 C 167.40000,7.4400000 169.29000,5.8100000 169.41000,4.5600000 C 170.02000,3.1500000 170.16000,0.89000000 174.22000,0.62000000 C 176.35000,0.39000000 180.31000,1.0800000 181.01000,-0.26000000 C 174.31000,-0.26000000 167.60000,-0.26000000 160.90000,-0.26000000 C 158.68000,0.060000000 155.75000,-0.90000000 154.14000,0.22000000 C 156.64000,0.92000000 161.58000,-0.040000000 162.48000,1.6400000 C 160.17000,7.5100000 156.93000,13.710000 153.94000,20.080000 C 153.39000,21.620000 152.25000,24.220000 148.05000,24.110000 C 145.78000,24.780000 141.56000,23.550000 141.27000,25.240000 C 149.39000,25.240000 157.50000,25.240000 165.62000,25.240000 C 166.98000,25.370000 169.02000,25.510000 170.27000,24.820000 z M 514.04000,25.270000 C 526.23000,25.070000 539.04000,25.630000 550.84000,24.890000 C 556.99000,24.730000 563.33000,23.620000 563.91000,20.550000 C 564.55000,17.560000 558.78000,13.880000 552.13000,12.550000 C 541.70000,10.460000 531.91000,11.190000 522.17000,11.010000 C 520.50000,8.3600000 518.87000,5.7500000 517.25000,3.1800000 C 515.83000,1.8900000 516.53000,0.46000000 519.63000,0.59000000 C 521.42000,0.36000000 525.87000,1.0400000 525.15000,-0.26000000 C 518.87000,-0.26000000 512.59000,-0.26000000 506.30000,-0.26000000 C 503.69000,0.010000000 499.92000,-0.78000000 498.07000,0.070000000 C 501.08000,1.0700000 504.85000,-0.040000000 507.85000,1.4300000 C 512.01000,7.2100000 515.38000,13.400000 519.29000,19.710000 C 520.09000,21.140000 522.41000,23.510000 519.37000,24.060000 C 517.61000,24.490000 510.43000,23.650000 513.08000,25.220000 C 513.23000,25.230000 513.87000,25.260000 514.04000,25.270000 z M 37.840000,25.240000 C 43.780000,25.240000 49.720000,25.240000 55.660000,25.240000 C 73.790000,18.120000 91.140000,11.260000 107.86000,4.7200000 C 105.10000,8.9800000 102.38000,13.370000 99.030000,17.870000 C 97.910000,19.930000 95.750000,22.480000 91.090000,23.660000 C 88.730000,24.610000 84.640000,23.540000 83.730000,25.240000 C 91.630000,25.240000 99.520000,25.240000 107.41000,25.240000 C 111.22000,24.560000 105.82000,23.940000 104.19000,24.000000 C 101.93000,23.310000 100.83000,22.230000 100.92000,20.760000 C 104.54000,14.340000 108.39000,8.1500000 112.32000,2.1800000 C 112.61000,1.1600000 115.81000,-1.1200000 111.97000,-0.74000000 C 93.680000,6.4500000 74.540000,13.980000 54.470000,21.860000 C 58.130000,17.120000 61.590000,12.520000 65.320000,8.0400000 C 67.430000,5.6200000 68.860000,2.2600000 75.160000,1.0500000 C 77.260000,0.34000000 80.750000,1.0900000 81.550000,-0.26000000 C 74.720000,-0.26000000 67.880000,-0.26000000 61.040000,-0.26000000 C 56.270000,-0.45000000 59.420000,1.1200000 62.360000,0.77000000 C 64.510000,1.3300000 65.440000,2.3600000 65.200000,3.6900000 C 60.940000,9.7500000 56.080000,16.060000 50.850000,22.610000 C 47.100000,24.370000 42.410000,24.300000 38.520000,24.400000 C 38.290000,24.680000 38.070000,24.960000 37.840000,25.240000 z M 601.15000,25.240000 C 619.27000,25.240000 637.39000,25.240000 655.51000,25.240000 C 653.95000,23.430000 652.41000,21.640000 650.88000,19.870000 C 649.41000,18.740000 649.16000,16.040000 645.67000,16.380000 C 646.10000,18.240000 647.87000,20.510000 646.18000,21.920000 C 644.45000,24.280000 637.82000,24.160000 632.40000,24.350000 C 628.02000,24.270000 623.48000,25.120000 618.51000,23.320000 C 616.14000,21.310000 614.23000,19.070000 612.40000,17.020000 C 611.76000,15.620000 607.57000,13.400000 610.57000,12.790000 C 614.88000,12.910000 620.14000,12.940000 624.67000,14.800000 C 627.82000,15.620000 629.21000,18.410000 632.65000,17.970000 C 630.15000,15.330000 627.70000,12.740000 625.28000,10.180000 C 623.80000,9.1200000 623.38000,6.7500000 620.20000,6.8600000 C 619.36000,7.4800000 621.75000,9.1600000 620.64000,9.9500000 C 619.66000,12.350000 613.03000,12.010000 608.04000,12.080000 C 606.00000,9.7800000 603.99000,7.5200000 602.01000,5.2900000 C 601.08000,3.7800000 597.18000,1.3700000 600.55000,0.79000000 C 605.58000,0.42000000 611.08000,0.28000000 616.95000,0.77000000 C 622.45000,0.72000000 629.17000,2.4600000 633.67000,4.9400000 C 636.23000,5.9800000 637.94000,8.4200000 641.30000,8.1200000 C 637.92000,5.2800000 634.59000,2.4900000 631.33000,-0.26000000 C 617.00000,-0.26000000 602.66000,-0.26000000 588.33000,-0.26000000 C 585.79000,0.010000000 581.82000,-0.78000000 580.19000,0.070000000 C 583.46000,1.0700000 586.94000,-0.040000000 590.32000,1.4300000 C 595.21000,6.4200000 599.60000,11.760000 604.29000,17.160000 C 605.61000,19.360000 609.98000,22.020000 608.52000,23.920000 C 606.23000,24.300000 603.06000,24.190000 600.45000,24.400000 C 600.69000,24.680000 600.92000,24.960000 601.15000,25.240000 z M 530.29000,23.320000 C 528.26000,20.800000 526.67000,18.170000 525.07000,15.670000 C 524.85000,14.390000 521.77000,12.530000 524.09000,11.800000 C 527.34000,11.600000 531.06000,11.800000 534.56000,11.850000 C 539.76000,11.800000 546.51000,12.460000 550.68000,15.130000 C 554.27000,17.460000 555.98000,20.540000 553.87000,22.530000 C 550.08000,24.850000 542.08000,24.320000 535.56000,24.440000 C 533.62000,24.410000 532.00000,24.100000 530.29000,23.320000 z M 444.42000,21.080000 C 438.90000,16.910000 433.56000,12.840000 428.33000,8.8600000 C 436.03000,8.8600000 443.73000,8.8600000 451.44000,8.8600000 C 449.26000,12.690000 447.02000,16.600000 444.70000,20.610000 C 444.61000,20.760000 444.51000,20.920000 444.42000,21.080000 z "
       stroke="black"
       stroke-width="1"
       style="fill-opacity:1.0000000;stroke:none;stroke-opacity:1.0000000;fill:url(#linearGradient907);" />
  </g>
</svg>
