<?xml version="1.0" encoding="UTF-8"?>
<svg width="700" height="220" version="1.1" viewBox="0 0 185.21 58.208" xmlns="http://www.w3.org/2000/svg">
<path d="m63.569 45.635c-0.12446 0-0.22914 0.10288-0.31471 0.30903-0.08168 0.20614-0.12247 0.43192-0.12247 0.67696 0.0039 0.07779 0.02877 0.11627 0.07545 0.11627 0.03501 0 0.05271-0.0231 0.05271-0.06976 0-0.12058 0.0254-0.24527 0.07596-0.37362 0.02334-0.05835 0.04822-0.11633 0.07545-0.17467 0.02723-0.05834 0.05262-0.11094 0.07596-0.15761 0.02723-0.04667 0.05263-0.08747 0.07596-0.12247 0.02334-0.035 0.04874-0.074 0.07596-0.11679 2e-6 -0.05834-0.0236-0.08733-0.07028-0.08733zm-0.5364 0.1633c-0.61066 0-1.0427 0.58112-1.2955 1.7441-0.07779 0.0078-0.16528 0.01188-0.26252 0.01188-0.09723 0-0.15342-0.0118-0.16898-0.03514-0.04667 0.01167-0.07028 0.05657-0.07028 0.13436 0.01945 0.09724 0.07615 0.14573 0.1695 0.14573 0.09335 0 0.18674-0.0059 0.28009-0.01757-0.07001 0.36173-0.1498 0.96106-0.23926 1.7973-0.08168 0.14002-0.21766 0.39659-0.40824 0.76998-0.10502 0.21392-0.21021 0.4669-0.31523 0.75861-0.10502 0.29171-0.15761 0.52108-0.15761 0.68833 0 0.23726 0.09929 0.35553 0.29766 0.35553 0.25671 0 0.45298-0.18626 0.58911-0.55966 0.06612-0.18281 0.12283-0.38318 0.1695-0.601 0.04667-0.21781 0.08747-0.47078 0.12247-0.75861 0.035-0.28782 0.07939-0.70576 0.13384-1.2542 0.05834-0.54842 0.11273-0.96688 0.1633-1.2547 0.46674-0.07779 0.73742-0.11627 0.81132-0.11627 0.07392 0 0.11292-0.0236 0.11679-0.07028 0.0078-0.04667-0.0063-0.06976-0.04134-0.06976-0.10113 0-0.38309 0.0172-0.84594 0.05219 0.09724-0.49786 0.22604-0.88502 0.38551-1.1612 0.15947-0.27616 0.37113-0.41393 0.63562-0.41393 0.02336 0 0.03696-0.0195 0.04082-0.05839 0.0039-0.05834-0.03279-0.08733-0.11058-0.08733zm-36.108 0.01138-0.32091 0.01757c-0.62232 0.06612-1.1083 0.30909-1.4583 0.72916-0.21003 0.24893-0.31523 0.4747-0.31523 0.67696 0 0.20226 0.0721 0.30334 0.21601 0.30334 0.0739 0 0.12239-0.039 0.14573-0.11679-0.03501 0-0.05271-0.04079-0.05271-0.12247 0-0.20226 0.08569-0.41982 0.25683-0.65319 0.33839-0.45508 0.84613-0.68265 1.5229-0.68265 0.54064 0 0.93729 0.19627 1.1901 0.58911 0.19059 0.29171 0.28577 0.64936 0.28577 1.0733 0 0.19059-0.0195 0.39327-0.05839 0.6072-0.1128 0.66122-0.36346 1.2364-0.75241 1.7265-0.43174 0.54453-0.91408 0.817-1.4469 0.817-0.47063 0-0.76799-0.13239-0.89245-0.39688-0.03889-0.08557-0.05839-0.17896-0.05839-0.28008s0.03078-0.2117 0.09302-0.33228c0.09724-0.17114 0.21244-0.25683 0.34468-0.25683 0.01945 0 0.03305-0.0118 0.04083-0.03514 0.01164-0.02334 0.01347-0.04463 0.0057-0.06408-0.0039-0.02334-0.01569-0.03514-0.03514-0.03514-0.2217 0-0.39668 0.12469-0.52503 0.37362-0.06612 0.13613-0.09922 0.26621-0.09922 0.39067 0 0.12058 0.0254 0.23578 0.07596 0.34468 0.16725 0.34617 0.55979 0.51883 1.1782 0.51883 0.62232 0 1.1673-0.26605 1.634-0.79892 0.42396-0.4823 0.69232-1.0698 0.80512-1.7622 0.03111-0.20614 0.04651-0.40241 0.04651-0.58911 0-0.45118-0.09518-0.85014-0.28577-1.1963-0.31894-0.56398-0.83258-0.84594-1.5405-0.84594zm45.7 0c-0.13224 0-0.29952 0.22757-0.50178 0.68265-0.19837 0.45118-0.36744 0.98022-0.50746 1.587-0.16725 0.31505-0.35941 0.66321-0.57723 1.0444-0.15947 0.27616-0.31546 0.51142-0.46715 0.7059-0.1478 0.19058-0.26018 0.28577-0.33797 0.28577-0.09724 0-0.14624-0.11827-0.14624-0.35553 0-0.45118 0.11468-0.92994 0.34416-1.4356 0.19837-0.4473 0.42414-0.67076 0.67696-0.67076 0.09335 0 0.15184 0.0331 0.17518 0.09922 0.02723 0.06223 0.06982 0.09302 0.12816 0.09302 0.05834 0 0.09324-0.03258 0.1049-0.0987l-0.02894-0.0646c-0.01945-0.04278-0.06024-0.08358-0.12247-0.12247-0.06223-0.04278-0.15203-0.06408-0.26872-0.06408-0.11668 0-0.24676 0.039-0.39067 0.11679-0.33061 0.17503-0.59718 0.50728-0.79943 0.99735-0.1478 0.35006-0.22169 0.67102-0.22169 0.96273 0 0.50175 0.16369 0.75292 0.49041 0.75292 0.2606 0 0.66494-0.48055 1.2134-1.4413h0.07596c-0.05445 0.35006-0.08165 0.67872-0.08165 0.98599 0 0.87125 0.23116 1.3069 0.69402 1.3069 0.10502 0 0.20842-0.04849 0.30954-0.14573 0.10502-0.09724 0.1748-0.17883 0.20981-0.24495 0.035-0.06612 0.06399-0.12462 0.08733-0.17518 0.0039-0.01556-0.0038-0.02736-0.02326-0.03514-0.05056-0.01945-0.08546-0.0076-0.1049 0.03514-0.035 0.08168-0.0953 0.16327-0.18087 0.24495-0.08168 0.08557-0.17096 0.12816-0.2682 0.12816-0.25282 0-0.3793-0.28966-0.37931-0.8692 0-0.38895 0.03489-0.8033 0.1049-1.2428 0.0739-0.43952 0.15369-0.81666 0.23926-1.1317 0.08946-0.31894 0.19644-0.6535 0.32091-1.0036 0.12835-0.35006 0.23893-0.62612 0.33228-0.82837 0-0.06612-0.0331-0.09922-0.09922-0.09922zm-45.746 0.40256c-0.14391 0-0.294 0.16369-0.44958 0.49041-0.15169 0.32283-0.27997 0.76386-0.38499 1.324-0.10502 0.5562-0.1571 1.1301-0.1571 1.7213 0 0.31116 0.05798 0.46664 0.17467 0.46664 0.05445 0 0.08165-0.0254 0.08165-0.07596 0-0.49008 0.1229-1.2852 0.36794-2.3859 0.13224-0.60288 0.28541-1.0852 0.46044-1.4469 0-0.06223-0.03078-0.09353-0.09302-0.09353zm12.082 0.1695c-0.09335 0-0.16493 0.05208-0.21549 0.1571-0.05057 0.10113-0.07597 0.19862-0.07597 0.29197 0 0.15558 0.04079 0.23358 0.12247 0.23358l0.06976-0.09922c0.14391-0.21003 0.21601-0.36013 0.21601-0.44958 0-0.08946-0.039-0.13384-0.11679-0.13384zm17.643 0.42581c-0.16725 0-0.34223 0.24707-0.52503 0.74104-0.14003 0.0078-0.24291 0.01138-0.30903 0.01138-0.06223 0-0.10533-0.0136-0.12868-0.04082-0.0078 0-0.01371 0.0024-0.01757 0.0062-0.03889 0.01167-0.05788 0.04066-0.05788 0.08733 0 0.12446 0.07569 0.18655 0.22738 0.18655 0.07779 0 0.14398-0.0036 0.19844-0.01138-0.25282 0.77402-0.3793 1.5011-0.3793 2.1818 0 0.80513 0.23116 1.2077 0.69402 1.2077 0.10502 0 0.20841-0.04849 0.30954-0.14573 0.10113-0.09724 0.16911-0.17883 0.20412-0.24495 0.03501-0.06612 0.064-0.12462 0.08733-0.17518 0.0078-0.01556 8.5e-5 -0.02736-0.02326-0.03514-0.05056-0.01945-0.08366-0.0076-0.09922 0.03514-0.03501 0.08168-0.0953 0.16327-0.18087 0.24495-0.08557 0.08557-0.17665 0.12868-0.27389 0.12868-0.24115 0-0.36174-0.30146-0.36174-0.90434 0-0.60287 0.15317-1.3908 0.46044-2.3632 0.45118-0.08168 0.69825-0.12247 0.74104-0.12247 0.08168 0 0.12247-0.0313 0.12247-0.09353 0-0.03111-0.0154-0.04651-0.04651-0.04651-0.11669 0-0.36735 0.0213-0.75241 0.06408 0.07779-0.24504 0.14757-0.44542 0.20981-0.601-3e-6 -0.0739-0.0331-0.11059-0.09922-0.11059zm-19.568 0.23306c-0.05834 0-0.11273 0.0236-0.1633 0.07028-0.05057 0.04668-0.07596 0.09927-0.07596 0.15761 0 0.05445 0.03489 0.13784 0.1049 0.25063 0.07001 0.11279 0.16161 0.21029 0.2744 0.29197v0.03462c0 0.36173-0.0526 0.72938-0.15761 1.1028-0.10113 0.3695-0.22941 0.67097-0.38499 0.90434-0.15169 0.22948-0.29768 0.34416-0.4377 0.34416-0.12446 0-0.18655-0.10699-0.18655-0.32091 0-0.45896 0.11827-1.0945 0.35553-1.9074 0-0.08168-0.04259-0.12299-0.12816-0.12299-0.08557 0-0.18306 0.1093-0.29197 0.32711l-0.25063 0.48421c-0.16336 0.32672-0.35373 0.65307-0.57154 0.97978-0.21392 0.32672-0.37171 0.49041-0.47284 0.49041-0.08168 0-0.12247-0.09159-0.12247-0.2744 0-0.1867 0.05619-0.47456 0.16898-0.86351 0.11669-0.38895 0.21008-0.67091 0.28009-0.84594 0.07001-0.17892 0.12851-0.32439 0.17518-0.43718 0-0.08168-0.03721-0.12299-0.1111-0.12299-0.15558 0.01945-0.32645 0.23342-0.51315 0.64182-0.2217 0.51342-0.3328 0.99576-0.3328 1.4469 0 0.43563 0.1288 0.65371 0.38551 0.65371 0.2606 0 0.63184-0.43206 1.1141-1.2955-0.01945 0.18281-0.02894 0.35419-0.02894 0.51366 0 0.28005 0.04849 0.49582 0.14573 0.64751 0.09335 0.13613 0.22753 0.20412 0.40256 0.20412s0.3518-0.12828 0.53072-0.38499c0.17892-0.2606 0.3249-0.58156 0.4377-0.96273 0.1128-0.38506 0.17309-0.76042 0.18087-1.126 0.09724 0.03889 0.18652 0.05839 0.2682 0.05839 0.08557 0 0.14997-0.0213 0.19275-0.06408 0.04667-0.04667 0.06976-0.09516 0.06976-0.14573-0.04279 0.02722-0.11668 0.04082-0.22169 0.04082-0.10113 0-0.20812-0.0431-0.32091-0.12868-0.01945-0.16725-0.05793-0.31503-0.11627-0.44338-0.05834-0.13224-0.12454-0.19844-0.19844-0.19844zm13.255 0.0062c-0.05056 0-0.10085 0.02487-0.15141 0.07545-0.04667 0.04668-0.07028 0.09748-0.07028 0.15193 0 0.05445 0.039 0.14014 0.11679 0.25683 0.07779 0.11668 0.17708 0.21366 0.29766 0.29146v0.07028c0 0.36172-0.0526 0.72117-0.15762 1.079-0.10113 0.35784-0.22941 0.64801-0.38499 0.86972-0.15558 0.21781-0.30516 0.3266-0.44907 0.3266-0.25282 0-0.3793-0.23168-0.3793-0.69453 0-0.38117 0.08928-0.76781 0.2682-1.1607 0.17892-0.39284 0.3911-0.58963 0.63614-0.58963-0.01167-0.04668-0.03296-0.08157-0.06408-0.1049-0.03112-0.02334-0.07012-0.03514-0.11679-0.03514-0.32672 3e-6 -0.60868 0.23348-0.84594 0.70022-0.1867 0.3695-0.28008 0.73896-0.28008 1.1085 0 0.65733 0.23937 0.98598 0.71779 0.98598 0.21781 0 0.42357-0.12649 0.61805-0.3793 0.19447-0.25671 0.34636-0.57356 0.45527-0.95085 0.10893-0.37728 0.16512-0.75264 0.16898-1.126 0.10502 0.03889 0.19841 0.0584 0.28009 0.05839 0.08168 0 0.14197-0.0213 0.18087-0.06408 0.03889-0.04279 0.05839-0.09128 0.05839-0.14573-0.05445 0.03111-0.12834 0.04651-0.22169 0.04651-0.08946 0-0.19465-0.04079-0.31522-0.12247-0.02723-0.16725-0.07572-0.31682-0.14573-0.44907-0.07001-0.13224-0.14211-0.19844-0.21601-0.19844zm8.4248 0c-0.05056 0-0.10085 0.02487-0.15141 0.07545-0.04667 0.04668-0.07028 0.09748-0.07028 0.15193 0 0.05445 0.039 0.14014 0.11679 0.25683 0.07779 0.11668 0.17708 0.21366 0.29766 0.29146v0.07028c0 0.36172-0.0526 0.72117-0.15761 1.079-0.10113 0.35784-0.22941 0.64801-0.38499 0.86972-0.15558 0.21781-0.30567 0.3266-0.44958 0.3266-0.25282 0-0.37879-0.23168-0.37879-0.69453 0-0.38117 0.08928-0.76781 0.2682-1.1607 0.17892-0.39284 0.3911-0.58963 0.63614-0.58963-0.01167-0.04668-0.03348-0.08157-0.0646-0.1049-0.03112-0.02334-0.0696-0.03514-0.11627-0.03514-0.32672 3e-6 -0.6092 0.23348-0.84646 0.70022-0.1867 0.3695-0.27957 0.73896-0.27957 1.1085 0 0.65733 0.23886 0.98598 0.71727 0.98598 0.21781 0 0.42409-0.12649 0.61857-0.3793 0.19447-0.25671 0.34636-0.57356 0.45527-0.95085 0.10893-0.37728 0.16512-0.75264 0.16898-1.126 0.10502 0.03889 0.19841 0.0584 0.28008 0.05839 0.08168 0 0.14198-0.0213 0.18087-0.06408 0.03889-0.04279 0.05839-0.09128 0.05839-0.14573-0.05445 0.03111-0.12834 0.04651-0.22169 0.04651-0.08946 0-0.19465-0.04079-0.31523-0.12247-0.02723-0.16725-0.07572-0.31682-0.14573-0.44907-0.07001-0.13224-0.1421-0.19844-0.21601-0.19844zm15.391 0c-0.05056 0-0.10085 0.02487-0.15141 0.07545-0.04667 0.04668-0.07028 0.09748-0.07028 0.15193 0 0.05445 0.039 0.14014 0.11679 0.25683 0.07779 0.11668 0.17708 0.21366 0.29766 0.29146v0.07028c0 0.36172-0.0526 0.72117-0.15761 1.079-0.10113 0.35784-0.22941 0.64801-0.38499 0.86972-0.15558 0.21781-0.30567 0.3266-0.44958 0.3266-0.25282 0-0.3793-0.23168-0.3793-0.69453 0-0.38117 0.0898-0.76781 0.26872-1.1607 0.17892-0.39284 0.39058-0.58963 0.63562-0.58963-0.01167-0.04668-0.03297-0.08157-0.06408-0.1049-0.03111-0.02334-0.07011-0.03514-0.11679-0.03514-0.32672 3e-6 -0.60868 0.23348-0.84594 0.70022-0.1867 0.3695-0.28008 0.73896-0.28008 1.1085 0 0.65733 0.23937 0.98598 0.71778 0.98598 0.21781 0 0.42409-0.12649 0.61857-0.3793 0.19447-0.25671 0.34636-0.57356 0.45527-0.95085 0.10893-0.37728 0.16512-0.75264 0.16898-1.126 0.10502 0.03889 0.19841 0.0584 0.28009 0.05839 0.08168 0 0.14197-0.0213 0.18087-0.06408 0.03889-0.04279 0.05839-0.09128 0.05839-0.14573-0.05445 0.03111-0.12834 0.04651-0.22169 0.04651-0.08946 0-0.19465-0.04079-0.31522-0.12247-0.02723-0.16725-0.07572-0.31682-0.14573-0.44907s-0.1421-0.19844-0.21601-0.19844zm-42.835 0.25632c-0.17892 0-0.37698 0.117-0.59479 0.35037-0.38118 0.4084-0.72933 0.97643-1.0444 1.7038h-0.04082c0.07779-0.5951 0.20607-1.1767 0.38499-1.7446 0-0.08557-0.0372-0.12868-0.1111-0.12868-0.16725 0-0.30913 0.23579-0.42581 0.70642-0.11669 0.47063-0.17518 0.99556-0.17518 1.5751 0 0.30727 0.0567 0.46096 0.1695 0.46096 0.06223 0 0.09302-0.0236 0.09302-0.07028 0-0.19058 0.16369-0.59672 0.49041-1.219 0.32672-0.62621 0.62228-1.0542 0.88677-1.2836-0.07001 0.15947-0.1049 0.33034-0.1049 0.51315 0 0.32283 0.07389 0.48421 0.22169 0.48421 0.01945 0 0.02894-0.0154 0.02894-0.04651 0-0.24115 0.0331-0.46282 0.09922-0.66508 0.06612-0.20614 0.11872-0.33622 0.15762-0.39067 0.03889-0.05445 0.07199-0.09525 0.09922-0.12247 0-0.035-0.0136-0.06451-0.04082-0.08785-0.02334-0.02334-0.05464-0.03514-0.09354-0.03514zm33.745 0c-0.17892 0-0.37698 0.117-0.5948 0.35037-0.38117 0.4084-0.72933 0.97643-1.0444 1.7038h-0.04083c0.07779-0.5951 0.20607-1.1767 0.38499-1.7446 0-0.08557-0.0372-0.12868-0.1111-0.12868-0.16725 0-0.30913 0.23579-0.42582 0.70642-0.11668 0.47063-0.17466 0.99556-0.17466 1.5751 0 0.30727 0.05618 0.46096 0.16898 0.46096 0.06223 0 0.09353-0.0236 0.09353-0.07028 0-0.19058 0.16317-0.59672 0.48989-1.219 0.32672-0.62621 0.62228-1.0542 0.88677-1.2836-0.07001 0.15947-0.1049 0.33034-0.1049 0.51315 0 0.32283 0.07389 0.48421 0.22169 0.48421 0.01945 0 0.02894-0.0154 0.02894-0.04651 0-0.24115 0.0331-0.46282 0.09922-0.66508 0.06612-0.20614 0.11872-0.33622 0.15761-0.39067 0.03889-0.05445 0.07199-0.09525 0.09922-0.12247 0-0.035-0.0136-0.06451-0.04082-0.08785-0.02334-0.02334-0.05464-0.03514-0.09354-0.03514zm-32.17 0.14003c-0.12446 0-0.25865 0.039-0.40256 0.11679-0.3345 0.18281-0.60466 0.52506-0.8108 1.0268-0.1478 0.35784-0.22169 0.6865-0.22169 0.98599 0 0.50174 0.15958 0.75292 0.47852 0.75292 0.24893 0 0.62018-0.42205 1.1141-1.2661h0.0584c-0.04279 0.26838-0.06408 0.54803-0.06408 0.83974 0 0.29171 0.04259 0.54469 0.12816 0.75861 0.08946 0.21392 0.21594 0.32091 0.37931 0.32091 0.07001 0 0.1362-0.04079 0.19844-0.12247 0.06612-0.08168 0.10871-0.14787 0.12816-0.19844 0.01945-0.04668 0.03356-0.08336 0.04134-0.11059 0.0078-0.02723 0.0078-0.04673 0-0.05839-0.0078-0.01167-0.01958-0.01757-0.03514-0.01757-0.04279 0-0.06998 0.0213-0.08165 0.06408-0.03112 0.08168-0.06653 0.14197-0.10542 0.18087-0.0389 0.04279-0.08148 0.06408-0.12816 0.06408-0.12057 0-0.18087-0.20038-0.18087-0.601 0-0.40062 0.0449-0.80317 0.13436-1.2077 0.08946-0.40451 0.16156-0.67467 0.21601-0.8108 0.05445-0.13613 0.09884-0.24133 0.13384-0.31523 0-0.08946-0.03669-0.13384-0.11059-0.13384-0.14002 0-0.27652 0.14008-0.40876 0.42013-0.15947 0.31505-0.36754 0.6863-0.62425 1.1141-0.1478 0.24893-0.28968 0.457-0.42581 0.62425-0.13224 0.16336-0.23512 0.24495-0.30903 0.24495-0.09335 0-0.14004-0.11648-0.14004-0.34985 0-0.46285 0.11648-0.957 0.34985-1.4821 0.20614-0.45507 0.43551-0.68265 0.68833-0.68265 0.05445 0 0.10346 0.0195 0.14624 0.05839 0.04279 0.035 0.06998 0.064 0.08165 0.08733 0.01167 0.01945 0.02117 0.04485 0.02894 0.07596 0.01167 0.02723 0.04887 0.04083 0.1111 0.04083 0.05445 0 0.08755-0.0331 0.09922-0.09922l-0.03514-0.07545c-0.01945-0.05445-0.06614-0.10936-0.14004-0.16381-0.07001-0.05445-0.16751-0.08165-0.29197-0.08165zm10.35 0c-0.12447 0-0.25865 0.039-0.40256 0.11679-0.3345 0.18281-0.60466 0.52506-0.81081 1.0268-0.1478 0.35784-0.22169 0.6865-0.22169 0.98599 0 0.50174 0.15907 0.75292 0.47801 0.75292 0.24893 0 0.63018-0.44155 1.1436-1.3245h0.06408c-0.0078 0.05445-0.02318 0.14373-0.04651 0.2682-0.02334 0.12446-0.05233 0.29585-0.08733 0.51366-0.03111 0.21392-0.06832 0.41789-0.11111 0.61236-0.42784 0.01556-0.7914 0.11074-1.0909 0.28577-0.29949 0.17892-0.53297 0.3952-0.70022 0.64802-0.01167 0.02334-4e-3 0.04232 0.02326 0.05788 0.05056 0.02334 0.08776 0.01796 0.11111-0.01707 0.38117-0.52119 0.92149-0.78956 1.6216-0.80512-0.09335 0.43562-0.22753 0.79917-0.40256 1.0909-0.19448 0.33061-0.46643 0.49558-0.81649 0.49558-0.25671 0-0.4204-0.07927-0.49041-0.23874-0.01556-0.03889-0.04454-0.05481-0.08733-0.04703-0.04279 0.01167-0.06408 0.02937-0.06408 0.05271 0 0.0078 0.0019 0.01728 0.0057 0.02894 0.10502 0.22559 0.3172 0.33848 0.63614 0.33848 0.43563 0 0.78147-0.17318 1.0382-0.51935 0.22559-0.30727 0.39877-0.69802 0.51935-1.1725 0.09335 0.02334 0.16904 0.06054 0.22738 0.1111 0.05835 0.05056 0.09734 0.09905 0.11679 0.14573 0.02336 0.04668 0.03696 0.10286 0.04082 0.16898 0.0039 0.07001 0.0021 0.1185-0.0057 0.14573 0.03501 0 0.0758-0.0231 0.12247-0.06976 0.04668-0.04279 0.07028-0.09538 0.07028-0.15762 0-0.05834-0.0041-0.10504-0.01188-0.14004-0.04668-0.20615-0.21755-0.33443-0.51315-0.38499 0.04668-0.21392 0.10286-0.50948 0.16898-0.88677 0.06612-0.38118 0.14001-0.71753 0.22169-1.0092 0.08168-0.2956 0.13787-0.47468 0.16898-0.53692 0.03111-0.06223 0.05472-0.10713 0.07028-0.13436 0-0.09335-0.04079-0.14004-0.12247-0.14004-0.12836 0-0.25073 0.11879-0.36742 0.35605-0.22948 0.47063-0.48836 0.93168-0.77618 1.3829-0.28394 0.44729-0.49022 0.67076-0.61857 0.67076-0.09335 0-0.14004-0.11648-0.14004-0.34985 0-0.46285 0.117-0.957 0.35037-1.4821 0.20614-0.45507 0.43551-0.68265 0.68833-0.68265 0.05445 0 0.10294 0.0195 0.14573 0.05839 0.04279 0.035 0.06998 0.06399 0.08165 0.08733 0.01167 0.01945 0.02167 0.04485 0.02945 0.07596 0.01167 0.02723 0.04836 0.04082 0.11059 0.04082 0.05445 0 0.08755-0.0331 0.09922-0.09922l-0.03514-0.07545c-0.01945-0.05445-0.06614-0.10936-0.14004-0.16381-0.07001-0.05445-0.16699-0.08165-0.29146-0.08165zm33.605 0.02946c-0.43174 0-0.90407 0.64192-1.4175 1.9255h-0.05271c0.07779-0.5951 0.20607-1.1749 0.38499-1.7389 0-0.08168-0.03669-0.12247-0.11059-0.12247-0.16725 0-0.30965 0.23527-0.42633 0.7059-0.11669 0.46674-0.17467 0.99167-0.17467 1.5751 0 0.30727 0.05798 0.46095 0.17467 0.46095 0.05834 0 0.08785-0.0231 0.08785-0.06976 0-0.05445 0.06209-0.24123 0.18655-0.56017 0.12447-0.32283 0.28995-0.67868 0.49609-1.0676 0.20614-0.38895 0.39472-0.65552 0.56586-0.79944 0.02334-0.01947 0.04874-0.03075 0.07597-0.03462 0.035-0.0039 0.04629 0.01331 0.03462 0.05219-0.17503 0.73123-0.26252 1.336-0.26252 1.8144 0 0.30727 0.0567 0.46096 0.1695 0.46096 0.06223 0 0.09302-0.0231 0.09302-0.06976 0-0.09335 0.13649-0.3966 0.40876-0.91002 0.27227-0.5173 0.51934-0.87136 0.74104-1.062 0.02334-0.01947 0.04642-0.03127 0.06976-0.03514 0.02723 0 0.03672 0.0136 0.02894 0.04083-0.12446 0.45118-0.18655 0.97432-0.18655 1.5694 0 0.33839 0.04079 0.61265 0.12247 0.82269 0.08557 0.21392 0.20436 0.32091 0.35605 0.32091 0.05056 0 0.10084-0.0236 0.15141-0.07028 0.05445-0.04668 0.08986-0.08336 0.10542-0.11059 0.05832-0.08557 0.06014-0.12816 0.0057-0.12816-0.01556 0-0.04454 0.01717-0.08733 0.05219-0.04278 0.03889-0.08589 0.05839-0.12867 0.05839-0.12447 0-0.18655-0.20628-0.18655-0.61857 0-0.63788 0.10108-1.2929 0.30334-1.9658 0-0.17892-0.09339-0.26872-0.28009-0.26872-0.14002 0-0.29729 0.0975-0.47232 0.29197-0.17503 0.19058-0.32871 0.39866-0.46096 0.62425-0.12835 0.2217-0.25664 0.46878-0.38499 0.74104h-0.04703c0.08168-0.52897 0.21407-1.0657 0.39688-1.6102 0-0.18281-0.09339-0.2744-0.28008-0.2744zm-36.995 0.01138c-0.16725 2e-6 -0.31092 0.23579-0.4315 0.70642-0.11668 0.47063-0.17518 0.99556-0.17518 1.5751 0 0.30727 0.06209 0.46095 0.18655 0.46095 0.05445 0 0.08217-0.0236 0.08217-0.07028 0-0.05056 0.05798-0.22374 0.17466-0.51935 0.11669-0.29949 0.27806-0.63764 0.48421-1.0149 0.20614-0.37728 0.40293-0.64745 0.58963-0.8108 0.0389-0.03112 0.07379-0.04702 0.1049-0.04702 0.04668 0 0.06207 0.0254 0.04651 0.07596-0.16725 0.64177-0.25063 1.2311-0.25063 1.7679 0 0.33839 0.04079 0.61265 0.12247 0.82269 0.08557 0.21392 0.20205 0.32091 0.34985 0.32091 0.05445 0 0.10705-0.0236 0.15762-0.07028 0.05445-0.04667 0.09166-0.08336 0.1111-0.11059 0.05445-0.08557 0.05445-0.12816 0-0.12816-0.01556 0-0.04506 0.01717-0.08785 0.05219-0.04279 0.03889-0.08769 0.05839-0.13436 0.05839-0.12057 0-0.18035-0.20628-0.18035-0.61857 0-0.28394 0.03489-0.61439 0.1049-0.99167 0.0739-0.37728 0.13188-0.63795 0.17466-0.78186 0.04279-0.1478 0.0782-0.26659 0.10542-0.35605 0-0.19059-0.09929-0.28577-0.29766-0.28577-0.47452 0-0.96276 0.62063-1.4645 1.8614h-0.05271c0.07779-0.59898 0.20659-1.1883 0.3855-1.7678 0-0.08557-0.03541-0.12868-0.10542-0.12868zm7.0714 0.01188-0.03514 0.0057c-0.15947 0.03501-0.33624 0.28387-0.53072 0.74673-0.19447 0.45896-0.29197 0.91642-0.29197 1.3715s0.14778 0.68265 0.44338 0.68265c0.26448 0 0.64985-0.44924 1.1555-1.3477h0.05219c-0.05056 0.24504-0.09495 0.4975-0.13384 0.75809-0.03889 0.2606-0.0802 0.48817-0.12299 0.68265-0.42785 0.01556-0.7914 0.11074-1.0909 0.28577-0.29949 0.17892-0.53297 0.3952-0.70022 0.64802-0.01167 0.02334-0.0035 0.04232 0.02376 0.05788 0.05056 0.02334 0.08725 0.01796 0.11059-0.01707 0.37728-0.52119 0.91812-0.78956 1.6221-0.80512-0.09335 0.43562-0.22574 0.79917-0.39688 1.0909-0.19837 0.33061-0.47263 0.49558-0.82269 0.49558v5.29e-4c-0.25671 0-0.41988-0.07979-0.48989-0.23926-0.01945-0.03109-0.04896-0.04469-0.08785-0.04082-0.04279 0.0078-0.06408 0.02318-0.06408 0.04651 0 0.0078 0.0019 0.01728 0.0057 0.02894 0.10502 0.22559 0.3172 0.33848 0.63614 0.33848 0.73901 0 1.258-0.56393 1.5575-1.6919 0.09335 0.02334 0.16955 0.06054 0.22789 0.1111 0.05834 0.05056 0.09734 0.09905 0.11679 0.14573 0.02336 0.04668 0.03696 0.10286 0.04083 0.16898 0.0039 0.07001 0.0016 0.11902-0.0062 0.14624 0.03501 0 0.0758-0.0236 0.12248-0.07028 0.04667-0.04279 0.07028-0.09538 0.07028-0.15762 0-0.05834-0.0041-0.10504-0.01188-0.14004-0.04668-0.20615-0.21754-0.33443-0.51315-0.38499 0.04668-0.21392 0.10286-0.50948 0.16898-0.88677 0.06612-0.38118 0.15182-0.75832 0.25683-1.1317 0.10502-0.37339 0.1943-0.62816 0.2682-0.76429 0-0.08946-0.04079-0.13436-0.12247-0.13436-0.12835 0-0.24894 0.11879-0.36174 0.35605-0.2606 0.56787-0.56796 1.1277-0.92191 1.68-0.24115 0.37728-0.41613 0.56586-0.52503 0.56586-0.09335 0-0.14004-0.10647-0.14004-0.3204 0-0.21781 0.05491-0.51927 0.16381-0.90434 0.10891-0.38895 0.1964-0.66732 0.26252-0.83457 0.06612-0.17114 0.12051-0.30943 0.1633-0.41445 0-0.08557-0.0331-0.12816-0.09922-0.12816zm5.1051 0c-0.16336 0-0.35245 0.25066-0.56637 0.75241-0.19448 0.45507-0.29146 0.91253-0.29146 1.3715 0 0.45507 0.14958 0.68265 0.44907 0.68265 0.25282 0 0.61457-0.41076 1.0852-1.2314h0.05271c-0.04279 0.30338-0.06408 0.59894-0.06408 0.88677 0 0.28394 0.04438 0.52331 0.13384 0.71778 0.08557 0.19448 0.20615 0.29197 0.36173 0.29197 0.07001 0 0.138-0.04311 0.20412-0.12868 0.07001-0.08168 0.11491-0.14787 0.13436-0.19844 0.02334-0.05056 0.03873-0.09315 0.04651-0.12816 0.01167-0.03501-0.0037-0.05271-0.04651-0.05271s-0.0659 0.0177-0.06976 0.05271c-0.035 0.08557-0.074 0.14766-0.11679 0.18655-0.0389 0.04279-0.082 0.06408-0.12868 0.06408-0.11668 0-0.17466-0.19037-0.17466-0.57154 0-0.2606 0.0213-0.52717 0.06408-0.79944 0.10502-0.68455 0.28179-1.2739 0.53072-1.7678 0-0.08557-0.039-0.12816-0.11679-0.12816-0.16336 0-0.32243 0.17318-0.47801 0.51935-0.15169 0.34616-0.37336 0.7659-0.66508 1.2599-0.13613 0.22948-0.27032 0.42396-0.40256 0.58342-0.12836 0.15947-0.22585 0.23926-0.29197 0.23926-0.09335 0-0.14004-0.09877-0.14004-0.29714 0-0.20225 0.0585-0.50782 0.17518-0.91622 0.11668-0.4084 0.25677-0.82865 0.42013-1.2604 0-0.08557-0.03489-0.12816-0.1049-0.12816zm14.691 0c-0.19059 0-0.37736 0.05439-0.56017 0.1633-0.3345 0.20614-0.59696 0.5425-0.78755 1.0092-0.12058 0.30727-0.18087 0.59155-0.18087 0.85214 0 0.14002 0.0172 0.276 0.05219 0.40824 0.1128 0.38895 0.37526 0.58343 0.78755 0.58343 0.10502 0 0.20841-0.0254 0.30954-0.07597 0.10502-0.04668 0.1884-0.09927 0.25063-0.15762 0.06612-0.06223 0.13642-0.14382 0.21032-0.24495 0.07779-0.10112 0.12217-0.17322 0.13384-0.21601 0.0039-0.02334-0.02921-0.03462-0.09922-0.03462-0.04278 0-0.07177 0.0154-0.08733 0.04651-0.06612 0.11279-0.1495 0.21568-0.25063 0.30902-0.05056 0.04667-0.11317 0.08798-0.18707 0.12299-0.0739 0.03111-0.14369 0.04651-0.20981 0.04651s-0.12051-0.0077-0.1633-0.02326c-0.2217-0.07779-0.3328-0.31126-0.3328-0.70021 0-0.45896 0.11879-0.90641 0.35605-1.342 0.2217-0.40062 0.46108-0.601 0.71779-0.601 0.12835 0 0.19224 0.07979 0.19224 0.23926 0 0.21392-0.09339 0.44919-0.28009 0.7059-0.22948 0.31894-0.48194 0.47852-0.75809 0.47852 0.01945 0.03889 0.04844 0.06789 0.08733 0.08733 0.0389 0.01945 0.08739 0.02945 0.14573 0.02945 0.37339 0 0.67306-0.18088 0.89865-0.5426 0.13224-0.21781 0.19844-0.42589 0.19844-0.62425 0-0.34617-0.14778-0.51935-0.44338-0.51935zm2.2691 0c-0.19058 0-0.37685 0.05439-0.55966 0.1633-0.3345 0.20614-0.59748 0.5425-0.78807 1.0092-0.12057 0.30727-0.18087 0.59155-0.18087 0.85214 0 0.14002 0.0177 0.276 0.05271 0.40824 0.11279 0.38895 0.37526 0.58343 0.78755 0.58343 0.10502 0 0.20842-0.0254 0.30954-0.07597 0.10502-0.04668 0.1884-0.09927 0.25063-0.15762 0.06612-0.06223 0.13591-0.14382 0.20981-0.24495 0.07779-0.10112 0.12269-0.17322 0.13436-0.21601 0.0039-0.02334-0.02921-0.03462-0.09922-0.03462-0.04278 0-0.07177 0.0154-0.08733 0.04651-0.06612 0.11279-0.15002 0.21568-0.25115 0.30902-0.05056 0.04667-0.11265 0.08798-0.18655 0.12299-0.0739 0.03111-0.14368 0.04651-0.2098 0.04651s-0.12051-0.0077-0.1633-0.02326c-0.2217-0.07779-0.3328-0.31126-0.3328-0.70021 0-0.45896 0.11879-0.90641 0.35605-1.342 0.2217-0.40062 0.46056-0.601 0.71727-0.601 0.12835 0 0.19275 0.07979 0.19275 0.23926 0 0.21392-0.09339 0.44919-0.28009 0.7059-0.22948 0.31894-0.48245 0.47852-0.75861 0.47852 0.01945 0.03889 0.04896 0.06789 0.08785 0.08733 0.0389 0.01945 0.08739 0.02945 0.14573 0.02945 0.37339 0 0.67306-0.18088 0.89866-0.5426 0.13224-0.21781 0.19792-0.42589 0.19792-0.62425 0-0.34617-0.14778-0.51935-0.44339-0.51935zm-30.303 0.11679c-0.18281 0-0.33418 0.22526-0.45475 0.67644-0.11668 0.45118-0.17518 0.96483-0.17518 1.5405 0 0.32672 0.0526 0.48989 0.15762 0.48989 0.05834 0 0.08733-0.02719 0.08733-0.08165 0-0.34228 0.04669-0.73123 0.14004-1.1669 0.09724-0.43952 0.17524-0.74277 0.23358-0.91002 0.05834-0.16725 0.10683-0.30143 0.14573-0.40256 0-0.09724-0.0449-0.14573-0.13436-0.14573zm22.777 2.2577c-0.035 0.38117-0.0758 0.75242-0.12247 1.1141-0.03112 0.24115-0.0814 0.47283-0.15141 0.69453-0.06223 0.20226-0.15383 0.30334-0.2744 0.30334-0.09335 0-0.14004-0.0644-0.14004-0.19275 0-0.12835 0.0526-0.35952 0.15761-0.69401 0.06223-0.19837 0.239-0.60682 0.53072-1.2252z" fill="#fff" stroke-width=".26458"/>
<path d="m33.031 13.033c-0.36108 0.15078-0.88288 0.25364-1.5654 0.30919-0.01983 0.10713-6e-3 0.18439 0.0416 0.23201 0.30553 0.01587 0.49993 0.07365 0.58326 0.17285 0.08729 0.09523 0.13895 0.35307 0.15482 0.77367 0.02381 0.46822 0.03605 1.367 0.03605 2.6963 0 1.2102-0.01223 2.2339-0.03605 3.0711-8e-3 0.46425-0.05959 0.75019-0.15482 0.85732-0.09126 0.10317-0.31942 0.16253-0.68447 0.1784-0.03971 0.03967-0.05761 0.08929-0.05361 0.14882 0.0039 0.05555 0.02187 0.09905 0.05361 0.13079 0.13888 0 0.34144-0.0097 0.60729-0.02958 0.26982-0.01985 0.4939-0.03004 0.67246-0.03004 0.17856 0 0.40106 0.0102 0.66691 0.03004 0.26982 0.01984 0.47804 0.02958 0.62485 0.02958 0.09126-0.09523 0.09126-0.18835 0-0.27961-0.36505-0.01588-0.59525-0.07523-0.69048-0.1784-0.09126-0.10713-0.14088-0.39307-0.14882-0.85732-0.01983-0.77772-0.02958-1.6965-0.02958-2.7559 0-1.1864 0.0097-2.2832 0.02958-3.2911 8e-3 -0.50393 0.0238-0.86916 0.04761-1.0953 0.0039-0.07539-0.04769-0.11277-0.15482-0.11277zm-18.487 0.5888c-0.03571 0.03571-0.05361 0.08375-0.05361 0.14327 0 0.05555 0.01791 0.10109 0.05361 0.1368 0.28172 0.01984 0.49606 0.08893 0.64288 0.20798 0.14681 0.11507 0.27369 0.33349 0.38083 0.65489l2.2203 6.6303c0.02778 0.09523 0.0851 0.16887 0.17239 0.22046 0.0873 0.05159 0.18088 0.07718 0.28007 0.07718 0.13094-0.0039 0.23176-0.10321 0.30318-0.29764l1.6966-4.3624c0.06349-0.20237 0.11876-0.30364 0.16638-0.30364 0.03968 0 0.09746 0.11306 0.17285 0.33923l1.4286 4.3268c0.06745 0.1984 0.20407 0.29764 0.41041 0.29764 0.15872-0.0039 0.26974-0.09913 0.33322-0.28562l2.3987-6.6067c0.08333-0.24204 0.22245-0.44822 0.41688-0.61884 0.19443-0.17062 0.44614-0.26374 0.75564-0.27961 0.03571-0.03571 0.05361-0.08125 0.05361-0.1368 0-0.05952-0.0179-0.10756-0.05361-0.14327-0.15078 0.0039-0.33906 0.01622-0.56523 0.03605-0.22221 0.01587-0.38692 0.02357-0.49406 0.02357-0.1111 0-0.3234-0.0077-0.63687-0.02357-0.31347-0.01981-0.54932-0.03205-0.70804-0.03605-0.03571 0.03571-0.05361 0.08375-0.05361 0.14327 0 0.05555 0.0179 0.10109 0.05361 0.1368 0.28966 0.01984 0.51578 0.09098 0.67846 0.21398 0.16665 0.12301 0.20811 0.30358 0.12478 0.54166l-1.9342 5.5594-0.08966 0.25558-0.08319-0.25558-1.7558-5.4282c-0.09523-0.29363-0.06917-0.50797 0.07765-0.64288 0.14681-0.13888 0.34891-0.22022 0.60683-0.24402 0.03571-0.03571 0.05361-0.08125 0.05361-0.1368 0-0.05952-0.0179-0.10756-0.05361-0.14327-0.17459 0.0039-0.4263 0.01622-0.75564 0.03605-0.32934 0.01587-0.58152 0.02357-0.75611 0.02357-0.17062 0-0.387-0.0077-0.64888-0.02357-0.26189-0.01981-0.46398-0.03205-0.60683-0.03605-0.03571 0.03571-0.05361 0.08375-0.05361 0.14327 0 0.05555 0.0179 0.10109 0.05361 0.1368 0.28569 0.01587 0.51589 0.11511 0.69048 0.29764 0.17856 0.18252 0.30136 0.37896 0.36881 0.58926l0.1844 0.56523c0.07936 0.24998 0.11924 0.41674 0.11924 0.50007 0 0.15872-0.0081 0.25999-0.02403 0.30364l-1.5353 4.0352-0.11924 0.29163-0.07718-0.29163-1.8274-5.6186c-0.06349-0.20633-0.04355-0.36697 0.05962-0.48204 0.10714-0.11507 0.27389-0.17851 0.50007-0.19041 0.03971-0.03571 0.0576-0.08125 0.05361-0.1368 0-0.05952-0.0179-0.10756-0.05361-0.14327-0.07936 0-0.28804 0.0102-0.62531 0.03004-0.33331 0.01985-0.59114 0.02958-0.77367 0.02958-0.17459 0-0.37872-0.0077-0.61284-0.02358-0.23014-0.01981-0.41684-0.03205-0.55968-0.03605zm50.306 0.91093c-0.02778 0-0.06515 0.01382-0.11277 0.0416-0.04761 0.02381-0.1054 0.05348-0.17285 0.0892-0.06349 0.03571-0.11876 0.06177-0.16638 0.07765-0.03968 0.01587-0.10154 0.03738-0.18487 0.06516-0.07936 0.02381-0.13668 0.04579-0.17239 0.06563-0.03174 0.01985-0.04761 0.04952-0.04761 0.08919 0 0.01588 0.0041 0.07161 0.01202 0.16684 0.0079 0.09126 0.01356 0.25756 0.01756 0.4996 4e-3 0.23808 6e-3 0.54757 6e-3 0.9285h-0.53565c-0.13888 0-0.20844 0.05778-0.20844 0.17285v0.10722c0.0039 0.05159 0.02595 0.07718 0.06563 0.07718h0.67846c0 0.4206-0.0097 1.0734-0.02958 1.9582-0.01985 0.88088-0.03004 1.4267-0.03004 1.637 0 0.76978 0.27212 1.1545 0.81572 1.1545 0.59519 0 1.1206-0.2558 1.5769-0.76766-0.01983-0.09523-0.0613-0.15097-0.12478-0.16684-0.36505 0.27379-0.71035 0.41087-1.0357 0.41087-0.14682 0-0.24606-0.0793-0.29764-0.23802-0.04762-0.15872-0.07934-0.43649-0.09521-0.83329-0.01983-0.6309 0.0021-1.6826 0.06563-3.1548h1.2021c0.19046 0 0.28562-0.04962 0.28562-0.14882v-0.13079c-0.0039-0.05159-0.03364-0.07765-0.08919-0.07765h-1.3985l0.01202-0.69002c8e-3 -0.50393 0.0238-0.91062 0.04761-1.2201 0-0.07539-0.0281-0.11323-0.08366-0.11323zm-17.772 1.8806c-0.33331 0.11904-0.84898 0.22848-1.5473 0.32768-0.02381 0.07539-0.01612 0.14449 0.02357 0.20798 0.32537 0.03174 0.52793 0.08952 0.60729 0.17285 0.08333 0.07936 0.13294 0.28554 0.14882 0.61884 0.03174 0.84517 0.03174 1.6903 0 2.5355-0.01587 0.45631-0.06957 0.74021-0.16083 0.85131-0.0873 0.10714-0.29755 0.17261-0.63086 0.19642-0.03174 0.03175-0.04761 0.07729-0.04761 0.1368 0 0.05555 0.01586 0.10313 0.04761 0.14281 0.54361-0.03968 0.95438-0.05962 1.2321-0.05962 0.2222 0 0.59718 0.01994 1.1249 0.05962 0.09126-0.0873 0.09126-0.18041 0-0.27961-0.30156-0.03174-0.4903-0.09722-0.5657-0.19642-0.07142-0.10317-0.11492-0.38706-0.13079-0.85131-0.02381-0.68249-0.02381-1.369 0-2.0594 8e-3 -0.20236 0.07342-0.36504 0.19642-0.48805 0.47218-0.45631 0.9183-0.68447 1.3389-0.68447 0.49599 0 0.75995 0.35346 0.79169 1.0598 0.03174 0.72614 0.03174 1.45 0 2.1722-0.01588 0.47219-0.06141 0.76016-0.1368 0.86333-0.07142 0.0992-0.26582 0.1606-0.58326 0.1844-0.07936 0.0873-0.07936 0.18041 0 0.27961 0.43251-0.03968 0.81926-0.05962 1.1605-0.05962 0.25792 0 0.63085 0.01994 1.1189 0.05962 0.07935-0.09523 0.07935-0.18835 0-0.27961-0.30157-0.02381-0.48984-0.08724-0.56523-0.19041-0.07142-0.10713-0.11492-0.39307-0.13079-0.85732-0.02381-0.66662-0.02381-1.3332 0-1.9998 8e-3 -0.15475 0.0038-0.30927-0.01202-0.46402 0.46425-0.51186 1.006-0.76812 1.625-0.76812 0.47219 0 0.71982 0.3453 0.74363 1.0357 0.03174 0.73407 0.03174 1.4661 0 2.1962-0.01588 0.46425-0.06345 0.75019-0.14281 0.85732-0.07539 0.10317-0.26775 0.1666-0.57725 0.19041-0.07936 0.09523-0.07936 0.18835 0 0.27961 0.50393-0.03968 0.88864-0.05962 1.1545-0.05962 0.26982 0 0.66065 0.01994 1.1725 0.05962 0.07936-0.09523 0.07936-0.18835 0-0.27961-0.32537-0.02381-0.52747-0.08724-0.60682-0.19041-0.07539-0.10713-0.12093-0.39307-0.1368-0.85732-0.02381-0.65868-0.02381-1.3212 0-1.9878 0.02381-0.58329-0.04983-1.0376-0.22045-1.3629-0.17062-0.32537-0.4919-0.48805-0.96408-0.48805-0.78565 0-1.4543 0.28752-2.0058 0.86287-0.06745 0.06349-0.10891 0.0594-0.12478-0.01202-0.05556-0.24204-0.18651-0.44414-0.39284-0.60683-0.20633-0.16269-0.45647-0.24402-0.7501-0.24402-0.62694 0-1.2418 0.31719-1.845 0.95207-0.07936 0.07936-0.11924 0.07936-0.11924 0 0-0.23808 0.01995-0.53533 0.05962-0.89245 0-0.05555-0.04962-0.08365-0.14882-0.08365zm-18.445 0.02403c-0.59916 0-1.1466 0.25172-1.6425 0.75564-0.49599 0.50393-0.74409 1.171-0.74409 2.0003 0 0.73407 0.18262 1.3111 0.54767 1.7317 0.41267 0.49202 1.0255 0.73808 1.839 0.73808 0.84517 0 1.524-0.33714 2.0359-1.0117-0.03174-0.11904-0.11354-0.18248-0.24449-0.19041-0.24205 0.24998-0.47586 0.43826-0.70204 0.56523-0.2222 0.12698-0.4882 0.19041-0.7977 0.19041-0.23411 0-0.48221-0.07114-0.74409-0.21398-0.25792-0.14285-0.47179-0.35357-0.64242-0.63132-0.24601-0.39679-0.36927-0.94011-0.36927-1.6305l3.2675-0.04761c0.14682 0 0.22045-0.06956 0.22045-0.20844 0-0.57535-0.15294-1.0593-0.45847-1.4521-0.30553-0.39679-0.82732-0.59527-1.5654-0.59527zm8.4401 0c-0.61503 0-1.1767 0.25376-1.6846 0.76165-0.5079 0.50393-0.76165 1.1469-0.76165 1.9286 0 0.75788 0.2123 1.3707 0.63687 1.839 0.42854 0.46425 1.0036 0.69649 1.7257 0.69649 0.81343 0.0039 1.4641-0.38891 1.9522-1.1785-0.03174-0.07142-0.09314-0.11288-0.18441-0.12478-0.19443 0.25395-0.43233 0.46012-0.71405 0.61884-0.28172 0.15872-0.54772 0.23802-0.7977 0.23802-0.47218 0-0.87276-0.21434-1.2021-0.64288-0.32934-0.42854-0.49406-0.99587-0.49406-1.7022 0-0.62297 0.14478-1.1366 0.43444-1.5413 0.28966-0.4087 0.63291-0.6133 1.0297-0.6133 0.53964 0 0.84506 0.3095 0.91648 0.9285 0.02778 0.27379 0.17255 0.41087 0.43444 0.41087 0.14681 0 0.27777-0.04192 0.39284-0.12525 0.11507-0.0873 0.17285-0.21621 0.17285-0.38684 0-0.32537-0.17288-0.59091-0.51809-0.79724-0.34124-0.20633-0.78736-0.30965-1.3389-0.30965zm5.1837 0c-0.74994 0-1.3567 0.27166-1.8209 0.81526-0.42854 0.50393-0.64288 1.1429-0.64288 1.9166 0 0.65868 0.2123 1.2398 0.63687 1.7438 0.42854 0.49996 1.0296 0.7501 1.8034 0.7501 0.67852 0.0039 1.2459-0.21445 1.7022-0.65489 0.50393-0.49599 0.75611-1.1467 0.75611-1.9522 0-0.43647-0.07568-0.84317-0.22646-1.2201-0.15078-0.38092-0.41632-0.70832-0.79724-0.98211-0.38092-0.27776-0.85152-0.41641-1.411-0.41641zm15.136 0c-0.59916 0-1.1466 0.25172-1.6425 0.75564-0.49599 0.50393-0.74409 1.171-0.74409 2.0003 0 0.73407 0.18262 1.3111 0.54767 1.7317 0.41267 0.49202 1.0255 0.73808 1.839 0.73808 0.84517 0 1.5235-0.33714 2.0354-1.0117-0.03174-0.11904-0.11308-0.18248-0.24402-0.19041-0.24204 0.24998-0.47586 0.43826-0.70203 0.56523-0.22221 0.12698-0.4882 0.19041-0.7977 0.19041-0.23411 0-0.48221-0.07114-0.74409-0.21398-0.25792-0.14285-0.47226-0.35357-0.64288-0.63132-0.24601-0.39679-0.36881-0.94011-0.36881-1.6305l3.2675-0.04761c0.14681 0 0.22045-0.06956 0.22045-0.20844 0-0.57535-0.15294-1.0593-0.45847-1.4521-0.30553-0.3968-0.82732-0.59527-1.5654-0.59527zm12.136 0c-0.74994 0-1.3572 0.27166-1.8214 0.81526-0.42854 0.50393-0.64288 1.1429-0.64288 1.9166 0 0.65868 0.2123 1.2398 0.63687 1.7438 0.42854 0.49996 1.0296 0.7501 1.8034 0.7501 0.67852 0.0039 1.2459-0.21445 1.7022-0.65489 0.50393-0.49599 0.75611-1.1467 0.75611-1.9522 0-0.43647-0.07522-0.84317-0.226-1.2201-0.15078-0.38092-0.41678-0.70832-0.7977-0.98211-0.38092-0.27776-0.85105-0.41641-1.4105-0.41641zm-40.896 0.27961c0.30156 0 0.5594 0.12688 0.77367 0.38083 0.21427 0.24998 0.32167 0.60706 0.32167 1.0713 0.0039 0.10317-0.05177 0.15483-0.16684 0.15483l-2.3571 0.06563c0.0992-0.58329 0.28998-1.0079 0.5717-1.2737 0.28569-0.26585 0.57117-0.39885 0.85686-0.39885zm13.451 0c0.50393 0 0.91062 0.24402 1.2201 0.73208 0.3095 0.48806 0.46448 1.1469 0.46448 1.9762 0 0.65868-0.14524 1.1508-0.4349 1.4762-0.28966 0.3214-0.60074 0.48204-0.93404 0.48204-0.37298 0-0.69472-0.14886-0.96454-0.44645-0.26585-0.30156-0.45209-0.63304-0.55922-0.99412-0.10317-0.36108-0.15483-0.70842-0.15483-1.0417 0-0.59519 0.10694-1.1068 0.32121-1.5353 0.21427-0.43251 0.5616-0.64888 1.0417-0.64888zm15.308 0c0.30156 0 0.5594 0.12688 0.77367 0.38083 0.21427 0.24998 0.32167 0.60706 0.32167 1.0713 0.0039 0.10317-0.05177 0.15483-0.16684 0.15483l-2.3571 0.06563c0.0992-0.58329 0.28951-1.0079 0.57124-1.2737 0.28569-0.26585 0.57163-0.39885 0.85732-0.39885zm11.963 0c0.50393 0 0.91062 0.24402 1.2201 0.73208 0.3095 0.48806 0.46448 1.1469 0.46448 1.9762 0 0.65868-0.14478 1.1508-0.43444 1.4762-0.28966 0.3214-0.6012 0.48204-0.9345 0.48204-0.37299 0-0.69426-0.14886-0.96408-0.44645-0.26585-0.30156-0.45255-0.63304-0.55968-0.99412-0.10316-0.36108-0.15483-0.70842-0.15483-1.0417 0-0.59519 0.1074-1.1068 0.32167-1.5353 0.21427-0.43251 0.56114-0.64888 1.0413-0.64888z" fill="#fff18d" stroke-width=".26458"/>
<path d="m45.307 26.588c-0.64181 0-1.1921 0.19704-1.6505 0.5917-0.45445 0.39066-0.68161 0.90081-0.68161 1.5307 0 0.52222 0.1557 0.94303 0.46664 1.2619 0.31492 0.31891 0.74917 0.60019 1.3033 0.84336 0.06378 0.02791 0.1994 0.08372 0.40669 0.16743 0.21128 0.07973 0.36868 0.14337 0.47232 0.1912 0.10763 0.04784 0.24717 0.12764 0.41858 0.23926 0.1754 0.11162 0.30711 0.22494 0.39481 0.34055 0.0877 0.1156 0.16751 0.26739 0.23926 0.45475 0.07176 0.18736 0.10749 0.39223 0.10749 0.61547 0 0.4983-0.13953 0.89511-0.41858 1.1901-0.27506 0.291-0.6535 0.43666-1.1358 0.43666-0.57803 0-1.0686-0.15961-1.4712-0.47852-0.40262-0.31891-0.66943-0.77936-0.80098-1.3813-0.08371-0.01995-0.13392-0.02777-0.14986-0.02377-0.01196 4e-3 -0.05382 0.02406-0.12557 0.05994 0.03986 0.72552 0.12189 1.3451 0.24546 1.8593 0.23121 0 0.55774 0.04799 0.9803 0.14366 0.42655 0.09169 0.8334 0.13746 1.2201 0.13746 0.57803 0 1.082-0.1334 1.5126-0.40049 0.3508-0.21925 0.62986-0.50614 0.83716-0.86093 0.20729-0.35479 0.31109-0.72591 0.31109-1.1126 0-0.53418-0.14957-0.9606-0.44855-1.2795-0.29898-0.31891-0.70753-0.59015-1.2258-0.81339-0.03986-0.01595-0.16323-0.06341-0.37052-0.14314-0.20729-0.07973-0.37473-0.1478-0.5023-0.20361-0.12358-0.05581-0.2871-0.14123-0.49041-0.25683-0.19932-0.1156-0.35893-0.22944-0.47852-0.34106-0.1156-0.11561-0.21889-0.25905-0.31058-0.43047-0.0877-0.1754-0.13177-0.359-0.13177-0.55035 0-0.35479 0.13953-0.69136 0.41858-1.0103 0.27905-0.31891 0.59384-0.47853 0.94464-0.47853 0.94876-4e-3 1.5945 0.55805 1.9373 1.6862 0.12358 0 0.21564-0.024 0.27544-0.07183-0.03588-0.49033-0.11007-1.0161-0.22169-1.5782-0.11162-0.01594-0.33657-0.07567-0.67541-0.17932-0.33486-0.10364-0.73559-0.15555-1.202-0.15555zm7.4145 0c-1.184 0-2.1423 0.40464-2.8758 1.2139-0.7335 0.80924-1.1002 1.8055-1.1002 2.9895 0 1.1521 0.32653 2.1031 0.9803 2.8525 0.65377 0.74944 1.6087 1.124 2.8644 1.124 0.60593 0 1.1937-0.14123 1.7637-0.42426 0.57404-0.28702 1.0646-0.69609 1.4712-1.2263-0.06777-0.12358-0.16374-0.185-0.28732-0.185-0.43053 0.47438-0.86869 0.81708-1.3152 1.0284-0.44648 0.20729-0.95492 0.31109-1.525 0.31109-0.60195 0-1.126-0.18752-1.5725-0.56224-0.44648-0.37871-0.77131-0.84307-0.97462-1.3932-0.20331-0.55012-0.30489-1.1362-0.30489-1.758 0-1.0046 0.27685-1.8618 0.83096-2.5714 0.55411-0.70958 1.216-1.064 1.9854-1.064 1.3793-4e-3 2.2902 0.72158 2.7327 2.1766 0.1156 8e-3 0.20936-0.01211 0.28112-0.05995-0.05581-0.586-0.14566-1.2178-0.26924-1.8955-0.08371-8e-3 -0.40685-0.10173-0.96893-0.28112-0.55809-0.18338-1.1302-0.27492-1.7162-0.27492zm8.3478 0c-0.27506 0.16344-0.48827 0.24495-0.63975 0.24495l-2.8407 6.6911c-0.1475 0.34283-0.31494 0.57442-0.5023 0.69402-0.18338 0.11959-0.42449 0.18936-0.72347 0.20929-0.03588 0.03588-0.05374 0.08335-0.05374 0.14314 0 0.05581 0.01786 0.10158 0.05374 0.13746 0.12756-4e-3 0.31678-0.01572 0.56792-0.03565 0.25513-0.01595 0.47055-0.02377 0.64596-0.02377 0.18736 0 0.42456 0.0078 0.71158 0.02377 0.29101 0.01992 0.49418 0.03165 0.60978 0.03565 0.03988-0.03588 0.05826-0.08165 0.05426-0.13746 3e-6 -0.05979-0.01838-0.10726-0.05426-0.14314-0.0877-4e-3 -0.16529-0.01011-0.23306-0.01809-0.06777-0.01196-0.14536-0.02591-0.23306-0.04186-0.0877-0.01993-0.15576-0.04392-0.2036-0.07183-0.04385-0.0279-0.09132-0.06363-0.14314-0.10749-0.05183-0.04784-0.07583-0.10195-0.07183-0.16175 8e-3 -0.0598 0.02192-0.13348 0.04186-0.22118l0.73536-1.9017c0.03588-0.09168 0.08165-0.15923 0.13746-0.20309 0.0598-0.04385 0.15747-0.06563 0.293-0.06563h2.5533l0.77721 2.2541c0.01992 0.05581 0.03217 0.10771 0.03617 0.15555 4e-3 0.04783-0.0038 0.08969-0.02377 0.12557-0.01595 0.03189-0.03433 0.0598-0.05426 0.08371-0.01594 0.02392-0.04776 0.0457-0.0956 0.06563-0.04783 0.01595-0.08969 0.0299-0.12557 0.04186-0.03588 8e-3 -0.08948 0.01801-0.16123 0.02997-0.07175 8e-3 -0.12978 0.01409-0.17363 0.01808-0.03986 4e-3 -0.1035 0.0079-0.1912 0.01189-0.05182 4e-3 -0.09147 0.0062-0.11937 0.0062-0.03588 0.03588-0.05426 0.08335-0.05426 0.14314 0 0.05581 0.01838 0.10158 0.05426 0.13746 0.09966 0 0.34469-0.0095 0.73535-0.02946 0.39466-0.01993 0.68376-0.02997 0.86713-0.02997 0.19135 0 0.45816 0.0078 0.80098 0.02377 0.34682 0.01992 0.57398 0.03165 0.68161 0.03565 0.03588-0.03588 0.05426-0.08165 0.05426-0.13746 0-0.05979-0.01838-0.10726-0.05426-0.14314-0.15148-0.01196-0.26872-0.02591-0.35243-0.04186-0.07973-0.01594-0.1757-0.04606-0.28732-0.08992-0.10763-0.04784-0.19918-0.1176-0.27492-0.20929-0.07176-0.09567-0.1337-0.21904-0.18552-0.37052zm7.2171 0.04186c-0.09169 0-0.34845 0.01956-0.77101 0.05943-0.41857 0.03987-0.71772 0.05994-0.8971 0.05994-0.21925 0-0.49049-0.01004-0.81339-0.02997-0.3229-0.01993-0.57405-0.02997-0.75344-0.02997-0.0319 0.03189-0.04754 0.07818-0.04754 0.13798 0 0.05581 0.01565 0.10328 0.04754 0.14314 0.45046 0.01595 0.73565 0.08401 0.85524 0.2036 0.12358 0.1156 0.18943 0.41866 0.1974 0.90899 0.01595 1.3594 0.02377 2.2379 0.02377 2.6365 0 1.0524-0.0078 1.9175-0.02377 2.5952-8e-3 0.4983-0.07383 0.80527-0.1974 0.92087-0.11959 0.11162-0.40478 0.17577-0.85524 0.19172-0.0319 0.03189-0.04754 0.07766-0.04754 0.13746 0 0.05581 0.01565 0.10328 0.04754 0.14314 0.17142 0 0.42257-0.0095 0.75344-0.02946 0.33087-0.01993 0.60994-0.02997 0.83716-0.02997 0.25513 0 0.56823 0.01004 0.93896 0.02997 0.37073 0.01993 0.63754 0.02946 0.80099 0.02946 0.03189-0.03987 0.04806-0.08734 0.04806-0.14314 0-0.05979-0.01617-0.10556-0.04806-0.13746-0.47438-0.02392-0.80092-0.08416-0.9803-0.17983-0.17939-0.09966-0.27315-0.31287-0.28112-0.63976-0.01595-1.2238-0.02377-2.0845-0.02377-2.5828 0.22722 0.07176 0.57384 0.10749 1.0402 0.10749 0.53019 0 0.99064-0.07589 1.3813-0.22738 0.39465-0.15148 0.6938-0.35295 0.8971-0.6041 0.20331-0.25513 0.35066-0.51411 0.44235-0.77721 0.09567-0.2631 0.14366-0.53825 0.14366-0.82527 0-0.21526-0.04016-0.42848-0.11989-0.63975-0.07574-0.21128-0.20302-0.43062-0.3824-0.65784-0.17939-0.23121-0.46067-0.41651-0.84336-0.55604-0.38269-0.14351-0.83923-0.21497-1.3694-0.21497zm9.3762 0.03566c-0.33087 0.05581-0.53626 0.08371-0.61598 0.08371h-3.5755c-0.12358 0-0.36912-0.01004-0.73587-0.02997-0.36675-0.01993-0.65142-0.02997-0.85473-0.02997-0.03189 0.03189-0.04806 0.07818-0.04806 0.13798 0 0.05581 0.01617 0.10328 0.04806 0.14314 0.45046 0.01595 0.73344 0.08401 0.84904 0.2036 0.11959 0.1156 0.18714 0.41866 0.20309 0.90899 0.01595 0.6737 0.02377 1.5522 0.02377 2.6365 0 1.0604-0.0078 1.9255-0.02377 2.5952-0.01595 0.49033-0.0835 0.7956-0.20309 0.91519-0.11561 0.1156-0.39858 0.18146-0.84904 0.1974-0.03189 0.03189-0.04806 0.07766-0.04806 0.13746 0 0.05581 0.01617 0.10328 0.04806 0.14314 0.19533 0 0.48222-0.0095 0.86093-0.02946 0.37871-0.01993 0.62986-0.02997 0.75344-0.02997h2.7208c0.39066 0 0.91254 0.01956 1.5663 0.05943 0.17142-0.61789 0.31929-1.3111 0.44287-2.0805-0.10364-0.06379-0.20132-0.08386-0.293-0.05994-0.33087 1.176-0.87113 1.7637-1.6206 1.7637h-1.9074c-0.28702 0-0.43881-0.17526-0.45475-0.52607-0.02392-0.68964-0.03175-1.7479-0.02377-3.175l1.4351 0.01188c0.33486 0 0.5821 0.03573 0.74156 0.10749 0.16344 0.06777 0.26281 0.14979 0.29869 0.24546 0.03986 0.09567 0.06777 0.25307 0.08371 0.47232 0.0877 0.09169 0.17755 0.09169 0.26924 0 0-0.13155-0.0078-0.29116-0.02377-0.47852-0.01595-0.18736-0.02377-0.34697-0.02377-0.47852 0-0.15547 0.0078-0.3486 0.02377-0.57981 0.01595-0.2352 0.02377-0.39259 0.02377-0.47232-0.0877-0.09169-0.17755-0.09169-0.26924 0-0.01594 0.3508-0.0835 0.57405-0.20309 0.66973-0.11561 0.09169-0.42258 0.14137-0.92087 0.14935l-1.4351 0.01189 0.02377-2.6727c0.01595-0.35878 0.16773-0.53795 0.45475-0.53795h1.9074c0.22324 0 0.40854 0.03352 0.55604 0.10129 0.15148 0.06378 0.27928 0.18153 0.38292 0.35295 0.10365 0.17142 0.17902 0.31707 0.22686 0.43666 0.04784 0.1156 0.1176 0.31656 0.20929 0.60358 0.07973 0.01594 0.1774-0.0036 0.293-0.05943-0.11561-0.95673-0.20545-1.5606-0.26923-1.8118 0-0.02392-0.01565-0.03617-0.04754-0.03617zm-55.807 0.02377c-0.03588 0.03588-0.05374 0.08387-0.05374 0.14366 0 0.05581 0.01786 0.10158 0.05374 0.13746 0.1754 0.01595 0.30098 0.0299 0.37672 0.04186 0.07973 8e-3 0.16906 0.02584 0.26872 0.05374 0.10364 0.0279 0.17341 0.06415 0.20929 0.108 0.03588 0.03987 0.07382 0.10129 0.11369 0.185 0.03986 0.08371 0.06607 0.18138 0.07803 0.293 0.01195 0.11162 0.01977 0.25558 0.02377 0.43098 0.02392 1.0245 0.03566 1.903 0.03566 2.6365 0 0.71755-0.01174 1.5826-0.03566 2.5952-4e-3 0.25911-0.02015 0.45837-0.04806 0.5979-0.0279 0.13952-0.08933 0.24945-0.185 0.32918-0.09169 0.07574-0.19327 0.12373-0.30489 0.14366-0.11162 0.01595-0.2891 0.0299-0.53227 0.04186-0.03588 0.03588-0.05374 0.08335-0.05374 0.14314 0 0.05581 0.01786 0.10158 0.05374 0.13746 0.79329-0.03987 1.3235-0.05943 1.5906-0.05943 0.49431 0 1.0206 0.01956 1.5787 0.05943 0.03988-0.03588 0.05774-0.08165 0.05374-0.13746 0-0.05979-0.01786-0.10726-0.05374-0.14314-0.24317-8e-3 -0.42065-0.02192-0.53227-0.04186-0.10763-0.01993-0.20752-0.07013-0.29921-0.14986-0.09169-0.07973-0.15141-0.18744-0.17932-0.32298-0.02392-0.13554-0.04009-0.33479-0.04806-0.5979-0.02392-1.0125-0.03566-1.8732-0.03566-2.5828 0-0.94079 0.01174-1.8238 0.03566-2.6489 8e-3 -0.2631 0.02414-0.46066 0.04806-0.59221 0.0279-0.13554 0.08763-0.24104 0.17932-0.31678 0.09567-0.07973 0.19556-0.12993 0.29921-0.14986 0.10365-0.01993 0.28112-0.03779 0.53227-0.05374 0.03988-0.03588 0.05774-0.08165 0.05374-0.13746 0-0.05979-0.01786-0.10778-0.05374-0.14366-0.75343 0.03987-1.282 0.05994-1.5849 0.05994-0.40263 0-0.93063-0.02008-1.5844-0.05994zm9.4837 0c-0.03588 0.03588-0.05374 0.08387-0.05374 0.14366 0 0.05581 0.01787 0.10158 0.05374 0.13746 0.25114 0.02391 0.43032 0.04791 0.53795 0.07183 0.10763 0.02392 0.20922 0.07973 0.30489 0.16743 0.09966 0.08371 0.1616 0.20317 0.18552 0.35864 0.02791 0.15148 0.04186 0.36912 0.04186 0.65216l0.01189 4.2452c0 0.24716-0.04969 0.37104-0.14934 0.37104-0.01993-2e-6 -0.04223-0.0083-0.06614-0.02429-0.01993-0.01594-0.04784-0.04385-0.08372-0.08372-0.03587-0.04385-0.06939-0.08571-0.10128-0.12557-0.03189-0.04385-0.08209-0.10919-0.14986-0.19689-0.06777-0.09169-0.12919-0.17371-0.185-0.24546l-4.2039-5.4116-1.5787-0.02377c-0.03588 0.03588-0.05374 0.08387-0.05374 0.14366 0 0.05581 0.01786 0.10158 0.05374 0.13746 0.5262 0.03588 0.86942 0.33893 1.0289 0.90899l-0.0124 5.2617c0 0.27905-0.01395 0.49448-0.04186 0.64596-0.02392 0.15148-0.08364 0.27093-0.17932 0.35864-0.09169 0.08371-0.19497 0.13952-0.31058 0.16743-0.11162 0.02791-0.2891 0.05411-0.53227 0.07803-0.03588 0.03588-0.05374 0.08335-0.05374 0.14314 0 0.05581 0.01786 0.1021 0.05374 0.13798 0.19135-4e-3 0.4146-0.01624 0.66973-0.03617 0.25513-0.01595 0.47225-0.02377 0.65164-0.02377 0.1754 0 0.38861 0.0078 0.63976 0.02377 0.25114 0.01992 0.47439 0.03217 0.66973 0.03617 0.03588-0.03588 0.05374-0.08217 0.05374-0.13798 0-0.05979-0.01786-0.10726-0.05374-0.14314-0.25114-0.02392-0.43032-0.04791-0.53795-0.07183-0.10763-0.02392-0.21143-0.07803-0.31109-0.16175-0.09567-0.0877-0.1554-0.20715-0.17932-0.35864-0.02392-0.15547-0.03617-0.37481-0.03617-0.65784l-0.01189-3.9047c0-0.39864 0.05411-0.5979 0.16175-0.5979 0.06777-4e-3 0.20509 0.12942 0.41238 0.40049l4.2757 5.3997c0.14351 0.19533 0.30652 0.293 0.48989 0.293 0.01993 0 0.0361-0.0017 0.04806-0.0057 0.01595 0 0.02768-0.0044 0.03566-0.0124 0.01196-8e-3 0.022-0.0158 0.02997-0.02377 8e-3 -8e-3 0.01409-0.01971 0.01809-0.03566s0.0062-0.0299 0.0062-0.04186c4e-3 -0.01196 0.0057-0.02982 0.0057-0.05374 4e-3 -0.02392 0.0062-0.044 0.0062-0.05995v-0.14366l0.01188-6.1707c0-0.27905 0.01174-0.49447 0.03566-0.64596 0.02392-0.15148 0.08416-0.26924 0.17984-0.35295 0.09567-0.0877 0.19896-0.14521 0.31058-0.17312 0.1156-0.0279 0.2953-0.05411 0.53847-0.07803 0.03588-0.03588 0.05374-0.08165 0.05374-0.13746 0-0.05979-0.01786-0.10778-0.05374-0.14366-0.19135 4e-3 -0.4146 0.01624-0.66973 0.03617-0.25513 0.01595-0.47277 0.02377-0.65216 0.02377-0.17939 0-0.3943-0.0078-0.64544-0.02377-0.25115-0.01992-0.4744-0.03217-0.66973-0.03617zm3.3486 0c-0.03189 0.03189-0.04806 0.07818-0.04806 0.13798 0 0.05581 0.01617 0.10328 0.04806 0.14314 0.45046 0.01595 0.73513 0.08401 0.85473 0.2036 0.12358 0.1156 0.18943 0.41866 0.1974 0.90899 0.03189 1.3594 0.04806 2.2379 0.04806 2.6365 0 0.37472-0.01617 1.2398-0.04806 2.5952-8e-3 0.49033-0.07383 0.7956-0.1974 0.91519-0.11959 0.1156-0.40427 0.18146-0.85473 0.1974-0.03189 0.03189-0.04806 0.07766-0.04806 0.13746 0 0.05581 0.01617 0.10328 0.04806 0.14314 0.17142 0 0.42257-0.0095 0.75344-0.02946 0.33087-0.01993 0.60994-0.02997 0.83716-0.02997 0.21925 0 0.49219 0.01004 0.81907 0.02997 0.32688 0.01993 0.57974 0.02946 0.75913 0.02946 0.09169-0.0877 0.09169-0.18094 0-0.2806-0.44648-0.01594-0.73336-0.0818-0.86093-0.1974-0.12756-0.11959-0.19512-0.42486-0.20309-0.91519-0.02392-0.98065-0.03617-1.8178-0.03617-2.5115 0.47039 0.01594 0.841 0.19172 1.1121 0.52658l1.9255 2.4216c0.2631 0.34682 0.41097 0.64205 0.44286 0.88522 0 0.04783 0.01956 0.07131 0.05943 0.07131 0.05581 0 0.1317-0.0095 0.22738-0.02946 0.09966-0.01993 0.21911-0.02997 0.35864-0.02997 0.16344 0 0.38669 0.01004 0.66973 0.02997 0.28303 0.01993 0.51462 0.02946 0.69401 0.02946 0.09169-0.0877 0.09169-0.18094 0-0.2806-0.50627-0.08372-0.907-0.30918-1.202-0.67593l-2.6851-3.1812c-0.10365-0.12358-0.15555-0.22516-0.15555-0.30489-4e-3 -0.10763 0.13776-0.3091 0.42478-0.6041l1.7999-1.8474c0.45046-0.48235 1.0064-0.76363 1.6681-0.84336 0.09169-0.0877 0.09169-0.18146 0-0.28112-0.17939 0-0.39651 0.01004-0.65164 0.02997-0.25114 0.01993-0.46214 0.02997-0.63355 0.02997-0.17142 0-0.41083-0.01004-0.71779-0.02997-0.30695-0.01993-0.55028-0.02997-0.72967-0.02997-0.03189 0.03189-0.04754 0.07818-0.04754 0.13798 0 0.05581 0.01565 0.10328 0.04754 0.14314 0.17142 0.01595 0.31486 0.0522 0.43047 0.108 0.1156 0.05182 0.19541 0.13554 0.23926 0.25115 0.04385 0.11162-0.0237 0.25676-0.20309 0.43615l-1.9616 2.1528c-0.29101 0.33087-0.66161 0.51226-1.1121 0.54415 0-0.65775 0.01225-1.4509 0.03617-2.3797 8e-3 -0.49033 0.07382-0.79338 0.1974-0.90899 0.12756-0.11959 0.41615-0.18766 0.86661-0.2036 0.09169-0.0877 0.09169-0.18146 0-0.28112-0.17142 0-0.42427 0.01004-0.75913 0.02997-0.33486 0.01993-0.61614 0.02997-0.84336 0.02997-0.21925 0-0.48997-0.01004-0.81287-0.02997-0.3229-0.01993-0.57405-0.02997-0.75344-0.02997zm33.521 0.23358c0.49033 0 0.89888 0.15348 1.2258 0.46044 0.32688 0.30695 0.49041 0.81879 0.49041 1.5363 0 1.2796-0.62007 1.9198-1.8598 1.9198-0.46641 0-0.78903-0.02008-0.96841-0.05995v-0.05994c-3e-6 -0.78532 0.0078-1.8553 0.02377-3.2107 8e-3 -0.19533 0.08778-0.34099 0.23926-0.43667 0.15148-0.09966 0.43446-0.14935 0.84904-0.14935zm-7.7913 0.92656h0.03566l1.1777 3.3967h-2.1885c-0.12757 0-0.21911-0.0223-0.27492-0.06615-0.05183-0.04385-0.06356-0.09745-0.03565-0.16123z" fill="#fff18d" stroke-width=".26458"/>
</svg>
