<?xml version="1.0" encoding="UTF-8" standalone="no"?>
<svg
   width="700"
   height="220"
   version="1.1"
   viewBox="0 0 185.21 58.208"
   id="svg88"
   sodipodi:docname="start-welcome-text.ru.svg"
   inkscape:version="1.1.2 (1:1.1+202202050942+0a00cf5339)"
   xmlns:inkscape="http://www.inkscape.org/namespaces/inkscape"
   xmlns:sodipodi="http://sodipodi.sourceforge.net/DTD/sodipodi-0.dtd"
   xmlns="http://www.w3.org/2000/svg"
   xmlns:svg="http://www.w3.org/2000/svg"
   xmlns:rdf="http://www.w3.org/1999/02/22-rdf-syntax-ns#"
   xmlns:cc="http://creativecommons.org/ns#"
   xmlns:dc="http://purl.org/dc/elements/1.1/">
  <defs
     id="defs92" />
  <sodipodi:namedview
     id="namedview90"
     pagecolor="#ffffff"
     bordercolor="#000000"
     borderopacity="0.25"
     inkscape:pageshadow="2"
     inkscape:pageopacity="0.0"
     inkscape:pagecheckerboard="0"
     showgrid="false"
     inkscape:zoom="1.6714286"
     inkscape:cx="350"
     inkscape:cy="110.08547"
     inkscape:window-width="2560"
     inkscape:window-height="1295"
     inkscape:window-x="0"
     inkscape:window-y="32"
     inkscape:window-maximized="1"
     inkscape:current-layer="g86" />
  <metadata
     id="metadata2">
    <rdf:RDF>
      <cc:Work
         rdf:about="">
        <dc:format>image/svg+xml</dc:format>
        <dc:type
           rdf:resource="http://purl.org/dc/dcmitype/StillImage" />
      </cc:Work>
    </rdf:RDF>
  </metadata>
  <g
     transform="translate(-18.958 -31.678)"
     id="g86"
     style="font-variation-settings:normal;opacity:1;vector-effect:none;fill:#cbe1fb;fill-opacity:1;stroke-width:0.12556513;stroke-linecap:butt;stroke-linejoin:miter;stroke-miterlimit:4;stroke-dasharray:none;stroke-dashoffset:0;stroke-opacity:1;-inkscape-stroke:none;stop-color:#000000;stop-opacity:1">
    <g
       fill="#386582"
       stroke-width=".30304"
       aria-label="Добро пожаловать!"
       id="g36"
       style="font-variation-settings:normal;vector-effect:none;fill:#cbe1fb;fill-opacity:1;stroke-width:0.12556513;stroke-linecap:butt;stroke-linejoin:miter;stroke-miterlimit:4;stroke-dasharray:none;stroke-dashoffset:0;stroke-opacity:1;-inkscape-stroke:none;stop-color:#000000;stop-opacity:1">
      <path
         d="m24.969 44.446h0.30304q0.35152-0.01212 0.6182-0.20607 0.26667-0.19394 0.47274-0.71517 0.20607-0.52122 0.36364-1.4303 0.15758-0.92123 0.29092-2.3637l0.21819-2.4243h5.2122v7.1396h1.2728v3.6122h-1.5637v-2.1455h-5.6123v2.1455h-1.5758zm5.8062 0v-5.6729h-2.0243l-0.12122 1.3091q-0.14546 1.6849-0.41213 2.7395-0.25455 1.0546-0.66668 1.6243z"
         id="path4"
         style="font-variation-settings:normal;vector-effect:none;fill:#cbe1fb;fill-opacity:1;stroke-width:0.12556513;stroke-linecap:butt;stroke-linejoin:miter;stroke-miterlimit:4;stroke-dasharray:none;stroke-dashoffset:0;stroke-opacity:1;-inkscape-stroke:none;stop-color:#000000;stop-opacity:1" />
      <path
         d="m37.478 46.034q-0.77578 0-1.394-0.26667-0.6182-0.26667-1.0546-0.71517-0.42425-0.46062-0.65456-1.0546-0.23031-0.59395-0.23031-1.2485 0-0.66668 0.23031-1.2606 0.23031-0.59395 0.65456-1.0424 0.43637-0.46062 1.0546-0.72729 0.6182-0.26667 1.394-0.26667t1.3819 0.26667q0.6182 0.26667 1.0424 0.72729 0.43637 0.4485 0.66668 1.0424 0.23031 0.59395 0.23031 1.2606 0 0.65456-0.23031 1.2485-0.23031 0.59395-0.65456 1.0546-0.42425 0.4485-1.0424 0.71517-0.6182 0.26667-1.394 0.26667zm-1.6606-3.2849q0 0.42425 0.12122 0.77578 0.13334 0.3394 0.35152 0.59395 0.23031 0.25455 0.53335 0.40001 0.30304 0.13334 0.65456 0.13334 0.35152 0 0.65456-0.13334 0.30304-0.14546 0.52122-0.40001 0.23031-0.25455 0.35152-0.60608 0.13334-0.35152 0.13334-0.77578 0-0.41213-0.13334-0.76365-0.12122-0.35152-0.35152-0.60608-0.21819-0.25455-0.52122-0.38789-0.30304-0.14546-0.65456-0.14546-0.35152 0-0.65456 0.14546-0.30304 0.14546-0.53335 0.40001-0.21819 0.25455-0.35152 0.60608-0.12122 0.35152-0.12122 0.76366z"
         id="path6"
         style="font-variation-settings:normal;vector-effect:none;fill:#cbe1fb;fill-opacity:1;stroke-width:0.12556513;stroke-linecap:butt;stroke-linejoin:miter;stroke-miterlimit:4;stroke-dasharray:none;stroke-dashoffset:0;stroke-opacity:1;-inkscape-stroke:none;stop-color:#000000;stop-opacity:1" />
      <path
         d="m45.03 38.846q-0.76365 0.1697-1.2122 0.65456-0.43637 0.48486-0.59395 1.394 0.37577-0.46062 0.90911-0.70305 0.53335-0.25455 1.2-0.25455 0.58183 0 1.0909 0.23031 0.5091 0.23031 0.88487 0.63032 0.38789 0.40001 0.60608 0.94548 0.23031 0.54547 0.23031 1.1758 0 0.65456-0.23031 1.2243-0.21819 0.56971-0.64244 0.99396-0.41213 0.41213-1.0182 0.65456t-1.3697 0.24243q-1.5758 0-2.3879-0.98184-0.81214-0.99396-0.81214-2.897 0-1.0788 0.20606-1.8788 0.20607-0.81214 0.6182-1.3697 0.42425-0.56971 1.0424-0.92123 0.63032-0.35152 1.4546-0.53335l2.3516-0.52122 0.10909 1.3697zm-1.6849 4.0365q0 0.40001 0.12122 0.72729 0.12122 0.32728 0.32728 0.56971 0.20607 0.23031 0.49698 0.36364 0.29092 0.13334 0.64244 0.13334 0.69093 0 1.1152-0.47274 0.42425-0.48486 0.42425-1.2728 0-0.72729-0.43637-1.1758-0.43637-0.46062-1.1515-0.46062-0.6788 0-1.1152 0.43637-0.42425 0.43637-0.42425 1.1515z"
         id="path8"
         style="font-variation-settings:normal;vector-effect:none;fill:#cbe1fb;fill-opacity:1;stroke-width:0.12556513;stroke-linecap:butt;stroke-linejoin:miter;stroke-miterlimit:4;stroke-dasharray:none;stroke-dashoffset:0;stroke-opacity:1;-inkscape-stroke:none;stop-color:#000000;stop-opacity:1" />
      <path
         d="m53.091 46.034q-0.75153 0-1.3091-0.32728-0.55759-0.3394-0.87275-0.90911v3.6971h-1.6243v-8.9335h1.4182v1.0909q0.35152-0.55759 0.90911-0.87275 0.55759-0.32728 1.2849-0.32728 0.64244 0 1.1879 0.26667 0.54547 0.25455 0.93336 0.70305 0.40001 0.43637 0.6182 1.0424 0.23031 0.59395 0.23031 1.2606 0 0.69092-0.20606 1.297-0.20607 0.60608-0.58183 1.0546-0.36364 0.4485-0.87275 0.70305-0.5091 0.25455-1.1152 0.25455zm-0.54547-1.3819q0.36364 0 0.66668-0.15758 0.31516-0.15758 0.53335-0.42425t0.3394-0.6182q0.12122-0.35152 0.12122-0.72729 0-0.40001-0.13334-0.73941-0.13334-0.35152-0.37577-0.60608-0.23031-0.25455-0.55759-0.40001-0.31516-0.14546-0.69093-0.14546-0.23031 0-0.47274 0.08485-0.24243 0.07273-0.4485 0.21819-0.20606 0.14546-0.37577 0.3394-0.15758 0.19394-0.24243 0.42425v1.4909q0.21819 0.54547 0.66668 0.90911 0.4485 0.35152 0.96972 0.35152z"
         id="path10"
         style="font-variation-settings:normal;vector-effect:none;fill:#cbe1fb;fill-opacity:1;stroke-width:0.12556513;stroke-linecap:butt;stroke-linejoin:miter;stroke-miterlimit:4;stroke-dasharray:none;stroke-dashoffset:0;stroke-opacity:1;-inkscape-stroke:none;stop-color:#000000;stop-opacity:1" />
      <path
         d="m59.891 46.034q-0.77578 0-1.394-0.26667-0.6182-0.26667-1.0546-0.71517-0.42425-0.46062-0.65456-1.0546-0.23031-0.59395-0.23031-1.2485 0-0.66668 0.23031-1.2606 0.23031-0.59395 0.65456-1.0424 0.43637-0.46062 1.0546-0.72729 0.6182-0.26667 1.394-0.26667t1.3819 0.26667q0.6182 0.26667 1.0424 0.72729 0.43637 0.4485 0.66668 1.0424 0.23031 0.59395 0.23031 1.2606 0 0.65456-0.23031 1.2485-0.23031 0.59395-0.65456 1.0546-0.42425 0.4485-1.0424 0.71517-0.6182 0.26667-1.394 0.26667zm-1.6606-3.2849q0 0.42425 0.12122 0.77578 0.13334 0.3394 0.35152 0.59395 0.23031 0.25455 0.53335 0.40001 0.30304 0.13334 0.65456 0.13334 0.35152 0 0.65456-0.13334 0.30304-0.14546 0.52122-0.40001 0.23031-0.25455 0.35152-0.60608 0.13334-0.35152 0.13334-0.77578 0-0.41213-0.13334-0.76365-0.12122-0.35152-0.35152-0.60608-0.21819-0.25455-0.52122-0.38789-0.30304-0.14546-0.65456-0.14546-0.35152 0-0.65456 0.14546-0.30304 0.14546-0.53335 0.40001-0.21819 0.25455-0.35152 0.60608-0.12122 0.35152-0.12122 0.76366z"
         id="path12"
         style="font-variation-settings:normal;vector-effect:none;fill:#cbe1fb;fill-opacity:1;stroke-width:0.12556513;stroke-linecap:butt;stroke-linejoin:miter;stroke-miterlimit:4;stroke-dasharray:none;stroke-dashoffset:0;stroke-opacity:1;-inkscape-stroke:none;stop-color:#000000;stop-opacity:1" />
      <path
         d="m31.09 61.679h-1.6122v-4.9456h-2.3394v4.9456h-1.6122v-6.3517h5.5638z"
         id="path14"
         style="font-variation-settings:normal;vector-effect:none;fill:#cbe1fb;fill-opacity:1;stroke-width:0.12556513;stroke-linecap:butt;stroke-linejoin:miter;stroke-miterlimit:4;stroke-dasharray:none;stroke-dashoffset:0;stroke-opacity:1;-inkscape-stroke:none;stop-color:#000000;stop-opacity:1" />
      <path
         d="m35.514 61.8q-0.77578 0-1.394-0.26667-0.6182-0.26667-1.0546-0.71517-0.42425-0.46062-0.65456-1.0546-0.23031-0.59395-0.23031-1.2485 0-0.66668 0.23031-1.2606 0.23031-0.59395 0.65456-1.0424 0.43637-0.46062 1.0546-0.72729 0.6182-0.26667 1.394-0.26667t1.3819 0.26667q0.6182 0.26667 1.0424 0.72729 0.43637 0.4485 0.66668 1.0424 0.23031 0.59395 0.23031 1.2606 0 0.65456-0.23031 1.2485-0.23031 0.59395-0.65456 1.0546-0.42425 0.4485-1.0424 0.71517-0.6182 0.26667-1.394 0.26667zm-1.6606-3.2849q0 0.42425 0.12122 0.77578 0.13334 0.3394 0.35152 0.59395 0.23031 0.25455 0.53335 0.40001 0.30304 0.13334 0.65456 0.13334 0.35152 0 0.65456-0.13334 0.30304-0.14546 0.52122-0.40001 0.23031-0.25455 0.35152-0.60608 0.13334-0.35152 0.13334-0.77578 0-0.41213-0.13334-0.76365-0.12122-0.35152-0.35152-0.60608-0.21819-0.25455-0.52122-0.38789-0.30304-0.14546-0.65456-0.14546-0.35152 0-0.65456 0.14546-0.30304 0.14546-0.53335 0.40001-0.21819 0.25455-0.35152 0.60608-0.12122 0.35152-0.12122 0.76366z"
         id="path16"
         style="font-variation-settings:normal;vector-effect:none;fill:#cbe1fb;fill-opacity:1;stroke-width:0.12556513;stroke-linecap:butt;stroke-linejoin:miter;stroke-miterlimit:4;stroke-dasharray:none;stroke-dashoffset:0;stroke-opacity:1;-inkscape-stroke:none;stop-color:#000000;stop-opacity:1" />
      <path
         d="m41.03 55.328 1.5758 2.5092h0.6182v-2.5092h1.6606v2.5092h0.63032l1.5637-2.5092h1.8303l-2.0485 3.0667 2.2425 3.2849h-1.9031l-1.5879-2.497h-0.72729v2.497h-1.6485v-2.497h-0.73941l-1.5879 2.497h-1.9031l2.2304-3.2849-2.0364-3.0667z"
         id="path18"
         style="font-variation-settings:normal;vector-effect:none;fill:#cbe1fb;fill-opacity:1;stroke-width:0.12556513;stroke-linecap:butt;stroke-linejoin:miter;stroke-miterlimit:4;stroke-dasharray:none;stroke-dashoffset:0;stroke-opacity:1;-inkscape-stroke:none;stop-color:#000000;stop-opacity:1" />
      <path
         d="m51.563 61.8q-0.46062 0-0.86063-0.14546-0.40001-0.15758-0.69092-0.42425-0.29092-0.2788-0.46062-0.64244-0.15758-0.36364-0.15758-0.80002 0-0.4485 0.19394-0.82426 0.20607-0.38789 0.55759-0.65456 0.36364-0.26667 0.86063-0.41213 0.49698-0.15758 1.0909-0.15758 0.42425 0 0.82426 0.07273 0.41213 0.07273 0.72729 0.20606v-0.36364q0-0.63032-0.36364-0.96972-0.35152-0.3394-1.0546-0.3394-0.5091 0-0.99396 0.18182-0.48486 0.18182-0.99396 0.53335l-0.49698-1.0303q1.2243-0.81214 2.6425-0.81214 1.3697 0 2.1213 0.6788 0.76366 0.66668 0.76366 1.9394v1.9758q0 0.25455 0.08485 0.36364 0.09697 0.10909 0.30304 0.12122v1.3819q-0.41213 0.08485-0.71517 0.08485-0.46062 0-0.71517-0.20607-0.24243-0.20606-0.30304-0.54547l-0.03636-0.35152q-0.42425 0.55759-1.0303 0.8485t-1.297 0.29092zm0.46062-1.1879q0.41213 0 0.77578-0.14546 0.37577-0.14546 0.58183-0.38789 0.26667-0.20606 0.26667-0.46062v-0.72729q-0.29092-0.10909-0.63032-0.1697-0.3394-0.07273-0.65456-0.07273-0.63032 0-1.0303 0.29092-0.40001 0.2788-0.40001 0.71517 0 0.41213 0.31516 0.69092 0.31516 0.26667 0.77578 0.26667z"
         id="path20"
         style="font-variation-settings:normal;vector-effect:none;fill:#cbe1fb;fill-opacity:1;stroke-width:0.12556513;stroke-linecap:butt;stroke-linejoin:miter;stroke-miterlimit:4;stroke-dasharray:none;stroke-dashoffset:0;stroke-opacity:1;-inkscape-stroke:none;stop-color:#000000;stop-opacity:1" />
      <path
         d="m56.169 60.297q0.35152-0.02424 0.56971-0.14546 0.23031-0.12122 0.37577-0.4485 0.15758-0.32728 0.25455-0.89699 0.10909-0.58183 0.21819-1.5152l0.21819-1.9637h4.4486v6.3517h-1.6122v-4.9941h-1.4182l-0.12122 0.9576q-0.14546 1.2-0.35152 1.9879-0.20606 0.77578-0.53335 1.2364-0.31516 0.46062-0.7879 0.65456-0.47274 0.18182-1.1637 0.20606z"
         id="path22"
         style="font-variation-settings:normal;vector-effect:none;fill:#cbe1fb;fill-opacity:1;stroke-width:0.12556513;stroke-linecap:butt;stroke-linejoin:miter;stroke-miterlimit:4;stroke-dasharray:none;stroke-dashoffset:0;stroke-opacity:1;-inkscape-stroke:none;stop-color:#000000;stop-opacity:1" />
      <path
         d="m66.691 61.8q-0.77578 0-1.394-0.26667-0.6182-0.26667-1.0546-0.71517-0.42425-0.46062-0.65456-1.0546-0.23031-0.59395-0.23031-1.2485 0-0.66668 0.23031-1.2606 0.23031-0.59395 0.65456-1.0424 0.43637-0.46062 1.0546-0.72729 0.6182-0.26667 1.394-0.26667t1.3819 0.26667q0.6182 0.26667 1.0424 0.72729 0.43637 0.4485 0.66668 1.0424 0.23031 0.59395 0.23031 1.2606 0 0.65456-0.23031 1.2485-0.23031 0.59395-0.65456 1.0546-0.42425 0.4485-1.0424 0.71517-0.6182 0.26667-1.394 0.26667zm-1.6606-3.2849q0 0.42425 0.12122 0.77578 0.13334 0.3394 0.35152 0.59395 0.23031 0.25455 0.53335 0.40001 0.30304 0.13334 0.65456 0.13334 0.35152 0 0.65456-0.13334 0.30304-0.14546 0.52122-0.40001 0.23031-0.25455 0.35152-0.60608 0.13334-0.35152 0.13334-0.77578 0-0.41213-0.13334-0.76365-0.12122-0.35152-0.35152-0.60608-0.21819-0.25455-0.52122-0.38789-0.30304-0.14546-0.65456-0.14546-0.35152 0-0.65456 0.14546-0.30304 0.14546-0.53335 0.40001-0.21819 0.25455-0.35152 0.60608-0.12122 0.35152-0.12122 0.76366z"
         id="path24"
         style="font-variation-settings:normal;vector-effect:none;fill:#cbe1fb;fill-opacity:1;stroke-width:0.12556513;stroke-linecap:butt;stroke-linejoin:miter;stroke-miterlimit:4;stroke-dasharray:none;stroke-dashoffset:0;stroke-opacity:1;-inkscape-stroke:none;stop-color:#000000;stop-opacity:1" />
      <path
         d="m74.897 55.328q0.35152 0 0.64244 0.13334 0.29092 0.12122 0.49698 0.3394 0.21819 0.21819 0.32728 0.5091 0.12122 0.29092 0.12122 0.6182 0 0.41213-0.21819 0.83638-0.21819 0.41213-0.71517 0.6182 0.55759 0.15758 0.87275 0.54547 0.32728 0.37577 0.32728 1.0303 0 0.87275-0.60608 1.297-0.60608 0.42425-1.6728 0.42425h-3.3334v-6.3517zm-0.76366 2.6546q0.3394 0 0.54547-0.19394 0.20606-0.19394 0.20606-0.55759 0-0.30304-0.18182-0.5091-0.1697-0.21819-0.52122-0.21819h-1.4303v1.4788zm0.21819 2.5213q0.35152 0 0.55759-0.23031 0.21819-0.23031 0.21819-0.55759 0-0.3394-0.20606-0.55759-0.20607-0.23031-0.55759-0.23031h-1.6122v1.5758z"
         id="path26"
         style="font-variation-settings:normal;vector-effect:none;fill:#cbe1fb;fill-opacity:1;stroke-width:0.12556513;stroke-linecap:butt;stroke-linejoin:miter;stroke-miterlimit:4;stroke-dasharray:none;stroke-dashoffset:0;stroke-opacity:1;-inkscape-stroke:none;stop-color:#000000;stop-opacity:1" />
      <path
         d="m79.588 61.8q-0.46062 0-0.86063-0.14546-0.40001-0.15758-0.69092-0.42425-0.29092-0.2788-0.46062-0.64244-0.15758-0.36364-0.15758-0.80002 0-0.4485 0.19394-0.82426 0.20607-0.38789 0.55759-0.65456 0.36364-0.26667 0.86063-0.41213 0.49698-0.15758 1.0909-0.15758 0.42425 0 0.82426 0.07273 0.41213 0.07273 0.72729 0.20606v-0.36364q0-0.63032-0.36364-0.96972-0.35152-0.3394-1.0546-0.3394-0.5091 0-0.99396 0.18182-0.48486 0.18182-0.99396 0.53335l-0.49698-1.0303q1.2243-0.81214 2.6425-0.81214 1.3697 0 2.1213 0.6788 0.76366 0.66668 0.76366 1.9394v1.9758q0 0.25455 0.08485 0.36364 0.09697 0.10909 0.30304 0.12122v1.3819q-0.41213 0.08485-0.71517 0.08485-0.46062 0-0.71517-0.20607-0.24243-0.20606-0.30304-0.54547l-0.03636-0.35152q-0.42425 0.55759-1.0303 0.8485t-1.297 0.29092zm0.46062-1.1879q0.41213 0 0.77578-0.14546 0.37577-0.14546 0.58183-0.38789 0.26667-0.20606 0.26667-0.46062v-0.72729q-0.29092-0.10909-0.63032-0.1697-0.3394-0.07273-0.65456-0.07273-0.63032 0-1.0303 0.29092-0.40001 0.2788-0.40001 0.71517 0 0.41213 0.31516 0.69092 0.31516 0.26667 0.77578 0.26667z"
         id="path28"
         style="font-variation-settings:normal;vector-effect:none;fill:#cbe1fb;fill-opacity:1;stroke-width:0.12556513;stroke-linecap:butt;stroke-linejoin:miter;stroke-miterlimit:4;stroke-dasharray:none;stroke-dashoffset:0;stroke-opacity:1;-inkscape-stroke:none;stop-color:#000000;stop-opacity:1" />
      <path
         d="m87.722 61.679h-1.6122v-4.9456h-1.9879v-1.4061h5.5759v1.4061h-1.9758z"
         id="path30"
         style="font-variation-settings:normal;vector-effect:none;fill:#cbe1fb;fill-opacity:1;stroke-width:0.12556513;stroke-linecap:butt;stroke-linejoin:miter;stroke-miterlimit:4;stroke-dasharray:none;stroke-dashoffset:0;stroke-opacity:1;-inkscape-stroke:none;stop-color:#000000;stop-opacity:1" />
      <path
         d="m90.667 55.328h1.6122v2.0122h1.2364q0.5091 0 0.94548 0.14546 0.4485 0.13334 0.77578 0.41213 0.32728 0.26667 0.5091 0.6788 0.19394 0.40001 0.19394 0.92123 0 0.53335-0.18182 0.94548-0.18182 0.40001-0.49698 0.6788-0.31516 0.2788-0.75153 0.42425-0.42425 0.13334-0.93336 0.13334h-2.9092zm2.7273 5.0789q0.42425 0 0.66668-0.21819 0.24243-0.23031 0.24243-0.66668t-0.25455-0.66668q-0.25455-0.24243-0.64244-0.24243h-1.1273v1.794z"
         id="path32"
         style="font-variation-settings:normal;vector-effect:none;fill:#cbe1fb;fill-opacity:1;stroke-width:0.12556513;stroke-linecap:butt;stroke-linejoin:miter;stroke-miterlimit:4;stroke-dasharray:none;stroke-dashoffset:0;stroke-opacity:1;-inkscape-stroke:none;stop-color:#000000;stop-opacity:1" />
      <path
         d="m97.237 58.443v-5.4547h1.6243v5.4547zm0 3.2364v-1.8303h1.6243v1.8303z"
         id="path34"
         style="font-variation-settings:normal;vector-effect:none;fill:#cbe1fb;fill-opacity:1;stroke-width:0.12556513;stroke-linecap:butt;stroke-linejoin:miter;stroke-miterlimit:4;stroke-dasharray:none;stroke-dashoffset:0;stroke-opacity:1;-inkscape-stroke:none;stop-color:#000000;stop-opacity:1" />
    </g>
    <g
       fill="#fff"
       stroke-width=".12556"
       aria-label="Давайте кое-что настроим…"
       id="g84"
       style="font-variation-settings:normal;vector-effect:none;fill:#cbe1fb;fill-opacity:1;stroke-width:0.125565;stroke-linecap:butt;stroke-linejoin:miter;stroke-miterlimit:4;stroke-dasharray:none;stroke-dashoffset:0;stroke-opacity:1;-inkscape-stroke:none;stop-color:#000000;stop-opacity:1"
       transform="translate(11.1126,-14.28763)">
      <path
         d="m 24.629,83.524 h 0.12556 q 0.14566,-0.005 0.25615,-0.08538 0.1105,-0.08036 0.19588,-0.29633 0.08538,-0.21597 0.15068,-0.59267 0.06529,-0.38172 0.12054,-0.9794 l 0.09041,-1.0045 h 2.1597 v 2.9583 h 0.52737 v 1.4967 h -0.64792 v -0.889 h -2.3255 v 0.889 h -0.65294 z m 2.4058,0 v -2.3506 h -0.83877 l -0.05023,0.54244 q -0.06027,0.69814 -0.17077,1.1351 -0.10548,0.43697 -0.27624,0.67303 z"
         id="path38"
         style="font-variation-settings:normal;vector-effect:none;fill:#cbe1fb;fill-opacity:1;stroke-width:0.125565;stroke-linecap:butt;stroke-linejoin:miter;stroke-miterlimit:4;stroke-dasharray:none;stroke-dashoffset:0;stroke-opacity:1;-inkscape-stroke:none;stop-color:#000000;stop-opacity:1" />
      <path
         d="m 29.371,84.182 q -0.19086,0 -0.3566,-0.06027 -0.16575,-0.06529 -0.28629,-0.17579 -0.12054,-0.11552 -0.19086,-0.2662 -0.06529,-0.15068 -0.06529,-0.33149 0,-0.18584 0.08036,-0.34154 0.08538,-0.16072 0.23104,-0.27122 0.15068,-0.1105 0.3566,-0.17077 0.20593,-0.06529 0.45203,-0.06529 0.17579,0 0.34154,0.03014 0.17077,0.03014 0.30136,0.08538 v -0.15068 q 0,-0.26118 -0.15068,-0.40181 -0.14566,-0.14063 -0.43696,-0.14063 -0.21095,0 -0.41185,0.07534 -0.2009,0.07534 -0.41185,0.22099 l -0.20593,-0.42692 q 0.50728,-0.33651 1.0949,-0.33651 0.56755,0 0.87895,0.28126 0.31642,0.27624 0.31642,0.80362 v 0.81868 q 0,0.10547 0.03516,0.15068 0.04018,0.0452 0.12556,0.05023 v 0.57258 q -0.17077,0.03516 -0.29633,0.03516 -0.19086,0 -0.29633,-0.08538 -0.10045,-0.08538 -0.12556,-0.22602 L 30.33532,83.70988 Q 30.15953,83.94092 29.9084,84.06146 29.65727,84.182 29.37098,84.182 Z m 0.19086,-0.49221 q 0.17077,0 0.32145,-0.06027 0.1557,-0.06027 0.24108,-0.16072 0.1105,-0.08538 0.1105,-0.19086 v -0.30136 q -0.12054,-0.0452 -0.26118,-0.07032 -0.14063,-0.03014 -0.27122,-0.03014 -0.26117,0 -0.42692,0.12054 -0.16574,0.11552 -0.16574,0.29633 0,0.17077 0.13059,0.28629 0.13059,0.1105 0.32145,0.1105 z"
         id="path40"
         style="font-variation-settings:normal;vector-effect:none;fill:#cbe1fb;fill-opacity:1;stroke-width:0.125565;stroke-linecap:butt;stroke-linejoin:miter;stroke-miterlimit:4;stroke-dasharray:none;stroke-dashoffset:0;stroke-opacity:1;-inkscape-stroke:none;stop-color:#000000;stop-opacity:1" />
      <path
         d="m 33.118,81.5 q 0.14566,0 0.2662,0.05525 0.12054,0.05023 0.20593,0.14063 0.09041,0.09041 0.13561,0.21095 0.05023,0.12054 0.05023,0.25615 0,0.17077 -0.09041,0.34656 -0.09041,0.17077 -0.29633,0.25615 0.23104,0.06529 0.36163,0.22602 0.13561,0.1557 0.13561,0.42692 0,0.36163 -0.25113,0.53742 -0.25113,0.17579 -0.69312,0.17579 h -1.3812 v -2.6318 z m -0.31642,1.0999 q 0.14063,0 0.22602,-0.08036 0.08538,-0.08036 0.08538,-0.23104 0,-0.12556 -0.07534,-0.21095 -0.07032,-0.09041 -0.21597,-0.09041 H 32.229 v 0.61276 z m 0.09041,1.0447 q 0.14566,0 0.23104,-0.09543 0.09041,-0.09543 0.09041,-0.23104 0,-0.14063 -0.08538,-0.23104 -0.08539,-0.09543 -0.23104,-0.09543 h -0.668 v 0.65294 z"
         id="path42"
         style="font-variation-settings:normal;vector-effect:none;fill:#cbe1fb;fill-opacity:1;stroke-width:0.125565;stroke-linecap:butt;stroke-linejoin:miter;stroke-miterlimit:4;stroke-dasharray:none;stroke-dashoffset:0;stroke-opacity:1;-inkscape-stroke:none;stop-color:#000000;stop-opacity:1" />
      <path
         d="m 35.061,84.182 q -0.19086,0 -0.3566,-0.06027 -0.16574,-0.06529 -0.28629,-0.17579 -0.12054,-0.11552 -0.19086,-0.2662 -0.06529,-0.15068 -0.06529,-0.33149 0,-0.18584 0.08036,-0.34154 0.08538,-0.16072 0.23104,-0.27122 0.15068,-0.1105 0.3566,-0.17077 0.20593,-0.06529 0.45203,-0.06529 0.17579,0 0.34154,0.03014 0.17077,0.03014 0.30136,0.08538 v -0.15068 q 0,-0.26118 -0.15068,-0.40181 -0.14566,-0.14063 -0.43696,-0.14063 -0.21095,0 -0.41185,0.07534 -0.2009,0.07534 -0.41185,0.22099 l -0.20593,-0.42692 q 0.50728,-0.33651 1.0949,-0.33651 0.56755,0 0.87895,0.28126 0.31642,0.27624 0.31642,0.80362 v 0.81868 q 0,0.10547 0.03516,0.15068 0.04018,0.0452 0.12556,0.05023 v 0.57258 q -0.17077,0.03516 -0.29633,0.03516 -0.19086,0 -0.29633,-0.08538 -0.10045,-0.08538 -0.12556,-0.22602 L 36.02532,83.70988 Q 35.84953,83.94092 35.5984,84.06146 35.34727,84.182 35.06098,84.182 Z m 0.19086,-0.49221 q 0.17077,0 0.32144,-0.06027 0.1557,-0.06027 0.24108,-0.16072 0.1105,-0.08538 0.1105,-0.19086 v -0.30136 q -0.12054,-0.0452 -0.26118,-0.07032 -0.14063,-0.03014 -0.27122,-0.03014 -0.26117,0 -0.42692,0.12054 -0.16574,0.11552 -0.16574,0.29633 0,0.17077 0.13059,0.28629 0.13059,0.1105 0.32145,0.1105 z"
         id="path44"
         style="font-variation-settings:normal;vector-effect:none;fill:#cbe1fb;fill-opacity:1;stroke-width:0.125565;stroke-linecap:butt;stroke-linejoin:miter;stroke-miterlimit:4;stroke-dasharray:none;stroke-dashoffset:0;stroke-opacity:1;-inkscape-stroke:none;stop-color:#000000;stop-opacity:1" />
      <path
         d="m 39.331,80.465 q -0.01004,0.31642 -0.23606,0.49724 -0.22602,0.17579 -0.59267,0.17579 -0.36665,0 -0.59267,-0.17579 -0.22602,-0.18081 -0.23606,-0.49724 h 0.37167 q 0.005,0.19086 0.12054,0.28126 0.12054,0.09041 0.33651,0.09041 0.43194,0 0.46208,-0.37167 z m -1.4164,2.7072 1.2456,-1.6725 h 0.49724 v 2.6318 h -0.668 v -1.6273 l -1.2305,1.6273 h -0.5123 v -2.6318 h 0.668 z"
         id="path46"
         style="font-variation-settings:normal;vector-effect:none;fill:#cbe1fb;fill-opacity:1;stroke-width:0.125565;stroke-linecap:butt;stroke-linejoin:miter;stroke-miterlimit:4;stroke-dasharray:none;stroke-dashoffset:0;stroke-opacity:1;-inkscape-stroke:none;stop-color:#000000;stop-opacity:1" />
      <path
         d="m 41.551,84.131 h -0.668 v -2.0492 h -0.8237 v -0.58262 h 2.3104 v 0.58262 h -0.81868 z"
         id="path48"
         style="font-variation-settings:normal;vector-effect:none;fill:#cbe1fb;fill-opacity:1;stroke-width:0.125565;stroke-linecap:butt;stroke-linejoin:miter;stroke-miterlimit:4;stroke-dasharray:none;stroke-dashoffset:0;stroke-opacity:1;-inkscape-stroke:none;stop-color:#000000;stop-opacity:1" />
      <path
         d="m 43.856,84.182 q -0.31642,0 -0.57258,-0.10548 -0.25615,-0.1105 -0.43697,-0.29633 -0.18081,-0.18584 -0.28126,-0.43194 -0.09543,-0.24611 -0.09543,-0.51733 0,-0.28126 0.09543,-0.52737 0.09543,-0.25113 0.27624,-0.43696 0.18081,-0.19086 0.43696,-0.30136 0.26118,-0.1105 0.58262,-0.1105 0.32145,0 0.57258,0.1105 0.25615,0.1105 0.43194,0.29633 0.18081,0.18584 0.27122,0.43194 0.09543,0.24611 0.09543,0.5123 0,0.06529 -0.005,0.12556 0,0.06027 -0.01004,0.10045 h -2.0341 q 0.01507,0.1557 0.07534,0.27624 0.06027,0.12054 0.1557,0.20593 0.09543,0.08538 0.21597,0.13059 0.12054,0.0452 0.25113,0.0452 0.2009,0 0.37669,-0.09543 0.18081,-0.10045 0.24611,-0.26118 l 0.5776,0.16072 q -0.14566,0.30136 -0.4671,0.49724 -0.31642,0.19086 -0.75841,0.19086 z m 0.68307,-1.5871 q -0.02511,-0.29633 -0.22099,-0.47212 -0.19086,-0.18081 -0.4671,-0.18081 -0.13561,0 -0.25615,0.05022 -0.11552,0.0452 -0.20593,0.13059 -0.09041,0.08538 -0.15068,0.20593 -0.05525,0.12054 -0.06529,0.2662 z"
         id="path50"
         style="font-variation-settings:normal;vector-effect:none;fill:#cbe1fb;fill-opacity:1;stroke-width:0.125565;stroke-linecap:butt;stroke-linejoin:miter;stroke-miterlimit:4;stroke-dasharray:none;stroke-dashoffset:0;stroke-opacity:1;-inkscape-stroke:none;stop-color:#000000;stop-opacity:1" />
      <path
         d="m 48.472,81.5 h 0.72325 l -1.0246,1.2757 1.105,1.3561 h -0.76343 l -0.81366,-1.0146 h -0.17579 v 1.0146 H 46.85979 V 81.5 h 0.66298 v 1.0447 h 0.15068 z"
         id="path52"
         style="font-variation-settings:normal;vector-effect:none;fill:#cbe1fb;fill-opacity:1;stroke-width:0.125565;stroke-linecap:butt;stroke-linejoin:miter;stroke-miterlimit:4;stroke-dasharray:none;stroke-dashoffset:0;stroke-opacity:1;-inkscape-stroke:none;stop-color:#000000;stop-opacity:1" />
      <path
         d="m 50.672,84.182 q -0.32145,0 -0.5776,-0.1105 -0.25615,-0.1105 -0.43697,-0.29633 -0.17579,-0.19086 -0.27122,-0.43696 -0.09543,-0.24611 -0.09543,-0.51733 0,-0.27624 0.09543,-0.52235 0.09543,-0.24611 0.27122,-0.43194 0.18081,-0.19086 0.43697,-0.30136 0.25616,-0.1105 0.5776,-0.1105 0.32144,0 0.57258,0.1105 0.25615,0.1105 0.43194,0.30136 0.18081,0.18584 0.27624,0.43194 0.09543,0.24611 0.09543,0.52235 0,0.27122 -0.09543,0.51733 -0.09543,0.24611 -0.27122,0.43696 -0.17579,0.18584 -0.43194,0.29633 -0.25615,0.1105 -0.5776,0.1105 z m -0.6881,-1.3611 q 0,0.17579 0.05023,0.32145 0.05525,0.14063 0.14566,0.24611 0.09543,0.10548 0.22099,0.16575 0.12556,0.05525 0.27122,0.05525 0.14566,0 0.27122,-0.05525 0.12556,-0.06027 0.21597,-0.16575 0.09543,-0.10547 0.14566,-0.25113 0.05525,-0.14566 0.05525,-0.32145 0,-0.17077 -0.05525,-0.31642 -0.05023,-0.14566 -0.14566,-0.25113 -0.09041,-0.10548 -0.21597,-0.16072 -0.12556,-0.06027 -0.27122,-0.06027 -0.14566,0 -0.27122,0.06027 -0.12556,0.06027 -0.22099,0.16574 -0.09041,0.10548 -0.14566,0.25113 -0.05023,0.14566 -0.05023,0.31642 z"
         id="path54"
         style="font-variation-settings:normal;vector-effect:none;fill:#cbe1fb;fill-opacity:1;stroke-width:0.125565;stroke-linecap:butt;stroke-linejoin:miter;stroke-miterlimit:4;stroke-dasharray:none;stroke-dashoffset:0;stroke-opacity:1;-inkscape-stroke:none;stop-color:#000000;stop-opacity:1" />
      <path
         d="m 53.72,84.182 q -0.31642,0 -0.57258,-0.10548 -0.25615,-0.1105 -0.43696,-0.29633 -0.18081,-0.18584 -0.28127,-0.43194 -0.09543,-0.24611 -0.09543,-0.51733 0,-0.28126 0.09543,-0.52737 0.09543,-0.25113 0.27624,-0.43696 0.18081,-0.19086 0.43696,-0.30136 0.26118,-0.1105 0.58262,-0.1105 0.32144,0 0.57258,0.1105 0.25615,0.1105 0.43194,0.29633 0.18081,0.18584 0.27122,0.43194 0.09543,0.24611 0.09543,0.5123 0,0.06529 -0.005,0.12556 0,0.06027 -0.01004,0.10045 h -2.0341 q 0.01507,0.1557 0.07534,0.27624 0.06027,0.12054 0.1557,0.20593 0.09543,0.08538 0.21597,0.13059 0.12054,0.0452 0.25113,0.0452 0.2009,0 0.37669,-0.09543 0.18081,-0.10045 0.24611,-0.26118 l 0.5776,0.16072 q -0.14566,0.30136 -0.4671,0.49724 -0.31642,0.19086 -0.75841,0.19086 z m 0.68307,-1.5871 q -0.02511,-0.29633 -0.22099,-0.47212 -0.19086,-0.18081 -0.4671,-0.18081 -0.13561,0 -0.25615,0.05022 -0.11552,0.0452 -0.20593,0.13059 -0.09041,0.08538 -0.15068,0.20593 -0.05525,0.12054 -0.06529,0.2662 z"
         id="path56"
         style="font-variation-settings:normal;vector-effect:none;fill:#cbe1fb;fill-opacity:1;stroke-width:0.125565;stroke-linecap:butt;stroke-linejoin:miter;stroke-miterlimit:4;stroke-dasharray:none;stroke-dashoffset:0;stroke-opacity:1;-inkscape-stroke:none;stop-color:#000000;stop-opacity:1" />
      <path
         d="m 55.493,83.057 v -0.60773 h 1.5218 V 83.057 Z"
         id="path58"
         style="font-variation-settings:normal;vector-effect:none;fill:#cbe1fb;fill-opacity:1;stroke-width:0.125565;stroke-linecap:butt;stroke-linejoin:miter;stroke-miterlimit:4;stroke-dasharray:none;stroke-dashoffset:0;stroke-opacity:1;-inkscape-stroke:none;stop-color:#000000;stop-opacity:1" />
      <path
         d="m 59.506,84.131 h -0.65796 v -0.93922 q -0.11552,0.04018 -0.24108,0.06027 -0.12054,0.02009 -0.30638,0.02009 -0.22602,0 -0.39176,-0.07032 -0.16574,-0.07534 -0.27624,-0.19588 -0.1105,-0.12556 -0.16575,-0.29131 -0.05525,-0.16574 -0.05525,-0.3566 v -0.85886 h 0.64791 v 0.75841 q 0,0.26117 0.10547,0.37167 0.10548,0.1105 0.29633,0.1105 0.14063,0 0.23104,-0.02511 0.09543,-0.03014 0.1557,-0.07534 v -1.1401 h 0.65796 z"
         id="path60"
         style="font-variation-settings:normal;vector-effect:none;fill:#cbe1fb;fill-opacity:1;stroke-width:0.125565;stroke-linecap:butt;stroke-linejoin:miter;stroke-miterlimit:4;stroke-dasharray:none;stroke-dashoffset:0;stroke-opacity:1;-inkscape-stroke:none;stop-color:#000000;stop-opacity:1" />
      <path
         d="m 61.4,84.131 h -0.668 v -2.0492 h -0.8237 v -0.58262 h 2.3104 v 0.58262 h -0.81868 z"
         id="path62"
         style="font-variation-settings:normal;vector-effect:none;fill:#cbe1fb;fill-opacity:1;stroke-width:0.125565;stroke-linecap:butt;stroke-linejoin:miter;stroke-miterlimit:4;stroke-dasharray:none;stroke-dashoffset:0;stroke-opacity:1;-inkscape-stroke:none;stop-color:#000000;stop-opacity:1" />
      <path
         d="m 63.7,84.182 q -0.32144,0 -0.5776,-0.1105 -0.25615,-0.1105 -0.43696,-0.29633 -0.17579,-0.19086 -0.27122,-0.43696 -0.09543,-0.24611 -0.09543,-0.51733 0,-0.27624 0.09543,-0.52235 0.09543,-0.24611 0.27122,-0.43194 0.18081,-0.19086 0.43696,-0.30136 0.25615,-0.1105 0.5776,-0.1105 0.32145,0 0.57258,0.1105 0.25615,0.1105 0.43194,0.30136 0.18081,0.18584 0.27624,0.43194 0.09543,0.24611 0.09543,0.52235 0,0.27122 -0.09543,0.51733 -0.09543,0.24611 -0.27122,0.43696 -0.17579,0.18584 -0.43194,0.29633 -0.25615,0.11049 -0.5776,0.1105 z m -0.6881,-1.3611 q 0,0.17579 0.05023,0.32145 0.05525,0.14063 0.14566,0.24611 0.09543,0.10548 0.22099,0.16575 0.12556,0.05525 0.27122,0.05525 0.14566,0 0.27122,-0.05525 0.12556,-0.06027 0.21597,-0.16575 0.09543,-0.10547 0.14566,-0.25113 0.05525,-0.14566 0.05525,-0.32145 0,-0.17077 -0.05525,-0.31642 Q 64.28262,82.3538 64.18719,82.24833 64.09678,82.14285 63.97122,82.08761 63.84566,82.02734 63.7,82.02734 q -0.14566,0 -0.27122,0.06027 -0.12556,0.06027 -0.22099,0.16574 -0.09041,0.10548 -0.14566,0.25113 -0.05023,0.14566 -0.05023,0.31642 z"
         id="path64"
         style="font-variation-settings:normal;vector-effect:none;fill:#cbe1fb;fill-opacity:1;stroke-width:0.125565;stroke-linecap:butt;stroke-linejoin:miter;stroke-miterlimit:4;stroke-dasharray:none;stroke-dashoffset:0;stroke-opacity:1;-inkscape-stroke:none;stop-color:#000000;stop-opacity:1" />
      <path
         d="m 67.412,82.494 h 1.0447 v -0.99447 h 0.668 v 2.6318 h -0.668 v -1.0648 H 67.412 v 1.0648 h -0.668 v -2.6318 h 0.668 z"
         id="path66"
         style="font-variation-settings:normal;vector-effect:none;fill:#cbe1fb;fill-opacity:1;stroke-width:0.125565;stroke-linecap:butt;stroke-linejoin:miter;stroke-miterlimit:4;stroke-dasharray:none;stroke-dashoffset:0;stroke-opacity:1;-inkscape-stroke:none;stop-color:#000000;stop-opacity:1" />
      <path
         d="m 70.46,84.182 q -0.19086,0 -0.3566,-0.06027 -0.16574,-0.06529 -0.28629,-0.17579 -0.12054,-0.11552 -0.19086,-0.2662 -0.06529,-0.15068 -0.06529,-0.33149 0,-0.18584 0.08036,-0.34154 0.08538,-0.16072 0.23104,-0.27122 0.15068,-0.1105 0.3566,-0.17077 0.20593,-0.06529 0.45203,-0.06529 0.17579,0 0.34154,0.03014 0.17077,0.03014 0.30136,0.08538 v -0.15068 q 0,-0.26118 -0.15068,-0.40181 -0.14566,-0.14063 -0.43696,-0.14063 -0.21095,0 -0.41185,0.07534 -0.2009,0.07534 -0.41185,0.22099 l -0.20593,-0.42693 q 0.50728,-0.33651 1.0949,-0.33651 0.56755,0 0.87895,0.28126 0.31642,0.27624 0.31642,0.80362 v 0.81868 q 0,0.10547 0.03516,0.15068 0.04018,0.0452 0.12556,0.05023 v 0.57258 q -0.17077,0.03516 -0.29633,0.03516 -0.19086,0 -0.29633,-0.08538 -0.10045,-0.08538 -0.12556,-0.22602 l -0.01507,-0.14566 q -0.17579,0.23104 -0.42692,0.35158 -0.25113,0.12054 -0.53742,0.12054 z m 0.19086,-0.49221 q 0.17077,0 0.32145,-0.06027 0.1557,-0.06027 0.24108,-0.16072 0.1105,-0.08538 0.1105,-0.19086 v -0.30136 q -0.12054,-0.0452 -0.26118,-0.07032 -0.14063,-0.03014 -0.27122,-0.03014 -0.26118,0 -0.42692,0.12054 -0.16575,0.11552 -0.16575,0.29633 0,0.17077 0.13059,0.28629 0.13059,0.1105 0.32144,0.1105 z"
         id="path68"
         style="font-variation-settings:normal;vector-effect:none;fill:#cbe1fb;fill-opacity:1;stroke-width:0.125565;stroke-linecap:butt;stroke-linejoin:miter;stroke-miterlimit:4;stroke-dasharray:none;stroke-dashoffset:0;stroke-opacity:1;-inkscape-stroke:none;stop-color:#000000;stop-opacity:1" />
      <path
         d="m 72.469,82.816 q 0,-0.27624 0.09543,-0.52235 0.09543,-0.24611 0.27624,-0.43194 0.18081,-0.18584 0.43697,-0.29633 0.25616,-0.11049 0.5776,-0.1105 0.43194,0 0.7333,0.18584 0.30638,0.18584 0.45706,0.48719 l -0.65796,0.2009 q -0.08538,-0.14566 -0.22602,-0.22099 -0.14063,-0.08036 -0.3114,-0.08036 -0.14566,0 -0.27122,0.06027 -0.12556,0.05525 -0.22099,0.16072 -0.09041,0.10045 -0.14566,0.24611 -0.05023,0.14566 -0.05023,0.32145 0,0.17579 0.05525,0.32145 0.05525,0.14566 0.14566,0.25113 0.09543,0.10548 0.22099,0.16575 0.12556,0.05525 0.2662,0.05525 0.18081,0 0.33149,-0.09041 0.1557,-0.09041 0.21597,-0.22099 l 0.65796,0.2009 q -0.13561,0.30136 -0.44701,0.49221 -0.3114,0.19086 -0.74837,0.19086 -0.32145,0 -0.5776,-0.1105 -0.25615,-0.1105 -0.43696,-0.29633 -0.18081,-0.19086 -0.28126,-0.43696 -0.09543,-0.25113 -0.09543,-0.52235 z"
         id="path70"
         style="font-variation-settings:normal;vector-effect:none;fill:#cbe1fb;fill-opacity:1;stroke-width:0.125565;stroke-linecap:butt;stroke-linejoin:miter;stroke-miterlimit:4;stroke-dasharray:none;stroke-dashoffset:0;stroke-opacity:1;-inkscape-stroke:none;stop-color:#000000;stop-opacity:1" />
      <path
         d="m 76.739,84.131 h -0.668 v -2.0492 h -0.8237 v -0.58262 h 2.3104 v 0.58262 h -0.81868 z"
         id="path72"
         style="font-variation-settings:normal;vector-effect:none;fill:#cbe1fb;fill-opacity:1;stroke-width:0.125565;stroke-linecap:butt;stroke-linejoin:miter;stroke-miterlimit:4;stroke-dasharray:none;stroke-dashoffset:0;stroke-opacity:1;-inkscape-stroke:none;stop-color:#000000;stop-opacity:1" />
      <path
         d="m 79.536,84.182 q -0.3114,0 -0.54244,-0.13561 -0.23104,-0.14063 -0.36163,-0.37669 v 1.5319 H 77.9589 V 81.5 h 0.58764 v 0.45203 q 0.14566,-0.23104 0.37669,-0.36163 0.23104,-0.13561 0.5324,-0.13561 0.2662,0 0.49221,0.1105 0.22602,0.10548 0.38674,0.29131 0.16574,0.18081 0.25615,0.43194 0.09543,0.24611 0.09543,0.52235 0,0.28629 -0.08538,0.53742 -0.08538,0.25113 -0.24108,0.43696 -0.15068,0.18584 -0.36163,0.29131 -0.21095,0.10548 -0.46208,0.10548 z m -0.22602,-0.57258 q 0.15068,0 0.27624,-0.06529 0.13059,-0.06529 0.22099,-0.17579 0.09041,-0.1105 0.14063,-0.25615 0.05023,-0.14566 0.05023,-0.30136 0,-0.16575 -0.05525,-0.30638 -0.05525,-0.14566 -0.1557,-0.25113 -0.09543,-0.10547 -0.23104,-0.16574 -0.13059,-0.06027 -0.28629,-0.06027 -0.09543,0 -0.19588,0.03516 -0.10045,0.03014 -0.18584,0.09041 -0.08538,0.06027 -0.1557,0.14063 -0.06529,0.08036 -0.10045,0.17579 v 0.61778 q 0.09041,0.22602 0.27624,0.37669 0.18584,0.14566 0.40181,0.14566 z"
         id="path74"
         style="font-variation-settings:normal;vector-effect:none;fill:#cbe1fb;fill-opacity:1;stroke-width:0.125565;stroke-linecap:butt;stroke-linejoin:miter;stroke-miterlimit:4;stroke-dasharray:none;stroke-dashoffset:0;stroke-opacity:1;-inkscape-stroke:none;stop-color:#000000;stop-opacity:1" />
      <path
         d="m 82.354,84.182 q -0.32145,0 -0.5776,-0.1105 -0.25615,-0.1105 -0.43696,-0.29633 -0.17579,-0.19086 -0.27122,-0.43696 -0.09543,-0.24611 -0.09543,-0.51733 0,-0.27624 0.09543,-0.52235 0.09543,-0.24611 0.27122,-0.43194 0.18081,-0.19086 0.43696,-0.30136 0.25615,-0.1105 0.5776,-0.1105 0.32145,0 0.57258,0.1105 0.25615,0.1105 0.43194,0.30136 0.18081,0.18584 0.27624,0.43194 0.09543,0.24611 0.09543,0.52235 0,0.27122 -0.09543,0.51733 -0.09543,0.24611 -0.27122,0.43696 -0.17579,0.18584 -0.43194,0.29633 -0.25615,0.11049 -0.5776,0.1105 z m -0.6881,-1.3611 q 0,0.17579 0.05023,0.32145 0.05525,0.14063 0.14566,0.24611 0.09543,0.10548 0.22099,0.16575 0.12556,0.05525 0.27122,0.05525 0.14566,0 0.27122,-0.05525 0.12556,-0.06027 0.21597,-0.16575 0.09543,-0.10547 0.14566,-0.25113 0.05525,-0.14566 0.05525,-0.32145 0,-0.17077 -0.05525,-0.31642 -0.05022,-0.14566 -0.14566,-0.25113 -0.09041,-0.10548 -0.21597,-0.16072 -0.12556,-0.06027 -0.27122,-0.06027 -0.14566,0 -0.27122,0.06027 -0.12556,0.06027 -0.22099,0.16574 -0.09041,0.10548 -0.14566,0.25113 -0.05023,0.14566 -0.05023,0.31642 z"
         id="path76"
         style="font-variation-settings:normal;vector-effect:none;fill:#cbe1fb;fill-opacity:1;stroke-width:0.125565;stroke-linecap:butt;stroke-linejoin:miter;stroke-miterlimit:4;stroke-dasharray:none;stroke-dashoffset:0;stroke-opacity:1;-inkscape-stroke:none;stop-color:#000000;stop-opacity:1" />
      <path
         d="m 84.86,83.172 1.2456,-1.6725 h 0.49724 v 2.6318 h -0.668 V 82.504 l -1.2305,1.6273 h -0.5123 v -2.6318 h 0.668 z"
         id="path78"
         style="font-variation-settings:normal;vector-effect:none;fill:#cbe1fb;fill-opacity:1;stroke-width:0.125565;stroke-linecap:butt;stroke-linejoin:miter;stroke-miterlimit:4;stroke-dasharray:none;stroke-dashoffset:0;stroke-opacity:1;-inkscape-stroke:none;stop-color:#000000;stop-opacity:1" />
      <path
         d="m 88.708,82.901 0.7785,-1.4013 h 0.6881 v 2.6318 h -0.64289 v -1.5821 l -0.668,1.1853 h -0.31642 l -0.668,-1.1853 v 1.5821 H 87.2364 v -2.6318 h 0.69312 z"
         id="path80"
         style="font-variation-settings:normal;vector-effect:none;fill:#cbe1fb;fill-opacity:1;stroke-width:0.125565;stroke-linecap:butt;stroke-linejoin:miter;stroke-miterlimit:4;stroke-dasharray:none;stroke-dashoffset:0;stroke-opacity:1;-inkscape-stroke:none;stop-color:#000000;stop-opacity:1" />
      <path
         d="m 90.782,84.131 v -0.72325 h 0.55248 V 84.131 Z m 0.94425,0 v -0.72325 h 0.55248 V 84.131 Z m 0.94425,0 v -0.72325 h 0.55248 V 84.131 Z"
         id="path82"
         style="font-variation-settings:normal;vector-effect:none;fill:#cbe1fb;fill-opacity:1;stroke-width:0.125565;stroke-linecap:butt;stroke-linejoin:miter;stroke-miterlimit:4;stroke-dasharray:none;stroke-dashoffset:0;stroke-opacity:1;-inkscape-stroke:none;stop-color:#000000;stop-opacity:1" />
    </g>
  </g>
</svg>
