<?xml version="1.0" encoding="UTF-8"?>
<svg width="2" height="2" xmlns="http://www.w3.org/2000/svg">
<path style="fill:none;fill-rule:evenodd;stroke:#000000;stroke-width:0.5;stroke-opacity:1.0" d="M 0.13310334211318184 0.7642419750307946 L 0.14292140438521303 0.7665140300963802 L 0.14587226257717714 0.7702675672300592 L 0.14918351468279328 0.7736359991217444 L 0.15397704622831454 0.7757600865220426 L 0.1579067233103216 0.7750656360228713 L 0.16432876527949375 0.7735871182609722 L 0.16705848325860895 0.7721058362678739 L 0.17215301444030548 0.7695312150233897 L 0.1771042646979142 0.7666450931803757 L 0.1785206733578248 0.7627737852692635 L 0.1802398283321153 0.7585249500194564 L 0.18130666459912795 0.7550578785137435 L 0.1828859391607528 0.7518241943542633 L 0.18517766531348237 0.7468295883830831 L 0.19024692655575565 0.7435800011382936 L 0.1963140889596954 0.7407724435505086 L 0.2019043760301268 0.7367397809910461 L 0.2069284787096254 0.7324795795667595 L 0.21201934516410464 0.7285159445262545 L 0.21370735387370116 0.7271930057122584 L 0.2202903409827242 0.7238697926576295 L 0.22425562046912367 0.7217294010163907 L 0.23003692263527975 0.7198388661840208 L 0.23328874198356628 0.7181555297111528 L 0.2401654442701984 0.7146846981485009 L 0.24152207839453788 0.7137296141322333 L 0.24593657581680775 0.7117585045035786 L 0.2523584791525407 0.7083319815251762 L 0.25452795682873247 0.7061935558913821 L 0.2573278786439132 0.7045588919550627 L 0.2638237558903028 0.7013864718402113 L 0.27239461468521725 0.6980079905183574 L 0.27637211741233364 0.695055209596118 L 0.2772174139253828 0.6918746765668768 L 0.2778347266066526 0.68709402390465 L 0.276526333268726 0.681797460863963 L 0.27637699701075447 0.6771973010553543 L 0.2754589485346232 0.6727856208193173 L 0.2728861338114939 0.6684573293932085 L 0.27033460165234324 0.6641177625298428 L 0.2726765832839118 0.6625196296613626 L 0.27748403634738733 0.6639474632674105 L 0.28226353352831285 0.6673752085397481 L 0.2854212560148261 0.6698861613933879 L 0.2899949038942142 0.6736905340994087 L 0.2948598578681721 0.6780812334164196 L 0.29703267234669667 0.6821771764270772 L 0.2976588307775951 0.6856776363386139 L 0.2950179597255246 0.6886927074187577 L 0.2915751055333576 0.6928979726192411 L 0.2911467170645053 0.6969873024527719 L 0.292834609673301 0.7008717320094322 L 0.29546991069500855 0.7038559847676352 L 0.29905377615713025 0.7049410363771578 L 0.31010260618534835 0.702767442143918 L 0.31050243814070183 0.7026634276671802 L 0.32025072785362696 0.7004345579410525 L 0.31894082208247654 0.7024575403008326 L 0.3163175653511703 0.7064958197631152 L 0.31286876404106406 0.7097336616296543 L 0.3018981305690085 0.7142009001644657 L 0.29574366292783866 0.7174019959107153 L 0.28823801195104937 0.7205740880902662 L 0.28165674669890917 0.7238198925641928 L 0.2810998573360298 0.7266009210635178 L 0.28175049977149186 0.7300896770725461 L 0.2802571308240653 0.731769579790497 L 0.2748333521552009 0.7347005749871155 L 0.2680753445448047 0.7356060337420172 L 0.2641845028883204 0.734848191958463 L 0.25972163276318694 0.7358642022616076 L 0.25728607242568047 0.7364145045917637 L 0.24942683822538697 0.7421188281024892 L 0.2485394575054493 0.7442906351858181 L 0.24362989227659407 0.7486583016690899 L 0.24033301361572112 0.7526681271442541 L 0.23857964595628667 0.758330135329344 L 0.23547772380413717 0.7629622505234509 L 0.23286815067763197 0.765501275930536 L 0.2282626203263871 0.7687855755924698 L 0.2238674944113818 0.7703571438731744 L 0.21712969530754742 0.7753876484401396 L 0.21479850820134716 0.7825302095154925 L 0.2157959579511334 0.7863512487728338 L 0.21791109136617107 0.790636321962769 L 0.22129960398842927 0.7933303953650982 L 0.2257692486024461 0.7951339064507922 L 0.23236248342972995 0.7951414321997445 L 0.2348876586028325 0.7932599908737296 L 0.23628999747130128 0.7875472809330282 L 0.23912642686840332 0.784253429456627 L 0.24433209794094854 0.7811333152709966 L 0.2511169609592792 0.7806979749445102 L 0.2514072172586375 0.7857099713684161 L 0.25406531746701855 0.7875169333946386 L 0.254428165387477 0.7840448808223694 L 0.25582041578344294 0.7786717567978465 L 0.25771481572605487 0.7755632201942354 L 0.260997553773028 0.7724893163161762 L 0.26441065062431574 0.7687117894614877 L 0.2690647361773257 0.7636484488064739 L 0.2754752078529714 0.7595192965278788 L 0.2793583397425372 0.7579617917685906 L 0.28696441350871427 0.7545258303072429 L 0.2920717062420738 0.7526575125640739 L 0.29607321594782327 0.7513751257426701 L 0.3069712278108287 0.7480867047902505 L 0.30972487578149066 0.7470798201075185 L 0.31688858878516396 0.7446452114394985 L 0.32752796174797194 0.7416492444310443 L 0.3335597829064714 0.7387597040951969 L 0.3395857533970836 0.7331272929290582 L 0.34057010571177815 0.7304905579934341 L 0.3405786841047557 0.7250536015770195 L 0.3395679973306981 0.7212508039764817 L 0.3393514239485959 0.7162275166003021 L 0.33948873388057793 0.7128060112500659 L 0.3393352733184085 0.7087875046932802 L 0.3410779954981797 0.703915528980504 L 0.34145971467616787 0.69907208646101 L 0.3442807822530195 0.6935454947852789 L 0.3513667900817587 0.6891663884375636 L 0.3526972651676285 0.6881052119830053 L 0.3615091980149211 0.6776794785482084 L 0.35955151887097947 0.6717426908626695 L 0.3586343682605123 0.6678965329864929 L 0.3602008552104539 0.6653610433577195 L 0.36465071111171926 0.6688347135741711 L 0.3698284444314964 0.6679501548833534 L 0.37278927990501426 0.6614986448317424 L 0.3717171468268682 0.6573204226511414 L 0.37250563074350734 0.656030233570877 L 0.3745653181775529 0.6504994982814458 L 0.3768026142388638 0.6462831612519276 L 0.37933395455028857 0.6426519383380569 L 0.3828530797683075 0.6400856827127143 L 0.38872762709753267 0.6374215960900272 L 0.39236206689928615 0.6390391543154267 L 0.3979273108577691 0.6385823054491064 L 0.40230307391354625 0.6395901808577786 L 0.40219057397145935 0.6453241132229167 L 0.3986826248476399 0.6500387989118752 L 0.4009279078163126 0.6535408883557299 L 0.4051481771510908 0.6518699961602399 L 0.412027613387233 0.6519550324002437 L 0.41121000127473517 0.6576652643970758 L 0.4124253126997644 0.6623557860002475 L 0.4158134548772914 0.6622439293790244 L 0.4256994492375477 0.658218330852088 L 0.427308953622297 0.6580085157784282 L 0.4300390655929349 0.6621901337128583 L 0.42861119724015717 0.6674562395655452 L 0.42616937111925574 0.6716974855395405 L 0.424599742538788 0.6735920656342319 L 0.41912490727902013 0.6771315219762014 L 0.4154713239007832 0.6800476337320902 L 0.4112486414190887 0.6851832783094789 L 0.40632857064064765 0.6874672361663202 L 0.4039509311499923 0.689597746885122 L 0.39871747358588744 0.6946809320185645 L 0.39648560283482354 0.7005020664887657 L 0.3978984416511567 0.7048340291352542 L 0.4009740359799641 0.705566053696958 L 0.40887860486710126 0.702001377509432 L 0.4141061409905853 0.7033904902588303 L 0.41711828662874073 0.7072199994392767 L 0.4205349489733553 0.7109289562917179 L 0.42658735789925945 0.712049787934839 L 0.43544334457450223 0.7132708303818246 L 0.44161334270532393 0.7129404716716198 L 0.44930159009726717 0.7120803604148891 L 0.45454222268240285 0.7116884070566527 L 0.46056728231918675 0.710314701143455 L 0.46396650932241235 0.7091366426161564 L 0.4680543586567986 0.7098214244858361 L 0.47332006045538616 0.7086817564286064 L 0.478923595844062 0.709530727555182 L 0.4824564359297427 0.7121765968446018 L 0.489425244699502 0.7150390260274864 L 0.49436406571275615 0.7175692921630212 L 0.4970335814091086 0.7173320144123626 L 0.5043035457602265 0.7175968437112065 L 0.5047326549144531 0.7210516172402279 L 0.5005259349468945 0.7232833920994661 L 0.4970839944764632 0.7259569439272582 L 0.4917090636577554 0.7307552944151595 L 0.48959534791549053 0.73621398920109 L 0.4876585365806923 0.7398036387406282 L 0.4888497446955095 0.7452358295692688 L 0.4896420493962819 0.7464274355385495 L 0.4902120107826434 0.7521193604487337 L 0.49506159087537555 0.7595210587889063 L 0.497368165033887 0.7608102978684284 L 0.49836613355960657 0.7689316611851846 L 0.5006435306710006 0.7730843506472941 L 0.5039315834444752 0.7772476662030842 L 0.5066727671461477 0.77983585805342 L 0.514010030631111 0.7832824552654075 L 0.518000232021336 0.7876036823867713 L 0.51961368535943 0.7920934755312578 L 0.5230589402572828 0.7948407255883932 L 0.5308577703771646 0.801512618455439 L 0.5337696655571915 0.8041326822009367 L 0.5367440781858217 0.8088293444085644 L 0.5363785887363065 0.8118648609289651 L 0.5437842133238933 0.813518991830556 L 0.5587332332041595 0.8130037912701776 L 0.5503464148816103 0.81159867939386 L 0.5578052447865504 0.8101941377350651 L 0.5531304813119053 0.8071901625528487 L 0.5612217602581157 0.8057345094931629 L 0.5662127351181352 0.8039035907661285 L 0.574748523185907 0.8027249600211777 L 0.5791225939477637 0.8049803462378391 L 0.5876413865695765 0.8020789937640433 L 0.5798897412532155 0.8002576944586012 L 0.5740704204829082 0.7966249804734987 L 0.5670795621453066 0.7927291296361543 L 0.5686723702711375 0.7908137605464827 L 0.5738668837559769 0.7910810402548473 L 0.5797768266511169 0.7875159901129248 L 0.5832579048505189 0.7888834022157947 L 0.5863645948630005 0.785401383977658 L 0.5855007195832274 0.779520547310895 L 0.5819014146680705 0.7773300176277025 L 0.5907081043738712 0.773936192599864 L 0.5988686805924637 0.7780637815395496 L 0.60632561279176 0.7818608826381076 L 0.6123273452100899 0.7824465449902698 L 0.618206058453488 0.7856440459981766 L 0.6202483589318017 0.7873325816083536 L 0.6226984843621451 0.7869519462001905 L 0.6250075068905505 0.7851547388199336 L 0.6375032448442803 0.7860201615129235 L 0.6351322763865653 0.78819834333343 L 0.6352007457001241 0.7899783337683277 L 0.637971501583404 0.7909738227833613 L 0.638791381621164 0.7923110473171255 L 0.6373256189554647 0.7933142760671482 L 0.6331839813754934 0.7937823407283754 L 0.6295556301706665 0.7927552733929402 L 0.6287376740071264 0.7921305071553467 L 0.6267628717586977 0.7931813951084314 L 0.6260354291050463 0.7937373765043445 L 0.6240208923567032 0.7922872875563484 L 0.6217646510154483 0.7920527216095725 L 0.6205786618319109 0.7920597273920327 L 0.6165205080576589 0.7921289358631463 L 0.6137447691298417 0.7934874471009673 L 0.6127221620743923 0.7943067253028905 L 0.611578159682507 0.7953760620438958 L 0.6100222634964892 0.7977967628316812 L 0.6099724177781037 0.7983977919809525 L 0.6092915895683806 0.8009702319292761 L 0.609038113675816 0.8039783318582884 L 0.6091084640033356 0.8043295688537658 L 0.6096774594809073 0.8063034171625931 L 0.6118483700664913 0.8076378743712135 L 0.6148002433443012 0.8093692790887833 L 0.6182171505086543 0.8099727987219921 L 0.6206010217809512 0.8114003077478031 L 0.6218969345639596 0.8125825093569129 L 0.6250660076562318 0.8135646728121676 L 0.6263850679861388 0.8140230834908452 L 0.6293783838548284 0.8141789983788795 L 0.6307903400970947 0.8142646805374953 L 0.6350543888457761 0.81463537473763 L 0.6387263587236642 0.8154268359073679 L 0.6414989528481216 0.8167987032514581 L 0.6435410969997406 0.817288387000555 L 0.6459556478710055 0.8178554412617046 L 0.6484855990711322 0.818165596897842 L 0.6495959129892334 0.8183980900855597 L 0.6526213864879304 0.8192521463928679 L 0.6545203344422068 0.8204794573207594 L 0.6564427553610277 0.8210980530176608 L 0.6577013030955163 0.8211906588255684 L 0.6601887209763806 0.8212563149497331 L 0.663019396043946 0.8212772503163122 L 0.6660462829086591 0.8220006416233546 L 0.6700766949800945 0.8224760162427742 L 0.670281262036982 0.82257241308409 L 0.6724388446936772 0.8226690673090887 L 0.6759351649174922 0.8230826713549915 L 0.6779616886543557 0.8233145236578188 L 0.679302799156495 0.8236322113824853 L 0.6812257919874832 0.8228978015539637 L 0.680944980664044 0.8213479060160225 L 0.6794684478384705 0.8199537491221596 L 0.6774844901997756 0.8192335195703712 L 0.673494181836263 0.8182803753809816 L 0.6712440546651093 0.8184423217182438 L 0.669552014801019 0.8174399694302672 L 0.6670243943715327 0.8159365251610794 L 0.6659090317555604 0.8157117631870078 L 0.6637754509793915 0.8156115798421986 L 0.6609957955633602 0.8157097331011446 L 0.6577996608875519 0.8162172161567398 L 0.6568013121540088 0.8144058153894649 L 0.6586668500807821 0.8128541295980857 L 0.6594972072850083 0.8120296575994211 L 0.6606327804718829 0.8110468780281159 L 0.6619931214291197 0.8089517845320072 L 0.6637030056192189 0.8075365753087289 L 0.6661943386794223 0.807105756464519 L 0.6687157946468665 0.8067881143260367 L 0.6688839069868077 0.8067668521209916 L 0.6679046926686022 0.8050838749864174 L 0.6658915562867661 0.8053374948684857 L 0.6628089979007352 0.8054810221119862 L 0.6621793208729824 0.8037552985204821 L 0.6619346883201134 0.8028248618368263 L 0.6612950004199701 0.8003833036545386 L 0.6607948710168149 0.7991256097959302 L 0.6595410245506343 0.7976023710415938 L 0.6576588281981475 0.7962779455547525 L 0.65591980302418 0.7948164297416996 L 0.6557728343434337 0.7942358647196461 L 0.6539615230216635 0.793141118406705 L 0.6509767846055682 0.7927859147203813 L 0.6492376514689209 0.7926364538246975 L 0.6468942753932357 0.7927963285709805 L 0.6440545269198358 0.793011934877069 L 0.6411322244485059 0.7928758581617288 L 0.6427858990407702 0.791966772442359 L 0.6434461154226084 0.7911732313754285 L 0.6399528954363063 0.7907455247759856 L 0.6380054787233492 0.7896582825062098 L 0.6382040618327441 0.788323874698819 L 0.6397153945248862 0.7875530535461973 L 0.6411960327250962 0.7873808206512 L 0.6428132429010962 0.7870721377797807 L 0.6455798974389542 0.7866256509621823 L 0.6476877006099074 0.786254375939381 L 0.6503324932713893 0.7846214738966275 L 0.6510896514064153 0.7835738383345812 L 0.6529415349146903 0.7801213799377887 L 0.6600464560993472 0.779587797513144 L 0.6652461982125504 0.7764040984716688 L 0.6680915759204288 0.7750268498734904 L 0.6683161354895082 0.7749058933461915 L 0.6698833649734834 0.7745216299983579 L 0.6730168067240143 0.7737500636054301 L 0.6751037990324259 0.7733868189870331 L 0.6774369467963577 0.7729872243762953 L 0.6791740493450105 0.7727566417920297 L 0.6810839901953364 0.7717627058490593 L 0.6821704240523354 0.7701385841410651 L 0.6831317792704598 0.7689926974949279 L 0.6843095255385686 0.7672623691014167 L 0.6855862534915319 0.7654288024394262 L 0.6868368329003585 0.7639667791463326 L 0.6874947639772951 0.7631373031735265 L 0.6889324151972788 0.7623789199630342 L 0.6903948005950478 0.7616300195707767 L 0.6928647357373503 0.760370112071427 L 0.6957539319723438 0.7588527735730973 L 0.6971000162188244 0.7581986071837546 L 0.6983768318932039 0.7572805676726118 L 0.6999235579590053 0.7564138132099635 L 0.7022807220076829 0.7557016330633155 L 0.7040135765481244 0.7546166680056987 L 0.7053861579466643 0.7540450973607111 L 0.7067942809878444 0.7535625142811838 L 0.7085141642444559 0.7528456080412408 L 0.710525679099607 0.7518060986941792 L 0.712907494616489 0.7511669582218524 L 0.7133986668972416 0.751091591820766 L 0.7144356880076341 0.7501983621639934 L 0.7159844246214028 0.7492299254523885 L 0.7171835393415601 0.7488644370384817 L 0.7208165972477829 0.7479367217770261 L 0.7210658372694695 0.7478981365959172 L 0.7232527238329907 0.7465355667021529 L 0.7250125928800457 0.7450507656279239 L 0.7263106770873882 0.7433562076086088 L 0.7265122500439156 0.7419275137281293 L 0.7262572507385752 0.7402927472559695 L 0.7261553887199754 0.7387267569875069 L 0.7263465315886519 0.7368346242009907 L 0.7263480046780885 0.7351594070014448 L 0.726376990495522 0.7344102297259705 L 0.7273309263118446 0.7336956663955899 L 0.7274003973236352 0.7326598459858148 L 0.7272490859468149 0.7317534254293541 L 0.7273322777147636 0.7303424935326417 L 0.726997041709414 0.7288149573178484 L 0.7267011696199009 0.7278397687683473 L 0.7257776695175011 0.7265039703671061 L 0.7245401519806934 0.7254075291656905 L 0.7228160965291148 0.7243930151120124 L 0.7211023893231125 0.7227285275025644 L 0.7210723769933165 0.7226407777709792 L 0.7191462705738497 0.7209199897674989 L 0.7170287910489617 0.7205279680665334 L 0.7151674565828434 0.7198166196384796 L 0.7144887211541588 0.7196504985405814 L 0.7127460510979816 0.719288580670199 L 0.7116276396807624 0.7184532049911648 L 0.7096583358275261 0.7172954340448722 L 0.7087586926603895 0.7167955743470925 L 0.7075010230455908 0.7163541308700074 L 0.7054577649396029 0.7162246074382386 L 0.7038461539876166 0.7163015775206992 L 0.70278010185072 0.715644432272398 L 0.7005661371581513 0.714895904326869 L 0.6993731670405281 0.7150867613363973 L 0.6978007619569281 0.7152446843912637 L 0.6963481817102051 0.7153824916713707 L 0.6951583614960206 0.7155698649378155 L 0.6936642415604125 0.7164461504024036 L 0.6925881341737737 0.7166150684867397 L 0.691161393819366 0.7168363234889142 L 0.6885797260277967 0.7173232652951727 L 0.6855969141354008 0.7176838978909265 L 0.6836788254537512 0.7174245484257683 L 0.6818113222924695 0.7173387150108834 L 0.6792574854877784 0.7168910885353129 L 0.6783867277917153 0.7168367659341481 L 0.6760955445062219 0.7159844162950828 L 0.6739810233511743 0.7148300206889172 L 0.672771662852515 0.7143657162583938 L 0.6718104995588029 0.7144133677853411 L 0.6695375899385609 0.714557092150722 L 0.6678489028298629 0.7146172237165112 L 0.6657337792185141 0.7149190411228015 L 0.6649117775751843 0.7150354849337575 L 0.6627986087215862 0.7153331527024135 L 0.6599334067709403 0.7160013574912527 L 0.6595009010991111 0.7172427564003726 L 0.659073488843926 0.7174829305944267 L 0.6575491435026567 0.7176901252219434 L 0.6568800881809931 0.7174174275067147 L 0.6560861348295314 0.7166181269050126 L 0.6544467756080498 0.716838552637796 L 0.651193068093129 0.7179058910817359 L 0.6498072548392151 0.7181790633663968 L 0.6482653609005552 0.7182886352203842 L 0.6465100455807163 0.7190600149966381 L 0.6458282589750252 0.7203276649663441 L 0.6452029920693064 0.7207708026464432 L 0.6436773580380609 0.7215097597277429 L 0.6397069479300435 0.7215555351611264 L 0.6388297627426739 0.7208490199481647 L 0.6381861136543409 0.7206556092824031 L 0.6348479482173957 0.7202542900321167 L 0.6336711454528839 0.7209403769252092 L 0.6317034332030823 0.7224433150295843 L 0.6304424541889635 0.7233172771154198 L 0.6299538428396222 0.7250016182016732 L 0.6296256190092628 0.7263067329968624 L 0.6291786732556001 0.7276253812719758 L 0.6275999613711867 0.7281717991999631 L 0.6265368478760461 0.7282954954360966 L 0.6248740190104565 0.7278572652196291 L 0.6227419068372158 0.7274730993369484 L 0.6195452980971089 0.7272029804615002 L 0.6176587395874114 0.7280440123669656 L 0.6154778324519576 0.7286440173551467 L 0.6136493783311961 0.7292033547295864 L 0.6125172374661141 0.7302279010899383 L 0.6120493717166375 0.73154242107611 L 0.6125474033375309 0.732841710596521 L 0.6131269324777707 0.7333199130632729 L 0.6125015424072231 0.733839265850237 L 0.6111945078579077 0.733980992313486 L 0.610188888119913 0.7344487741807645 L 0.608704269972296 0.7349667474614489 L 0.6084653156003368 0.7349919869555201 L 0.6079236589267677 0.733426973755081 L 0.6072287022208259 0.7323287774174206 L 0.6064628201867672 0.732138519846694 L 0.6038009118621491 0.7322330522740671 L 0.6028436711977315 0.7323307862988954 L 0.6003130041943003 0.7324969669239693 L 0.5961118686188779 0.7328282199020513 L 0.5933210759626251 0.7329213892083826 L 0.5909621707032833 0.732698660470703 L 0.5864152395772737 0.7325871391421634 L 0.5835997018785962 0.732664710356465 L 0.5815773963302437 0.7331173264443693 L 0.5799083928369769 0.7327245235195927 L 0.578441135558092 0.7320418190516865 L 0.5757604233797384 0.731463447599839 L 0.5743406880886978 0.7311317698014856 L 0.572182408134965 0.7308597270713477 L 0.5702549167610509 0.7304756960140578 L 0.5671068133076371 0.729462604431726 L 0.555669595188699 0.7246112088817802 L 0.5494171053802609 0.7224864384024724 L 0.5437957701849977 0.7218768730660018 L 0.5363054099969454 0.7205746853311746 L 0.5320189351313667 0.7204790690290821 L 0.5249471243287965 0.7210933265430517 L 0.5199113651100504 0.720557377688369 L 0.5145057112348116 0.7194496113256335 L 0.5128311367265194 0.7162302144082501 L 0.5157947695953364 0.7130082197465352 L 0.512462111739548 0.7114702847428974 L 0.5039814270807005 0.7069680614325085 L 0.4995562583219767 0.7065216676923574 L 0.4943872951784447 0.7063382912147868 L 0.4901252170265687 0.7068532832997435 L 0.48587003163811465 0.7066581303212818 L 0.47866981346932974 0.7054208986221199 L 0.46978368277558835 0.7043989285522686 L 0.46032612144331203 0.7031775514259255 L 0.4555645867181414 0.6968363924529607 L 0.45516559925382344 0.6931542024971716 L 0.4545045260142624 0.6867727568297374 L 0.45914325795258254 0.6862159588338479 L 0.46571013506434045 0.6881025531890471 L 0.4675262983551322 0.688856419965715 L 0.4733077330111668 0.6857544823437353 L 0.471904509904233 0.6834625519824776 L 0.4672998147003862 0.6781099131801288 L 0.4668561430918244 0.6744125076284873 L 0.4700934187841581 0.6686818861918918 L 0.4679847190662067 0.665917627722345 L 0.46252731538444425 0.666459871938901 L 0.46034354188414484 0.6665293351696648 L 0.4522689464244291 0.662660093323767 L 0.45765321790500446 0.659002038430598 L 0.4640539439373896 0.656362885209058 L 0.4739008635450753 0.6492012665687038 L 0.47324864684759554 0.6451468464813337 L 0.4775806485656 0.6413671896309286 L 0.4884111702709375 0.6426323602646735 L 0.49638615104599154 0.6434876437684418 L 0.5073403309685199 0.636953528750575 L 0.5103184891526023 0.6331973556309873 L 0.5152214064319621 0.6304473785865821 L 0.5274841532418637 0.6289525008861503 L 0.5292748978158749 0.6318524102731724 L 0.5319487586196483 0.6347328292622031 L 0.5348217667053216 0.6386108800655438 L 0.5369807654736799 0.6413267182852878 L 0.5407294579895244 0.6437200067604114 L 0.550225181292827 0.6418020107740521 L 0.5657493996951639 0.6345459692806066 L 0.5660979963929843 0.6343883799115342 L 0.5745092837563947 0.6320277620958024 L 0.5861483323332657 0.6303266489300212 L 0.5918810287241942 0.63134545008636 L 0.59677432413412 0.6331214717492463 L 0.6011447352881276 0.6347660648104703 L 0.6086127919203671 0.636785187073833 L 0.6154220683228254 0.6391061592333481 L 0.6204209672428912 0.6407992554235148 L 0.6268655714037786 0.6417854638218876 L 0.6336364636396338 0.6358323844561585 L 0.6303974592712238 0.6306467762979179 L 0.6273895067271836 0.6257142249334045 L 0.6208100632565972 0.6210398315871497 L 0.620279482303309 0.6175052380773749 L 0.6220264106361503 0.6124240728102125 L 0.6223715276472938 0.6080276150102526 L 0.6220279225973496 0.5997061903234988 L 0.6206090447956492 0.595389014269474 L 0.6197496687061618 0.5860395781380934 L 0.6172652425222521 0.5806381340225425 L 0.613772078284296 0.5765418795828086 L 0.6096883704037998 0.5691241955957671 L 0.6074864373134556 0.5654728809049079 L 0.6043676202319289 0.5594478375958708 L 0.6027326887382105 0.5566602369151776 L 0.5987808962612101 0.5514222160466068 L 0.595769540421075 0.5493567589653346 L 0.5922616786566904 0.5488001446355879 L 0.588865106901071 0.5424713823165114 L 0.5745363350677606 0.541078323952531 L 0.5681043950971816 0.5413716034642884 L 0.5548656524836915 0.5463303869413263 L 0.5513267883776022 0.5489758590740478 L 0.5462635354184704 0.5501816967153647 L 0.53517344546799 0.5487926485789791 L 0.5264288301674866 0.5468803398241787 L 0.5187461799615536 0.5444961649693867 L 0.5118396998830423 0.5433293146498216 L 0.5086391945970975 0.5431522990257708 L 0.4987948657125632 0.5442575674715259 L 0.4865469644682813 0.5452956722387683 L 0.4750708430619994 0.5464603602660852 L 0.46427256136474254 0.5498406527561108 L 0.4534717424225653 0.5531452771360611 L 0.4466099013729339 0.5548345253467238 L 0.43727295513028275 0.5574507820240197 L 0.4259371286500529 0.5607662376282536 L 0.41434910970333927 0.5635862581490484 L 0.402151089269835 0.5675416654328327 L 0.4006485158304111 0.5680834121553889 L 0.39147112543687757 0.5698580061351839 L 0.38823699806245576 0.5704990636912832 L 0.3790992035585598 0.571189157220467 L 0.3641034105920374 0.5708183102778455 L 0.3561154036605786 0.5690011964757677 L 0.350372208265136 0.564418094261377 L 0.34852587046853956 0.5605347590656183 L 0.3492123020195079 0.5508088387049391 L 0.3484776683930575 0.5455322829350352 L 0.3479588168443827 0.5431902902808399 L 0.34123041323994446 0.5338045081662094 L 0.33595865245013584 0.5324846277502577 L 0.32630150244518397 0.5330419576598018 L 0.32477064505404274 0.5335245874130977 L 0.3156518574581368 0.5353488254819453 L 0.30406915634419185 0.5383477380794561 L 0.3014649253859996 0.5391204898043651 L 0.29255830187996107 0.5417215383237384 L 0.2870799290974949 0.5427854350955463 L 0.2754967786748962 0.5450134738505868 L 0.2730698458320633 0.5476925603618981 L 0.2665889342605046 0.5549707533096415 L 0.26293758185103877 0.5619536836418279 L 0.26006423744890683 0.5652105132172297 L 0.25084536244525607 0.5695958871202853 L 0.2433622262022213 0.5724861358359935 L 0.23825732587226092 0.57375296952826 L 0.2323502557281261 0.5746952793740611 L 0.22330792201230526 0.5758523280376194 L 0.21061851042871976 0.5777759077158365 L 0.20824843236706125 0.5783090988317529 L 0.1974740607269372 0.5806816531390753 L 0.18844388890705427 0.5861229940145521 L 0.17721840491031765 0.5918198208557093 L 0.18016604727337387 0.5994125832685988 L 0.18484304946324193 0.6046361764351658 L 0.19100332055854313 0.6104752136508086 L 0.1903716923372985 0.6159688508238723 L 0.18576175541557255 0.622367965812299 L 0.18423447027300266 0.6251340697419145 L 0.18315069032783973 0.6364733285952496 L 0.18887235243448788 0.6404979619014048 L 0.1929184950266578 0.6449003781521281 L 0.19178307073992784 0.6504635404051177 L 0.18635304751001658 0.6492514101642078 L 0.17871973561505164 0.6451474625013215 L 0.17171334091023632 0.6480971205665464 L 0.16914699147887413 0.6496007528646591 L 0.16054989589175386 0.651400697750255 L 0.14525957583491947 0.6511763973420052 L 0.13633397611722295 0.647720510777461 L 0.1335195388415723 0.6463746225857316 L 0.12762007597217687 0.6446768564398421 L 0.11529159244484759 0.6432355306301032 L 0.11040514332101027 0.6427271721242294 L 0.10003296986429078 0.6436707026974976 L 0.09304154038435346 0.6439683678381068 L 0.08389308345166305 0.6427311279310979 L 0.08084937949943068 0.6423090888424422 L 0.07207770697863254 0.6423646222024866 L 0.06151080354324802 0.6421975593915246 L 0.04968719188739845 0.6440353338087971 L 0.03298200028918552 0.6450962613871226 L 0.03051094008962133 0.6445131920360284 L 0.015505655659277005 0.6400342426017537 L 0.00934388230313888 0.6385080689291289 L -0.0005126962834232243 0.6360193315590745 L -0.006948547895583646 0.6330625254321336 L -0.01400825237379701 0.6268663048056738 L -0.018232180726234205 0.6231243448629209 L -0.024638478728083144 0.6200756069656488 L -0.028586443339961163 0.6176762058346714 L -0.03908158969173139 0.6145158490075537 L -0.04507404848043346 0.6136864542990739 L -0.05042264464520892 0.6132460733879839 L -0.061585791756874265 0.6132956342176242 L -0.0627488092824199 0.6133949406459388 L -0.07393013866804472 0.6138309126945292 L -0.07789208584106673 0.6150849472540719 L -0.08616925335665726 0.6194906854479013 L -0.08983131175579187 0.6230699134539184 L -0.09412924089991925 0.6266831713517758 L -0.10165489598647529 0.625271105053412 L -0.1059164384609901 0.6212462615243067 L -0.11282392365562176 0.6159036286420989 L -0.11345259209293729 0.6116255280254246 L -0.11530303778671198 0.6073974128752452 L -0.11638145932616734 0.6002199946860541 L -0.12089241787140804 0.5946129936897664 L -0.12656073089229747 0.5894889480761984 L -0.15172397743673866 0.5728740082130825 L -0.16381582511091358 0.5640814270882468 L -0.1679351928266142 0.546943569761968 L -0.16882980791339444 0.5296312859496295 L -0.17449772988896942 0.5145900882814565 L -0.18778803082770984 0.5063149693397382 L -0.19937899373238263 0.4992528842189937 L -0.22251850022922046 0.4851188406690489 L -0.23740224006422012 0.4756176466363434 L -0.2524087472977575 0.46194257789195836 L -0.2674617411339766 0.44689230492456533 L -0.2775892661616492 0.43411535812969426 L -0.2782574746126779 0.41365715482251497 L -0.27888540792691213 0.3987543711901247 L -0.279483438496139 0.38661330747786704 L -0.2800000300273066 0.37719768963276257 L -0.29263215568664247 0.3525840366894497 L -0.2904209977052248 0.33895547643489055 L -0.2914589042852027 0.32558144051132343 L -0.2912726620090235 0.3094335505551455 L -0.2964009910484196 0.2882273922205423 L -0.29764262252428136 0.27615992616207174 L -0.2995718987939089 0.25868470459675924 L -0.2996307275888245 0.24511489910845302 L -0.2916468169641092 0.23517286484613914 L -0.2813449693497207 0.22099215471305134 L -0.27258267060784835 0.2082129283778916 L -0.2660780315464228 0.19138848198982308 L -0.254337862877367 0.18106981600946145 L -0.2466854777200318 0.1737033503661075 L -0.2371164440300648 0.1606312590909283 L -0.23077805408926322 0.14628191854422373 L -0.22078411439353793 0.12875346068946564 L -0.2107002575681584 0.12097568656098277 L -0.19652937877699803 0.1128123693689704 L -0.18388105501085472 0.10465961032696877 L -0.17747723743047983 0.10125224550244971 L -0.15544909010529373 0.09204123084326675 L -0.1512213365047925 0.08442173849404357 L -0.13841644512070048 0.07875455441803537 L -0.11849791161354349 0.07506351947577333 L -0.09659509465926139 0.09248261267808822 L -0.07232677362311225 0.09204129220913469 L -0.05454492550808846 0.0851516357617189 L -0.034822246188094035 0.08206583926762295 L -0.011419614462961327 0.08530495576897781 L 0.01040112588031197 0.09565920946943236 L 0.023916252130764995 0.104468216688791 L 0.046664156673613524 0.11135669750042833 L 0.06510818873687813 0.11608496935455705 L 0.08369611474427138 0.11223267802303018 L 0.09177518100285759 0.10204198632061429 L 0.10177622371601482 0.08559551081755556 L 0.10716303999827634 0.08437736035729014 L 0.13802708107247147 0.07423618580646751 L 0.16230046487780214 0.0740231695196218 L 0.1735296906184519 0.060910761470541905 L 0.16659074402994847 0.052407021679244874 L 0.15246018543389014 0.032262487139234165 L 0.1533214332216977 0.0153834147211076 L 0.16136824692439442 -0.003755805577442555 L 0.16475708941130646 -0.028359885808392753 L 0.17493074418582744 -0.04750931240807075 L 0.18969699290002587 -0.07198053217494123 L 0.2021990937319446 -0.0948690608070723 L 0.21375959706872144 -0.11824374761760786 L 0.22134973542513217 -0.13182347294778263 L 0.23733275768972548 -0.16790846606908874 L 0.24281935684066006 -0.19780580077528462 L 0.2375091820381936 -0.18560181325205616 L 0.22303296663270927 -0.2189915875648628 L 0.2130465109106436 -0.23309488742009016 L 0.20889913539914962 -0.2578152201731845 L 0.21491800254420093 -0.2805903999197744 L 0.21220161152612307 -0.2923155207016452 L 0.215433198904881 -0.31483290496642885 L 0.2201058040268525 -0.34342085590184224 L 0.22980348406106868 -0.3634575944135812 L 0.2474028587668587 -0.38800357041271405 L 0.2527131079333353 -0.40337603732653715 L 0.25697521652893657 -0.41725951556341506 L 0.2608094324716384 -0.44014001950165305 L 0.2669950528932001 -0.46698359600468275 L 0.2670022794922001 -0.48087972849207944 L 0.2725348205556537 -0.5055384862343476 L 0.28299165644090596 -0.5236097487667553 L 0.2940911484129907 -0.5322250070161186 L 0.31460663518760695 -0.5527255959430453 L 0.3203344668880712 -0.5865687426064273 L 0.32469265202524117 -0.5909528248452215 L 0.3536515947152663 -0.6037783903472147 L 0.3652699019999369 -0.6078915824373078 L 0.3857899774358952 -0.6120059287886995 L 0.42261647397183044 -0.6158559466136734 L 0.44492223913021195 -0.5971665198503429 L 0.4486541739515321 -0.5926591688477489 L 0.4667904610867485 -0.5772950176084123 L 0.49339071429192505 -0.5606247753158003 L 0.5179644036665876 -0.5455969235656069 L 0.5319287199038796 -0.5352759847962913 L 0.5458581088968285 -0.5266636613134076 L 0.5614011127216834 -0.5105343120159118 L 0.5682730982739645 -0.5023991012431612 L 0.5766487824478288 -0.4716461967131513 L 0.5817989970029166 -0.453008604930208 L 0.5903747035554081 -0.4440501939811746 L 0.6058415559583143 -0.43184028651656314 L 0.6213987192060981 -0.41967926238718206 L 0.623246928375928 -0.40111716628866745 L 0.6202968633757104 -0.3792026909770791 L 0.6206686272391865 -0.3679132086807886 L 0.6229075144117314 -0.35414063176557187 L 0.6253212522559356 -0.3390719110286755 L 0.6375517836345227 -0.32956090787637715 L 0.6655143152270757 -0.31640774958077267 L 0.6714676215741967 -0.3031919290687316 L 0.6843557169294588 -0.2921575976774269 L 0.712060910060527 -0.27700750252749184 L 0.7062699112012941 -0.2596818052457246 L 0.7103096213687577 -0.23640194741749443 L 0.7125158263281802 -0.21710714721826507 L 0.7080545093377321 -0.19724169494879373 L 0.7113098602119752 -0.17517072828427763 L 0.7102726394941264 -0.14987404959536335 L 0.6945986264732759 -0.13196352761306707 L 0.689194845579731 -0.11611802104833259 L 0.6892983447292536 -0.0991385014914662 L 0.6893165611412837 -0.08346202290885014 L 0.6945307481174404 -0.06793053868113925 L 0.7085796595799218 -0.04524702511559341 L 0.7204708830072148 -0.02638718148271116 L 0.7401100602316825 -0.007183799621857945 L 0.7580294305396629 0.009616826282193298 L 0.7705545734406256 0.021718513663214072 L 0.7776405926782155 0.026574038758811723 L 0.7843221620323645 0.031860990488386774 L 0.7892266670198631 0.0359126029988948 L 0.7962126555951784 0.03974301626832233 L 0.8058755537785681 0.04594000243918049 L 0.8134421760971055 0.05226858592898883 L 0.8288006251459107 0.06821288155956813 L 0.8537376473303335 0.10549608979300369 L 0.8544926079894384 0.11007826650585066 L 0.8549243440800939 0.11594978599062171 L 0.8599338543192796 0.12047839641411318 L 0.8627832510143683 0.12438465133711805 L 0.8655755986014945 0.1274502105862603 L 0.8706570294314937 0.13236500278773614 L 0.8746193644647666 0.139065920480606 L 0.8792397482055756 0.14819084004342806 L 0.880516281295603 0.15306406114441776 L 0.8871712841225843 0.1648642910914725 L 0.8878555626326141 0.1722810537083441 L 0.8885583991731639 0.17968756568964583 L 0.8911479999578805 0.1839923262022309 L 0.8945957084604456 0.1836415959179938 L 0.8929135223105235 0.19294796712073778 L 0.8936757437715834 0.20034313958440073 L 0.8935928992196571 0.2078215244021531 L 0.8854801508781359 0.20942898789408268 L 0.8808400334736206 0.2065566697784328 L 0.8780578993521106 0.20475141957715046 L 0.8707932591072601 0.20543525452600042 L 0.863779777244001 0.20402271962014468 L 0.8583718417764897 0.2012214831666894 L 0.8543692259142754 0.1995275971834242 L 0.8480010582440252 0.19969454765546807 L 0.8442112197239053 0.2000353018964764 L 0.8360792121654654 0.19911232937587653 L 0.831103151716781 0.19543907163929491 L 0.825249141719379 0.1959479298213885 L 0.8206205331114513 0.19593462897910174 L 0.8153706325748111 0.19350740091613478 L 0.8093350044809992 0.19155209209471663 L 0.8064242858052177 0.19179382820343954 L 0.8009883574161639 0.19183020465434322 L 0.7941121004760788 0.18951616134959906 L 0.7898983526299826 0.18903205976952503 L 0.7873777856683355 0.18882113438797765 L 0.7800082440144187 0.18529570023914552 L 0.7737630397370515 0.18536248387365134 L 0.7683776855741831 0.18576610769926372 L 0.7655712745217703 0.18720328693724853 L 0.7617055932048896 0.19117381682689624 L 0.7586020398901273 0.19426565982183633 L 0.7569856659338036 0.2005240757103643 L 0.7566123075408663 0.2066916005324399 L 0.7569174166703756 0.2107633624462498 L 0.7557055026325595 0.21699162786571688 L 0.7520387583913138 0.22421671635849078 L 0.7488387870848479 0.22649264016702936 L 0.744317197259534 0.22804021148880918 L 0.7374650710893096 0.2326175140938892 L 0.7352745792750487 0.2376948814172216 L 0.730881021727718 0.2416946749729133 L 0.7251471220691417 0.24496415667890467 L 0.7204172585587704 0.2510504969119549 L 0.7144479615290869 0.2584698974996458 L 0.7115754464485139 0.2607304182685985 L 0.7065047515352041 0.26231109812847236 L 0.7031373886758888 0.26377762367888385 L 0.6969124153863899 0.2687533754725007 L 0.693143282174634 0.2714962491121087 L 0.6890377822850001 0.2767650675884597 L 0.686682526474068 0.28276748690780845 L 0.6863707480842969 0.28571740282985775 L 0.6849280463036346 0.2933663671335398 L 0.6845880110803209 0.2959133467277063 L 0.6834280062974366 0.30020729720327466 L 0.6813883731405501 0.30499670769376924 L 0.6779984939226661 0.30989605682173554 L 0.6731904552835213 0.3132097383666037 L 0.6697281793398315 0.317718129925317 L 0.6666268813677296 0.3196482084315945 L 0.6595336071535876 0.3265908934920651 L 0.6532367800630974 0.3322225784689688 L 0.6510025840039068 0.33758591706951824 L 0.6501905613946892 0.35999532553678165 L 0.6501909243304207 0.363096574803796 L 0.650641828947931 0.3719702529438609 L 0.6482645070838068 0.37664872846843656 L 0.6424719455635852 0.38616907108871007 L 0.6390170094733085 0.39239038111023 L 0.6336586993516546 0.39514539913240937 L 0.6292273540362985 0.39783272976367084 L 0.6227651271165036 0.4016387754788064 L 0.61699431206711 0.41054752706916375 L 0.6166465769122617 0.41811191229088696 L 0.6164840261345381 0.4214446244310741 L 0.6160878131811813 0.4291180259591384 L 0.6128563931492492 0.43279857052095255 L 0.6019741380064643 0.45623276633844323 L 0.5905185451693185 0.4706253567149815 L 0.5816013851514839 0.48332323355672124 L 0.5689407235795206 0.505351182352855 L 0.5788138724991231 0.5096665716401035 L 0.590802954251916 0.4948155103830023 L 0.601529547619023 0.4946121415523089 L 0.6122146061562763 0.5147494954739725 L 0.6128730794071171 0.5087976922367538 L 0.6145818904617344 0.48972175867987844 L 0.6232114673772016 0.47694857694023757 L 0.6299865051534606 0.46314966142722047 L 0.6346601548795808 0.4553901358661512 L 0.6541473715005891 0.4397498225709257 L 0.6795783691855066 0.419055498989248 L 0.6868096062911624 0.4041467973259994 L 0.6923612412285042 0.3814537049816883 L 0.6982970387053659 0.368301711775597 L 0.7016988135607152 0.35696259654568285 L 0.7089717725658815 0.3369676943134828 L 0.7208184632538845 0.312241291423111 L 0.729012252067169 0.29748744381353 L 0.739872705902924 0.28223282560675317 L 0.7450678432586609 0.2666560080223087 L 0.7508418789995158 0.24695741858450085 L 0.7565806574698231 0.23387643714252507 L 0.7636762165087441 0.2204862307036762 L 0.7749346166712935 0.2209315373701114 L 0.785420684817991 0.22418597642352656 L 0.799496945243373 0.23742680211973194 L 0.8107368100001401 0.24319815746957585 L 0.8430346941654092 0.251361900077987 L 0.8603611534990173 0.25585589600801795 L 0.8774956701100051 0.2644730849956495 L 0.8845776400279413 0.2684287889512978 L 0.9158424383944074 0.2754754664021503 L 0.9277351697544882 0.2894986248128123 L 0.9515145153732509 0.30392740646593763 L 0.9670566807696458 0.3160872439723525 L 0.9789878584323713 0.3263147259320536 L 1.001481917282359 0.33591359522061726 L 1.017003011722103 0.34857203814907994 L 1.0252231593461771 0.35998256702149933 L 1.025811827491829 0.37889347489189185 L 1.0405095917340228 0.3953064455858657 L 1.037973261035478 0.40624755886438313 L 1.0146975682739237 0.41656751817663346 L 1.0142365919052816 0.41964492716135626 L 0.9938604572073741 0.4353571721208811 L 0.9893841856396488 0.4497325295771843 L 0.9743749645248159 0.4523921513740357 L 0.9515125198002431 0.4311144700301129 L 0.9340161166520704 0.42109741092378417 L 0.9143458268993723 0.41743716332963576 L 0.8922031661372309 0.44763138720607937 L 0.8832674782456696 0.4594988137780136 L 0.8806652202431478 0.461429567164006 L 0.8644788123482646 0.47608752991896114 L 0.8524079214624799 0.48859863026410044 L 0.8395833995535662 0.5088656536328229 L 0.8497685443253585 0.5240211717183447 L 0.8619178052468693 0.5251001081053673 L 0.8830848598887081 0.5092012257657517 L 0.9035971657832589 0.4873925634884933 L 0.9125549109587803 0.4797959659009868 L 0.9376117302569215 0.46941381303087765 L 0.9435159159036015 0.46687459012392607 L 0.9766245344658782 0.465659595104413 L 0.9902539981498618 0.4755905451788764 L 1.0060767599702758 0.46205958796573016 L 1.0102664373249117 0.4551857606459384 L 1.0382771289027968 0.43491618115828806 L 1.055308753884479 0.43799263751682216 L 1.078353216763874 0.4400817839506677 L 1.104162469063224 0.4417898544451314 L 1.1495587561141498 0.4370308457785599 L 1.1620028539007736 0.4348675484175147 L 1.1767020156722323 0.4177820206017572 L 1.184452447112922 0.40320391623619534 L 1.2018398429483306 0.384703944312315 L 1.2201511113331638 0.36997121294081736 L 1.2298149826022247 0.37023680775690565 L 1.2406838492934094 0.38149810703835324 L 1.266527488184863 0.38685971645549416 L 1.2763348900092735 0.3725768046124396 L 1.272123062051327 0.35096100417693316 L 1.2680039815285762 0.3334209390649197 L 1.268427197315366 0.31578695800527556 L 1.2725268753542258 0.29980043826798386 L 1.2822396834457541 0.2683135697446216 L 1.2875001601423106 0.24829979156054974 L 1.2941110102616522 0.23529155993463932 L 1.3116946255925062 0.20561673863968197 L 1.3198958297484975 0.1930341342668826 L 1.3339857625484646 0.17309565129533197 L 1.3420132426118303 0.16002822569251493 L 1.3550746118256212 0.14468470606740327 L 1.37063852475753 0.14672289067726788 L 1.3824167425621123 0.16519599122626288 L 1.3923910522574716 0.17903031364993793 L 1.4085499359411213 0.20428485650901215 L 1.4085083153747449 0.2184950658042989 L 1.4108747726361763 0.24537774752025732 L 1.4124151391755018 0.2629948207811298 L 1.420784582313727 0.2790808668228925 L 1.4291083176537414 0.284584327026085 L 1.4461596330271824 0.2996868401932166 L 1.4628681195037685 0.31026560999288977 L 1.4903175954285155 0.3306126963198394 L 1.5003628242465608 0.34225202925539894 L 1.5129150159266436 0.35562786617514963 L 1.5244236800055277 0.3664986156373529 L 1.5417575286070435 0.3761737005060452 L 1.5606240511923202 0.3821784525948206 L 1.5770976832502068 0.38921466687606665 L 1.5931333872451678 0.3920250723770068 L 1.6132148299277214 0.37812125419802456 L 1.6216614262934295 0.3666497323452132 L 1.6295326512308614 0.34493412674028495 L 1.6310082112560906 0.3262360732958136 L 1.6421735912161333 0.30999599144863105 L 1.646796731302482 0.3030557792232416 L 1.6479884399140505 0.2764668682490886 L 1.650931511040137 0.2625531592693677 L 1.6727580782050189 0.2693036096245297 L 1.6891007415052457 0.271225785809622 L 1.706180436643306 0.2804790097037695 L 1.7171289514700416 0.2681596801658686 L 1.7283020517681478 0.21404393142984807 L 1.727886849683625 0.19478818582484617 L 1.7272833879609284 0.17041412151384086 L 1.7275651734993187 0.14672237654320341 L 1.7295838972127746 0.1214214564126817 L 1.739119873914412 0.09935655831602913 L 1.7486782330170398 0.08035469343374513 L 1.7648224243463524 0.056278524984382676 L 1.7876479369363787 0.03609545783954833 L 1.812187460553385 0.015977340349681877 L 1.8223698469074254 0.027670326143258425 L 1.8141190767600694 0.04702391360583017 L 1.7972823707436307 0.08476099983866811 L 1.7876829026260483 0.105643722682356 L 1.7807601111566809 0.11733453588486974 L 1.7635468724358203 0.13560570033911115 L 1.7513004642521142 0.15877033954068004 L 1.745824242145107 0.17890691895204777 L 1.74449278108616 0.2027511754290126 L 1.751139747839297 0.2231255833809685 L 1.7739907006212106 0.2273246483328305 L 1.7875290213821848 0.20938089495239637 L 1.8086190121807493 0.19307567303983633 L 1.8196354592792454 0.1710238895845372 L 1.834379303960633 0.15469920607265078 L 1.8511777633747701 0.15404546255291032 L 1.8647421169157719 0.1675446263001292 L 1.8777248894037752 0.18310388224377067 L 1.8906332842883402 0.19360573456867902 L 1.9012245489733763 0.20729399338597218 L 1.90703710470958 0.22395110631831447 L 1.9055319009509128 0.2466742773153509 L 1.8970736873005927 0.26835633251732544 L 1.8849907431323834 0.28698090258974107 L 1.8810790790440062 0.2941632419464698 L 1.8649981577672 0.3179999880054542 L 1.8547716780476726 0.33664574943307274 L 1.8500382049163442 0.3505116084305519 L 1.8571169534984957 0.3627126904621268 L 1.876032642374761 0.37831661675921463 L 1.8909970953615391 0.38000830936443486 L 1.9127295560714115 0.37810011794082315 L 1.9268137675336252 0.37318872673740044 L 1.9436705095893707 0.3757500487819178 L 1.9710282584641148 0.39045727033620936 L 1.9938100275158117 0.3975805338279263 L 2.0062980886830624 0.40098454507419135 L 2.0311549061381897 0.40966354883875206 L 2.039258354149644 0.41478511845910043 L 2.061813435849169 0.4271829903195332 L 2.069628759470508 0.43661719289228923 L 2.082464857206059 0.4515947612369624 L 2.1017358210524133 0.47051642297211993 L 2.1075162465543444 0.4814862863151254 L 2.115142802421454 0.4987731881120424 L 2.1327848693773026 0.5206353357254768 L 2.1374439661958635 0.5383340294426197 L 2.1198246440051416 0.5483422870202375 L 2.118667022700357 0.5688535601248255 L 2.1115658091190554 0.5941246298760354 L 2.0955726805086017 0.6111032043581173 L 2.1108882269807605 0.6324219737294281 L 2.1270979663320713 0.643730978864668 L 2.127877556475842 0.6581354183645481 L 2.1036532027873274 0.6623014711514338 L 2.078354035685628 0.665107225307847 L 2.0667043873974555 0.679156650851745 L 2.0867936883438314 0.6878913111672192 L 2.121822208983754 0.7112577916093056 L 2.1306268829896204 0.7083061859443264 L 2.1284317381984437 0.6876205198223212 L 2.1482255989444226 0.6871199260272547 L 2.170739776064938 0.6919575495640218 L 2.190773464436483 0.6852299079401627 L 2.1953866840109 0.6677066161313099 L 2.1938892920894424 0.6533232101414664 L 2.1998098591555735 0.6304810475653879 L 2.198541482472196 0.6118103934107695 L 2.20946836122646 0.597919704354762 L 2.2411509106233183 0.5907059500271472 L 2.256400857385903 0.6091738806516284 L 2.258076283109897 0.622007591839988 L 2.261275339190834 0.6375446399013106 L 2.253412986155515 0.6590313987756111 L 2.248333616906177 0.6818566449741884 L 2.2487981197781544 0.7058392131575855 L 2.277389815915067 0.7223032218190322 L 2.2993201084063193 0.7497338691858859 L 2.3305608296288636 0.7548749786716906 L 2.35071167989824 0.7659136152712652 L 2.359158195524652 0.7696740121009051 L 2.3774454379041288 0.7808526974006165 L 2.407595858036168 0.796185876584475 L 2.4250298914937742 0.8172904870863373 L 2.4244917930544805 0.8203323790630437 L 2.4443865114877195 0.8432381692002756 L 2.4518801928303025 0.8631454090745497 L 2.4585129923261295 0.876274318901958 L 2.4633107455860896 0.8887322384133967 L 2.478869602146717 0.9151314650086483 L 2.4862827683284894 0.9326969113755562 L 2.4598873374258203 0.9422611335710701 L 2.434843547791968 0.9472189101372936 L 2.394422329485564 0.9483322753619395 L 2.3683680799188096 0.9648380235584014 L 2.4072808481349943 0.9746987474830582 L 2.423624718729203 0.987671875144806 L 2.430217782518831 0.994368534726623 L 2.458793786946122 1.01815453380218 L 2.4729877849492676 1.023551945883469 L 2.4840603884806183 1.0322697614144454 L 2.5012988083879057 1.0356846859797306 L 2.503983584351742 1.0352928203152818 L 2.5108696575388563 1.0368399045037378 L 2.5344683292303176 1.0379683911663948 L 2.547629129469975 1.0354510321874548 L 2.547265306007033 1.0321872113478172 L 2.5557476628329616 1.0330981410252078 L 2.5534189569482018 1.0354677316763319 L 2.556884927142693 1.0374766824102204 L 2.5638490915733803 1.0366538680410389 L 2.5762581651933583 1.0345945542123411 L 2.5858156145729216 1.0374847981522353 L 2.591025539772384 1.0345269798958932 L 2.5999972567820815 1.0341032217743147 L 2.603947495011714 1.039402626009425 L 2.613121435152693 1.0438791273210317 L 2.6246033188746494 1.0380835070463872 L 2.6329817597502405 1.036336172147237 L 2.6431763600560587 1.0395475456975578 L 2.6514940774923277 1.0350837281037708 L 2.656104149773376 1.0324184217951766 L 2.640549800492129 1.031195566235862 L 2.644061490481649 1.0265132456004056 L 2.661321361922181 1.0284565935062355 L 2.670605820262333 1.029422763170723 L 2.676233092159847 1.0324859122042418 L 2.683077628231668 1.032564541171793 L 2.6910679236365165 1.03054525547924 L 2.6977608705664213 1.0326808751937215 L 2.705084009576981 1.0329703311720857 L 2.7080533136811176 1.0356208554654642 L 2.702625237028564 1.0379890922704351 L 2.696559642393581 1.039711484468818 L 2.69426883262493 1.0467709967821457 L 2.728382056568463 1.066761175812852 L 2.7364049374060264 1.073735467584122 L 2.7535535634580595 1.0777194490739295 L 2.7734536349678662 1.0793182733457847 L 2.7856250119089014 1.0785209931922555 L 2.7928031697341287 1.078076809174826 L 2.8003711833101437 1.0748796299464087 L 2.7912499491402523 1.070550459827374 L 2.792081178484758 1.0646028021545224 L 2.8011960558500664 1.0640848787070543 L 2.797848293513326 1.05986104695387 L 2.8045750312116513 1.0597127485839328 L 2.8186881878500336 1.0680055809188944 L 2.8500537456271857 1.0833497867706439 L 2.851853327101727 1.0911164637968556 L 2.8687916369762543 1.0930043778978782 L 2.873668547838243 1.0910494014963144 L 2.867552678978957 1.0871647470984547 L 2.8569954697059132 1.0667767926842224 L 2.844239590349633 1.0603216025611089 L 2.819012972831244 1.0485579192697463 L 2.792174816826082 1.0304082385374547 L 2.763034970008069 1.0136555841158938 L 2.752969081337328 1.0123994170260675 L 2.747473564247331 1.007864240045516 L 2.7407758969181626 1.008656729386674 L 2.7377881013071312 1.007630808090885 L 2.7394493268435536 1.0016573249834841 L 2.723856322551047 0.9911673537100278 L 2.7162795099775203 0.9767765018703269 L 2.716154395207137 0.9584468787376743 L 2.7216890588402274 0.9375156402295256 L 2.7263296477091474 0.9170032520388274 L 2.7300724160300325 0.9121788779979483 L 2.7331190666195835 0.8958341104188033 L 2.7364375834678127 0.8885935751082458 L 2.7494228318967804 0.8963366105144396 L 2.76588994492175 0.9109111484908143 L 2.766482956148915 0.919620519639153 L 2.7778764037681323 0.9275641720253687 L 2.786837909014502 0.9287210685861382 L 2.7925696308601413 0.9262390606384024 L 2.7937534430635775 0.9324165157435308 L 2.7897052194177077 0.9386206368506914 L 2.7929948099515416 0.9446446190620441 L 2.8008027975771683 0.9493021494465637 L 2.81156967394013 0.95282191127216 L 2.813198073595766 0.9497993355831895 L 2.8260904568810097 0.9518488461139272 L 2.829831838201851 0.957011940016616 L 2.827589455103127 0.9616934075056877 L 2.824031806760698 0.9658678421409205 L 2.8256306430346063 0.9706255012950962 L 2.832713013760103 0.9802072030653439 L 2.843564754875903 0.9761944762770187 L 2.8505023232383118 0.9807894986591628 L 2.849505514346433 0.9899718351572712 L 2.8436469897193706 0.9899279475921053 L 2.842425818734159 0.9935145333326432 L 2.8407901936187 0.9994486102781821 L 2.84286354450498 1.0019248633301963 L 2.849287545299269 1.0038957997386084 L 2.8517341951448607 1.0076830202095852 L 2.840512244311374 1.010729870945463 L 2.8359606244627975 1.0085997380773655 L 2.8273156359922655 1.0132973040983728 L 2.8350574492907854 1.0240768324362932 L 2.849930062392586 1.030863054547254 L 2.8516979377817147 1.0376778959962352 L 2.853386294383579 1.042664555675802 L 2.8602500392838786 1.046107072292901 L 2.8757050607941923 1.0432338480891488 L 2.8862199148732026 1.0482836326715277 L 2.8997654658069134 1.0529457379190084 L 2.8981110991136134 1.0434350649147393 L 2.9020751731137553 1.0439369242644656 L 2.9067938011993806 1.0465756096540155 L 2.91687887178318 1.0521663065402973 L 2.9366560031256705 1.0567957431481685 L 2.9446188890510325 1.0567615039495186 L 2.9547352672828757 1.0568381240438856 L 2.9609008016771394 1.054398268355676 L 2.9667314771052498 1.048197270341132 L 2.973594175624132 1.0458624690190115 L 2.977914208616288 1.0530226187804488 L 3.006820964014554 1.0650068051301667 L 3.0515940996579003 1.0807322036086164 L 3.0926974026917566 1.0950651384093733 L 3.121987693012 1.0875164647599038 L 3.1350987887298656 1.096310499620744 L 3.1098884630343995 1.1265298829492563 L 3.1356428431265972 1.1317291971067567 L 3.136865546256397 1.2069239854436506 L 3.0680420586648847 1.2238083265636808 L 2.9939344480406045 1.21970220426769 L 2.926688122879493 1.219070938776839 L 2.9032897173331436 1.2167227601932094 L 2.8234821134775205 1.2110763560096942 L 2.7677937762633653 1.2176557321497552 L 2.7409395337430698 1.2340611604281568 L 2.7099662467243855 1.245966350251669 L 2.6245850183830424 1.2523859841535991 L 2.580119210728935 1.2621871284854174 L 2.530089382596859 1.27378961479264 L 2.4692171214866057 1.2794611467937653 L 2.420136969078191 1.267115643626512 L 2.3932537720084364 1.2600827662977319 L 2.3310407452089397 1.249217017179822 L 2.2772474082958647 1.2444831557126892 L 2.2549763943941894 1.257104933818664 L 2.2648830553537107 1.27349308387688 L 2.254678889474907 1.2777731522696811 L 2.1789942222194654 1.2825593515132143 L 2.110472683111104 1.282859952782288 L 2.090732156579335 1.2811188400143827 L 2.0079093034580384 1.2868822235471038 L 1.9643280506632272 1.2866776620340974 L 1.868936927745866 1.2766011504944332 L 1.8791719988261495 1.2970969712540596 L 1.9488165734968024 1.3150701058814998 L 1.9367362659677785 1.330523891216001 L 1.9199219360130497 1.3318109152628466 L 1.8026819258044364 1.3412096442983614 L 1.702589184251268 1.3347149561973402 L 1.6325446224698916 1.3267671035463064 L 1.5802959544921629 1.3194838832062397 L 1.4844437645701132 1.304185911463989 L 1.423245909873049 1.2870958717136214 L 1.4139346344550805 1.2733911115718868 L 1.362794442689829 1.2589496637650799 L 1.312828073241567 1.2634138776189547 L 1.2807586524867087 1.2687969491384437 L 1.2005915399146205 1.2629219269323644 L 1.176437762891532 1.2526382415264683 L 1.1688699326878342 1.2256085574580171 L 1.1459189359091388 1.2031301877484393 L 1.1344659014379974 1.1944700656820373 L 1.0663752970904965 1.2070076784547932 L 1.032466778405616 1.2107708769260481 L 0.9820939505725715 1.2096750063580666 L 0.9548510214810416 1.1967940643834811 L 0.9024395441043455 1.1882085633437482 L 0.835705939818079 1.1772186089783823 L 0.796568125372039 1.1638820349859318 L 0.7282291525718672 1.1440257701838532 L 0.67584256994129 1.1254686932475444 L 0.6249299108596396 1.1228216141763325 L 0.6067499291416535 1.1332512319025747 L 0.5828256113735649 1.1502715445615612 L 0.6083435761863818 1.1582413289937703 L 0.6607645125762786 1.1557327013170433 L 0.7072804244370927 1.1555548530045012 L 0.7214794130617734 1.1712348297204982 L 0.709510549311861 1.1837055033350268 L 0.6847554726273295 1.1886128784654153 L 0.628347266206438 1.1981026808367032 L 0.5739310867200784 1.2147356579804907 L 0.5357513314211889 1.2262317653753254 L 0.494810214640307 1.2373143747377708 L 0.4544310302849093 1.2394915866918659 L 0.4078765106938388 1.2392556373145593 L 0.3623999026050874 1.2346476756343787 L 0.31873150635317954 1.2209569462853154 L 0.301696372811281 1.2088744267291593 L 0.2572014311451448 1.1987945278482053 L 0.25081596257933964 1.1907550009348609 L 0.23072909725361165 1.165405140939529 L 0.20730103739320183 1.1441417024685545 L 0.19029955891976544 1.130825533487991 L 0.15769421650840743 1.1084620530024303 L 0.12163604495444266 1.0975429891657424 L 0.10980655437817319 1.0937486224573725 L 0.0869124905746301 1.0748297748377331 L 0.09449193898391457 1.0557723315861811 L 0.09930843028948341 1.0320290151348952 L 0.11971968125132296 1.0172816593191394 L 0.14693320500274965 1.0169734638846966 L 0.17543530594867524 1.0276105705494998 L 0.20711939375847138 1.0301026714454082 L 0.21879264642929527 1.0127201074509946 L 0.23169573221442236 0.9943790790744409 L 0.24095990871221068 0.9713220440107271 L 0.2567482506336702 0.9744017485001254 L 0.27987158635258913 0.9871611833031287 L 0.30754627966208137 1.0086602382091434 L 0.3181845223329823 1.0241672176895644 L 0.32224825140198127 1.0457017801119195 L 0.3092918795593667 1.0610529301921372 L 0.2972337057627773 1.0773438431034588 L 0.3029683595631877 1.0958274703971238 L 0.3090702378013473 1.0971886988633983 L 0.35891620259296714 1.11774462790387 L 0.39154226162554817 1.137492555524312 L 0.4222514955300325 1.151086728771955 L 0.44329557817077975 1.1448127275919213 L 0.43034951533483107 1.129885986845076 L 0.40735201737986754 1.1137093844812318 L 0.3798376285602763 1.0923611643381965 L 0.3734062475622207 1.0770798312191887 L 0.37542528517772705 1.0582770727226936 L 0.40900925410880673 1.0490744642635077 L 0.45899834250563465 1.059317454486512 L 0.48958154422003114 1.0573447512125622 L 0.5034829418374325 1.0458673115303558 L 0.4784310238997509 1.0376312717489498 L 0.4449004732538538 1.0355994882664397 L 0.40024391673326004 1.0307282885943705 L 0.4097767110116643 1.0205219095055205 L 0.41715351291700703 1.0053548538853783 L 0.38704730505667906 0.9954688332615651 L 0.35674318263637944 0.994759481318017 L 0.3548213018469666 0.9729395345073695 L 0.32980807790360733 0.9599857639296075 L 0.29539608408320944 0.9566197387388666 L 0.2837554137833389 0.9522499708859656 L 0.24736945181762762 0.9485992450476661 L 0.2137848895108279 0.9466467583510122 L 0.20143344261330212 0.9409913156326422 L 0.18580312746715666 0.9453930912106374 L 0.18206860755482746 0.9492137029614889 L 0.17654456784347744 0.9536413850808958 L 0.1747484394373173 0.9570714239015518 L 0.17578736150710095 0.9608979081553543 L 0.1754996813850063 0.9651821210535438 L 0.17458266585284568 0.9700235600761831 L 0.1778703528954966 0.977591603505338 L 0.18058620857994714 0.9811864440303634 L 0.18232595116452766 0.9934748082386743 L 0.18172094832181776 0.9957671978267856 L 0.17984470000655253 1.0009180324573606 L 0.1775397577916013 1.0051581923421802 L 0.16661642807326027 1.0017779854222428 L 0.16239581623205607 0.9979569792048562 L 0.1511252408247115 0.9963843352952402 L 0.14635130432338528 0.995481904445701 L 0.13808667188748566 0.9888182813555907 L 0.1407257276810274 0.978761307195912 L 0.14328724654271358 0.9734915911313868 L 0.145489114283303 0.9696925672242546 L 0.14766255253289925 0.9617523217363362 L 0.14966401796361678 0.9548677359835024 L 0.15081144489147347 0.9489317235196574 L 0.15049375940351267 0.9462566077597182 L 0.14852001810291268 0.943094160992225 L 0.14271351137383 0.9401748929016907 L 0.1362626144037599 0.9395426762995444 L 0.1293655013739319 0.9390310279769791 L 0.11777923393871247 0.9372158406447924 L 0.11265582847411869 0.9360660053686852 L 0.10221312269503256 0.9341234377305228 L 0.09594576587438507 0.932924055854811 L 0.09169234906918158 0.930746484687056 L 0.08437938996961943 0.9253876766429766 L 0.08113419514810698 0.9163423789939036 L 0.07803002363370955 0.9119690162137458 L 0.07562808354251463 0.9097193845983513 L 0.07173039296941996 0.9062767421941711 L 0.0667989483747202 0.9028290499311264 L 0.060426301169992716 0.8988364894362546 L 0.05724337208607493 0.8981587520052674 L 0.04716323196586772 0.8933073629055 L 0.04317662913318094 0.8922012859230323 L "/>
</svg>
