<?xml version="1.0" encoding="UTF-8" standalone="no"?>
<svg
   xmlns:dc="http://purl.org/dc/elements/1.1/"
   xmlns:cc="http://creativecommons.org/ns#"
   xmlns:rdf="http://www.w3.org/1999/02/22-rdf-syntax-ns#"
   xmlns:svg="http://www.w3.org/2000/svg"
   xmlns="http://www.w3.org/2000/svg"
   xmlns:sodipodi="http://sodipodi.sourceforge.net/DTD/sodipodi-0.dtd"
   xmlns:inkscape="http://www.inkscape.org/namespaces/inkscape"
   id="svg2"
   version="1.1"
   inkscape:version="0.47 r22583"
   width="100%"
   height="100%"
   sodipodi:docname="s4-path-rotate.xml.svg">
  <metadata
     id="metadata10">
    <rdf:RDF>
      <cc:Work
         rdf:about="">
        <dc:format>image/svg+xml</dc:format>
        <dc:type
           rdf:resource="http://purl.org/dc/dcmitype/StillImage" />
        <dc:title></dc:title>
      </cc:Work>
    </rdf:RDF>
  </metadata>
  <defs
     id="defs8">
    <inkscape:perspective
       sodipodi:type="inkscape:persp3d"
       inkscape:vp_x="0 : 0.5 : 1"
       inkscape:vp_y="0 : 1000 : 0"
       inkscape:vp_z="1 : 0.5 : 1"
       inkscape:persp3d-origin="0.5 : 0.33333333 : 1"
       id="perspective12" />
  </defs>
  <sodipodi:namedview
     pagecolor="#ffffff"
     bordercolor="#666666"
     borderopacity="1"
     objecttolerance="10"
     gridtolerance="10"
     guidetolerance="10"
     inkscape:pageopacity="0"
     inkscape:pageshadow="2"
     inkscape:window-width="783"
     inkscape:window-height="653"
     id="namedview6"
     showgrid="false"
     inkscape:zoom="0.63429569"
     inkscape:cx="321.26348"
     inkscape:cy="746.26175"
     inkscape:window-x="476"
     inkscape:window-y="56"
     inkscape:window-maximized="0"
     inkscape:current-layer="svg2" />
  <path
     style="fill:none;stroke:#000000;stroke-width:0.49999928;stroke-opacity:1"
     d="m 109.16294,161.93869 2.10011,-0.43091 0.7514,-1.0014 0.81003,-0.88396 1.06516,-0.49846 0.77789,0.28286 1.25768,0.55993 0.5013,0.48 0.94296,0.84217 0.90129,0.92731 0.13861,1.12985 0.18589,1.24379 0.0829,1.00755 0.19692,0.95257 0.27408,1.46807 0.91123,1.03323 1.13296,0.9295 0.98731,1.26688 0.86249,1.31899 0.88781,1.2364 0.29402,0.41241 1.21851,1.08698 0.7285,0.69401 1.11025,0.66294 0.60033,0.54872 1.27294,1.1354 0.24062,0.30074 0.82709,0.65584 1.18146,1.11298 0.36068,0.65428 0.50961,0.52524 1.2066,1.0422 1.6236,1.14594 0.69936,0.92512 0.0487,0.92152 -0.0606,1.37079 -0.4752,1.47529 -0.2106,1.30269 -0.36069,1.23254 -0.69642,1.17262 -0.69258,1.17647 0.41724,0.50474 1.04058,-0.30057 1.11311,-0.86898 0.74517,-0.64401 1.08582,-0.98021 1.16839,-1.1405 0.60541,-1.11548 0.26521,-0.97999 -0.42305,-0.91355 -0.54077,-1.2689 0.0722,-1.17021 0.49775,-1.06585 0.65653,-0.7897 0.77665,-0.22987 2.17828,0.85816 0.0779,0.0383 1.90968,0.8454 -0.18921,-0.6029 -0.37932,-1.20359 -0.57984,-0.99449 -2.07256,-1.50744 -1.1354,-1.04298 -1.4135,-1.06422 -1.22112,-1.06507 -0.005,-0.80167 0.26979,-0.97634 -0.24011,-0.50951 -0.99643,-0.9504 -1.34895,-0.40444 -0.82673,0.13029 -0.87449,-0.38577 -0.47749,-0.20935 -1.38674,-1.79077 -0.0968,-0.63599 -0.83491,-1.34716 -0.5185,-1.21034 -0.13757,-1.64567 -0.45421,-1.38268 -0.43532,-0.77775 -0.81506,-1.03278 -0.8388,-0.54214 -1.18344,-1.57525 -0.19803,-2.07874 0.35384,-1.06302 0.60091,-1.1704 0.79965,-0.69091 0.98626,-0.41467 1.3509,0.14146 0.44364,0.58909 0.0637,1.6525 0.45209,0.99701 0.94438,0.99931 1.37287,0.27158 0.25557,-1.41658 0.61519,-0.45504 -0.0616,0.9936 0.0749,1.55576 0.26634,0.92395 0.55225,0.94431 0.55133,1.14701 0.75528,1.53888 1.15154,1.31202 0.73447,0.52701 1.42365,1.14135 0.97309,0.6417 0.76965,0.45124 2.10381,1.17114 0.52477,0.34594 1.37227,0.84754 2.06226,1.0826 1.12259,0.95202 1.01406,1.73035 0.0985,0.77011 -0.21074,1.54378 -0.35591,1.05762 -0.24088,1.42131 -0.10575,0.97451 -0.18867,1.13765 0.16643,1.42117 -0.11133,1.38325 0.36163,1.63065 1.28023,1.39773 0.23094,0.33022 1.39722,3.15204 -0.63339,1.64282 -0.33836,1.07188 0.22162,0.75384 1.0475,-0.88922 1.02611,0.36406 0.35411,1.8963 -0.38306,1.16275 0.11104,0.38343 0.20559,1.61518 0.2933,1.24572 0.3764,1.08603 0.62047,0.80524 1.09926,0.88443 0.80774,-0.3801 1.12211,0.25107 0.93586,-0.19074 0.20129,-1.63035 -0.53414,-1.41509 0.59691,-0.94526 0.79909,0.56643 1.41249,0.12587 0.0559,-1.6389 0.43243,-1.30529 0.68965,0.10568 1.86763,1.35859 0.3216,0.0947 0.72286,-1.12774 -0.0865,-1.52616 -0.33431,-1.25729 -0.24747,-0.57222 -0.98309,-1.12413 -0.63443,-0.90754 -0.66413,-1.55022 -0.9185,-0.75573 -0.40376,-0.65685 -0.87309,-1.55719 -0.22948,-1.70126 0.45895,-1.19904 0.65876,-0.14074 1.47985,1.18451 1.12531,-0.28032 0.76686,-1.02166 0.8451,-0.97847 1.28362,-0.18626 1.86192,-0.1535 1.251,0.22835 1.54123,0.41185 1.05829,0.22556 1.18047,0.52148 0.6502,0.40856 0.86421,-0.10525 1.03414,0.4385 1.1812,-0.11881 0.82727,-0.67416 1.53957,-0.66054 1.11075,-0.61055 0.53766,0.1256 1.49963,0.0834 0.22308,-0.97152 -0.77449,-0.72542 -0.60047,-0.83421 -0.91334,-1.47938 -0.21946,-1.59592 -0.25633,-1.06144 0.45651,-1.51617 0.20895,-0.32114 0.33946,-1.60353 1.28313,-1.99566 0.52303,-0.31563 0.52218,-2.28379 0.62893,-1.12938 0.83644,-1.11018 0.66274,-0.67495 1.63787,-0.8186 0.98641,-1.13972 0.5061,-1.23953 0.81319,-0.70474 1.85868,-1.7241 0.69904,-0.68032 0.793,-1.26862 0.0439,-0.86989 1.58184,-0.30806 3.04215,0.47228 -1.77305,0.21597 1.473,0.56155 -1.07521,0.75089 1.60048,0.58981 0.95077,0.62867 1.70247,0.52088 0.98424,-0.54481 1.63162,1.00938 -1.65925,0.34792 -1.33417,0.90452 -1.58454,0.9536 0.25139,0.57842 1.07466,0.0374 1.07118,1.141 0.76657,-0.31219 0.50023,1.0563 -0.40706,1.65079 -0.82299,0.54353 1.67133,1.15564 1.83329,-0.99396 1.67613,-0.91535 1.25243,-0.0354 1.32945,-0.7797 0.48438,-0.43498 0.48699,0.1615 0.40269,0.56053 2.59361,0.0268 -0.40048,-0.67004 0.0837,-0.50384 0.60659,-0.22219 0.22026,-0.3617 -0.26106,-0.31673 -0.83018,-0.22321 -0.78338,0.21244 -0.19201,0.15953 -0.36345,-0.34145 -0.12726,-0.1737 -0.46951,0.3677 -0.47132,0.0174 -0.24264,-0.0282 -0.82856,-0.10818 -0.51549,-0.44635 -0.17751,-0.25491 -0.19253,-0.32844 -0.22402,-0.72126 0.0133,-0.17172 -0.0388,-0.74504 0.0658,-0.8595 0.0282,-0.0982 0.19379,-0.54801 0.49692,-0.33138 0.67245,-0.42705 0.72359,-0.0968 0.54424,-0.35342 0.31173,-0.30731 0.68759,-0.20972 0.28814,-0.10138 0.61922,0.0213 0.29259,0.006 0.88799,-0.0122 0.78318,-0.14463 0.62173,-0.32903 0.43747,-0.0945 0.5169,-0.10831 0.53041,-0.0329 0.23647,-0.0418 0.65309,-0.1765 0.43702,-0.30693 0.41793,-0.1337 0.26153,0.002 0.51204,0.0355 0.58078,0.0556 0.64839,-0.13935 0.84414,-0.0471 0.0457,-0.0228 0.44585,0.0196 0.73234,-0.0412 0.4243,-0.0216 0.28713,-0.061 0.3652,0.25045 -0.11822,0.4339 -0.3571,0.36355 -0.43461,0.16122 -0.85464,0.18357 -0.45458,-0.0951 -0.38581,0.24756 -0.57667,0.37158 -0.23721,0.0395 -0.44107,-0.0181 -0.56565,-0.0885 -0.63484,-0.21377 -0.27537,0.49237 0.32153,0.4813 0.13784,0.25218 0.19426,0.30379 0.19662,0.62443 0.29494,0.43901 0.49342,0.17663 0.504,0.14517 0.0336,0.01 -0.26645,0.45645 -0.40243,-0.11591 -0.62594,-0.10799 -0.19653,0.47628 -0.0865,0.25881 -0.22658,0.67934 -0.15168,0.34623 -0.31647,0.40504 -0.43734,0.33484 -0.41343,0.37715 -0.0528,0.16161 -0.41383,0.27137 -0.62538,0.0357 -0.36208,0.005 -0.47371,-0.0965 -0.57335,-0.12315 -0.60389,-0.0251 0.30325,0.29416 0.1042,0.23969 -0.73228,0.0452 -0.44137,0.26614 -0.0115,0.38305 0.27937,0.25179 0.29664,0.0812 0.31917,0.1229 0.54934,0.1871 0.4173,0.15137 0.47794,0.5213 0.1141,0.31404 0.24432,1.02041 1.43459,0.30643 0.94064,1.01736 0.52892,0.45297 0.0413,0.0392 0.30598,0.14328 0.6116,0.28736 0.41331,0.14865 0.46228,0.16433 0.3468,0.10332 0.35238,0.32383 0.15893,0.48475 0.1521,0.3463 0.17362,0.51685 0.18983,0.54852 0.19907,0.44234 0.10232,0.24985 0.26491,0.24666 0.27019,0.2445 0.45667,0.41158 0.53246,0.49368 0.25014,0.21507 0.22567,0.28848 0.28299,0.27982 0.45497,0.25358 0.31255,0.34584 0.2589,0.1922 0.26955,0.16772 0.32429,0.24104 0.37147,0.33913 0.46294,0.2334 0.0977,0.0321 0.17748,0.27621 0.27943,0.30872 0.23132,0.12991 0.70791,0.34261 0.0495,0.0164 0.39469,0.43465 0.30243,0.45998 0.19957,0.50951 -0.0146,0.41009 -0.11618,0.45862 -0.0822,0.44237 -0.0349,0.54131 -0.0652,0.47556 -0.0233,0.21333 0.16746,0.22367 -0.0263,0.29564 -0.0665,0.25403 -0.0382,0.40239 -0.12849,0.42649 -0.0988,0.27039 -0.24145,0.35916 -0.29649,0.28415 -0.39288,0.25056 -0.41621,0.43503 -0.009,0.0243 -0.46188,0.44659 -0.449,0.0652 -0.40906,0.16136 -0.14554,0.0324 -0.37122,0.0648 -0.26171,0.2128 -0.44865,0.2858 -0.20385,0.1223 -0.27498,0.0979 -0.42357,-0.008 -0.32721,-0.057 -0.24408,0.16332 -0.48283,0.16422 -0.23692,-0.0802 -0.31584,-0.0791 -0.29226,-0.0709 -0.23644,-0.0791 -0.27176,-0.28135 -0.21381,-0.0714 -0.28367,-0.094 -0.50987,-0.19455 -0.59696,-0.16744 -0.40305,0.0318 -0.38602,-0.0167 -0.5407,0.0714 -0.1805,-0.004 -0.50266,0.19203 -0.47841,0.28149 -0.26584,0.10546 -0.19503,-0.0345 -0.46,-0.0904 -0.34363,-0.0539 -0.42145,-0.13181 -0.16384,-0.051 -0.4212,-0.13059 -0.56076,-0.25219 -0.04,-0.36175 -0.0782,-0.0776 -0.30408,-0.0921 -0.14773,0.0628 -0.19391,0.20961 -0.32712,-0.0983 -0.62484,-0.37388 -0.27323,-0.10779 -0.31159,-0.0648 -0.32934,-0.25727 -0.0901,-0.37485 -0.11075,-0.13945 -0.28369,-0.24307 -0.81147,-0.0995 -0.20734,0.18144 -0.13942,0.0409 -0.69949,0.0411 -0.21427,-0.22044 -0.34433,-0.46962 -0.22412,-0.27563 -0.0342,-0.48874 -0.0162,-0.37765 -0.04,-0.38422 -0.30208,-0.18955 -0.21292,-0.0582 -0.35781,0.0881 -0.45177,0.0626 -0.66548,0.007 -0.35365,-0.27992 -0.4233,-0.21791 -0.35258,-0.19866 -0.19179,-0.31568 -0.0444,-0.38354 0.15286,-0.35792 0.13742,-0.12312 -0.10779,-0.16108 -0.2622,-0.0687 -0.18777,-0.15475 -0.28394,-0.17944 -0.048,-0.0121 -0.17219,0.43249 -0.18533,0.29657 -0.16433,0.0373 -0.54162,-0.0849 -0.19227,-0.0486 -0.51197,-0.10236 -0.84762,-0.18566 -0.56809,-0.0874 -0.49196,0.0118 -0.9358,-0.0675 -0.57383,-0.0834 -0.39651,-0.17259 -0.35726,0.0752 -0.32722,0.16182 -0.57184,0.10573 -0.30387,0.0632 -0.45271,0.0301 -0.40976,0.067 -0.68451,0.21894 -2.53271,1.12777 -1.36388,0.46695 -1.17531,0.0505 -1.58527,0.20629 -0.88173,-0.0663 -1.42467,-0.32862 -1.0526,0.0424 -1.15077,0.19666 -0.46907,0.87735 0.48111,0.97938 -0.74294,0.36394 -1.91348,1.09316 -0.92394,0.0302 -1.06605,-0.0607 -0.85291,-0.23916 -0.87929,-0.0374 -1.52331,0.19416 -1.86029,0.0964 -1.98525,0.14038 -1.2236,1.69636 -0.22579,1.03662 -0.3851,1.79715 0.92853,0.25925 1.41908,-0.39251 0.40151,-0.17441 1.06286,1.00673 -0.37708,0.62011 -1.15278,1.41929 -0.23553,1.03989 0.43886,1.69763 -0.54018,0.73871 -1.09664,-0.27295 -0.44468,-0.0674 -1.80554,0.92232 0.95978,1.15592 1.208,0.88881 1.73694,2.24804 -0.29222,1.13672 0.73951,1.16761 2.26812,-0.12293 1.66715,-0.0689 1.98832,2.09391 0.46308,1.13127 0.8968,0.88765 2.45352,0.69187 0.48035,-0.78425 0.66045,-0.75931 0.74027,-1.03831 0.54854,-0.724 0.86162,-0.59761 1.87021,0.75162 2.89624,2.39854 0.0652,0.0523 1.63061,0.85373 2.3177,0.73674 1.21428,-0.16427 1.07182,-0.39749 0.95956,-0.37171 1.60883,-0.41033 1.48563,-0.51044 1.09029,-0.37163 1.35884,-0.13942 1.15413,1.83773 -0.86643,1.40167 -0.80919,1.33488 -1.53059,1.18346 -0.247,0.99203 0.15907,1.4806 -0.1013,1.25555 -0.39597,2.35484 -0.45959,1.19465 -0.54183,2.63545 -0.72018,1.47917 -0.8758,1.08668 -1.12684,2.01691 -0.59394,0.98849 -0.87466,1.64249 -0.44402,0.75586 -1.01451,1.40088 -0.6976,0.52058 -0.74039,0.0815 -0.94351,1.72273 -2.98976,0.083 -1.30613,-0.22354 -2.51792,-1.69658 -0.62148,-0.8281 -0.98997,-0.4528 -2.32615,0.15249 -1.86623,0.35209 -1.66715,0.50926 -1.46036,0.1807 -0.66264,-0.0192 -1.97332,-0.52839 -2.46837,-0.5618 -2.30529,-0.58102 -2.0798,-1.19508 -2.08323,-1.17385 -1.33961,-0.62915 -1.81033,-0.94632 -2.19243,-1.18835 -2.26347,-1.05331 -2.34402,-1.38885 -0.2867,-0.18658 -1.81046,-0.70406 -0.6374,-0.25253 -1.84492,-0.3952 -3.08641,-0.22175 -1.70744,0.34164 -1.35577,1.17586 -0.53008,1.06213 -0.23993,2.77619 -0.35696,1.48212 -0.19792,0.65358 -1.74547,2.51796 -1.13162,0.25977 -1.95644,-0.36884 -0.29473,-0.1704 -1.79667,-0.7167 -2.25538,-1.10402 -0.50319,-0.27617 -1.72284,-0.93268 -1.08054,-0.42155 -2.28564,-0.88513 -0.39235,-0.81351 -1.04288,-2.20757 -0.47468,-2.0621 -0.46111,-0.98731 -1.71694,-1.44596 -1.41982,-0.98367 -0.99619,-0.47103 -1.17318,-0.39635 -1.80699,-0.52567 -2.52415,-0.82296 -0.46463,-0.20306 -2.11429,-0.90867 -1.63692,-1.74164 -2.07664,-1.8622 0.90098,-2.09136 1.16249,-1.38109 1.49033,-1.52335 0.0856,-1.57353 -0.69399,-1.91721 -0.20458,-0.81858 0.22161,-3.24287 1.32964,-1.01792 1.00105,-1.16149 -0.0148,-1.60409 -1.15976,0.22567 -1.7242,0.99866 -1.31976,-0.9903 -0.4668,-0.48294 -1.69067,-0.69851 -3.141,-0.26979 -1.96371,0.78649 -0.62912,0.32076 -1.27484,0.35342 -2.58188,0.14023 -1.020789,0.0378 -2.08783,-0.49408 -1.42055,-0.23698 -1.92247,0.15167 -0.64002,0.0535 -1.79471,-0.20705 -2.17118,-0.18299 -2.35016,-0.77966 -3.38055,-0.66554 -0.52902,0.11164 -3.24908,0.94435 -1.32195,0.29886 -2.11651,0.49166 -1.43408,0.69914 -1.68861,1.60509 -1.01168,0.97023 -1.43163,0.7259 -0.90261,0.59498 -2.27358,0.66824 -1.26001,0.10479 -1.1129,0.008 -2.28484,-0.25751 -0.23436,-0.0536 -2.27344,-0.36762 -0.76253,-0.44242 -1.5232,-1.43139 -0.61015,-1.09593 -0.73906,-1.11948 -1.59689,0.23675 -1.03055,1.04976 -1.62396,1.36624 -0.29616,1.20082 -0.5444,1.15999 -0.50164,2.01405 -1.14346,1.49344 -1.36158,1.3311 -5.80477,4.1682 -2.82105,2.23263 -1.51432,4.77563 -0.86063,4.89546 -1.7496,4.14659 -3.04629,2.05944 -2.65073,1.75212 -5.29315,3.50801 -3.42067,2.37274 -3.60914,3.5551 -3.67248,3.94451 -2.57453,3.4065 -0.93734,5.79352 -0.71173,4.21722 -0.5975396,3.43381 -0.47424,2.66195 -3.55073,6.71233 -0.0803,3.91738 -0.73591,3.77424 -0.59366,4.58847 -1.88019,5.90862 -0.72658,3.39888 -1.07889997,4.91915 -0.54299,3.85119 1.24652997,2.99666 1.55549,4.25057 1.2949,3.81912 0.67427,4.91832 2.00125,3.18553 1.27931,2.25808 1.44875,3.91987 0.7369096,4.21199 1.36145,5.19431 1.76136,2.42809 2.58353,2.62654 2.27201,2.59048 1.17856,1.10691 4.15209,3.09541 0.56798,2.25539 2.40135,1.88818 3.9359,1.48226 5.16835,-4.46761 4.95411,0.65454 3.37305,2.34377 3.91946,1.30618 4.92077,-0.4092 4.87511,-2.46369 3.11324,-2.20613 4.92942,-1.45942 3.96326,-0.94003 3.65703,1.49896 1.25628,3.06934 1.40522,4.88727 1.05587,0.46333 5.92571,3.55218 4.96408,0.58989 1.78727,3.9675 -1.75418,2.26288 -3.68282,5.41088 -0.48399,4.81076 0.89958,5.60913 -0.26843,7.05902 1.33484,5.65841 2.06741,7.26943 1.66552,6.77071 1.4536,6.88821 1.0235,4.02081 1.86224,10.59313 -0.0457,8.60751 -0.61027,-3.58053 -4.27187,9.16368 -2.59745,3.78616 -1.81673,6.92766 0.34189,6.59716 -1.01514,3.26954 -0.21894,6.46319 -0.16128,8.21805 1.20268,5.89993 2.64484,7.35245 0.48629,4.48006 0.32986,4.03448 -0.10984,6.5794 0.21692,7.75583 -0.54271,3.9452 0.16862,7.12133 1.43502,5.3585 1.93666,2.68786 3.4005,6.26755 -0.15077,9.733 0.7212,1.33966 5.430429,4.27275 2.21908,1.42106 4.04258,1.61549 7.39329,1.89614 5.3006,-4.81947 0.94084,-1.19815 4.31638,-3.96637 6.1013,-4.15258 5.62193,-3.73049 3.26442,-2.62558 3.19039,-2.14116 3.81508,-4.24016 1.72602,-2.15966 2.91908,-8.54809 1.78419,-5.17891 2.10729,-2.35615 3.64613,-3.12908 3.66271,-3.11324 1.10484,-5.22949 0.25312,-6.28587 0.51788,-3.19699 0.99754,-3.86122 1.08409,-4.22536 2.87756,-2.43345 6.24276,-3.12438 1.73656,-3.62215 3.07186,-2.85156 6.26819,-3.69692 -0.5084,-5.04506 1.73846,-6.52107 1.20684,-5.42969 -0.13659,-5.73712 1.53036,-6.19498 0.77733,-7.20436 -2.51005,-5.42664 -0.48704,-4.61639 0.68553,-4.81824 0.61734,-4.45014 1.67577,-4.29569 3.76545,-6.13348 3.17384,-5.09499 4.77445,-5.02354 4.32814,-4.37891 3.03927,-3.16251 1.64155,-1.22396 1.57566,-1.35522 1.16332,-1.04328 1.58096,-0.9351 2.22193,-1.54859 1.79772,-1.63167 3.77003,-4.19164 6.56711,-10.04089 0.33394,-1.28436 0.31814,-1.65765 1.20351,-1.17653 0.73645,-1.04678 0.69189,-0.80955 1.23316,-1.28456 1.0738,-1.81602 1.30344,-2.48983 0.45226,-1.3556 1.82498,-3.20495 0.43037,-2.09076 0.43378,-2.08752 0.69901,-1.16571 0.69259,0.17476 0.0196,-2.67866 0.44548,-2.08281 0.27558,-2.12482 -1.59907,-0.63317 -1.06288,0.71418 -0.64051,0.45177 -1.46148,-0.35258 -1.49191,0.2482 -1.21742,0.67727 -0.88629,0.39362 -1.29796,-0.18626 -0.76305,-0.1794 -1.70196,0.0847 -1.16304,0.93425 -1.17929,-0.27212 -0.94878,-0.0971 -1.17043,0.57453 -1.31296,0.42338 -0.58687,-0.13209 -1.11214,-0.1289 -1.49909,0.50699 -0.88218,0.0455 -0.52468,0.005 -1.64767,0.84002 -1.27667,-0.15518 -1.08733,-0.23203 -0.51859,-0.46916 -0.63658,-1.21169 -0.51487,-0.94551 -0.0862,-1.8119 0.16487,-1.75923 0.22186,-1.14939 -0.005,-1.79457 -0.46851,-2.13116 -0.56647,-0.71593 -0.86577,-0.53811 -1.22455,-1.44884 -0.24997,-1.48912 -0.74361,-1.23143 -1.0467,-1.05313 -0.73082,-1.83097 -0.93248,-2.23643 -0.50007,-0.70456 -0.97694,-0.55944 -0.63233,-0.48991 -1.0805,-1.54845 -0.66476,-0.86094 -0.63475,-1.58539 -0.24759,-1.75532 0.0516,-0.84431 0.004,-2.20301 0.0299,-0.73053 -0.0696,-1.24436 -0.23052,-1.4041 -0.50275,-1.46475 -0.85526,-1.04571 -0.53281,-1.35532 -0.55973,-0.61555 -1.18135,-2.12582 -1.06958,-1.73625 -0.2478,-1.57128 0.71045,-6.37975 0.1214,-0.88037 0.43958,-2.5095 -0.30389,-1.37992 -0.81422,-2.82907 -0.46435,-1.8415 -0.9898,-0.899 -0.80256,-0.85947 -1.17482,-1.22146 -0.83362,-2.65512 0.22476,-2.155 0.0971,-0.9498 0.21908,-2.187 -0.51785,-1.1155 -1.31232,-6.89031 -1.78356,-4.33589 -1.32983,-3.79942 -1.73167,-6.52987 2.19132,-1.00972 1.87489,4.47771 2.1894,0.29167 2.97674,-5.484 -0.098,1.70414 -0.39627,5.45292 1.26808,3.81454 0.84796,4.06527 0.65386,2.305 3.38,4.86527 4.39987,6.42975 0.89794,4.39028 0.24943,6.56367 0.70141,3.86331 0.25324,3.29337 0.70755,5.83519 1.45935,7.27819 1.10127,4.36734 1.62792,4.56764 0.45474,4.53556 0.41207,5.71836 0.66382,3.83887 0.92971,3.95624 2.32371,0.11907 2.27541,-0.69512 3.4016,-3.45208 2.52829,-1.39327 6.93567,-1.61338 3.72517,-0.898 3.84715,-2.07268 1.60554,-0.96867 6.68033,-1.3188 2.9849,-3.7218 5.43574,-3.57775 3.65959,-3.11321 2.84428,-2.6434 4.98348,-2.23459 3.67476,-3.25524 2.13032,-3.06018 0.86049,-5.35598 3.65307,-4.33911 -0.0922,-3.16158 -4.36432,-3.43748 0.0259,-0.88362 -3.55929,-4.90507 -0.35446,-4.1788 -2.97056,-1.08251 -5.51589,5.54216 -3.97607,2.46229 -4.17267,0.61009 -3.35455,-9.05506 -1.36622,-3.56403 -0.45747,-0.60497 -2.74227,-4.51441 -1.98322,-3.81517 -1.83413,-6.03349 2.67941,-4.08053 2.53099,-0.0413 3.71401,4.97533 3.34866,6.63886 1.53781,2.35215 4.72667,3.49396 1.1101,0.84959 6.73476,1.06698 3.18058,-2.52217 2.71188,4.18654 0.58937,2.0429 4.94499,6.36543 3.60936,-0.50182 4.80232,-0.0905 5.35381,0.078 9.11318,2.3411 2.46452,0.88548 2.34261,5.17114 1.0172,4.30775 2.83789,5.63134 3.17458,4.58196 1.98925,0.13526 2.66714,-2.96004 5.50395,-0.95866 1.45073,4.26887 -1.70817,6.04493 -1.53026,4.88979 -0.60325,5.01553 0.2144,4.628 0.75713,9.15091 0.29445,5.79663 0.84509,3.83719 2.44102,8.80818 1.18746,3.75104 2.10622,5.96784 1.13368,3.88495 2.07521,4.64089 3.26803,-0.23917 3.13551,-4.98766 2.58365,-3.71014 4.29829,-6.81738 0.54704,-4.03524 1.53733,-7.58033 1.00476,-4.96791 2.34398,-4.38429 1.91967,-1.38086 4.08381,-3.91575 3.83655,-2.63895 6.41924,-5.1779 2.51314,-3.08533 3.09462,-3.52367 2.78295,-2.8352 3.92943,-2.3687 4.09986,-1.29336 3.65,-1.63824 3.39493,-0.44805 3.5696,4.38524 1.28214,3.44105 0.76252,6.3367 -0.42841,5.34068 1.65174,4.85406 0.67487,2.07103 -0.79656,7.57457 0.0579,4.01422 4.73538,-1.44031 3.42307,-0.18925 3.86088,-2.25443 1.76089,3.73623 0.17144,15.60717 -0.83852,5.45764 -1.07727,6.90667 -0.8692,6.73225 -0.57614,7.22698 1.09095,6.47229 1.2149,5.60313 2.36509,7.18732 3.88623,6.22779 4.23988,6.24673 2.54329,-3.09759 -0.93278,-5.67442 -1.97256,-11.08077 -1.14949,-6.13798 -0.96015,-3.46993 -2.8112,-5.56261 -1.60225,-6.84351 -0.33472,-5.8363 0.6605,-6.79842 2.15943,-5.63927 4.84532,-0.69375 2.0712,5.38949 3.68232,5.08901 1.39383,6.50076 2.38158,4.95614 3.41571,0.55196 3.30676,-3.53661 3.26835,-4.13413 3.05511,-2.69999 2.70515,-3.65513 1.84191,-4.60226 0.57975,-6.48405 -0.88469,-6.34005 -1.7465,-5.55104 -0.51996,-2.12425 -2.36155,-7.11798 -1.36547,-5.51659 -0.42642,-4.03969 1.92772,-3.3095 4.48548,-4.01743 3.13179,-0.15399 4.37716,1.01563 2.69295,1.70139 3.55337,-0.35943 6.17974,-3.57875 4.9456,-1.52538 2.69135,-0.69405 5.43154,-1.92188 1.8597,-1.27747 5.10548,-3.02789 1.97105,-2.50778 3.21548,-3.9722 4.68801,-4.95161 1.61325,-2.98831 2.23937,-4.74136 4.46936,-5.82194 1.64709,-4.92305 -3.21767,-3.22561 0.56491,-5.84847 -0.46568,-7.32932 -2.61185,-5.16901 3.97161,-5.71839 3.76311,-2.85713 0.72329,-4.0724 -4.7993,-1.71103 -5.07272,-1.34837 -1.8368,-4.2427 4.45701,-2.04175 8.08995,-5.86983 1.68717,1.02999 -1.26002,5.8247 4.03523,0.57381 4.80129,-0.88252 3.84073,2.347 0.25874,5.07541 -0.87005,4.05074 0.31898,6.61403 -0.99067,5.27292 1.6949,4.18188 6.20801,2.73901 3.84656,-4.91046 0.84628,-3.60685 1.26343,-4.34117 -0.76942,-6.27154 -0.14758,-6.59088 1.03351,-6.79854 6.50126,-4.05058 5.56563,-7.30932 6.60087,-0.77821 4.55984,-2.69441 1.87811,-0.88318 4.18348,-2.77482 6.77617,-3.69558 4.3971,-5.6114 0.009,-0.87535 4.97173,-6.06908 2.31322,-5.48832 1.87185,-3.58271 1.47071,-3.43212 4.22017,-7.15543 2.20521,-4.82522 -5.03303,-3.29089 -4.93628,-1.95375 -8.2367,-1.19751 -4.69137,-5.25419 8.35717,-1.95089 3.85566,-3.32664 1.61199,-1.75756 6.78446,-6.12966 3.11894,-1.2235 2.60948,-2.23413 3.66464,-0.59216 0.53366,0.1697 1.47207,-0.28979 4.87847,0.19386 2.59744,1.00245 -0.20203,0.91759 1.77277,-0.0737 -0.38458,-0.72366 0.78948,-0.49497 1.39357,0.38539 2.46139,0.85545 2.07144,-0.61198 0.95146,0.95397 1.82092,0.31594 1.01654,-1.41853 2.05375,-1.07188 2.12516,1.89702 1.64818,0.6796 2.21405,-0.68899 1.52985,1.44763 0.83989,0.85856 -3.23397,0.007 0.5359,1.4052 3.61163,-0.17434 1.93881,-0.072 1.27304,-0.74595 1.40425,0.12687 1.55771,0.74773 1.45419,-0.46165 1.51082,0.0775 0.7121,-0.68756 -1.01962,-0.79127 -1.17613,-0.62069 -0.19289,-2.05428 7.77021,-4.93121 1.91561,-1.80388 3.6687,-0.75594 4.13912,-0.0202 2.46204,0.49179 1.45345,0.28269 1.42551,1.07358 -2.03765,1.03039 -0.0625,1.70734 1.84592,0.34571 -0.85136,1.125 1.37284,0.18883 3.21542,-2.04574 7.02569,-3.67212 0.67274,-2.16666 3.54371,-0.16717 0.92298,0.66286 -1.4055,0.96807 -2.96031,5.55793 -2.86583,1.5558 -5.62804,2.78965 -6.20792,4.5675 -6.62482,4.12067 -2.11133,0.1382 -1.3043,1.16895 -1.34149,-0.37111 -0.65281,0.22722 0.10647,1.73108 -3.60466,2.63803 -2.11583,3.92025 -0.74282,5.20105 0.31385,6.06298 0.14793,5.92467 0.57741,1.4511 -0.0147,4.70682 0.39679,2.12813 2.96294,-1.91506 3.94351,-3.77858 0.46225,-2.45957 2.64468,-2.00682 1.88073,-0.13308 1.07668,0.82961 0.4834,-1.72792 -0.58689,-1.84965 0.90965,-1.63846 1.78213,-1.15208 2.34335,-0.76452 0.21563,0.89377 2.72114,-0.30082 0.96815,-1.38423 -0.27571,-1.37779 -0.56596,-1.26263 0.51392,-1.31591 1.82525,-2.56594 2.06602,1.37597 1.60145,-1.15318 0.15507,-2.62851 -1.20216,-0.1153 -0.10957,-1.04495 -0.10377,-1.72043 0.52092,-0.6578 1.39221,-0.41927 0.65018,-1.02256 -2.1795,-1.11063 -1.0154,0.50548 -1.58807,-1.52297 2.00729,-2.89137 3.3124,-1.60333 0.62903,-1.89476 0.54145,-1.37981 1.53986,-0.827 3.05367,1.15184 2.3516,-1.20437 2.95722,-1.02757 -0.71009,2.66392 0.83084,-0.0561 1.07019,-0.64656 2.28463,-1.36707 4.23248,-0.88315 1.62927,0.18332 2.07526,0.19885 1.16846,0.82727 0.95169,1.88734 1.31411,0.81109 1.16511,-1.93851 6.39049,-2.77184 9.78703,-3.4879 8.98076,-3.17275 5.70467,2.78223 3.02971,-2.20956 -3.98192,-9.12898 5.47918,-0.91463 3.19202,-21.32129 -13.43781,-6.294313 -15.34185,-0.449364 -13.80008,-1.287315 -4.88503,0.156889 -16.56976,-0.136468 -11.15026,-3.082545 -4.85915,-5.243321 -5.87903,-4.055318 -17.23913,-3.684681 -8.72544,-3.75197 -9.79473,-4.384901 -12.24779,-2.937252 -10.53711,2.434666 -5.78206,1.409541 -13.1695,1.72808 -11.20458,0.169695 -4.06837,-4.069088 2.67127,-4.436438 -1.92283,-1.437634 -15.31669,-3.01047 -14.02499,-1.579711 -4.11183,0.06349 -16.74095,-3.44153 -8.93559,-0.892402 -19.93515,0.780519 2.89858,-5.595616 14.97002,-3.583679 -1.86993,-4.650847 -3.39389,-0.732923 -23.64886,-5.225508 -20.75796,-0.340377 -14.6598,0.729425 -10.98807,0.927317 -20.23387,2.25271 -13.2051,3.517213 -2.44338,3.687817 -11.04107,2.984513 -10.06106,-2.355885 -6.35884,-2.226769 -16.65191,-0.08184 -5.35034,2.392867 -2.60829,7.508743 -5.58101,5.880984 -2.68499,2.208802 -13.4579,-5.04452 -6.79915,-1.806968 -10.36192,-0.786273 -6.08471,3.062788 -11.07262,1.295686 -14.1004,1.664694 -8.53921,2.932841 -14.77617,4.146746 -11.45748,4.125862 -10.53317,-0.358 -3.31609,-3.35756 -4.23497,-5.353748 5.5392,-1.706172 10.64024,1.855818 9.52184,1.064925 3.52218,-4.141897 -1.9639,-3.801549 -4.87897,-1.933832 -11.18393,-3.924397 -10.49639,-5.908868 -7.37135,-4.096363 -7.95316,-4.039345 -8.1864,-1.499514 -9.54594,-0.948298 -9.49627,0.316997 -9.48117,2.934531 -3.96238,3.058571 -9.50918,1.891344 -1.62255,2.143317 -5.10666,6.75881 -5.6312,5.525643 -4.00377,3.409637 -7.5542,5.637791 -7.81376,2.313531 -2.57156,0.817995 -5.43009,4.871827 0.80703,5.575592 0.0577,6.845696 3.60425,4.631823 5.56264,0.680982 6.25485,-2.398251 6.58794,-0.01593 1.71114,5.189622 1.92559,5.488418 0.9956,6.747942 3.35474,-0.5301 5.23606,-3.11812 6.51034,-5.500029 2.78598,-4.170435 1.67509,-6.025168 -2.0535,-4.640725 -1.83272,-4.887996 1.89803,-5.122546 1.30321,-0.253029 11.01525,-4.74878 7.45614,-4.89494 6.82268,-3.189616 4.06557,2.238999 -3.23606,3.955445 -5.34398,4.091119 -6.47162,5.460652 -1.91528,4.198037 -0.32209,5.382215 6.51972,3.344302 10.64107,-1.817797 6.18789,1.226261 2.39862,3.561783 -5.4543,1.792991 -6.94815,-0.154928 -9.33847,0.408697 1.55351,3.10539 0.91776,4.466805 -6.55408,2.150063 -6.23555,-0.4595 -1.24746,6.15278 -5.6308,3.13209 -7.18101,0.20514 -2.55559,0.98678 -7.59653,0.24299 -6.95619,-0.17825 -2.75148,1.33608 -3.02964,-1.5906 -0.61561,-1.16624 -0.95835,-1.37758 -0.23371,-1.01294 0.36254,-1.06356 0.10869,-1.2225 0.002,-1.39435 0.96965,-2.07685 0.69704,-0.9614 0.83724,-3.450725 -0.0343,-0.663904 -0.18276,-1.503281 -0.30628,-1.254007 -2.36989,0.721361 -1.01418,0.992732 -2.37033,0.20078 -1.01327,0.152088 -1.95382,1.711667 0.1471,2.912739 0.31864,1.55203 0.30243,1.12656 0.13448,2.30156 0.14052,1.9983 0.003,1.71024 -0.16974,0.75252 -0.52809,0.85464 -1.30378,0.70207 -1.34622,0.0389 -1.43288,-0.006 -2.44447,0.2626 -1.09444,0.21476 -2.21522,0.32388 -1.33079,0.20372 -0.95653,0.52557 -1.70774,1.36193 -1.01868,2.49711 -0.807,1.17379 -0.58006,0.58641 -0.93316,0.89245 -1.14511,0.87135 -1.461659,0.99463 -0.67853,0.12299 -2.25473,1.15737 -0.85993,0.22705"
     id="path4" />
</svg>
