<?xml version="1.0" encoding="UTF-8" standalone="no"?>
<!DOCTYPE svg PUBLIC "-//W3C//DTD SVG 20010904//EN"
"http://www.w3.org/TR/2001/REC-SVG-20010904/DTD/svg10.dtd"
[
 <!ATTLIST svg
  xmlns:xlink CDATA #FIXED "http://www.w3.org/1999/xlink">
]>
<!-- Created with Sodipodi ("http://www.sodipodi.com/") -->
<svg
   xmlns="http://www.w3.org/2000/svg"
   xmlns:xlink="http://www.w3.org/1999/xlink"
   version="1"
   x="0"
   y="0"
   width="744.094"
   height="744.094"
   id="svg1">
  <defs
     id="defs3" />
  <g
     transform="translate(0.574226,-93.5067)"
     style="font-size:12;"
     id="g131">
    <path
       d="M 434.263 564.582 C 450.203 541.461 464.273 541.35 474.049 526.143 C 475.048 522.919 474.361 520.746 472.978 519.711 C 471.594 518.676 469.514 518.78 467.727 520.109 C 463.053 523.432 457.83 530.385 449.655 526.617 C 457.821 517.539 463.854 518.167 455.548 500.262 C 462.201 494.486 454.854 480.664 462.907 484.737 C 478.262 491.653 478.18 480.831 492.721 474.076 C 517.379 452.618 527.733 430.224 533.164 410.13 C 538.595 390.035 516.941 373.096 514.225 361.148 C 511.51 349.2 520.881 340.938 518.166 328.447 C 514.872 320.578 513.22 319.191 480.091 299.64 C 446.963 280.089 382.335 273.029 342.689 270.856 C 303.044 268.684 264.485 278.46 259.054 282.804 C 253.623 287.149 250.907 287.692 241.675 292.037 C 232.442 296.382 228.641 296.382 218.865 315.39 C 222.741 324.622 224.816 346.077 215.963 363.18 C 225.851 388.901 234.707 405.744 218.564 421.835 C 217.478 451.705 214.96 460.834 230.004 495.892 C 230.594 513.71 240.721 535.503 240.45 553.34 C 256.933 584.464 258.973 590.834 260.14 603.227 C 249.821 608.658 253.623 624.408 260.683 624.951 C 267.743 625.494 269.915 615.718 274.26 610.83 C 279.691 620.606 297.07 646.397 343.776 649.656 C 352.184 645.977 355.748 650.844 368.574 649.761 C 374.062 649.23 373.906 640.938 377.039 642.356 C 380.823 645.11 386.774 645.741 387.214 640.966 C 387.252 638.344 386.853 633.115 394.113 637.611 C 397.2 640.976 404.852 633.453 409.379 632.15 C 415.353 627.805 416.695 623.55 422.031 617.168 C 422.008 616.873 417.514 608.294 415.471 608.294 C 413.428 608.294 408.526 609.52 408.526 607.069 C 408.526 604.618 408.526 603.392 406.075 602.575 C 403.624 601.758 399.13 605.026 398.721 602.167 C 398.313 599.307 397.904 596.447 394.636 597.264 C 391.368 598.081 388.917 598.49 387.283 594.813 C 385.649 591.136 383.197 594.813 378.295 596.447 C 373.393 598.081 355.826 595.63 351.741 594.813 C 347.656 593.996 349.698 591.545 343.979 592.77 C 338.26 593.996 330.498 588.685 327.638 587.051 C 324.778 585.417 323.144 580.923 327.638 578.881 C 332.132 576.838 341.528 576.021 362.771 576.429 C 384.014 576.838 387.691 574.387 390.959 571.936 C 394.228 569.484 394.228 567.85 397.496 568.259 C 400.764 568.667 400.764 571.936 403.624 571.119 C 406.483 570.302 404.849 566.216 410.977 571.119 C 417.105 576.021 419.556 579.289 421.19 574.387 C 422.824 569.484 421.19 567.85 425.684 573.57 C 430.178 579.289 426.501 578.064 434.263 564.582 z M 72.2309 419.12 C 102.101 415.861 99.9285 414.775 105.902 409.887 C 111.876 405 117.85 406.629 123.824 403.913 C 129.798 401.198 133.6 396.853 138.488 394.681 C 143.376 392.508 149.893 387.078 159.668 368.069 C 169.444 349.061 168.358 349.604 165.642 337.656 C 162.927 325.708 156.953 313.76 156.953 303.985 C 156.953 294.209 157.496 286.063 165.099 280.089 C 172.702 274.115 169.444 273.572 168.901 264.339 C 168.358 255.107 171.073 239.357 180.306 230.668 C 189.538 221.978 188.452 217.091 192.797 210.03 C 197.141 202.97 201.486 201.341 208.546 196.996 C 215.607 192.651 224.839 188.307 236.787 176.902 C 248.735 165.497 251.45 167.126 268.829 160.066 C 286.208 153.006 296.527 149.204 316.078 148.661 C 335.629 148.118 348.12 148.118 356.267 145.403 C 364.413 142.687 369.844 142.687 373.102 142.687 C 376.361 142.687 377.99 143.23 379.076 149.204 C 380.163 155.178 383.964 150.29 386.137 148.661 C 388.309 147.032 394.283 145.946 398.085 147.575 C 401.886 149.204 413.834 154.092 427.955 154.092 C 442.075 154.092 441.532 152.463 451.85 160.609 C 462.169 168.756 484.979 182.876 495.841 184.505 C 506.702 186.134 524.081 190.479 538.745 196.996 C 553.408 203.513 588.709 225.237 600.657 242.616 C 612.605 259.995 610.976 262.167 610.976 265.969 C 610.976 269.77 613.148 274.115 616.407 277.373 C 619.665 280.632 633.242 293.123 636.501 300.726 C 639.759 308.33 640.846 317.019 640.846 320.821 C 640.846 324.622 643.018 331.682 645.733 339.286 C 648.449 346.889 651.164 370.785 648.449 382.19 C 645.733 393.595 643.561 394.138 650.078 399.569 C 643.561 402.827 638.13 404.456 638.673 408.258 C 639.216 412.06 638.673 415.861 649.535 415.861 C 647.906 419.663 647.363 423.465 648.992 426.723 C 641.932 428.352 632.699 431.068 645.19 438.671 C 647.363 441.93 650.078 448.99 652.794 435.956 C 654.966 446.817 661.483 453.878 681.034 463.11 C 678.862 465.826 676.69 468.541 672.888 469.627 C 679.405 473.972 681.577 475.601 682.12 478.317 C 671.259 477.23 668.543 478.86 669.086 487.006 C 664.742 488.635 663.112 489.721 663.112 498.954 C 663.112 508.187 672.345 548.918 654.966 585.848 C 637.587 622.778 637.587 626.58 638.13 639.071 C 638.673 651.562 633.785 656.993 628.355 670.027 C 622.924 683.061 621.294 691.751 612.062 695.552 C 602.829 699.354 596.312 706.957 590.881 698.268 C 585.45 689.578 575.675 700.983 571.873 702.069 C 568.072 703.156 557.21 709.13 553.408 709.13 C 554.494 725.422 549.607 738.456 560.468 748.775 C 571.33 759.094 574.046 759.094 576.761 764.525 C 564.813 765.611 559.925 769.413 558.839 773.214 C 552.322 768.326 539.288 758.008 542.003 767.783 C 544.719 777.559 546.891 782.447 550.693 787.878 C 498.556 787.335 374.189 788.421 323.138 788.421 C 243.304 753.12 235.701 749.861 221.581 749.861 C 186.28 727.595 167.815 712.388 160.211 706.957 C 160.211 702.069 169.444 702.069 167.272 692.837 C 165.099 683.604 161.298 675.458 159.668 672.2 C 158.039 668.941 153.151 670.027 152.065 672.2 C 150.979 674.372 151.522 673.829 150.436 676.001 C 142.833 676.001 140.117 676.001 136.859 676.544 C 138.488 668.941 143.376 662.424 140.66 655.364 C 136.315 661.881 133.6 664.596 131.971 664.596 C 130.341 664.596 127.626 665.139 127.626 668.398 C 127.626 671.656 124.368 674.372 122.738 674.915 C 121.109 669.484 128.169 663.51 128.712 658.622 C 129.255 653.734 125.997 651.019 121.652 651.019 C 117.307 651.019 96.6699 648.847 94.4976 641.787 C 92.3252 634.726 85.8081 630.382 86.3512 624.408 C 90.1529 627.123 92.3252 631.468 99.3854 622.778 C 104.816 626.58 109.161 625.494 106.989 621.692 C 104.816 617.891 89.0667 608.658 85.265 595.624 C 81.4634 582.59 89.0667 566.84 93.9545 562.495 C 98.8423 558.151 100.472 559.237 98.2992 562.495 C 96.1268 565.754 89.6098 574.443 92.8683 582.047 C 96.1268 589.65 101.015 597.796 110.79 595.081 C 120.566 592.365 120.023 586.391 122.195 582.047 C 126.54 580.961 129.255 583.133 129.798 579.331 C 130.341 575.53 131.971 561.409 118.937 556.521 C 105.902 551.634 102.101 560.323 89.6098 559.78 C 77.1187 559.237 68.4293 558.694 60.826 548.375 C 64.6276 548.918 69.5154 553.806 77.6618 551.634 C 85.8081 549.461 99.9285 538.6 98.2992 522.307 C 96.6699 506.014 93.4114 501.669 95.5838 496.782 C 97.7561 491.894 97.7561 479.403 97.7561 475.058 C 97.7561 470.713 92.8683 466.912 91.7821 459.852 C 90.6959 452.791 86.8943 448.99 86.8943 444.102 C 92.8683 449.533 91.239 456.05 97.213 456.05 C 103.187 456.05 109.704 450.076 106.989 445.731 C 104.273 441.386 103.187 438.671 101.015 437.585 C 103.73 433.24 102.101 425.637 89.0667 424.008 C 76.0325 422.378 75.4894 424.551 72.2309 419.12 z "
       style="fill-rule:evenodd;stroke-width:1pt;"
       id="path144" />
    <path
       d="M 218.865 315.39 C 228.641 296.382 232.442 296.382 241.675 292.037 C 250.907 287.692 253.623 287.149 259.054 282.804 C 264.485 278.46 303.044 268.684 342.689 270.856 C 382.335 273.029 446.963 280.089 480.091 299.64 C 513.22 319.191 523.538 324.622 526.254 337.113 C 528.969 349.604 521.909 346.889 524.624 358.837 C 527.34 370.785 550.15 385.991 544.719 406.086 C 539.288 426.18 529.512 455.507 517.564 472.343 C 505.616 489.178 508.875 495.152 509.418 501.669 C 509.961 508.187 512.133 510.359 502.358 525.565 C 492.582 540.772 467.057 550.547 452.394 573.9 C 437.73 597.253 429.584 621.149 417.636 629.839 C 405.688 638.528 390.481 657.536 343.776 654.278 C 297.07 651.019 279.691 620.606 274.26 610.83 C 269.915 615.718 267.743 625.494 260.683 624.951 C 253.623 624.408 249.821 608.658 260.14 603.227 C 251.45 584.219 234.072 540.772 225.382 501.669 C 216.693 462.567 213.434 451.705 214.52 421.835 C 215.607 391.965 215.063 333.855 218.865 315.39 z M 72.2309 419.12 C 102.101 415.861 99.9285 414.775 105.902 409.887 C 111.876 405 117.85 406.629 123.824 403.913 C 129.798 401.198 133.6 396.853 138.488 394.681 C 143.376 392.508 149.893 387.078 159.668 368.069 C 169.444 349.061 168.358 349.604 165.642 337.656 C 162.927 325.708 156.953 313.76 156.953 303.985 C 156.953 294.209 157.496 286.063 165.099 280.089 C 172.702 274.115 169.444 273.572 168.901 264.339 C 168.358 255.107 171.073 239.357 180.306 230.668 C 189.538 221.978 188.452 217.091 192.797 210.03 C 197.141 202.97 201.486 201.341 208.546 196.996 C 215.607 192.651 224.839 188.307 236.787 176.902 C 248.735 165.497 251.45 167.126 268.829 160.066 C 286.208 153.006 296.527 149.204 316.078 148.661 C 335.629 148.118 348.12 148.118 356.267 145.403 C 364.413 142.687 369.844 142.687 373.102 142.687 C 376.361 142.687 377.99 143.23 379.076 149.204 C 380.163 155.178 383.964 150.29 386.137 148.661 C 388.309 147.032 394.283 145.946 398.085 147.575 C 401.886 149.204 413.834 154.092 427.955 154.092 C 442.075 154.092 441.532 152.463 451.85 160.609 C 462.169 168.756 484.979 182.876 495.841 184.505 C 506.702 186.134 524.081 190.479 538.745 196.996 C 553.408 203.513 588.709 225.237 600.657 242.616 C 612.605 259.995 610.976 262.167 610.976 265.969 C 610.976 269.77 613.148 274.115 616.407 277.373 C 619.665 280.632 633.242 293.123 636.501 300.726 C 639.759 308.33 640.846 317.019 640.846 320.821 C 640.846 324.622 643.018 331.682 645.733 339.286 C 648.449 346.889 651.164 370.785 648.449 382.19 C 645.733 393.595 643.561 394.138 650.078 399.569 C 643.561 402.827 638.13 404.456 638.673 408.258 C 639.216 412.06 638.673 415.861 649.535 415.861 C 647.906 419.663 647.363 423.465 648.992 426.723 C 641.932 428.352 632.699 431.068 645.19 438.671 C 647.363 441.93 650.078 448.99 652.794 435.956 C 654.966 446.817 661.483 453.878 681.034 463.11 C 678.862 465.826 676.69 468.541 672.888 469.627 C 679.405 473.972 681.577 475.601 682.12 478.317 C 671.259 477.23 668.543 478.86 669.086 487.006 C 664.742 488.635 663.112 489.721 663.112 498.954 C 663.112 508.187 672.345 548.918 654.966 585.848 C 637.587 622.778 637.587 626.58 638.13 639.071 C 638.673 651.562 633.785 656.993 628.355 670.027 C 622.924 683.061 621.294 691.751 612.062 695.552 C 602.829 699.354 596.312 706.957 590.881 698.268 C 585.45 689.578 575.675 700.983 571.873 702.069 C 568.072 703.156 557.21 709.13 553.408 709.13 C 554.494 725.422 549.607 738.456 560.468 748.775 C 571.33 759.094 574.046 759.094 576.761 764.525 C 564.813 765.611 559.925 769.413 558.839 773.214 C 552.322 768.326 539.288 758.008 542.003 767.783 C 544.719 777.559 546.891 782.447 550.693 787.878 C 498.556 787.335 374.189 788.421 323.138 788.421 C 243.304 753.12 235.701 749.861 221.581 749.861 C 186.28 727.595 167.815 712.388 160.211 706.957 C 160.211 702.069 169.444 702.069 167.272 692.837 C 165.099 683.604 161.298 675.458 159.668 672.2 C 158.039 668.941 153.151 670.027 152.065 672.2 C 150.979 674.372 151.522 673.829 150.436 676.001 C 142.833 676.001 140.117 676.001 136.859 676.544 C 138.488 668.941 143.376 662.424 140.66 655.364 C 136.315 661.881 133.6 664.596 131.971 664.596 C 130.341 664.596 127.626 665.139 127.626 668.398 C 127.626 671.656 124.368 674.372 122.738 674.915 C 121.109 669.484 128.169 663.51 128.712 658.622 C 129.255 653.734 125.997 651.019 121.652 651.019 C 117.307 651.019 96.6699 648.847 94.4976 641.787 C 92.3252 634.726 85.8081 630.382 86.3512 624.408 C 90.1529 627.123 92.3252 631.468 99.3854 622.778 C 104.816 626.58 109.161 625.494 106.989 621.692 C 104.816 617.891 89.0667 608.658 85.265 595.624 C 81.4634 582.59 89.0667 566.84 93.9545 562.495 C 98.8423 558.151 100.472 559.237 98.2992 562.495 C 96.1268 565.754 89.6098 574.443 92.8683 582.047 C 96.1268 589.65 101.015 597.796 110.79 595.081 C 120.566 592.365 120.023 586.391 122.195 582.047 C 126.54 580.961 129.255 583.133 129.798 579.331 C 130.341 575.53 131.971 561.409 118.937 556.521 C 105.902 551.634 102.101 560.323 89.6098 559.78 C 77.1187 559.237 68.4293 558.694 60.826 548.375 C 64.6276 548.918 69.5154 553.806 77.6618 551.634 C 85.8081 549.461 99.9285 538.6 98.2992 522.307 C 96.6699 506.014 93.4114 501.669 95.5838 496.782 C 97.7561 491.894 97.7561 479.403 97.7561 475.058 C 97.7561 470.713 92.8683 466.912 91.7821 459.852 C 90.6959 452.791 86.8943 448.99 86.8943 444.102 C 92.8683 449.533 91.239 456.05 97.213 456.05 C 103.187 456.05 109.704 450.076 106.989 445.731 C 104.273 441.386 103.187 438.671 101.015 437.585 C 103.73 433.24 102.101 425.637 89.0667 424.008 C 76.0325 422.378 75.4894 424.551 72.2309 419.12 z "
       style="fill-rule:evenodd;stroke-width:1pt;"
       id="path143" />
    <path
       d="M 407.709 459.182 C 396.27 448.561 395.862 448.561 385.649 452.238 C 375.435 455.914 381.972 452.238 384.014 448.969 C 386.057 445.701 386.466 442.841 381.972 438.348 C 377.478 433.854 379.112 435.488 379.521 430.586 C 379.929 425.683 377.887 429.36 375.435 424.866 C 372.984 420.372 376.252 421.598 375.844 418.738 C 375.435 415.879 373.801 415.47 372.984 413.428 C 372.167 411.385 375.435 409.751 375.435 406.483 C 375.435 403.214 375.844 402.806 378.704 402.806 C 381.563 402.806 384.423 399.129 385.649 391.367 C 386.874 383.605 386.466 377.069 381.563 371.349 C 376.661 365.63 375.844 364.813 375.027 363.179 C 378.295 363.179 377.887 363.587 381.155 363.587 C 384.423 363.587 386.874 361.545 389.734 359.094 C 392.593 356.642 393.002 352.557 405.258 351.332 C 417.514 350.106 445.702 352.557 455.506 349.697 C 465.311 346.838 468.171 346.429 471.439 347.246 C 474.707 348.063 475.933 346.429 477.567 344.795 C 479.201 343.161 482.469 341.935 485.329 344.387 C 488.189 346.838 498.402 352.966 502.895 354.6 C 507.389 356.234 509.84 356.642 511.475 360.319 C 513.109 363.996 517.602 367.264 522.096 370.941 C 526.59 374.618 531.901 383.197 535.169 389.325 C 538.437 395.452 540.071 401.58 538.437 408.525 C 536.803 415.47 535.578 418.33 533.126 425.275 C 523.322 417.921 518.419 415.47 516.377 417.513 C 514.334 419.555 518.419 421.19 519.237 426.909 C 511.883 424.458 505.755 423.641 501.261 419.964 C 496.768 416.287 496.359 417.921 494.316 419.964 C 489.823 417.513 487.78 416.287 485.737 417.921 C 483.695 419.555 482.061 419.147 477.567 415.879 C 473.073 412.61 470.213 413.019 473.482 417.921 C 476.75 422.824 478.384 426.909 481.652 430.586 C 469.805 423.232 464.086 416.287 460.409 414.245 C 456.732 412.202 446.927 414.245 443.251 412.61 C 439.574 410.976 439.165 410.159 437.531 408.117 C 446.519 406.483 455.915 406.074 462.043 406.891 C 468.171 407.708 467.762 406.074 468.988 403.623 C 470.213 401.172 470.622 398.312 469.805 396.269 C 468.988 394.227 465.72 391.367 462.86 390.959 C 460.817 395.861 457.141 402.397 450.605 401.988 C 441.617 401.989 437.123 399.946 433.855 393.001 C 431.404 390.142 427.318 390.55 425.684 392.593 C 424.05 394.635 421.19 394.635 421.599 397.087 C 422.007 399.538 422.416 401.172 424.05 404.031 C 417.514 399.946 417.922 397.495 415.062 397.495 C 412.203 397.495 412.203 398.312 412.611 401.58 C 407.709 397.495 404.849 393.41 403.215 397.495 C 401.581 401.58 403.215 401.989 407.3 403.214 C 409.752 411.793 413.02 417.513 416.697 419.964 C 407.709 422.007 401.581 429.36 402.398 436.714 C 403.215 444.067 406.483 444.476 408.526 446.11 C 410.569 447.744 408.117 460 407.709 459.182 z "
       style="fill-rule:evenodd;stroke-width:1pt;"
       id="path136" />
    <path
       d="M 329.68 490.23 C 319.876 490.23 317.016 486.554 316.608 479.2 C 316.199 471.847 319.059 465.31 323.961 462.859 C 328.863 460.408 337.442 462.042 340.302 459.182 C 343.162 461.225 346.021 465.719 348.881 464.902 C 351.741 464.085 352.558 459.999 356.643 460.817 C 360.728 461.634 368.082 462.859 371.759 459.182 C 375.435 455.506 381.563 453.872 384.423 453.872 C 387.691 461.225 390.551 463.676 397.087 463.676 C 403.624 463.676 405.666 463.268 408.526 460 C 411.386 464.493 415.062 471.03 420.373 475.115 C 425.684 479.2 426.91 487.779 420.373 491.865 C 413.837 495.95 408.117 500.035 401.581 495.95 C 398.313 501.261 399.13 500.444 395.862 501.261 C 402.398 505.346 410.16 509.84 413.837 515.559 C 423.641 516.376 431.403 518.01 435.08 524.547 C 444.476 524.955 451.421 525.364 454.281 531.9 C 457.141 538.437 462.86 541.296 471.847 538.028 C 480.835 534.76 483.695 535.985 491.048 537.619 C 466.945 556.412 453.055 569.076 444.476 588.685 C 435.897 573.978 433.446 569.076 434.672 565.808 C 435.897 562.54 432.22 559.68 426.91 560.497 C 421.599 561.314 415.471 567.442 405.258 562.131 C 395.045 556.82 383.197 552.326 357.46 554.369 C 331.723 556.412 331.315 552.735 321.918 557.229 C 312.522 561.722 308.029 562.948 296.59 559.271 C 296.59 553.961 307.62 550.284 315.791 549.467 C 323.961 548.65 333.357 543.747 336.625 540.888 C 339.894 538.028 344.796 533.943 352.149 535.985 C 359.503 538.028 364.814 537.619 368.49 535.985 C 372.167 534.351 381.563 532.717 388.1 534.351 C 382.789 528.632 374.618 523.321 375.435 515.559 C 376.252 507.797 375.027 501.261 378.704 500.852 C 382.38 500.444 380.746 498.809 378.295 497.584 C 375.844 496.358 376.252 489.413 376.252 487.779 C 376.252 486.145 378.704 486.962 379.521 483.694 C 380.338 480.426 378.295 479.2 375.844 480.834 C 373.393 482.468 368.899 485.328 362.363 485.328 C 355.826 485.328 351.741 480.426 348.881 475.115 C 342.753 478.383 339.894 481.651 332.132 479.609 C 327.638 480.426 327.229 481.651 328.046 484.511 C 328.863 487.371 329.68 491.456 329.68 490.23 z "
       style="fill-rule:evenodd;stroke-width:1pt;"
       id="path137" />
    <path
       d="M 279.84 582.966 C 284.743 574.795 286.377 570.71 286.377 565.808 C 286.377 560.905 288.828 562.54 291.688 559.271 C 294.547 556.003 291.688 553.552 293.322 550.692 C 294.956 547.833 298.224 544.973 300.267 541.296 C 302.309 537.619 302.718 546.199 301.084 547.833 C 299.45 549.467 300.675 551.918 300.675 553.552 C 306.803 550.284 308.029 550.692 311.297 550.284 C 310.888 542.113 311.297 535.168 315.382 533.534 C 319.467 531.9 324.37 526.998 326.004 523.321 C 330.089 528.223 332.54 531.9 336.217 525.772 C 339.894 519.644 341.528 513.516 344.796 510.657 C 348.064 507.797 344.387 504.937 343.57 502.486 C 342.753 500.035 346.43 497.992 345.204 495.541 C 343.979 493.09 339.894 489.005 338.26 489.413 C 336.625 489.822 339.894 493.499 339.077 496.358 C 338.26 499.218 332.949 503.712 330.906 505.346 C 328.863 506.98 330.906 507.389 330.906 511.474 C 330.906 515.559 327.638 514.742 326.004 515.968 C 324.37 517.193 324.37 517.193 324.778 522.095 C 319.059 522.913 310.48 524.138 306.803 529.449 C 303.126 534.76 303.943 531.9 299.45 529.857 C 294.956 527.815 290.462 528.223 285.56 533.943 C 280.657 539.662 272.895 542.93 275.755 548.241 C 278.615 553.552 276.981 552.326 274.529 552.326 C 272.078 552.326 269.219 554.778 270.036 560.905 C 270.853 567.033 271.261 574.795 269.627 578.064 C 267.993 581.332 269.219 579.698 271.261 581.332 C 273.304 582.966 272.895 584.191 273.304 586.643 C 273.712 589.094 276.981 587.868 279.84 582.966 z "
       style="fill-rule:evenodd;stroke-width:1pt;"
       id="path139" />
    <path
       d="M 343.57 203.445 L 341.528 184.245 L 341.528 184.245 L 355.826 195.275 L 355.826 195.275 L 371.759 189.964 L 371.759 189.964 L 360.728 204.262 L 360.728 204.262 L 372.167 216.518 L 372.167 216.518 L 352.558 212.024 L 352.558 212.024 L 332.949 212.024 L 332.949 212.024 L 343.57 203.445 z "
       style="fill:#ff0000;fill-rule:evenodd;stroke-width:1pt;"
       id="path141" />
    <path
       d="M 278.472 388.247 C 278.472 384.492 280.494 383.625 282.805 383.625 C 285.116 383.625 287.934 385.358 287.716 388.536 C 286.272 391.713 280.206 393.735 278.472 388.247 z M 218.965 372.359 C 233.986 357.915 241.496 352.138 244.963 349.827 C 248.429 347.516 253.629 345.783 258.251 348.094 C 262.873 350.405 262.873 354.449 277.317 353.871 C 291.76 353.293 310.826 354.449 316.603 353.871 C 322.38 353.293 325.269 356.182 332.78 359.071 C 340.291 361.96 346.068 363.693 345.49 372.359 C 344.912 381.025 344.912 385.069 344.912 389.691 C 344.912 394.313 344.335 397.202 344.335 401.824 C 340.868 396.624 341.446 394.313 341.446 391.424 C 341.446 388.536 340.291 389.113 338.557 390.847 C 336.824 392.58 333.935 393.735 330.469 392.58 C 327.002 391.424 325.847 392.58 327.002 396.624 C 328.158 400.668 328.158 401.824 322.958 398.357 C 317.759 394.891 307.937 389.114 305.048 388.536 C 302.159 387.958 297.538 386.802 297.538 390.847 C 297.538 394.891 293.493 402.401 285.983 402.979 C 278.472 403.557 272.117 400.668 269.806 395.469 C 267.495 390.269 264.606 396.624 264.606 400.091 C 264.606 403.557 262.295 405.868 262.295 407.023 C 267.495 408.757 272.695 409.912 276.161 410.49 C 269.228 414.534 263.451 411.645 259.984 411.068 C 256.518 410.49 249.585 410.49 246.696 412.223 C 243.807 413.956 239.763 418.001 233.408 412.223 C 227.053 406.446 226.475 405.868 223.586 402.402 C 232.83 397.202 231.675 401.246 235.719 401.824 C 239.186 393.735 254.785 380.447 266.917 374.67 C 259.984 372.359 254.207 370.048 248.429 373.514 C 242.652 376.981 231.675 382.758 225.897 393.735 C 219.542 383.336 217.809 381.025 218.965 372.359 z "
       style="fill-rule:evenodd;stroke-width:1pt;"
       id="path145" />
  </g>
</svg>
