<?xml version="1.0" encoding="UTF-8" standalone="no"?>
<!DOCTYPE svg PUBLIC "-//W3C//DTD SVG 20010904//EN"
"http://www.w3.org/TR/2001/REC-SVG-20010904/DTD/svg10.dtd">
<!-- Created with Inkscape (http://www.inkscape.org/) -->
<svg
   width="560pt"
   height="797pt"
   viewBox="0 0 560 797"
   xml:space="preserve"
   xmlns="http://www.w3.org/2000/svg"
   xmlns:xml="http://www.w3.org/XML/1998/namespace"
   xmlns:sodipodi="http://sodipodi.sourceforge.net/DTD/sodipodi-0.dtd"
   xmlns:inkscape="http://www.inkscape.org/namespaces/inkscape"
   xmlns:xlink="http://www.w3.org/1999/xlink"
   id="svg3823"
   sodipodi:version="0.32"
   inkscape:version="0.37"
   sodipodi:docname="fragments.svg"
   sodipodi:docbase="/usr/src/inkscape-project/inkscape/share/examples/presentation/images"><defs
   id="defs3917" />
<sodipodi:namedview
   id="base"
   pagecolor="#ffffff"
   bordercolor="#666666"
   borderopacity="1.0"
   inkscape:pageopacity="0.0"
   inkscape:pageshadow="2"
   inkscape:zoom="0.30699632"
   inkscape:cx="261.907331"
   inkscape:cy="502.649324"
   inkscape:window-width="640"
   inkscape:window-height="498"
   inkscape:window-x="426"
   inkscape:window-y="160" />
<g
   id="swaiLayer"
   style="stroke-linecap:round;stroke-linejoin:round;fill-rule:nonzero;clip-rule:nonzero;"><path
   style="fill:#70655B;stroke:#70655B;stroke-width:0.5;"
   d="M276.0529412,190.8294118L234.7529412,204.1294118L214.7529412,204.0294118L201.6529412,214.2294118L180.9529412,220.9294118L201.6529412,214.2294118L218.7529412,215.3294118L234.7529412,204.1294118L276.0529412,190.8294118"
   id="path3827" />
<path
   style="fill:#645B51;stroke:#645B51;stroke-width:0.5;"
   d="M170.7529412,35.0294118L155.2529412,45.6294118L149.5529412,123.0294118L141.4529412,135.6294118L134.2529412,146.9294118L121.9529412,156.8294118L114.6529412,157.3294118L121.9529412,156.8294118L123.0529412,95.6294118L129.5529412,82.4294118L136.9529412,67.7294118L155.2529412,45.6294118L170.7529412,35.0294118"
   id="path3829" />
<path
   style="fill:#82766A;stroke:#82766A;stroke-width:0.5;"
   d="M446.1529412,78.6294118L340.3529412,124.9294118L281.8529412,150.5294118L263.5529412,155.8294118L240.6529412,159.1294118L227.8529412,230.2294118L257.5529412,223.1294118L299.1529412,213.1294118L323.0529412,210.5294118L369.4529412,209.0294118L446.1529412,78.6294118"
   id="path3831" />
<path
   style="fill:#756A5F;stroke:#756A5F;stroke-width:0.5;"
   d="M265.0529412,2.0294118L239.1529412,18.1294118L222.4529412,40.6294118L210.4529412,49.1294118L187.9529412,70.3294118L178.6529412,84.7294118L171.2529412,89.1294118L182.7529412,84.8294118L192.5529412,70.1294118L202.2529412,63.8294118L229.1529412,39.1294118L247.1529412,15.5294118L265.0529412,2.0294118"
   id="path3833" />
<path
   style="fill:#696056;stroke:#696056;stroke-width:0.5;"
   d="M233.7529412,173.7294118L216.7529412,187.3294118L202.6529412,198.9294118L193.8529412,264.3294118L183.8529412,270.6294118L193.8529412,264.3294118L205.3529412,257.3294118L216.7529412,187.3294118L233.7529412,173.7294118"
   id="path3835" />
<path
   style="fill:#8E8073;stroke:#8E8073;stroke-width:0.5;"
   d="M331.0529412,84.6294118L246.0529412,119.7294118L212.4529412,135.5294118L184.8529412,244.6294118L168.6529412,324.9294118L191.6529412,335.6294118L211.1529412,341.8294118L248.2529412,245.4294118L331.0529412,84.6294118"
   id="path3837" />
<path
   style="fill:#85796D;stroke:#85796D;stroke-width:0.5;"
   d="M191.3529412,13.1294118L166.5529412,50.8294118L148.3529412,79.3294118L138.5529412,172.4294118L128.9529412,175.9294118L120.5529412,178.9294118L130.1529412,165.7294118L141.7529412,150.3294118L153.3529412,50.0294118L170.0529412,33.9294118L191.3529412,13.1294118"
   id="path3839" />
<path
   style="fill:#504941;stroke:#504941;stroke-width:0.5;"
   d="M130.2529412,124.7294118L123.5529412,136.5294118L111.9529412,147.1294118L107.3529412,149.1294118L98.4529412,157.4294118L102.4529412,148.8294118L112.2529412,139.5294118L117.2529412,136.9294118L130.2529412,124.7294118"
   id="path3841" />
<path
   style="fill:#71665C;stroke:#71665C;stroke-width:0.5;"
   d="M233.9529412,23.1294118L210.6529412,37.5294118L195.8529412,58.7294118L186.5529412,137.1294118L179.7529412,203.9294118L168.3529412,202.9294118L179.7529412,203.9294118L189.6529412,194.4294118L198.4529412,123.0294118L210.6529412,37.5294118L233.9529412,23.1294118"
   id="path3843" />
<path
   style="fill:#756A5F;stroke:#756A5F;stroke-width:0.5;"
   d="M209.8529412,147.8294118L187.2529412,246.5294118L173.2529412,322.1294118L160.2529412,326.4294118L140.3529412,323.7294118L133.0529412,320.6294118L137.0529412,260.4294118L142.8529412,189.6294118L155.3529412,175.9294118L189.1529412,156.2294118L209.8529412,147.8294118"
   id="path3845" />
<path
   style="fill:#796E63;stroke:#796E63;stroke-width:0.5;"
   d="M305.7529412,89.0294118L266.2529412,201.5294118L241.7529412,285.0294118L226.2529412,283.1294118L212.8529412,347.3294118L196.9529412,338.7294118L206.6529412,277.7294118L220.2529412,205.3294118L236.2529412,202.8294118L261.9529412,105.2294118L305.7529412,89.0294118"
   id="path3847" />
<path
   style="fill:#807468;stroke:#807468;stroke-width:0.5;"
   d="M347.2529412,11.4294118L295.7529412,144.1294118L260.2529412,151.4294118L239.1529412,236.1294118L222.4529412,245.5294118L210.4529412,245.4294118L198.2529412,253.2294118L208.1529412,185.3294118L227.7529412,184.1294118L247.0529412,94.7294118L273.2529412,68.9294118L300.8529412,53.3294118L347.2529412,11.4294118"
   id="path3849" />
<path
   style="fill:#6C6258;stroke:#6C6258;stroke-width:0.5;"
   d="M244.6529412,74.0294118L229.0529412,157.6294118L204.0529412,170.0294118L190.5529412,170.8294118L181.6529412,180.5294118L187.2529412,116.4294118L209.1529412,99.9294118L227.3529412,93.5294118L244.6529412,74.0294118"
   id="path3851" />
<path
   style="fill:#887B6E;stroke:#887B6E;stroke-width:0.5;"
   d="M506.3529412,92.9294118L371.2529412,142.2294118L325.5529412,243.2294118L302.1529412,243.8294118L282.4529412,244.0294118L262.5529412,253.2294118L304.1529412,247.4294118L339.9529412,154.9294118L374.7529412,146.0294118L420.4529412,133.8294118L506.3529412,92.9294118"
   id="path3853" />
<path
   style="fill:#7E7267;stroke:#7E7267;stroke-width:0.5;"
   d="M442.3529412,-68.4705882L360.8529412,95.9294118L327.0529412,108.9294118L272.2529412,136.0294118L252.4529412,217.5294118L223.6529412,225.1294118L214.4529412,286.0294118L223.6529412,225.1294118L235.1529412,224.5294118L268.1529412,216.1294118L292.8529412,128.9294118L360.8529412,95.9294118L442.3529412,-68.4705882"
   id="path3855" />
<path
   style="fill:#695F56;stroke:#695F56;stroke-width:0.5;"
   d="M210.2529412,217.0294118L190.0529412,216.3294118L173.6529412,215.2294118L164.4529412,216.2294118L159.0529412,278.0294118L171.3529412,282.8294118L185.6529412,288.1294118L196.7529412,290.1294118L210.2529412,217.0294118"
   id="path3857" />
<path
   style="fill:#827669;stroke:#827669;stroke-width:0.5;"
   d="M396.3529412,2.3294118L311.2529412,167.9294118L264.5529412,175.4294118L237.1529412,266.6294118L213.0529412,262.2294118L200.3529412,329.1294118L188.1529412,332.8294118L197.8529412,270.1294118L217.6529412,275.0294118L237.2529412,193.3294118L271.6529412,190.1294118L322.0529412,61.4294118L396.3529412,2.3294118"
   id="path3859" />
<path
   style="fill:#60574E;stroke:#60574E;stroke-width:0.5;"
   d="M195.2529412,75.7294118L186.9529412,149.7294118L174.3529412,151.4294118L166.1529412,161.9294118L152.1529412,170.5294118L154.8529412,111.1294118L165.1529412,108.0294118L173.9529412,94.7294118L195.2529412,75.7294118"
   id="path3861" />
<path
   style="fill:#8C7F72;stroke:#8C7F72;stroke-width:0.5;"
   d="M286.4529412,19.8294118L244.7529412,63.1294118L215.9529412,176.1294118L198.9529412,180.8294118L178.2529412,183.0294118L194.1529412,168.1294118L214.0529412,65.9294118L237.3529412,49.7294118L286.4529412,19.8294118"
   id="path3863" />
<path
   style="fill:#908375;stroke:#908375;stroke-width:0.5;"
   d="M417.9529412,-19.4705882L317.8529412,35.8294118L269.8529412,78.9294118L236.1529412,192.1294118L217.3529412,195.9294118L199.0529412,209.4294118L222.6529412,209.2294118L246.9529412,193.6294118L286.4529412,74.5294118L329.6529412,50.8294118L417.9529412,-19.4705882"
   id="path3865" />
<path
   style="fill:#504941;stroke:#504941;stroke-width:0.5;"
   d="M89.9529412,80.8294118L79.4529412,96.7294118L75.2529412,108.5294118L69.5529412,110.9294118L64.3529412,112.9294118L66.7529412,166.4294118L73.4529412,159.0294118L76.9529412,150.1294118L83.0529412,149.2294118L89.9529412,148.0294118L89.9529412,80.8294118"
   id="path3867" />
<path
   style="fill:#585048;stroke:#585048;stroke-width:0.5;"
   d="M205.5529412,219.5294118L194.7529412,287.5294118L174.0529412,288.4294118L166.4529412,286.6294118L158.6529412,291.7294118L152.4529412,290.0294118L146.1529412,294.6294118L148.3529412,242.3294118L163.6529412,238.1294118L171.5529412,238.2294118L181.7529412,229.9294118L191.8529412,229.5294118L205.5529412,219.5294118"
   id="path3869" />
<path
   style="fill:#70655B;stroke:#70655B;stroke-width:0.5;"
   d="M287.8588235,599.6235294L246.5588235,612.9235294L239.9588235,612.8905294L236.0755857,602.7551181L218.3401998,577.0082004L214.456962,566.8727892L232.1923479,592.6197069L228.1914361,582.1771619L226.0134361,582.1662719L244.3213127,615.5908401L242.1433127,615.5799501L223.8354361,582.1553819L221.5914361,582.1441619L233.3588235,612.8575294L226.5588235,612.8235294L222.2358235,616.1895294L255.7553777,635.9468002L251.4323777,639.3128002L217.9128235,619.5555294L216.4430035,620.6999694L201.0247601,656.8605338L199.5549401,658.0049738L214.9731835,621.8444094L213.4588235,623.0235294L206.6278235,625.2345294L243.5086028,600.6810397L236.6776028,602.8920397L199.7968235,627.4455294L192.7588235,629.7235294L213.4588235,623.0235294L230.5588235,624.1235294L235.8388235,620.4275294L249.313574,629.7568484L254.593574,626.0608484L241.1188235,616.7315294L246.5588235,612.9235294L287.8588235,599.6235294"
   id="path3871" />
<path
   style="fill:#645B51;stroke:#645B51;stroke-width:0.5;"
   d="M182.5588235,443.8235294L167.0588235,454.4235294L165.1778235,479.9655294L165.5211463,460.2531767L163.6401463,485.7951767L163.5268498,492.3002531L184.7390461,526.3449003L184.6257496,532.8499767L163.4135533,498.8053295L163.2968235,505.5075294L162.6572835,514.1918094L165.8616292,550.3077419L165.2220892,558.9920219L162.0177435,522.8760894L161.3588235,531.8235294L153.2588235,544.4235294L150.8828235,548.1525294L118.9349247,499.931895L116.5589247,503.660895L148.5068235,551.8815294L146.0588235,555.7235294L133.7588235,565.6235294L131.3498235,565.7885294L136.9509435,595.7307558L134.5419435,595.8957558L128.9408235,565.9535294L126.4588235,566.1235294L133.7588235,565.6235294L134.8588235,504.4235294L141.3588235,491.2235294L148.7588235,476.5235294L167.0588235,454.4235294L172.1738235,450.9255294L185.5711672,440.7158145L235.1395342,456.6133746L248.5368778,446.4036598L198.9685108,430.5060996L212.7718345,419.9869994L217.8868345,416.4889994L177.2888235,447.4275294L182.5588235,443.8235294"
   id="path3873" />
<path
   style="fill:#82766A;stroke:#82766A;stroke-width:0.5;"
   d="M457.9588235,487.4235294L423.0448235,502.7025294L460.2500428,456.9583964L425.3360428,472.2373964L388.1308235,517.9815294L352.1588235,533.7235294L332.8538235,542.1715294L368.9682301,586.830381L349.6632301,595.278381L313.5488235,550.6195294L293.6588235,559.3235294L287.6198235,561.0725294L309.3392792,561.456288L303.3002792,563.205288L281.5808235,562.8215294L275.3588235,564.6235294L252.4588235,567.9235294L248.2348235,591.3865294L279.8567565,568.8595976L275.6327565,592.3225976L265.1975186,599.7564851L229.9403699,620.4494058L219.505132,627.8832933L254.7622807,607.1903726L244.0108235,614.8495294L239.6588235,639.0235294L242.8931535,638.2503394L286.8697465,609.0323333L290.1040765,608.2591433L246.1274835,637.4771494L249.4598235,636.6805294L209.9385108,666.3917759L219.7395108,664.0487759L232.781544,654.2440646L253.3794787,702.9336207L266.4215119,693.1289093L245.8235772,644.4393532L259.2608235,634.3375294L269.3588235,631.9235294L310.9588235,621.9235294L334.8588235,619.3235294L381.2588235,617.8235294L457.9588235,487.4235294"
   id="path3875" />
<path
   style="fill:#756A5F;stroke:#756A5F;stroke-width:0.5;"
   d="M276.8588235,410.8235294L250.9588235,426.9235294L234.2588235,449.4235294L230.2988235,452.2285294L186.4327614,421.4968514L182.4727614,424.3018514L226.3388235,455.0335294L224.9924235,455.9872294L211.8092418,454.9246026L164.4896388,432.3597146L151.306457,431.2970877L198.62606,453.8619757L185.0433879,452.7671481L183.6969879,453.7208481L223.6460235,456.9409294L222.2588235,457.9235294L199.7588235,479.1235294L190.4588235,493.5235294L183.0588235,497.9235294L194.5588235,493.6235294L197.7928235,488.7725294L149.8178556,461.4471853L153.0518556,456.5961853L201.0268235,483.9215294L204.3588235,478.9235294L214.0588235,472.6235294L222.9358235,464.4725294L257.9555074,493.8626738L260.8849174,491.1728438L223.1278068,492.2518309L226.0572168,489.5620009L263.8143274,488.4830138L266.8325074,485.7116738L231.8128235,456.3215294L240.9588235,447.9235294L258.9588235,424.3235294L276.8588235,410.8235294"
   id="path3877" />
<path
   style="fill:#696056;stroke:#696056;stroke-width:0.5;"
   d="M245.5588235,582.5235294L239.9488235,587.0115294L268.138578,548.5348715L262.528578,553.0228715L234.3388235,591.4995294L232.4314235,593.0254494L277.8614162,543.5061013L275.9540162,545.0320213L230.5240235,594.5513694L228.5588235,596.1235294L223.9058235,599.9515294L253.7826279,551.2111424L249.1296279,555.0391424L239.2702824,571.1234701L252.9930837,536.4922179L243.1337382,552.5765456L229.410937,587.2077978L219.2528235,603.7795294L218.7307569,604.209031L233.285639,560.1093186L232.7635724,560.5388202L218.2086903,604.6385326L217.6708035,605.0810494L219.114285,609.9176087L217.532265,611.2191287L216.0887835,606.3825694L215.5508967,606.8250862L263.8607951,578.2548157L263.3229083,578.6973325L215.0130099,607.267603L214.4588235,607.7235294L205.6588235,673.1235294L195.6588235,679.4235294L205.6588235,673.1235294L209.4538235,670.8135294L206.5100216,635.9631228L210.3050216,633.6531228L213.2488235,668.5035294L217.1588235,666.1235294L228.5588235,596.1235294L245.5588235,582.5235294"
   id="path3879" />
<path
   style="fill:#8E8073;stroke:#8E8073;stroke-width:0.5;"
   d="M342.8588235,493.4235294L257.8588235,528.5235294L246.7708235,533.7375294L207.9832678,512.3568188L204.3242278,514.0774388L169.980413,563.3802075L166.321373,565.1008275L200.6651878,515.7980588L199.4211142,516.3830696L236.1683791,522.9714333L234.9243055,523.5564441L198.1770406,516.9680804L196.8952678,517.5708188L201.1192326,519.8991782L169.5836072,565.6637198L173.807572,567.9920792L184.2143284,552.8897805L174.1873013,560.2043671L184.5940577,545.1020684L194.6210848,537.7874817L205.3431975,522.2275376L209.6951612,524.6264533L222.6696142,564.8788528L226.893579,567.2072121L241.6580787,573.1877038L245.8820435,575.5160632L231.1175438,569.5355715L235.4695076,571.9344873L222.4950546,531.6820878L235.6828235,538.9515294L224.2588235,544.3235294L196.6588235,653.4235294L180.4588235,733.7235294L188.0488235,737.2545294L214.6110374,736.0873274L222.2010374,739.6183274L195.6388235,740.7855294L203.4588235,744.4235294L222.9588235,750.6235294L260.0588235,654.2235294L342.8588235,493.4235294"
   id="path3881" />
<path
   style="fill:#85796D;stroke:#85796D;stroke-width:0.5;"
   d="M203.1588235,421.9235294L178.3588235,459.6235294L160.1588235,488.1235294L150.3588235,581.2235294L140.7588235,584.7235294L139.8440635,585.0502294L157.9118049,584.2502874L156.9970449,584.5769874L138.9293035,585.3769294L137.9868235,585.7135294L137.4923434,548.5757349L134.7203434,549.5657349L135.2148235,586.7035294L132.3588235,587.7235294L141.9588235,574.5235294L153.5588235,559.1235294L157.3868235,526.0245294L201.6753634,524.5476694L202.0922326,520.9431883L195.906701,505.397534L196.3235702,501.7930529L202.5091018,517.3387072L202.9386034,513.6249994L175.4102221,542.6399682L176.6734621,531.7172982L204.2018434,502.7023294L205.5033634,491.4486694L190.8881453,491.9360332L184.7475059,503.5959749L229.6913155,512.294629L223.5506762,523.9545707L178.6068666,515.2559165L172.2801474,527.2691898L157.6649292,527.7565536L176.2729271,492.423397L161.2148235,492.9255294L165.1588235,458.8235294L170.6698235,453.5105294L190.8868607,443.656022L192.7054907,441.902732L213.6298682,457.7131263L215.4484982,455.9598363L194.5241207,440.149442L196.3978607,438.343022L176.1808235,448.1975294L181.8588235,442.7235294L203.1588235,421.9235294"
   id="path3883" />
<path
   style="fill:#504941;stroke:#504941;stroke-width:0.5;"
   d="M142.0588235,533.5235294L135.3588235,545.3235294L123.7588235,555.9235294L122.2408235,556.5835294L88.6504114,575.8754072L87.1324114,576.5354072L98.2172474,570.1690875L102.6416287,609.0040408L113.7264647,602.6377212L112.2664188,589.8221866L108.6193098,603.497264L145.7743658,570.7961532L144.5708198,575.3089287L154.3930931,583.2147934L153.1895471,587.727569L143.3672739,579.8217043L142.1272568,584.4712306L104.9722008,617.1723414L101.2145733,631.2618152L99.7545275,618.4462806L110.806373,577.006652L109.3020834,563.8027678L120.7228235,557.2435294L119.1588235,557.9235294L110.2588235,566.2235294L111.5788235,563.3855294L155.251862,589.1239594L156.571862,586.2859594L112.8988235,560.5475294L114.2588235,557.6235294L124.0588235,548.3235294L129.0588235,545.7235294L142.0588235,533.5235294"
   id="path3885" />
<path
   style="fill:#71665C;stroke:#71665C;stroke-width:0.5;"
   d="M245.7588235,431.9235294L222.4588235,446.3235294L207.6588235,467.5235294L204.5898235,493.3955294L208.8550365,475.056563L205.7860365,500.928563L201.5208235,519.2675294L198.3588235,545.9235294L191.5588235,612.7235294L180.1588235,611.7235294L183.9208235,612.0535294L157.3088278,595.4369942L158.5502878,595.5458942L126.1733309,626.1897388L127.4147909,626.2986388L159.7917478,595.6547942L161.0708278,595.7669942L187.6828235,612.3835294L191.5588235,612.7235294L201.4588235,603.2235294L210.2588235,531.8235294L214.2848235,503.6085294L206.6954833,536.3829778L210.7214833,508.1679778L218.3108235,475.3935294L222.4588235,446.3235294L230.1478235,441.5715294L264.8890345,446.5736466L272.5780345,441.8216466L237.8368235,436.8195294L240.4510835,435.2038494L200.1959184,479.064571L202.8101784,477.448891L243.0653435,433.5881694L245.7588235,431.9235294"
   id="path3887" />
<path
   style="fill:#756A5F;stroke:#756A5F;stroke-width:0.5;"
   d="M221.6588235,556.6235294L199.0588235,655.3235294L185.0588235,730.9235294L180.7688235,732.3425294L179.6597451,729.3408014L135.4826898,710.6739618L134.3736114,707.6722337L178.5506667,726.3390733L177.4079799,723.2463838L173.1179799,724.6653838L176.4788235,733.7615294L172.0588235,735.2235294L152.1588235,732.5235294L144.8588235,729.4235294L146.1788235,709.5575294L180.60351,674.4399032L181.92351,654.5739032L147.4988235,689.6915294L148.8588235,669.2235294L150.7728235,645.8595294L120.0369494,687.428667L121.9509494,664.064667L152.6868235,622.4955294L154.6588235,598.4235294L156.0200735,596.9315994L150.5872771,613.6333931L151.9485271,612.1414631L157.3813235,595.4396694L158.7838235,593.9025294L163.4866777,583.8881862L167.6116777,579.3671862L162.9088235,589.3815294L164.3113235,587.8443894L177.2213081,571.6778931L178.6238081,570.1407531L165.7138235,586.3072494L167.1588235,584.7235294L200.9588235,565.0235294L221.6588235,556.6235294"
   id="path3889" />
<path
   style="fill:#796E63;stroke:#796E63;stroke-width:0.5;"
   d="M317.5588235,497.8235294L304.5238235,534.9485294L275.9924629,518.0894748L262.9574629,555.2144748L291.4888235,572.0735294L278.0588235,610.3235294L253.5588235,693.8235294L238.0588235,691.9235294L233.6368235,713.1095294L205.5699023,701.7447833L201.1479023,722.9307833L210.4099863,726.6811495L165.6440371,714.9136668L174.9061211,718.664033L219.6720703,730.4315157L229.2148235,734.2955294L224.6588235,756.1235294L208.7588235,747.5235294L211.9598235,727.3935294L210.9695281,751.1694884L214.1705281,731.0394884L215.1608235,707.2635294L216.2491635,700.4193294L178.0443982,726.7388332L179.1327382,719.8946332L217.3375035,693.5751294L218.4588235,686.5235294L222.9468235,662.6315294L207.3213467,684.3694864L211.8093467,660.4774864L216.965754,653.3039606L230.1069093,639.0175379L235.2633166,631.8440121L222.1221614,646.1304348L227.4348235,638.7395294L232.0588235,614.1235294L237.3388235,613.2985294L255.7020132,583.0257595L260.9820132,582.2007595L242.6188235,612.4735294L248.0588235,611.6235294L256.5398235,579.4155294L294.955637,594.8438818L303.436637,562.6358818L265.0208235,547.2075294L273.7588235,514.0235294L317.5588235,497.8235294"
   id="path3891" />
<path
   style="fill:#807468;stroke:#807468;stroke-width:0.5;"
   d="M359.0588235,420.2235294L342.0638235,464.0145294L365.678707,426.5592567L348.683707,470.3502567L325.0688235,507.8055294L307.5588235,552.9235294L295.8438235,555.3325294L303.9348918,532.7196716L292.2198918,535.1286716L284.1288235,557.7415294L272.0588235,560.2235294L269.7610335,569.4473594L278.7553267,526.2799591L276.4575367,535.5037891L267.4632435,578.6711894L265.0958235,588.1745294L297.8257353,564.4249872L290.8627353,592.3759872L258.1328235,616.1255294L255.7654035,625.6288694L295.1227796,657.7785658L292.7553596,667.2819058L253.3979835,635.1322094L250.9588235,644.9235294L234.2588235,654.3235294L230.2988235,654.2905294L203.6738579,658.3793127L199.7138579,658.3463127L226.3388235,654.2575294L222.2588235,654.2235294L210.0588235,662.0235294L219.9588235,594.1235294L226.4268235,593.7275294L200.3029183,589.2135981L202.4373583,589.0829181L212.7694659,572.8249645L214.9039059,572.6942845L204.5717983,588.9522381L205.2975079,588.9078069L159.2622182,540.2003217L159.9879278,540.1558905L206.0232175,588.8633757L206.7709183,588.8175981L232.8948235,593.3315294L239.5588235,592.9235294L258.8588235,503.5235294L285.0588235,477.7235294L312.6588235,462.1235294L359.0588235,420.2235294"
   id="path3893" />
<path
   style="fill:#6C6258;stroke:#6C6258;stroke-width:0.5;"
   d="M256.4588235,482.8235294L251.3108235,510.4115294L239.8985845,508.0014037L234.7505845,535.5894037L238.5166233,536.3847452L248.3203,545.972796L252.0863388,546.7681375L242.2826622,537.1800867L246.1628235,537.9995294L240.8588235,566.4235294L215.8588235,578.8235294L214.3886735,578.9106494L249.7554948,547.3128444L248.2853448,547.3999644L236.6142938,557.82724L223.584337,518.2742653L211.913286,528.701541L224.9432428,568.2545157L212.9185235,578.9977694L212.4186725,579.0273902L248.7226696,545.7337615L248.2228186,545.7633823L211.9188215,579.057011L211.4038235,579.0875294L223.0221287,582.2223809L178.1694905,567.9041054L189.7877957,571.0389569L234.6404339,585.3572323L246.610809,588.5870793L242.155809,588.8510793L206.9488235,579.3515294L202.3588235,579.6235294L193.4588235,589.3235294L199.0588235,525.2235294L220.9588235,508.7235294L239.1588235,502.3235294L256.4588235,482.8235294"
   id="path3895" />
<path
   style="fill:#887B6E;stroke:#887B6E;stroke-width:0.5;"
   d="M518.1588235,501.7235294L383.0588235,551.0235294L337.3588235,652.0235294L313.9588235,652.6235294L294.2588235,652.8235294L287.6918235,655.8595294L310.5724731,606.7643756L304.0054731,609.8003756L281.1248235,658.8955294L274.3588235,662.0235294L278.8890635,661.3919094L234.4559466,694.3294361L238.9861866,693.6978161L283.4193035,660.7602894L288.0868235,660.1095294L239.8332873,699.769411L244.3635273,699.137791L255.6287098,665.432175L260.1589498,664.800555L248.8937673,698.506171L253.5612873,697.855411L269.4849543,684.7676501L246.0357241,640.6274065L247.7698114,639.2021494L246.1580064,597.4758463L246.7302553,597.0055114L266.1133043,567.8637039L266.6855531,567.393369L247.3025041,596.5351766L247.8920938,596.0505891L249.5038987,637.7768922L251.2905342,636.3084454L225.1048309,683.383717L230.359641,679.0647559L256.5453443,631.9894843L261.959391,627.5396456L285.4086212,671.6798892L301.8148235,658.1955294L315.9588235,656.2235294L351.7588235,563.7235294L386.5588235,554.8235294L432.2588235,542.6235294L518.1588235,501.7235294"
   id="path3897" />
<path
   style="fill:#7E7267;stroke:#7E7267;stroke-width:0.5;"
   d="M454.1588235,340.3235294L427.2638235,394.5755294L399.4923506,368.649607L372.5973506,422.901607L400.3688235,448.8275294L372.6588235,504.7235294L361.5048235,509.0135294L376.9246882,506.692L365.7706882,510.982L350.3508235,513.3035294L338.8588235,517.7235294L284.0588235,544.8235294L264.2588235,626.3235294L254.7548235,628.8315294L277.0666064,644.49172L267.5626064,646.99972L245.2508235,631.3395294L235.4588235,633.9235294L226.2588235,694.8235294L235.4588235,633.9235294L246.9588235,633.3235294L257.8488235,630.5515294L304.3018226,583.7784772L315.1918226,581.0064772L268.7388235,627.7795294L279.9588235,624.9235294L304.6588235,537.7235294L372.6588235,504.7235294L381.5341735,486.8203694L362.9801536,501.8833691L371.8555036,483.9802091L377.9783302,479.0094192L368.7360816,525.2802665L374.8589082,520.3094766L384.1011568,474.0386293L390.4095235,468.9172094L399.5538235,450.4715294L408.2284337,442.1231817L414.5275479,435.3288244L423.202158,426.9804768L416.9030438,433.7748341L425.8405209,425.1735062L452.7355209,370.9215062L426.4488235,396.2195294L454.1588235,340.3235294"
   id="path3899" />
<path
   style="fill:#695F56;stroke:#695F56;stroke-width:0.5;"
   d="M222.0588235,625.8235294L201.8588235,625.1235294L185.4588235,624.0235294L182.4228235,624.3535294L222.087092,587.4633088L219.051092,587.7933088L179.3868235,624.6835294L178.3545835,624.7957294L189.4045217,595.8662098L188.3722817,595.9784098L177.3223435,624.9079294L176.9713819,624.9460774L220.1795996,643.2211476L220.0637822,643.2337364L267.3096662,605.7067475L267.1938488,605.7193363L251.6027071,618.1032427L272.8533366,637.5340708L257.2621949,649.9179771L236.0115654,630.487149L219.9479649,643.2463253L219.828638,643.2592956L176.6204203,624.9842254L176.5010934,624.9971957L137.045012,625.8232684L137.0320173,625.8246809L121.58421,671.5866476L121.5712153,671.5880601L137.0190226,625.8260934L137.0056341,625.8275486L179.6918104,647.4189259L179.6524325,647.4232061L136.9662562,625.8318288L136.9256851,625.8362387L176.3817664,625.0101661L176.2588235,625.0235294L170.8588235,686.8235294L174.9178235,688.4075294L132.4565236,678.6434303L136.5155236,680.2274303L178.9768235,689.9915294L183.1588235,691.6235294L187.8778235,693.3725294L229.9669043,685.490888L234.6859043,687.239888L192.5968235,695.1215294L197.4588235,696.9235294L208.5588235,698.9235294L222.0588235,625.8235294"
   id="path3901" />
<path
   style="fill:#827669;stroke:#827669;stroke-width:0.5;"
   d="M408.1588235,411.1235294L380.0758235,465.7715294L390.9333742,451.5790646L348.3915841,405.8255856L359.2491348,391.6331208L401.7909248,437.3865998L412.9774921,422.7640602L403.7101021,440.7979002L450.2026787,408.5007658L440.9352887,426.5346058L425.5927384,437.1926602L416.5146172,443.4712704L401.1720669,454.1293248L404.1678469,452.0573834L407.9832353,450.061215L382.7230729,482.4929129L386.5384612,480.4967445L411.7986236,448.0650467L415.7296298,446.0083884L371.4176295,415.8199233L382.9794123,409.7709282L427.2914126,439.9593934L439.2035525,433.7270955L442.1993325,431.6551541L430.6375496,437.7041491L467.5166123,427.2040041L455.9548295,433.2529992L419.0757668,443.7531441L407.1636269,449.985442L408.1821921,449.2809819L424.2419722,471.0266637L425.2605374,470.3222036L409.2007573,448.5765219L410.2501881,447.8507145L394.4427121,458.8317402L384.8944921,477.4120602L351.9928235,520.4195294L323.0588235,576.7235294L276.3588235,584.2235294L248.9588235,675.4235294L224.8588235,671.0235294L212.1588235,737.9235294L199.9588235,741.6235294L209.6588235,678.9235294L229.4588235,683.8235294L249.0588235,602.1235294L260.4108235,601.0675294L216.3972279,564.8416383L227.7492279,563.7856383L271.7628235,600.0115294L283.4588235,598.9235294L333.8588235,470.2235294L408.1588235,411.1235294"
   id="path3903" />
<path
   style="fill:#60574E;stroke:#60574E;stroke-width:0.5;"
   d="M207.0588235,484.5235294L198.7588235,558.5235294L186.1588235,560.2235294L183.4528235,563.6885294L184.5563201,594.8438296L181.8503201,598.3088296L180.7468235,567.1535294L177.9588235,570.7235294L173.3388235,573.5615294L189.531832,537.3014014L184.911832,540.1394014L168.7188235,576.3995294L163.9588235,579.3235294L166.6588235,519.9235294L170.0578235,518.9005294L130.4062389,503.8141647L131.5279089,503.4765747L85.0794874,485.2113273L86.2011574,484.8737373L132.6495789,503.1389847L133.8052389,502.7911647L173.4568235,517.8775294L176.9588235,516.8235294L185.7588235,503.5235294L192.7878235,497.2535294L164.6672104,481.9844407L171.6962104,475.7144407L199.8168235,490.9835294L202.2066835,488.8517294L185.1788286,523.5400114L187.5686886,521.4082114L204.5965435,486.7199294L207.0588235,484.5235294"
   id="path3905" />
<path
   style="fill:#8C7F72;stroke:#8C7F72;stroke-width:0.5;"
   d="M298.2588235,428.6235294L256.5588235,471.9235294L227.7588235,584.9235294L227.1478945,585.0924333L195.4005534,602.3390611L194.7896244,602.507965L205.266247,596.8165778L193.1154825,608.6518668L203.5921051,602.9604797L215.7428695,591.1251907L219.3049212,589.190119L251.7295619,542.3752959L255.2916135,540.4402242L222.8669729,587.2550474L226.5369655,585.2613372L225.9075235,585.4353594L268.5342859,589.9286913L267.9233569,590.0975952L287.5980395,622.4731216L286.9871105,622.6420255L267.3124279,590.2664991L266.6829859,590.4405213L224.0562235,585.9471894L222.1488235,586.4745294L213.706517,634.5901643L208.096517,636.1411643L216.5388235,588.0255294L210.7588235,589.6235294L190.0588235,591.8235294L191.7903335,590.2009194L159.8206909,627.7732079L161.5522009,626.1505979L193.5218435,588.5783094L195.3058235,586.9065294L226.6870491,573.9358911L231.9340491,569.0188911L200.5528235,581.9895294L205.9588235,576.9235294L225.8588235,474.7235294L249.1588235,458.5235294L298.2588235,428.6235294"
   id="path3907" />
<path
   style="fill:#908375;stroke:#908375;stroke-width:0.5;"
   d="M429.7588235,389.3235294L329.6588235,444.6235294L281.6588235,487.7235294L247.9588235,600.9235294L229.1588235,604.7235294L223.1198235,609.1785294L255.0076409,593.018995L248.9686409,597.473995L217.0808235,613.6335294L215.0275635,615.1482294L240.3587746,632.585306L238.3055146,634.100006L212.9743035,616.6629294L210.8588235,618.2235294L218.6468235,618.1575294L230.8025004,613.1266609L229.6364428,578.2166496L241.7921196,573.1857811L242.9581772,608.0957924L255.4822079,602.9124733L263.2702079,602.8464733L226.4348235,618.0915294L234.4588235,618.0235294L258.7588235,602.4235294L271.7938235,563.1205294L232.3527148,515.1335452L245.3877148,475.8305452L284.8288235,523.8175294L298.2588235,483.3235294L312.5148235,475.5025294L262.7230106,508.4619906L276.9790106,500.6409906L293.4103089,489.7643684L318.0960732,454.3555855L323.5184016,450.7663001L291.5121379,480.8788528L296.9344663,477.2895675L328.9407301,447.1770148L334.5273715,443.4789633L309.8416071,478.8877462L326.7708235,467.6815294L341.4588235,459.6235294L429.7588235,389.3235294"
   id="path3909" />
<path
   style="fill:#504941;stroke:#504941;stroke-width:0.5;"
   d="M101.7588235,489.6235294L91.2588235,505.5235294L87.0588235,517.3235294L81.3588235,519.7235294L76.1588235,521.7235294L76.9508235,539.3785294L97.9446285,575.7140931L98.7366285,593.3690931L77.7428235,557.0335294L78.5588235,575.2235294L85.2588235,567.8235294L86.4138235,564.8865294L73.6775984,539.1680312L74.8325984,536.2310312L79.0355527,544.7181356L58.3071553,539.6858823L62.5101096,548.1729867L83.238507,553.20524L87.5688235,561.9495294L87.9615235,560.9509494L83.7340846,546.8989408L96.901752,555.3504026L92.6743131,541.2983939L79.5066457,532.8469322L75.1511025,518.3691051L75.5438025,517.3705251L88.3542235,559.9523694L88.7588235,558.9235294L94.8588235,558.0235294L101.7588235,556.8235294L101.7588235,549.5054494L130.4763414,598.2518445L130.4763414,590.9337645L101.7588235,542.1873694L101.7588235,534.6475294L92.4057247,531.1971787L47.0435382,550.503743L37.6904394,547.0533922L83.0526258,527.7468279L73.4160997,524.191921L73.4160997,502.015921L82.7691986,505.4662718L115.8532096,496.0926069L125.2063085,499.5429577L92.1222974,508.9166226L101.7588235,512.4715294L101.7588235,489.6235294"
   id="path3911" />
<path
   style="fill:#585048;stroke:#585048;stroke-width:0.5;"
   d="M217.3588235,628.3235294L206.5588235,696.3235294L185.8588235,697.2235294L183.3508235,696.6295294L205.7946903,711.8355803L203.2866903,711.2415803L180.8428235,696.0355294L178.2588235,695.4235294L170.4588235,700.5235294L168.4128235,699.9625294L153.6941002,660.6785862L153.0189202,660.4934562L171.7120812,638.1502975L171.0369012,637.9651675L152.3437402,660.3083262L151.6481002,660.1175862L156.5052789,673.0812875L152.1997255,647.3837701L157.0569042,660.3474713L161.3624576,686.0449887L166.3668235,699.4015294L164.2588235,698.8235294L162.1798235,700.3415294L190.8935267,670.6573673L190.2074567,671.1583073L187.4135724,651.148122L186.7275024,651.649062L189.5213867,671.6592473L188.8145267,672.1753673L160.1008235,701.8595294L157.9588235,703.4235294L160.1588235,651.1235294L175.4588235,646.9235294L183.3588235,647.0235294L193.5588235,638.7235294L196.8918235,638.5915294L206.8837574,623.3692308L244.6482112,584.0068956L254.6401451,568.784597L216.8756912,608.1469322L227.1704109,592.4633518L230.5034109,592.3313518L200.2248235,638.4595294L203.6588235,638.3235294L208.1798235,635.0235294L164.6127383,630.7671856L169.1337383,627.4671856L212.7008235,631.7235294L217.3588235,628.3235294"
   id="path3913" />
</g>
<path
   style="font-size:12;font-weight:normal;stroke-width:3pt;font-family:helvetica;"
   d="M -293.3542 -222.05819 C -300.09211 -222.05819 -306.44276 -220.27601 -312.38545 -216.77694 L -312.38545 -189.24569 C -310.55625 -191.57012 -308.79955 -193.67532 -307.13545 -195.33944 C -300.32044 -201.63024 -292.71069 -204.77694 -284.32295 -204.77694 C -274.62458 -204.77693 -267.01488 -199.5116 -261.51045 -189.02694 C -257.0545 -180.63919 -254.82295 -171.85727 -254.82295 -162.68319 C -254.82289 -146.16985 -261.26048 -133.6143 -274.1042 -124.96444 C -281.05074 -120.17373 -291.43395 -116.16013 -304.94795 -112.90194 C -311.21014 -116.23611 -321.72867 -119.96445 -327.9792 -119.96444 C -341.3471 -119.96444 -352.50471 -113.63981 -361.4167 -101.05819 C -369.54231 -89.525063 -373.74829 -76.82537 -374.01045 -62.933192 C -373.74832 -60.049911 -373.34724 -56.389196 -372.82295 -51.933192 C -372.29875 -47.739325 -371.38354 -43.019263 -370.07295 -37.776942 C -369.02449 -32.796735 -368.36636 -28.590694 -368.1042 -25.183192 C -367.58 -21.775672 -367.32292 -19.174245 -367.32295 -17.339442 C -367.32295 -15.504632 -367.58004 -13.78715 -368.1042 -12.214442 C -368.62846 -11.428092 -369.80057 -10.255906 -371.63545 -8.6831924 L -371.63545 -3.5581924 L -356.38545 -3.5581924 L -356.38545 156.22306 C -354.1829 157.64427 -351.73724 159.13659 -349.2917 160.59806 L -388.2292 160.59806 L -388.2292 167.94181 C -385.59936 170.19591 -383.9181 171.87728 -383.1667 173.00431 C -382.41544 175.2584 -382.0417 177.71832 -382.0417 180.34806 C -382.04169 182.9778 -382.4154 186.71425 -383.1667 191.59806 C -383.25273 192.71627 -383.4595 194.11178 -383.6042 195.34806 C -388.91273 199.72469 -394.73318 202.03556 -401.13545 202.03556 C -409.25814 202.03554 -415.61906 197.6293 -420.2292 188.84806 C -423.9612 181.82303 -425.82295 174.46916 -425.82295 166.78556 C -425.82298 152.95509 -420.45498 142.40509 -409.69795 135.16056 C -403.33156 130.76994 -393.68156 127.17072 -380.7292 124.31681 L -380.7292 119.03556 L -430.13545 119.03556 L -430.13545 123.31681 C -428.59866 124.63401 -427.60579 125.62697 -427.1667 126.28556 C -426.72769 127.60274 -426.51045 129.03009 -426.51045 130.56681 C -426.51044 132.10352 -426.72767 134.27541 -427.1667 137.12931 C -427.38626 139.9832 -427.94484 143.52072 -428.82295 147.69181 C -429.92062 152.08242 -430.66517 156.02306 -431.1042 159.53556 C -431.54329 163.2676 -431.88466 166.33947 -432.1042 168.75431 C -431.88463 180.38945 -428.37841 191.03243 -421.57295 200.69181 C -414.10887 211.2293 -404.769 216.50431 -393.57295 216.50431 C -391.4504 216.50431 -389.38132 216.20748 -387.3542 215.78556 C -388.46014 220.83138 -389.38123 225.6265 -389.9167 229.91056 C -390.66813 236.29711 -391.2285 241.55936 -391.6042 245.69181 C -391.22846 265.60272 -385.21895 283.81824 -373.57295 300.34806 C -360.7999 318.38058 -344.8262 327.41056 -325.6667 327.41056 C -316.00962 327.41053 -306.93405 324.83185 -298.4167 319.81681 L -298.4167 292.44181 C -290.35859 286.86863 -281.61673 283.97306 -272.1667 283.97306 C -258.26654 283.97305 -247.3684 291.50846 -239.4792 306.53556 C -233.09272 318.55725 -229.9167 331.13684 -229.9167 344.28556 C -229.91664 367.95324 -239.10224 385.98194 -257.51045 398.37931 C -267.88016 405.53084 -283.52361 411.45416 -304.1042 416.22306 C -308.84107 414.16504 -313.8945 413.06681 -319.26045 413.06681 C -321.83618 413.06681 -324.26362 413.32989 -326.57295 413.81681 L -326.57295 369.87931 L -345.82295 369.87931 C -351.5586 369.87931 -355.81132 369.1476 -358.57295 367.66056 C -362.82165 365.96109 -364.94797 363.003 -364.94795 358.75431 C -364.94795 355.35537 -363.88477 352.56613 -361.76045 350.44181 C -359.42366 348.10504 -357.49744 346.07874 -356.01045 344.37931 L -363.9792 344.37931 C -370.56464 350.32745 -374.61718 355.24298 -376.1042 359.06681 C -376.74154 360.3414 -377.37316 363.19945 -378.01045 367.66056 C -377.37317 373.39627 -376.51011 377.11733 -375.44795 378.81681 C -372.47387 383.70278 -366.3263 386.46079 -356.9792 387.09806 C -359.74083 390.28456 -362.39879 393.90557 -364.94795 397.94181 C -367.28475 401.97805 -369.51107 406.43084 -371.63545 411.31681 C -376.30898 421.72605 -378.86677 431.16322 -379.2917 439.66056 C -379.07925 448.58277 -376.29004 456.35633 -370.9792 462.94181 C -365.03104 469.95212 -357.1887 473.44177 -347.4167 473.44181 C -346.34255 473.44181 -345.30917 473.30617 -344.26045 473.22306 C -343.97618 473.88767 -343.74992 474.51922 -343.44795 475.19181 C -343.28499 475.5666 -343.11202 475.85333 -342.94795 476.22306 C -343.64938 477.05786 -344.3733 477.84723 -345.0417 478.72306 C -354.21484 490.87121 -359.17296 504.02904 -359.9167 518.16056 C -359.42081 531.54833 -356.68766 544.07075 -351.7292 555.72306 C -347.01868 566.87948 -342.1876 574.06258 -337.2292 577.28556 L -337.2292 578.03556 L -358.7917 578.03556 L -359.9167 579.53556 C -358.67707 583.00644 -357.3105 586.47091 -355.82295 589.94181 C -354.08751 593.66066 -352.21256 597.6334 -350.2292 601.84806 C -346.26245 610.02947 -343.30631 617.08544 -341.32295 623.03556 L -335.7292 623.03556 C -336.47293 611.87908 -335.13761 604.56896 -331.6667 601.09806 C -329.18756 599.11471 -323.72101 598.12931 -315.2917 598.12931 L -312.38545 598.12931 L -312.38545 638.81681 L -329.6042 638.81681 C -348.7637 638.81681 -360.81418 636.57492 -365.69795 632.06681 C -373.21155 626.05597 -377.32152 610.82959 -378.07295 586.41056 L -386.5417 586.41056 L -386.5417 716.03556 L -378.07295 716.03556 C -377.69725 696.876 -374.70818 684.26514 -369.07295 678.25431 C -363.43785 672.24347 -350.26637 669.25428 -329.6042 669.25431 L -312.38545 669.25431 L -312.38545 719.84806 C -282.0875 714.77354 -258.48139 701.33046 -241.7292 679.37931 C -234.20355 669.41296 -228.63321 658.98125 -224.8542 648.12931 C -209.84127 641.0512 -197.21808 630.99729 -187.13545 617.78556 C -173.23533 599.37733 -165.7312 579.44919 -164.6042 558.03556 C -165.35565 537.74892 -169.49685 518.78616 -177.01045 501.12931 C -184.14834 484.22379 -191.4657 473.32562 -198.9792 468.44181 L -198.9792 467.31681 L -166.2917 467.31681 L -164.6042 465.06681 C -166.48265 459.80727 -168.5376 454.54505 -170.7917 449.28556 C -173.42142 443.65035 -176.25505 437.64083 -179.26045 431.25431 C -185.27132 418.85691 -189.7863 408.14558 -192.7917 399.12931 L -201.2292 399.12931 C -200.10219 416.03476 -202.1572 427.11982 -207.4167 432.37931 C -211.17336 435.38468 -219.4562 436.87931 -232.2292 436.87931 L -257.7917 436.87931 L -257.7917 486.00431 C -258.84969 489.2951 -260.16064 492.12325 -262.01045 493.97306 C -265.76709 496.97846 -274.04995 498.47306 -286.82295 498.47306 L -298.4167 498.47306 L -298.4167 426.00431 L -222.57295 426.00431 L -222.57295 418.66056 C -225.20279 416.40646 -226.88405 414.72509 -227.63545 413.59806 C -228.38671 411.34396 -228.76045 408.88405 -228.76045 406.25431 C -228.76046 403.62456 -228.38675 399.88812 -227.63545 395.00431 C -227.25971 390.12049 -226.32565 384.11093 -224.82295 376.97306 C -222.94454 369.4595 -221.63675 362.70266 -220.88545 356.69181 C -220.13402 350.30525 -219.57365 345.04301 -219.19795 340.91056 C -219.45396 327.34419 -222.39771 314.59334 -227.88545 302.59806 L -222.4167 302.59806 C -211.66148 302.59806 -204.81867 304.15675 -201.88545 307.28556 C -198.95216 310.41437 -197.39351 316.96873 -197.19795 326.94181 L -192.7917 326.94181 L -192.7917 259.47306 L -197.19795 259.47306 C -197.58909 272.18384 -199.72441 280.1255 -203.63545 283.25431 C -206.17759 285.60092 -212.44366 286.75431 -222.4167 286.75431 L -236.88545 286.75431 C -237.00182 286.58717 -237.11168 286.42111 -237.2292 286.25431 C -250.00225 268.22175 -265.97595 259.19181 -285.13545 259.19181 C -294.79253 259.1918 -303.8681 261.77052 -312.38545 266.78556 L -312.38545 294.16056 C -320.44721 299.73984 -329.18023 302.62931 -338.63545 302.62931 C -352.53561 302.62928 -363.43375 295.09391 -371.32295 280.06681 C -377.70943 268.04508 -380.88545 255.46553 -380.88545 242.31681 C -380.88551 218.64912 -371.69991 200.62043 -353.2917 188.22306 C -343.49708 181.46814 -328.88388 175.85209 -309.9792 171.22306 C -293.64865 168.17129 -287.66891 160.20339 -279.07295 149.94181 C -277.31108 150.88587 -275.57249 151.83544 -274.1042 152.84806 C -261.26048 161.49792 -254.82289 174.08472 -254.82295 190.59806 C -254.82295 199.77214 -257.0545 208.52282 -261.51045 216.91056 C -267.01488 227.39522 -274.62458 232.66054 -284.32295 232.66056 C -292.71069 232.66056 -300.32044 229.51385 -307.13545 223.22306 C -308.79955 221.55894 -310.55625 219.45373 -312.38545 217.12931 L -312.38545 244.66056 C -306.44276 248.15963 -300.09211 249.97306 -293.3542 249.97306 C -279.9863 249.97306 -268.85991 243.64842 -259.94795 231.06681 C -251.82234 219.53368 -247.61636 206.83398 -247.3542 192.94181 C -247.61633 190.05853 -248.01741 186.39781 -248.5417 181.94181 C -249.0659 177.74794 -249.98111 173.02787 -251.2917 167.78556 C -252.34016 162.80535 -252.99829 158.5993 -253.26045 155.19181 C -253.78465 151.78429 -254.04173 149.18287 -254.0417 147.34806 C -254.0417 145.51325 -253.78461 143.79576 -253.26045 142.22306 C -252.73619 141.43671 -251.53283 140.26452 -249.69795 138.69181 L -249.69795 133.56681 L -269.01045 133.56681 C -265.50466 125.55888 -263.42448 116.89297 -263.19795 107.37931 C -263.35997 104.13937 -263.77992 100.77666 -264.2917 97.379308 C -262.79013 95.72015 -261.3405 93.970266 -259.94795 92.004308 C -251.82234 80.47118 -247.61636 67.740223 -247.3542 53.848058 C -247.61633 50.964776 -248.01741 47.304051 -248.5417 42.848058 C -249.0659 38.654191 -249.98111 33.934117 -251.2917 28.691808 C -252.34016 23.7116 -252.99829 19.53683 -253.26045 16.129308 C -253.78465 12.72179 -254.04173 10.089114 -254.0417 8.2543076 C -254.0417 6.4194976 -253.78461 4.7020036 -253.26045 3.1293076 C -252.73619 2.3429576 -251.53283 1.1707586 -249.69795 -0.40194243 L -249.69795 -5.5269424 L -267.94795 -5.5269424 C -266.98047 -9.0590164 -266.13694 -13.763319 -265.44795 -19.964442 C -266.57496 -27.853657 -267.69585 -32.929132 -268.82295 -35.183192 C -271.45266 -41.945417 -278.61445 -50.601722 -290.26045 -61.120692 L -304.32295 -61.120692 C -301.6933 -58.115309 -298.33043 -54.53439 -294.19795 -50.401942 C -290.44121 -46.645167 -288.5417 -41.756532 -288.5417 -35.745692 C -288.54167 -28.232147 -292.30935 -22.969862 -299.82295 -19.964442 C -304.70675 -17.334677 -312.211 -16.026942 -322.3542 -16.026942 L -333.7917 -16.026942 C -339.13805 -18.093562 -343.6696 -20.362995 -347.26045 -22.839442 C -360.10417 -31.489302 -366.51048 -44.076092 -366.51045 -60.589442 C -366.51045 -69.763521 -364.31012 -78.545446 -359.8542 -86.933192 C -354.34977 -97.417852 -346.74007 -102.65193 -337.0417 -102.65194 C -328.65396 -102.65194 -321.04421 -99.50524 -314.2292 -93.214442 C -314.13283 -93.118072 -314.01371 -92.969911 -313.9167 -92.870692 L -312.38545 -86.026942 L -281.19795 -86.026942 C -260.53578 -86.026936 -247.3643 -83.037782 -241.7292 -77.026942 C -236.09397 -71.016086 -233.1049 -58.405262 -232.7292 -39.245692 L -224.26045 -39.245692 L -224.26045 -109.37069 L -217.13545 -109.37069 C -206.38022 -109.37069 -199.53742 -107.812 -196.6042 -104.68319 C -193.6709 -101.55438 -192.11226 -95.000022 -191.9167 -85.026942 L -187.51045 -85.026942 L -187.51045 -152.49569 L -191.9167 -152.49569 C -192.30783 -139.7849 -194.44316 -131.84325 -198.3542 -128.71444 C -200.89633 -126.36783 -207.16241 -125.21444 -217.13545 -125.21444 L -224.26045 -125.21444 L -224.26045 -168.87069 L -232.7292 -168.87069 C -233.48063 -144.45164 -237.5906 -129.22528 -245.1042 -123.21444 C -246.94548 -121.51478 -250.13483 -120.23988 -254.01045 -119.18319 C -254.012 -119.28255 -254.0417 -119.36437 -254.0417 -119.46444 C -254.04173 -121.29926 -253.78465 -123.90067 -253.26045 -127.30819 C -252.99829 -130.71571 -252.34016 -134.89048 -251.2917 -139.87069 C -249.98111 -145.11301 -249.0659 -149.83307 -248.5417 -154.02694 C -248.01741 -158.48294 -247.61633 -162.17491 -247.3542 -165.05819 C -247.61636 -178.95036 -251.82234 -191.65006 -259.94795 -203.18319 C -268.85991 -215.7648 -279.9863 -222.05819 -293.3542 -222.05819 z M -281.4792 9.5980576 C -278.73792 10.920495 -276.23008 12.288182 -274.1042 13.754308 C -261.26048 22.404168 -254.82289 34.99096 -254.82295 51.504308 C -254.82295 60.678388 -257.0545 69.460315 -261.51045 77.848058 C -263.07176 80.821998 -264.86143 83.24716 -266.76045 85.379308 C -269.03387 76.466497 -272.28998 67.110416 -276.7292 57.223058 C -280.48605 48.582488 -284.4092 40.704688 -288.5417 33.566808 C -293.04977 26.428978 -297.75165 20.045728 -302.63545 14.410558 C -294.04852 13.825103 -287.02562 12.212396 -281.4792 9.5980576 z "
   id="path578" />
<g
   id="g4149"
   transform="matrix(0.239023,0.000000,0.000000,0.239023,692.8829,326.3727)">
  <rect
     style="font-size:12;fill:none;fill-opacity:0.75;fill-rule:evenodd;stroke:#f10000;stroke-width:84.8374;"
     id="rect600"
     width="533.46893311"
     height="533.46887207"
     x="-95.15757407"
     y="1155.97179104"
     ry="160.558594"
     rx="132.072388" />
  <text
     xml:space="preserve"
     style="fill:black;fill-opacity:1;stroke:#000000;font-family:Nimbus Sans L;font-style:normal;font-weight:bold;font-size:16;stroke-opacity:1;stroke-width:0.262777;stroke-linejoin:round;stroke-linecap:round;text-anchor:start;writing-mode:lr;stroke-dasharray:none;"
     x="0.38141532"
     y="51.8508521"
     id="text601"
     transform="scale(30.90035,30.90035)"
     sodipodi:linespacing="100%"><tspan
       x="0.38141531"
       y="51.8508530"
       sodipodi:role="line"
       id="tspan602"
       style="stroke:#000000;stroke-opacity:1;stroke-width:0.262777;stroke-dasharray:none;stroke-linejoin:round;stroke-linecap:round;">P</tspan></text>
</g>
</svg>
