<?xml version="1.0" encoding="UTF-8" standalone="no"?>
<!DOCTYPE svg PUBLIC "-//W3C//DTD SVG 20010904//EN"
"http://www.w3.org/TR/2001/REC-SVG-20010904/DTD/svg10.dtd"
[
 <!ATTLIST svg
  xmlns:xlink CDATA #FIXED "http://www.w3.org/1999/xlink">
]>
<!-- Created with Sodipodi ("http://www.sodipodi.com/") -->
<svg
   xmlns="http://www.w3.org/2000/svg"
   xmlns:xlink="http://www.w3.org/1999/xlink"
   version="1"
   x="0.00000000"
   y="0.00000000"
   width="625.000000"
   height="625.000000"
   id="svg548">
  <defs
     id="defs550">
    <linearGradient
       x1="0.00000000"
       y1="0.00000000"
       x2="1.00000000"
       y2="0.00000000"
       id="linearGradient600"
       gradientUnits="objectBoundingBox"
       spreadMethod="pad">
      <stop
         style="stop-color:#000000;stop-opacity:1;"
         offset="0.00000000"
         id="stop601" />
      <stop
         style="stop-color:#3f3a33;stop-opacity:1;"
         offset="1.00000000"
         id="stop602" />
    </linearGradient>
    <linearGradient
       x1="0.00000000"
       y1="0.00000000"
       x2="1.00000000"
       y2="0.00000000"
       id="linearGradient596"
       gradientUnits="objectBoundingBox"
       spreadMethod="pad">
      <stop
         style="stop-color:#ff8200;stop-opacity:1;"
         offset="0.00000000"
         id="stop597" />
      <stop
         style="stop-color:#af5500;stop-opacity:1;"
         offset="1.00000000"
         id="stop598" />
    </linearGradient>
    <linearGradient
       x1="0.00000000"
       y1="0.00000000"
       x2="1.00000000"
       y2="0.00000000"
       id="linearGradient589"
       gradientUnits="objectBoundingBox"
       spreadMethod="pad">
      <stop
         style="stop-color:#87827f;stop-opacity:1;"
         offset="0.00000000"
         id="stop590" />
      <stop
         style="stop-color:#fff8f3;stop-opacity:1;"
         offset="1.00000000"
         id="stop591" />
    </linearGradient>
    <linearGradient
       x1="0.00000000"
       y1="0.00000000"
       x2="1.00000000"
       y2="0.00000000"
       id="linearGradient592"
       xlink:href="#linearGradient600"
       gradientUnits="objectBoundingBox"
       spreadMethod="pad" />
    <linearGradient
       x1="1.70834410"
       y1="0.41406876"
       x2="-0.66666609"
       y2="0.22656265"
       id="linearGradient593"
       xlink:href="#linearGradient589"
       gradientUnits="objectBoundingBox"
       spreadMethod="pad" />
    <linearGradient
       x1="0.98649454"
       y1="0.96094131"
       x2="-0.01351294"
       y2="-0.02343744"
       id="linearGradient594"
       xlink:href="#linearGradient589"
       gradientUnits="objectBoundingBox"
       spreadMethod="pad" />
    <linearGradient
       x1="0.01503374"
       y1="0.01184360"
       x2="0.99248099"
       y2="0.99999934"
       id="linearGradient595"
       xlink:href="#linearGradient596"
       gradientUnits="objectBoundingBox"
       spreadMethod="pad" />
    <linearGradient
       x1="0.95098042"
       y1="0.95312500"
       x2="-0.00980393"
       y2="0.01562500"
       id="linearGradient599"
       xlink:href="#linearGradient600"
       gradientUnits="objectBoundingBox"
       spreadMethod="pad" />
    <linearGradient
       x1="0.00375644"
       y1="0.01589328"
       x2="0.99624056"
       y2="0.98437726"
       id="linearGradient604"
       xlink:href="#linearGradient600"
       gradientUnits="objectBoundingBox"
       gradientTransform="translate(-2.621323e-8,1.126018e-6)"
       spreadMethod="pad" />
  </defs>
  <path
     d="M 321.035 831.066 C 324.32 846.615 330.289 859.642 363.112 865.351 C 397.397 871.585 416.099 857.559 417.658 849.767 C 420.02 835.594 373.453 828.142 364.671 820.158 C 347.528 806.132 318.074 815.49 321.035 831.066 z "
     transform="matrix(0.855041,0.000000,0.000000,0.855041,69.32004,-155.4171)"
     style="font-size:12;fill:#ff7f00;fill-rule:evenodd;stroke:#000000;stroke-width:6.25;stroke-linejoin:round;"
     id="path606" />
  <path
     d="M 153.71 752.893 C 187.155 664.724 181.194 560.389 206.291 473.335 C 239.299 358.836 277.483 324.186 340.075 230.092 C 355.659 213.773 394.7 203.725 422.066 202.887 C 449.97 202.033 477.228 219.922 505.883 225.016 C 527.985 228.945 568.393 223.618 570.442 226.842 C 572.341 231.216 532.725 243.479 517.726 257.162 C 488.891 271.247 472.744 301.619 477.12 316.379 C 481.703 323.096 485.486 329.208 487.271 341.758 C 490.754 462.96 498.41 586.565 473.736 700.444 C 461.752 755.757 429.007 817.06 382.373 840.873 C 349.487 857.666 299.037 826.722 257.171 823.954 C 230.796 822.21 214.445 827.775 188.587 823.692 C 150.153 817.623 105.831 811.92 97.1003 797.144 C 91.1681 787.105 144.748 776.371 153.71 752.893 z "
     transform="matrix(0.855041,0.000000,0.000000,0.855041,32.00951,-138.0944)"
     style="font-size:12;fill:url(#linearGradient599);fill-rule:evenodd;stroke:#000000;stroke-width:12.5;stroke-linejoin:round;"
     id="path552" />
  <path
     d="M 301.938 830.868 C 307.999 832.521 337.752 846.295 367.505 842.989 C 399.462 835.275 456.212 785.136 473.293 689.816 C 498.087 573.009 483.761 353.718 484.313 339.943 C 479.905 333.332 442.989 337.188 435.275 342.698 C 427.562 348.208 417.644 357.024 416.542 364.737 C 415.44 372.451 426.46 459.506 386.789 521.216 C 384.585 546.561 388.993 560.887 391.197 568.601 C 392.299 582.926 387.891 751.526 287.612 768.056 C 311.855 780.177 298.632 827.011 301.938 830.868 z "
     transform="matrix(0.855041,0.000000,0.000000,0.855041,32.00951,-138.0944)"
     style="font-size:12;fill:#ffffff;fill-rule:evenodd;stroke-width:1pt;"
     id="path580" />
  <path
     d="M 336.099 450.691 C 359.24 479.342 319.569 466.118 310.753 488.157 C 301.938 510.197 309.652 542.153 314.059 558.683 C 319.569 577.416 322.875 600.557 318.467 638.024 C 317.365 695.326 290.918 743.813 290.918 743.813 C 290.918 743.813 314.06 684.306 304.142 618.189 C 299.734 574.11 288.714 491.463 298.632 472.73 C 308.55 453.996 317.365 428.651 336.099 450.691 z "
     transform="matrix(0.855041,0.000000,0.000000,0.855041,32.00951,-138.0944)"
     style="font-size:12;fill:#ffffff;fill-rule:evenodd;stroke-width:1pt;"
     id="path582" />
  <path
     d="M 451.159 253.762 C 464.188 247.213 446.1 220.084 430.221 211.888 C 417.407 205.173 396.388 207.148 404.876 221.805 C 409.529 230.033 443.466 257.514 451.159 253.762 z "
     transform="matrix(0.855041,0.000000,0.000000,0.855041,32.00951,-138.0944)"
     style="font-size:12;fill:#ffffff;fill-rule:evenodd;stroke-width:1pt;"
     id="path584" />
  <path
     d="M 568.619 227.575 C 569.908 228.953 538.762 241.495 526.605 248.898 C 515.057 256.115 487.76 252.804 485.187 248.252 C 482.985 244.356 502.551 225.805 514.032 227.057 C 537.534 229.425 567.347 226.009 568.619 227.575 z "
     transform="matrix(0.855041,0.000000,0.000000,0.855041,32.00951,-138.0944)"
     style="font-size:12;fill:#ff7f00;fill-rule:evenodd;stroke-width:1pt;"
     id="path586" />
  <path
     d="M 447.655 243.933 C 442.093 245.257 439.863 249.778 444.538 251.336 C 449.214 252.895 453.889 250.557 453.889 247.829 C 453.889 245.102 450.275 243.309 447.655 243.933 z "
     transform="matrix(0.855041,0.000000,0.000000,0.855041,30.24283,-140.5679)"
     style="font-size:12;fill-rule:evenodd;stroke-width:1pt;"
     id="path588" />
  <path
     d="M 308.147 825.911 C 311.432 841.46 304.513 859.642 337.336 865.351 C 371.621 871.585 416.099 857.559 417.658 849.767 C 420.02 835.594 373.453 828.142 364.671 820.158 C 347.528 806.132 305.186 810.335 308.147 825.911 z "
     transform="matrix(0.855041,0.000000,0.000000,0.855041,32.00951,-138.0944)"
     style="font-size:12;fill:#ff7f00;fill-rule:evenodd;stroke:#000000;stroke-width:6.25;stroke-linejoin:round;"
     id="path603" />
  <path
     d="M 441.203 245.993 C 440.789 243.652 444.646 241.586 447.401 241.723 C 448.228 244.202 442.305 242.274 441.203 245.993 z "
     transform="matrix(0.855041,0.000000,0.000000,0.855041,32.00951,-138.0944)"
     style="font-size:12;opacity:0.754807;fill:#ffffff;fill-rule:evenodd;stroke-width:1pt;"
     id="path607" />
  <path
     d="M 459.055 70.7832 C 459.389 71.3169 474.291 67.536 482.043 65.7183 C 493.122 63.1205 516.063 57.7554 515.744 57.2443 C 515.414 56.7165 492.346 62.249 480.873 64.939 C 473.514 66.6645 458.739 70.2779 459.055 70.7832 z "
     style="font-size:12;opacity:0.497735;fill-rule:evenodd;stroke-width:1pt;"
     id="path608" />
</svg>
