<?xml version="1.0" encoding="UTF-8" standalone="no"?>
<!DOCTYPE svg PUBLIC "-//W3C//DTD SVG 20010904//EN"
"http://www.w3.org/TR/2001/REC-SVG-20010904/DTD/svg10.dtd">
<!-- Created with Inkscape ("http://www.inkscape.org/") -->
<svg
   version="1.0"
   x="0"
   y="0"
   width="625.000000"
   height="625.000000"
   id="svg1"
   sodipodi:version="0.32"
   inkscape:version="0.36"
   sodipodi:docname="/home/dan/icons/gnome-mud/gnome-mud.svg"
   sodipodi:docbase="/home/dan/icons/gnome-mud"
   xmlns="http://www.w3.org/2000/svg"
   xmlns:inkscape="http://www.inkscape.org/namespaces/inkscape"
   xmlns:sodipodi="http://sodipodi.sourceforge.net/DTD/sodipodi-0.dtd"
   xmlns:xlink="http://www.w3.org/1999/xlink">
  <sodipodi:namedview
     id="base" />
  <defs
     id="defs3">
    <linearGradient
       id="linearGradient569">
      <stop
         style="stop-color:#0c2659;stop-opacity:1;"
         offset="0.000000"
         id="stop570" />
      <stop
         style="stop-color:#7fa6e6;stop-opacity:1;"
         offset="1.000000"
         id="stop571" />
    </linearGradient>
    <linearGradient
       id="linearGradient563">
      <stop
         style="stop-color:#ffffff;stop-opacity:1;"
         offset="0"
         id="stop564" />
      <stop
         style="stop-color:#ffffff;stop-opacity:0;"
         offset="1"
         id="stop565" />
    </linearGradient>
    <linearGradient
       x1="-0.000000"
       y1="0.031250"
       x2="1.018518"
       y2="0.984375"
       id="linearGradient566"
       xlink:href="#linearGradient569" />
    <linearGradient
       x1="0.021276"
       y1="0.023437"
       x2="0.691489"
       y2="0.578125"
       id="linearGradient568"
       xlink:href="#linearGradient563" />
    <linearGradient
       id="linearGradient610"
       xlink:href="#linearGradient563"
       x1="1.303841"
       y1="0.801781"
       x2="-0.108805"
       y2="0.192927" />
    <linearGradient
       xlink:href="#linearGradient569"
       id="linearGradient583" />
  </defs>
  <path
     d="M 234.755 607.722 C 154.916 589.292 69.4427 255.722 143.167 60.4178 C 147.253 48.4757 573.786 152.827 574.309 166.528 C 582.52 363.895 312.579 625.945 234.755 607.722 z "
     style="font-size:12;opacity:0.302675;fill-rule:evenodd;stroke-width:13.5466;"
     id="path628" />
  <path
     d="M 210.007 582.974 C 130.168 564.544 44.6939 230.974 118.419 35.6691 C 122.505 23.727 549.038 128.079 549.561 141.78 C 557.772 339.147 287.831 601.197 210.007 582.974 z "
     style="font-size:12;opacity:0.99;fill:url(#linearGradient566);fill-rule:evenodd;stroke:#000000;stroke-width:18.75;stroke-dasharray:none;"
     id="path562" />
  <g
     transform="matrix(1.063473,0.532818,-0.532818,1.063473,277.3085,245.3586)"
     style="font-size:12;opacity:0.90172;stroke:none;stroke-width:2.5;stroke-opacity:1;fill:#ffffff;fill-opacity:1;"
     id="g622">
    <path
       d="M 321.445 509.324 C 323.883 507.504 323.023 499.962 321.793 496.34 C 319.598 491.161 315.63 488.995 312.698 491.927 C 309.765 494.86 309.689 499.585 312.303 504.049 C 314.176 507.033 319.667 510.655 321.445 509.324 z "
       transform="matrix(2.371462,0.000000,0.000000,2.371462,-816.7664,-1193.932)"
       style="fill:#ffffff;fill-rule:evenodd;stroke:none;stroke-opacity:1;fill-opacity:1;"
       id="path552" />
    <path
       d="M 334.993 498.276 C 339.301 498.165 339.965 490.321 339.965 486.619 C 340.075 483.416 340.241 476.29 333.999 475.792 C 330.076 475.295 326.209 478.996 326.761 484.797 C 327.591 489.658 330.297 497.061 334.993 498.276 z "
       transform="matrix(2.371462,0.000000,0.000000,2.371462,-816.7664,-1193.932)"
       style="fill:#ffffff;fill-rule:evenodd;stroke:none;stroke-opacity:1;fill-opacity:1;"
       id="path557" />
    <path
       d="M 355.472 492.123 C 360.471 492.123 363.753 481.498 364.222 475.482 C 364.222 470.873 363.206 465.638 357.816 465.482 C 352.425 465.326 348.519 470.873 348.675 476.498 C 348.284 481.732 349.378 491.497 355.472 492.123 z "
       transform="matrix(2.371462,0.000000,0.000000,2.371462,-816.7664,-1193.932)"
       style="fill:#ffffff;fill-rule:evenodd;stroke:none;stroke-opacity:1;fill-opacity:1;"
       id="path559" />
    <path
       d="M 378.637 496.063 C 385.045 499.267 399.629 486.009 403.165 478.827 C 406.812 472.087 407.474 466.121 401.839 462.475 C 396.204 459.05 386.032 462.131 380.359 468 C 375.966 472.16 368.14 489.323 378.637 496.063 z "
       transform="matrix(2.371462,0.000000,0.000000,2.371462,-816.7664,-1193.932)"
       style="fill:#ffffff;fill-rule:evenodd;stroke:none;stroke-opacity:1;fill-opacity:1;"
       id="path561" />
    <path
       d="M 381.254 549.231 C 390.474 548.451 391.255 551.888 391.88 554.388 C 392.036 559.232 381.88 579.857 362.66 580.638 C 339.536 580.794 318.754 555.794 317.66 538.294 C 316.722 521.107 332.972 503.294 366.723 501.887 C 383.286 501.731 390.317 508.137 389.536 515.325 C 388.755 522.512 384.849 528.606 368.286 538.45 C 353.597 547.357 349.535 551.887 349.692 555.481 C 350.16 559.075 353.441 564.075 361.097 565.951 C 368.13 565.794 369.653 559.323 369.887 554.544 C 369.627 550.169 381.411 549.231 381.254 549.231 z "
       transform="matrix(2.371462,0.000000,0.000000,2.438004,-816.7664,-1227.328)"
       style="fill:#ffffff;fill-rule:evenodd;stroke:none;stroke-opacity:1;fill-opacity:1;"
       id="path563" />
  </g>
  <path
     d="M 205.085 547.156 C 139.067 541.167 83.0408 141.378 144.126 70.3154 C 151.842 59.9827 454.614 138.703 462.47 150.242 C 469.064 159.925 204.439 81.3614 170.137 134.26 C 118.644 213.668 152.936 486.364 205.085 547.156 z "
     style="font-size:12;opacity:0.504459;fill:url(#linearGradient568);fill-rule:evenodd;stroke:#ffffff;stroke-width:1.08373pt;"
     id="path567"
     sodipodi:nodetypes="ccccc" />
</svg>
