/* XPM */
static char * al_bottom_in_xpm[] = {
"24 24 6 1",
" 	c None",
".	c #010101",
"+	c #9797D8",
"@	c #000000",
"#	c #7F7F7F",
"$	c #F8E008",
" .+++++++++++++++++++@# ",
" .+++++++++++++++++++@# ",
" @+++++++++++++++++++@# ",
" @+++++++++++++++++++@# ",
" @+++++++++++++++++++@# ",
" @++++++++@@@++++++++@# ",
" @++++++++@$@++++++++@# ",
" @++++++++@$@++++++++@# ",
" @+++++@@@@$@@@@+++++@# ",
" @++++++@$$$$$@++++++@# ",
" @+++++++@$$$@+++++++@# ",
" @++++++++@$@++++++++@# ",
" @+++++++++@+++++++++@# ",
" @@@@@@@@@@@@@@@@@@@@@# ",
"  ##################### ",
"                        ",
"                        ",
"                        ",
"                        ",
"                        ",
"                        ",
"                        ",
"                        ",
"                        "};
