/* XPM */
static char * align_cc_xpm[] = {
"24 24 4 1",
" 	c None",
".	c #A5A5FF",
"+	c #000000",
"@	c #F8E008",
"........................",
"..........++++..........",
"..........+@@+..........",
"..........+@@+..........",
"..........+@@+..........",
".......++++@@++++.......",
"........+@@@@@@+........",
".....+...+@@@@+...+.....",
".....++...+@@+...++.....",
".....+@+...++...+@+.....",
".+++++@@+......+@@+++++.",
".+@@@@@@@+....+@@@@@@@+.",
".+@@@@@@@+....+@@@@@@@+.",
".+++++@@+......+@@+++++.",
".....+@+...++...+@+.....",
".....++...+@@+...++.....",
".....+...+@@@++...+.....",
"........+@@@@@@+........",
".......++++@@++++.......",
"..........+@@+..........",
"..........+@@+..........",
"..........+@@+..........",
"..........++++..........",
"........................"};
