/* XPM */
static char * create_new_xpm[] = {
"24 24 4 1",
" 	c None",
".	c #000000",
"+	c #8F8FCC",
"@	c #808080",
"                        ",
"        ..............  ",
"        .++++++++++++.@ ",
"        .++++++++++++.@ ",
"        .++++++++++++.@ ",
" ........++++++++++++.@ ",
" .@@@@@@.++++++++++++.@ ",
" .@@@@@@.++++++++++++.@ ",
" .@@@@@@.++++++++++++.@ ",
" .@@@@@@.++++++++++++.@ ",
" .@@@@@@.++++++++++++.@ ",
" .@@@@@@.++++++++++++.@ ",
" .@@@@@@.++++++++++++.@ ",
" .@@@@@@.++++++++++++.@ ",
" .@@@@@@.++++++++++++.@ ",
" .@@@@@@.++++++++++++.@ ",
" .@@@@@@.++++++++++++.@ ",
" .@@@@@@..............@ ",
" .@@@@@@@@@@@@.@@@@@@@@ ",
" .@@@@@@@@@@@@.@        ",
" .@@@@@@@@@@@@.@        ",
" ..............@        ",
"  @@@@@@@@@@@@@@        ",
"                        "};
