/* XPM */
static char * draw_pen_xpm[] = {
"24 24 3 1",
" 	c None",
".	c #FFFFFF",
"+	c #000000",
"                        ",
"                        ",
"                    ..  ",
"                   .++. ",
"                   .++. ",
"                  .+++. ",
"                  .++.  ",
"                 .+++.  ",
"                ..++.   ",
"                .+++.   ",
"               .+.+.    ",
"               .+.+.    ",
"  ++.         .+..+.    ",
" +..+.        .+.+.     ",
" +..+.       .+..+.     ",
" .++.        .+.+.      ",
"  ..  +.    .+..+.      ",
"        +.  .+.+.  ++++ ",
"          +..++.+++...  ",
"            .+...       ",
"        ++++.+.         ",
"     +++..     +.       ",
" ++++..          +.     ",
"                        "};
