/* XPM */
static char * dt_active_xpm[] = {
"15 17 38 1",
" 	c None",
".	c #000000",
"+	c #39C541",
"@	c #3AC742",
"#	c #35C03D",
"$	c #2FB938",
"%	c #38C440",
"&	c #3FCC46",
"*	c #44D34B",
"=	c #46D54C",
"-	c #26AE30",
";	c #48D74E",
">	c #4EDF54",
",	c #51E356",
"'	c #2BB434",
")	c #58EB5C",
"!	c #5CF160",
"~	c #2EB837",
"{	c #23AA2D",
"]	c #67FF6B",
"^	c #24AB2E",
"/	c #20A72B",
"(	c #1CA127",
"_	c #28B031",
":	c #1FA62A",
"<	c #189C23",
"[	c #169A22",
"}	c #909090",
"|	c #A2A2A2",
"1	c #B3B3B3",
"2	c #C5C5C5",
"3	c #D6D6D6",
"4	c #E7E7E7",
"5	c #8DBE97",
"6	c #919191",
"7	c #A6A6A6",
"8	c #BCBCBC",
"9	c #D2D2D2",
"               ",
"     .....     ",
"   ..+@+#$..   ",
"  .%&*=*&%$-.  ",
"  .&;>,>;&#'.  ",
" .+*>)!)>*+~{. ",
" .@=,!]!,=@$^. ",
" .+*>)!)>*+~{. ",
" .#&;>,>;&#'/. ",
" .$%&*=*&%$-(. ",
"  .$#+@+#$_:.  ",
"  .-'~$~'-:<.  ",
"   ./{^{/([.   ",
"    .}|123.    ",
"    .4521.6    ",
"     .}789.    ",
"    .4987.6    "};
