/* XPM */
static char * file_print_preview_xpm[] = {
"24 24 127 2",
"  	c None",
". 	c #000000",
"+ 	c #101418",
"@ 	c #F6F6F6",
"# 	c #CDCECD",
"$ 	c #626562",
"% 	c #101410",
"& 	c #181C4A",
"* 	c #0000E6",
"= 	c #000052",
"- 	c #00005A",
"; 	c #00008B",
"> 	c #1014F6",
", 	c #C5C6C5",
"' 	c #414441",
") 	c #080894",
"! 	c #2024E6",
"~ 	c #6A69F6",
"{ 	c #CDCEE6",
"] 	c #BDBAEE",
"^ 	c #9499EE",
"/ 	c #4148F6",
"( 	c #2024EE",
"_ 	c #D5D6E6",
": 	c #E6E2DE",
"< 	c #A4A19C",
"[ 	c #292CD5",
"} 	c #4A48EE",
"| 	c #ACB2EE",
"1 	c #EEEAEE",
"2 	c #BDBEEE",
"3 	c #A4A5EE",
"4 	c #7379EE",
"5 	c #0000EE",
"6 	c #8385E6",
"7 	c #B4B2D5",
"8 	c #101010",
"9 	c #0000D5",
"0 	c #6269F6",
"a 	c #9CA1EE",
"b 	c #EFF7EF",
"c 	c #EEE6EE",
"d 	c #B4B2EE",
"e 	c #9C9DEE",
"f 	c #4A4CF6",
"g 	c #393CB4",
"h 	c #D5D2D5",
"i 	c #000039",
"j 	c #B4BAD5",
"k 	c #EEEEF6",
"l 	c #FFFFEE",
"m 	c #8B95EE",
"n 	c #8389EE",
"o 	c #737DFF",
"p 	c #000083",
"q 	c #181862",
"r 	c #CDCACD",
"s 	c #EEEEEE",
"t 	c #A4A5DE",
"u 	c #CDD2F6",
"v 	c #DEE2EE",
"w 	c #8B91EE",
"x 	c #8B8DEE",
"y 	c #7B81EE",
"z 	c #6A71EE",
"A 	c #626DFF",
"B 	c #393883",
"C 	c #6A6D6A",
"D 	c #8B8D8B",
"E 	c #B4B6B4",
"F 	c #FFFAFF",
"G 	c #0000BD",
"H 	c #6A69EE",
"I 	c #9495EE",
"J 	c #BDC2EE",
"K 	c #7B7DEE",
"L 	c #4A4CFF",
"M 	c #4A48B4",
"N 	c #4A484A",
"O 	c #292C29",
"P 	c #ACAEAC",
"Q 	c #ACAAAC",
"R 	c #BDBABD",
"S 	c #E6E2E6",
"T 	c #4144EE",
"U 	c #5255EE",
"V 	c #626DEE",
"W 	c #525DFF",
"X 	c #2020A4",
"Y 	c #393894",
"Z 	c #313431",
"` 	c #393839",
" .	c #B4B2B4",
"..	c #4144E6",
"+.	c #080CEE",
"@.	c #4A50F6",
"#.	c #8B8DF6",
"$.	c #7375F6",
"%.	c #5A61F6",
"&.	c #3134EE",
"*.	c #393831",
"=.	c #414041",
"-.	c #6A696A",
";.	c #A4A1A4",
">.	c #8B91BD",
",.	c #0000FF",
"'.	c #4148FF",
").	c #080C41",
"!.	c #000400",
"~.	c #626162",
"{.	c #ACAEB4",
"].	c #949194",
"^.	c #52555A",
"/.	c #080808",
"(.	c #5A595A",
"_.	c #838583",
":.	c #9C9D9C",
"<.	c #7B7D7B",
"[.	c #393C39",
"}.	c #181818",
"|.	c #4A4C4A",
"1.	c #525052",
"2.	c #525552",
"3.	c #7B797B",
"4.	c #202420",
"5.	c #737173",
"6.	c #313031",
"                                                ",
"                                                ",
"                        . .                     ",
"                      + @ # $ % .               ",
"                    & * = - ; > , ' . . .       ",
"                  ) ! ~ { ] ^ / ( _ : < .       ",
"                  [ } | 1 2 3 4 5 6 7 .         ",
"              8 9 0 a b c d 3 e f * g           ",
"          . . h i j k l a ^ m n o p q .         ",
"      . . r 1 s - t u v w x y z A ; B C . .     ",
"    . D E 1 F @ G H I J x K 4 0 L * M N O .     ",
"    . P Q Q R S f T U ^ w 4 V W X G Y Z ` .     ",
"    .  . .P Q Q Q ..+.@.#.$.%.&.. . *.' =..     ",
"    . -.;.E E  .Q ;.>.* - - ; ,.'.).. !.` .     ",
"    . $ ' ~.;.P Q Q Q {.;.].^.^.. . . . /..     ",
"    . (.(.N ' N ~._.;.;.:.<.Z [.}.% 8 . . .     ",
"      . . |.1.2.|.' ' |.~.3.` ` O Z 4.. . . .   ",
"          . . . =.(.2.$ 5.C =.6.Z . .   . . . . ",
"                . . . N 5.5.` [..         . . . ",
"                      . . . . .                 ",
"                                                ",
"                                                ",
"                                                ",
"                                                "};
