/* XPM */
static char * lock_aspect_no_xpm[] = {
"7 24 10 1",
" 	c None",
".	c None",
"+	c #000000",
"@	c #6A6D6A",
"#	c #D5D2D5",
"$	c #B4B6B4",
"%	c #5A595A",
"&	c #9C999C",
"*	c #EEEAEE",
"=	c #8B8D94",
".+++++.",
"+@##$%+",
"+&+++*+",
"+#+.+#+",
"+#+.+#+",
"+$+.+#+",
"+&+++#+",
"+=+@+=+",
".++$++.",
"..+#+..",
"       ",
"       ",
"       ",
"       ",
"..+#+..",
".++#++.",
"+@+$+=+",
"+$+++$+",
"+$+.+*+",
"+$+.+*+",
"+$+.+*+",
"+#+++*+",
"+@*#*$+",
".+++++."};
