/* XPM */
static char * object_flip_hor_xpm[] = {
"24 24 5 1",
" 	c None",
".	c #000000",
"+	c #A5A5FF",
"@	c #808080",
"#	c #F8E008",
"                        ",
"                        ",
"  ...................   ",
"  .++++++++.++++++++.@  ",
"  .++++++++.++++++++.@  ",
"  .+++++++++++++++++.@  ",
"  .++++++++.++++++++.@  ",
"  .++++++++.++++++++.@  ",
"  .+++++++...+++++++.@  ",
"  .+++++..###..+++++.@  ",
"  .+.++.##...##.++.+.@  ",
"  .+...#..+.+..#...+.@  ",
"  .+.##.+++.+++.##.+.@  ",
"  .+.##.+++++++.##.+.@  ",
"  .+.....++.++.....+.@  ",
"  .++++++++.++++++++.@  ",
"  .++++++++.++++++++.@  ",
"  .+++++++++++++++++.@  ",
"  .++++++++.++++++++.@  ",
"  .++++++++.++++++++.@  ",
"  ...................@  ",
"   @@@@@@@@@@@@@@@@@@@  ",
"                        ",
"                        "};
