/* XPM */
static char * object_layout_xpm[] = {
"24 24 5 1",
" 	c None",
".	c #008000",
"+	c #000000",
"@	c #A5A5FF",
"#	c #515151",
"                        ",
"   .                    ",
"   .. ++++++++++++++    ",
"   .   +  +@@@@@@@@+    ",
"   .  +++ +@@@@@@@@+    ",
"   .   +  +@@@@@@@@+    ",
"   ..  +  +@@@@@@@@+    ",
"   .   +  +@@@@@@@@+    ",
"   .   +  +@@@@@@@@+    ",
"   .  +++ +@@@@@@@@+    ",
"   ..  +  +@@@@@@@@+    ",
"  ++++++++++++++++++    ",
"   .      +        +    ",
"   .      + +    + +    ",
"   ..     ++++++++++    ",
"   .      + +    + +    ",
"   .      +             ",
"   .   .  +.   .   .    ",
"  ........+..........   ",
"   .      +             ",
"                        ",
" ###################### ",
"                        ",
"           +++++  +++++ "};
