/* XPM */
static char * properties_stroke_xpm[] = {
"20 20 3 1",
" 	c None",
".	c #000000",
"+	c #F8E008",
"                    ",
"                    ",
"        ....        ",
"        ....        ",
"        ....        ",
"        ....        ",
"        ....        ",
"    .   ....   .    ",
"    ..  ....  ..    ",
" ....+. .... .+.... ",
" .+++++......+++++. ",
" ....+. .... .+.... ",
"    ..  ....  ..    ",
"    .   ....   .    ",
"        ....        ",
"        ....        ",
"        ....        ",
"        ....        ",
"                    ",
"                    "};
