/* XPM */
static char * properties_layout_xpm[] = {
"20 20 4 1",
" 	c None",
".	c #008000",
"+	c #000000",
"@	c #A5A5FF",
"  .                 ",
"  .. ++++++++++++++ ",
"  .   +  +@@@@@@@@+ ",
"  .  +++ +@@@@@@@@+ ",
"  .   +  +@@@@@@@@+ ",
"  ..  +  +@@@@@@@@+ ",
"  .   +  +@@@@@@@@+ ",
"  .   +  +@@@@@@@@+ ",
"  .  +++ +@@@@@@@@+ ",
"  ..  +  +@@@@@@@@+ ",
" ++++++++++++++++++ ",
"  .      +        + ",
"  .      + +    + + ",
"  ..     ++++++++++ ",
"  .      + +    + + ",
"  .      +          ",
"  .   .  +.   .   . ",
".........+..........",
"  .      +          ",
"  .                 "};
