/* XPM */
static char *magick[] = {
/* columns rows colors chars-per-pixel */
"24 24 141 2",
"   c Gray0",
".  c #7f0000",
"X  c Gray37",
"o  c Gray38",
"O  c #646464",
"+  c #656565",
"@  c #676767",
"#  c #686868",
"$  c #6a6a6a",
"%  c Gray42",
"&  c #6c6c6c",
"*  c #6d6d6d",
"=  c Gray43",
"-  c #6f6f6f",
";  c Gray44",
":  c #717171",
">  c #727272",
",  c Gray45",
"<  c #747474",
"1  c Gray46",
"2  c #767676",
"3  c #777777",
"4  c Gray47",
"5  c #797979",
"6  c Gray48",
"7  c #7b7b7b",
"8  c #7c7c7c",
"9  c Gray",
"0  c Gray50",
"q  c #818181",
"w  c Gray51",
"e  c #838383",
"r  c #848484",
"t  c Gray52",
"y  c #868686",
"u  c Gray53",
"i  c #888888",
"p  c #898989",
"a  c Gray54",
"s  c #8b8b8b",
"d  c Gray55",
"f  c #8d8d8d",
"g  c #8e8e8e",
"h  c Gray56",
"j  c #909090",
"k  c Gray57",
"l  c #929292",
"z  c #939393",
"x  c Gray58",
"c  c #959595",
"v  c Gray59",
"b  c #979797",
"n  c #989898",
"m  c Gray60",
"M  c #9a9a9a",
"N  c #9b9b9b",
"B  c Gray61",
"V  c #9d9d9d",
"C  c Gray62",
"Z  c #9f9f9f",
"A  c #a0a0a0",
"S  c #a2a2a2",
"D  c Gray64",
"F  c #a5a5a5",
"G  c Gray65",
"H  c Gray66",
"J  c #a9a9a9",
"K  c Gray67",
"L  c #acacac",
"P  c Gray68",
"I  c #aeaeae",
"U  c #afafaf",
"Y  c Gray69",
"T  c #b1b1b1",
"R  c #b2b2b2",
"E  c Gray70",
"W  c #b4b4b4",
"Q  c Gray71",
"!  c #b6b6b6",
"~  c #b7b7b7",
"^  c Gray72",
"/  c #b9b9b9",
"(  c Gray73",
")  c #bbbbbb",
"_  c #bcbcbc",
"`  c Gray74",
"'  c #bebebe",
"]  c Gray75",
"[  c #c0c0c0",
"{  c #c1c1c1",
"}  c Gray76",
"|  c #c3c3c3",
" . c Gray77",
".. c #c5c5c5",
"X. c #c6c6c6",
"o. c Gray78",
"O. c #c8c8c8",
"+. c Gray79",
"@. c #cacaca",
"#. c #cbcbcb",
"$. c #cdcdcd",
"%. c #cecece",
"&. c #d0d0d0",
"*. c Gray82",
"=. c #d2d2d2",
"-. c #d3d3d3",
";. c Gray83",
":. c #d5d5d5",
">. c Gray84",
",. c #d7d7d7",
"<. c #d8d8d8",
"1. c Gray85",
"2. c #dadada",
"3. c Gray86",
"4. c gainsboro",
"5. c #dddddd",
"6. c Gray87",
"7. c #dfdfdf",
"8. c Gray88",
"9. c #e1e1e1",
"0. c #e2e2e2",
"q. c Gray89",
"w. c #e4e4e4",
"e. c Gray90",
"r. c #e6e6e6",
"t. c #e7e7e7",
"y. c Gray91",
"u. c #e9e9e9",
"i. c #eaeaea",
"p. c Gray92",
"a. c #ececec",
"s. c Gray93",
"d. c #eeeeee",
"f. c #efefef",
"g. c #f1f1f1",
"h. c Gray95",
"j. c #f4f4f4",
"k. c Gray96",
"l. c #f8f8f8",
"z. c #fbfbfb",
"x. c None",
/* pixels */
"x.x.x.x.x.x.x.x.x.x.x.x.x.x.x.x.x.x.x.x.x.x.x.x.",
"x.x.x.x.x.x.x.x.x.x.x.x.x.x.x.x.x.x.x.x.x.x.x.x.",
"x.x.x.x.x.x.x.x.x.x.x.x.x.x.x.x.x.x.x.x.x.x.x.x.",
"x.x.x.x.x.x.x.x.x.x.x.x.x.x.x.x.x.x.x.x.x.x.x.x.",
"x.x.x.x.x.x.x.x.x.x.x.x.x.x.x.x.x.x.x.x.x.x.x.x.",
"x.x.x.x.x.x.x.x.x.x.x.x.x.x.x.x.x.x.x.x.x.x.x.x.",
"x.x.x.x.x.x.x.x.x.x.x.x.x.x.x.x.x.x.x.x.x.x.x.x.",
"x.                                            x.",
"x.  r.4.<.&.@.{ ) W U F V b j p q 6 : * + X   x.",
"x.  i.q.<.:.$. .' W E J S M j d y 9 < : $ o   x.",
"x.  s.r.4.<.&.@.{ ) E U F V b d p q 6 : $ +   x.",
"x.  s.i.q.<.&.@. .' W U J S M j p y 9 < * +   x.",
"x.  h.i.r.4.:.$. .{ ) E J S V b d y 9 6 : $   x.",
"x.  k.s.r.q.<.&.@.{ ' W U F V M j p q 9 < *   x.",
"x.  l.h.i.q.4.:.$. .' ) E J S M b d y 9 < :   x.",
"x.  l.k.s.r.4.<.&.@.{ ) W U F V b j p q 6 :   x.",
"x.                                            x.",
"x.x.x.x.x.x.x.x.x.x.x.x.x.x.x.x.x.x.x.x.x.x.x.x.",
"x.x.x.x.x.x.x.x.x.x.x.x.x.x.x.x.x.x.x.x.x.x.x.x.",
"x.x.x.x.x.x.x.x.x.x.x.x.x.x.x.x.x.x.x.x.x.x.x.x.",
"x.x.x.x.x.x.x.x.x.x.x.x.x.x.x.x.x.x.x.x.x.x.x.x.",
"x.x.x.x.x.x.x.x.x.x.x.x.x.x.x.x.x.x.x.x.x.x.x.x.",
"x.x.x.x.x.x.x.x.x.x.x.x.x.x.x.x.x.x.x.x.x.x.x.x.",
"x.x.x.x.x.x.x.x.x.x.x.x.x.x.x.x.x.x.x.x.x.x.x.x."
};
