/* XPM */
static char * reread_xpm[] = {
"20 20 4 1",
" 	c None",
".	c #000000",
"+	c #F8E008",
"@	c #9696D7",
"                    ",
"                    ",
"              .     ",
"             .+.    ",
"            .+++.   ",
"           .+++++.  ",
"          ...+++... ",
"            .+++.   ",
"            .++.    ",
"           .+++.    ",
" ...........++.     ",
" .@@@@@@@@.++.      ",
" .@@@@@@@.+..       ",
" .@@@@@.....        ",
" .@@@@@@@@@.        ",
" .@@@@@@@@@.        ",
" .@@@@@@@@@.        ",
" .@@@@@@@@@.        ",
" ...........        ",
"                    "};
