/* XPM */
static char * rotate2_xpm[] = {
"24 24 5 1",
" 	c None",
".	c #000000",
"+	c #808080",
"@	c #8F8FCC",
"#	c #F8E008",
"                        ",
"               .        ",
"             ...+       ",
"           ..@@@.       ",
"         ..@@@@@.+      ",
"       ..@@@@@@@@.      ",
"     ..@@@@@@@@@@.+     ",
"   ..@@@@@@.....@@.     ",
" ..@@@@@@@@.##.@@@.+    ",
"  .@@@@@@@@.###.@@@.    ",
"  .@@@@.@@@...##.@@.+   ",
"   .@@@.@@@.@@.#.@@@.   ",
"   .@@@.@@@@@@.#.@@@.+  ",
"    .@@.@@@@@@.#.@@@@.  ",
"    .@@..@@@@.##.@@@@.+ ",
"     .@@.....##.@@@@@.. ",
"     .@@@......@@@@..++ ",
"      .@@@@@@@@@@..++   ",
"      .@@@@@@@@..++     ",
"       .@@@@@..++       ",
"       .@@@..++         ",
"        ...++           ",
"        .++             ",
"                        "};
