/* XPM */
static char * rotate_right_xpm[] = {
"24 24 5 1",
" 	c None",
".	c #000000",
"+	c #8F8FCC",
"@	c #808080",
"#	c #F8E008",
"                        ",
" .....................  ",
" .+++++++++++++++++++.@ ",
" .+++++++++++++++++++.@ ",
" .+++++++.....+++++++.@ ",
" .+++++......#..++.++.@ ",
" .++++.++++++.##...++.@ ",
" .+++.++++++++.###.++.@ ",
" .+++.+++++++++.##.++.@ ",
" .++++++++++++.###.++.@ ",
" .+++++++++++......++.@ ",
" .+++++++++++++++++++.@ ",
" .+++++++++++++++++++.@ ",
" .+++++++++++++++++++.@ ",
" .+++++++++++++++++++.@ ",
" .+++++++++++++++++++.@ ",
" .+++++++++++++++++++.@ ",
" .+++++++++++++++++++.@ ",
" .+++++++++++++++++++.@ ",
" .+++++++++++++++++++.@ ",
" .+++++++++++++++++++.@ ",
" .....................@ ",
"  @@@@@@@@@@@@@@@@@@@@@ ",
"                        "};
