/* XPM */
static char * scale_ver_xpm[] = {
"24 24 5 1",
" 	c None",
".	c #000000",
"+	c #F8E008",
"@	c #8F8FCC",
"#	c #808080",
"                        ",
" ... ... ... ... ... .  ",
"           .         .  ",
" .        .+.        .  ",
" .       .+++.          ",
" .        .+.        .  ",
"          .+.        .  ",
" .        .+.        .  ",
" .       .+++.          ",
" .        .+.        .  ",
"           .         .  ",
" .....................  ",
" .@@@@@@@@@@@@@@@@@@@.# ",
" .@@@@@@@@@@@@@@@@@@@.# ",
" .@@@@@@@@@@@@@@@@@@@.# ",
" .@@@@@@@@@@@@@@@@@@@.# ",
" .@@@@@@@@@@@@@@@@@@@.# ",
" .@@@@@@@@@@@@@@@@@@@.# ",
" .@@@@@@@@@@@@@@@@@@@.# ",
" .@@@@@@@@@@@@@@@@@@@.# ",
" .@@@@@@@@@@@@@@@@@@@.# ",
" .....................# ",
"  ##################### ",
"                        "};
