/* XPM */
static char *magick[] = {
/* columns rows colors chars-per-pixel */
"24 24 11 1",
"  c Gray0",
". c Gray20",
"X c #656565",
"o c Gray40",
"O c #990033",
"+ c #989898",
"@ c Gray60",
"# c #cbcbcb",
"$ c Gray80",
"% c Gray100",
"& c None",
/* pixels */
"&&&&&&&&&&&&&&&&&&&&&&&&",
"&&&&&   &&&&&&&&   &&&&&",
"&&&&&   OO&OO&OO   &&&&&",
"&&&&&   &&&&&&&&   &&&&&",
"&&&&&&O&.......o&O&&&&&&",
"&&&&&&O&.ooooo+o&O&&&&&&",
"&&&&&&&&.o+++#+o&&&&&&&&",
"&&&&&&O&.o+$%#+o&O&&&&&&",
"&&&&&&O&.o+$%#+o&O&&&&&&",
"&&&&&&&&.o+$%#+o&&&&&&&&",
"&&&&&&O&.o+$%#+o&O&&&&&&",
"&&&&&&O&.o+$%#+o&O&&&&&&",
"&&&&&&&&.o+$%#+o&&&&&&&&",
"&&&&&&O&.o+$%#+o&O&&&&&&",
"&&&&&&O&.o+$%#+o&O&&&&&&",
"&&&&&&&&.o+$%#+o&&&&&&&&",
"&&&&&&O&.o+$%#+o&O&&&&&&",
"&&&&&&O&.o+###+o&O&&&&&&",
"&&&&&&&&.o+++++o&&&&&&&&",
"&&&&&&O&.ooooooo&O&&&&&&",
"&&&&&&O&&&&&&&&&&O&&&&&&",
"&&&&&   OO&OO&OO   &&&&&",
"&&&&&   &&&&&&&&   &&&&&",
"&&&&&   &&&&&&&&   &&&&&"
};
