<?xml version="1.0" encoding="UTF-8" standalone="no"?>
<!DOCTYPE svg PUBLIC "-//W3C//DTD SVG 1.0//EN"
"http://www.w3.org/TR/2001/REC-SVG-20010904/DTD/svg10.dtd">
<!-- Created with Inkscape (http://www.inkscape.org/) -->
<svg
   xmlns="http://www.w3.org/2000/svg"
   xmlns:xlink="http://www.w3.org/1999/xlink"
   version="1.0"
   x="0.0000000"
   y="0.0000000"
   width="20.000000"
   height="20.000000"
   id="svg3459">
  <defs
     id="defs3" />
  <g
     id="layer1">
    <g
       transform="translate(-2.500002,-197.5000)"
       id="draw_select">
      <rect
         width="25.000004"
         height="24.999990"
         x="24.999998"
         y="219.99998"
         transform="translate(-25.00000,-25.00000)"
         style="font-size:12.000000;fill:none;fill-rule:evenodd;stroke:none;stroke-width:0.052083399"
         id="rect720" />
      <path
         d="M 8.7500200,214.00800 C 8.7500200,214.00800 8.7500200,200.62600 8.7500200,200.62600 C 8.7500200,200.62600 18.308900,210.18400 18.308900,210.18400 C 18.308900,210.18400 14.485300,210.18400 14.485300,210.18400 C 14.485300,210.18400 16.875000,215.44200 16.875000,215.44200 C 16.875000,215.44200 13.529400,216.87600 13.529400,216.87600 C 13.529400,216.87600 11.617700,211.14000 11.617700,211.14000 C 11.617700,211.14000 8.7500200,214.00800 8.7500200,214.00800 z "
         transform="matrix(1.307690,0.000000,0.000000,1.307690,-4.567320,-65.48110)"
         style="font-size:12.000000;fill-rule:evenodd;stroke:#ffffff;stroke-width:0.95588398;stroke-linejoin:round"
         id="path730" />
    </g>
  </g>
</svg>
