/* XPM */
static char * selection_group_xpm[] = {
"24 24 7 1",
" 	c None",
".	c #000000",
"+	c #08FEF8",
"@	c #3E3E3E",
"#	c #4987C1",
"$	c #A4D351",
"%	c #D1934A",
"                        ",
"            .....       ",
"          ..+++++..     ",
"         .++@@@@@++.    ",
"        .++@#####@++.   ",
"        .+@#######@+.   ",
" .......+@#########@+.  ",
" .+++++++@#########@+.  ",
" .+@@@@@@@@@#######@+.  ",
" .+@$$$$$$$@#######@+.  ",
" .+@$$$$$$$@#@@@###@+.  ",
" .+@$$$$$$$@@%%%@#@+.   ",
" .+@$$$$$$$@@%%%@@++.   ",
" .+@$$$$$$$@%@@@%@+.    ",
" .+@$$$$$$$@%@+@%@+..   ",
" .+@$$$$$$@@%@@@%@@+.   ",
" .+@$$$$$$@%%%%%%%@+.   ",
" .+@$$$$$$@%@@@@@%@+.   ",
" .+@@@@@@@@%@+++@%@+.   ",
" .++++++++@@@+.+@@@+.   ",
" ........+++++.+++++.   ",
"        .............   ",
"                        ",
"                        "};
