/* XPM */
static char * selection_ungroup_xpm[] = {
"24 24 5 1",
" 	c None",
".	c #000000",
"+	c #047FFC",
"@	c #F8E008",
"#	c #FD4003",
"                        ",
"                        ",
"                        ",
"            .....       ",
"           .+++++.      ",
"          .+++++++.     ",
"         .+++++++++.    ",
"         .+++++++++.    ",
"   .........+++++++.    ",
"   .@@@@@@@.+++++++.    ",
"   .@@@@@@@.+...+++.    ",
"   .@@@@@@@..###.+.     ",
"   .@@@@@@@..###..      ",
"   .@@@@@@@.#...#.      ",
"   .@@@@@@@.#. .#.      ",
"   .@@@@@@..#...#.      ",
"   .@@@@@@.#######.     ",
"   .@@@@@@.#.....#.     ",
"   ........#.   .#.     ",
"          ...   ...     ",
"                        ",
"                        ",
"                        ",
"                        "};
