/* XPM */
static char *magick[] = {
/* columns rows colors chars-per-pixel */
"24 24 58 1",
"  c Gray0",
". c #040404",
"X c #090808",
"o c #0d0c0c",
"O c #0e0c0c",
"+ c #120f0f",
"@ c #121010",
"# c #131010",
"$ c #161212",
"% c #171313",
"& c #181313",
"* c #1b1515",
"= c #1c1616",
"- c #201717",
"; c #201818",
": c #241a1a",
"> c #251a1a",
", c #291b1b",
"< c #291c1c",
"1 c #2a1c1c",
"2 c #2d1d1d",
"3 c #2e1d1d",
"4 c #321e1e",
"5 c #331e1e",
"6 c #361f1f",
"7 c #381f1f",
"8 c #3b1f1f",
"9 c #3c1f1f",
"0 c #3d1f1f",
"q c #401f1f",
"w c #411f1f",
"e c #421f1f",
"r c #441f1f",
"t c #461f1f",
"y c #491e1e",
"u c #4b1e1e",
"i c #4e1d1d",
"p c #501d1d",
"a c #541c1c",
"s c #551c1c",
"d c #5e1717",
"f c #591a1a",
"g c #5a1a1a",
"h c #5e1818",
"j c #6c0f0f",
"k c #6d0e0e",
"l c #6d0f0f",
"z c #631515",
"x c #681212",
"c c #760707",
"v c #770707",
"b c #710b0b",
"n c #720b0b",
"m c #710c0c",
"M c #760808",
"N c #7b0303",
"B c #7f0000",
"V c None",
/* pixels */
"VVVVVVVVVVVVVVVVVVVVVVVV",
"VVVVVVVVVVVVVVVVVVVVVVVV",
"VVVVVVVVVVVVVVVVVVVVVVVV",
"VVVVVV8642,:-*$+OX.VVVVV",
"VVVVVVq8642,:;*$#OXVVVVV",
"VVVVVVrq8VV2<:VVV#OVVVVV",
"VVVVVVyVVVV42<VVV&#VVVVV",
"VVVVVViVVVV842VVV=&VVVVV",
"VVVVVVVVVVq084VVVVVVVVVV",
"VVVVVVVVVVrq08VVVVVVVVVV",
"VVVVVVVVVVyrqVVVVVVVVVVV",
"VVVVVVVVVapyrVVVVVVVVVVV",
"VVVVVVVVVgapiVVVVVVVVVVV",
"VVVVVVVVVhgaVVVVVVVVVVVV",
"VVVVVVVVVzhgVVVVVVVVVVVV",
"VVVVVVVVVxzdVVVVVVVVVVVV",
"VVVVVVVVmlxzVVVVVVVVVVVV",
"VVVVVVVVMnlxVVVVVVVVVVVV",
"VVVVVVVVNvnlVVVVVVVVVVVV",
"VVVVVVBBBNvnlVVVVVVVVVVV",
"VVVVVVBBBBNvnVVVVVVVVVVV",
"VVVVVVVVVVVVVVVVVVVVVVVV",
"VVVVVVVVVVVVVVVVVVVVVVVV",
"VVVVVVVVVVVVVVVVVVVVVVVV"
};
