/* XPM */
static char * toolbox_object_xpm[] = {
"12 12 3 1",
" 	c None",
".	c #000000",
"+	c #A5A5FF",
"      .     ",
"     .+.    ",
"     .+.    ",
"    .+++.   ",
"    .+++.   ",
"   .+++++.  ",
"   .+++++.  ",
"  .+++++++. ",
"  .+++++++. ",
" .+++++++++.",
" ...........",
"            "};
