<?xml version="1.0" encoding="UTF-8" standalone="no"?>
<!DOCTYPE svg PUBLIC "-//W3C//DTD SVG 20010904//EN"
"http://www.w3.org/TR/2001/REC-SVG-20010904/DTD/svg10.dtd">
<!-- Created with Inkscape (http://www.inkscape.org/) -->
<svg
   width="24.000000pt"
   height="24.000000pt"
   xmlns="http://www.w3.org/2000/svg"
   xmlns:cc="http://web.resource.org/cc/"
   xmlns:inkscape="http://www.inkscape.org/namespaces/inkscape"
   xmlns:sodipodi="http://sodipodi.sourceforge.net/DTD/sodipodi-0.dtd"
   xmlns:rdf="http://www.w3.org/1999/02/22-rdf-syntax-ns#"
   xmlns:dc="http://purl.org/dc/elements/1.1/"
   xmlns:xlink="http://www.w3.org/1999/xlink"
   id="svg2111"
   sodipodi:version="0.32"
   inkscape:version="0.40"
   sodipodi:docbase="/usr/share/inkscape/icons"
   sodipodi:docname="trace.svg">
  <defs
     id="defs3">
    <linearGradient
       xlink:href="#linearGradient400"
       id="linearGradient1411"
       x1="255.85929"
       y1="245.76939"
       x2="270.83401"
       y2="245.57984"
       gradientTransform="scale(0.892447,1.120515)"
       gradientUnits="userSpaceOnUse" />
    <linearGradient
       id="linearGradient700">
      <stop
         style="stop-color:#9db8d2;stop-opacity:1;"
         offset="0.000000"
         id="stop347" />
      <stop
         style="stop-color:#314e6c;stop-opacity:1;"
         offset="1.000000"
         id="stop348" />
    </linearGradient>
    <linearGradient
       xlink:href="#linearGradient700"
       id="linearGradient701"
       x1="169.45167"
       y1="256.74495"
       x2="169.45167"
       y2="262.22217"
       gradientUnits="userSpaceOnUse"
       spreadMethod="pad"
       gradientTransform="scale(1.095445,0.912871)" />
    <linearGradient
       id="linearGradient800">
      <stop
         style="stop-color:#e0b6af;stop-opacity:1.0000000;"
         offset="0.0000000"
         id="stop998" />
      <stop
         style="stop-color:#9c3909;stop-opacity:1.0000000;"
         offset="1.0000000"
         id="stop999" />
    </linearGradient>
    <linearGradient
       xlink:href="#linearGradient800"
       id="linearGradient801"
       x1="182.50000"
       y1="222.87500"
       x2="182.50000"
       y2="230.87500"
       gradientUnits="userSpaceOnUse"
       spreadMethod="pad" />
    <linearGradient
       id="linearGradient900">
      <stop
         style="stop-color:#83a67f;stop-opacity:1;"
         offset="0.000000"
         id="stop1014" />
      <stop
         style="stop-color:#46a046;stop-opacity:1;"
         offset="1.000000"
         id="stop1015" />
    </linearGradient>
    <linearGradient
       xlink:href="#linearGradient900"
       id="linearGradient901"
       x1="167.20548"
       y1="245.47923"
       x2="167.20548"
       y2="252.96254"
       gradientUnits="userSpaceOnUse"
       spreadMethod="pad"
       gradientTransform="scale(1.069044,0.935415)" />
    <linearGradient
       id="linearGradient400">
      <stop
         style="stop-color:#ffffff;stop-opacity:1;"
         offset="0.000000"
         id="stop1214" />
      <stop
         style="stop-color:#d1940c;stop-opacity:1;"
         offset="1.000000"
         id="stop1215" />
    </linearGradient>
    <radialGradient
       xlink:href="#linearGradient400"
       id="radialGradient401"
       cx="175.37500"
       cy="38.500000"
       fx="175.37500"
       fy="38.500000"
       r="6.8750000"
       gradientUnits="userSpaceOnUse"
       spreadMethod="pad" />
    <linearGradient
       id="linearGradient500">
      <stop
         style="stop-color:#ffffff;stop-opacity:1;"
         offset="0.000000"
         id="stop1007" />
      <stop
         style="stop-color:#9db8d2;stop-opacity:1;"
         offset="1.000000"
         id="stop1008" />
    </linearGradient>
    <radialGradient
       xlink:href="#linearGradient500"
       id="radialGradient501"
       cx="172.73611"
       cy="35.861108"
       fx="172.73611"
       fy="35.861108"
       r="9.5659800"
       gradientUnits="userSpaceOnUse"
       spreadMethod="pad" />
    <linearGradient
       id="linearGradient2761">
      <stop
         style="stop-color:#2a2a2c;stop-opacity:1.0000000;"
         offset="0.0000000"
         id="stop2762" />
      <stop
         style="stop-color:#454646;stop-opacity:1.0000000;"
         offset="1.0000000"
         id="stop2763" />
    </linearGradient>
    <radialGradient
       inkscape:collect="always"
       xlink:href="#linearGradient500"
       id="radialGradient2393"
       gradientUnits="userSpaceOnUse"
       spreadMethod="pad"
       cx="172.73611"
       cy="35.861108"
       fx="172.73611"
       fy="35.861108"
       r="9.5659800" />
    <radialGradient
       inkscape:collect="always"
       xlink:href="#linearGradient400"
       id="radialGradient2394"
       gradientUnits="userSpaceOnUse"
       spreadMethod="pad"
       cx="175.37500"
       cy="38.500000"
       fx="175.37500"
       fy="38.500000"
       r="6.8750000" />
    <radialGradient
       inkscape:collect="always"
       xlink:href="#linearGradient400"
       id="radialGradient2395"
       gradientUnits="userSpaceOnUse"
       spreadMethod="pad"
       cx="175.37500"
       cy="38.500000"
       fx="175.37500"
       fy="38.500000"
       r="6.8750000" />
    <radialGradient
       inkscape:collect="always"
       xlink:href="#linearGradient400"
       id="radialGradient2396"
       gradientUnits="userSpaceOnUse"
       spreadMethod="pad"
       cx="175.37500"
       cy="38.500000"
       fx="175.37500"
       fy="38.500000"
       r="6.8750000" />
    <radialGradient
       inkscape:collect="always"
       xlink:href="#linearGradient400"
       id="radialGradient2406"
       gradientUnits="userSpaceOnUse"
       spreadMethod="pad"
       cx="175.37500"
       cy="38.500000"
       fx="175.37500"
       fy="38.500000"
       r="6.8750000" />
    <radialGradient
       inkscape:collect="always"
       xlink:href="#linearGradient400"
       id="radialGradient2407"
       gradientUnits="userSpaceOnUse"
       spreadMethod="pad"
       cx="175.37500"
       cy="38.500000"
       fx="175.37500"
       fy="38.500000"
       r="6.8750000" />
    <radialGradient
       inkscape:collect="always"
       xlink:href="#linearGradient400"
       id="radialGradient2408"
       gradientUnits="userSpaceOnUse"
       spreadMethod="pad"
       cx="175.37500"
       cy="38.500000"
       fx="175.37500"
       fy="38.500000"
       r="6.8750000" />
    <radialGradient
       inkscape:collect="always"
       xlink:href="#linearGradient400"
       id="radialGradient2409"
       gradientUnits="userSpaceOnUse"
       spreadMethod="pad"
       cx="175.37500"
       cy="38.500000"
       fx="175.37500"
       fy="38.500000"
       r="6.8750000" />
    <radialGradient
       inkscape:collect="always"
       xlink:href="#linearGradient500"
       id="radialGradient2417"
       gradientUnits="userSpaceOnUse"
       spreadMethod="pad"
       cx="172.73611"
       cy="35.861108"
       fx="172.73611"
       fy="35.861108"
       r="9.5659800" />
    <radialGradient
       inkscape:collect="always"
       xlink:href="#linearGradient500"
       id="radialGradient2443"
       gradientUnits="userSpaceOnUse"
       spreadMethod="pad"
       cx="172.73611"
       cy="35.861108"
       fx="172.73611"
       fy="35.861108"
       r="9.5659800" />
    <radialGradient
       inkscape:collect="always"
       xlink:href="#linearGradient500"
       id="radialGradient2463"
       gradientUnits="userSpaceOnUse"
       spreadMethod="pad"
       cx="172.73611"
       cy="35.861108"
       fx="172.73611"
       fy="35.861108"
       r="9.5659800" />
    <radialGradient
       inkscape:collect="always"
       xlink:href="#linearGradient500"
       id="radialGradient2470"
       gradientUnits="userSpaceOnUse"
       spreadMethod="pad"
       cx="172.73611"
       cy="35.861108"
       fx="172.73611"
       fy="35.861108"
       r="9.5659800" />
    <radialGradient
       inkscape:collect="always"
       xlink:href="#linearGradient500"
       id="radialGradient2479"
       gradientUnits="userSpaceOnUse"
       spreadMethod="pad"
       cx="172.73611"
       cy="35.861108"
       fx="172.73611"
       fy="35.861108"
       r="9.5659800" />
    <radialGradient
       inkscape:collect="always"
       xlink:href="#linearGradient500"
       id="radialGradient2487"
       gradientUnits="userSpaceOnUse"
       spreadMethod="pad"
       cx="172.73611"
       cy="35.861108"
       fx="172.73611"
       fy="35.861108"
       r="9.5659800" />
    <linearGradient
       inkscape:collect="always"
       xlink:href="#linearGradient400"
       id="linearGradient2488"
       gradientUnits="userSpaceOnUse"
       gradientTransform="scale(0.892447,1.120515)"
       x1="255.85929"
       y1="245.76939"
       x2="270.83401"
       y2="245.57984" />
  </defs>
  <sodipodi:namedview
     id="base"
     pagecolor="#ffffff"
     bordercolor="#666666"
     borderopacity="1.0"
     inkscape:pageopacity="0.0"
     inkscape:pageshadow="2"
     inkscape:zoom="15.125000"
     inkscape:cx="12.000000"
     inkscape:cy="12.000000"
     inkscape:current-layer="svg2111"
     showgrid="true"
     inkscape:grid-bbox="true"
     gridspacingy="1.0000000pt"
     gridspacingx="1.0000000pt"
     gridoriginy="0.0000000pt"
     gridoriginx="0.0000000pt"
     inkscape:window-width="640"
     inkscape:window-height="539"
     inkscape:window-x="13"
     inkscape:window-y="28" />
  <metadata
     id="metadata4">
    <rdf:RDF
       id="RDF5">
      <cc:Work
         rdf:about=""
         id="Work6">
        <dc:format
           id="format7">image/svg+xml</dc:format>
        <dc:type
           id="type9"
           rdf:resource="http://purl.org/dc/dcmitype/StillImage" />
      </cc:Work>
    </rdf:RDF>
  </metadata>
  <g
     id="selection_trace"
     transform="translate(-206.3037,-71.82927)">
    <path
       d="M 209.37965,98.857830 C 208.99750,98.689260 209.10989,98.293760 209.09907,97.954800 C 209.09907,93.830485 209.09907,89.706172 209.09907,85.581858 C 209.58017,84.988532 210.38466,85.106142 211.06786,85.099485 C 211.85218,85.098868 212.63650,85.099302 213.42082,85.099169 C 213.57793,83.081980 214.07845,81.050681 215.27344,79.383137 C 217.19896,76.550656 220.63041,74.828624 224.05527,75.013541 C 228.03744,75.066140 231.78951,77.746441 233.22061,81.450156 C 233.91558,82.885102 233.66259,84.514239 233.74446,86.051025 C 233.82949,87.973599 232.92407,89.788326 231.85125,91.326933 C 230.62680,92.888088 228.96279,94.105466 227.09907,94.788430 C 227.04633,96.095890 227.07197,97.410440 226.91549,98.710620 C 226.18944,99.282860 225.08359,98.965760 224.19798,99.081700 C 219.35216,99.114180 214.50614,99.093220 209.66023,99.099170 C 209.56670,99.018720 209.47317,98.938270 209.37965,98.857830 z M 226.45121,98.499170 C 226.63394,97.226210 226.47616,95.929750 226.61174,94.652190 C 227.49031,93.982313 228.60730,93.681339 229.47407,92.976853 C 231.57697,91.401916 233.10470,88.970890 233.37367,86.337599 C 233.45912,84.606061 233.42409,82.791188 232.58565,81.223732 C 231.08503,77.753183 227.39513,75.334155 223.59906,75.470832 C 219.71748,75.383144 216.05835,78.000333 214.63655,81.569457 C 214.12196,82.708913 214.00828,83.959305 213.87389,85.184471 C 213.34400,85.789372 212.19664,85.373317 211.42874,85.523936 C 210.48117,85.450895 209.23060,85.501768 209.57763,86.792827 C 209.54601,90.676203 209.59147,94.559810 209.59907,98.443280 C 210.27174,98.798750 211.08903,98.590180 211.81956,98.669170 C 216.48576,98.679050 221.15352,98.702630 225.81869,98.600070 C 226.02598,98.574020 226.26419,98.607240 226.45121,98.499170 z M 210.49519,97.574800 C 210.43044,93.900320 210.49337,90.224307 210.49906,86.549174 C 211.59511,86.550872 212.69605,86.460388 213.78843,86.562723 C 214.31528,87.164417 214.25702,88.173981 214.67332,88.894244 C 216.14490,92.391083 219.75187,94.965790 223.59289,94.887270 C 224.26178,94.887640 224.93035,94.862080 225.59907,94.849170 C 225.59907,95.782500 225.59907,96.715830 225.59907,97.649160 C 220.75507,97.649890 215.91037,97.723830 211.06690,97.646230 C 210.87881,97.622660 210.67312,97.654060 210.49519,97.574800 z M 225.24906,96.302800 C 225.24906,95.970680 225.24906,95.638560 225.24906,95.306440 C 223.24241,95.336520 221.14898,95.348120 219.32786,94.378810 C 216.45816,93.064288 214.33944,90.342404 213.66664,87.270014 C 213.70070,86.796356 213.22462,86.974709 212.91860,86.935696 C 212.22876,86.921639 211.53891,86.907583 210.84907,86.893527 C 210.84907,90.362073 210.84907,93.830620 210.84907,97.299170 C 215.64907,97.299170 220.44907,97.299170 225.24906,97.299170 C 225.24906,96.967050 225.24906,96.634930 225.24906,96.302800 z M 221.84907,93.609385 C 218.91673,93.011480 216.43454,90.712224 215.45539,87.909800 C 214.33683,84.469728 215.52854,80.355354 218.50516,78.229605 C 220.68359,76.590880 223.64836,76.165931 226.24391,76.911481 C 229.28331,77.782936 231.65201,80.500064 232.21377,83.592254 C 232.61328,86.101006 232.04133,88.813216 230.31475,90.734219 C 228.66217,92.662116 226.14717,93.891870 223.58428,93.764975 C 223.00357,93.758901 222.41867,93.729689 221.84907,93.609385 z M 225.69905,93.103098 C 229.31747,92.235689 232.05072,88.670074 231.91886,84.946060 C 231.88461,81.164647 228.84210,77.719205 225.13221,77.116268 C 223.31705,76.840207 221.40259,77.050261 219.79135,77.974936 C 217.07687,79.420790 215.24907,82.480530 215.49448,85.578729 C 215.59003,89.251708 218.54080,92.531915 222.11806,93.219157 C 223.29276,93.476137 224.53444,93.353919 225.69905,93.103098 z "
       id="path6136" />
    <rect
       style="fill:none;fill-opacity:0.13017799;fill-rule:evenodd;stroke:none;stroke-width:0.052083399;stroke-opacity:1.0000000"
       id="rect6138"
       width="25.000004"
       height="24.999990"
       x="208.80371"
       y="-99.329269"
       transform="scale(1.000000,-1.000000)" />
  </g>
</svg>
