<?xml version="1.0" encoding="UTF-8" standalone="no"?>
<!DOCTYPE svg PUBLIC "-//W3C//DTD SVG 20010904//EN"
"http://www.w3.org/TR/2001/REC-SVG-20010904/DTD/svg10.dtd">
<!-- Created with Inkscape (http://www.inkscape.org/) -->
<svg
   width="24.000000pt"
   height="24.000000pt"
   xmlns="http://www.w3.org/2000/svg"
   xmlns:cc="http://web.resource.org/cc/"
   xmlns:inkscape="http://www.inkscape.org/namespaces/inkscape"
   xmlns:sodipodi="http://sodipodi.sourceforge.net/DTD/sodipodi-0.dtd"
   xmlns:rdf="http://www.w3.org/1999/02/22-rdf-syntax-ns#"
   xmlns:dc="http://purl.org/dc/elements/1.1/"
   xmlns:xlink="http://www.w3.org/1999/xlink"
   id="svg2111"
   sodipodi:version="0.32"
   inkscape:version="0.40"
   sodipodi:docbase="/usr/share/inkscape/icons"
   sodipodi:docname="window-next.svg">
  <defs
     id="defs3">
    <linearGradient
       xlink:href="#linearGradient400"
       id="linearGradient1411"
       x1="255.85929"
       y1="245.76939"
       x2="270.83401"
       y2="245.57984"
       gradientTransform="scale(0.892447,1.120515)"
       gradientUnits="userSpaceOnUse" />
    <linearGradient
       id="linearGradient700">
      <stop
         style="stop-color:#9db8d2;stop-opacity:1;"
         offset="0.000000"
         id="stop347" />
      <stop
         style="stop-color:#314e6c;stop-opacity:1;"
         offset="1.000000"
         id="stop348" />
    </linearGradient>
    <linearGradient
       xlink:href="#linearGradient700"
       id="linearGradient701"
       x1="169.45167"
       y1="256.74495"
       x2="169.45167"
       y2="262.22217"
       gradientUnits="userSpaceOnUse"
       spreadMethod="pad"
       gradientTransform="scale(1.095445,0.912871)" />
    <linearGradient
       id="linearGradient800">
      <stop
         style="stop-color:#e0b6af;stop-opacity:1.0000000;"
         offset="0.0000000"
         id="stop998" />
      <stop
         style="stop-color:#9c3909;stop-opacity:1.0000000;"
         offset="1.0000000"
         id="stop999" />
    </linearGradient>
    <linearGradient
       xlink:href="#linearGradient800"
       id="linearGradient801"
       x1="182.50000"
       y1="222.87500"
       x2="182.50000"
       y2="230.87500"
       gradientUnits="userSpaceOnUse"
       spreadMethod="pad" />
    <linearGradient
       id="linearGradient900">
      <stop
         style="stop-color:#83a67f;stop-opacity:1;"
         offset="0.000000"
         id="stop1014" />
      <stop
         style="stop-color:#46a046;stop-opacity:1;"
         offset="1.000000"
         id="stop1015" />
    </linearGradient>
    <linearGradient
       xlink:href="#linearGradient900"
       id="linearGradient901"
       x1="167.20548"
       y1="245.47923"
       x2="167.20548"
       y2="252.96254"
       gradientUnits="userSpaceOnUse"
       spreadMethod="pad"
       gradientTransform="scale(1.069044,0.935415)" />
    <linearGradient
       id="linearGradient400">
      <stop
         style="stop-color:#ffffff;stop-opacity:1;"
         offset="0.000000"
         id="stop1214" />
      <stop
         style="stop-color:#d1940c;stop-opacity:1;"
         offset="1.000000"
         id="stop1215" />
    </linearGradient>
    <radialGradient
       xlink:href="#linearGradient400"
       id="radialGradient401"
       cx="175.37500"
       cy="38.500000"
       fx="175.37500"
       fy="38.500000"
       r="6.8750000"
       gradientUnits="userSpaceOnUse"
       spreadMethod="pad" />
    <linearGradient
       id="linearGradient500">
      <stop
         style="stop-color:#ffffff;stop-opacity:1;"
         offset="0.000000"
         id="stop1007" />
      <stop
         style="stop-color:#9db8d2;stop-opacity:1;"
         offset="1.000000"
         id="stop1008" />
    </linearGradient>
    <radialGradient
       xlink:href="#linearGradient500"
       id="radialGradient501"
       cx="172.73611"
       cy="35.861108"
       fx="172.73611"
       fy="35.861108"
       r="9.5659800"
       gradientUnits="userSpaceOnUse"
       spreadMethod="pad" />
    <linearGradient
       id="linearGradient2761">
      <stop
         style="stop-color:#2a2a2c;stop-opacity:1.0000000;"
         offset="0.0000000"
         id="stop2762" />
      <stop
         style="stop-color:#454646;stop-opacity:1.0000000;"
         offset="1.0000000"
         id="stop2763" />
    </linearGradient>
  </defs>
  <sodipodi:namedview
     id="base"
     pagecolor="#ffffff"
     bordercolor="#666666"
     borderopacity="1.0"
     inkscape:pageopacity="0.0"
     inkscape:pageshadow="2"
     inkscape:zoom="15.125000"
     inkscape:cx="12.000000"
     inkscape:cy="12.000000"
     inkscape:current-layer="svg2111"
     showgrid="true"
     inkscape:grid-bbox="true"
     gridspacingy="1.0000000pt"
     gridspacingx="1.0000000pt"
     gridoriginy="0.0000000pt"
     gridoriginx="0.0000000pt"
     inkscape:window-width="640"
     inkscape:window-height="539"
     inkscape:window-x="13"
     inkscape:window-y="28" />
  <metadata
     id="metadata4">
    <rdf:RDF
       id="RDF5">
      <cc:Work
         rdf:about=""
         id="Work6">
        <dc:format
           id="format7">image/svg+xml</dc:format>
        <dc:type
           id="type9"
           rdf:resource="http://purl.org/dc/dcmitype/StillImage" />
      </cc:Work>
    </rdf:RDF>
  </metadata>
  <g
     id="window_next"
     transform="translate(-422.6719,-267.7344)">
    <path
       style="fill-rule:evenodd;stroke-width:1.2500000"
       d="M 435.33183,280.67632 L 442.41754,282.45272 L 442.41754,289.73213 L 435.33183,287.95573 L 435.33183,280.67632 z M 426.71360,282.34844 L 433.90357,280.57205 L 433.90357,287.85146 L 426.71360,289.62785 L 426.71360,282.34844 z M 435.33183,272.12809 L 442.41754,273.90450 L 442.41754,280.66253 L 435.33183,278.88613 L 435.33183,272.12809 z M 426.71360,273.80021 L 433.90357,272.02382 L 433.90357,278.78186 L 426.71360,280.55825 L 426.71360,273.80021 z M 425.28535,272.50128 L 425.28535,291.38793 L 434.56556,289.32884 L 443.84578,291.38793 L 443.84578,272.50128 L 434.56556,270.44217 L 425.28535,272.50128 z "
       id="path1490"
       sodipodi:nodetypes="ccccccccccccccccccccccccccc" />
    <rect
       style="fill:none;fill-opacity:0.20118298;fill-rule:evenodd;stroke-width:0.052083399"
       id="rect1379"
       width="25.000004"
       height="24.999990"
       x="24.999998"
       y="219.99998"
       transform="translate(400.0000,50.00000)" />
    <path
       style="fill:#13db00;fill-rule:evenodd;stroke-width:0.052083399"
       d="M 425.37122,282.08270 L 425.37122,289.96769 L 434.44127,289.10493 L 443.51134,289.96769 L 443.51134,282.08270 L 434.44127,280.29221 L 425.37122,282.08270 z "
       id="path1493"
       sodipodi:nodetypes="ccccccc" />
    <path
       style="fill:#1389ff;fill-rule:evenodd;stroke-width:0.052083399"
       d="M 425.37122,273.51520 L 425.37122,280.92253 L 434.44127,280.03606 L 443.51134,280.92253 L 443.51134,273.51520 L 434.44127,270.98105 L 425.37122,273.51520 z "
       id="path1494"
       sodipodi:nodetypes="ccccccc" />
    <path
       style="fill-rule:evenodd;stroke-width:1.2500000"
       d="M 435.33183,280.67632 L 442.41754,282.45272 L 442.41754,289.73213 L 435.33183,287.95573 L 435.33183,280.67632 z M 426.71360,282.34844 L 433.90357,280.57205 L 433.90357,287.85146 L 426.71360,289.62785 L 426.71360,282.34844 z M 435.33183,272.12809 L 442.41754,273.90450 L 442.41754,280.66253 L 435.33183,278.88613 L 435.33183,272.12809 z M 426.71360,273.80021 L 433.90357,272.02382 L 433.90357,278.78186 L 426.71360,280.55825 L 426.71360,273.80021 z M 425.28535,272.50128 L 425.28535,291.38793 L 434.56556,289.32884 L 443.84578,291.38793 L 443.84578,272.50128 L 434.56556,270.44217 L 425.28535,272.50128 z "
       id="path1594"
       sodipodi:nodetypes="ccccccccccccccccccccccccccc" />
    <path
       sodipodi:type="inkscape:offset"
       inkscape:radius="0.87970668"
       inkscape:original="M 442.750000 284.343750 L 442.750000 286.843750 L 439.000000 286.843750 L 439.000000 290.593750 L 442.750000 290.593750 L 442.750000 293.093750 L 447.750000 288.718750 L 442.750000 284.343750 z "
       style="fill:#ffffff;fill-rule:evenodd;stroke:#ffffff;stroke-width:1.2500000;stroke-linejoin:round"
       id="path1480"
       d="M 442.59375,283.46875 C 442.17336,283.54699 441.87011,283.91617 441.87500,284.34375 L 441.87500,285.96875 L 439.00000,285.96875 C 438.51784,285.97137 438.12762,286.36159 438.12500,286.84375 L 438.12500,290.59375 C 438.12762,291.07591 438.51784,291.46613 439.00000,291.46875 L 441.87500,291.46875 L 441.87500,293.09375 C 441.87394,293.44177 442.07814,293.75771 442.39589,293.89968 C 442.71364,294.04165 443.08521,293.98298 443.34375,293.75000 L 448.34375,289.37500 C 448.53069,289.20808 448.63756,288.96936 448.63756,288.71875 C 448.63756,288.46814 448.53069,288.22942 448.34375,288.06250 L 443.34375,283.68750 C 443.14161,283.50150 442.86419,283.42058 442.59375,283.46875 z "
       transform="matrix(1.566598,0.000000,0.000000,1.566598,-253.4701,-166.0529)" />
    <path
       style="fill:#267726;fill-rule:evenodd;stroke:#267726;stroke-width:1.9582500;stroke-linejoin:round"
       d="M 440.13170,279.41354 L 447.96386,286.26737 L 440.13170,293.12120 L 440.13167,289.20475 L 434.25562,289.20475 L 434.25562,283.32999 L 440.13171,283.32999 L 440.13170,279.41354 z "
       id="path1462"
       sodipodi:nodetypes="cccccccc" />
    <path
       style="fill:none;fill-rule:evenodd;stroke:#ffffff;stroke-width:1.9582500;stroke-opacity:0.49999997"
       d="M 446.00580,286.26737 L 442.08932,283.33001 L 442.08932,285.28826 L 435.23545,285.28827"
       id="path1466"
       sodipodi:nodetypes="cccc" />
  </g>
</svg>
