/* XPM */
static char * text_node_xpm[] = {
"24 24 7 1",
" 	c None",
".	c #000000",
"+	c #F8E008",
"@	c #0000BD",
"#	c #9797D8",
"$	c #010101",
"%	c #999999",
"                        ",
"                        ",
"                        ",
"    .................   ",
"    .................   ",
"    .      ...      .   ",
"           ...          ",
"           ...          ",
"           ...          ",
"           ...          ",
"           ...          ",
"           ...          ",
"           ...          ",
"           ...          ",
"           ...          ",
"           ...          ",
"           ...          ",
"           ...          ",
"           ...          ",
"           ...          ",
"          .....         ",
"                        ",
"                        ",
"                        "};
