/* XPM */
static char * zoom_out_xpm[] = {
"24 24 5 1",
" 	c None",
".	c #000000",
"+	c #FFFFFF",
"@	c #F8E008",
"#	c #4B4B4B",
"                        ",
"        .......         ",
"      ..+++++++..       ",
"     .+++++++++++.      ",
"    .+++++++++++++.     ",
"   .+++++++++++++++.    ",
"  .+++++++++++++++++.   ",
"  .+++++++++++++++++.   ",
" .+++++++++++++++++++.  ",
" .+++++++++++++++++++.  ",
" .++++...........++++.  ",
" .++++.@@@@@@@@@.++++.  ",
" .++++...........++++.  ",
" .+++++++++++++++++++.  ",
" .+++++++++++++++++++.  ",
"  .+++++++++++++++++.   ",
"  .+++++++++++++++++.   ",
"   .+++++++++++++++.    ",
"    .+++++++++++++...   ",
"     .+++++++++++.##..  ",
"      ..+++++++.. .##.. ",
"        .......    .##..",
"                    .##.",
"                     .##"};
