/* XPM */
static char * align_bl_xpm[] = {
"24 24 7 1",
" 	c None",
".	c None",
"+	c #000000",
"@	c #A5A5FF",
"#	c #F8E008",
"$	c #FEFEFE",
"%	c #7F7F7F",
"......+@@@@@@@@@@@@@@@@@",
"......+@@@@@@@@@@@@@@@@@",
"......+@@@@@@@@@@@@@@@@@",
"......+@@@@@@@@@@@@@@@@@",
"......+@@@@@@@@@@@@@@@@@",
"......+@@@@@@@@@@@@@@@@@",
"......+@@@@@@@@@@@@@@@@@",
"......+@@@@@@@@@@@@@@@@@",
"......+@@@@@@+@@@@@@@@@@",
"......+@@@@@+#+@@@@@@@@@",
"......++@@@+###+@@@@@@@@",
"......+++@+###+@@@@@@@@@",
"......++#+###+@@@@@@@@@@",
"......++####+@@@@@@@@@@@",
"......++###+@@@@@@@@@@@@",
"......++####+@@@@@@@@@@@",
"......++++++++@@@@@@@@@@",
"......++++++++++++++++++",
"......$%%%%%%%%%%%%%%%%%",
"........................",
"........................",
"........................",
"........................",
"........................"};
