/* XPM */
static char * align_cl_xpm[] = {
"24 24 6 1",
" 	c None",
".	c None",
"+	c #7F7F7F",
"@	c #000000",
"#	c #A5A5FF",
"$	c #F8E008",
".....+@#################",
"......@#################",
"......@#################",
"......@#################",
"......@#################",
"......@#################",
"......@#################",
"......@####@############",
"......@###@@############",
"......@##@$@############",
"......@#@$$@@@@@@#######",
"......@@$$$$$$$$@#######",
"......@@$$$$$$$$@#######",
"......@#@$$@@@@@@#######",
"......@##@$@############",
"......@###@@############",
"......@####@############",
"......@#################",
"......@#################",
"......@#################",
"......@#################",
"......@#################",
"......@#################",
".....+@#################"};
