/* XPM */
static char * align_tl_xpm[] = {
"24 24 4 1",
" 	c None",
".	c #000000",
"+	c #A5A5FF",
"@	c #F8E008",
"                        ",
"                        ",
"                        ",
"                        ",
"                        ",
"                        ",
"      ..................",
"      ........++++++++++",
"      ..@@@@.+++++++++++",
"      ..@@@.++++++++++++",
"      ..@@@@.+++++++++++",
"      ..@.@@@.++++++++++",
"      ...+.@@@.+++++++++",
"      ..+++.@@@.++++++++",
"      .+++++.@.+++++++++",
"      .++++++.++++++++++",
"      .+++++++++++++++++",
"      .+++++++++++++++++",
"      .+++++++++++++++++",
"      .+++++++++++++++++",
"      .+++++++++++++++++",
"      .+++++++++++++++++",
"      .+++++++++++++++++",
"      .+++++++++++++++++"};
