/* XPM */
static char * align_bc_xpm[] = {
"24 24 6 1",
" 	c None",
".	c #A5A5FF",
"+	c #000000",
"@	c #F8E008",
"#	c #7F7F7F",
"$	c None",
"........................",
"........................",
"........................",
"........................",
"........................",
"........................",
"........................",
"..........++++..........",
"..........+@@+..........",
"..........+@@+..........",
"..........+@@+..........",
"..........+@@+..........",
".......++++@@++++.......",
"........+@@@@@@+........",
".........+@@@@+.........",
"..........+@@+..........",
"...........++...........",
"++++++++++++++++++++++++",
"########################",
"$$$$$$$$$$$$$$$$$$$$$$$$",
"$$$$$$$$$$$$$$$$$$$$$$$$",
"$$$$$$$$$$$$$$$$$$$$$$$$",
"$$$$$$$$$$$$$$$$$$$$$$$$",
"$$$$$$$$$$$$$$$$$$$$$$$$"};
