/* XPM */
static char * curve_xpm[] = {
"24 24 5 1",
" 	c None",
".	c #0000BD",
"+	c #9797D8",
"@	c #000000",
"#	c #999999",
"                ....... ",
"                .+++++.+",
"                .+    .+",
"            @@@@.+    .+",
"          @@@###.+    .+",
"        @@@###  .+    .+",
"       @@# #    .......+",
"      @@##       +++++++",
"     @@##               ",
"     @##                ",
"    @@#                 ",
"    @##                 ",
"   @@#                  ",
"   @##                  ",
"   @#                   ",
"   @#                   ",
".......                 ",
".+++++.+                ",
".+    .+                ",
".+    .+                ",
".+    .+                ",
".+    .+                ",
".......+                ",
" +++++++                "};
