/* XPM */
static char *magick[] = {
/* columns rows colors chars-per-pixel */
"24 24 11 1",
"  c Gray0",
". c Gray20",
"X c #5b5b5b",
"o c #656565",
"O c Gray40",
"+ c #989898",
"@ c Gray60",
"# c #cbcbcb",
"$ c Gray80",
"% c Gray100",
"& c None",
/* pixels */
"&&&&&&&&&&&&&&&&&&&&&&&&",
"&&&&&&&&&&&&&&&&&&&&&&&&",
"&&&&&&&&&&&&&&&&&&&&&&&&",
"&&&&&&&&&&&&&&&&&&&&&&&&",
"&&&.......O&&.......O&&&",
"&&&.OOOOO@O&&.OOOOO@O&&&",
"&&&.O@@@#@O&&.O@@@#@O&&&",
"&&&.O@$%#@O&&.O@$%#@O&&&",
"&&&.O@$%#@O&&.O@$%#@O&&&",
"&&&.O@$%#@O&&.O@$%#@O&&&",
"&&&.O@$%#@O&&.O@$%#@O&&&",
"&&&.O@$%#@O&&.O@$%#@O&&&",
"&&&.O@$%#@O&&.O@$%#@O&&&",
"&&&.O@$%#@O&&.O@$%#@O&&&",
"&&&.O@$%#@O&&.O@$%#@O&&&",
"&&&.O@$%#@O&&.O@$%#@O&&&",
"&&&.O@$%#@O&&.O@$%#@O&&&",
"&&&.O@###@O&&.O@###@O&&&",
"&&&.O@@@@@O&&.O@@@@@O&&&",
"&&&.OOOOOOO&&.OOOOOOO&&&",
"&&&X&&&&&&&&&X&&&&&&&&&&",
"&&&&&&&&&&&&&&&&&&&&&&&&",
"&&&&&&&&&&&&&&&&&&&&&&&&",
"&&&&&&&&&&&&&&&&&&&&&&&&"
};
