/* XPM */
static char * duplicate_xpm[] = {
"24 24 8 1",
" 	c None",
".	c #000000",
"+	c #C9C9C9",
"@	c #E6E6E6",
"#	c #FFFFFF",
"$	c #B2B2B2",
"%	c #BFBFBF",
"&	c #CDCDCD",
"                        ",
"                        ",
"              ....      ",
"             .+@##.     ",
"       .... .+@###+.    ",
"      .$%&%..+.##.#.    ",
"     .$%&&&&.+@####.    ",
"     .$.&&.&.+@..#+.    ",
"     .$%&&&&..+@##.     ",
"     .$%..&%. ....      ",
"      .$%&&.   ..       ",
"       ....   .@@.      ",
"        ..    .@@.      ",
"       .$%.  .+@#+.     ",
"       .$%.  .+##+.     ",
"      .$%&%..+@###+.    ",
"      .$%&%..+@###+.    ",
"     .$%&&&.+@#####+.   ",
"     .$%&&&.+@#####+.   ",
"    .$%&&&............  ",
"    .$%&&&&%$.          ",
"   ............         ",
"                        ",
"                        "};
