/* XPM */
static char * delete_xpm[] = {
"24 24 6 1",
" 	c None",
".	c #000000",
"+	c #CDCDCD",
"@	c #E6E6E6",
"#	c #F8E008",
"$	c #FFFFFF",
"                        ",
"                        ",
"                        ",
"                        ",
"       ....             ",
"      .+@.@.        .   ",
"     .+@.#.@.      .#.  ",
"     .+..##..      .#.  ",
"     .+@$.##.     .##.  ",
"     .+@...#.     .#.   ",
"      .+@$@.#.   .##.   ",
"       .... .#. .##.    ",
"        ..  .##.##.     ",
"       .+@.  .###.      ",
"       .+@.  .###.      ",
"      .+@$@..##.##.     ",
"      .+@$$.##. .#.     ",
"     .+@$..##.  .##.    ",
"     .+@.###.    .##.   ",
"    .+@$$...@.    .##.  ",
"    .+@$$$$$@.     .#.  ",
"   ............     .   ",
"                        ",
"                        "};
