/* XPM */
static char * fill_gradient_xpm[] = {
"24 24 54 1",
" 	c None",
".	c #59597D",
"+	c #C7C7E5",
"@	c #C3C3E2",
"#	c #BABAD9",
"$	c #B1B1D1",
"%	c #A7A7C9",
"&	c #9E9EC1",
"*	c #9494B8",
"=	c #8B8BB0",
"-	c #C0C0DF",
";	c #B7B7D7",
">	c #ADADCE",
",	c #A4A4C6",
"'	c #9B9BBE",
")	c #9191B6",
"!	c #8888AD",
"~	c #7E7EA5",
"{	c #BDBDDC",
"]	c #B4B4D4",
"^	c #AAAACC",
"/	c #A1A1C3",
"(	c #9797BB",
"_	c #8E8EB3",
":	c #8585AB",
"<	c #7B7BA2",
"[	c #72729A",
"}	c #8181A8",
"|	c #7878A0",
"1	c #6F6F97",
"2	c #65658F",
"3	c #75759D",
"4	c #6B6B94",
"5	c #62628C",
"6	c #595984",
"7	c #686892",
"8	c #5F5F89",
"9	c #555581",
"0	c #4C4C79",
"a	c #78789F",
"b	c #5C5C87",
"c	c #52527E",
"d	c #494976",
"e	c #3F3F6E",
"f	c #4F4F7C",
"g	c #464673",
"h	c #3C3C6B",
"i	c #333363",
"j	c #434371",
"k	c #393968",
"l	c #303060",
"m	c #29295B",
"n	c #363666",
"o	c #2D2D5D",
"                        ",
" ...................... ",
" .+++++++++++++@#$%&*=. ",
" .++++++++++++-;>,')!~. ",
" .+++++++++++{]^/(_:<[. ",
" .+++++++++@#$%&*=}|12. ",
" .++++++++-;>,')!~3456. ",
" .+++++++{]^/(_:<[7890. ",
" .+++++@#$%&*=}a12bcde. ",
" .++++-;>,')!~3456fghi. ",
" .+++{]^/(_:<[7890jklm. ",
" .+@#$%&*=}a12bcdenomm. ",
" .-;>,')!~3456fghimmmm. ",
" .]^/(_:<[7890jklmmmmm. ",
" .%&*=}a12bcdenommmmmm. ",
" .')!~3456fghimmmmmmmm. ",
" ._:<[7890jklmmmmmmmmm. ",
" .}a12bcdenommmmmmmmmm. ",
" .3456fghimmmmmmmmmmmm. ",
" .7890jklmmmmmmmmmmmmm. ",
" .bcdenommmmmmmmmmmmmm. ",
" .fghimmmmmmmmmmmmmmmm. ",
" ...................... ",
"                        "};
