/* XPM */
static char * fill_fractal_xpm[] = {
"24 24 402 2",
"  	c None",
". 	c #59597D",
"+ 	c #54258B",
"@ 	c #4B2776",
"# 	c #553D83",
"$ 	c #463789",
"% 	c #5440A5",
"& 	c #703092",
"* 	c #7D3F8E",
"= 	c #6A3E86",
"- 	c #6F4288",
"; 	c #82408E",
"> 	c #962F93",
", 	c #A93191",
"' 	c #A03999",
") 	c #8D4CB0",
"! 	c #835C9D",
"~ 	c #836396",
"{ 	c #846299",
"] 	c #8457A1",
"^ 	c #94469C",
"/ 	c #A44094",
"( 	c #561A83",
"_ 	c #4D3175",
": 	c #4C3781",
"< 	c #483F92",
"[ 	c #5442A7",
"} 	c #733092",
"| 	c #803E8E",
"1 	c #6E4086",
"2 	c #6B4081",
"3 	c #7A4285",
"4 	c #7F3E87",
"5 	c #9A3191",
"6 	c #AB2E91",
"7 	c #A7378A",
"8 	c #9C3A97",
"9 	c #A03F9B",
"0 	c #A43D93",
"a 	c #AA3B8C",
"b 	c #AF4083",
"c 	c #B15181",
"d 	c #4F2A7A",
"e 	c #4D3A7F",
"f 	c #423989",
"g 	c #4E47A2",
"h 	c #58389A",
"i 	c #7A3192",
"j 	c #823C8A",
"k 	c #6D488C",
"l 	c #654A86",
"m 	c #71467C",
"n 	c #763E7C",
"o 	c #853A83",
"p 	c #913486",
"q 	c #9A378C",
"r 	c #A43A8D",
"s 	c #A73A8A",
"t 	c #A83D86",
"u 	c #AB4487",
"v 	c #A25282",
"w 	c #9B5B7C",
"x 	c #4C3383",
"y 	c #443988",
"z 	c #46419A",
"A 	c #5340A2",
"B 	c #67349A",
"C 	c #823194",
"D 	c #7E3B8C",
"E 	c #6C458C",
"F 	c #5E4785",
"G 	c #654881",
"H 	c #70437A",
"I 	c #743E78",
"J 	c #773D79",
"K 	c #763E7A",
"L 	c #764176",
"M 	c #794376",
"N 	c #7D4273",
"O 	c #844474",
"P 	c #8A4974",
"Q 	c #885375",
"R 	c #3E3A8C",
"S 	c #45409A",
"T 	c #523FA2",
"U 	c #64379D",
"V 	c #763494",
"W 	c #823B92",
"X 	c #714089",
"Y 	c #674586",
"Z 	c #624B87",
"` 	c #5E4986",
" .	c #66497D",
"..	c #654576",
"+.	c #634A73",
"@.	c #5E4F71",
"#.	c #605171",
"$.	c #5D5271",
"%.	c #625171",
"&.	c #6B4E70",
"*.	c #744970",
"=.	c #794971",
"-.	c #50399C",
";.	c #5A39A4",
">.	c #6336A0",
",.	c #773397",
"'.	c #803B90",
").	c #6D3D82",
"!.	c #624682",
"~.	c #70558C",
"{.	c #695087",
"].	c #5D4885",
"^.	c #5B4880",
"/.	c #5E4C7B",
"(.	c #5D5377",
"_.	c #5A5C75",
":.	c #58657B",
"<.	c #556E80",
"[.	c #546E80",
"}.	c #56637C",
"|.	c #555D74",
"1.	c #655679",
"2.	c #62359F",
"3.	c #6935A0",
"4.	c #723A95",
"5.	c #7C3E8F",
"6.	c #6E3B80",
"7.	c #634484",
"8.	c #635589",
"9.	c #5F578A",
"0.	c #64588F",
"a.	c #5F4B87",
"b.	c #5D4C89",
"c.	c #575675",
"d.	c #586477",
"e.	c #5B6D77",
"f.	c #637A6E",
"g.	c #6A8468",
"h.	c #6B8460",
"i.	c #64786D",
"j.	c #59707E",
"k.	c #506585",
"l.	c #6D3C9D",
"m.	c #743E9E",
"n.	c #724089",
"o.	c #693B7C",
"p.	c #654680",
"q.	c #605589",
"r.	c #565688",
"s.	c #595C8E",
"t.	c #57568C",
"u.	c #59548E",
"v.	c #50598A",
"w.	c #4E647D",
"x.	c #58746B",
"y.	c #6F866F",
"z.	c #848E66",
"A.	c #88935C",
"B.	c #828E55",
"C.	c #7D8B56",
"D.	c #5E7A69",
"E.	c #556D88",
"F.	c #5C3B91",
"G.	c #5B3A8C",
"H.	c #5A3F88",
"I.	c #59468B",
"J.	c #54528C",
"K.	c #4D5A88",
"L.	c #4A5F85",
"M.	c #4E6088",
"N.	c #4F5D89",
"O.	c #505F8C",
"P.	c #4B5E85",
"Q.	c #546D7D",
"R.	c #6C7D66",
"S.	c #837A7B",
"T.	c #80886F",
"U.	c #707C61",
"V.	c #606C6B",
"W.	c #687966",
"X.	c #60756A",
"Y.	c #57657E",
"Z.	c #534A97",
"`.	c #4E4D94",
" +	c #4A4D8A",
".+	c #465188",
"++	c #485F85",
"@+	c #4C6B7F",
"#+	c #42667E",
"$+	c #496682",
"%+	c #496483",
"&+	c #486785",
"*+	c #466984",
"=+	c #4D7471",
"-+	c #778A6D",
";+	c #81659C",
">+	c #86866D",
",+	c #6F7361",
"'+	c #606088",
")+	c #5D6473",
"!+	c #5D627A",
"~+	c #595B74",
"{+	c #4D4F8C",
"]+	c #4C4F87",
"^+	c #4D4F82",
"/+	c #4C5586",
"(+	c #4E6189",
"_+	c #536D88",
":+	c #4B7086",
"<+	c #4D7287",
"[+	c #4C7184",
"}+	c #4C7282",
"|+	c #486E7C",
"1+	c #4B7377",
"2+	c #738962",
"3+	c #846B9B",
"4+	c #7F7A82",
"5+	c #7B854E",
"6+	c #6A6679",
"7+	c #625B67",
"8+	c #615E5E",
"9+	c #6A5E66",
"0+	c #586299",
"a+	c #596592",
"b+	c #56659A",
"c+	c #576B9F",
"d+	c #58749E",
"e+	c #527590",
"f+	c #4F798B",
"g+	c #588390",
"h+	c #59868B",
"i+	c #598687",
"j+	c #507D81",
"k+	c #477378",
"l+	c #618162",
"m+	c #7E7C7C",
"n+	c #8D7486",
"o+	c #82807B",
"p+	c #7D8B54",
"q+	c #828451",
"r+	c #7F7D58",
"s+	c #827E55",
"t+	c #4D66C0",
"u+	c #526DBE",
"v+	c #5771B6",
"w+	c #5775B5",
"x+	c #587AAF",
"y+	c #577EA4",
"z+	c #577C9F",
"A+	c #5C819C",
"B+	c #59818E",
"C+	c #578184",
"D+	c #598C86",
"E+	c #4B8076",
"F+	c #4F7B6C",
"G+	c #6D8B6D",
"H+	c #82747D",
"I+	c #878179",
"J+	c #8A8D69",
"K+	c #89896D",
"L+	c #8A8A66",
"M+	c #898D61",
"N+	c #4E5FD9",
"O+	c #5062DD",
"P+	c #4E64D9",
"Q+	c #4E65D7",
"R+	c #506BD0",
"S+	c #5472C7",
"T+	c #5B75BB",
"U+	c #5E79B1",
"V+	c #5D7AA0",
"W+	c #5B7C94",
"X+	c #528980",
"Y+	c #559173",
"Z+	c #4A817C",
"`+	c #4B7D66",
" @	c #6C8C5C",
".@	c #7F7B6A",
"+@	c #7B6A69",
"@@	c #848662",
"#@	c #92995F",
"$@	c #8A9A5C",
"%@	c #546AE5",
"&@	c #526DE1",
"*@	c #5371E0",
"=@	c #5575E5",
"-@	c #5778E7",
";@	c #5375E0",
">@	c #5075D9",
",@	c #5174C6",
"'@	c #5677B6",
")@	c #5D7DB0",
"!@	c #568094",
"~@	c #57857B",
"{@	c #4A9176",
"]@	c #4D8175",
"^@	c #497F6A",
"/@	c #5D8855",
"(@	c #849262",
"_@	c #897A68",
":@	c #734F68",
"<@	c #744A67",
"[@	c #5172E5",
"}@	c #5C82E2",
"|@	c #5A84D9",
"1@	c #5C87DA",
"2@	c #5C85D9",
"3@	c #5781D5",
"4@	c #547ED3",
"5@	c #537CDC",
"6@	c #517CD5",
"7@	c #507DC2",
"8@	c #5B7FB4",
"9@	c #577D94",
"0@	c #4E877F",
"a@	c #538B7D",
"b@	c #487D72",
"c@	c #448562",
"d@	c #618F59",
"e@	c #8F9159",
"f@	c #9F8768",
"g@	c #5F4662",
"h@	c #4E77E0",
"i@	c #5D8BD1",
"j@	c #6B90BC",
"k@	c #698CB0",
"l@	c #6C8BB0",
"m@	c #6F8BB9",
"n@	c #698EC0",
"o@	c #5F87D1",
"p@	c #5080D7",
"q@	c #4B80D0",
"r@	c #4F7DC9",
"s@	c #5581B4",
"t@	c #537D8D",
"u@	c #4D8B7A",
"v@	c #54807D",
"w@	c #48846B",
"x@	c #5F915F",
"y@	c #839254",
"z@	c #9B945A",
"A@	c #877271",
"B@	c #4F77DC",
"C@	c #618FC3",
"D@	c #598C8A",
"E@	c #5E8F7F",
"F@	c #638D80",
"G@	c #648789",
"H@	c #6A8493",
"I@	c #698BA8",
"J@	c #618CC4",
"K@	c #497ECD",
"L@	c #4487D3",
"M@	c #4B82C1",
"N@	c #587997",
"O@	c #4C8C7C",
"P@	c #4A867E",
"Q@	c #488865",
"R@	c #56925D",
"S@	c #659462",
"T@	c #81955C",
"U@	c #948C68",
"V@	c #4D77DA",
"W@	c #608EB7",
"X@	c #5D9376",
"Y@	c #609373",
"Z@	c #638D78",
"`@	c #688A83",
" #	c #6E8F8A",
".#	c #668193",
"+#	c #6587B7",
"@#	c #5084C4",
"##	c #4487C9",
"$#	c #527DCE",
"%#	c #537D95",
"&#	c #518B7B",
"*#	c #4D8579",
"=#	c #498D62",
"-#	c #4F975C",
";#	c #589869",
">#	c #5D9D6A",
",#	c #669861",
"'#	c #4F7ADC",
")#	c #5E8FA4",
"!#	c #619476",
"~#	c #5A8689",
"{#	c #5C86A0",
"]#	c #57839B",
"^#	c #638499",
"/#	c #617FA4",
"(#	c #5980B8",
"_#	c #4B82C3",
":#	c #4A86C5",
"<#	c #5584B3",
"[#	c #508087",
"}#	c #4C887B",
"|#	c #45846A",
"1#	c #4A9661",
"2#	c #52A861",
"3#	c #5BB56B",
"4#	c #5AB968",
"5#	c #59B26C",
"                                                ",
"  . . . . . . . . . . . . . . . . . . . . . .   ",
"  . + @ # $ % & * = - ; > , ' ) ! ~ { ] ^ / .   ",
"  . ( _ : < [ } | 1 2 3 4 5 6 7 8 9 0 a b c .   ",
"  . d e f g h i j k l m n o p q r s t u v w .   ",
"  . x y z A B C D E F G H I J K L M N O P Q .   ",
"  . R S T U V W X Y Z `  ...+.@.#.$.%.&.*.=..   ",
"  . -.;.>.,.'.).!.~.{.].^./.(._.:.<.[.}.|.1..   ",
"  . 2.3.4.5.6.7.8.9.0.a.b.c.d.e.f.g.h.i.j.k..   ",
"  . l.m.n.o.p.q.r.s.t.u.v.w.x.y.z.A.B.C.D.E..   ",
"  . F.G.H.I.J.K.L.M.N.O.P.Q.R.S.T.U.V.W.X.Y..   ",
"  . Z.`. +.+++@+#+$+%+&+*+=+-+;+>+,+'+)+!+~+.   ",
"  . {+]+^+/+(+_+:+<+[+}+|+1+2+3+4+5+6+7+8+9+.   ",
"  . 0+a+b+c+d+e+f+g+h+i+j+k+l+m+n+o+p+q+r+s+.   ",
"  . t+u+v+w+x+y+z+A+B+C+D+E+F+G+H+I+J+K+L+M+.   ",
"  . N+O+P+Q+R+S+T+U+V+W+X+Y+Z+`+ @.@+@@@#@$@.   ",
"  . %@&@*@=@-@;@>@,@'@)@!@~@{@]@^@/@(@_@:@<@.   ",
"  . [@}@|@1@2@3@4@5@6@7@8@9@0@a@b@c@d@e@f@g@.   ",
"  . h@i@j@k@l@m@n@o@p@q@r@s@t@u@v@w@x@y@z@A@.   ",
"  . B@C@D@E@F@G@H@I@J@K@L@M@N@O@P@Q@R@S@T@U@.   ",
"  . V@W@X@Y@Z@`@ #.#+#@###$#%#&#*#=#-#;#>#,#.   ",
"  . '#)#!#~#{#]#^#/#(#_#:#<#[#}#|#1#2#3#4#5#.   ",
"  . . . . . . . . . . . . . . . . . . . . . .   ",
"                                                "};
