/* XPM */
static char * flip_hor_xpm[] = {
"42 21 3 1",
" 	c None",
".	c #000000",
"+	c #7F7F7F",
"                                          ",
"                                          ",
"                                          ",
"               ..    .   .............    ",
"               ..    ..  ..      ...      ",
"                     ..  .       ..       ",
"                     ..  .       ..       ",
"                     ..    .     ..       ",
"     .... ..   ..    ..    .     ..       ",
"    ........   ...   ..    ..    ..       ",
"    ..    ..   ..    ..    ........       ",
"    ..    ..   ..    ..    ..    ..       ",
"    ..    ..   ..    ..    .     ..       ",
"    ..    ..   ..    ..    .     ..       ",
"    ..    ..   ..    ..          ..       ",
"    ..    ..   ..    ..          ..       ",
"    ........   ..   ....        ....      ",
"     .... .. +.... ......     ........    ",
"          ..                              ",
"          ..                              ",
"          ..                              "};
