/* XPM */
static char *magick[] = {
/* columns rows colors chars-per-pixel */
"24 24 163 2",
"   c Gray0",
".  c #7f0000",
"X  c Gray37",
"o  c #606060",
"O  c Gray38",
"+  c #646464",
"@  c Gray40",
"#  c #676767",
"$  c #686868",
"%  c #6a6a6a",
"&  c #6c6c6c",
"*  c #6d6d6d",
"=  c Gray43",
"-  c Gray44",
";  c #727272",
":  c Gray45",
">  c #747474",
",  c #767676",
"<  c #777777",
"1  c Gray47",
"2  c Gray48",
"3  c Gray49",
"4  c Gray",
"5  c #810707",
"6  c #830f0f",
"7  c #831010",
"8  c #851717",
"9  c #851818",
"0  c #861818",
"q  c #871f1f",
"w  c #882020",
"e  c #882121",
"r  c #8a2727",
"t  c #8a2828",
"y  c #8a2929",
"u  c #8b2a2a",
"i  c #8c2f2f",
"p  c #8c3030",
"a  c #8d3030",
"s  c #8d3131",
"d  c #8d3232",
"f  c #8e3737",
"g  c #8f3838",
"h  c #8f3939",
"j  c #8f3a3a",
"k  c #913f3f",
"l  c #914040",
"z  c #914141",
"x  c #924242",
"c  c #934747",
"v  c #934848",
"b  c #944949",
"n  c #944a4a",
"m  c #954f4f",
"M  c #955050",
"N  c #965050",
"B  c #965151",
"V  c #965252",
"C  c #985757",
"Z  c #985858",
"A  c #985959",
"S  c #985a5a",
"D  c #9a5f5f",
"F  c #9a6060",
"G  c #9a6161",
"H  c #9b6161",
"J  c #9b6262",
"K  c #9c6767",
"L  c #9c6868",
"P  c #9d6969",
"I  c #9d6a6a",
"U  c #9e6f6f",
"Y  c #9f7070",
"T  c #9f7171",
"R  c #9f7272",
"E  c #a17777",
"W  c #a17878",
"Q  c #a17979",
"!  c #a27a7a",
"~  c #808080",
"^  c Gray51",
"/  c #838383",
"(  c #848484",
")  c #868686",
"_  c #898989",
"`  c Gray54",
"'  c Gray55",
"]  c #8e8e8e",
"[  c Gray56",
"{  c #909090",
"}  c #929292",
"|  c #959595",
" . c Gray59",
".. c #989898",
"X. c Gray60",
"o. c #9a9a9a",
"O. c Gray61",
"+. c Gray62",
"@. c #9f9f9f",
"#. c #a38080",
"$. c #a38181",
"%. c #a48181",
"&. c #a48282",
"*. c #a68989",
"=. c #a68a8a",
"-. c #a89191",
";. c #a99292",
":. c #ab9a9a",
">. c #a2a2a2",
",. c Gray64",
"<. c #a4a4a4",
"1. c #a5a5a5",
"2. c Gray65",
"3. c Gray66",
"4. c #aaaaaa",
"5. c Gray67",
"6. c #aeaeae",
"7. c #afafaf",
"8. c Gray69",
"9. c #b1b1b1",
"0. c #b2b2b2",
"q. c #b4b4b4",
"w. c #b6b6b6",
"e. c #b7b7b7",
"r. c #bbbbbb",
"t. c Gray74",
"y. c #bebebe",
"u. c #c0c0c0",
"i. c #c1c1c1",
"p. c Gray76",
"a. c Gray77",
"s. c Gray78",
"d. c Gray79",
"f. c #cacaca",
"g. c Gray80",
"h. c #cdcdcd",
"j. c #cecece",
"k. c #d0d0d0",
"l. c #d3d3d3",
"z. c #d5d5d5",
"x. c Gray84",
"c. c #d7d7d7",
"v. c #d8d8d8",
"b. c Gray85",
"n. c #dadada",
"m. c #dddddd",
"M. c #dfdfdf",
"N. c Gray88",
"B. c #e1e1e1",
"V. c Gray89",
"C. c #e4e4e4",
"Z. c #e6e6e6",
"A. c #e9e9e9",
"S. c #ececec",
"D. c Gray93",
"F. c #efefef",
"G. c #f1f1f1",
"H. c Gray95",
"J. c #f8f8f8",
"K. c #fbfbfb",
"L. c #fdfdfd",
"P. c Gray100",
"I. c None",
/* pixels */
"I.I.I.I.I.I.I.I.I.I.I.I.I.I.I.I.I.I.I.I.I.I.I.I.",
"I.I.I.I.I.I.I.I.I.I.I.I.I.I.I.I.I.I.I.I.I.  I.I.",
"I.I.I.I.I.I.I.I.I.I.I.I.I.I.I.I.I.I.I.I.I.I.I.I.",
"I.I.I.I.I.I.I.I.I.I.I.I.I.I.I.I.I.I.I.  I.I.I.I.",
"I.I.I.I.X # 1 ) | 1.q.a.l.N.H.P.P.P.P.I.I.  . I.",
"I.I.I.X X # - ~ } >.9.i.l.N.F.P.P.P.I.I.I.I.I.I.",
"I.I.X X X O - ~ [ @.6.y.h.m.F.K.P.I.I.I.I.  I.I.",
"I.X X X X X * 3 [ @.5.r.f.v.A.K.I.I.I.I.I.I.I.I.",
"X X X X X X $ 1 _ ..5.q.a.c.Z.I.I.I.I.I.I.  I.I.",
"I.I.I.I.I.I.I.I.I.I.I.I.I.I.I.I.I.I.I.I.      I.",
"I.I.I.I.I.I.I.I.I.I.I.I.I.I.I.I.I.I.I.          ",
"I.I.I.I.* 1 ) } @.5.q.i.h.v.Z.H.P.P.P.. .   . I.",
"I.I.I.O * 1 ) } @.5.q.i.h.v.Z.H.P.P.I.I..   I.. ",
"I.I.X X $ > ~ [ ..1.9.y.f.c.N.F.K.I.I.I..     I.",
"I.X X X $ > ~ [ ..1.9.y.f.c.N.F.I.I.I.I..   I.I.",
"X X X X # - 3 _ | >.6.r.a.l.m.I.I.I.I.I..   I.I.",
"I.I.I.I.I.I.I.I.I.I.I.I.I.I.I.I.I.I.I.I..   I.I.",
"I.I.I.I.I.I.      I.I.I.I.I.I.I.I.I.I.I.. I.I.I.",
"I.I.I.I.I.I.I.I.I.E U K D C m c k f i r q 8 6 5 ",
"I.I.I.I.I.  I.I.! ! U I G A V v l g p t w 9 7 I.",
"I.I.I.I.  I.  *.$.! R I G A V v l g p t w 9 I.I.",
"I.I.I.  I.  -.*.&.! R I G A V n l g p t w   I.I.",
"I.I.I.I.  :.-.*.&.! R I G A V n l g p t I.I.I.I.",
"I.I.I.I.I.I.I.I.I.I.I.I.I.I.I.I.I.I.I.I.I.I.I.I."
};
