/* XPM */
static char * join_bevel_xpm[] = {
"24 24 5 1",
" 	c None",
".	c #000000",
"+	c #999999",
"@	c #59597F",
"#	c #9797D8",
"                        ",
"                        ",
"                        ",
"                        ",
"                        ",
"        .......         ",
"        .+++++.+        ",
"        .+    .+        ",
"   @@@@@.@@@@@.@@@@@    ",
"  @#####.#####.#####@   ",
" @######.#####.######@  ",
"@#######.......#######@ ",
"#######################@",
"########################",
"###########@############",
"##########@ @###########",
"#########@   @##########",
"########@     @#########",
"#######@       @########",
"######@         @#######",
"#####@           @######",
"####@             @#####",
"###@               @####",
"##@                 @###"};
