/* XPM */
static char *arrowhead2[]={
"32 32 3 1",
". c None",
"# c #59597f",
"a c #9797d8",
"................................",
"................................",
"................................",
"................................",
"................................",
"................................",
"................................",
"................................",
"....................#...........",
"..................##............",
"................###.............",
"..............####..............",
"............##a##...............",
"..........##aa##................",
"........##aaa###################",
"......##aaaaaaaaaaaaaaaaaaaaaaaa",
"........##aaa###################",
"..........##aa##................",
"............##a##...............",
"..............####..............",
"................###.............",
"..................##............",
"....................#...........",
"................................",
"................................",
"................................",
"................................",
"................................",
"................................",
"................................",
"................................",
"................................"};
