/* XPM */
static char * node_join_xpm[] = {
"24 24 7 1",
" 	c None",
".	c #000000",
"+	c #999999",
"@	c #F8E008",
"#	c #0000BD",
"$	c #A1A1E6",
"%	c #FFFFFF",
"                        ",
"                        ",
"      .    .     .      ",
"      ..   .+   ..      ",
"      .@.  .+  .@.      ",
"  .....@@. .+ .@@.....  ",
"  .@@@@@@@..+.@@@@@@@.  ",
"  .....@@. .+ .@@.....  ",
"      .@.  .+  .@.      ",
"      ..   .+   ..      ",
"      .    .+    .      ",
"            +           ",
"                        ",
"                        ",
"   #######    #######   ",
"   #$$$$$#$   #$$$$$#$  ",
"   #$    #$   #$    #$  ",
"...#$    #$   #$    #...",
"%%%#$    #$   #$    #%%%",
"   #$    #$   #$    #$  ",
"   #######$   #######$  ",
"    $$$$$$$    $$$$$$$  ",
"                        ",
"                        "};
