/* XPM */
static char * object_align_xpm[] = {
"24 24 6 1",
" 	c None",
".	c #000000",
"+	c #B9CEE8",
"@	c #A5A5FF",
"#	c #F8E008",
"$	c #515151",
"                        ",
"                        ",
"        ..............  ",
"        .++++++++++++.  ",
"        ...........++.  ",
"        .@@@@@@@@@.++.  ",
"    .   .@@@.@@@@@.++.  ",
"    ..  .@@..@@@@@.++.  ",
" ....#. .@.#....@@.++.  ",
" .#####...#####.@@.++.  ",
" ....#. .@.#....@@.++.  ",
"    ..  .@@..@@@@@.++.  ",
"    .   .@@@.@@@@@.++.  ",
"        .@@@@@@@@@.++.  ",
"        .@@@@@@@@@.++.  ",
"        ...........++.  ",
"        .++++++++++++.  ",
"        .++++++++++++.  ",
"        ..............  ",
"                        ",
"                        ",
" $$$$$$$$$$$$$$$$$$$$$$ ",
"                        ",
"           .....  ..... "};
