/* XPM */
static char * object_rotate_xpm[] = {
"21 21 3 1",
" 	c None",
".	c #000000",
"+	c #FFFFFF",
"                     ",
"          .+         ",
"          ...        ",
"          .++..      ",
"          .+ ++.  .  ",
"          .+   +...+ ",
"          .+  .....+ ",
"          .+  ++...+ ",
"          .+    +..+ ",
"          .+     +.+ ",
" ................... ",
" +++++++++.+++++++++ ",
"          .+         ",
"          .+         ",
"          .+         ",
"          .+         ",
"          .+         ",
"          .+         ",
"          .+         ",
"          .+         ",
"                     "};
