/* XPM */
static char * quit_nope_xpm[] = {
"60 50 2 1",
" 	g None",
".	g #000000",
"                                                            ",
"                                                            ",
"                                                            ",
"                               ....                         ",
"                               .  . .          ...          ",
"                              .     ..        .. .          ",
"                              .       .. .  ..   .          ",
"                              .        .....     .          ",
"                              .        . ..      .          ",
"                        ....  .                  .          ",
"                        .   ...                  ........   ",
"                        .    ..                  .      .   ",
"                        .                               .   ",
"                        ..                            ..    ",
"                         .                           ..     ",
"                       ..        ...                 .      ",
"                     ..      ...........            ..      ",
"                    .        .. ....  ...  ...    ..        ",
"                   ..            ..          ...  .         ",
"                   .                          ......        ",
"                    .     ...                ......  ...    ",
"                         .. ..               ......     . . ",
"                      .. .   .               ...  .       . ",
"                         .   .                           .  ",
"         ....           .    .      ...                 ..  ",
"         .   .          .    .     .  ..               .    ",
"         .    ..        .    .    .     ...           ..    ",
"         .      .      ..    .    .     . ..         .      ",
"         .      .      .     .    .   ..   .          ..    ",
"         .       .     .     .    .. .    .             ..  ",
"          .      .     .     .     ..     .             .   ",
"          ..      .    .     .    ..      .            .    ",
"           .      ..   .     .    .      ..          ..     ",
"            .      .   .     .   .       .         ..       ",
"            ..      .  .     .  .       .         .         ",
"             .      .. .     . .       .         .          ",
"              .      . .     ..       .         .           ",
"    .....      .     . .     ..     ..         .            ",
"   ..   ...    ..    ..      .    ...         .             ",
"  ..      ..    .     .     ..    .          .              ",
"  .         ..   .               ..... ....  .              ",
"  ....        .....                       ......            ",
"     .....                                   .. .           ",
"         .....                               ..  .          ",
"             .....                   .........    .         ",
"                 .               ....              .        ",
"                 .               .                          ",
"                 .               .                 .        ",
"                 .               .                  .       ",
"                 .                                   ..     "};
