/* XPM */
static char * selection_break_xpm[] = {
"24 24 6 1",
" 	c None",
".	c #E70319",
"+	c #000000",
"@	c #055FFB",
"#	c #009B06",
"$	c #F8E008",
"                        ",
"                        ",
"                       .",
"           ++++++     ..",
"         ++@@@@@@++  ...",
"        +@@@@@@@@@@+... ",
"       +@@@@@@@@@@@...  ",
"      +@@@@@@@@@@@...+  ",
"      +@@@@@@@@@@...@+  ",
"      +@@@@@@@@@...@@+  ",
"   ############...@@@+  ",
"   #$$$$$$$$$$...#@@@+  ",
"   #$$$$$$$$$...$#@@+   ",
"   #$$$$$$$$...$$#@+    ",
"   #$$$$$$$...$$$#+     ",
"   #$$$$$$...$$$$#      ",
"   #$$$$$...$$$$$#      ",
"   #$$$$...$$$$$$#      ",
"   #$$$...$$$$$$$#      ",
"   #$$...$$$$$$$$#      ",
"   ##...##########      ",
"    ...                 ",
"   ...                  ",
"  ...                   "};
