/* XPM */
static char * selection_top_xpm[] = {
"24 24 4 1",
" 	c None",
".	c #000000",
"+	c #08FEF8",
"@	c #04807C",
"                        ",
"                        ",
"  ....................  ",
"  .++++++++++++++++++.  ",
"  ....................  ",
"           ..           ",
"          .@@.          ",
"         .@++@.         ",
"        .@+@@+@.        ",
"       .@+@..@+@.       ",
"      .@+@.  .@+@.      ",
"     .@+@.    .@+@.     ",
"     .@@.      .@@.     ",
"      ..        ..      ",
"                        ",
"                        ",
"                        ",
"                        ",
"                        ",
"                        ",
"                        ",
"                        ",
"                        ",
"                        "};
