/* XPM */
static char * skew_ver_xpm[] = {
"24 24 6 1",
" 	c None",
".	c #000000",
"+	c #8F8FCC",
"@	c #808080",
"#	c #F8E008",
"$	c #7F7F7F",
"                        ",
" ..                     ",
" .+..                   ",
" .+++..                 ",
" .+++++..               ",
" .+++++++..             ",
" .++++++++...       .  @",
" .+++++++++++..    .#.  ",
" .++++++++++++.$  .###. ",
" .++++++++++++.$ ...#...",
" .++++++++++++.$   .#.  ",
" .++++++++++++.$   .#.  ",
" .++++++++++++.$   .#.  ",
" .++++++++++++.$   .#.  ",
" .++++++++++++.$ ...#...",
" ..+++++++++++.$  .###. ",
"  $..+++++++++.$   .#.  ",
"    $..+++++++.$    .   ",
"      $..+++++.$        ",
"        $..+++.$        ",
"          $..+.$        ",
"            $..$        ",
"              $$        ",
"                        "};
