/* XPM */
static char * skew_hor_xpm[] = {
"24 24 5 1",
" 	c None",
".	c #000000",
"+	c #FFE100",
"@	c #808080",
"#	c #8F8FCC",
"         .    .         ",
"        ..    ..        ",
"       .+......+.       ",
"      .++++++++++.      ",
"       .+......+.       ",
"        ..    ..        ",
"         .    .       @ ",
"                        ",
"       ...............  ",
"       .#############.  ",
"      .#############.@  ",
"      .#############.@  ",
"     .#############.@   ",
"     .#############.@   ",
"    .#############.@    ",
"    .#############.@    ",
"   .#############.@     ",
"   .#############.@     ",
"  .#############.@      ",
"  .#############.@      ",
" .#############.@       ",
" ...............@       ",
"  @@@@@@@@@@@@@@        ",
"                        "};
