/* XPM */
static char * sym_xpm[] = {
"24 24 5 1",
" 	c None",
".	c #000000",
"+	c #999999",
"@	c #0000BD",
"#	c #9797D8",
"                        ",
"                        ",
"                        ",
"                        ",
"                        ",
".+                    .+",
".+                    .+",
".                     .+",
" .+                  .+ ",
" .+                  .+ ",
"  .+                .+  ",
"   .+   @@@@@@@    .+   ",
"    ..+ @#####@# ..+    ",
"...   ..@#    @#.++ ... ",
".+.@@@@@@#    @@@@@@.+.+",
"...#####@#    @#####...+",
" +++    @#    @#     +++",
"        @@@@@@@#        ",
"         #######        ",
"                        ",
"                        ",
"                        ",
"                        ",
"                        "};
