/* XPM */
static char * toolbox_node_xpm[] = {
"12 12 5 1",
" 	c None",
".	c #000000",
"+	c #FFFFFF",
"@	c #001281",
"#	c #A0A0E5",
"           .",
"          .+",
"         .+ ",
"   @@@@@@+  ",
"   @####@#  ",
"   @#   @#  ",
"   @#   @#  ",
"   @#   @#  ",
"   @@@@@@#  ",
"  .+######  ",
" .+         ",
".+          "};
