/* XPM */
static char * toolbox_file_xpm[] = {
"12 12 9 1",
" 	c None",
".	c #10384C",
"+	c #757577",
"@	c #4281A3",
"#	c #F2F2FF",
"$	c #000000",
"%	c #FFFFFF",
"&	c #B6B6B6",
"*	c #414141",
"..++++++++..",
".@########@.",
".@#$$#$$$#@.",
".@########@.",
".@#$#$$###@.",
".@#######%@.",
".@########@.",
".@@@@@@@@@@.",
".@@&&&&&&@@.",
".@@&**&&&@@.",
".@@&**&&&@@.",
" ..+$$+++.. "};
