/* XPM */
static char * toolbox_zoom_xpm[] = {
"12 12 4 1",
" 	c None",
".	c #000000",
"+	c #FFFFFF",
"@	c #808080",
"   .....    ",
"  .+++++.   ",
" .+++++++.  ",
".+++++++++. ",
".+++++++++. ",
".+++++++++. ",
".+++++++++. ",
".+++++++++. ",
" .+++++++.  ",
"  .+++++.@. ",
"   ..... .@.",
"          . "};
