<?xml version="1.0" encoding="UTF-8" standalone="no"?>
<!DOCTYPE svg PUBLIC "-//W3C//DTD SVG 20010904//EN"
"http://www.w3.org/TR/2001/REC-SVG-20010904/DTD/svg10.dtd">
<!-- Created with Inkscape (http://www.inkscape.org/) -->
<svg
   id="svg1"
   sodipodi:version="0.32"
   inkscape:version="0.37cvs"
   width="256pt"
   height="1024pt"
   sodipodi:docname="tutorial.svg"
   sodipodi:docbase="/home/d/ink/inkscape/icons"
   xmlns="http://www.w3.org/2000/svg"
   xmlns:inkscape="http://www.inkscape.org/namespaces/inkscape"
   xmlns:sodipodi="http://sodipodi.sourceforge.net/DTD/sodipodi-0.dtd"
   xmlns:xml="http://www.w3.org/XML/1998/namespace"
   xmlns:xlink="http://www.w3.org/1999/xlink">
  <defs
     id="defs3">
    <linearGradient
       id="linearGradient841">
      <stop
         style="stop-color:#0082ab;stop-opacity:1;"
         offset="0.00000000"
         id="stop842" />
      <stop
         style="stop-color:#ffffff;stop-opacity:1;"
         offset="1.00000000"
         id="stop843" />
    </linearGradient>
    <defs
       id="defs561">
      <linearGradient
         id="linearGradient583">
        <stop
           style="stop-color:#ffffff;stop-opacity:1;"
           offset="0.000000"
           id="stop584" />
        <stop
           style="stop-color:#ffffff;stop-opacity:0;"
           offset="1.000000"
           id="stop585" />
      </linearGradient>
      <linearGradient
         xlink:href="#linearGradient583"
         id="linearGradient586"
         x1="0.497940"
         y1="0.009092"
         x2="0.485597"
         y2="0.972727" />
    </defs>
    <sodipodi:namedview
       id="namedview568" />
    <linearGradient
       xlink:href="#linearGradient841"
       id="linearGradient844"
       x1="0.51533741"
       y1="0.26530612"
       x2="0.51533741"
       y2="0.91836733" />
  </defs>
  <sodipodi:namedview
     id="base"
     inkscape:zoom="2.19141498"
     inkscape:cx="128.327252"
     inkscape:cy="934.985692"
     inkscape:window-width="639"
     inkscape:window-height="501"
     inkscape:window-x="364"
     inkscape:window-y="162" />
  <rect
     style="font-size:12;fill:url(#linearGradient844);fill-rule:evenodd;stroke:none;stroke-width:3.06115;fill-opacity:1;"
     id="rect582"
     width="319.89233398"
     height="31.75427116"
     x="0.18214770"
     y="0.27756906"
     ry="2.83520272"
     rx="0" />
  <rect
     style="font-size:12;fill:#fdffff;fill-rule:evenodd;stroke-width:1pt;"
     id="rect133"
     x="11.27124232"
     y="9.03924179"
     width="7.30557823"
     height="5.45606518"
     rx="0"
     ry="0" />
  <path
     style="font-size:12;fill-rule:evenodd;stroke-width:1pt;"
     d="M 23.05417 16.656645 C 24.150842 16.875956 24.370271 17.643661 24.150842 17.862972 C 23.93159 18.082341 23.383255 18.301652 22.944574 17.972627 C 22.505775 17.643661 22.505775 16.875956 23.05417 16.656645 z "
     id="path580" />
  <path
     style="font-size:12;fill-rule:evenodd;stroke-width:1pt;"
     d="M 11.956073 16.729907 C 11.849208 16.758404 10.956471 15.989096 10.2495 16.345668 C 9.5427079 16.702181 9.0682269 17.500521 9.7285329 17.828122 C 10.388899 18.155722 10.860945 17.777954 11.439856 17.371453 C 12.018827 16.965009 11.997928 16.886701 11.956073 16.729907 z "
     id="path582" />
  <path
     style="font-size:12;fill-rule:evenodd;stroke-width:1pt;"
     d="M 25.000002 14.778198 C 25.596427 14.629062 26.974152 14.778198 26.754723 15.65544 C 26.535472 16.532919 24.671155 16.203775 23.46465 15.765273 C 23.354995 14.887853 24.718888 14.848431 25.000002 14.778198 z "
     id="path583" />
  <path
     style="font-size:12;fill:#ffffff;fill-rule:evenodd;stroke-width:1pt;"
     d="M 15.53854 -1.4113051 L 8.5067709 5.7253758 L 23.829653 5.3580568 L 16.640495 -1.4113051 L 15.53854 -1.4113051 z "
     id="path615"
     sodipodi:nodetypes="ccccc" />
  <path
     style="font-size:12;fill-rule:evenodd;stroke-width:1pt;"
     d="M 5.3975488 7.8741319 C 4.8924938 8.3791869 4.6399358 9.0382469 4.6399358 9.6973659 L 27.753554 9.6973659 C 27.753554 9.0382469 27.501056 8.3791869 26.996 7.8741319 L 18.020003 -1.1018431 C 17.009892 -2.1119531 15.383586 -2.1119531 14.373476 -1.1018431 L 5.3975488 7.8741319 z M 13.583804 0.91283393 C 12.552973 1.436175 10.85952 3.6349198 10.85952 3.9489248 L 10.827401 5.2564168 L 13.763692 4.9619448 L 14.815302 2.500015 L 15.631275 5.3153698 L 17.766555 3.8900298 L 19.147962 4.5378688 L 19.39856 2.641374 L 21.910775 3.8546458 C 21.910775 3.8154028 21.907926 3.7761598 21.902107 3.7370358 C 21.896289 3.6979698 21.887621 3.6589648 21.875985 3.6203148 C 21.864408 3.5816058 21.849921 3.5432538 21.832527 3.5052578 C 21.815131 3.4673208 21.794827 3.4297988 21.771614 3.3928118 C 21.74846 3.3558838 21.722337 3.3194908 21.693364 3.2838098 C 21.664333 3.2481278 21.632451 3.2132198 21.597661 3.1791418 C 21.562871 3.1450038 21.525171 3.1118158 21.484562 3.0795788 C 21.443954 3.0473418 21.400436 3.0161128 21.354009 2.9860128 L 17.11272 -0.15944907 C 16.370305 -0.64069717 16.211552 -0.92341417 15.469138 -0.44216617 L 13.583804 0.91283393 z "
     id="path588" />
  <path
     style="font-size:12;fill-rule:evenodd;stroke-width:1pt;"
     d="M 9.7610679 11.679828 C 9.2560129 11.174773 4.6399358 10.31736 4.6399358 9.6582409 L 27.753554 9.6582409 C 27.753554 10.31736 27.918363 10.851388 26.354396 11.561683 C 23.216605 12.986667 21.762114 12.607059 21.014119 13.355054 C 20.266125 14.103049 22.363467 14.527302 23.003825 15.523224 C 21.412903 17.312498 19.524423 17.316714 18.776428 18.064709 C 18.028433 18.812703 20.211623 18.747041 19.463628 19.495036 C 18.052537 20.505147 15.944983 20.986395 14.934872 19.976284 C 15.389939 18.025228 12.877486 18.961483 12.129491 18.213488 C 11.381496 17.465494 13.658253 16.667866 12.910258 15.919871 C 12.162204 15.171876 8.3895159 14.473455 7.6415219 13.72546 C 6.8935389 12.977465 10.509063 12.427823 9.7610679 11.679828 z M 12.216408 12.138635 C 13.553109 12.485292 15.0396 12.939231 16.232806 12.947365 L 16.284398 13.484895 C 15.262651 13.379574 13.100299 12.886808 12.590554 12.626413 L 12.216408 12.138635 z "
     id="path591" />
  <path
     style="font-size:40;font-weight:normal;fill:#ffffff;stroke-width:1pt;font-family:Century Schoolbook L;fill-opacity:1;"
     d="M 152.16747 3.7614078 L 142.58797 3.7614078 L 142.58797 4.3743358 L 142.87488 4.3743358 C 144.16596 4.3743358 144.30942 4.4395478 144.30942 4.9872648 L 144.30942 5.3654588 L 144.30942 11.572981 L 144.30942 11.951174 C 144.30942 12.498899 144.16596 12.564103 142.87488 12.564103 L 142.58797 12.564103 L 142.58797 13.177032 L 152.37468 13.177032 L 152.69347 9.6950769 L 151.99214 9.6950769 C 151.78493 10.607945 151.41833 11.416493 151.03578 11.794679 C 150.54167 12.316324 149.63313 12.564103 148.29423 12.564103 L 147.24224 12.564103 C 146.76407 12.564103 146.36558 12.485855 146.22213 12.368484 C 146.11055 12.290237 146.09461 12.211997 146.09461 11.93813 L 146.09461 8.6126709 L 146.4134 8.6126709 C 147.3857 8.6126709 147.78417 8.6909189 148.10296 8.9647769 C 148.51738 9.3038469 148.67677 9.7211569 148.70866 10.490582 L 149.4578 10.490582 L 149.4578 6.2131228 L 148.70866 6.2131228 C 148.62895 7.4911409 147.99138 7.9997419 146.47716 7.9997419 L 146.09461 7.9997419 L 146.09461 5.0263888 C 146.09461 4.4656278 146.23807 4.3743358 147.09878 4.3743358 L 147.92763 4.3743358 C 149.33028 4.3743358 150.01567 4.4917078 150.55761 4.8568578 C 151.0836 5.1959198 151.46614 5.9262208 151.70524 7.0999109 L 152.39062 7.0999109 L 152.16747 3.7614078 z M 131.01607 8.9908649 L 132.81721 8.9908649 C 134.25174 8.9908649 135.00088 8.8995739 135.63845 8.6517949 C 136.77015 8.2083969 137.40772 7.3737769 137.40772 6.3435308 C 137.40772 5.3524148 136.84984 4.5960348 135.79785 4.1656808 C 135.17621 3.9048588 134.18798 3.7614078 133.08817 3.7614078 L 127.50943 3.7614078 L 127.50943 4.3743358 L 127.79634 4.3743358 C 129.08742 4.3743358 129.23087 4.4395478 129.23087 4.9872648 L 129.23087 5.3654588 L 129.23087 11.572981 L 129.23087 11.951174 C 129.23087 12.498899 129.08742 12.564103 127.79634 12.564103 L 127.50943 12.564103 L 127.50943 13.177032 L 132.86503 13.177032 L 132.86503 12.564103 L 132.4506 12.564103 C 131.15952 12.564103 131.01607 12.498899 131.01607 11.951174 L 131.01607 11.572981 L 131.01607 8.9908649 z M 131.01607 8.3779359 L 131.01607 5.0394328 C 131.01607 4.4395478 131.1117 4.3743358 131.98837 4.3743358 L 133.00848 4.3743358 C 134.66616 4.3743358 135.44718 5.0133528 135.44718 6.3956978 C 135.44718 7.7389199 134.63428 8.3779359 132.94472 8.3779359 L 131.01607 8.3779359 z M 117.14891 3.5788398 L 116.47946 3.5788398 L 112.81342 11.18175 C 112.49464 11.859883 112.43089 11.951174 112.1918 12.159829 C 111.93677 12.407608 111.49047 12.564103 111.06011 12.564103 L 110.99635 12.564103 L 110.99635 13.177032 L 115.22025 13.177032 L 115.22025 12.564103 L 114.90147 12.564103 C 114.04075 12.564103 113.61039 12.316324 113.61039 11.820767 C 113.61039 11.664272 113.65821 11.481697 113.75384 11.273042 L 114.27984 10.125431 L 118.50375 10.125431 L 119.36447 11.872927 C 119.4601 12.068545 119.49198 12.159829 119.49198 12.225033 C 119.49198 12.433688 119.0935 12.564103 118.50375 12.564103 L 117.8343 12.564103 L 117.8343 13.177032 L 122.77546 13.177032 L 122.77546 12.564103 L 122.55232 12.564103 C 121.75535 12.564103 121.58002 12.459775 121.21342 11.729475 L 117.14891 3.5788398 z M 116.36788 5.7175658 L 118.16902 9.4212179 L 114.59862 9.4212179 L 116.36788 5.7175658 z M 105.36979 3.6701238 L 104.7641 3.6701238 L 104.12653 4.4395478 C 102.99484 3.7614078 102.37321 3.5657958 101.30528 3.5657958 C 99.759173 3.5657958 98.484033 4.0743968 97.400163 5.1307158 C 96.380046 6.1218388 95.901876 7.2172819 95.901876 8.5605109 C 95.901876 11.364325 98.149313 13.372643 101.28934 13.372643 C 103.83962 13.372643 105.46543 12.146785 105.83203 9.9558999 L 105.08289 9.8515649 C 104.92349 10.542741 104.73222 11.012219 104.44532 11.403449 C 103.7918 12.303281 102.77169 12.759714 101.48061 12.759714 C 99.121603 12.759714 98.005853 11.416493 98.005853 8.6126709 C 98.005853 7.1390339 98.244943 6.1479188 98.786883 5.3654588 C 99.280993 4.6351588 100.26922 4.1787248 101.28934 4.1787248 C 102.40509 4.1787248 103.39332 4.6612388 103.99902 5.4958668 C 104.30186 5.9262208 104.54095 6.4348218 104.90756 7.4389809 L 105.60888 7.4389809 L 105.36979 3.6701238 z M 89.414589 3.6831678 L 88.824842 3.6831678 L 88.187272 4.4656278 C 87.438132 3.8787788 86.418012 3.5657958 85.286335 3.5657958 C 83.198295 3.5657958 81.795638 4.6612388 81.795638 6.2913698 C 81.795638 7.7128399 82.656355 8.4170599 84.999435 8.9126169 L 86.513652 9.2255999 C 87.693162 9.4733789 87.804732 9.4994589 88.139462 9.7081139 C 88.617642 10.00806 88.872662 10.438414 88.872662 10.947015 C 88.872662 11.468653 88.633572 11.899007 88.155402 12.25112 C 87.629402 12.629307 87.103402 12.772758 86.226742 12.772758 C 85.047245 12.772758 84.202465 12.472812 83.453325 11.794679 C 82.783865 11.18175 82.449145 10.568821 82.210058 9.5646699 L 81.524668 9.5646699 L 81.588428 13.28136 L 82.210058 13.28136 L 82.927315 12.394571 C 83.995255 13.111821 84.887845 13.372643 86.274562 13.372643 C 88.617642 13.372643 90.115929 12.25112 90.115929 10.503618 C 90.115929 9.6950769 89.781199 9.0039009 89.159572 8.5083429 C 88.729212 8.1692739 88.107582 7.9475819 86.832432 7.6867589 L 85.126935 7.3346529 C 83.708345 7.0347069 83.038895 6.5261049 83.038895 5.7306088 C 83.038895 4.8177338 83.947435 4.1917618 85.302275 4.1917618 C 86.418012 4.1917618 87.326552 4.5829988 87.964132 5.3263348 C 88.426372 5.8610168 88.713272 6.4087418 88.920482 7.0738309 L 89.605869 7.0738309 L 89.414589 3.6831678 z M 67.864711 8.9126169 L 67.864711 5.3654588 L 67.864711 4.9872648 C 67.864711 4.4395478 68.00817 4.3743358 69.299249 4.3743358 L 69.602096 4.3743358 L 69.602096 3.7614078 L 64.358067 3.7614078 L 64.358067 4.3743358 L 64.644979 4.3743358 C 65.936053 4.3743358 66.079511 4.4395478 66.079511 4.9872648 L 66.079511 5.3654588 L 66.079511 11.572981 L 66.079511 11.951174 C 66.079511 12.498899 65.936053 12.564103 64.644979 12.564103 L 64.358067 12.564103 L 64.358067 13.177032 L 69.602096 13.177032 L 69.602096 12.564103 L 69.299249 12.564103 C 68.00817 12.564103 67.864711 12.498899 67.864711 11.951174 L 67.864711 11.572981 L 67.864711 9.9167759 L 69.713668 8.3909719 L 72.487106 11.716432 C 72.742131 12.029422 72.805888 12.133749 72.805888 12.264157 C 72.805888 12.472812 72.503046 12.564103 71.722018 12.564103 L 71.227897 12.564103 L 71.227897 13.177032 L 76.679131 13.177032 L 76.679131 12.564103 L 76.376291 12.564103 C 75.499631 12.564103 75.276481 12.472812 74.814233 11.91205 L 70.956931 7.3607329 L 73.331879 5.4176188 C 74.096966 4.7525298 75.069263 4.3743358 76.025631 4.3743358 L 76.025631 3.7614078 L 71.116325 3.7614078 L 71.116325 4.3743358 L 71.514809 4.3743358 C 72.24801 4.3743358 72.550862 4.4917078 72.550862 4.7655668 C 72.550862 4.9481418 72.232075 5.3263348 71.769834 5.7045218 L 67.864711 8.9126169 z M 50.044564 3.7614078 L 46.761075 3.7614078 L 46.761075 4.3743358 L 47.159554 4.3743358 C 47.972457 4.3743358 48.339066 4.4786638 48.625967 4.8046898 L 48.625967 10.34713 C 48.625967 12.133749 48.307185 12.511936 46.777015 12.564103 L 46.777015 13.177032 L 51.319745 13.177032 L 51.319745 12.564103 C 49.805479 12.511936 49.486686 12.133749 49.486686 10.34713 L 49.486686 5.5089098 L 56.595643 13.359607 L 57.265098 13.359607 L 57.265098 6.5913089 C 57.265098 4.8046898 57.583886 4.4265038 59.114055 4.3743358 L 59.114055 3.7614078 L 54.571358 3.7614078 L 54.571358 4.3743358 C 56.085587 4.4265038 56.404369 4.8046898 56.404369 6.5913089 L 56.404369 10.686192 L 50.044564 3.7614078 z M 39.684033 5.3654588 L 39.684033 4.9872648 C 39.684033 4.4395478 39.827492 4.3743358 41.102629 4.3743358 L 41.421416 4.3743358 L 41.421416 3.7614078 L 36.145517 3.7614078 L 36.145517 4.3743358 L 36.464305 4.3743358 C 37.755381 4.3743358 37.898839 4.4395478 37.898839 4.9872648 L 37.898839 5.3654588 L 37.898839 11.572981 L 37.898839 11.951174 C 37.898839 12.498899 37.755381 12.564103 36.464305 12.564103 L 36.145517 12.564103 L 36.145517 13.177032 L 41.421416 13.177032 L 41.421416 12.564103 L 41.102629 12.564103 C 39.827492 12.564103 39.684033 12.498899 39.684033 11.951174 L 39.684033 11.572981 L 39.684033 5.3654588 z "
     id="path93" />
  <a
     id="a580"
     xlink:href="http://www.inkscape.org/"
     xlink:title="The Inkscape Website"
     transform="matrix(0.445909,0.000000,0.000000,0.445909,253.3099,8.143973)"
     style="font-size:12;">
    <path
       style="font-size:28;font-weight:normal;fill:#ffffff;stroke-width:1pt;font-family:Helvetica;"
       d="M 395.786 568.572 L 395.786 570.7 C 394.61 568.964 393.182 568.152 391.306 568.152 C 387.582 568.152 385.062 571.4 385.062 576.16 C 385.062 578.568 385.706 580.528 386.91 581.928 C 388.002 583.16 389.57 583.888 391.11 583.888 C 392.958 583.888 394.246 583.104 395.562 581.256 L 395.562 582.012 C 395.562 584 395.31 585.204 394.722 586.016 C 394.106 586.884 392.902 587.388 391.474 587.388 C 390.41 587.388 389.458 587.108 388.814 586.604 C 388.282 586.184 388.058 585.792 387.918 584.924 L 385.538 584.924 C 385.79 587.696 387.946 589.348 391.39 589.348 C 393.574 589.348 395.45 588.648 396.402 587.472 C 397.522 586.128 397.942 584.28 397.942 580.836 L 397.942 568.572 L 395.786 568.572 z M 391.558 570.308 C 394.078 570.308 395.562 572.436 395.562 576.104 C 395.562 579.604 394.05 581.732 391.586 581.732 C 389.038 581.732 387.498 579.576 387.498 576.02 C 387.498 572.492 389.066 570.308 391.558 570.308 z M 376.858 568.572 L 376.858 583.244 L 379.21 583.244 L 379.21 575.628 C 379.21 573.528 379.742 572.156 380.862 571.344 C 381.59 570.812 382.29 570.644 383.914 570.616 L 383.914 568.236 C 383.522 568.18 383.326 568.152 383.018 568.152 C 381.506 568.152 380.358 569.048 379.014 571.232 L 379.014 568.572 L 376.858 568.572 z M 366.974 568.152 C 362.858 568.152 360.366 571.092 360.366 576.02 C 360.366 580.948 362.83 583.888 367.002 583.888 C 371.118 583.888 373.638 580.948 373.638 576.132 C 373.638 571.064 371.202 568.152 366.974 568.152 z M 367.002 570.308 C 369.634 570.308 371.202 572.464 371.202 576.104 C 371.202 579.548 369.578 581.732 367.002 581.732 C 364.398 581.732 362.802 579.576 362.802 576.02 C 362.802 572.492 364.398 570.308 367.002 570.308 z M 356.922 580.332 L 354.01 580.332 L 354.01 583.244 L 356.922 583.244 L 356.922 580.332 z M 350.37 576.692 C 350.37 574.452 350.202 573.108 349.782 572.016 C 348.83 569.608 346.59 568.152 343.846 568.152 C 339.758 568.152 337.126 571.288 337.126 576.104 C 337.126 580.92 339.674 583.888 343.79 583.888 C 347.15 583.888 349.474 581.984 350.062 578.792 L 347.71 578.792 C 347.066 580.724 345.75 581.732 343.874 581.732 C 342.39 581.732 341.13 581.06 340.346 579.828 C 339.786 578.988 339.59 578.148 339.562 576.692 L 350.37 576.692 z M 339.618 574.788 C 339.814 572.072 341.466 570.308 343.818 570.308 C 346.114 570.308 347.878 572.212 347.878 574.62 C 347.878 574.676 347.878 574.732 347.85 574.788 L 339.618 574.788 z M 321.95 589.348 L 324.302 589.348 L 324.302 581.704 C 325.534 583.216 326.906 583.888 328.81 583.888 C 332.59 583.888 335.082 580.836 335.082 576.16 C 335.082 571.232 332.674 568.152 328.782 568.152 C 326.794 568.152 325.198 569.048 324.106 570.784 L 324.106 568.572 L 321.95 568.572 L 321.95 589.348 z M 328.39 570.336 C 330.966 570.336 332.646 572.604 332.646 576.104 C 332.646 579.436 330.938 581.704 328.39 581.704 C 325.926 581.704 324.302 579.464 324.302 576.02 C 324.302 572.576 325.926 570.336 328.39 570.336 z M 319.85 581.872 C 319.598 581.928 319.486 581.928 319.346 581.928 C 318.534 581.928 318.086 581.508 318.086 580.78 L 318.086 572.156 C 318.086 569.552 316.182 568.152 312.57 568.152 C 310.442 568.152 308.678 568.768 307.698 569.86 C 307.026 570.616 306.746 571.456 306.69 572.912 L 309.042 572.912 C 309.238 571.12 310.302 570.308 312.486 570.308 C 314.586 570.308 315.762 571.092 315.762 572.492 L 315.762 573.108 C 315.762 574.088 315.174 574.508 313.326 574.732 C 310.022 575.152 309.518 575.264 308.622 575.628 C 306.914 576.328 306.046 577.644 306.046 579.548 C 306.046 582.208 307.894 583.888 310.862 583.888 C 312.71 583.888 314.194 583.244 315.846 581.732 C 316.014 583.216 316.742 583.888 318.254 583.888 C 318.73 583.888 319.094 583.832 319.85 583.636 L 319.85 581.872 z M 315.762 578.624 C 315.762 579.408 315.538 579.884 314.838 580.528 C 313.886 581.396 312.738 581.844 311.366 581.844 C 309.546 581.844 308.482 580.976 308.482 579.492 C 308.482 577.952 309.518 577.168 312.01 576.804 C 314.474 576.468 314.978 576.356 315.762 575.992 L 315.762 578.624 z M 304.058 573.5 C 303.946 572.072 303.638 571.148 303.078 570.336 C 302.07 568.964 300.306 568.152 298.262 568.152 C 294.314 568.152 291.738 571.288 291.738 576.16 C 291.738 580.892 294.258 583.888 298.234 583.888 C 301.734 583.888 303.946 581.788 304.226 578.204 L 301.874 578.204 C 301.482 580.556 300.278 581.732 298.29 581.732 C 295.714 581.732 294.174 579.632 294.174 576.16 C 294.174 572.492 295.686 570.308 298.234 570.308 C 300.194 570.308 301.426 571.456 301.706 573.5 L 304.058 573.5 z M 289.134 572.66 C 289.106 569.776 287.202 568.152 283.814 568.152 C 280.398 568.152 278.186 569.916 278.186 572.632 C 278.186 574.928 279.362 576.02 282.834 576.86 L 285.018 577.392 C 286.642 577.784 287.286 578.372 287.286 579.436 C 287.286 580.808 285.914 581.732 283.87 581.732 C 282.61 581.732 281.546 581.368 280.958 580.752 C 280.594 580.332 280.426 579.912 280.286 578.876 L 277.822 578.876 C 277.934 582.264 279.838 583.888 283.674 583.888 C 287.37 583.888 289.722 582.068 289.722 579.24 C 289.722 577.056 288.49 575.852 285.578 575.152 L 283.338 574.62 C 281.434 574.172 280.622 573.556 280.622 572.52 C 280.622 571.176 281.826 570.308 283.73 570.308 C 285.606 570.308 286.614 571.12 286.67 572.66 L 289.134 572.66 z M 266.818 562.832 L 264.494 562.832 L 264.494 583.244 L 266.818 583.244 L 266.818 577.532 L 269.086 575.292 L 274.042 583.244 L 276.926 583.244 L 270.934 573.64 L 276.03 568.572 L 273.034 568.572 L 266.818 574.788 L 266.818 562.832 z M 249.262 568.572 L 249.262 583.244 L 251.614 583.244 L 251.614 575.152 C 251.614 572.156 253.182 570.196 255.59 570.196 C 257.438 570.196 258.614 571.316 258.614 573.08 L 258.614 583.244 L 260.938 583.244 L 260.938 572.156 C 260.938 569.72 259.118 568.152 256.29 568.152 C 254.106 568.152 252.706 568.992 251.418 571.036 L 251.418 568.572 L 249.262 568.572 z M 245.286 568.572 L 242.962 568.572 L 242.962 583.244 L 245.286 583.244 L 245.286 568.572 z M 245.286 562.832 L 242.934 562.832 L 242.934 565.772 L 245.286 565.772 L 245.286 562.832 z M 238.65 580.332 L 235.738 580.332 L 235.738 583.244 L 238.65 583.244 L 238.65 580.332 z M 228.598 583.244 L 232.91 568.572 L 230.278 568.572 L 227.366 579.996 L 224.482 568.572 L 221.626 568.572 L 218.826 579.996 L 215.83 568.572 L 213.254 568.572 L 217.51 583.244 L 220.142 583.244 L 222.97 571.736 L 225.938 583.244 L 228.598 583.244 z M 208.382 583.244 L 212.694 568.572 L 210.062 568.572 L 207.15 579.996 L 204.266 568.572 L 201.41 568.572 L 198.61 579.996 L 195.614 568.572 L 193.038 568.572 L 197.294 583.244 L 199.926 583.244 L 202.754 571.736 L 205.722 583.244 L 208.382 583.244 z M 188.166 583.244 L 192.478 568.572 L 189.846 568.572 L 186.934 579.996 L 184.05 568.572 L 181.194 568.572 L 178.394 579.996 L 175.398 568.572 L 172.822 568.572 L 177.078 583.244 L 179.71 583.244 L 182.538 571.736 L 185.506 583.244 L 188.166 583.244 z M 171.282 562.832 L 164.646 583.804 L 166.186 583.804 L 172.822 562.832 L 171.282 562.832 z M 163.498 562.832 L 156.862 583.804 L 158.402 583.804 L 165.038 562.832 L 163.498 562.832 z M 155.294 580.332 L 152.382 580.332 L 152.382 583.244 L 155.294 583.244 L 155.294 580.332 z M 155.294 568.572 L 152.382 568.572 L 152.382 571.484 L 155.294 571.484 L 155.294 568.572 z M 135.246 589.348 L 137.598 589.348 L 137.598 581.704 C 138.83 583.216 140.202 583.888 142.106 583.888 C 145.886 583.888 148.378 580.836 148.378 576.16 C 148.378 571.232 145.97 568.152 142.078 568.152 C 140.09 568.152 138.494 569.048 137.402 570.784 L 137.402 568.572 L 135.246 568.572 L 135.246 589.348 z M 141.686 570.336 C 144.262 570.336 145.942 572.604 145.942 576.104 C 145.942 579.436 144.234 581.704 141.686 581.704 C 139.222 581.704 137.598 579.464 137.598 576.02 C 137.598 572.576 139.222 570.336 141.686 570.336 z M 133.062 568.572 L 130.654 568.572 L 130.654 564.54 L 128.33 564.54 L 128.33 568.572 L 126.342 568.572 L 126.342 570.476 L 128.33 570.476 L 128.33 581.564 C 128.33 583.048 129.338 583.888 131.158 583.888 C 131.718 583.888 132.278 583.832 133.062 583.692 L 133.062 581.732 C 132.754 581.816 132.39 581.844 131.942 581.844 C 130.934 581.844 130.654 581.564 130.654 580.528 L 130.654 570.476 L 133.062 570.476 L 133.062 568.572 z M 125.278 568.572 L 122.87 568.572 L 122.87 564.54 L 120.546 564.54 L 120.546 568.572 L 118.558 568.572 L 118.558 570.476 L 120.546 570.476 L 120.546 581.564 C 120.546 583.048 121.554 583.888 123.374 583.888 C 123.934 583.888 124.494 583.832 125.278 583.692 L 125.278 581.732 C 124.97 581.816 124.606 581.844 124.158 581.844 C 123.15 581.844 122.87 581.564 122.87 580.528 L 122.87 570.476 L 125.278 570.476 L 125.278 568.572 z M 104.558 562.832 L 104.558 583.244 L 106.882 583.244 L 106.882 575.152 C 106.882 572.156 108.45 570.196 110.858 570.196 C 111.614 570.196 112.37 570.448 112.93 570.868 C 113.602 571.344 113.882 572.044 113.882 573.08 L 113.882 583.244 L 116.206 583.244 L 116.206 572.156 C 116.206 569.692 114.442 568.152 111.586 568.152 C 109.514 568.152 108.254 568.796 106.882 570.588 L 106.882 562.832 L 104.558 562.832 z "
       id="path96" />
  </a>
  <text
     xml:space="preserve"
     style="fill:#000000;stroke:none;font-family:Times New Roman;font-style:normal;font-weight:normal;font-size:10;fill-opacity:1;stroke-opacity:1;stroke-width:3pt;stroke-linejoin:miter;stroke-linecap:butt;text-anchor:start;writing-mode:lr;"
     x="35.5341805"
     y="45.3922462"
     id="text653"
     sodipodi:linespacing="110%"><tspan
       x="35.5341797"
       y="45.3922462"
       sodipodi:role="line"
       id="tspan726"
       style="fill:#000000;fill-opacity:1;">Welcome to Inkscape! This small tutorial will demonstrate the </tspan><tspan
       sodipodi:role="line"
       id="tspan739"
       x="35.5341797"
       y="56.3922465">basics of using the program. This is a regular Inkscape document </tspan><tspan
       sodipodi:role="line"
       id="tspan741"
       x="35.5341797"
       y="67.3922467">that you can view, edit, or even save.</tspan></text>
  <text
     xml:space="preserve"
     style="fill:black;stroke:none;font-family:helvetica;font-style:normal;font-weight:normal;font-size:12px;fill-opacity:0.75;stroke-opacity:1;stroke-width:3pt;stroke-linejoin:miter;stroke-linecap:butt;"
     x="22.160673"
     y="411.301651"
     id="text664"><tspan
       id="tspan665">Drawing shapes</tspan><tspan
       sodipodi:role="line"
       id="tspan667"
       x="22.1606731"
       y="423.301636"></tspan><tspan
       sodipodi:role="line"
       id="tspan671"
       x="22.1606731"
       y="435.301636">On the left there are a set of tools, the Arrow tool,</tspan><tspan
       sodipodi:role="line"
       id="tspan673"
       x="22.1606731"
       y="447.301636">the Node tool, the Zoom tool and some shapes.</tspan><tspan
       sodipodi:role="line"
       id="tspan679"
       x="22.1606731"
       y="459.301636">Choose the star shaped tool.  By dragging in the</tspan><tspan
       sodipodi:role="line"
       id="tspan681"
       x="22.1606731"
       y="471.301636">space below you can create stars.</tspan></text>
  <text
     xml:space="preserve"
     style="fill:black;stroke:none;font-family:helvetica;font-style:normal;font-weight:normal;font-size:12px;fill-opacity:0.75;stroke-opacity:1;stroke-width:3pt;stroke-linejoin:miter;stroke-linecap:butt;"
     x="23.933527"
     y="617.839127"
     id="text683"><tspan
   id="tspan684">Now choose the Arrow tool.  You can move the</tspan><tspan
   sodipodi:role="line"
   id="tspan687"
   x="23.9335270"
   y="629.839111">star around by dragging it.  You can make the star</tspan><tspan
   sodipodi:role="line"
   id="tspan689"
   x="23.9335270"
   y="641.839111">bigger and smaller by dragging the little arrows</tspan><tspan
   sodipodi:role="line"
   id="tspan691"
   x="23.9335270"
   y="653.839111">around it.</tspan><tspan
   sodipodi:role="line"
   id="tspan693"
   x="23.9335270"
   y="665.839111"></tspan><tspan
   sodipodi:role="line"
   id="tspan695"
   x="23.9335270"
   y="677.839111">Click again on the star.  The arrows have changed.</tspan><tspan
   sodipodi:role="line"
   id="tspan697"
   x="23.9335270"
   y="689.839111">Now you can rotate and slant (shear) the star.</tspan><tspan
   sodipodi:role="line"
   id="tspan699"
   x="23.9335270"
   y="701.839111"></tspan><tspan
   sodipodi:role="line"
   id="tspan701"
   x="23.9335270"
   y="713.839111">Choose the Node tool, below the arrow.  Now you</tspan><tspan
   sodipodi:role="line"
   id="tspan703"
   x="23.9335270"
   y="725.839111">can</tspan>
 change the shape of the star.<tspan
   sodipodi:role="line"
   id="tspan824"
   x="23.9335270"
   y="737.839111"></tspan><tspan
   sodipodi:role="line"
   id="tspan826"
   x="23.9335270"
   y="749.839111">Try the other shapes, the rectangle, ellipse, star</tspan><tspan
   sodipodi:role="line"
   id="tspan828"
   x="23.9335270"
   y="761.839111">and spiral.  The node tool does special things to</tspan><tspan
   sodipodi:role="line"
   id="tspan830"
   x="23.9335270"
   y="773.839111">each of these shapes.</tspan></text>
  <text
     xml:space="preserve"
     style="fill:black;fill-opacity:1;stroke:none;font-family:Arial;font-style:normal;font-weight:bold;font-size:8;text-anchor:start;writing-mode:lr;stroke-opacity:1;stroke-width:3pt;stroke-linejoin:miter;stroke-linecap:butt;"
     x="7.05271816"
     y="90.2503765"
     id="text732"
     sodipodi:linespacing="100%"><tspan
       x="7.05271816"
       y="90.2503738"
       sodipodi:role="line"
       id="tspan737">Panning the canvas</tspan></text>
  <text
     xml:space="preserve"
     style="fill:black;fill-opacity:1;stroke:none;font-family:Times New Roman;font-style:normal;font-weight:normal;font-size:10;text-anchor:start;writing-mode:lr;stroke-opacity:1;stroke-width:3pt;stroke-linejoin:miter;stroke-linecap:butt;"
     x="5.58321571"
     y="106.342654"
     id="text743"
     sodipodi:linespacing="110%"><tspan
       x="5.58321571"
       y="106.342651"
       sodipodi:role="line"
       id="tspan752">There are many ways to pan the document canvas. Try Ctrl+arrow keys </tspan><tspan
       x="5.58321571"
       y="117.342652"
       sodipodi:role="line"
       id="tspan754">to scroll by keyboard. You can also drag the canvas by the middle mouse</tspan><tspan
       x="5.58321571"
       y="128.342652"
       sodipodi:role="line"
       id="tspan756">button. Or you can press Ctrl+B to display the scrollbars and use them. </tspan><tspan
       sodipodi:role="line"
       id="tspan758"
       x="5.58321571"
       y="139.342652">Scroll wheel on your mouse also works for scrolling vertically; press Shift</tspan><tspan
       sodipodi:role="line"
       id="tspan760"
       x="5.58321571"
       y="150.342652">with the wheel to scroll horizontally.</tspan></text>
  <text
     xml:space="preserve"
     style="fill:black;fill-opacity:1;stroke:none;font-family:Arial;font-style:normal;font-weight:bold;font-size:8;text-anchor:start;writing-mode:lr;stroke-opacity:1;stroke-width:3pt;stroke-linejoin:miter;stroke-linecap:butt;"
     x="7.05271816"
     y="168.203128"
     id="text762"
     sodipodi:linespacing="100%"><tspan
       x="7.05271816"
       y="168.203125"
       sodipodi:role="line"
       id="tspan763">Zooming in or out</tspan></text>
  <text
     xml:space="preserve"
     style="fill:black;fill-opacity:1;stroke:none;font-family:Times New Roman;font-style:normal;font-weight:normal;font-size:10;text-anchor:start;writing-mode:lr;stroke-opacity:1;stroke-width:3pt;stroke-linejoin:miter;stroke-linecap:butt;"
     x="5.58321571"
     y="184.295413"
     id="text765"
     sodipodi:linespacing="110%"><tspan
       x="5.58321571"
       y="184.295410"
       sodipodi:role="line"
       id="tspan766">The easiest way to zoom is by pressing - and + (or =) keys. You can also </tspan><tspan
       sodipodi:role="line"
       id="tspan776"
       x="5.58321571"
       y="195.295410">click the middle mouse button or rotate the wheel with Ctrl. Or you can </tspan><tspan
       sodipodi:role="line"
       id="tspan778"
       x="5.58321571"
       y="206.295411">click in the zoom entry field (in the bottom left corner of the document </tspan><tspan
       sodipodi:role="line"
       id="tspan780"
       x="5.58321571"
       y="217.295411">window) and set a precise zoom value. Finally, we also have the Zoom tool</tspan><tspan
       sodipodi:role="line"
       id="tspan782"
       x="5.58321571"
       y="228.295411">(in the toolbar on left) which allows you to zoom in by dragging around an</tspan><tspan
       sodipodi:role="line"
       id="tspan784"
       x="5.58321571"
       y="239.295411">area.</tspan></text>
</svg>
