<?xml version="1.0" encoding="UTF-8" standalone="no"?>
<svg
   xmlns:dc="http://purl.org/dc/elements/1.1/"
   xmlns:cc="http://web.resource.org/cc/"
   xmlns:rdf="http://www.w3.org/1999/02/22-rdf-syntax-ns#"
   xmlns:svg="http://www.w3.org/2000/svg"
   xmlns="http://www.w3.org/2000/svg"
   xmlns:xlink="http://www.w3.org/1999/xlink"
   xmlns:sodipodi="http://inkscape.sourceforge.net/DTD/sodipodi-0.dtd"
   xmlns:inkscape="http://www.inkscape.org/namespaces/inkscape"
   id="svg1"
   width="16.03125"
   height="16.005392"
  >
  <sodipodi:namedview
     id="base"
     showgrid="true"
     gridspacingy="1pt"
     gridspacingx="1pt"
     gridoriginy="0pt"
     gridoriginx="0pt"
  />
  <defs id="defs3">

    <linearGradient gradientTransform="matrix(1.006993,0,0,1,-1.456289,0.0155694)" gradientUnits="userSpaceOnUse" id="linearGradient6160" inkscape:collect="always" x1="206.4689" x2="223.9659" xlink:href="#linearGradient5704" y1="15.97338" y2="1.491036"/>
    <linearGradient id="linearGradient5704">
      <stop id="stop5706" offset="0" style="stop-color:#5a5a5a;stop-opacity:1"/>
      <stop id="stop5708" offset="1" style="stop-color:#000000;stop-opacity:1"/>
    </linearGradient>
  </defs>
<g id="swatches">
 <rect transform="rotate(90)" height="4" id="rect6024" style="color:#000000;opacity:1;fill:#ffbf00;fill-rule:evenodd" width="4" x="5.9965038" y="-5.0312438"/>
    <rect transform="rotate(90)" height="4" id="rect6029" style="color:#000000;opacity:1;fill:#ff69bc;fill-rule:evenodd" width="4" x="5.9965038" y="-10.031244"/>
    <rect transform="rotate(90)" height="4" id="rect6033" style="color:#000000;opacity:1;fill:#ffffff;fill-rule:evenodd" width="4" x="0.99650401" y="-10.031244"/>
    <rect transform="rotate(90)" height="4" id="rect6035" style="color:#000000;opacity:1;fill:#c8c8c8;fill-rule:evenodd" width="3" x="10.996504" y="-5.0312438"/>
    <rect transform="rotate(90)" height="4" id="rect6037" style="color:#000000;opacity:1;fill:#f0fa00;fill-rule:evenodd" width="4" x="5.9965038" y="-15.031244"/>
    <path d="m 10.031244,10.996504 v 4 l -4,-1 0,-3 z" id="rect6045" inkscape:connector-curvature="0" sodipodi:nodetypes="ccccc" style="color:#000000;opacity:1;fill:#a4602b;fill-rule:evenodd"/>
    <rect transform="rotate(90)" height="4" id="rect6048" style="color:#000000;opacity:1;fill:#00c626;fill-rule:evenodd" width="4" x="10.996504" y="-15.031244"/>
    <rect transform="rotate(90)" height="4" id="rect6050" style="color:#000000;opacity:1;fill:#8ab3de;fill-rule:evenodd" width="4" x="0.99650401" y="-5.0312438"/>
    <rect transform="rotate(90)" height="4" id="rect6009" style="color:#000000;opacity:1;fill:#ff0000;fill-rule:evenodd" width="4" x="0.99650401" y="-15.031244"/>
    <path d="M 15.531244,0.500004 H 0.499994 v 13.6573 c 1.44916,-0.5174 4.30109,-1.1304 7.03125,0.4406 3.5,2.014 8,0 8,0 z m 0,5.035 h -15 m 15,5.0349 h -15 m 5,-10.0699 0,13.0909 m 5,1.5105 0,-14.6014" id="rect6103" inkscape:connector-curvature="0" sodipodi:nodetypes="cccscccccccccc" style="color:#000000;opacity:1;fill:none;stroke:url(#linearGradient6160);stroke-width:0.99999988;stroke-linecap:round;stroke-linejoin:round"/>
    <path d="m 1.500044,4.500004 v -3 h 3" id="path6163" inkscape:connector-curvature="0" style="opacity:1;fill:none;stroke:#bad2ec;stroke-width:1px"/>
    <path d="m 11.500044,4.500004 v -3 h 3" id="path6165" inkscape:connector-curvature="0" style="opacity:1;fill:none;stroke:#ff6565;stroke-width:1px"/>
    <path d="m 6.500044,9.500004 v -3 h 3" id="path6168" inkscape:connector-curvature="0" style="opacity:1;fill:none;stroke:#ffb5e0;stroke-width:1px"/>
    <path d="m 1.500044,9.500004 v -3 h 3" id="path6170" inkscape:connector-curvature="0" style="opacity:1;fill:none;stroke:#ffe185;stroke-width:1px"/>
    <path d="m 11.500044,9.500004 v -3 h 3" id="path6172" inkscape:connector-curvature="0" style="opacity:1;fill:none;stroke:#feffcd;stroke-width:1px"/>
    <path d="m 11.500044,14.500004 v -3 h 3" id="path6174" inkscape:connector-curvature="0" style="opacity:1;fill:none;stroke:#5cff7c;stroke-width:1px"/>
    <path d="m 6.500044,13.000004 0,-1.5 h 3" id="path6176" inkscape:connector-curvature="0" sodipodi:nodetypes="ccc" style="opacity:1;fill:none;stroke:#d28b51;stroke-width:1px"/>
    <path d="m 1.500044,13.000004 v -1.5 h 3" id="path6178" inkscape:connector-curvature="0" sodipodi:nodetypes="ccc" style="opacity:1;fill:none;stroke:#ffffff;stroke-width:1px"/>
</g>

</svg>
