<?xml version="1.0" encoding="UTF-8" standalone="no"?>
<!DOCTYPE svg PUBLIC "-//W3C//DTD SVG 20010904//EN"
"http://www.w3.org/TR/2001/REC-SVG-20010904/DTD/svg10.dtd">
<!-- Created with Inkscape ("http://www.inkscape.org/") -->
<svg
   version="1.0"
   x="0"
   y="0"
   width="744.094482"
   height="1052.36218"
   id="svg559"
   sodipodi:version="0.32"
   inkscape:version="0.36cvs"
   sodipodi:docname="/home/kidproto/Documents/projects/experiments/inkscape/keyboardKey.svg"
   sodipodi:docbase="/home/kidproto/Documents/projects/experiments/inkscape/"
   xmlns="http://www.w3.org/2000/svg"
   xmlns:inkscape="http://www.inkscape.org/namespaces/inkscape"
   xmlns:sodipodi="http://sodipodi.sourceforge.net/DTD/sodipodi-0.dtd"
   xmlns:xlink="http://www.w3.org/1999/xlink">
  <sodipodi:namedview
     id="base" />
  <defs
     id="defs561">
    <linearGradient
       id="linearGradient565">
      <stop
         style="stop-color:#666666;stop-opacity:1;"
         offset="0.000000"
         id="stop566" />
      <stop
         style="stop-color:#cccccc;stop-opacity:1;"
         offset="1.000000"
         id="stop567" />
    </linearGradient>
    <radialGradient
       cx="0.471534"
       cy="0.492188"
       r="1.016146"
       fx="0.471534"
       fy="0.492188"
       id="radialGradient568"
       xlink:href="#linearGradient565"
       spreadMethod="repeat" />
    <linearGradient
       x1="-0.085270"
       y1="0.992537"
       x2="0.720930"
       y2="-0.037313"
       id="linearGradient569"
       xlink:href="#linearGradient565"
       spreadMethod="pad" />
    <linearGradient
       x1="-0.007753"
       y1="0.992537"
       x2="-0.046512"
       y2="-0.000000"
       id="linearGradient580"
       xlink:href="#linearGradient565"
       spreadMethod="pad" />
    <linearGradient
       xlink:href="#linearGradient565"
       id="linearGradient576" />
  </defs>
  <rect
     width="135.602966"
     height="143.063263"
     ry="21.1316681"
     x="417.910950"
     y="93.267014"
     style="font-size:12;fill:url(#linearGradient580);fill-rule:evenodd;stroke:#4c4c4c;stroke-width:1.25;"
     id="rect563" />
  <rect
     width="109.757515"
     height="108.719765"
     ry="18.6735764"
     x="430.833679"
     y="101.900406"
     style="font-size:12;fill:url(#linearGradient569);fill-rule:evenodd;stroke:url(#linearGradient576);stroke-width:1.0;stroke-dasharray:none;"
     id="rect579" />
  <text
     x="163.583278"
     y="64.2006219"
     transform="scale(2.818484,2.818484)"
     style="font-size:24;font-weight:bold;stroke-width:1pt;font-family:Nimbus Sans L;"
     id="text570">
    <tspan
       x="163.583278"
       y="64.2006219"
       id="tspan573">
A</tspan>
  </text>
  <path
     style="font-size:12;fill:url(#linearGradient580);fill-rule:evenodd;stroke:#4c4c4c;stroke-width:1.25;"
     d="M 105.373 93.2675 C 93.666 93.2675 84.242 102.692 84.242 114.399 L 84.242 215.199 C 84.242 226.906 93.666 236.331 105.373 236.331 L 288.375 236.331 C 300.082 236.331 309.507 226.906 309.507 215.199 L 309.507 114.399 C 309.507 102.692 300.082 93.2675 288.375 93.2675 L 105.373 93.2675 z "
     id="path586" />
  <path
     style="font-size:12;fill:url(#linearGradient569);fill-rule:evenodd;stroke:url(#linearGradient576);stroke-width:0.9;stroke-dasharray:none;"
     d="M 116.919 101.901 C 106.574 101.901 98.245 110.229 98.245 120.575 L 98.245 191.947 C 98.245 202.292 106.574 210.621 116.919 210.621 L 276.829 210.621 C 287.175 210.621 295.503 202.292 295.503 191.947 L 295.503 120.575 C 295.503 110.229 287.175 101.901 276.829 101.901 L 116.919 101.901 z "
     id="path585" />
  <text
     x="43.1872545"
     y="64.2006753"
     transform="scale(2.818484,2.818484)"
     style="font-size:24;font-weight:bold;stroke-width:1pt;font-family:Nimbus Sans L;"
     id="text582">
    <tspan
       x="43.1872545"
       y="64.2006753"
       id="tspan583">
Shift</tspan>
  </text>
  <text
     x="74.9629447"
     y="42.8248652"
     transform="scale(4.415010,4.415009)"
     style="font-size:24;font-weight:bold;stroke-width:1pt;font-family:Nimbus Sans L;"
     id="text587">
    <tspan
       x="74.9629447"
       y="42.8248652"
       id="tspan588">
+</tspan>
  </text>
  <rect
     width="135.602966"
     height="143.063263"
     ry="21.1316681"
     x="388.013428"
     y="317.527893"
     style="font-size:12;fill:url(#linearGradient580);fill-rule:evenodd;stroke:#4c4c4c;stroke-width:1.25;"
     id="rect593" />
  <rect
     width="109.757515"
     height="108.719765"
     ry="18.6735764"
     x="400.936157"
     y="326.161255"
     style="font-size:12;fill:url(#linearGradient569);fill-rule:evenodd;stroke:url(#linearGradient576);stroke-width:1.0;"
     id="rect594" />
  <text
     x="155.218972"
     y="134.011332"
     transform="scale(2.818484,2.818484)"
     style="font-size:24;font-weight:bold;stroke-width:1pt;font-family:Nimbus Sans L;"
     id="text595">
    <tspan
       x="155.218972"
       y="134.011332"
       id="tspan596">
~</tspan>
  </text>
  <path
     style="font-size:12;fill:url(#linearGradient580);fill-rule:evenodd;stroke:#4c4c4c;stroke-width:1.25;"
     d="M 108.854 317.528 C 97.1465 317.528 87.7225 326.952 87.7225 338.659 L 87.7225 439.459 C 87.7225 451.166 97.1465 460.591 108.854 460.591 L 261.856 460.591 C 273.563 460.591 282.988 451.166 282.988 439.459 L 282.988 338.659 C 282.988 326.952 273.563 317.528 261.856 317.528 L 108.854 317.528 z "
     id="path598" />
  <path
     style="font-size:12;fill:url(#linearGradient569);fill-rule:evenodd;stroke:url(#linearGradient576);stroke-width1.0;"
     d="M 120.4 326.161 C 110.055 326.161 101.726 334.489 101.726 344.835 L 101.726 416.207 C 101.726 426.552 110.055 434.881 120.4 434.881 L 250.31 434.881 C 260.656 434.881 268.984 426.552 268.984 416.207 L 268.984 344.835 C 268.984 334.489 260.656 326.161 250.31 326.161 L 120.4 326.161 z "
     id="path599" />
  <text
     x="44.4221080"
     y="143.768534"
     transform="scale(2.818484,2.818484)"
     style="font-size:24;font-weight:bold;stroke-width:1pt;font-family:Nimbus Sans L;"
     id="text600">
    <tspan
       x="44.4221080"
       y="143.768534"
       id="tspan601">
Ctrl</tspan>
  </text>
  <text
     x="69.0571701"
     y="93.6199752"
     transform="scale(4.415010,4.415009)"
     style="font-size:24;font-weight:bold;stroke-width:1pt;font-family:Nimbus Sans L;"
     id="text603">
    <tspan
       x="69.0571701"
       y="93.6199752"
       id="tspan604">
+</tspan>
  </text>
  <text
     x="74.9629447"
     y="42.8248652"
     transform="scale(4.415010,4.415009)"
     style="font-size:24;font-weight:bold;stroke-width:1pt;font-family:Nimbus Sans L;"
     id="text616">
    <tspan
       x="74.9629447"
       y="42.8248652"
       id="tspan617">
+</tspan>
  </text>
  <rect
     width="135.602966"
     height="143.063263"
     ry="21.1316681"
     x="413.973935"
     y="533.078949"
     style="font-size:12;fill:url(#linearGradient580);fill-rule:evenodd;stroke:#4c4c4c;stroke-width:1.25;"
     id="rect632" />
  <rect
     width="109.757515"
     height="108.719765"
     ry="18.6735764"
     x="426.896665"
     y="541.712311"
     style="font-size:12;fill:url(#linearGradient569);fill-rule:evenodd;stroke:url(#linearGradient576);stroke-width:1.0;"
     id="rect633" />
  <text
     x="162.186518"
     y="220.246198"
     transform="scale(2.818484,2.818484)"
     style="font-size:24;font-weight:bold;stroke-width:1pt;font-family:Nimbus Sans L;"
     id="text634">
    <tspan
       x="162.186518"
       y="220.246198"
       id="tspan635">
A</tspan>
  </text>
  <text
     x="74.5906198"
     y="142.442318"
     transform="scale(4.415010,4.415009)"
     style="font-size:24;font-weight:bold;stroke-width:1pt;font-family:Nimbus Sans L;"
     id="text642">
    <tspan
       x="74.5906198"
       y="142.442318"
       id="tspan643">
+</tspan>
  </text>
  <path
     style="font-size:12;fill:url(#linearGradient580);fill-rule:evenodd;stroke:#4c4c4c;stroke-width:1.25;"
     d="M 105.373 533.079 C 93.666 533.079 84.242 542.504 84.242 554.211 L 84.242 655.011 C 84.242 666.718 93.666 676.143 105.373 676.143 L 288.375 676.143 C 300.082 676.143 309.507 666.718 309.507 655.011 L 309.507 554.211 C 309.507 542.504 300.082 533.079 288.375 533.079 L 105.373 533.079 z "
     id="path650" />
  <path
     style="font-size:12;fill:url(#linearGradient569);fill-rule:evenodd;stroke:url(#linearGradient576);stroke-width:1.0;"
     d="M 116.919 541.713 C 106.574 541.713 98.245 550.041 98.245 560.387 L 98.245 631.759 C 98.245 642.104 106.574 650.433 116.919 650.433 L 276.829 650.433 C 287.175 650.433 295.503 642.104 295.503 631.759 L 295.503 560.387 C 295.503 550.041 287.175 541.713 276.829 541.713 L 116.919 541.713 z "
     id="path651" />
  <text
     x="43.1872576"
     y="220.246254"
     transform="scale(2.818484,2.818484)"
     style="font-size:24;font-weight:bold;stroke-width:1pt;font-family:Nimbus Sans L;"
     id="text652">
    <tspan
       x="43.1872576"
       y="220.246254"
       id="tspan653">
Alt</tspan>
  </text>
</svg>
