<?xml version="1.0" encoding="UTF-8" standalone="no"?>
<!DOCTYPE svg PUBLIC "-//W3C//DTD SVG 20010904//EN"
"http://www.w3.org/TR/2001/REC-SVG-20010904/DTD/svg10.dtd">
<svg
   id="svg1"
   sodipodi:version="0.32"
   width="210mm"
   height="297mm"
   sodipodi:docname="markers.svg"
   inkscape:version="0.38cvs-20040210"
   xmlns="http://www.w3.org/2000/svg"
   xmlns:inkscape="http://www.inkscape.org/namespaces/inkscape"
   xmlns:sodipodi="http://sodipodi.sourceforge.net/DTD/sodipodi-0.dtd"
   xmlns:xlink="http://www.w3.org/1999/xlink"
   sodipodi:docbase="C:\tmp\svg\src_inkscape\markers\inkscape\inkscape\share\markers">
  <defs
     id="defs3">
    <marker
       id="Template"
       refX="0.00000000"
       refY="0.00000000"
       orient="auto">
      <path
         style="fill-rule:evenodd;stroke:#000000;stroke-width:1.0000000pt;marker-start:none;"
         d="M 0.00000000,0.00000000 L 5.0000000,-5.0000000 L -12.500000,0.00000000 L 5.0000000,5.0000000 L 0.00000000,0.00000000 z "
         id="path828"
         sodipodi:nodetypes="ccccc" />
    </marker>
    <marker
       id="mArrow"
       markerWidth="12.5"
       markerHeight="12.5"
       refX="6.25"
       refY="6.25"
       orient="auto">
      <path
         id="path907"
         d="M 0.0068092 6.28628 L 12.4563 12.5487 C 8.66061 8.58881 8.89012 4.05564 12.2688 0.0725591 L 0.0068092 6.28628 z" />
    </marker>
    <marker
       id="INK_mArrow1"
       markerWidth="12.500000"
       markerHeight="12.500000"
       refX="6.2500000"
       refY="6.2500000"
       orient="auto">
      <path
         d="M 0.0068092000,6.2862800 L 12.456300,12.548700 C 8.6606100,8.5888100 8.8901200,4.0556400 12.268800,0.072559100 L 0.0068092000,6.2862800 z "
         style="font-size:12.000000;fill:#0000ff;fill-rule:evenodd;stroke:#000000;stroke-width:0.62500000;stroke-linejoin:round;"
         id="arrowMarkerPath"
         sodipodi:nodetypes="cccc" />
    </marker>
    <marker
       id="INK_mArrow2"
       markerWidth="12.500000"
       markerHeight="12.500000"
       refX="6.2500000"
       refY="6.2500000"
       orient="auto">
      <path
         d="M 0.0068092000,6.2862800 L 12.456300,12.548700 C 8.6606100,8.5888100 8.8901200,4.0556400 12.268800,0.072559100 L 0.0068092000,6.2862800 z "
         style="font-size:12.000000;fill-rule:evenodd;stroke-width:0.62500000;stroke-linejoin:round;"
         id="arrowMarkerPath2"
         sodipodi:nodetypes="cccc" />
    </marker>
    <marker
       id="INK_mArrow3"
       markerWidth="8.0000000"
       markerHeight="10.000000"
       refX="0.00000000"
       refY="0.00000000"
       orient="auto">
      <path
         d="M 10.000000,4.0000000 C 10.000000,4.0000000 0.00000000,0.00000000 0.00000000,0.00000000 C 0.00000000,0.00000000 10.000000,-4.0000000 10.000000,-4.0000000"
         style="fill:none;fill-rule:evenodd;stroke:#000000;stroke-width:1.0000000pt;"
         id="path1057"
         sodipodi:nodetypes="cs" />
    </marker>
    <marker
       id="INK_mArrow4"
       markerWidth="10.000000"
       markerHeight="10.000000"
       refX="0.00000000"
       refY="0.00000000"
       orient="auto">
      <circle
         cx="5.0000000"
         cy="5.0000000"
         r="4.0000000"
         style="fill:none;stroke:#000000;"
         id="circleMarkerPath" />
    </marker>
    <marker
       id="INK_mArrow5"
       markerWidth="20.000000"
       markerHeight="20.000000"
       refX="0.00000000"
       refY="0.00000000"
       orient="auto">
      <polygon
         points="2.7015115,4.2073549 -1.2484405,2.7278923 -2.2929205,4.4432551 -2.9866443,0.28276494 -4.9944320,0.23590015 -1.7382038,-2.4451273 -2.7015115,-4.2073549 1.2484405,-2.7278923 2.2929205,-4.4432551 2.9866443,-0.28276494 4.9944320,-0.23590015 1.7382038,2.4451273 2.7015115,4.2073549 "
         sodipodi:arg1="1"
         sodipodi:arg2="2"
         sodipodi:cx="0"
         sodipodi:cy="0"
         sodipodi:r1="5"
         sodipodi:r2="3"
         sodipodi:sides="6"
         sodipodi:type="star"
         style="fill:none;stroke:#000000;stroke-width:1.0000000pt;"
         id="starMarkerPath" />
    </marker>
    <marker
       id="INK_mArrow6"
       refX="0.00000000"
       refY="0.00000000"
       orient="auto">
      <path
         style="fill-rule:evenodd;stroke:#000000;stroke-width:1.0000000pt;marker-start:none;"
         d="M 0.00000000,0.00000000 L 5.0000000,-5.0000000 L -12.500000,0.00000000 L 5.0000000,5.0000000 L 0.00000000,0.00000000 z "
         id="path983"
         sodipodi:nodetypes="ccccc" />
    </marker>
    <marker
       id="INK_mArrow7"
       refX="0.00000000"
       refY="0.00000000"
       orient="auto">
      <path
         style="fill:#000000;fill-opacity:1.0000000;fill-rule:evenodd;stroke:#000000;stroke-width:1.0000000pt;"
         d="M 0.00000000,2.6847391e-005 L 5.0000000,-9.3986498 L -12.500000,2.6847391e-005 L 5.0000000,9.3987035 L 0.00000000,2.6847391e-005 z "
         id="path830" />
    </marker>
    <marker
       id="INK_mArrowTail3"
       refX="0.00000000"
       refY="0.00000000"
       orient="auto">
      <g
         id="g1087">
        <path
           d="M -2.9265417,4.0000000 C -2.9265417,4.0000000 7.0734583,0.00000000 7.0734583,0.00000000 C 7.0734583,0.00000000 -2.9265417,-4.0000000 -2.9265417,-4.0000000"
           style="fill:none;fill-rule:evenodd;stroke:#000000;stroke-width:1.0000000pt;marker-start:none;"
           id="path1059"
           sodipodi:nodetypes="cs" />
        <path
           d="M 3.5627464,4.0000000 C 3.5627464,4.0000000 13.562746,0.00000000 13.562746,0.00000000 C 13.562746,0.00000000 3.5627464,-4.0000000 3.5627464,-4.0000000"
           style="fill:none;fill-rule:evenodd;stroke:#000000;stroke-width:1.0000000pt;marker-start:none;"
           id="path8"
           sodipodi:nodetypes="cs" />
        <path
           d="M -9.9247935,4.0000000 C -9.9247935,4.0000000 0.075206511,0.00000000 0.075206511,0.00000000 C 0.075206511,0.00000000 -9.9247935,-4.0000000 -9.9247935,-4.0000000"
           style="fill:none;fill-rule:evenodd;stroke:#000000;stroke-width:1.0000000pt;marker-start:none;"
           id="path1060"
           sodipodi:nodetypes="cs" />
      </g>
    </marker>
    <marker
       id="INK_mCurveIn"
       refX="0.00000000"
       refY="0.00000000"
       orient="auto">
      <path
         style="fill-rule:evenodd;stroke:#000000;stroke-width:1.0000000pt;marker-start:none;marker-end:none;fill:none;"
         d="M 4.6254930,-5.0456926 C 1.8654930,-5.0456926 -0.37450702,-2.8056926 -0.37450702,-0.045692580 C -0.37450702,2.7143074 1.8654930,4.9543074 4.6254930,4.9543074"
         id="path942"
         sodipodi:nodetypes="ccc" />
    </marker>
    <marker
       id="INK_mCurveOut"
       refX="0.00000000"
       refY="0.00000000"
       orient="auto">
      <path
         style="fill:none;fill-rule:evenodd;stroke:#000000;stroke-width:1.0000000pt;marker-start:none;marker-end:none;"
         d="M -5.4129913,-5.0456926 C -2.6529913,-5.0456926 -0.41299131,-2.8056926 -0.41299131,-0.045692580 C -0.41299131,2.7143074 -2.6529913,4.9543074 -5.4129913,4.9543074"
         id="path945"
         sodipodi:nodetypes="ccc" />
    </marker>
    <marker
       id="INK_mCurvyCross"
       refX="0.00000000"
       refY="0.00000000"
       orient="auto">
      <g
         id="g948">
        <path
           style="fill:none;fill-rule:evenodd;stroke:#000000;stroke-width:1.0000000pt;marker-start:none;marker-end:none;"
           d="M 4.6254930,-5.0456926 C 1.8654930,-5.0456926 -0.37450702,-2.8056926 -0.37450702,-0.045692580 C -0.37450702,2.7143074 1.8654930,4.9543074 4.6254930,4.9543074"
           id="path946"
           sodipodi:nodetypes="ccc" />
        <path
           style="fill:none;fill-rule:evenodd;stroke:#000000;stroke-width:1.0000000pt;marker-start:none;marker-end:none;"
           d="M -5.4129913,-5.0456926 C -2.6529913,-5.0456926 -0.41299131,-2.8056926 -0.41299131,-0.045692580 C -0.41299131,2.7143074 -2.6529913,4.9543074 -5.4129913,4.9543074"
           id="path947"
           sodipodi:nodetypes="ccc" />
      </g>
    </marker>
    <marker
       id="INK_mDiamond"
       refX="0.00000000"
       refY="0.00000000"
       orient="auto">
      <path
         style="fill-rule:evenodd;stroke:#000000;stroke-width:1.0000000pt;marker-start:none;"
         d="M -2.1579186e-005,-7.0710768 L -7.0710894,-8.9383918e-006 L -2.1579186e-005,7.0710589 L 7.0710462,-8.9383918e-006 L -2.1579186e-005,-7.0710768 z "
         id="path840" />
    </marker>
    <marker
       id="INK_mDot"
       refX="0.00000000"
       refY="0.00000000"
       orient="auto">
      <path
         transform="translate(7.125493,0.763446)"
         style="fill-rule:evenodd;stroke:#000000;stroke-width:1.0000000pt;marker-start:none;marker-end:none;"
         d="M -2.5000000,-1.0000000 C -2.5000000,1.7600000 -4.7400000,4.0000000 -7.5000000,4.0000000 C -10.260000,4.0000000 -12.500000,1.7600000 -12.500000,-1.0000000 C -12.500000,-3.7600000 -10.260000,-6.0000000 -7.5000000,-6.0000000 C -4.7400000,-6.0000000 -2.5000000,-3.7600000 -2.5000000,-1.0000000 z "
         id="path933" />
    </marker>
    <marker
       id="INK_mSquare"
       refX="0.00000000"
       refY="0.00000000"
       orient="auto">
      <path
         style="fill-rule:evenodd;stroke:#000000;stroke-width:1.0000000pt;marker-start:none;"
         d="M -5.0000000,-5.0000000 L -5.0000000,5.0000000 L 5.0000000,5.0000000 L 5.0000000,-5.0000000 L -5.0000000,-5.0000000 z "
         id="path948"
         sodipodi:nodetypes="ccccc" />
    </marker>
    <marker
       id="INK_mStop"
       refX="0.00000000"
       refY="0.00000000"
       orient="auto">
      <path
         style="fill:none;fill-opacity:0.75000000;fill-rule:evenodd;stroke:#000000;stroke-width:2.0000000pt;"
         d="M 0.00000000,5.0000000 L 0.00000000,-5.0000000"
         id="path934" />
    </marker>
    <marker
       id="INK_mSemiCircle2"
       refX="0.00000000"
       refY="0.00000000"
       orient="auto">
      <path
         style="fill-rule:evenodd;stroke:#000000;stroke-width:1.0000000pt;marker-start:none;marker-end:none;"
         d="M -0.37450702,-0.045692580 C -0.37450702,2.7143074 1.8654930,4.9543074 4.6254930,4.9543074 L 4.6254930,-5.0456926 C 1.8654930,-5.0456926 -0.37450702,-2.8056926 -0.37450702,-0.045692580 z "
         id="path941"
         sodipodi:nodetypes="cccc" />
    </marker>
    <marker
       id="INK_mSemiCircle1"
       refX="0.00000000"
       refY="0.00000000"
       orient="auto">
      <path
         transform="translate(7.125493,0.763446)"
         style="fill-rule:evenodd;stroke:#000000;stroke-width:1.0000000pt;marker-start:none;marker-end:none;"
         d="M -2.5000000,-0.80913858 C -2.5000000,1.9508614 -4.7400000,4.1908614 -7.5000000,4.1908614 L -7.5000000,-5.8091386 C -4.7400000,-5.8091386 -2.5000000,-3.5691386 -2.5000000,-0.80913858 z "
         id="path953"
         sodipodi:nodetypes="cccc" />
    </marker>
    <marker
       id="INK_mTria"
       refX="0.00000000"
       refY="0.00000000"
       orient="auto">
      <path
         style="fill-rule:evenodd;stroke:#000000;stroke-width:1.0000000pt;marker-start:none;"
         d="M 2.5000000,0.00000000 L -5.0000000,5.0000000 L -5.0000000,-5.0000000 L 2.5000000,0.00000000 z "
         id="path1051"
         sodipodi:nodetypes="cccc" />
    </marker>
    <marker
       id="mTriangle"
       markerWidth="12.5"
       markerHeight="12.5"
       refX="6.25"
       refY="6.25"
       orient="auto">
      <path
         id="path904"
         d="M 0.0068092 6.28628 L 12.4563 12.5487 L 12.2688 0.0725591 L 0.0068092 6.28628 z" />
    </marker>
    <marker
       id="INK_mDistance1a"
       refX="0.00000000"
       refY="0.00000000"
       orient="auto">
      <g
         id="g990"
         transform="matrix(1.000000,0.000000,0.000000,-1.000000,0.000000,-5.342547e-3)">
        <path
           style="fill-rule:evenodd;stroke:#000000;stroke-width:1.0000000pt;marker-start:none;"
           d="M 0.00000000,0.00000000 L 5.0000000,-5.0000000 L -12.500000,0.00000000 L 5.0000000,5.0000000 L 0.00000000,0.00000000 z "
           id="path991"
           sodipodi:nodetypes="ccccc" />
        <path
           style="fill:none;fill-opacity:0.75000000;fill-rule:evenodd;stroke:#000000;stroke-width:1.0000000pt;marker-start:none;"
           d="M -14.759949,-9.0817535 L -14.759949,23.237446"
           id="path992" />
      </g>
    </marker>
    <marker
       id="INK_mDistance1b"
       refX="0.00000000"
       refY="0.00000000"
       orient="auto">
      <g
         id="g987">
        <path
           style="fill-rule:evenodd;stroke:#000000;stroke-width:1.0000000pt;marker-start:none;"
           d="M 0.00000000,0.00000000 L 5.0000000,-5.0000000 L -12.500000,0.00000000 L 5.0000000,5.0000000 L 0.00000000,0.00000000 z "
           id="path974"
           sodipodi:nodetypes="ccccc" />
        <path
           style="fill:none;fill-opacity:0.75000000;fill-rule:evenodd;stroke:#000000;stroke-width:1.0000000pt;marker-start:none;"
           d="M -14.759949,-9.0817535 L -14.759949,23.237446"
           id="path976" />
      </g>
    </marker>
    <marker
       id="INK_mClub"
       refX="0.00000000"
       refY="0.00000000"
       orient="auto">
      <path
         style="fill-rule:evenodd;stroke:#000000;stroke-width:0.74587913pt;marker-start:none;"
         d="M -1.5971367,-7.0977635 C -3.4863874,-7.0977635 -5.0235187,-5.5606321 -5.0235187,-3.6713813 C -5.0235187,-3.0147015 -4.7851656,-2.4444556 -4.4641095,-1.9232271 C -4.5028609,-1.8911157 -4.5437814,-1.8647646 -4.5806531,-1.8299921 C -5.2030765,-2.6849849 -6.1700514,-3.2751330 -7.3077730,-3.2751330 C -9.1970245,-3.2751331 -10.734155,-1.7380016 -10.734155,0.15124914 C -10.734155,2.0404999 -9.1970245,3.5776313 -7.3077730,3.5776313 C -6.3143268,3.5776313 -5.4391540,3.1355702 -4.8137404,2.4588126 C -4.9384274,2.8137041 -5.0235187,3.1803000 -5.0235187,3.5776313 C -5.0235187,5.4668819 -3.4863874,7.0040135 -1.5971367,7.0040135 C 0.29211394,7.0040135 1.8292454,5.4668819 1.8292454,3.5776313 C 1.8292454,2.7842354 1.5136868,2.0838028 1.0600576,1.5031550 C 2.4152718,1.7663868 3.7718375,2.2973711 4.7661444,3.8340272 C 4.0279463,3.0958289 3.5540908,1.7534117 3.5540908,-0.058529361 L 2.9247554,-0.10514681 L 3.5074733,-0.12845553 C 3.5074733,-1.9403966 3.9580199,-3.2828138 4.6962183,-4.0210121 C 3.7371277,-2.5387813 2.4390549,-1.9946496 1.1299838,-1.7134486 C 1.5341802,-2.2753578 1.8292454,-2.9268556 1.8292454,-3.6713813 C 1.8292454,-5.5606319 0.29211394,-7.0977635 -1.5971367,-7.0977635 z "
         id="path1015" />
    </marker>
  </defs>
  <sodipodi:namedview
     id="base"
     inkscape:zoom="0.89797979"
     inkscape:cx="127.23936"
     inkscape:cy="431.38342"
     inkscape:window-width="744"
     inkscape:window-height="501"
     inkscape:window-x="175"
     inkscape:window-y="1" />
  <path
     style="fill:none;fill-opacity:0.75000000;fill-rule:evenodd;stroke:#000000;stroke-width:1.0000000pt;marker-start:url(#INK_mClub);"
     d="M 199.84936,641.11178 L 155.55576,641.11178"
     id="INK_mClub_prev" />
  <path
     style="fill:none;fill-opacity:0.75000000;fill-rule:evenodd;stroke:#000000;stroke-width:1.0000000pt;marker-start:url(#INK_mCurveIn);"
     d="M 78.744175,568.72708 L 34.450577,568.72708"
     id="INK_mCurveIn_prev" />
  <path
     style="fill:none;fill-opacity:0.75000000;fill-rule:evenodd;stroke:#000000;stroke-width:1.0000000pt;marker-start:url(#mArrow);"
     d="M 78.744175,465.71808 L 34.450577,465.71808"
     id="mArrow_prev" />
  <g
     id="INK_mArrow1_prev">
    <path
       style="fill:none;fill-opacity:0.75000000;fill-rule:evenodd;stroke:#000000;stroke-width:1.0000000pt;marker-start:url(#INK_mArrowTail3);"
       d="M 78.744175,532.53473 L 34.450577,532.53473"
       id="INK_mArrowTail3_prev" />
    <path
       style="fill:none;fill-opacity:0.75000000;fill-rule:evenodd;stroke:#000000;stroke-width:1.0000000pt;marker-start:url(#INK_mArrow1);marker-mid:none;marker-end:none;"
       d="M 28.486812,158.67256 L 79.991310,158.67256"
       id="asda" />
    <rect
       style="fill:none;fill-opacity:0.75000000;fill-rule:evenodd;stroke:#000000;stroke-width:0.88930397pt;marker-start:none;"
       id="rect892"
       width="62.149406"
       height="62.149406"
       x="18.632557"
       y="128.03323" />
  </g>
  <path
     style="fill:none;fill-opacity:0.75000000;fill-rule:evenodd;stroke:#000000;stroke-width:1.0000000pt;marker-start:url(#INK_mArrow2);"
     d="M 33.408323,263.99290 L 84.912821,263.99290"
     id="INK_mArrow2_prev" />
  <path
     style="fill:none;fill-opacity:0.75000000;fill-rule:evenodd;stroke:#000000;stroke-width:1.0000000pt;marker-start:url(#INK_mArrow3);"
     d="M 33.408323,310.25510 L 84.912821,310.25510"
     id="INK_mArrow3_prev" />
  <path
     style="fill:none;fill-opacity:0.75000000;fill-rule:evenodd;stroke:#000000;stroke-width:1.0000000pt;marker-start:url(#INK_mArrow4);"
     d="M 32.424021,349.62719 L 83.928519,349.62719"
     id="INK_mArrow4_prev" />
  <path
     style="fill:none;fill-opacity:0.75000000;fill-rule:evenodd;stroke:#000000;stroke-width:1.0000000pt;marker-start:url(#INK_mArrow5);"
     d="M 35.376927,393.92079 L 86.881425,393.92079"
     id="INK_mArrow5_prev" />
  <path
     style="fill:none;fill-opacity:0.75000000;fill-rule:evenodd;stroke:#000000;stroke-width:1.0000000pt;marker-start:url(#INK_mArrow6);"
     d="M 77.352161,685.65622 L 33.058563,685.65622"
     id="INK_mArrow6_prev" />
  <path
     style="fill:none;fill-opacity:0.75000000;fill-rule:evenodd;stroke:#000000;stroke-width:1.0000000pt;marker-start:url(#INK_mArrow7);"
     d="M 199.84936,685.65621 L 155.55576,685.65621"
     id="INK_mArrow7_prev" />
  <path
     style="fill:none;fill-opacity:0.75000000;fill-rule:evenodd;stroke:#000000;stroke-width:1.0000000pt;marker-start:url(#mTriangle);marker-end:none;"
     d="M 82.681384,433.23610 L 38.387785,433.23610"
     id="mTriangle_prev" />
  <path
     style="fill:none;fill-opacity:0.75000000;fill-rule:evenodd;stroke:#000000;stroke-width:1.0000000pt;marker-start:url(#INK_mCurveOut);"
     d="M 78.744175,603.52742 L 34.450577,603.52742"
     id="INK_mCurveOut_prev" />
  <path
     style="fill:none;fill-opacity:0.75000000;fill-rule:evenodd;stroke:#000000;stroke-width:1.0000000pt;marker-start:url(#INK_mCurvyCross);"
     d="M 78.744175,643.89581 L 34.450577,643.89581"
     id="INK_mCurvyCross_prev" />
  <path
     style="fill:none;fill-opacity:0.75000000;fill-rule:evenodd;stroke:#000000;stroke-width:1.0000000pt;marker-start:url(#INK_mDiamond);"
     d="M 198.45734,263.87612 L 154.16374,263.87612"
     id="INK_mDiamond_prev" />
  <path
     style="fill:none;fill-opacity:0.75000000;fill-rule:evenodd;stroke:#000000;stroke-width:1.0000000pt;marker-start:url(#INK_mDot);"
     d="M 198.45734,311.20458 L 154.16374,311.20458"
     id="INK_mDot_prev" />
  <path
     style="fill:none;fill-opacity:0.75000000;fill-rule:evenodd;stroke:#000000;stroke-width:1.0000000pt;marker-start:url(#INK_mSquare);"
     d="M 198.45734,354.35700 L 154.16374,354.35700"
     id="INK_mSquare_prev" />
  <path
     style="fill:none;fill-opacity:0.75000000;fill-rule:evenodd;stroke:#000000;stroke-width:1.0000000pt;marker-start:url(#INK_mStop);"
     d="M 198.45734,398.90143 L 154.16374,398.90143"
     id="INK_mStop_prev" />
  <path
     style="fill:none;fill-opacity:0.75000000;fill-rule:evenodd;stroke:#000000;stroke-width:1.0000000pt;marker-start:url(#INK_mSemiCircle2);"
     d="M 197.06533,437.87781 L 152.77173,437.87781"
     id="INK_mSemiCircle2_prev" />
  <path
     style="fill:none;fill-opacity:0.75000000;fill-rule:evenodd;stroke:#000000;stroke-width:1.0000000pt;marker-start:url(#INK_mSemiCircle1);"
     d="M 195.67332,472.67815 L 151.37972,472.67815"
     id="INK_mSemiCircle1_prev" />
  <path
     style="fill:none;fill-opacity:0.75000000;fill-rule:evenodd;stroke:#000000;stroke-width:1.0000000pt;marker-start:url(#INK_mTria);"
     d="M 197.06533,501.91043 L 152.77173,501.91043"
     id="INK_mTria_prev" />
  <path
     style="fill:none;fill-opacity:0.75000000;fill-rule:evenodd;stroke:#000000;stroke-width:1.0000000pt;marker-start:url(#INK_mDistance1a);"
     d="M 197.06533,538.10278 L 152.77173,538.10278"
     id="INK_mDistance1a_prev" />
  <path
     style="fill:none;fill-opacity:0.75000000;fill-rule:evenodd;stroke:#000000;stroke-width:1.0000000pt;marker-start:url(#INK_mDistance1b);"
     d="M 197.06533,603.52742 L 152.77173,603.52742"
     id="INK_mDistance1b_prev" />
  <path
     style="fill:none;fill-opacity:0.75000000;fill-rule:evenodd;stroke:#000000;stroke-width:1.0000000pt;marker-start:url(#Template);"
     d="M 77.352171,497.73439 L 33.058571,497.73439"
     id="Template_prev" />
</svg>
