<?xml version="1.0" encoding="UTF-8" standalone="no"?>
<!DOCTYPE svg PUBLIC "-//W3C//DTD SVG 20010904//EN"
"http://www.w3.org/TR/2001/REC-SVG-20010904/DTD/svg10.dtd">
<!-- Created with Inkscape (http://www.inkscape.org/) -->
<svg
   id="svg1"
   sodipodi:version="0.32"
   inkscape:version="0.38cvs-20040210"
   width="210mm"
   height="297mm"
   sodipodi:docname="grounded.svg"
   xmlns="http://www.w3.org/2000/svg"
   xmlns:inkscape="http://www.inkscape.org/namespaces/inkscape"
   xmlns:sodipodi="http://sodipodi.sourceforge.net/DTD/sodipodi-0.dtd"
   xmlns:ns="http://web.resource.org/cc/"
   xmlns:rdf="http://www.w3.org/1999/02/22-rdf-syntax-ns#"
   xmlns:dc="http://purl.org/dc/elements/1.1/"
   xmlns:xlink="http://www.w3.org/1999/xlink"
   sodipodi:docbase="C:\tmp\svg\signs\svg">
  <defs
     id="defs3" />
  <sodipodi:namedview
     id="base"
     pagecolor="#ffffff"
     bordercolor="#666666"
     borderopacity="1.0"
     inkscape:pageopacity="0.0"
     inkscape:pageshadow="2"
     inkscape:zoom="0.86830572"
     inkscape:cx="360.81195975"
     inkscape:cy="399.00428305"
     inkscape:window-width="1024"
     inkscape:window-height="721"
     showgrid="false"
     snaptoguides="false"
     snaptogrid="false"
     inkscape:window-x="-4"
     inkscape:window-y="-4" />
  <rdf:RDF
     id="RDF596">
    <ns:Work
       rdf:about="">
      <dc:title>SVG Road Signs</dc:title>
      <dc:rights>
        <ns:Agent>
          <dc:title>John Cliff</dc:title>
        </ns:Agent>
      </dc:rights>
      <dc:type
         rdf:resource="http://purl.org/dc/dcmitype/StillImage" />
      <ns:license
         rdf:resource="http://web.resource.org/cc/PublicDomain" />
    </ns:Work>
    <ns:License
       rdf:about="http://web.resource.org/cc/PublicDomain">
      <ns:permits
         rdf:resource="http://web.resource.org/cc/Reproduction" />
      <ns:permits
         rdf:resource="http://web.resource.org/cc/Distribution" />
      <ns:permits
         rdf:resource="http://web.resource.org/cc/DerivativeWorks" />
    </ns:License>
  </rdf:RDF>
  <g
     id="g681">
    <image
       xlink:href="C:\tmp\svg\signs\sign115.gif"
       sodipodi:absref="C:\tmp\svg\signs\sign115.gif"
       width="507.18242272"
       height="447.84319887"
       id="image632"
       x="184.24720764"
       y="228.01864805" />
    <g
       id="g634"
       style="font-size:12;">
      <path
         style="font-size:12;fill:#ff0000;fill-rule:evenodd;stroke-width:3pt;"
         d="M 208.6704 677.38758 C 189.58911 675.8254 176.59657 653.64921 184.95738 636.30371 C 219.53892 576.26532 377.37484 305.11167 415.29314 238.60664 C 426.18667 222.86284 451.88808 222.69907 462.72932 238.61249 C 497.43332 298.58017 654.59917 569.50057 693.23507 635.5913 C 701.42283 652.89727 688.71396 675.23723 669.51191 676.66931 C 600.22637 676.74001 285.2246 676.97327 208.6704 677.38758 z "
         id="path590"
         sodipodi:nodetypes="ccccccc" />
      <path
         style="font-size:12;fill:#ffffff;fill-rule:evenodd;stroke-width:3pt;"
         d="M 238.45743 636.18999 L 641.18573 635.02473 L 438.78057 279.47183 L 238.45743 636.18999 z "
         id="path605"
         sodipodi:nodetypes="cccc" />
    </g>
    <g
       id="g668"
       transform="translate(0.719793,-1.079689)">
      <path
         sodipodi:type="arc"
         style="font-size:12;fill:#ffffff;fill-opacity:1;fill-rule:evenodd;stroke:#000000;stroke-width:12.1737;stroke-dasharray:none;"
         id="path665"
         sodipodi:cx="549.92150879"
         sodipodi:cy="564.34283447"
         sodipodi:rx="13.31616211"
         sodipodi:ry="13.31616211"
         d="M 563.237671 564.342834 A 13.316162 13.316162 0 1 0 536.605347,564.342834 A 13.3162 13.3162 0 1 0 563.238 564.343 L 549.921509 564.342834 z"
         transform="matrix(0.891892,0.000000,0.000000,0.891892,59.81075,61.00992)" />
      <path
         sodipodi:type="arc"
         style="font-size:12;fill:#ffffff;fill-opacity:1;fill-rule:evenodd;stroke:#000000;stroke-width:12.1737;stroke-dasharray:none;"
         id="path666"
         sodipodi:cx="549.92150879"
         sodipodi:cy="564.34283447"
         sodipodi:rx="13.31616211"
         sodipodi:ry="13.31616211"
         d="M 563.237671 564.342834 A 13.316162 13.316162 0 1 0 536.605347,564.342834 A 13.3162 13.3162 0 1 0 563.238 564.343 L 549.921509 564.342834 z"
         transform="matrix(0.891892,0.000000,0.000000,0.891892,-86.30708,37.25680)" />
      <path
         sodipodi:type="arc"
         style="font-size:12;fill:#ffffff;fill-opacity:1;fill-rule:evenodd;stroke:#000000;stroke-width:12.1737;stroke-dasharray:none;"
         id="path667"
         sodipodi:cx="549.92150879"
         sodipodi:cy="564.34283447"
         sodipodi:rx="13.31616211"
         sodipodi:ry="13.31616211"
         d="M 563.237671 564.342834 A 13.316162 13.316162 0 1 0 536.605347,564.342834 A 13.3162 13.3162 0 1 0 563.238 564.343 L 549.921509 564.342834 z"
         transform="matrix(0.891892,0.000000,0.000000,0.891892,-128.7748,61.00995)" />
    </g>
    <path
       style="fill:#000000;fill-rule:evenodd;stroke:black;stroke-opacity:1;stroke-width:1pt;stroke-linejoin:miter;stroke-linecap:butt;fill-opacity:1;"
       d="M 461.718750 472.781250 C 457.335367 472.126691 453.279540 475.147850 452.625000 479.531250 L 447.906250 523.093750 L 437.718750 501.156250 L 391.937500 495.062500 L 389.875000 513.375000 L 390.000000 513.406250 L 380.218750 518.718750 C 380.218750 518.718750 362.410889 489.969031 360.375000 486.406250 C 358.848090 483.734158 356.463431 482.133974 353.218750 482.843750 C 352.137190 483.080342 350.959923 483.579732 349.687500 484.375000 L 329.062500 497.593750 C 326.390400 498.993420 326.381718 500.533060 326.000000 505.750000 C 325.491030 512.875580 321.937505 551.812512 321.937500 551.812500 L 335.937500 575.968750 L 350.468750 567.375000 C 350.200679 566.384502 349.843750 565.418667 349.843750 564.343750 C 349.843752 557.787854 355.162879 552.468750 361.718750 552.468750 C 364.906060 552.468742 367.741090 553.797956 369.875000 555.843750 L 392.656250 542.281250 C 392.570777 541.706797 392.312500 541.223118 392.312500 540.625000 C 392.312510 534.069127 397.631629 528.750000 404.187500 528.750000 C 406.855595 528.750003 409.172717 529.794101 411.156250 531.281250 L 424.500000 523.312500 L 419.656250 517.218750 L 425.500000 517.968750 L 441.281250 549.500000 L 530.656250 563.406250 C 530.654480 563.352660 530.625000 563.303920 530.625000 563.250000 C 530.625010 552.078090 539.578090 543.156250 550.750000 543.156250 C 561.921920 543.156230 570.843750 552.078090 570.843750 563.250000 C 570.843750 565.379820 570.435010 567.397260 569.812500 569.312500 L 581.906250 571.156250 C 582.584960 568.621410 583.031250 565.993030 583.031250 563.250000 C 583.031250 545.483890 568.516120 530.968750 550.750000 530.968750 C 540.903730 530.968750 532.204470 535.551800 526.312500 542.562500 L 521.937500 542.000000 C 519.326457 541.331746 519.699520 538.302980 519.968750 536.500000 L 526.906250 490.875000 C 527.560818 486.491575 524.539650 482.435790 520.156250 481.781250 L 461.718750 472.781250 z M 353.437500 497.781250 L 365.312500 518.656250 L 332.906250 537.000000 L 335.437500 507.843750 L 353.437500 497.781250 z M 461.156250 553.593750 C 444.869196 554.611669 430.108230 562.231480 416.875000 570.375000 C 403.641782 578.518559 387.327850 592.781250 363.406250 592.781250 C 339.484646 592.781255 288.607060 593.281250 289.625000 593.281250 L 290.125000 617.718750 L 589.906250 617.218750 L 589.906250 592.781250 C 589.906226 592.781255 570.563380 592.781250 559.875000 592.781250 C 549.186601 592.781255 541.055570 593.300350 516.625000 578.031250 C 492.194444 562.762147 477.443300 552.575810 461.156250 553.593750 z "
       id="path680" />
  </g>
</svg>
