<?xml version="1.0" encoding="UTF-8" standalone="no"?>
<!DOCTYPE svg PUBLIC "-//W3C//DTD SVG 20010904//EN"
"http://www.w3.org/TR/2001/REC-SVG-20010904/DTD/svg10.dtd">
<svg
   id="svg1"
   sodipodi:version="0.32"
   inkscape:version="0.38cvs-20040210"
   width="210mm"
   height="297mm"
   sodipodi:docname="humpback.svg"
   xmlns="http://www.w3.org/2000/svg"
   xmlns:inkscape="http://www.inkscape.org/namespaces/inkscape"
   xmlns:sodipodi="http://sodipodi.sourceforge.net/DTD/sodipodi-0.dtd"
   xmlns:ns="http://web.resource.org/cc/"
   xmlns:rdf="http://www.w3.org/1999/02/22-rdf-syntax-ns#"
   xmlns:dc="http://purl.org/dc/elements/1.1/"
   xmlns:xlink="http://www.w3.org/1999/xlink"
   sodipodi:docbase="C:\tmp\svg\signs\svg">
  <defs
     id="defs3" />
  <sodipodi:namedview
     id="base"
     pagecolor="#ffffff"
     bordercolor="#666666"
     borderopacity="1.0"
     inkscape:pageopacity="0.0"
     inkscape:pageshadow="2"
     inkscape:zoom="1.22796974"
     inkscape:cx="279.75353025"
     inkscape:cy="497.47099942"
     inkscape:window-width="1024"
     inkscape:window-height="721"
     showgrid="false"
     snaptoguides="false"
     snaptogrid="false"
     inkscape:window-x="-4"
     inkscape:window-y="-4" />
  <rdf:RDF
     id="RDF596">
    <ns:Work
       rdf:about="">
      <dc:title>SVG Road Signs</dc:title>
      <dc:rights>
        <ns:Agent>
          <dc:title>John Cliff</dc:title>
        </ns:Agent>
      </dc:rights>
      <dc:type
         rdf:resource="http://purl.org/dc/dcmitype/StillImage" />
      <ns:license
         rdf:resource="http://web.resource.org/cc/PublicDomain" />
    </ns:Work>
    <ns:License
       rdf:about="http://web.resource.org/cc/PublicDomain">
      <ns:permits
         rdf:resource="http://web.resource.org/cc/Reproduction" />
      <ns:permits
         rdf:resource="http://web.resource.org/cc/Distribution" />
      <ns:permits
         rdf:resource="http://web.resource.org/cc/DerivativeWorks" />
    </ns:License>
  </rdf:RDF>
  <g
     id="g692">
    <path
       style="font-size:12;fill:#ff0000;fill-rule:evenodd;stroke-width:3pt;"
       d="M 43.764055 733.92711 C 24.682765 732.36493 11.690225 710.18874 20.051035 692.84324 C 54.632575 632.80485 212.4685 361.6512 250.3868 295.14617 C 261.28033 279.40237 286.98174 279.2386 297.82298 295.15202 C 332.52698 355.1197 489.69283 626.0401 528.32873 692.13083 C 536.51649 709.4368 523.80762 731.77676 504.60557 733.20884 C 435.32003 733.27954 120.31826 733.5128 43.764055 733.92711 z "
       id="path590"
       sodipodi:nodetypes="ccccccc"
       transform="translate(111.9734,-132.3323)" />
    <path
       style="font-size:12;fill:#ffffff;fill-rule:evenodd;stroke-width:3pt;fill-opacity:1;"
       d="M 72.024174,689.20810 L 474.24351,688.04284 L 273.36526,341.14243 L 72.024174,689.20810 z "
       id="path605"
       sodipodi:nodetypes="cccc"
       transform="translate(111.9734,-132.3323)" />
    <path
       style="font-size:12;fill-rule:evenodd;stroke:none;stroke-width:1pt;fill:#000000;fill-opacity:1;"
       d="M 421.52891,493.50000 L 421.79948,526.58073 L 518.97084,526.58073 L 519.22084,465.73281 C 483.23122,466.45260 470.29689,461.97813 459.50000,455.50000 C 448.70311,448.84192 440.97295,433.35626 416.50000,423.63906 C 407.50373,419.93734 394.24804,417.51302 384.37500,417.51302 C 374.50220,417.51302 362.21352,419.98133 353.78125,423.27916 C 329.30830,432.99636 321.57813,448.84192 310.78125,455.50000 C 299.98436,461.97813 285.57921,466.45260 249.58958,465.73281 L 249.59922,526.58073 L 347.50546,526.58073 L 347.48398,493.50000 C 350.10408,475.80126 366.96532,461.95703 384.75000,462.31692 C 403.61546,462.13699 419.06863,477.41927 421.52891,493.50000 z "
       id="path675"
       sodipodi:nodetypes="ccccccccccccccc" />
  </g>
</svg>
