<?xml version="1.0" encoding="UTF-8" standalone="no"?>
<!DOCTYPE svg PUBLIC "-//W3C//DTD SVG 20010904//EN"
"http://www.w3.org/TR/2001/REC-SVG-20010904/DTD/svg10.dtd">
<svg
   id="svg1"
   sodipodi:version="0.32"
   inkscape:version="0.38cvs-20040210"
   width="210mm"
   height="297mm"
   sodipodi:docname="junc_curve.svg"
   xmlns="http://www.w3.org/2000/svg"
   xmlns:inkscape="http://www.inkscape.org/namespaces/inkscape"
   xmlns:sodipodi="http://sodipodi.sourceforge.net/DTD/sodipodi-0.dtd"
   xmlns:ns="http://web.resource.org/cc/"
   xmlns:rdf="http://www.w3.org/1999/02/22-rdf-syntax-ns#"
   xmlns:dc="http://purl.org/dc/elements/1.1/"
   xmlns:xlink="http://www.w3.org/1999/xlink"
   sodipodi:docbase="C:\tmp\svg\signs\svg">
  <defs
     id="defs3" />
  <sodipodi:namedview
     id="base"
     pagecolor="#ffffff"
     bordercolor="#666666"
     borderopacity="1.0"
     inkscape:pageopacity="0.0"
     inkscape:pageshadow="2"
     inkscape:zoom="0.86830573"
     inkscape:cx="299.57841707"
     inkscape:cy="530.96931787"
     inkscape:window-width="1024"
     inkscape:window-height="721"
     showgrid="false"
     snaptoguides="false"
     snaptogrid="false"
     inkscape:window-x="-4"
     inkscape:window-y="-4" />
  <rdf:RDF
     id="RDF596">
    <ns:Work
       rdf:about="">
      <dc:title>SVG Road Signs</dc:title>
      <dc:rights>
        <ns:Agent>
          <dc:title>John Cliff</dc:title>
        </ns:Agent>
      </dc:rights>
      <dc:type
         rdf:resource="http://purl.org/dc/dcmitype/StillImage" />
      <ns:license
         rdf:resource="http://web.resource.org/cc/PublicDomain" />
    </ns:Work>
    <ns:License
       rdf:about="http://web.resource.org/cc/PublicDomain">
      <ns:permits
         rdf:resource="http://web.resource.org/cc/Reproduction" />
      <ns:permits
         rdf:resource="http://web.resource.org/cc/Distribution" />
      <ns:permits
         rdf:resource="http://web.resource.org/cc/DerivativeWorks" />
    </ns:License>
  </rdf:RDF>
  <g
     id="g782">
    <path
       style="font-size:12;fill:#ff0000;fill-rule:evenodd;stroke-width:3pt;"
       d="M 43.764055 733.92711 C 24.682765 732.36493 11.690225 710.18874 20.051035 692.84324 C 54.632575 632.80485 212.4685 361.6512 250.3868 295.14617 C 261.28033 279.40237 286.98174 279.2386 297.82298 295.15202 C 332.52698 355.1197 489.69283 626.0401 528.32873 692.13083 C 536.51649 709.4368 523.80762 731.77676 504.60557 733.20884 C 435.32003 733.27954 120.31826 733.5128 43.764055 733.92711 z "
       id="path590"
       sodipodi:nodetypes="ccccccc"
       transform="translate(111.9734,-132.3323)" />
    <path
       style="font-size:12;fill:#ffffff;fill-rule:evenodd;stroke-width:3pt;"
       d="M 72.024174,689.20810 L 474.24351,688.04284 L 273.36526,341.14243 L 72.024174,689.20810 z "
       id="path605"
       sodipodi:nodetypes="cccc"
       transform="translate(111.9734,-132.3323)" />
    <path
       style="font-size:12;fill:#000000;fill-opacity:1;fill-rule:evenodd;stroke:none;stroke-width:2.56644pt;stroke-opacity:1.0;"
       d="M 426.50000,346.40625 L 385.28125,361.68750 C 367.47136,368.28375 351.85159,380.36870 340.15625,394.78229 C 329.24659,388.48359 317.44742,381.63490 306.53776,375.33620 C 302.01172,383.17553 298.40104,390.81692 293.87500,398.65625 C 304.60411,404.85070 315.87323,412.13523 326.60234,418.32969 C 321.82217,429.50885 318.74245,441.47558 318.74245,454.21224 L 318.56250,542.90625 L 368.56250,542.90625 L 368.56250,453.31250 C 368.92240,433.17399 384.75345,414.63332 400.85677,408.56250 L 442.07552,393.28125 L 457.59375,361.71875 L 426.50000,346.40625 z "
       id="path781"
       sodipodi:nodetypes="cccccccccccccc" />
  </g>
</svg>
