<?xml version="1.0" encoding="UTF-8" standalone="no"?>
<!DOCTYPE svg PUBLIC "-//W3C//DTD SVG 20010904//EN"
"http://www.w3.org/TR/2001/REC-SVG-20010904/DTD/svg10.dtd">
<svg
   id="svg1"
   sodipodi:version="0.32"
   inkscape:version="0.38cvs-20040210"
   width="210mm"
   height="297mm"
   sodipodi:docname="narrows.svg"
   xmlns="http://www.w3.org/2000/svg"
   xmlns:inkscape="http://www.inkscape.org/namespaces/inkscape"
   xmlns:sodipodi="http://sodipodi.sourceforge.net/DTD/sodipodi-0.dtd"
   xmlns:ns="http://web.resource.org/cc/"
   xmlns:rdf="http://www.w3.org/1999/02/22-rdf-syntax-ns#"
   xmlns:dc="http://purl.org/dc/elements/1.1/"
   xmlns:xlink="http://www.w3.org/1999/xlink"
   sodipodi:docbase="C:\tmp\svg\signs\svg">
  <defs
     id="defs3" />
  <sodipodi:namedview
     id="base"
     pagecolor="#ffffff"
     bordercolor="#666666"
     borderopacity="1.0"
     inkscape:pageopacity="0.0"
     inkscape:pageshadow="2"
     inkscape:zoom="1.22796974"
     inkscape:cx="343.20228187"
     inkscape:cy="514.82081924"
     inkscape:window-width="1024"
     inkscape:window-height="721"
     showgrid="false"
     snaptoguides="false"
     snaptogrid="false"
     inkscape:window-x="-4"
     inkscape:window-y="-4" />
  <rdf:RDF
     id="RDF596">
    <ns:Work
       rdf:about="">
      <dc:title>SVG Road Signs</dc:title>
      <dc:rights>
        <ns:Agent>
          <dc:title>John Cliff</dc:title>
        </ns:Agent>
      </dc:rights>
      <dc:type
         rdf:resource="http://purl.org/dc/dcmitype/StillImage" />
      <ns:license
         rdf:resource="http://web.resource.org/cc/PublicDomain" />
    </ns:Work>
    <ns:License
       rdf:about="http://web.resource.org/cc/PublicDomain">
      <ns:permits
         rdf:resource="http://web.resource.org/cc/Reproduction" />
      <ns:permits
         rdf:resource="http://web.resource.org/cc/Distribution" />
      <ns:permits
         rdf:resource="http://web.resource.org/cc/DerivativeWorks" />
    </ns:License>
  </rdf:RDF>
  <g
     id="g946">
    <g
       id="g889">
      <path
         style="font-size:12;fill:#ff0000;fill-rule:evenodd;stroke-width:3pt;"
         d="M 43.764055 733.92711 C 24.682765 732.36493 11.690225 710.18874 20.051035 692.84324 C 54.632575 632.80485 212.4685 361.6512 250.3868 295.14617 C 261.28033 279.40237 286.98174 279.2386 297.82298 295.15202 C 332.52698 355.1197 489.69283 626.0401 528.32873 692.13083 C 536.51649 709.4368 523.80762 731.77676 504.60557 733.20884 C 435.32003 733.27954 120.31826 733.5128 43.764055 733.92711 z "
         id="path590"
         sodipodi:nodetypes="ccccccc"
         transform="translate(111.9734,-132.3323)" />
      <path
         style="font-size:12;fill:#ffffff;fill-rule:evenodd;stroke-width:3pt;"
         d="M 72.024174,689.20810 L 474.24351,688.04284 L 273.36526,341.14243 L 72.024174,689.20810 z "
         id="path605"
         sodipodi:nodetypes="cccc"
         transform="translate(111.9734,-132.3323)" />
    </g>
    <path
       style="font-size:12;fill-rule:evenodd;stroke-width:3pt;"
       d="M 339.99210,308.75671 L 339.99210,539.32021 L 373.58413,539.32021 L 373.58413,308.75671 L 339.99210,308.75671 z M 395.46985,308.75671 L 395.46985,366.39758 C 395.46985,377.54713 394.79123,387.65612 398.39643,402.09816 C 402.00164,416.66744 418.20385,434.17171 422.19078,441.13076 C 426.17771,448.26976 424.99012,459.32648 424.99012,467.42816 L 424.99012,539.32021 L 458.58215,539.32021 L 458.58215,467.42816 C 458.58215,456.76252 458.11559,439.73171 454.00141,429.57352 C 449.88724,419.54257 434.57573,402.53447 431.47949,395.34526 C 428.63775,388.28330 429.06188,375.15981 429.06188,366.39758 L 429.06188,308.75671 L 395.46985,308.75671 z "
       id="path940" />
  </g>
</svg>
