<?xml version="1.0" encoding="UTF-8" standalone="no"?>
<!DOCTYPE svg PUBLIC "-//W3C//DTD SVG 20010904//EN"
"http://www.w3.org/TR/2001/REC-SVG-20010904/DTD/svg10.dtd">
<svg
   id="svg1"
   sodipodi:version="0.32"
   inkscape:version="0.38cvs-20040210"
   width="210mm"
   height="297mm"
   sodipodi:docname="narrows_both.svg"
   xmlns="http://www.w3.org/2000/svg"
   xmlns:inkscape="http://www.inkscape.org/namespaces/inkscape"
   xmlns:sodipodi="http://sodipodi.sourceforge.net/DTD/sodipodi-0.dtd"
   xmlns:ns="http://web.resource.org/cc/"
   xmlns:rdf="http://www.w3.org/1999/02/22-rdf-syntax-ns#"
   xmlns:dc="http://purl.org/dc/elements/1.1/"
   xmlns:xlink="http://www.w3.org/1999/xlink"
   sodipodi:docbase="C:\tmp\svg\signs\svg\new">
  <defs
     id="defs3" />
  <sodipodi:namedview
     id="base"
     pagecolor="#ffffff"
     bordercolor="#666666"
     borderopacity="1.0"
     inkscape:pageopacity="0.0"
     inkscape:pageshadow="2"
     inkscape:zoom="1.22796974"
     inkscape:cx="314.08888838"
     inkscape:cy="526.27627707"
     inkscape:window-width="1024"
     inkscape:window-height="721"
     showgrid="false"
     snaptoguides="false"
     snaptogrid="false"
     inkscape:window-x="-4"
     inkscape:window-y="-4" />
  <rdf:RDF
     id="RDF596">
    <ns:Work
       rdf:about="">
      <dc:title>SVG Road Signs</dc:title>
      <dc:rights>
        <ns:Agent>
          <dc:title>John Cliff</dc:title>
        </ns:Agent>
      </dc:rights>
      <dc:type
         rdf:resource="http://purl.org/dc/dcmitype/StillImage" />
      <ns:license
         rdf:resource="http://web.resource.org/cc/PublicDomain" />
    </ns:Work>
    <ns:License
       rdf:about="http://web.resource.org/cc/PublicDomain">
      <ns:permits
         rdf:resource="http://web.resource.org/cc/Reproduction" />
      <ns:permits
         rdf:resource="http://web.resource.org/cc/Distribution" />
      <ns:permits
         rdf:resource="http://web.resource.org/cc/DerivativeWorks" />
    </ns:License>
  </rdf:RDF>
  <g
     id="g598">
    <g
       id="g820">
      <path
         style="font-size:12;fill:#ff0000;fill-rule:evenodd;stroke-width:3pt;"
         d="M 43.764055 733.92711 C 24.682765 732.36493 11.690225 710.18874 20.051035 692.84324 C 54.632575 632.80485 212.4685 361.6512 250.3868 295.14617 C 261.28033 279.40237 286.98174 279.2386 297.82298 295.15202 C 332.52698 355.1197 489.69283 626.0401 528.32873 692.13083 C 536.51649 709.4368 523.80762 731.77676 504.60557 733.20884 C 435.32003 733.27954 120.31826 733.5128 43.764055 733.92711 z "
         id="path590"
         sodipodi:nodetypes="ccccccc"
         transform="translate(111.9734,-132.3323)" />
      <path
         style="font-size:12;fill:#ffffff;fill-rule:evenodd;stroke-width:3pt;"
         d="M 72.024174,689.20810 L 474.24351,688.04284 L 273.36526,341.14243 L 72.024174,689.20810 z "
         id="path605"
         sodipodi:nodetypes="cccc"
         transform="translate(111.9734,-132.3323)" />
    </g>
    <path
       style="font-size:12;fill-rule:evenodd;stroke-width:3pt;"
       d="M 374.95987,308.91236 L 374.95987,366.55323 C 374.95987,377.70278 375.63849,387.81177 372.03329,402.25381 C 368.42808,416.82309 352.22587,434.32736 348.23894,441.28641 C 344.25201,448.42541 345.43960,459.48213 345.43960,467.58381 L 345.43960,539.47586 L 311.84757,539.47586 L 311.84757,467.58381 C 311.84757,456.91817 312.31413,439.88736 316.42831,429.72917 C 320.54248,419.69822 335.85399,402.69012 338.95023,395.50091 C 341.79197,388.43895 341.36784,375.31546 341.36784,366.55323 L 341.36784,308.91236 L 374.95987,308.91236 z M 396.89636,308.91236 L 396.89636,366.55323 C 396.89636,377.70278 396.21774,387.81177 399.82294,402.25381 C 403.42815,416.82309 419.63036,434.32736 423.61729,441.28641 C 427.60422,448.42541 426.41663,459.48213 426.41663,467.58381 L 426.41663,539.47586 L 460.00866,539.47586 L 460.00866,467.58381 C 460.00866,456.91817 459.54210,439.88736 455.42792,429.72917 C 451.31375,419.69822 436.00224,402.69012 432.90600,395.50091 C 430.06426,388.43895 430.48839,375.31546 430.48839,366.55323 L 430.48839,308.91236 L 396.89636,308.91236 z "
       id="path597" />
  </g>
</svg>
