<?xml version="1.0" encoding="UTF-8" standalone="no"?>
<!DOCTYPE svg PUBLIC "-//W3C//DTD SVG 1.0//EN"
"http://www.w3.org/TR/2001/REC-SVG-20010904/DTD/svg10.dtd">
<!-- Created with Inkscape ("http://www.inkscape.org/") -->
<svg
   id="svg800"
   sodipodi:version="0.32"
   inkscape:version="0.37cvs040123.1035"
   xmlns="http://www.w3.org/2000/svg"
   xmlns:sodipodi="http://sodipodi.sourceforge.net/DTD/sodipodi-0.dtd"
   xmlns:inkscape="http://www.inkscape.org/namespaces/inkscape"
   xmlns:xlink="http://www.w3.org/1999/xlink"
   width="210mm"
   height="297mm"
   sodipodi:docbase="."
   sodipodi:docname="no_cycles.svg">
  <defs
     id="defs802" />
  <sodipodi:namedview
     id="base"
     pagecolor="#ffffff"
     bordercolor="#666666"
     inkscape:pageshadow="2"
     inkscape:zoom="0.61399231"
     inkscape:cx="326.432428"
     inkscape:cy="449.608880"
     inkscape:window-width="1024"
     inkscape:window-height="721"
     borderopacity="1.0"
     inkscape:pageopacity="0.0"
     inkscape:window-x="-4"
     inkscape:window-y="-4" />
  <g
     id="g904">
    <path
       style="font-size:12;fill:#ff0000;fill-rule:evenodd;stroke-width:3pt;"
       d="M 114.01272 583.65934 C 94.931432 582.09716 81.938894 559.92097 90.299702 542.57547 C 124.88124 482.53708 282.71716 211.38343 320.63546 144.8784 C 331.52899 129.1346 357.2304 128.97083 368.07164 144.88425 C 402.77564 204.85193 559.94149 475.77233 598.57739 541.86306 C 606.76515 559.16903 594.05628 581.50899 574.85423 582.94107 C 505.56869 583.01177 190.56692 583.24503 114.01272 583.65934 z "
       id="path590"
       sodipodi:nodetypes="ccccccc" />
    <path
       style="font-size:12;fill:#ffffff;fill-rule:evenodd;stroke-width:3pt;"
       d="M 154.60199 524.43966 C 152.65762 527.4603 153.04316 530.86884 154.57084 533.51483 C 155.98661 535.96701 158.04979 537.65475 161.89386 537.69454 L 526.39222 536.94914 C 529.98035 537.12269 532.73947 535.08454 534.26712 532.43853 C 535.68288 529.98635 536.11292 527.35571 534.22534 524.00676 L 351.28125 208.59375 C 349.63748 205.39955 346.49283 204.02917 343.4375 204.02918 C 340.60596 204.02918 338.11274 204.97208 336.15625 208.28125 L 154.60199 524.43966 z "
       id="path605"
       sodipodi:nodetypes="cccccccccc" />
    <g
       id="g892"
       transform="matrix(0.552683,0.000000,0.000000,0.552683,152.0931,8.507816)">
      <path
         sodipodi:type="arc"
         style="font-size:12;fill:#ffffff;fill-opacity:1;fill-rule:evenodd;stroke:#000000;stroke-width:26;stroke-opacity:1;"
         id="path596"
         d="M 278.912857 461.962708 A 78.380615 78.380615 0 1 0 122.151627,461.962708 A 78.3806 78.3806 0 1 0 278.913 461.963 L 200.532242 461.962708 z"
         sodipodi:cx="200.532242"
         sodipodi:cy="461.962708"
         sodipodi:rx="78.380615"
         sodipodi:ry="78.380615"
         transform="translate(312.8839,390.2100)" />
      <path
         sodipodi:type="arc"
         style="font-size:12;fill:#ffffff;fill-opacity:1;fill-rule:evenodd;stroke:#000000;stroke-width:26;stroke-opacity:1;"
         id="path595"
         d="M 278.912857 461.962708 A 78.380615 78.380615 0 1 0 122.151627,461.962708 A 78.3806 78.3806 0 1 0 278.913 461.963 L 200.532242 461.962708 z"
         sodipodi:cx="200.532242"
         sodipodi:cy="461.962708"
         sodipodi:rx="78.380615"
         sodipodi:ry="78.380615"
         transform="translate(-23.03307,388.6831)" />
      <path
         style="font-size:12;fill:none;fill-opacity:1;fill-rule:evenodd;stroke:#000000;stroke-width:20.875;stroke-linejoin:round;stroke-opacity:1;"
         d="M 262.62597 328.61386 L 464.17614 329.63179 L 535.43125 461.96271 L 399.02861 461.96271 L 256.51839 365.25935 "
         id="path594"
         sodipodi:nodetypes="ccccc"
         transform="translate(-23.03307,388.6831)" />
      <path
         style="font-size:12;fill:#000000;fill-rule:evenodd;stroke-width:25;stroke-linecap:round;fill-opacity:1;"
         d="M 270.37077 249.30802 C 259.42294 249.30802 251.14779 249.06376 242.66587 262.02163 C 240.22437 266.34121 239.10811 271.6154 240.00962 276.86538 C 241.09108 282.83514 244.62541 288.70033 248.7919 292.1724 C 254.30909 296.77007 259.54501 296.41538 258.69883 300.54843 C 257.61308 305.85159 254.29959 313.22102 250.71875 325.1875 C 247.08395 337.33429 242.76789 352.20079 238.53125 366.84375 C 234.29461 381.48671 230.13577 395.91405 226.84375 407.15625 C 225.19774 412.77735 223.76017 417.604 222.65625 421.21875 C 221.5807 424.74061 220.63108 427.47631 220.71875 427.28125 C 217.28896 433.31573 216.82208 437.2478 211.06922 442.38396 C 204.61903 448.02912 199.36735 452.19943 197.5447 453.47336 C 192.9153 456.8363 190.76315 463.93342 193.20779 467.44015 C 196.28863 472.21929 202.6514 472.95237 207.30176 471.52261 C 211.71737 470.12091 218.70726 467.71318 226.8125 461 L 226.875 460.90625 L 226.96875 460.84375 C 238.24677 451.17008 242.41917 439.42932 242.84375 438.75 L 243.4375 437.84375 L 243.84375 436.84375 C 244.82102 434.43815 245.40636 432.317 246.5625 428.53125 C 247.71864 424.7455 249.18427 419.85462 250.84375 414.1875 C 254.16272 402.85327 258.30046 388.40398 262.53125 373.78125 C 266.76204 359.15852 271.06756 344.3677 274.65625 332.375 C 278.24494 320.3823 280.51216 310.53277 281.35027 308.4375 C 283.39015 303.33781 284.43225 297.83229 283.03777 292.3125 C 281.64329 286.79271 277.47622 282.3378 273.73557 281.3022 C 265.19726 278.91346 267.46277 272.77194 271.83107 272.76304 L 308.43704 272.6885 L 308.52727 249.30852 C 308.52702 249.30802 284.76644 249.30802 270.37077 249.30802 z "
         id="path593"
         sodipodi:nodetypes="ccccscccccsscsccccccccccccssccc"
         transform="translate(-23.03307,388.6831)" />
      <path
         style="font-size:12;fill:#ffffff;fill-opacity:1;fill-rule:evenodd;stroke:#000000;stroke-width:25;stroke-opacity:1;"
         d="M 401.64028 457.81941 L 470.73968 288.66983 "
         id="path599"
         transform="translate(-23.03307,388.6831)" />
      <path
         style="font-size:12;fill:#ffffff;fill-opacity:1;fill-rule:evenodd;stroke:#000000;stroke-width:9.125;stroke-linecap:round;stroke-opacity:1;"
         d="M 370.6895 403.83551 L 426.83276 522.6001 "
         id="path600"
         transform="translate(-23.03307,388.6831)" />
      <path
         sodipodi:type="arc"
         style="font-size:12;fill:#ffffff;fill-rule:evenodd;stroke:#000000;stroke-width:31.305;fill-opacity:1;stroke-opacity:1;"
         id="path597"
         d="M 278.912857 461.962708 A 78.380615 78.380615 0 1 0 122.151627,461.962708 A 78.3806 78.3806 0 1 0 278.913 461.963 L 200.532242 461.962708 z"
         sodipodi:cx="200.532242"
         sodipodi:cy="461.962708"
         sodipodi:rx="78.380615"
         sodipodi:ry="78.380615"
         transform="matrix(0.392857,0.000000,0.000000,0.405844,297.9785,663.4155)" />
      <path
         style="font-size:12;fill:#ffffff;fill-opacity:1;fill-rule:evenodd;stroke:#000000;stroke-width:12.75;stroke-opacity:1;"
         d="M 355.70125 407.47809 L 392.58121 407.81615 "
         id="path601"
         sodipodi:nodetypes="cc"
         transform="translate(-23.03307,388.6831)" />
      <path
         style="font-size:12;fill:#ffffff;fill-opacity:1;fill-rule:evenodd;stroke:#000000;stroke-width:12.75;stroke-opacity:1;"
         d="M 408.03233 517.60595 L 444.91229 517.94401 "
         id="path602"
         sodipodi:nodetypes="cc"
         transform="translate(-23.03307,388.6831)" />
      <path
         style="font-size:12;fill:#000000;fill-rule:evenodd;stroke:#000000;stroke-width:1pt;fill-opacity:1;stroke-opacity:1;"
         d="M 504.56994 273.55381 L 417.83573 273.55381 C 414.59669 273.55381 410.41609 279.28343 414.5967 283.09097 C 419.1182 287.3942 459.76326 296.22706 459.76326 296.22706 C 459.76326 296.22706 470.91995 299.28615 476.85818 298.56637 C 482.79641 297.84658 503.31031 296.04712 504.56994 273.55381 z "
         id="path603"
         sodipodi:nodetypes="cssccc"
         transform="translate(-23.03307,388.6831)" />
    </g>
  </g>
  <rdf:RDF xmlns="http://web.resource.org/cc/"
      xmlns:dc="http://purl.org/dc/elements/1.1/"
      xmlns:rdf="http://www.w3.org/1999/02/22-rdf-syntax-ns#">
  <Work rdf:about="">
     <dc:title>SVG Road Signs</dc:title>
     <dc:rights><Agent>
        <dc:title>John Cliff</dc:title>
     </Agent></dc:rights>
     <dc:type rdf:resource="http://purl.org/dc/dcmitype/StillImage" />
     <license rdf:resource="http://web.resource.org/cc/PublicDomain" />
  </Work>
  
  <License rdf:about="http://web.resource.org/cc/PublicDomain">
     <permits rdf:resource="http://web.resource.org/cc/Reproduction" />
     <permits rdf:resource="http://web.resource.org/cc/Distribution" />
     <permits rdf:resource="http://web.resource.org/cc/DerivativeWorks" />
  </License>
  
</rdf:RDF>
</svg>
