<?xml version="1.0" standalone="no"?>
<!DOCTYPE svg PUBLIC "-//W3C//DTD SVG 20010904//EN"
"http://www.w3.org/TR/2001/REC-SVG-20010904/DTD/svg10.dtd"
[
 <!ATTLIST svg
  xmlns:xlink CDATA #FIXED "http://www.w3.org/1999/xlink">
]>
<!-- Created with Sodipodi ("http://www.sodipodi.com/") -->
<svg
   id="svg1"
   sodipodi:version="0.28pre"
   width="256pt"
   height="256pt"
   sodipodi:docbase="/home/lauris/cvs/sodipodi/samples/"
   sodipodi:docname="/home/lauris/cvs/sodipodi/samples/icons.svg"
   xmlns="http://www.w3.org/2000/svg"
   xmlns:sodipodi="http://sodipodi.sourceforge.net/DTD/sodipodi-0.dtd"
   xmlns:xlink="http://www.w3.org/1999/xlink">
  <defs
     id="defs3" />
  <sodipodi:namedview
     id="base"
     gridspacingy="1pt"
     gridspacingx="1pt"
     showgrid="true"
     snaptogrid="true" />
  <rect
     style="font-size:12;fill:#b5b5b5;fill-rule:evenodd;stroke-width:0.125;fill-opacity:1;stroke:#000000;stroke-opacity:0.431373;"
     id="rect149"
     x="40.000000"
     y="280.000000"
     width="20.000000"
     height="20.000000"
     rx="0.000000"
     ry="0.000000" />
  <rect
     style="font-size:12;fill-rule:evenodd;stroke-width:0.992152;"
     id="rect113"
     x="45.000000"
     y="288.750000"
     width="11.250000"
     height="10.000000"
     rx="0.000000"
     ry="0.000000" />
  <rect
     style="font-size:12;fill:#007f7f;fill-rule:evenodd;stroke-width:0.757773;"
     id="rect114"
     x="46.250000"
     y="290.000000"
     width="8.750000"
     height="7.500000"
     rx="0.000000"
     ry="0.000000" />
  <rect
     style="font-size:12;fill:#b5b5b5;fill-rule:evenodd;stroke-width:0.125;fill-opacity:1;stroke:#000000;stroke-opacity:0.431373;"
     id="rect129"
     x="40.000000"
     y="300.000000"
     width="20.000000"
     height="20.000000"
     rx="0.000000"
     ry="0.000000" />
  <rect
     style="font-size:12;fill:#b5b5b5;fill-rule:evenodd;stroke-width:0.125;fill-opacity:1;stroke:#000000;stroke-opacity:0.431373;"
     id="rect4"
     x="0.000000"
     y="300.000000"
     width="20.000000"
     height="20.000000"
     rx="0.000000"
     ry="0.000000" />
  <rect
     style="font-size:12;fill:#b5b5b5;fill-rule:evenodd;stroke-width:0.125;fill-opacity:1;stroke:#000000;stroke-opacity:0.431373;"
     id="rect9"
     x="20.000000"
     y="300.000000"
     width="20.000000"
     height="20.000000"
     rx="0.000000"
     ry="0.000000" />
  <rect
     style="font-size:12;fill:#b5b5b5;fill-rule:evenodd;stroke-width:0.125;fill-opacity:1;stroke:#000000;stroke-opacity:0.431373;"
     id="rect40"
     x="0.000000"
     y="280.000000"
     width="20.000000"
     height="20.000000"
     rx="0.000000"
     ry="0.000000" />
  <rect
     style="font-size:12;fill:#b5b5b5;fill-rule:evenodd;stroke-width:0.125;fill-opacity:1;stroke:#000000;stroke-opacity:0.431373;"
     id="rect71"
     x="20.000000"
     y="280.000000"
     width="20.000000"
     height="20.000000"
     rx="0.000000"
     ry="0.000000" />
  <rect
     style="font-size:12;fill-rule:evenodd;stroke-width:0.992152;"
     id="rect7"
     x="2.500000"
     y="307.500000"
     width="11.250000"
     height="10.000000"
     rx="0.000000"
     ry="0.000000" />
  <rect
     style="font-size:12;fill:#337d80;fill-rule:evenodd;stroke-width:0.757773;"
     id="rect5"
     x="3.750000"
     y="308.750000"
     width="8.750000"
     height="7.500000"
     rx="0.000000"
     ry="0.000000" />
  <path
     sodipodi:type="arc"
     style="font-size:12;fill-rule:evenodd;stroke-width:0.782624;"
     id="path8"
     d="M 17.500000 308.750000 A 5.625000 5.000000 0 1 0 6.250000,308.750000 A 5.625 5 0 1 0 17.5 308.75 L 11.875000 308.750000 z"
     sodipodi:cx="11.875000"
     sodipodi:cy="308.750000"
     sodipodi:rx="5.625000"
     sodipodi:ry="5.000000"
     transform="matrix(1.11111,0,0,1.25001,-1.94444,-77.1891)" />
  <path
     sodipodi:type="arc"
     style="font-size:12;fill:#ffd0a1;fill-rule:evenodd;stroke-width:0.782624;fill-opacity:1;"
     id="path6"
     d="M 17.500000 308.750000 A 5.625000 5.000000 0 1 0 6.250000,308.750000 A 5.625 5 0 1 0 17.5 308.75 L 11.875000 308.750000 z"
     sodipodi:cx="11.875000"
     sodipodi:cy="308.750000"
     sodipodi:rx="5.625000"
     sodipodi:ry="5.000000"
     transform="matrix(0.888889,0,0,1.00012,0.694444,-0.0372578)" />
  <g
     id="g22"
     style="font-size:12;fill:#ff5056;">
    <rect
       style="fill:#ff5056;fill-opacity:1;fill-rule:evenodd;stroke:none;stroke-opacity:1;stroke-width:1pt;stroke-linejoin:miter;stroke-linecap:butt;"
       id="rect14"
       x="10.000000"
       y="313.750000"
       width="2.500000"
       height="2.500000"
       rx="0.000000"
       ry="0.000000" />
    <rect
       style="fill:#ff5056;fill-opacity:1;fill-rule:evenodd;stroke:none;stroke-opacity:1;stroke-width:1pt;stroke-linejoin:miter;stroke-linecap:butt;"
       id="rect15"
       x="16.250000"
       y="307.500000"
       width="2.500000"
       height="2.500000"
       rx="0.000000"
       ry="0.000000" />
    <rect
       style="fill:#ff5056;fill-opacity:1;fill-rule:evenodd;stroke:none;stroke-opacity:1;stroke-width:1pt;stroke-linejoin:miter;stroke-linecap:butt;"
       id="rect16"
       x="16.250000"
       y="313.750000"
       width="2.500000"
       height="2.500000"
       rx="0.000000"
       ry="0.000000" />
    <rect
       style="fill:#ff5056;fill-opacity:1;fill-rule:evenodd;stroke:none;stroke-opacity:1;stroke-width:1pt;stroke-linejoin:miter;stroke-linecap:butt;"
       id="rect17"
       x="3.750000"
       y="313.750000"
       width="2.500000"
       height="2.500000"
       rx="0.000000"
       ry="0.000000" />
    <rect
       style="fill:#ff5056;fill-opacity:1;fill-rule:evenodd;stroke:none;stroke-opacity:1;stroke-width:1pt;stroke-linejoin:miter;stroke-linecap:butt;"
       id="rect18"
       x="3.750000"
       y="307.500000"
       width="2.500000"
       height="2.500000"
       rx="0.000000"
       ry="0.000000" />
    <rect
       style="fill:#ff5056;fill-opacity:1;fill-rule:evenodd;stroke:none;stroke-opacity:1;stroke-width:1pt;stroke-linejoin:miter;stroke-linecap:butt;"
       id="rect19"
       x="3.750000"
       y="301.250000"
       width="2.500000"
       height="2.500000"
       rx="0.000000"
       ry="0.000000" />
    <rect
       style="font-size:12;fill:#ff5056;fill-rule:evenodd;stroke-width:0.816497pt;fill-opacity:1;"
       id="rect20"
       x="10.000000"
       y="301.250000"
       width="2.500000"
       height="2.500000"
       rx="0.000000"
       ry="0.000000" />
    <rect
       style="fill:#ff5056;fill-opacity:1;fill-rule:evenodd;stroke:none;stroke-opacity:1;stroke-width:1pt;stroke-linejoin:miter;stroke-linecap:butt;"
       id="rect21"
       x="16.250000"
       y="301.250000"
       width="2.500000"
       height="2.500000"
       rx="0.000000"
       ry="0.000000" />
  </g>
  <g
     id="g35"
     style="font-size:12;fill:#ff0000;fill-opacity:0.508475;">
    <rect
       style="font-size:12;fill:#ff0000;fill-rule:evenodd;stroke-width:0.894427pt;fill-opacity:0.508475;"
       id="rect31"
       x="5.000000"
       y="303.750000"
       width="1.250000"
       height="10.000000"
       rx="0.000000"
       ry="0.000000" />
    <rect
       style="font-size:12;fill:#ff0000;fill-rule:evenodd;stroke-width:0.894427pt;fill-opacity:0.508475;"
       id="rect32"
       x="6.250000"
       y="302.500000"
       width="10.000000"
       height="1.250000"
       rx="0.000000"
       ry="0.000000" />
    <rect
       style="font-size:12;fill:#ff0000;fill-rule:evenodd;stroke-width:0.894427pt;fill-opacity:0.508475;"
       id="rect33"
       x="16.250000"
       y="303.750000"
       width="1.250000"
       height="10.000000"
       rx="0.000000"
       ry="0.000000" />
    <rect
       style="font-size:12;fill:#ff0000;fill-rule:evenodd;stroke-width:0.894427pt;fill-opacity:0.508475;"
       id="rect34"
       x="6.250000"
       y="313.750000"
       width="10.000000"
       height="1.250000"
       rx="0.000000"
       ry="0.000000" />
  </g>
  <g
     id="g105">
    <rect
       style="font-size:12;fill-rule:evenodd;stroke-width:0.992152;"
       id="rect41"
       x="2.500000"
       y="287.500000"
       width="11.250000"
       height="10.000000"
       rx="0.000000"
       ry="0.000000" />
    <rect
       style="font-size:12;fill:#337d80;fill-rule:evenodd;stroke-width:0.757773;"
       id="rect42"
       x="3.750000"
       y="288.750000"
       width="8.750000"
       height="7.500000"
       rx="0.000000"
       ry="0.000000" />
    <path
       sodipodi:type="arc"
       style="fill:#000000;fill-opacity:1;fill-rule:evenodd;stroke:none;stroke-opacity:1;stroke-width:0.782624;stroke-linejoin:miter;stroke-linecap:butt;"
       id="path43"
       d="M 17.500000 308.750000 A 5.625000 5.000000 0 1 0 6.250000,308.750000 A 5.625 5 0 1 0 17.5 308.75 L 11.875000 308.750000 z"
       sodipodi:cx="11.875000"
       sodipodi:cy="308.750000"
       sodipodi:rx="5.625000"
       sodipodi:ry="5.000000"
       transform="matrix(1.11111,0,0,1.25001,-1.94444,-97.1891)" />
    <path
       sodipodi:type="arc"
       style="fill:#ffa680;fill-opacity:1;fill-rule:evenodd;stroke:none;stroke-opacity:1;stroke-width:0.782624;stroke-linejoin:miter;stroke-linecap:butt;"
       id="path44"
       d="M 17.500000 308.750000 A 5.625000 5.000000 0 1 0 6.250000,308.750000 A 5.625 5 0 1 0 17.5 308.75 L 11.875000 308.750000 z"
       sodipodi:cx="11.875000"
       sodipodi:cy="308.750000"
       sodipodi:rx="5.625000"
       sodipodi:ry="5.000000"
       transform="matrix(0.888889,0,0,1.00012,0.694444,-20.0373)" />
    <rect
       style="font-size:12;fill:#ff5056;fill-rule:evenodd;stroke-width:1pt;"
       id="rect46"
       x="8.750000"
       y="296.250000"
       width="2.500000"
       height="2.500000"
       rx="0.000000"
       ry="0.000000" />
    <rect
       style="font-size:12;fill:#ff5056;fill-rule:evenodd;stroke-width:1pt;"
       id="rect47"
       x="16.250000"
       y="288.750000"
       width="2.500000"
       height="2.500000"
       rx="0.000000"
       ry="0.000000" />
    <rect
       style="font-size:12;fill:#ff5056;fill-rule:evenodd;stroke-width:1pt;"
       id="rect48"
       x="16.250000"
       y="296.250000"
       width="2.500000"
       height="2.500000"
       rx="0.000000"
       ry="0.000000" />
    <rect
       style="font-size:12;fill:#ff5056;fill-rule:evenodd;stroke-width:1pt;"
       id="rect49"
       x="1.250000"
       y="296.250000"
       width="2.500000"
       height="2.500000"
       rx="0.000000"
       ry="0.000000" />
    <rect
       style="font-size:12;fill:#ff5056;fill-rule:evenodd;stroke-width:1pt;"
       id="rect50"
       x="1.250000"
       y="288.750000"
       width="2.500000"
       height="2.500000"
       rx="0.000000"
       ry="0.000000" />
    <rect
       style="font-size:12;fill:#ff5056;fill-rule:evenodd;stroke-width:1pt;"
       id="rect51"
       x="1.250000"
       y="281.250000"
       width="2.500000"
       height="2.500000"
       rx="0.000000"
       ry="0.000000" />
    <rect
       style="font-size:12;fill:#ff5056;fill-rule:evenodd;stroke-width:0.816497pt;"
       id="rect52"
       x="8.750000"
       y="281.250000"
       width="2.500000"
       height="2.500000"
       rx="0.000000"
       ry="0.000000" />
    <rect
       style="font-size:12;fill:#ff5056;fill-rule:evenodd;stroke-width:1pt;"
       id="rect53"
       x="16.250000"
       y="281.250000"
       width="2.500000"
       height="2.500000"
       rx="0.000000"
       ry="0.000000" />
    <rect
       style="font-size:12;fill:#ff0000;fill-opacity:0.415254;fill-rule:evenodd;stroke-width:3.79473pt;"
       id="rect55"
       x="2.500000"
       y="282.500000"
       width="15.000000"
       height="15.000000"
       rx="0.000000"
       ry="0.000000" />
  </g>
  <g
     id="g119">
    <path
       style="font-size:12;fill:#007f7f;fill-rule:evenodd;stroke-width:0.757773;"
       d="M 23.75 288.75 L 23.75 296.25 L 32.5 296.25 L 32.5 293.75 C 27.5 293.75 26.25 292.5 26.25 288.75 L 23.75 288.75 z "
       id="path81"
       sodipodi:nodetypes="cccccc" />
    <path
       transform="matrix(0.888889,0,0,1.00012,20.6944,-20.0373)"
       style="font-size:12;fill:#007f7f;fill-rule:evenodd;stroke-width:0.782624;"
       d="M 17.5 308.75 C 17.5 311.51 16.0938 313.75 13.2813 313.75 L 13.2813 308.75 L 6.25005 308.75 C 6.25005 305.99 8.77 303.75 11.875 303.75 C 14.98 303.75 17.5 305.99 17.5 308.75 z "
       id="path82"
       sodipodi:nodetypes="cccccc" />
    <path
       style="font-size:12;fill-rule:evenodd;stroke-width:0.757769;"
       d="M 23.75 288.75 L 23.75 296.25 L 32.5 296.25 L 32.5 288.75 L 23.75 288.75 z M 22.5 287.5 L 22.5 297.5 L 33.75 297.5 L 33.75 287.5 L 22.5 287.5 z "
       id="path79" />
    <path
       style="font-size:12;fill-rule:evenodd;stroke-width:0.782624;"
       d="M 37.5 288.751 C 37.5 292.202 34.7 295.002 31.25 295.002 C 27.8 295.002 25 292.202 25 288.751 C 25 285.301 27.8 282.501 31.25 282.501 C 34.7 282.501 37.5 285.301 37.5 288.751 z M 36.25 288.75 C 36.25 291.51 34.01 293.75 31.25 293.75 C 28.49 293.75 26.25 291.51 26.25 288.75 C 26.25 285.989 28.49 283.749 31.25 283.749 C 34.01 283.749 36.25 285.989 36.25 288.75 z "
       id="path85" />
  </g>
  <g
     id="g124">
    <rect
       style="font-size:12;fill-rule:evenodd;stroke-width:0.992152;"
       id="rect10"
       x="22.500000"
       y="307.500000"
       width="11.250000"
       height="10.000000"
       rx="0.000000"
       ry="0.000000" />
    <rect
       style="font-size:12;fill:#007f7f;fill-rule:evenodd;stroke-width:0.757773;fill-opacity:1;"
       id="rect11"
       x="23.750000"
       y="308.750000"
       width="8.750000"
       height="7.500000"
       rx="0.000000"
       ry="0.000000" />
    <path
       sodipodi:type="arc"
       style="fill:#000000;fill-opacity:1;fill-rule:evenodd;stroke:none;stroke-opacity:1;stroke-width:0.782624;stroke-linejoin:miter;stroke-linecap:butt;"
       id="path12"
       d="M 17.500000 308.750000 A 5.625000 5.000000 0 1 0 6.250000,308.750000 A 5.625 5 0 1 0 17.5 308.75 L 11.875000 308.750000 z"
       sodipodi:cx="11.875000"
       sodipodi:cy="308.750000"
       sodipodi:rx="5.625000"
       sodipodi:ry="5.000000"
       transform="matrix(1.11111,0,0,1.25001,18.0556,-77.1891)" />
    <path
       sodipodi:type="arc"
       style="fill:#007f7f;fill-opacity:1;fill-rule:evenodd;stroke:none;stroke-opacity:1;stroke-width:0.782624;stroke-linejoin:miter;stroke-linecap:butt;"
       id="path13"
       d="M 17.500000 308.750000 A 5.625000 5.000000 0 1 0 6.250000,308.750000 A 5.625 5 0 1 0 17.5 308.75 L 11.875000 308.750000 z"
       sodipodi:cx="11.875000"
       sodipodi:cy="308.750000"
       sodipodi:rx="5.625000"
       sodipodi:ry="5.000000"
       transform="matrix(0.888889,0,0,1.00012,20.6944,-0.0372578)" />
  </g>
  <path
     sodipodi:type="arc"
     style="font-size:12;fill-rule:evenodd;stroke-width:0.782624;"
     id="path91"
     d="M 17.500000 308.750000 A 5.625000 5.000000 0 1 0 6.250000,308.750000 A 5.625 5 0 1 0 17.5 308.75 L 11.875000 308.750000 z"
     sodipodi:cx="11.875000"
     sodipodi:cy="308.750000"
     sodipodi:rx="5.625000"
     sodipodi:ry="5.000000"
     transform="matrix(1.11112,0,0,1.25003,34.3054,-95.9469)" />
  <path
     sodipodi:type="arc"
     style="font-size:12;fill:#afffba;fill-rule:evenodd;stroke-width:0.782624;fill-opacity:1;"
     id="path92"
     d="M 17.500000 308.750000 A 5.625000 5.000000 0 1 0 6.250000,308.750000 A 5.625 5 0 1 0 17.5 308.75 L 11.875000 308.750000 z"
     sodipodi:cx="11.875000"
     sodipodi:cy="308.750000"
     sodipodi:rx="5.625000"
     sodipodi:ry="5.000000"
     transform="matrix(0.888888,0,0,0.999998,36.9444,-18.7502)" />
  <rect
     style="font-size:12;fill-rule:evenodd;stroke-width:0.992152;"
     id="rect105"
     x="45.000000"
     y="282.499995"
     width="11.250000"
     height="10.000000"
     rx="0.000000"
     ry="0.000000" />
  <rect
     style="font-size:12;fill:#007f7f;fill-rule:evenodd;stroke-width:0.757773;"
     id="rect106"
     x="46.250000"
     y="283.749995"
     width="8.750000"
     height="7.500000"
     rx="0.000000"
     ry="0.000000" />
  <path
     style="fill:#000000;fill-rule:evenodd;stroke:none;stroke-opacity:1;stroke-width:1pt;stroke-linejoin:miter;stroke-linecap:butt;fill-opacity:1;"
     d="M 48.6501 317.5 L 48.6501 315 L 53.6501 311.25 L 58.6501 315 L 58.6501 317.5 L 57.4001 317.5 L 57.4001 320 L 49.9001 320 L 49.9001 317.5 L 48.6501 317.5 z "
     id="path157"
     transform="matrix(1,0,0,-1,0.0999,606.25)"
     sodipodi:nodetypes="cccccccccc" />
  <path
     style="fill:#ff7572;fill-rule:evenodd;stroke:none;stroke-opacity:1;stroke-width:1pt;stroke-linejoin:miter;stroke-linecap:butt;fill-opacity:1;"
     d="M 48.6501 316.25 L 53.6501 312.5 L 58.6501 316.25 L 56.1501 316.25 L 56.1501 320 L 51.1501 320 L 51.1501 316.25 L 48.6501 316.25 z "
     id="path158"
     transform="matrix(1,0,0,-1,0.0999,606.25)"
     sodipodi:nodetypes="cccccccc" />
  <rect
     style="font-size:12;fill:#b5b5b5;fill-rule:evenodd;stroke-width:0.125;fill-opacity:1;stroke:#000000;stroke-opacity:0.431373;"
     id="rect159"
     x="60.000000"
     y="300.000000"
     width="20.000000"
     height="20.000000"
     rx="0.000000"
     ry="0.000000" />
  <rect
     style="font-size:12;fill:#b5b5b5;fill-rule:evenodd;stroke-width:0.125;fill-opacity:1;stroke:#000000;stroke-opacity:0.431373;"
     id="rect169"
     x="60.000000"
     y="280.000000"
     width="20.000000"
     height="20.000000"
     rx="0.000000"
     ry="0.000000" />
  <rect
     style="font-size:12;fill-rule:evenodd;stroke-width:0.992152;"
     id="rect125"
     x="45.000000"
     y="308.749995"
     width="11.250000"
     height="10.000000"
     rx="0.000000"
     ry="0.000000" />
  <rect
     style="font-size:12;fill:#007f7f;fill-rule:evenodd;stroke-width:0.757773;"
     id="rect126"
     x="46.250000"
     y="309.999995"
     width="8.750000"
     height="7.500000"
     rx="0.000000"
     ry="0.000000" />
  <path
     sodipodi:type="arc"
     style="font-size:12;fill-rule:evenodd;stroke-width:0.782624;"
     id="path127"
     d="M 17.500000 308.750000 A 5.625000 5.000000 0 1 0 6.250000,308.750000 A 5.625 5 0 1 0 17.5 308.75 L 11.875000 308.750000 z"
     sodipodi:cx="11.875000"
     sodipodi:cy="308.750000"
     sodipodi:rx="5.625000"
     sodipodi:ry="5.000000"
     transform="matrix(1.11112,0,0,1.25003,34.3054,-75.9469)" />
  <path
     sodipodi:type="arc"
     style="font-size:12;fill:#afffba;fill-rule:evenodd;stroke-width:0.782624;fill-opacity:1;"
     id="path128"
     d="M 17.500000 308.750000 A 5.625000 5.000000 0 1 0 6.250000,308.750000 A 5.625 5 0 1 0 17.5 308.75 L 11.875000 308.750000 z"
     sodipodi:cx="11.875000"
     sodipodi:cy="308.750000"
     sodipodi:rx="5.625000"
     sodipodi:ry="5.000000"
     transform="matrix(0.888888,0,0,0.999998,36.9444,1.2498)" />
  <rect
     style="font-size:12;fill-rule:evenodd;stroke-width:0.992152;"
     id="rect130"
     x="45.000000"
     y="302.499995"
     width="11.250000"
     height="10.000000"
     rx="0.000000"
     ry="0.000000" />
  <rect
     style="font-size:12;fill:#007f7f;fill-rule:evenodd;stroke-width:0.757773;"
     id="rect131"
     x="46.250000"
     y="303.749995"
     width="8.750000"
     height="7.500000"
     rx="0.000000"
     ry="0.000000" />
  <path
     style="fill:#000000;fill-rule:evenodd;stroke:none;stroke-opacity:1;stroke-width:1pt;stroke-linejoin:miter;stroke-linecap:butt;fill-opacity:1;"
     d="M 48.6501 317.5 L 48.6501 315 L 53.6501 311.25 L 58.6501 315 L 58.6501 317.5 L 57.4001 317.5 L 57.4001 320 L 49.9001 320 L 49.9001 317.5 L 48.6501 317.5 z "
     id="path132"
     transform="translate(0.0999,-6.25001)"
     sodipodi:nodetypes="cccccccccc" />
  <path
     style="fill:#ff7572;fill-rule:evenodd;stroke:none;stroke-opacity:1;stroke-width:1pt;stroke-linejoin:miter;stroke-linecap:butt;fill-opacity:1;"
     d="M 48.6501 316.25 L 53.6501 312.5 L 58.6501 316.25 L 56.1501 316.25 L 56.1501 320 L 51.1501 320 L 51.1501 316.25 L 48.6501 316.25 z "
     id="path133"
     transform="translate(0.0999,-6.25001)"
     sodipodi:nodetypes="cccccccc" />
  <rect
     style="font-size:12;fill-rule:evenodd;stroke-width:0.992152;"
     id="rect134"
     x="65.000000"
     y="288.750000"
     width="11.250000"
     height="10.000000"
     rx="0.000000"
     ry="0.000000" />
  <rect
     style="font-size:12;fill:#afffba;fill-rule:evenodd;stroke-width:0.757773;fill-opacity:1;"
     id="rect135"
     x="66.250000"
     y="290.000000"
     width="8.750000"
     height="7.500000"
     rx="0.000000"
     ry="0.000000" />
  <path
     sodipodi:type="arc"
     style="font-size:12;fill-rule:evenodd;stroke-width:0.782624;"
     id="path136"
     d="M 17.500000 308.750000 A 5.625000 5.000000 0 1 0 6.250000,308.750000 A 5.625 5 0 1 0 17.5 308.75 L 11.875000 308.750000 z"
     sodipodi:cx="11.875000"
     sodipodi:cy="308.750000"
     sodipodi:rx="5.625000"
     sodipodi:ry="5.000000"
     transform="matrix(1.11112,0,0,1.25003,54.3054,-95.9469)" />
  <path
     sodipodi:type="arc"
     style="font-size:12;fill:#007f7f;fill-rule:evenodd;stroke-width:0.782624;fill-opacity:1;"
     id="path137"
     d="M 17.500000 308.750000 A 5.625000 5.000000 0 1 0 6.250000,308.750000 A 5.625 5 0 1 0 17.5 308.75 L 11.875000 308.750000 z"
     sodipodi:cx="11.875000"
     sodipodi:cy="308.750000"
     sodipodi:rx="5.625000"
     sodipodi:ry="5.000000"
     transform="matrix(0.888888,0,0,0.999998,56.9444,-18.7502)" />
  <rect
     style="font-size:12;fill-rule:evenodd;stroke-width:0.992152;"
     id="rect138"
     x="65.000000"
     y="282.500000"
     width="11.250000"
     height="10.000000"
     rx="0.000000"
     ry="0.000000" />
  <rect
     style="font-size:12;fill:#007f7f;fill-rule:evenodd;stroke-width:0.757773;"
     id="rect139"
     x="66.250000"
     y="283.750000"
     width="8.750000"
     height="7.500000"
     rx="0.000000"
     ry="0.000000" />
  <path
     style="fill:#000000;fill-rule:evenodd;stroke:none;stroke-opacity:1;stroke-width:1pt;stroke-linejoin:miter;stroke-linecap:butt;fill-opacity:1;"
     d="M 48.6501 317.5 L 48.6501 315 L 53.6501 311.25 L 58.6501 315 L 58.6501 317.5 L 57.4001 317.5 L 57.4001 320 L 49.9001 320 L 49.9001 317.5 L 48.6501 317.5 z "
     id="path140"
     transform="matrix(1,0,0,-1,20.0999,606.25)"
     sodipodi:nodetypes="cccccccccc" />
  <path
     style="fill:#ff7572;fill-rule:evenodd;stroke:none;stroke-opacity:1;stroke-width:1pt;stroke-linejoin:miter;stroke-linecap:butt;fill-opacity:1;"
     d="M 48.6501 316.25 L 53.6501 312.5 L 58.6501 316.25 L 56.1501 316.25 L 56.1501 320 L 51.1501 320 L 51.1501 316.25 L 48.6501 316.25 z "
     id="path141"
     transform="matrix(1,0,0,-1,20.0999,606.25)"
     sodipodi:nodetypes="cccccccc" />
  <rect
     style="font-size:12;fill-rule:evenodd;stroke-width:0.992152;"
     id="rect142"
     x="65.000000"
     y="308.750000"
     width="11.250000"
     height="10.000000"
     rx="0.000000"
     ry="0.000000" />
  <rect
     style="font-size:12;fill:#007f7f;fill-rule:evenodd;stroke-width:0.757773;"
     id="rect143"
     x="66.250000"
     y="310.000000"
     width="8.750000"
     height="7.500000"
     rx="0.000000"
     ry="0.000000" />
  <path
     sodipodi:type="arc"
     style="font-size:12;fill-rule:evenodd;stroke-width:0.782624;"
     id="path144"
     d="M 17.500000 308.750000 A 5.625000 5.000000 0 1 0 6.250000,308.750000 A 5.625 5 0 1 0 17.5 308.75 L 11.875000 308.750000 z"
     sodipodi:cx="11.875000"
     sodipodi:cy="308.750000"
     sodipodi:rx="5.625000"
     sodipodi:ry="5.000000"
     transform="matrix(1.11112,0,0,1.25003,54.3054,-75.9469)" />
  <path
     sodipodi:type="arc"
     style="font-size:12;fill:#007f7f;fill-rule:evenodd;stroke-width:0.782624;fill-opacity:1;"
     id="path145"
     d="M 17.500000 308.750000 A 5.625000 5.000000 0 1 0 6.250000,308.750000 A 5.625 5 0 1 0 17.5 308.75 L 11.875000 308.750000 z"
     sodipodi:cx="11.875000"
     sodipodi:cy="308.750000"
     sodipodi:rx="5.625000"
     sodipodi:ry="5.000000"
     transform="matrix(0.888888,0,0,0.999998,56.9444,1.2498)" />
  <rect
     style="font-size:12;fill-rule:evenodd;stroke-width:0.992152;"
     id="rect146"
     x="65.000000"
     y="302.500000"
     width="11.250000"
     height="10.000000"
     rx="0.000000"
     ry="0.000000" />
  <rect
     style="font-size:12;fill:#afffba;fill-rule:evenodd;stroke-width:0.757773;fill-opacity:1;"
     id="rect147"
     x="66.250000"
     y="303.750000"
     width="8.750000"
     height="7.500000"
     rx="0.000000"
     ry="0.000000" />
  <path
     style="fill:#000000;fill-rule:evenodd;stroke:none;stroke-opacity:1;stroke-width:1pt;stroke-linejoin:miter;stroke-linecap:butt;fill-opacity:1;"
     d="M 48.6501 317.5 L 48.6501 315 L 53.6501 311.25 L 58.6501 315 L 58.6501 317.5 L 57.4001 317.5 L 57.4001 320 L 49.9001 320 L 49.9001 317.5 L 48.6501 317.5 z "
     id="path148"
     transform="translate(20.0999,-6.25001)"
     sodipodi:nodetypes="cccccccccc" />
  <path
     style="fill:#ff7572;fill-rule:evenodd;stroke:none;stroke-opacity:1;stroke-width:1pt;stroke-linejoin:miter;stroke-linecap:butt;fill-opacity:1;"
     d="M 48.6501 316.25 L 53.6501 312.5 L 58.6501 316.25 L 56.1501 316.25 L 56.1501 320 L 51.1501 320 L 51.1501 316.25 L 48.6501 316.25 z "
     id="path149"
     transform="translate(20.0999,-6.25001)"
     sodipodi:nodetypes="cccccccc" />
</svg>
