<?xml version="1.0" standalone="no"?>
<!DOCTYPE svg PUBLIC "-//W3C//DTD SVG 20010904//EN"
"http://www.w3.org/TR/2001/REC-SVG-20010904/DTD/svg10.dtd"
[
 <!ATTLIST svg
  xmlns:xlink CDATA #FIXED "http://www.w3.org/1999/xlink">
]>
<!-- Created with Sodipodi ("http://www.sodipodi.com/") -->
<svg
   id="svg559"
   sodipodi:version="0.28pre2"
   width="320pt"
   height="320pt"
   sodipodi:docname="samples/inkscape.logo.svg"
   sodipodi:docbase="samples/"
   xmlns="http://www.w3.org/2000/svg"
   xmlns:sodipodi="http://sodipodi.sourceforge.net/DTD/sodipodi-0.dtd"
   xmlns:xlink="http://www.w3.org/1999/xlink">
  <defs
     id="defs561">
    <linearGradient
       id="linearGradient583">
      <stop
         style="stop-color:#ffffff;stop-opacity:1;"
         offset="0.000000"
         id="stop584" />
      <stop
         style="stop-color:#ffffff;stop-opacity:0;"
         offset="1.000000"
         id="stop585" />
    </linearGradient>
    <linearGradient
       xlink:href="#linearGradient583"
       id="linearGradient586"
       x1="0.497940"
       y1="0.009092"
       x2="0.485597"
       y2="0.972727" />
  </defs>
  <sodipodi:namedview
     id="base" />
  <rect
     style="fill-rule:evenodd;stroke:none;fill:#fdffff;fill-opacity:1;stroke-opacity:1;stroke-width:1pt;stroke-linejoin:miter;stroke-linecap:butt;"
     id="rect133"
     x="116.812508"
     y="195.126602"
     width="123.052933"
     height="91.900301"
     rx="0"
     ry="0" />
  <path
     style="font-size:12;fill-rule:evenodd;stroke-width:1pt;"
     d="M 315.281 323.432 C 333.753 327.126 337.449 340.057 333.753 343.751 C 330.06 347.446 320.824 351.14 313.435 345.598 C 306.044 340.057 306.044 327.126 315.281 323.432 z "
     id="path580" />
  <path
     style="font-size:12;fill-rule:evenodd;stroke-width:1pt;"
     d="M 128.348 324.666 C 126.548 325.146 111.511 312.188 99.6028 318.194 C 87.6977 324.199 79.7057 337.646 90.8277 343.164 C 101.951 348.682 109.902 342.319 119.653 335.472 C 129.405 328.626 129.053 327.307 128.348 324.666 z "
     id="path582" />
  <path
     style="font-size:12;fill-rule:evenodd;stroke-width:1pt;"
     d="M 348.056 291.792 C 358.102 289.28 381.308 291.792 377.612 306.568 C 373.919 321.348 342.517 315.804 322.195 308.418 C 320.348 293.639 343.321 292.975 348.056 291.792 z "
     id="path583" />
  <path
     style="font-size:12;fill:#ffffff;fill-rule:evenodd;stroke-width:1pt;fill-opacity:1;"
     d="M 188.69 19.1008 L 70.2487 139.309 L 328.343 133.122 L 207.251 19.1008 L 188.69 19.1008 z "
     id="path615"
     sodipodi:nodetypes="ccccc" />
  <path
     style="font-size:12;fill-rule:evenodd;stroke-width:1pt;fill:#000000;fill-opacity:1;"
     d="M 17.8779 175.502 C 9.37086 184.009 5.11687 195.11 5.11687 206.212 L 394.436 206.212 C 394.436 195.11 390.183 184.009 381.676 175.502 L 230.487 24.3133 C 213.473 7.29931 186.08 7.29931 169.066 24.3133 L 17.8779 175.502 z M 155.765 58.2479 C 138.402 67.0629 109.878 104.098 109.878 109.387 L 109.337 131.41 L 158.795 126.45 L 176.508 84.9819 L 190.252 132.403 L 226.218 108.395 L 249.486 119.307 L 253.707 87.3629 L 296.022 107.799 C 296.022 107.138 295.974 106.477 295.876 105.818 C 295.778 105.16 295.632 104.503 295.436 103.852 C 295.241 103.2 294.997 102.554 294.704 101.914 C 294.411 101.275 294.069 100.643 293.678 100.02 C 293.288 99.3979 292.848 98.7849 292.36 98.1839 C 291.871 97.5829 291.334 96.9949 290.748 96.4209 C 290.162 95.8459 289.527 95.2869 288.843 94.7439 C 288.159 94.2009 287.426 93.6749 286.644 93.1679 L 215.205 40.1867 C 202.7 32.0807 200.026 27.3187 187.521 35.4247 L 155.765 58.2479 z "
     id="path588" />
  <path
     style="font-size:12;fill-rule:evenodd;stroke-width:1pt;fill:#000000;fill-opacity:1;"
     d="M 91.3757 239.604 C 82.8687 231.097 5.11687 216.655 5.11687 205.553 L 394.436 205.553 C 394.436 216.655 397.212 225.65 370.869 237.614 C 318.017 261.616 293.518 255.222 280.919 267.821 C 268.32 280.42 303.647 287.566 314.433 304.341 C 287.636 334.479 255.827 334.55 243.228 347.149 C 230.629 359.748 267.402 358.642 254.803 371.241 C 231.035 388.255 195.536 396.361 178.522 379.347 C 186.187 346.484 143.868 362.254 131.269 349.655 C 118.67 337.056 157.019 323.621 144.42 311.022 C 131.82 298.423 68.2737 286.659 55.6747 274.06 C 43.0759 261.461 103.975 252.203 91.3757 239.604 z M 132.733 247.332 C 155.248 253.171 180.286 260.817 200.384 260.954 L 201.253 270.008 C 184.043 268.234 147.621 259.934 139.035 255.548 L 132.733 247.332 z "
     id="path591" />
  <path
     style="font-size:12;fill-rule:evenodd;stroke-width:1pt;"
     d="M 117.082 320.223 C 116.313 318.244 105.402 317.755 97.3765 326.282 C 92.2011 331.865 89.9815 346.851 102.809 345.863 C 114.925 344.924 107.935 331.277 108.07 327.141 C 108.216 322.598 112.313 319.536 117.082 320.223 z "
     id="path15"
     transform="translate(-66.0436,3.73832)"
     sodipodi:nodetypes="csssc" />
  <path
     style="font-size:12;fill:#ffffff;fill-rule:evenodd;stroke-width:1pt;fill-opacity:1;"
     d="M 35.0446 338.383 C 35.541 339.388 35.4125 340.394 35.362 341.399 C 36.4992 340.953 37.6363 340.819 38.7735 340.764 C 38.2494 339.732 38.0379 338.701 38.1388 337.669 C 37.1074 338.219 36.076 338.457 35.0446 338.383 z "
     id="path17"
     sodipodi:nodetypes="ccccc"
     transform="translate(-6.09934,-1.90289)" />
</svg>
