<?xml version="1.0" encoding="UTF-8" standalone="no"?>
<!DOCTYPE svg PUBLIC "-//W3C//DTD SVG 20010904//EN"
"http://www.w3.org/TR/2001/REC-SVG-20010904/DTD/svg10.dtd">
<!-- Created with Inkscape (http://www.inkscape.org/) -->
<svg
   id="svg655"
   sodipodi:version="0.32"
   inkscape:version="0.37"
   width="640pt"
   height="480pt"
   sodipodi:docname="05a-uses-symbology.svg"
   xmlns="http://www.w3.org/2000/svg"
   xmlns:inkscape="http://www.inkscape.org/namespaces/inkscape"
   xmlns:sodipodi="http://sodipodi.sourceforge.net/DTD/sodipodi-0.dtd"
   xmlns:xml="http://www.w3.org/XML/1998/namespace"
   xmlns:xlink="http://www.w3.org/1999/xlink"
   sodipodi:docbase="/usr/src/inkscape-project/inkscape/share/examples/presentation">
  <defs
     id="defs657" />
  <sodipodi:namedview
     id="base"
     pagecolor="#ffffff"
     bordercolor="#666666"
     borderopacity="1.0"
     inkscape:pageopacity="0.0"
     inkscape:pageshadow="2"
     inkscape:zoom="0.61399264"
     inkscape:cx="555.373769"
     inkscape:cy="183.373527"
     inkscape:window-width="1024"
     inkscape:window-height="724"
     inkscape:window-x="0"
     inkscape:window-y="25"
     showguides="true"
     snaptoguides="true" />
  <rect
     style="font-size:12;fill:#0082ab;fill-rule:evenodd;stroke:none;stroke-width:2.05668pt;"
     id="rect3983"
     width="809.03656006"
     height="607.49725342"
     x="-3.17360997"
     y="-0.66571766" />
  <text
     xml:space="preserve"
     style="fill:#ffffff;fill-opacity:1;stroke:none;font-family:Nimbus Sans L;font-style:normal;font-weight:bold;font-size:12;stroke-opacity:1;stroke-width:1pt;stroke-linejoin:miter;stroke-linecap:butt;text-anchor:start;writing-mode:lr;"
     x="13.6218543"
     y="70.2358322"
     id="text4185"
     transform="scale(1.601746,1.601741)"
     sodipodi:linespacing="100%"><tspan
       x="13.6218538"
       y="70.2358322"
       sodipodi:role="line"
       id="tspan4186">Open Source Scalable Vector Graphics Editor . www.inkscape.org</tspan></text>
  <path
     style="font-size:40;font-weight:normal;fill:#000000;stroke-width:1pt;font-family:Century Schoolbook L;fill-opacity:0.5;"
     d="M 625.66399 24.508859 L 575.59097 24.508859 L 575.59097 27.712694 L 577.0907 27.712694 C 583.83927 27.712694 584.58918 28.053561 584.58918 30.916536 L 584.58918 32.893371 L 584.58918 65.340709 L 584.58918 67.317595 C 584.58918 70.180583 583.83927 70.521401 577.0907 70.521401 L 575.59097 70.521401 L 575.59097 73.725227 L 626.74707 73.725227 L 628.41339 55.52476 L 624.74752 55.52476 C 623.66433 60.296411 621.74811 64.522737 619.74847 66.499573 C 617.16574 69.226284 612.41671 70.521401 605.41815 70.521401 L 599.91929 70.521401 C 597.41985 70.521401 595.33689 70.112424 594.58706 69.498915 C 594.00384 69.089905 593.92051 68.680937 593.92051 67.249384 L 593.92051 49.866876 L 595.58687 49.866876 C 600.66919 49.866876 602.75201 50.275922 604.41836 51.707426 C 606.58459 53.479765 607.41771 55.66108 607.5844 59.682902 L 611.50025 59.682902 L 611.50025 37.324171 L 607.5844 37.324171 C 607.16775 44.004529 603.83513 46.663016 595.92015 46.663016 L 593.92051 46.663016 L 593.92051 31.121016 C 593.92051 28.189864 594.67041 27.712694 599.16942 27.712694 L 603.50187 27.712694 C 610.83368 27.712694 614.41626 28.326185 617.24905 30.23486 C 619.99847 32.007164 621.99801 35.824524 623.2478 41.959535 L 626.83037 41.959535 L 625.66399 24.508859 z M 515.10354 51.843788 L 524.51826 51.843788 C 532.01671 51.843788 535.93253 51.3666 539.26514 50.071416 C 545.18067 47.753712 548.51331 43.391064 548.51331 38.005856 C 548.51331 32.825221 545.59723 28.871542 540.09836 26.622015 C 536.849 25.258687 531.68342 24.508859 525.93458 24.508859 L 496.774 24.508859 L 496.774 27.712694 L 498.2737 27.712694 C 505.02231 27.712694 505.77215 28.053561 505.77215 30.916536 L 505.77215 32.893371 L 505.77215 65.340709 L 505.77215 67.317595 C 505.77215 70.180583 505.02231 70.521401 498.2737 70.521401 L 496.774 70.521401 L 496.774 73.725227 L 524.76824 73.725227 L 524.76824 70.521401 L 522.60194 70.521401 C 515.85336 70.521401 515.10354 70.180583 515.10354 67.317595 L 515.10354 65.340709 L 515.10354 51.843788 z M 515.10354 48.639929 L 515.10354 31.189185 C 515.10354 28.053561 515.6034 27.712694 520.18584 27.712694 L 525.51804 27.712694 C 534.18291 27.712694 538.26538 31.052865 538.26538 38.278539 C 538.26538 45.299688 534.01628 48.639929 525.18477 48.639929 L 515.10354 48.639929 z M 442.61857 23.554544 L 439.11928 23.554544 L 419.95656 63.295705 C 418.29026 66.840364 417.95704 67.317595 416.70729 68.408246 C 415.37421 69.703396 413.04139 70.521401 410.79184 70.521401 L 410.45855 70.521401 L 410.45855 73.725227 L 432.53729 73.725227 L 432.53729 70.521401 L 430.87096 70.521401 C 426.37192 70.521401 424.12239 69.226284 424.12239 66.635936 C 424.12239 65.817896 424.37234 64.863572 424.87222 63.772894 L 427.62167 57.774236 L 449.70046 57.774236 L 454.1995 66.908576 C 454.69938 67.931109 454.86601 68.408246 454.86601 68.749037 C 454.86601 69.839741 452.78314 70.521401 449.70046 70.521401 L 446.20117 70.521401 L 446.20117 73.725227 L 472.02909 73.725227 L 472.02909 70.521401 L 470.86272 70.521401 C 466.69686 70.521401 465.7804 69.976103 463.86414 66.158748 L 442.61857 23.554544 z M 438.53606 34.733878 L 447.95078 54.093272 L 429.28796 54.093272 L 438.53606 34.733878 z M 381.04797 24.031731 L 377.88196 24.031731 L 374.54932 28.053561 C 368.63385 24.508859 365.38455 23.486375 359.80238 23.486375 C 351.72067 23.486375 345.05537 26.144887 339.3899 31.666356 C 334.05764 36.847043 331.55817 42.573034 331.55817 49.594245 C 331.55817 64.250081 343.30578 74.747703 359.71904 74.747703 C 373.04962 74.747703 381.54789 68.340059 383.46411 56.888088 L 379.54831 56.34274 C 378.71511 59.955551 377.71532 62.409574 376.21566 64.454569 C 372.79966 69.158065 367.46743 71.543911 360.71886 71.543911 C 348.38804 71.543911 342.5559 64.522737 342.5559 49.866876 C 342.5559 42.164066 343.80561 36.983346 346.63841 32.893371 C 349.22119 29.076021 354.38669 26.690227 359.71904 26.690227 C 365.55119 26.690227 370.71676 29.212341 373.88281 33.57504 C 375.46579 35.824524 376.71553 38.483044 378.63183 43.731864 L 382.29772 43.731864 L 381.04797 24.031731 z M 297.64852 24.099891 L 294.56584 24.099891 L 291.23317 28.189864 C 287.31736 25.122368 281.9851 23.486375 276.06975 23.486375 C 265.15538 23.486375 257.82352 29.212341 257.82352 37.733207 C 257.82352 45.163369 262.3226 48.844399 274.5701 51.43476 L 282.48503 53.070753 C 288.65044 54.365895 289.23362 54.50224 290.98329 55.59293 C 293.48277 57.160728 294.81579 59.410271 294.81579 62.068748 C 294.81579 64.795361 293.56605 67.044913 291.06661 68.885408 C 288.31717 70.862252 285.5677 71.612062 280.98532 71.612062 C 274.82001 71.612062 270.40424 70.044212 266.48842 66.499573 C 262.98909 63.295705 261.2395 60.091879 259.98973 54.843084 L 256.40714 54.843084 L 256.74041 74.270556 L 259.98973 74.270556 L 263.73891 69.635236 C 269.32116 73.384373 273.9868 74.747703 281.23527 74.747703 C 293.48277 74.747703 301.31446 68.885408 301.31446 59.751062 C 301.31446 55.52476 299.56482 51.911897 296.31549 49.321545 C 294.06597 47.549224 290.81663 46.390369 284.15132 45.027032 L 275.23655 43.186525 C 267.82146 41.618709 264.32215 38.960198 264.32215 34.802031 C 264.32215 30.030397 269.0712 26.758335 276.15306 26.758335 C 281.9851 26.758335 286.73412 28.803373 290.06682 32.688875 C 292.48299 35.483697 293.98266 38.346707 295.06575 41.823199 L 298.64833 41.823199 L 297.64852 24.099891 z M 185.00524 51.43476 L 185.00524 32.893371 L 185.00524 30.916536 C 185.00524 28.053561 185.7551 27.712694 192.5037 27.712694 L 194.08673 27.712694 L 194.08673 24.508859 L 166.67567 24.508859 L 166.67567 27.712694 L 168.17536 27.712694 C 174.92398 27.712694 175.67379 28.053561 175.67379 30.916536 L 175.67379 32.893371 L 175.67379 65.340709 L 175.67379 67.317595 C 175.67379 70.180583 174.92398 70.521401 168.17536 70.521401 L 166.67567 70.521401 L 166.67567 73.725227 L 194.08673 73.725227 L 194.08673 70.521401 L 192.5037 70.521401 C 185.7551 70.521401 185.00524 70.180583 185.00524 67.317595 L 185.00524 65.340709 L 185.00524 56.683608 L 194.66994 48.708029 L 209.16695 66.090536 C 210.49997 67.726569 210.83324 68.271917 210.83324 68.953577 C 210.83324 70.044212 209.25028 70.521401 205.16778 70.521401 L 202.58495 70.521401 L 202.58495 73.725227 L 231.07905 73.725227 L 231.07905 70.521401 L 229.49609 70.521401 C 224.91369 70.521401 223.74728 70.044212 221.33109 67.113064 L 201.16856 43.322862 L 213.58267 33.166021 C 217.58189 29.689529 222.66413 27.712694 227.66315 27.712694 L 227.66315 24.508859 L 202.00177 24.508859 L 202.00177 27.712694 L 204.08466 27.712694 C 207.91718 27.712694 209.5002 28.326185 209.5002 29.757672 C 209.5002 30.712006 207.8339 32.688875 205.41773 34.665668 L 185.00524 51.43476 z M 91.857649 24.508859 L 74.694515 24.508859 L 74.694515 27.712694 L 76.777429 27.712694 C 81.026547 27.712694 82.942826 28.258025 84.442473 29.96216 L 84.442473 58.933083 C 84.442473 68.271917 82.776197 70.248752 74.777846 70.521401 L 74.777846 73.725227 L 98.523123 73.725227 L 98.523123 70.521401 C 90.607899 70.248752 88.94154 68.271917 88.94154 58.933083 L 88.94154 33.6432 L 126.10075 74.67961 L 129.60003 74.67961 L 129.60003 39.301023 C 129.60003 29.96216 131.26638 27.985393 139.2647 27.712694 L 139.2647 24.508859 L 115.51958 24.508859 L 115.51958 27.712694 C 123.4346 27.985393 125.10091 29.96216 125.10091 39.301023 L 125.10091 60.705396 L 91.857649 24.508859 z M 37.702172 32.893371 L 37.702172 30.916536 C 37.702172 28.053561 38.452008 27.712694 45.11729 27.712694 L 46.783625 27.712694 L 46.783625 24.508859 L 19.20599 24.508859 L 19.20599 27.712694 L 20.872326 27.712694 C 27.620879 27.712694 28.370766 28.053561 28.370766 30.916536 L 28.370766 32.893371 L 28.370766 65.340709 L 28.370766 67.317595 C 28.370766 70.180583 27.620879 70.521401 20.872326 70.521401 L 19.20599 70.521401 L 19.20599 73.725227 L 46.783625 73.725227 L 46.783625 70.521401 L 45.11729 70.521401 C 38.452008 70.521401 37.702172 70.180583 37.702172 67.317595 L 37.702172 65.340709 L 37.702172 32.893371 z "
     id="path642" />
  <path
     style="font-size:40;font-weight:normal;fill:#ffffff;stroke-width:1pt;font-family:Century Schoolbook L;fill-opacity:1;"
     d="M 628.35864 25.925338 L 578.28561 25.925338 L 578.28561 29.12918 L 579.78533 29.12918 C 586.5339 29.12918 587.28381 29.470048 587.28381 32.333024 L 587.28381 34.309858 L 587.28381 66.757152 L 587.28381 68.734035 C 587.28381 71.597036 586.5339 71.937853 579.78533 71.937853 L 578.28561 71.937853 L 578.28561 75.141691 L 629.44172 75.141691 L 631.10803 56.941196 L 627.44216 56.941196 C 626.35898 61.712854 624.44276 65.939181 622.44311 67.916013 C 619.86037 70.642736 615.11134 71.937853 608.11278 71.937853 L 602.61392 71.937853 C 600.11449 71.937853 598.03154 71.528876 597.28169 70.915368 C 596.69847 70.506349 596.61515 70.09738 596.61515 68.665825 L 596.61515 51.283329 L 598.2815 51.283329 C 603.36382 51.283329 605.44664 51.692374 607.113 53.123863 C 609.27922 54.8962 610.11235 57.077516 610.27903 61.099346 L 614.19488 61.099346 L 614.19488 38.740658 L 610.27903 38.740658 C 609.86239 45.421 606.52977 48.079486 598.61479 48.079486 L 596.61515 48.079486 L 596.61515 32.537502 C 596.61515 29.606351 597.36504 29.12918 601.86406 29.12918 L 606.1965 29.12918 C 613.52832 29.12918 617.1109 29.742672 619.94368 31.651346 C 622.6931 33.423651 624.69266 37.241009 625.94244 43.376004 L 629.52502 43.376004 L 628.35864 25.925338 z M 517.79819 53.260224 L 527.21291 53.260224 C 534.71134 53.260224 538.62716 52.783036 541.95978 51.487868 C 547.87531 49.170182 551.20794 44.807535 551.20794 39.422325 C 551.20794 34.241707 548.29186 30.288028 542.793 28.038493 C 539.54363 26.675165 534.37806 25.925338 528.62923 25.925338 L 499.46863 25.925338 L 499.46863 29.12918 L 500.96833 29.12918 C 507.71696 29.12918 508.46678 29.470048 508.46678 32.333024 L 508.46678 34.309858 L 508.46678 66.757152 L 508.46678 68.734035 C 508.46678 71.597036 507.71696 71.937853 500.96833 71.937853 L 499.46863 71.937853 L 499.46863 75.141691 L 527.46289 75.141691 L 527.46289 71.937853 L 525.29659 71.937853 C 518.54801 71.937853 517.79819 71.597036 517.79819 68.734035 L 517.79819 66.757152 L 517.79819 53.260224 z M 517.79819 50.05638 L 517.79819 32.605671 C 517.79819 29.470048 518.29805 29.12918 522.88049 29.12918 L 528.21269 29.12918 C 536.87754 29.12918 540.96002 32.469352 540.96002 39.695008 C 540.96002 46.716159 536.71091 50.05638 527.87942 50.05638 L 517.79819 50.05638 z M 445.31319 24.971021 L 441.81391 24.971021 L 422.65118 64.712149 C 420.98489 68.256805 420.65166 68.734035 419.40191 69.824689 C 418.06884 71.119848 415.73601 71.937853 413.48647 71.937853 L 413.15317 71.937853 L 413.15317 75.141691 L 435.23191 75.141691 L 435.23191 71.937853 L 433.56559 71.937853 C 429.06654 71.937853 426.81701 70.642736 426.81701 68.052376 C 426.81701 67.234341 427.06696 66.280015 427.56684 65.189337 L 430.31629 59.190671 L 452.39508 59.190671 L 456.89414 68.325016 C 457.394 69.347553 457.56064 69.824689 457.56064 70.16548 C 457.56064 71.256193 455.47777 71.937853 452.39508 71.937853 L 448.8958 71.937853 L 448.8958 75.141691 L 474.72372 75.141691 L 474.72372 71.937853 L 473.55734 71.937853 C 469.39151 71.937853 468.47504 71.392555 466.55878 67.575191 L 445.31319 24.971021 z M 441.23069 36.150366 L 450.64541 55.509708 L 431.98259 55.509708 L 441.23069 36.150366 z M 383.7426 25.448209 L 380.57659 25.448209 L 377.24396 29.470048 C 371.32849 25.925338 368.07919 24.902853 362.49701 24.902853 C 354.41529 24.902853 347.75001 27.561364 342.08452 33.082842 C 336.75228 38.263529 334.2528 43.989504 334.2528 51.010697 C 334.2528 65.666525 346.0004 76.164171 362.41366 76.164171 C 375.74425 76.164171 384.24253 69.756503 386.15874 58.304522 L 382.24294 57.759175 C 381.40974 61.371995 380.40995 63.826019 378.9103 65.871013 C 375.49429 70.574508 370.16207 72.960369 363.41349 72.960369 C 351.08265 72.960369 345.25052 65.939181 345.25052 51.283329 C 345.25052 43.580535 346.50025 38.399832 349.33302 34.309858 C 351.91581 30.492508 357.08131 28.106704 362.41366 28.106704 C 368.24583 28.106704 373.4114 30.628828 376.57744 34.991526 C 378.16042 37.241009 379.41016 39.899514 381.32648 45.148335 L 384.99235 45.148335 L 383.7426 25.448209 z M 300.34313 25.516369 L 297.26046 25.516369 L 293.92779 29.606351 C 290.01197 26.538845 284.67972 24.902853 278.76436 24.902853 C 267.85 24.902853 260.51815 30.628828 260.51815 39.149677 C 260.51815 46.579839 265.01722 50.260852 277.26471 52.851196 L 285.17963 54.487189 C 291.34504 55.78233 291.92823 55.918676 293.67791 57.009364 C 296.17739 58.577163 297.51039 60.826714 297.51039 63.485192 C 297.51039 66.211804 296.26066 68.461353 293.76122 70.301851 C 291.01177 72.278695 288.26231 73.02852 283.67992 73.02852 C 277.51462 73.02852 273.09887 71.460664 269.18304 67.916013 C 265.68371 64.712149 263.93412 61.508323 262.68435 56.25952 L 259.10176 56.25952 L 259.43503 75.687021 L 262.68435 75.687021 L 266.43353 71.051688 C 272.01577 74.800837 276.68142 76.164171 283.92987 76.164171 C 296.17739 76.164171 304.00909 70.301851 304.00909 61.167505 C 304.00909 56.941196 302.25944 53.328333 299.0101 50.737998 C 296.76058 48.965693 293.51125 47.806837 286.84592 46.443501 L 277.93116 44.602995 C 270.51607 43.03518 267.01677 40.376667 267.01677 36.218516 C 267.01677 31.446883 271.76581 28.174813 278.84766 28.174813 C 284.67972 28.174813 289.42874 30.219859 292.76143 34.105361 C 295.17761 36.900185 296.67726 39.763176 297.76036 43.239667 L 301.34297 43.239667 L 300.34313 25.516369 z M 187.69985 52.851196 L 187.69985 34.309858 L 187.69985 32.333024 C 187.69985 29.470048 188.44972 29.12918 195.1983 29.12918 L 196.78133 29.12918 L 196.78133 25.925338 L 169.3703 25.925338 L 169.3703 29.12918 L 170.86999 29.12918 C 177.6186 29.12918 178.36842 29.470048 178.36842 32.333024 L 178.36842 34.309858 L 178.36842 66.757152 L 178.36842 68.734035 C 178.36842 71.597036 177.6186 71.937853 170.86999 71.937853 L 169.3703 71.937853 L 169.3703 75.141691 L 196.78133 75.141691 L 196.78133 71.937853 L 195.1983 71.937853 C 188.44972 71.937853 187.69985 71.597036 187.69985 68.734035 L 187.69985 66.757152 L 187.69985 58.100044 L 197.36453 50.124481 L 211.86156 67.50698 C 213.19458 69.143012 213.52785 69.688361 213.52785 70.370021 C 213.52785 71.460664 211.94488 71.937853 207.86237 71.937853 L 205.27955 71.937853 L 205.27955 75.141691 L 233.77364 75.141691 L 233.77364 71.937853 L 232.19069 71.937853 C 227.60829 71.937853 226.44188 71.460664 224.02569 68.529504 L 203.86315 44.739332 L 216.27726 34.582507 C 220.27648 31.106015 225.35873 29.12918 230.35775 29.12918 L 230.35775 25.925338 L 204.69637 25.925338 L 204.69637 29.12918 L 206.77926 29.12918 C 210.61179 29.12918 212.19479 29.742672 212.19479 31.174159 C 212.19479 32.128492 210.52849 34.105361 208.11232 36.082154 L 187.69985 52.851196 z M 94.552266 25.925338 L 77.389124 25.925338 L 77.389124 29.12918 L 79.472039 29.12918 C 83.721149 29.12918 85.637426 29.67451 87.137075 31.378647 L 87.137075 60.349527 C 87.137075 69.688361 85.470798 71.665204 77.472455 71.937853 L 77.472455 75.141691 L 101.21774 75.141691 L 101.21774 71.937853 C 93.302516 71.665204 91.636169 69.688361 91.636169 60.349527 L 91.636169 35.059685 L 128.79539 76.096071 L 132.29466 76.096071 L 132.29466 40.717492 C 132.29466 31.378647 133.961 29.40188 141.95935 29.12918 L 141.95935 25.925338 L 118.21421 25.925338 L 118.21421 29.12918 C 126.12923 29.40188 127.79553 31.378647 127.79553 40.717492 L 127.79553 62.12184 L 94.552266 25.925338 z M 40.39679 34.309858 L 40.39679 32.333024 C 40.39679 29.470048 41.146618 29.12918 47.811899 29.12918 L 49.478235 29.12918 L 49.478235 25.925338 L 21.900608 25.925338 L 21.900608 29.12918 L 23.566935 29.12918 C 30.315489 29.12918 31.065376 29.470048 31.065376 32.333024 L 31.065376 34.309858 L 31.065376 66.757152 L 31.065376 68.734035 C 31.065376 71.597036 30.315489 71.937853 23.566935 71.937853 L 21.900608 71.937853 L 21.900608 75.141691 L 49.478235 75.141691 L 49.478235 71.937853 L 47.811899 71.937853 C 41.146618 71.937853 40.39679 71.597036 40.39679 68.734035 L 40.39679 66.757152 L 40.39679 34.309858 z "
     id="path4235" />
  <g
     id="g643"
     transform="matrix(0.304460,0.000000,0.000000,0.304460,599.7054,-0.793632)">
    <path
       style="fill:#ffffff;fill-rule:evenodd;stroke:black;stroke-opacity:1;stroke-width:1pt;stroke-linejoin:miter;stroke-linecap:butt;fill-opacity:1;"
       d="M 434.63799,346.63623 L 309.39567,306.32835 L 277.72520,137.89903 L 378.49488,35.689778 L 430.31929,54.404148 L 526.77027,149.41556 L 434.63799,346.63623 z "
       id="path727" />
    <path
       style="font-size:12;fill-rule:evenodd;stroke-width:1pt;fill:#000000;fill-opacity:1;"
       d="M 519.35848,366.84429 C 539.46549,370.86525 543.48863,384.94090 539.46549,388.96187 C 535.44559,392.98388 525.39203,397.00485 517.34897,390.97226 C 509.30380,384.94090 509.30380,370.86525 519.35848,366.84429 z "
       id="path580" />
    <path
       style="font-size:12;fill-rule:evenodd;stroke-width:1pt;fill:#000000;fill-opacity:1;"
       d="M 315.87933,368.18746 C 313.92008,368.71001 297.55205,354.60505 284.59003,361.14261 C 271.63132,367.67925 262.93178,382.31649 275.03826,388.32290 C 287.14586,394.32931 295.80057,387.40306 306.41461,379.95003 C 317.02982,372.49813 316.64682,371.06236 315.87933,368.18746 z "
       id="path582" />
    <path
       style="font-size:12;fill-rule:evenodd;stroke-width:1pt;fill:#000000;fill-opacity:1;"
       d="M 555.03447,332.40366 C 565.96956,329.66943 591.22971,332.40366 587.20656,348.48770 C 583.18672,364.57594 549.00517,358.54109 526.88448,350.50140 C 524.87390,334.41422 549.88041,333.69151 555.03447,332.40366 z "
       id="path583" />
    <path
       style="font-size:12;fill-rule:evenodd;stroke-width:1pt;fill:#000000;fill-opacity:1;"
       d="M 390.07456,27.375000 C 377.99014,27.375000 365.92829,31.990024 356.66831,41.250000 L 192.07456,205.81250 C 182.99856,214.88833 178.44249,226.68795 178.26206,238.53125 L 178.19956,238.53125 C 178.19956,238.57342 178.26001,238.61399 178.26206,238.65625 C 178.25955,238.85502 178.19956,239.05122 178.19956,239.25000 L 178.48081,239.25000 C 181.63093,251.23525 263.02472,266.51285 272.10581,275.59375 C 285.81991,289.30797 219.51688,299.37947 233.23081,313.09375 C 246.94491,326.80785 316.10916,339.62944 329.82456,353.34375 C 343.53868,367.05785 301.79778,381.66090 315.51206,395.37500 C 329.22616,409.08929 375.29313,391.94687 366.94956,427.71875 C 385.46952,446.23871 424.10888,437.39497 449.98081,418.87500 C 463.69491,405.16090 423.67284,406.37038 437.38706,392.65625 C 451.10116,378.94197 485.71817,378.86801 514.88706,346.06250 C 503.14630,327.80270 464.70408,320.02673 478.41831,306.31250 C 492.13241,292.59840 518.79444,299.56396 576.32456,273.43750 C 604.40840,260.68288 602.08836,250.99536 601.98081,239.25000 C 601.97855,239.00285 601.98081,238.78030 601.98081,238.53125 L 601.91831,238.53125 C 601.73794,226.68794 597.15038,214.88832 588.07456,205.81250 L 423.51206,41.250000 C 414.25208,31.990024 402.15898,27.375000 390.07456,27.375000 z M 388.66831,48.781250 C 394.04059,48.921198 398.37958,53.016564 406.88706,58.531250 L 484.63706,116.18750 C 485.48818,116.73943 486.29878,117.31518 487.04331,117.90625 C 487.78786,118.49722 488.46794,119.12405 489.10581,119.75000 C 489.74372,120.37482 490.32355,121.00195 490.85581,121.65625 C 491.38697,122.31043 491.86891,122.97918 492.29331,123.65625 C 492.71890,124.33444 493.09950,125.02329 493.41831,125.71875 C 493.73733,126.41546 493.98743,127.13407 494.19956,127.84375 C 494.41293,128.55238 494.59298,129.25258 494.69956,129.96875 C 494.80626,130.68616 494.85581,131.40559 494.85581,132.12500 L 448.79331,109.87500 L 444.19956,144.65625 L 418.85581,132.78125 L 379.73081,158.90625 L 364.76206,107.28125 L 345.48081,152.43750 L 291.63706,157.81250 L 292.23081,133.84375 C 292.23081,128.08670 323.26848,87.782735 342.16831,78.187500 L 376.76206,53.343750 C 381.86648,50.034934 385.44494,48.697281 388.66831,48.781250 z M 317.10581,284.00000 C 341.61366,290.35584 368.88525,298.69465 390.76206,298.84375 L 391.69956,308.68750 C 372.96615,306.75651 333.32688,297.71167 323.98081,292.93750 L 317.10581,284.00000 z "
       id="path706" />
    <text
       xml:space="preserve"
       style="font-size:12;font-weight:normal;stroke-width:1pt;font-family:helvetica;fill:#000000;fill-opacity:0.5;"
       x="585.99698294"
       y="77.67562103"
       id="text3984"
       transform="scale(6.235699,6.235700)"><tspan
         id="tspan3985"
         style="fill:#000000;fill-opacity:0.5;"></tspan></text>
    <text
       xml:space="preserve"
       style="font-size:12;font-weight:normal;stroke-width:1pt;font-family:helvetica;fill:#000000;fill-opacity:0.5;"
       x="-102.11594736"
       y="-257.44400024"
       id="text3990"
       transform="scale(6.235699,6.235700)"><tspan
         id="tspan3991"
         style="fill:#000000;fill-opacity:0.5;"></tspan></text>
  </g>
  <path
     style="font-size:12;fill:#ffffff;fill-opacity:0.563758;fill-rule:evenodd;stroke-width:2.05668pt;"
     d="M -3.17361 142.84924 L -3.17361 606.83155 L 805.86295 606.83155 L 807.83975 142.84924 L -3.17361 142.84924 z "
     id="path643"
     sodipodi:nodetypes="ccccc" />
  <text
     xml:space="preserve"
     style="fill:black;fill-opacity:1;stroke:none;font-family:Bitstream Vera Sans;font-style:normal;font-weight:bold;font-size:24;stroke-opacity:1;stroke-width:3pt;stroke-linejoin:miter;stroke-linecap:butt;font-stretch:normal;font-variant:normal;text-anchor:start;writing-mode:lr;"
     x="21.2070713"
     y="182.445355"
     id="text712"
     sodipodi:linespacing="110%"><tspan
       x="21.2070713"
       y="182.445358"
       sodipodi:role="line"
       id="tspan724">Uses : Symbols</tspan></text>
  <g
     id="g289"
     transform="matrix(0.289648,0.000000,0.000000,0.289648,31.73762,168.4318)"
     style="fill:#000000;fill-opacity:1;stroke:none;">
    <path
       transform="translate(-188.771,11.2936)"
       id="path4"
       style="stroke-width:1;stroke:none;fill-opacity:1;fill:#ffffff;"
       d="M 344.427 534.692 L 396.057 616.976 L 463.014 650.858 L 564.66 617.783 L 625.97 522.591 L 619.517 433.852 L 569.5 322.526 L 546.106 278.157 L 421.065 279.77 L 414.611 317.686 L 371.049 391.096 L 342.007 470.961 L 344.427 534.692 z " />
    <g
       transform="translate(107.656,-154.861)"
       id="g5"
       style="fill:#000000; fill-opacity:1; stroke:none; ">
      <path
         id="path108"
         d="M329.336 727.552C315.224 726.328 304.136 715.816 303.128 694.936C306.368 639.496 309.608 582.112 271.232 545.104C265.256 499.024 244.016 482.104 234.008 452.512L218.24 441.208L237.104 411.688L245.168 411.904L323.936 571.168L340.424 651.448L329.336 727.552z"
         style="fill:#c1c1bf;" />
      <path
         id="path107"
         d="M136.232 439.696C133.856 455.248 132.56 470.512 134.792 485.272C118.376 507.592 105.92 530.128 104.48 553.312C92.024 586.504 62.432 614.584 67.544 680.104C84.176 697.456 107.432 713.584 127.376 730.36C152.432 751.312 137.528 778.96 102.248 772.408C94.4 763.768 76.616 709.624 42.92 676.288L49.544 632.584L81.368 547.408L120.968 484.048L125.36 456.688L119.816 386.776L124.424 361.216L136.232 439.696L136.232 439.696z"
         style="fill:#c1c1bf;" />
      <path
         id="path106"
         d="M115.64 341.416C116.576 336.376 117.8 331.624 119.312 327.16L121.688 342.784L115.64 341.416z"
         style="fill:#c1c1bf;" />
      <path
         id="path105"
         d="M120.968 500.464C108.368 523.792 103.976 546.256 132.92 550.216C117.008 553.888 97.208 568.648 77.192 593.488L77.624 543.016L101.456 503.272L120.968 500.464z"
         style="fill:#c1c1bf;" />
      <path
         id="path104"
         d="M-33.256 818.488C10.52 838.144 41.408 837.064 69.272 850.96C91.304 862.552 113.552 861.184 126.944 847.144C138.32 832.456 146.744 831.736 163.52 830.224C190.952 828.568 217.736 828.28 241.928 830.8L269.576 833.032C269.072 864.064 328.04 867.88 345.392 844.336C366.344 819.424 395.144 808.264 419.84 790.192L289.304 725.536C255.824 806.464 131.048 827.632 113.768 763.264L-33.256 818.488z"
         style="fill:#c1c1bf;" />
      <path
         id="path103"
         d="M286.424 711.568C273.824 711.496 260.936 715.6 261.944 732.16L266.192 776.44L304.424 756.64L286.424 711.568z"
         style="fill:#c1c1bf;" />
      <path
         id="path102"
         d="M-37.36 821.224C7.136 840.88 38.6 839.728 66.968 853.696C89.36 865.216 111.968 863.92 125.648 849.808C137.24 835.192 145.808 834.472 162.872 832.96C190.736 831.232 218.024 831.016 242.648 833.464L270.728 835.768C270.224 866.8 330.272 870.544 347.912 847C369.224 822.088 398.528 811 423.656 792.856L290.816 728.272C256.76 809.128 129.824 830.296 112.256 766L-37.36 821.224z" />
      <path
         id="path101"
         d="M382.328 691.984C403.64 698.968 389.888 720.28 400.76 732.52C405.44 742.888 415.304 752.032 431.792 760.528C459.368 774.424 426.248 799.336 392.768 812.08C351.944 825.616 344.024 862.912 299.312 851.896C283.112 846.496 278.36 831.808 278.864 809.128C284.264 762.76 277.784 730.432 278.792 698.824C278.72 686.152 283.544 684.64 307.232 687.952C310.04 726.328 352.376 727.336 382.328 691.984z"
         style="fill:#b77200;" />
      <path
         id="path100"
         d="M339.632 826.624C371.6 814.312 403.856 798.112 429.848 782.128C437.84 777.448 438.92 765.928 427.688 762.328C403.352 748.504 390.104 731.224 392.912 708.76C393.344 700.912 383.696 692.56 381.104 700.048C359.864 771.472 291.32 767.656 300.752 696.952C301.256 694.864 301.76 692.776 302.264 690.76C289.952 688.24 285.2 690.976 285.776 700.408L295.28 806.608C297.656 830.8 317.312 836.128 339.632 826.624z"
         style="fill:#f2b700;" />
      <path
         id="path99"
         d="M354.464 537.544C379.16 569.8 404.432 651.088 384.416 691.552C360.944 737.776 307.808 743.248 305.504 695.8C308.816 639.64 311.984 581.536 273.68 544.096C267.704 497.368 246.392 480.232 236.384 450.28L203.12 426.088L133.568 435.088C130.76 452.152 129.104 468.784 131.552 484.912C115.064 507.376 102.608 530.056 101.168 553.312C88.712 586.648 59.12 614.944 64.232 680.752C80.864 698.248 104.12 714.448 124.064 731.296C149.12 752.392 135.512 776.296 100.232 769.672C78.848 746.056 56.744 722.872 35.288 699.328C12.392 683.056 3.896 662.176 27.368 630.496C43.424 609.04 47.96 562.456 62 543.664C74.312 525.16 92.24 508.6 105.272 490.096C112.184 477.928 114.344 468.568 113.264 454.456L110.312 369.136C108.368 307.216 142.424 274.24 189.8 275.248C243.512 275.752 287.576 312.472 288.152 378.28C292.688 410.32 283.256 428.68 308.672 474.472C334.52 522.712 338.552 520.12 354.464 537.544z" />
      <path
         id="path98"
         d="M261.296 503.632L263.528 512.2C257.696 501.688 250.712 483.616 241.928 475.696C239.264 473.536 235.808 473.608 233.72 475.624C222.056 486.928 193.112 510.112 169.928 507.088C152.072 505.288 134.648 493.264 130.832 480.232C128.816 470.872 129.752 463.168 130.976 455.32L240.704 453.52C238.472 463.168 253.088 487 261.296 503.632z"
         style="fill:#c1c1bf;" />
      <path
         id="path97"
         d="M143.144 363.232C154.088 363.232 163.88 376.84 163.808 395.632C163.736 408.232 155.528 411.472 149.336 417.016C146.6 419.536 145.952 433.144 142.568 433.144C131.696 433.144 123.488 413.776 123.488 395.632C123.488 377.56 132.272 363.232 143.144 363.232z"
         style="fill:#c1c1bf;" />
      <path
         id="path96"
         d="M144.368 375.04C154.088 375.04 160.856 379.936 161.648 391.312C162.224 399.16 160.136 411.76 154.664 414.424C152.144 415.648 143.432 426.664 140.408 426.52C128.096 425.944 125 402.112 125.936 390.736C126.8 379.36 134.72 375.04 144.368 375.04z"
         style="fill:#ffffff;" />
      <path
         id="path95"
         d="M141.848 382.672C148.544 382.096 154.736 389.728 155.6 399.664C156.464 409.6 151.64 418.24 144.944 418.816C138.248 419.392 132.056 411.76 131.192 401.752C130.328 391.816 135.152 383.248 141.848 382.672z" />
      <path
         id="path94"
         d="M151.064 397.288C151.424 399.088 149.408 400.024 148.832 398.224C148.256 395.992 146.888 393.328 145.088 391.168C143.936 389.872 145.088 388.432 146.528 389.44C149.048 391.528 150.488 394.12 151.064 397.288z"
         style="fill:#c1c1bf;" />
      <path
         id="path93"
         d="M216.944 360.712C232.712 360.712 245.6 377.416 245.6 397.792C245.6 418.24 232.712 434.872 216.944 434.872C201.176 434.872 188.432 418.24 188.432 397.792C188.432 377.416 201.176 360.712 216.944 360.712z"
         style="fill:#c1c1bf;" />
      <path
         id="path92"
         d="M224.792 374.968C235.664 378.856 241.928 387.424 242.72 396.568C243.656 407.08 239.408 418.96 230.264 425.944C227.672 427.888 197.72 416.08 195.992 411.616C193.4 405.208 191.816 392.896 193.76 385.624C194.552 382.744 197.216 378.568 201.176 376.336C207.44 372.808 216.656 372.088 224.792 374.968z"
         style="fill:#ffffff;" />
      <path
         id="path91"
         d="M216.872 380.944C225.584 380.944 232.712 389.296 232.712 399.448C232.712 409.672 225.584 418.024 216.872 418.024C208.16 418.024 201.032 409.672 201.032 399.448C201.032 389.296 208.16 380.944 216.872 380.944z" />
      <path
         id="path90"
         d="M227.096 392.392C228.104 394.048 226.448 395.776 225.224 394.12C223.784 392.104 221.408 389.944 218.888 388.432C217.232 387.568 217.808 385.624 219.68 386.2C222.92 387.28 225.368 389.368 227.096 392.392z"
         style="fill:#c1c1bf;" />
      <path
         id="path89"
         d="M164.96 404.488C172.376 402.328 184.112 403.048 192.248 404.632C200.384 406.792 222.056 418.24 245.024 430.696C247.976 432.208 248.84 437.104 245.024 438.688C239.12 439.12 249.272 453.664 238.904 458.848C223.352 462.88 198.44 485.992 186.128 487.864C179.288 489.376 172.232 489.592 164.6 487.864C140.552 482.968 134.216 455.608 122.912 450.064C119.816 446.824 121.4 441.208 122.408 440.056C123.632 434.224 149.696 406.216 164.96 404.488z"
         style="fill:#b77200;" />
      <path
         id="path88"
         d="M185.408 405.856C198.44 407.296 226.088 423.928 239.408 430.624C242.72 432.424 242.504 437.824 239.552 438.688C236.384 440.488 235.448 438.256 232.928 437.896C228.896 435.736 222.272 440.92 217.016 444.88C186.704 467.776 180.656 465.256 156.176 462.664C147.68 460.576 142.136 457.984 139.688 455.968C141.488 445.888 160.496 407.656 166.76 406.792C168.344 404.704 179.936 404.632 185.408 405.856z"
         style="fill:#f2b700;" />
      <path
         id="path87"
         d="M190.664 412.048L193.76 413.416C196.064 414.712 193.256 418.168 190.736 417.088L186.2 415.504C183.536 413.272 186.704 410.104 190.664 412.048z"
         style="fill:#b77200;" />
      <path
         id="path86"
         d="M268.568 452.368C273.032 454.384 279.224 457.192 282.536 460.144C285.488 464.104 286.784 468.064 286.424 472.024C285.776 474.544 284.12 476.344 281.24 477.424C277.856 478.216 273.68 477.424 271.376 474.112C269.864 471.448 265.256 462.16 263.96 460.576C262.232 457.12 261.944 454.456 262.88 452.368C264.032 451.288 266.048 451 268.568 452.368z"
         style="fill:#b77200;" />
      <path
         id="path85"
         d="M273.752 461.584C275.48 462.376 277.928 463.456 279.224 464.68C280.376 466.264 280.88 467.776 280.736 469.36C280.52 470.296 279.8 471.016 278.72 471.448C277.352 471.808 275.768 471.448 274.832 470.152C274.256 469.144 272.456 465.472 271.952 464.824C271.232 463.456 271.088 462.448 271.448 461.584C271.952 461.152 272.744 461.08 273.752 461.584z"
         style="fill:#c1c1bf;" />
      <path
         id="path84"
         d="M238.616 358.552C239.048 359.2 238.976 359.776 238.4 360.28C237.896 360.784 237.176 360.712 236.24 360.208L231.632 356.248C231.056 355.744 230.912 354.952 231.272 354.088C232.28 353.44 233.144 353.44 233.936 354.088L238.616 358.552z"
         style="fill:#b77200;" />
      <path
         id="path83"
         d="M235.592 305.992C239.624 308.224 240.848 313.912 238.184 318.592C235.592 323.2 230.12 325.144 226.016 322.84C221.984 320.536 220.76 314.92 223.424 310.24C226.016 305.56 231.488 303.688 235.592 305.992z"
         style="fill:#b77200;" />
      <path
         id="path82"
         d="M374.912 680.536C378.296 683.128 373.256 687.376 371.024 686.296C369.152 685.648 367.784 683.488 366.92 682.408C366.128 681.184 366.2 679.168 366.92 678.448C367.712 677.44 369.728 677.656 371.024 678.52C372.32 679.168 373.616 679.888 374.912 680.536z"
         style="fill:#b77200;" />
      <path
         id="path81"
         d="M297.44 551.512C338.984 572.896 350 611.56 332.072 664.192C330.992 666.64 334.16 668.368 335.24 666.064C354.824 610.336 341.432 571.312 299.024 548.56C296.864 547.552 295.28 550.432 297.44 551.512z"
         style="fill:#b77200;" />
      <path
         id="path80"
         d="M72.008 569.512C38.312 627.256 38.096 662.68 62.504 681.328C63.728 682.264 64.448 680.032 63.296 679.168C36.296 655.48 48.896 615.52 74.168 570.88C74.888 569.584 72.512 568.432 72.008 569.512z"
         style="fill:#b77200;" />
      <path
         id="path79"
         d="M289.376 586.864C289.232 589.168 288.368 589.528 286.424 587.368C279.8 575.848 235.088 551.44 213.344 548.704C209.24 547.264 209.456 545.392 213.488 544.816C229.184 544.816 241.28 537.904 254.96 537.904C258.704 538.048 262.304 539.488 264.392 541.648C269.504 544.96 288.08 570.592 289.376 586.864z"
         style="fill:#c1c1bf;" />
      <path
         id="path78"
         d="M180.152 546.832C180.872 550.792 163.808 545.68 164.744 556.696C165.032 559.72 160.496 561.376 160.64 556.696C160.64 548.272 161.072 548.416 152.72 546.832C151.208 546.76 151.352 544.528 152.72 544.816L152.72 544.816C158.696 546.472 166.76 542.872 166.4 538.84C166.256 537.472 168.56 537.688 168.488 538.84C167.984 545.248 181.664 542.152 180.152 546.832z"
         style="fill:#c1c1bf;" />
      <path
         id="path77"
         d="M151.568 705.376C151.64 708.328 148.76 707.68 148.544 705.592C140.192 680.536 143.72 618.832 151.856 598.96C152.432 596.08 156.248 596.944 155.744 598.96C147.104 635.464 147.248 673.048 151.568 705.376z"
         style="fill:#c1c1bf;" />
      <path
         id="path76"
         d="M51.704 684.424C75.68 707.824 91.376 743.248 114.632 775.288C148.472 816.04 121.472 858.304 66.464 845.56C38.888 835.192 -0.784 836.344 -32.68 825.832C-55.072 820.36 -55.864 809.272 -44.416 787.6C-40.384 773.776 -40.024 751.312 -43.768 732.592C-45.784 718.408 -39.232 710.488 -24.112 708.832L-24.112 708.832C-11.296 708.688 6.56 713.872 16.28 686.44C23.552 673.336 40.976 672.976 51.704 684.424z"
         style="fill:#b77200;" />
      <path
         id="path75"
         d="M24.632 699.04C23.84 680.968 39.32 677.296 49.688 688.312C68.192 710.992 85.112 736.048 100.376 764.992C124.712 804.16 104.624 842.68 67.904 828.064C49.688 817.84 6.128 813.304 -17.344 809.128C-33.04 807.832 -35.128 797.608 -29.152 791.848C-20.944 782.416 -20.08 759.808 -27.856 740.512C-35.56 728.56 -21.088 715.384 -9.712 720.856C0.8 727.048 25.64 713.08 24.632 699.04z"
         style="fill:#f2b700;" />
    </g>
  </g>
  <g
     id="Layer_x0020_1"
     style="fill-rule:nonzero;clip-rule:nonzero;stroke:#000000;stroke-miterlimit:4;"
     transform="matrix(9.422612,0.000000,0.000000,9.422612,194.3341,185.4281)">
    <path
       style="fill:none;stroke-width:2.5791;stroke-linecap:round;stroke-linejoin:round;"
       d="M22,13.9l-0.9,0c-0.3-0.5-0.6-1.5-0.6-1.5c-0.7-0.5-7.5,0-7.5,0l0.1-7.9l-1.1-0.7l-0.6,0.4V3.7L10.4,4l-0.3,0.2l0-0.5L9.8,3.9L9.7,3.5C9.6,3.3,9.5,3.3,9.4,3.4l-7.5,5C1.8,8.4,1.8,8.5,1.8,8.7L4,16.8c0.3,1.4,1.3,2.2,2.4,2.4l10.1,1.3    c0.2,0,0.2,0,0.3-0.1l5.2-6.3c0.1-0.1,0-0.2-0.1-0.2z"
       id="path2025" />
    <g
       id="Layer_x0020_3" />
    <linearGradient
       id="aigrd1"
       gradientUnits="userSpaceOnUse"
       x1="9.6309"
       y1="11.8784"
       x2="11.8342"
       y2="14.0817">
      <stop
         offset="0"
         style="stop-color:#4A4B70"
         id="stop2032" />
      <stop
         offset="0.3539"
         style="stop-color:#58597A"
         id="stop2034" />
      <stop
         offset="0.6629"
         style="stop-color:#727398"
         id="stop2036" />
      <stop
         offset="1"
         style="stop-color:#7B7C99"
         id="stop2038" />
    </linearGradient>
    <path
       style="fill:url(#aigrd1);stroke:none;"
       d="M22.1,14.1L17,20.4c-0.1,0.1-0.2,0.1-0.3,0.1L6.5,19.2c-1.1-0.3-2.1-1.1-2.4-2.4L1.9,8.7C1.8,8.5,1.9,8.4,2,8.4l7.5-5c0.1-0.1,0.3-0.1,0.3,0.1l1.9,8.2c0.2,0.9,1,2,2.3,2l8,0.2c0.1,0,0.2,0.1,0.1,0.2z"
       id="path2041" />
    <linearGradient
       id="aigrd2"
       gradientUnits="userSpaceOnUse"
       x1="10.2813"
       y1="16.0791"
       x2="12.3723"
       y2="21.0004">
      <stop
         offset="0"
         style="stop-color:#EFEFEF"
         id="stop2045" />
      <stop
         offset="0.9775"
         style="stop-color:#CFCFCF"
         id="stop2047" />
    </linearGradient>
    <path
       style="fill:url(#aigrd2);stroke:none;"
       d="M16.4,19.8l-1-2.4c-0.4-0.5-8.9-0.1-8.9-0.1s0.3,0.6,0.3,1.1l9.7,1.4z"
       id="path2050" />
    <linearGradient
       id="aigrd3"
       gradientUnits="userSpaceOnUse"
       x1="4.2036"
       y1="8.6172"
       x2="9.6171"
       y2="11.101">
      <stop
         offset="0"
         style="stop-color:#D3D3D3"
         id="stop2054" />
      <stop
         offset="1"
         style="stop-color:#A8A8A8"
         id="stop2056" />
    </linearGradient>
    <path
       style="fill:url(#aigrd3);stroke:none;"
       d="M5.2,16.8L3,8.7l7.1-5.1l0.8,8.6l-5.8,4.6z"
       id="path2059" />
    <linearGradient
       id="aigrd4"
       gradientUnits="userSpaceOnUse"
       x1="22.8311"
       y1="19.6846"
       x2="14.6302"
       y2="12.961">
      <stop
         offset="0"
         style="stop-color:#D3D3D3"
         id="stop2063" />
      <stop
         offset="1"
         style="stop-color:#929292"
         id="stop2065" />
    </linearGradient>
    <path
       style="fill:url(#aigrd4);stroke:none;"
       d="M21.4,14.1l-5,5.7c-0.4-0.1-1-1.5-1-2.4l5.1-5.1c0,0,0.5,1.6,0.9,1.8z"
       id="path2068" />
    <linearGradient
       id="aigrd5"
       gradientUnits="userSpaceOnUse"
       x1="4.8921"
       y1="8.2549"
       x2="14.1952"
       y2="13.133">
      <stop
         offset="0"
         style="stop-color:#D6D6D6"
         id="stop2072" />
      <stop
         offset="0.9831"
         style="stop-color:#F3F3F3"
         id="stop2074" />
    </linearGradient>
    <path
       style="fill:url(#aigrd5);stroke:none;"
       d="M5,8l6.3-4.4v8.8l-5.5,4.2L5,8z"
       id="path2077" />
    <linearGradient
       id="aigrd6"
       gradientUnits="userSpaceOnUse"
       x1="16.3623"
       y1="17.2617"
       x2="11.6701"
       y2="13.3426">
      <stop
         offset="0"
         style="stop-color:#FFFFFF"
         id="stop2081" />
      <stop
         offset="0.3175"
         style="stop-color:#F3F3F3"
         id="stop2083" />
      <stop
         offset="0.7753"
         style="stop-color:#E6E6E6"
         id="stop2085" />
      <stop
         offset="1"
         style="stop-color:#C1C1C1"
         id="stop2087" />
    </linearGradient>
    <path
       style="fill:url(#aigrd6);stroke:none;"
       d="M6.5,17.3c0,0,8.6-0.2,8.9,0.1l5.1-5.1c-0.7-0.5-7.5,0-7.5,0l-6.5,5z"
       id="path2090" />
    <linearGradient
       id="aigrd7"
       gradientUnits="userSpaceOnUse"
       x1="4.1328"
       y1="8.876"
       x2="7.253"
       y2="16.2193">
      <stop
         offset="0"
         style="stop-color:#EFEFEF"
         id="stop2094" />
      <stop
         offset="0.9775"
         style="stop-color:#D5D5D5"
         id="stop2096" />
    </linearGradient>
    <path
       style="fill:url(#aigrd7);stroke:none;"
       d="M5.2,16.8c0,0,1,0.1,1.2,0.5V9l-1-0.8l0.4,8.5L5,8l-1,0.3l1.2,8.5z"
       id="path2099" />
    <linearGradient
       id="aigrd8"
       gradientUnits="userSpaceOnUse"
       x1="7.1025"
       y1="9.6782"
       x2="11.6338"
       y2="11.7572">
      <stop
         offset="0"
         style="stop-color:#D3D3D3"
         id="stop2103" />
      <stop
         offset="1"
         style="stop-color:#A8A8A8"
         id="stop2105" />
    </linearGradient>
    <path
       style="fill:url(#aigrd8);stroke:none;"
       d="M12.9,12.4l-6.5,5V9L13,4.4l-0.1,7.9z"
       id="path2108" />
    <linearGradient
       id="aigrd9"
       gradientUnits="userSpaceOnUse"
       x1="9.0171"
       y1="6.0156"
       x2="9.7902"
       y2="7.2953">
      <stop
         offset="0"
         style="stop-color:#FFFFFF"
         id="stop2112" />
      <stop
         offset="1"
         style="stop-color:#F6F6F6"
         id="stop2114" />
    </linearGradient>
    <path
       style="fill:url(#aigrd9);stroke:none;"
       d="M5.4,8.2l1,0.8L13,4.4l-1.1-0.7L5.4,8.2z"
       id="path2117" />
    <path
       style="fill:#FFFFFF;stroke:none;"
       d="M11.3,3.6L5,8l-1,0.3L10.5,4l0.9-0.3z"
       id="path2119" />
    <path
       style="opacity:0.43;fill:#F3F3F3;stroke:none;"
       d="M9.7,3.5L2.3,8.6l2.1,8.3C4.5,17.6,5,18.3,5.8,19c-0.7-0.3-1.5-1.2-1.7-2L1.9,8.7c0,0-0.1-0.2,0.1-0.3l7.5-5c0.3-0.1,0.3,0.1,0.3,0.1z"
       id="path2121" />
  </g>
  <g
     id="Layer_x0020_2"
     style="fill-rule:nonzero;clip-rule:nonzero;stroke:#000000;stroke-miterlimit:4;"
     transform="matrix(6.998195,0.000000,0.000000,6.998195,518.0153,208.1499)">
    <path
       style="fill:none;stroke:none;"
       d="M24,24H0V0h24v24z"
       id="path1785" />
  </g>
  <path
     style="font-size:12;fill:none;"
     d="M 700.51136 553.42049 L 566.1765 553.42049 L 566.1765 419.08564 L 700.51136 419.08564 L 700.51136 553.42049 z "
     id="path2126" />
  <g
     id="g1972"
     transform="matrix(0.265819,1.046892e-17,-1.046892e-17,0.265819,569.1529,100.5960)">
    <path
       stroke="none"
       d="M 446.13031 305.50912 L 170.9861 416.88426 L 170.9861 933.29521 L 171.96866 936.00761 C 187.95254 980.55504 239.05945 1005.3266 302.15082 999.11299 L 304.51726 998.87769 L 335.25337 986.53346 C 335.25337 986.53346 335.25337 985.66155 335.25337 985.48165 C 336.19441 985.60625 337.16313 985.71695 337.16313 985.71695 L 341.55005 984.02855 L 581.91721 886.58901 L 581.91721 361.93015 L 551.83153 349.6274 C 551.83153 349.6274 523.94622 361.1275 516.5286 364.17205 C 508.66812 362.19309 501.73485 360.10342 496.5176 357.82001 C 485.21126 352.90721 478.99761 346.05698 476.18832 342.29281 C 476.18832 336.70191 476.18832 320.13679 476.18832 320.13679 L 455.83136 301.57888 L 446.13031 305.50912 z "
       id="path1973"
       style="font-size:12;" />
    <path
       fill="#406AC9"
       stroke="none"
       d="M 194.80278 936.99012 L 459.58169 829.80817 L 459.58169 327.48523 L 194.80278 434.65336 L 194.80278 936.99012 z "
       id="path1974"
       style="font-size:12;fill:#406ac9;" />
    <path
       fill="#13678D"
       stroke="none"
       d="M 194.80278 936.99012 L 267.45679 907.87318 L 267.45679 405.5364 L 194.80278 434.65336 L 194.80278 936.99012 z "
       id="path1975"
       style="font-size:12;fill:#13678d;" />
    <path
       fill="url(#XMLID_2_)"
       stroke="none"
       d="M 489.88879 373.07043 C 513.87153 383.4911 551.8592 387.40749 551.8592 387.40749 L 296.82285 491.54491 C 240.4295 489.35837 220.59841 477.80293 204.54534 451.4399 L 459.58169 347.30248 C 459.58169 347.30248 467.82965 363.46626 489.88879 373.07043 z "
       id="path1976"
       style="font-size:12;fill:#ffffff;fill-opacity:1;" />
    <path
       fill="none"
       stroke="#BFBFBF"
       stroke-width="0.25"
       d="M 205.63861 456.86473 L 460.67496 352.74115 "
       id="path1977"
       style="font-size:12;fill:none;stroke:#bfbfbf;stroke-width:3.45971;" />
    <path
       fill="#406AC9"
       stroke="none"
       d="M 300.51783 982.57555 L 315.78209 976.40333 L 321.74664 965.6367 L 338.64389 967.159 L 565.29674 875.40721 L 565.29674 373.08427 L 300.51783 480.2524 L 300.51783 982.57555 z "
       id="path1978"
       style="font-size:12;fill:#406ac9;" />
    <path
       fill="#13678D"
       stroke="none"
       d="M 300.51783 982.57555 L 318.5637 975.35163 C 318.5637 975.35163 318.36996 971.10301 322.81223 969.31781 C 326.67328 967.7817 335.25337 968.66741 335.25337 968.66741 L 373.17184 953.45846 L 373.17184 451.13544 L 299.4999 480.2524 L 300.51783 982.57555 z "
       id="path1979"
       style="font-size:12;fill:#13678d;"
       sodipodi:nodetypes="cccccccc" />
    <path
       fill="url(#XMLID_3_)"
       stroke="none"
       d="M 318.5637 975.37923 C 318.5637 975.37923 318.0655 970.70171 322.43858 968.98571 C 326.43801 967.4357 335.30872 968.79201 335.30872 968.79201 L 335.30872 466.4689 C 335.30872 466.4689 327.54512 466.75952 323.14437 468.48937 C 319.20029 470.02549 318.5637 473.04236 318.5637 473.04236 L 318.5637 975.37923 z "
       id="path1980"
       style="font-size:12;fill:#0f5675;fill-opacity:1;" />
    <path
       fill="#A2B9EA"
       stroke="none"
       d="M 551.8592 367.57641 L 314.75802 465.30644 L 299.96428 472.03212 C 243.55708 469.84558 220.61225 457.98568 204.54534 431.62265 L 459.58169 327.48523 L 452.3578 320.89793 L 229.57983 411.08578 L 226.88126 420.45469 L 215.97623 416.57981 L 187.59273 428.0799 C 201.62534 462.09582 240.44334 483.58757 300.53167 480.26624 L 318.52219 472.987 C 318.52219 472.987 318.86816 470.35762 322.95062 468.69696 C 327.21299 466.9671 335.21185 466.23364 335.21185 466.23364 L 565.31058 373.09811 "
       id="path1981"
       style="font-size:12;fill:#a2b9ea;" />
    <path
       fill="none"
       stroke="#BFBFBF"
       stroke-width="0.25"
       d="M 211.06344 462.28956 L 466.08595 358.15214 "
       id="path1982"
       style="font-size:12;fill:none;stroke:#bfbfbf;stroke-width:3.45971;" />
    <path
       fill="none"
       stroke="#BFBFBF"
       stroke-width="0.25"
       d="M 218.66097 467.72824 L 473.68348 363.59081 "
       id="path1983"
       style="font-size:12;fill:none;stroke:#bfbfbf;stroke-width:3.45971;" />
    <path
       fill="none"
       stroke="#BFBFBF"
       stroke-width="0.25"
       d="M 225.19291 473.15307 L 480.22927 369.02949 "
       id="path1984"
       style="font-size:12;fill:none;stroke:#bfbfbf;stroke-width:3.45971;" />
    <path
       fill="none"
       stroke="#BFBFBF"
       stroke-width="0.25"
       d="M 234.96315 477.49847 L 489.9995 373.36105 "
       id="path1985"
       style="font-size:12;fill:none;stroke:#bfbfbf;stroke-width:3.45971;" />
    <path
       fill="none"
       stroke="#BFBFBF"
       stroke-width="0.25"
       d="M 244.73338 480.7506 L 499.7559 376.61318 "
       id="path1986"
       style="font-size:12;fill:none;stroke:#bfbfbf;stroke-width:3.45971;" />
    <path
       fill="none"
       stroke="#BFBFBF"
       stroke-width="0.25"
       d="M 255.59689 484.01657 L 510.6194 379.87915 "
       id="path1987"
       style="font-size:12;fill:none;stroke:#bfbfbf;stroke-width:3.45971;" />
    <path
       fill="#62B2C8"
       stroke="none"
       d="M 360.56464 446.56862 L 313.36029 465.19572 L 299.96428 472.01828 C 243.55708 469.83174 220.61225 457.97184 204.54534 431.60881 L 221.78856 424.56483 C 221.78856 424.56483 226.65983 424.59251 229.09547 423.59611 C 231.65566 422.5582 231.78021 420.46853 231.78021 420.46853 L 267.48447 405.86853 L 259.83158 398.92142 L 227.73926 411.8746 C 227.73926 411.8746 228.15443 415.62493 225.0822 416.87043 C 222.30059 417.97753 215.99007 416.60749 215.99007 416.60749 L 187.59273 428.0799 C 201.62534 462.09582 240.44334 483.58757 300.53167 480.26624 L 318.52219 472.987 C 318.52219 472.987 318.86816 470.35762 322.95062 468.69696 C 327.21299 466.9671 335.21185 466.23364 335.21185 466.23364 L 374.01602 452.07649 L 360.56464 446.56862 z "
       id="path1988"
       style="font-size:12;fill:#62b2c8;" />
    <path
       fill="url(#XMLID_4_)"
       stroke="none"
       d="M 187.59273 930.4029 C 202.44183 971.75352 251.16845 987.44676 300.53167 982.58935 L 300.53167 480.2524 C 243.42946 482.04683 203.27216 465.40331 187.59273 428.06606 L 187.59273 930.4029 L 187.59273 930.4029 z "
       id="path1989"
       style="font-size:12;fill:#146f96;fill-opacity:1;"
       sodipodi:nodetypes="cccccc" />
  </g>
  <g
     id="g767"
     transform="matrix(0.363481,0.000000,0.000000,0.363481,529.6517,342.6188)">
    <path
       style="font-size:12;fill:#ff0000;fill-rule:evenodd;stroke-width:3pt;"
       d="M 43.764055 733.92711 C 24.682765 732.36493 11.690225 710.18874 20.051035 692.84324 C 54.632575 632.80485 212.4685 361.6512 250.3868 295.14617 C 261.28033 279.40237 286.98174 279.2386 297.82298 295.15202 C 332.52698 355.1197 489.69283 626.0401 528.32873 692.13083 C 536.51649 709.4368 523.80762 731.77676 504.60557 733.20884 C 435.32003 733.27954 120.31826 733.5128 43.764055 733.92711 z "
       id="path590"
       sodipodi:nodetypes="ccccccc"
       transform="translate(111.9734,-132.3323)" />
    <path
       style="font-size:12;fill:#ffffff;fill-rule:evenodd;stroke-width:3pt;"
       d="M 72.024174,689.20810 L 474.24351,688.04284 L 273.36526,341.14243 L 72.024174,689.20810 z "
       id="path605"
       sodipodi:nodetypes="cccc"
       transform="translate(111.9734,-132.3323)" />
    <path
       style="font-size:12;fill-opacity:1;fill-rule:evenodd;stroke-width:3pt;fill:#000000;"
       d="M 383.781250 307.750000 L 346.468750 345.406250 L 346.468750 421.281250 L 290.343750 421.281250 L 290.343750 460.906250 L 346.468750 460.906250 L 346.468750 542.812500 L 421.437500 542.437500 L 421.437500 460.875000 L 477.593750 460.843750 L 477.593750 421.218750 L 421.437500 421.250000 L 421.437500 345.062500 L 383.781250 307.750000 z "
       id="path730" />
  </g>
  <g
     id="g4002"
     transform="matrix(0.806325,0.000000,0.000000,0.806325,-20.04006,89.72859)">
    <rect
       style="font-size:12;fill:#b5b5b5;fill-rule:evenodd;stroke:#000000;stroke-width:0.32519;stroke-opacity:0.431373;"
       id="rect149"
       x="387.09927100"
       y="448.42932129"
       width="52.03037262"
       height="52.03037262"
       rx="0"
       ry="0" />
    <rect
       style="font-size:12;fill-rule:evenodd;stroke-width:0.992152;"
       id="rect113"
       x="400.10686988"
       y="471.19259644"
       width="29.26708412"
       height="26.01518631"
       rx="0"
       ry="0" />
    <rect
       style="font-size:12;fill:#007f7f;fill-rule:evenodd;stroke-width:0.757773;"
       id="rect114"
       x="403.35876197"
       y="474.44448853"
       width="22.76328659"
       height="19.51138878"
       rx="0"
       ry="0" />
    <rect
       style="font-size:12;fill:#b5b5b5;fill-rule:evenodd;stroke:#000000;stroke-width:0.32519;stroke-opacity:0.431373;"
       id="rect129"
       x="387.09927100"
       y="500.45968628"
       width="52.03037262"
       height="52.03037262"
       rx="0"
       ry="0" />
    <rect
       style="font-size:12;fill:#b5b5b5;fill-rule:evenodd;stroke:#000000;stroke-width:0.32519;stroke-opacity:0.431373;"
       id="rect4"
       x="283.03857154"
       y="500.45968628"
       width="52.03037262"
       height="52.03037262"
       rx="0"
       ry="0" />
    <rect
       style="font-size:12;fill:#b5b5b5;fill-rule:evenodd;stroke:#000000;stroke-width:0.32519;stroke-opacity:0.431373;"
       id="rect9"
       x="335.06890601"
       y="500.45968628"
       width="52.03037262"
       height="52.03037262"
       rx="0"
       ry="0" />
    <rect
       style="font-size:12;fill:#b5b5b5;fill-rule:evenodd;stroke:#000000;stroke-width:0.32519;stroke-opacity:0.431373;"
       id="rect40"
       x="283.03857154"
       y="448.42932129"
       width="52.03037262"
       height="52.03037262"
       rx="0"
       ry="0" />
    <rect
       style="font-size:12;fill:#b5b5b5;fill-rule:evenodd;stroke:#000000;stroke-width:0.32519;stroke-opacity:0.431373;"
       id="rect71"
       x="335.06890601"
       y="448.42932129"
       width="52.03037262"
       height="52.03037262"
       rx="0"
       ry="0" />
    <rect
       style="font-size:12;fill-rule:evenodd;stroke-width:0.992152;"
       id="rect7"
       x="289.54235572"
       y="519.97106934"
       width="29.26708412"
       height="26.01518631"
       rx="0"
       ry="0" />
    <rect
       style="font-size:12;fill:#337d80;fill-rule:evenodd;stroke-width:0.757773;"
       id="rect5"
       x="292.79427832"
       y="523.22296143"
       width="22.76328659"
       height="19.51138878"
       rx="0"
       ry="0" />
    <path
       sodipodi:type="arc"
       style="font-size:12;fill-rule:evenodd;stroke-width:0.782624;"
       id="path8"
       d="M 17.500000 308.750000 A 5.625000 5.000000 0 1 0 6.250000,308.750000 A 5.625 5 0 1 0 17.5 308.75 L 11.875000 308.750000 z"
       sodipodi:cx="11.875000"
       sodipodi:cy="308.750000"
       sodipodi:rx="5.625000"
       sodipodi:ry="5.000000"
       transform="matrix(2.890573,0.000000,0.000000,3.251924,277.9801,-480.8047)" />
    <path
       sodipodi:type="arc"
       style="font-size:12;fill:#ffd0a1;fill-rule:evenodd;stroke-width:0.782624;fill-opacity:1;"
       id="path6"
       d="M 17.500000 308.750000 A 5.625000 5.000000 0 1 0 6.250000,308.750000 A 5.625 5 0 1 0 17.5 308.75 L 11.875000 308.750000 z"
       sodipodi:cx="11.875000"
       sodipodi:cy="308.750000"
       sodipodi:rx="5.625000"
       sodipodi:ry="5.000000"
       transform="matrix(2.312461,0.000000,0.000000,2.601831,284.8453,-280.0929)" />
    <g
       id="g22"
       style="font-size:12;fill:#ff5056;"
       transform="matrix(2.601519,0.000000,0.000000,2.601519,283.0385,-279.9959)">
      <rect
         style="fill:#ff5056;fill-opacity:1;fill-rule:evenodd;stroke:none;stroke-opacity:1;stroke-width:1pt;stroke-linejoin:miter;stroke-linecap:butt;"
         id="rect14"
         x="10.000000"
         y="313.750000"
         width="2.500000"
         height="2.500000"
         rx="0.000000"
         ry="0.000000" />
      <rect
         style="fill:#ff5056;fill-opacity:1;fill-rule:evenodd;stroke:none;stroke-opacity:1;stroke-width:1pt;stroke-linejoin:miter;stroke-linecap:butt;"
         id="rect15"
         x="16.250000"
         y="307.500000"
         width="2.500000"
         height="2.500000"
         rx="0.000000"
         ry="0.000000" />
      <rect
         style="fill:#ff5056;fill-opacity:1;fill-rule:evenodd;stroke:none;stroke-opacity:1;stroke-width:1pt;stroke-linejoin:miter;stroke-linecap:butt;"
         id="rect16"
         x="16.250000"
         y="313.750000"
         width="2.500000"
         height="2.500000"
         rx="0.000000"
         ry="0.000000" />
      <rect
         style="fill:#ff5056;fill-opacity:1;fill-rule:evenodd;stroke:none;stroke-opacity:1;stroke-width:1pt;stroke-linejoin:miter;stroke-linecap:butt;"
         id="rect17"
         x="3.750000"
         y="313.750000"
         width="2.500000"
         height="2.500000"
         rx="0.000000"
         ry="0.000000" />
      <rect
         style="fill:#ff5056;fill-opacity:1;fill-rule:evenodd;stroke:none;stroke-opacity:1;stroke-width:1pt;stroke-linejoin:miter;stroke-linecap:butt;"
         id="rect18"
         x="3.750000"
         y="307.500000"
         width="2.500000"
         height="2.500000"
         rx="0.000000"
         ry="0.000000" />
      <rect
         style="fill:#ff5056;fill-opacity:1;fill-rule:evenodd;stroke:none;stroke-opacity:1;stroke-width:1pt;stroke-linejoin:miter;stroke-linecap:butt;"
         id="rect19"
         x="3.750000"
         y="301.250000"
         width="2.500000"
         height="2.500000"
         rx="0.000000"
         ry="0.000000" />
      <rect
         style="font-size:12;fill:#ff5056;fill-rule:evenodd;stroke-width:0.816497pt;fill-opacity:1;"
         id="rect20"
         x="10.000000"
         y="301.250000"
         width="2.500000"
         height="2.500000"
         rx="0.000000"
         ry="0.000000" />
      <rect
         style="fill:#ff5056;fill-opacity:1;fill-rule:evenodd;stroke:none;stroke-opacity:1;stroke-width:1pt;stroke-linejoin:miter;stroke-linecap:butt;"
         id="rect21"
         x="16.250000"
         y="301.250000"
         width="2.500000"
         height="2.500000"
         rx="0.000000"
         ry="0.000000" />
    </g>
    <g
       id="g35"
       style="font-size:12;fill:#ff0000;fill-opacity:0.508475;"
       transform="matrix(2.601519,0.000000,0.000000,2.601519,283.0385,-279.9959)">
      <rect
         style="font-size:12;fill:#ff0000;fill-rule:evenodd;stroke-width:0.894427pt;fill-opacity:0.508475;"
         id="rect31"
         x="5.000000"
         y="303.750000"
         width="1.250000"
         height="10.000000"
         rx="0.000000"
         ry="0.000000" />
      <rect
         style="font-size:12;fill:#ff0000;fill-rule:evenodd;stroke-width:0.894427pt;fill-opacity:0.508475;"
         id="rect32"
         x="6.250000"
         y="302.500000"
         width="10.000000"
         height="1.250000"
         rx="0.000000"
         ry="0.000000" />
      <rect
         style="font-size:12;fill:#ff0000;fill-rule:evenodd;stroke-width:0.894427pt;fill-opacity:0.508475;"
         id="rect33"
         x="16.250000"
         y="303.750000"
         width="1.250000"
         height="10.000000"
         rx="0.000000"
         ry="0.000000" />
      <rect
         style="font-size:12;fill:#ff0000;fill-rule:evenodd;stroke-width:0.894427pt;fill-opacity:0.508475;"
         id="rect34"
         x="6.250000"
         y="313.750000"
         width="10.000000"
         height="1.250000"
         rx="0.000000"
         ry="0.000000" />
    </g>
    <g
       id="g105"
       transform="matrix(2.601519,0.000000,0.000000,2.601519,283.0385,-279.9959)">
      <rect
         style="font-size:12;fill-rule:evenodd;stroke-width:0.992152;"
         id="rect41"
         x="2.500000"
         y="287.500000"
         width="11.250000"
         height="10.000000"
         rx="0.000000"
         ry="0.000000" />
      <rect
         style="font-size:12;fill:#337d80;fill-rule:evenodd;stroke-width:0.757773;"
         id="rect42"
         x="3.750000"
         y="288.750000"
         width="8.750000"
         height="7.500000"
         rx="0.000000"
         ry="0.000000" />
      <path
         sodipodi:type="arc"
         style="fill:#000000;fill-opacity:1;fill-rule:evenodd;stroke:none;stroke-opacity:1;stroke-width:0.782624;stroke-linejoin:miter;stroke-linecap:butt;"
         id="path43"
         d="M 17.500000 308.750000 A 5.625000 5.000000 0 1 0 6.250000,308.750000 A 5.625 5 0 1 0 17.5 308.75 L 11.875000 308.750000 z"
         sodipodi:cx="11.875000"
         sodipodi:cy="308.750000"
         sodipodi:rx="5.625000"
         sodipodi:ry="5.000000"
         transform="matrix(1.11111,0,0,1.25001,-1.94444,-97.1891)" />
      <path
         sodipodi:type="arc"
         style="fill:#ffa680;fill-opacity:1;fill-rule:evenodd;stroke:none;stroke-opacity:1;stroke-width:0.782624;stroke-linejoin:miter;stroke-linecap:butt;"
         id="path44"
         d="M 17.500000 308.750000 A 5.625000 5.000000 0 1 0 6.250000,308.750000 A 5.625 5 0 1 0 17.5 308.75 L 11.875000 308.750000 z"
         sodipodi:cx="11.875000"
         sodipodi:cy="308.750000"
         sodipodi:rx="5.625000"
         sodipodi:ry="5.000000"
         transform="matrix(0.888889,0,0,1.00012,0.694444,-20.0373)" />
      <rect
         style="font-size:12;fill:#ff5056;fill-rule:evenodd;stroke-width:1pt;"
         id="rect46"
         x="8.750000"
         y="296.250000"
         width="2.500000"
         height="2.500000"
         rx="0.000000"
         ry="0.000000" />
      <rect
         style="font-size:12;fill:#ff5056;fill-rule:evenodd;stroke-width:1pt;"
         id="rect47"
         x="16.250000"
         y="288.750000"
         width="2.500000"
         height="2.500000"
         rx="0.000000"
         ry="0.000000" />
      <rect
         style="font-size:12;fill:#ff5056;fill-rule:evenodd;stroke-width:1pt;"
         id="rect48"
         x="16.250000"
         y="296.250000"
         width="2.500000"
         height="2.500000"
         rx="0.000000"
         ry="0.000000" />
      <rect
         style="font-size:12;fill:#ff5056;fill-rule:evenodd;stroke-width:1pt;"
         id="rect49"
         x="1.250000"
         y="296.250000"
         width="2.500000"
         height="2.500000"
         rx="0.000000"
         ry="0.000000" />
      <rect
         style="font-size:12;fill:#ff5056;fill-rule:evenodd;stroke-width:1pt;"
         id="rect50"
         x="1.250000"
         y="288.750000"
         width="2.500000"
         height="2.500000"
         rx="0.000000"
         ry="0.000000" />
      <rect
         style="font-size:12;fill:#ff5056;fill-rule:evenodd;stroke-width:1pt;"
         id="rect51"
         x="1.250000"
         y="281.250000"
         width="2.500000"
         height="2.500000"
         rx="0.000000"
         ry="0.000000" />
      <rect
         style="font-size:12;fill:#ff5056;fill-rule:evenodd;stroke-width:0.816497pt;"
         id="rect52"
         x="8.750000"
         y="281.250000"
         width="2.500000"
         height="2.500000"
         rx="0.000000"
         ry="0.000000" />
      <rect
         style="font-size:12;fill:#ff5056;fill-rule:evenodd;stroke-width:1pt;"
         id="rect53"
         x="16.250000"
         y="281.250000"
         width="2.500000"
         height="2.500000"
         rx="0.000000"
         ry="0.000000" />
      <rect
         style="font-size:12;fill:#ff0000;fill-opacity:0.415254;fill-rule:evenodd;stroke-width:3.79473pt;"
         id="rect55"
         x="2.500000"
         y="282.500000"
         width="15.000000"
         height="15.000000"
         rx="0.000000"
         ry="0.000000" />
    </g>
    <g
       id="g119"
       transform="matrix(2.601519,0.000000,0.000000,2.601519,283.0385,-279.9959)">
      <path
         style="font-size:12;fill:#007f7f;fill-rule:evenodd;stroke-width:0.757773;"
         d="M 23.75 288.75 L 23.75 296.25 L 32.5 296.25 L 32.5 293.75 C 27.5 293.75 26.25 292.5 26.25 288.75 L 23.75 288.75 z "
         id="path1578"
         sodipodi:nodetypes="cccccc" />
      <path
         transform="matrix(0.888889,0,0,1.00012,20.6944,-20.0373)"
         style="font-size:12;fill:#007f7f;fill-rule:evenodd;stroke-width:0.782624;"
         d="M 17.5 308.75 C 17.5 311.51 16.0938 313.75 13.2813 313.75 L 13.2813 308.75 L 6.25005 308.75 C 6.25005 305.99 8.77 303.75 11.875 303.75 C 14.98 303.75 17.5 305.99 17.5 308.75 z "
         id="path1579"
         sodipodi:nodetypes="cccccc" />
      <path
         style="font-size:12;fill-rule:evenodd;stroke-width:0.757769;"
         d="M 23.75 288.75 L 23.75 296.25 L 32.5 296.25 L 32.5 288.75 L 23.75 288.75 z M 22.5 287.5 L 22.5 297.5 L 33.75 297.5 L 33.75 287.5 L 22.5 287.5 z "
         id="path1580" />
      <path
         style="font-size:12;fill-rule:evenodd;stroke-width:0.782624;"
         d="M 37.5 288.751 C 37.5 292.202 34.7 295.002 31.25 295.002 C 27.8 295.002 25 292.202 25 288.751 C 25 285.301 27.8 282.501 31.25 282.501 C 34.7 282.501 37.5 285.301 37.5 288.751 z M 36.25 288.75 C 36.25 291.51 34.01 293.75 31.25 293.75 C 28.49 293.75 26.25 291.51 26.25 288.75 C 26.25 285.989 28.49 283.749 31.25 283.749 C 34.01 283.749 36.25 285.989 36.25 288.75 z "
         id="path1581" />
    </g>
    <g
       id="g124"
       transform="matrix(2.601519,0.000000,0.000000,2.601519,283.0385,-279.9959)">
      <rect
         style="font-size:12;fill-rule:evenodd;stroke-width:0.992152;"
         id="rect10"
         x="22.500000"
         y="307.500000"
         width="11.250000"
         height="10.000000"
         rx="0.000000"
         ry="0.000000" />
      <rect
         style="font-size:12;fill:#007f7f;fill-rule:evenodd;stroke-width:0.757773;fill-opacity:1;"
         id="rect11"
         x="23.750000"
         y="308.750000"
         width="8.750000"
         height="7.500000"
         rx="0.000000"
         ry="0.000000" />
      <path
         sodipodi:type="arc"
         style="fill:#000000;fill-opacity:1;fill-rule:evenodd;stroke:none;stroke-opacity:1;stroke-width:0.782624;stroke-linejoin:miter;stroke-linecap:butt;"
         id="path12"
         d="M 17.500000 308.750000 A 5.625000 5.000000 0 1 0 6.250000,308.750000 A 5.625 5 0 1 0 17.5 308.75 L 11.875000 308.750000 z"
         sodipodi:cx="11.875000"
         sodipodi:cy="308.750000"
         sodipodi:rx="5.625000"
         sodipodi:ry="5.000000"
         transform="matrix(1.11111,0,0,1.25001,18.0556,-77.1891)" />
      <path
         sodipodi:type="arc"
         style="fill:#007f7f;fill-opacity:1;fill-rule:evenodd;stroke:none;stroke-opacity:1;stroke-width:0.782624;stroke-linejoin:miter;stroke-linecap:butt;"
         id="path13"
         d="M 17.500000 308.750000 A 5.625000 5.000000 0 1 0 6.250000,308.750000 A 5.625 5 0 1 0 17.5 308.75 L 11.875000 308.750000 z"
         sodipodi:cx="11.875000"
         sodipodi:cy="308.750000"
         sodipodi:rx="5.625000"
         sodipodi:ry="5.000000"
         transform="matrix(0.888889,0,0,1.00012,20.6944,-0.0372578)" />
    </g>
    <path
       sodipodi:type="arc"
       style="font-size:12;fill-rule:evenodd;stroke-width:0.782624;"
       id="path1587"
       d="M 17.500000 308.750000 A 5.625000 5.000000 0 1 0 6.250000,308.750000 A 5.625 5 0 1 0 17.5 308.75 L 11.875000 308.750000 z"
       sodipodi:cx="11.875000"
       sodipodi:cy="308.750000"
       sodipodi:rx="5.625000"
       sodipodi:ry="5.000000"
       transform="matrix(2.890599,0.000000,0.000000,3.251976,372.2847,-529.6035)" />
    <path
       sodipodi:type="arc"
       style="font-size:12;fill:#afffba;fill-rule:evenodd;stroke-width:0.782624;fill-opacity:1;"
       id="path1588"
       d="M 17.500000 308.750000 A 5.625000 5.000000 0 1 0 6.250000,308.750000 A 5.625 5 0 1 0 17.5 308.75 L 11.875000 308.750000 z"
       sodipodi:cx="11.875000"
       sodipodi:cy="308.750000"
       sodipodi:rx="5.625000"
       sodipodi:ry="5.000000"
       transform="matrix(2.312459,0.000000,0.000000,2.601513,379.1501,-328.7749)" />
    <rect
       style="font-size:12;fill-rule:evenodd;stroke-width:0.992152;"
       id="rect105"
       x="400.10686988"
       y="454.93310547"
       width="29.26708412"
       height="26.01518631"
       rx="0"
       ry="0" />
    <rect
       style="font-size:12;fill:#007f7f;fill-rule:evenodd;stroke-width:0.757773;"
       id="rect106"
       x="403.35876197"
       y="458.18499756"
       width="22.76328659"
       height="19.51138878"
       rx="0"
       ry="0" />
    <path
       style="fill:#000000;fill-rule:evenodd;stroke:none;stroke-opacity:1;stroke-width:1pt;stroke-linejoin:miter;stroke-linecap:butt;fill-opacity:1;"
       d="M 409.8626 471.19261 L 409.8626 477.69641 L 422.8702 487.4521 L 435.87779 477.69641 L 435.87779 471.19261 L 432.62589 471.19261 L 432.62589 464.68881 L 413.1145 464.68881 L 413.1145 471.19261 L 409.8626 471.19261 z "
       id="path157"
       sodipodi:nodetypes="cccccccccc" />
    <path
       style="fill:#ff7572;fill-rule:evenodd;stroke:none;stroke-opacity:1;stroke-width:1pt;stroke-linejoin:miter;stroke-linecap:butt;fill-opacity:1;"
       d="M 409.8626 474.44451 L 422.8702 484.2002 L 435.87779 474.44451 L 429.37399 474.44451 L 429.37399 464.68881 L 416.3664 464.68881 L 416.3664 474.44451 L 409.8626 474.44451 z "
       id="path158"
       sodipodi:nodetypes="cccccccc" />
    <rect
       style="font-size:12;fill:#b5b5b5;fill-rule:evenodd;stroke:#000000;stroke-width:0.32519;stroke-opacity:0.431373;"
       id="rect159"
       x="439.12966651"
       y="500.45968628"
       width="52.03037262"
       height="52.03037262"
       rx="0"
       ry="0" />
    <rect
       style="font-size:12;fill:#b5b5b5;fill-rule:evenodd;stroke:#000000;stroke-width:0.32519;stroke-opacity:0.431373;"
       id="rect169"
       x="439.12966651"
       y="448.42932129"
       width="52.03037262"
       height="52.03037262"
       rx="0"
       ry="0" />
    <rect
       style="font-size:12;fill-rule:evenodd;stroke-width:0.992152;"
       id="rect125"
       x="400.10686988"
       y="523.22296143"
       width="29.26708412"
       height="26.01518631"
       rx="0"
       ry="0" />
    <rect
       style="font-size:12;fill:#007f7f;fill-rule:evenodd;stroke-width:0.757773;"
       id="rect126"
       x="403.35876197"
       y="526.47485352"
       width="22.76328659"
       height="19.51138878"
       rx="0"
       ry="0" />
    <path
       sodipodi:type="arc"
       style="font-size:12;fill-rule:evenodd;stroke-width:0.782624;"
       id="path127"
       d="M 17.500000 308.750000 A 5.625000 5.000000 0 1 0 6.250000,308.750000 A 5.625 5 0 1 0 17.5 308.75 L 11.875000 308.750000 z"
       sodipodi:cx="11.875000"
       sodipodi:cy="308.750000"
       sodipodi:rx="5.625000"
       sodipodi:ry="5.000000"
       transform="matrix(2.890599,0.000000,0.000000,3.251976,372.2847,-477.5731)" />
    <path
       sodipodi:type="arc"
       style="font-size:12;fill:#afffba;fill-rule:evenodd;stroke-width:0.782624;fill-opacity:1;"
       id="path128"
       d="M 17.500000 308.750000 A 5.625000 5.000000 0 1 0 6.250000,308.750000 A 5.625 5 0 1 0 17.5 308.75 L 11.875000 308.750000 z"
       sodipodi:cx="11.875000"
       sodipodi:cy="308.750000"
       sodipodi:rx="5.625000"
       sodipodi:ry="5.000000"
       transform="matrix(2.312459,0.000000,0.000000,2.601513,379.1501,-276.7445)" />
    <rect
       style="font-size:12;fill-rule:evenodd;stroke-width:0.992152;"
       id="rect130"
       x="400.10686988"
       y="506.96350098"
       width="29.26708412"
       height="26.01518631"
       rx="0"
       ry="0" />
    <rect
       style="font-size:12;fill:#007f7f;fill-rule:evenodd;stroke-width:0.757773;"
       id="rect131"
       x="403.35876197"
       y="510.21539307"
       width="22.76328659"
       height="19.51138878"
       rx="0"
       ry="0" />
    <path
       style="fill:#000000;fill-rule:evenodd;stroke:none;stroke-opacity:1;stroke-width:1pt;stroke-linejoin:miter;stroke-linecap:butt;fill-opacity:1;"
       d="M 409.8626 529.72675 L 409.8626 523.22295 L 422.8702 513.46726 L 435.87779 523.22295 L 435.87779 529.72675 L 432.62589 529.72675 L 432.62589 536.23055 L 413.1145 536.23055 L 413.1145 529.72675 L 409.8626 529.72675 z "
       id="path132"
       sodipodi:nodetypes="cccccccccc" />
    <path
       style="fill:#ff7572;fill-rule:evenodd;stroke:none;stroke-opacity:1;stroke-width:1pt;stroke-linejoin:miter;stroke-linecap:butt;fill-opacity:1;"
       d="M 409.8626 526.47485 L 422.8702 516.71916 L 435.87779 526.47485 L 429.37399 526.47485 L 429.37399 536.23055 L 416.3664 536.23055 L 416.3664 526.47485 L 409.8626 526.47485 z "
       id="path133"
       sodipodi:nodetypes="cccccccc" />
    <rect
       style="font-size:12;fill-rule:evenodd;stroke-width:0.992152;"
       id="rect134"
       x="452.13723487"
       y="471.19259644"
       width="29.26708412"
       height="26.01518631"
       rx="0"
       ry="0" />
    <rect
       style="font-size:12;fill:#afffba;fill-rule:evenodd;stroke-width:0.757773;fill-opacity:1;"
       id="rect135"
       x="455.38915747"
       y="474.44448853"
       width="22.76328659"
       height="19.51138878"
       rx="0"
       ry="0" />
    <path
       sodipodi:type="arc"
       style="font-size:12;fill-rule:evenodd;stroke-width:0.782624;"
       id="path136"
       d="M 17.500000 308.750000 A 5.625000 5.000000 0 1 0 6.250000,308.750000 A 5.625 5 0 1 0 17.5 308.75 L 11.875000 308.750000 z"
       sodipodi:cx="11.875000"
       sodipodi:cy="308.750000"
       sodipodi:rx="5.625000"
       sodipodi:ry="5.000000"
       transform="matrix(2.890599,0.000000,0.000000,3.251976,424.3150,-529.6035)" />
    <path
       sodipodi:type="arc"
       style="font-size:12;fill:#007f7f;fill-rule:evenodd;stroke-width:0.782624;fill-opacity:1;"
       id="path137"
       d="M 17.500000 308.750000 A 5.625000 5.000000 0 1 0 6.250000,308.750000 A 5.625 5 0 1 0 17.5 308.75 L 11.875000 308.750000 z"
       sodipodi:cx="11.875000"
       sodipodi:cy="308.750000"
       sodipodi:rx="5.625000"
       sodipodi:ry="5.000000"
       transform="matrix(2.312459,0.000000,0.000000,2.601513,431.1804,-328.7749)" />
    <rect
       style="font-size:12;fill-rule:evenodd;stroke-width:0.992152;"
       id="rect138"
       x="452.13723487"
       y="454.93310547"
       width="29.26708412"
       height="26.01518631"
       rx="0"
       ry="0" />
    <rect
       style="font-size:12;fill:#007f7f;fill-rule:evenodd;stroke-width:0.757773;"
       id="rect139"
       x="455.38915747"
       y="458.18499756"
       width="22.76328659"
       height="19.51138878"
       rx="0"
       ry="0" />
    <path
       style="fill:#000000;fill-rule:evenodd;stroke:none;stroke-opacity:1;stroke-width:1pt;stroke-linejoin:miter;stroke-linecap:butt;fill-opacity:1;"
       d="M 461.89298 471.19261 L 461.89298 477.69641 L 474.90057 487.4521 L 487.90816 477.69641 L 487.90816 471.19261 L 484.65626 471.19261 L 484.65626 464.68881 L 465.14487 464.68881 L 465.14487 471.19261 L 461.89298 471.19261 z "
       id="path140"
       sodipodi:nodetypes="cccccccccc" />
    <path
       style="fill:#ff7572;fill-rule:evenodd;stroke:none;stroke-opacity:1;stroke-width:1pt;stroke-linejoin:miter;stroke-linecap:butt;fill-opacity:1;"
       d="M 461.89298 474.44451 L 474.90057 484.2002 L 487.90816 474.44451 L 481.40436 474.44451 L 481.40436 464.68881 L 468.39677 464.68881 L 468.39677 474.44451 L 461.89298 474.44451 z "
       id="path141"
       sodipodi:nodetypes="cccccccc" />
    <rect
       style="font-size:12;fill-rule:evenodd;stroke-width:0.992152;"
       id="rect142"
       x="452.13723487"
       y="523.22296143"
       width="29.26708412"
       height="26.01518631"
       rx="0"
       ry="0" />
    <rect
       style="font-size:12;fill:#007f7f;fill-rule:evenodd;stroke-width:0.757773;"
       id="rect143"
       x="455.38915747"
       y="526.47485352"
       width="22.76328659"
       height="19.51138878"
       rx="0"
       ry="0" />
    <path
       sodipodi:type="arc"
       style="font-size:12;fill-rule:evenodd;stroke-width:0.782624;"
       id="path144"
       d="M 17.500000 308.750000 A 5.625000 5.000000 0 1 0 6.250000,308.750000 A 5.625 5 0 1 0 17.5 308.75 L 11.875000 308.750000 z"
       sodipodi:cx="11.875000"
       sodipodi:cy="308.750000"
       sodipodi:rx="5.625000"
       sodipodi:ry="5.000000"
       transform="matrix(2.890599,0.000000,0.000000,3.251976,424.3150,-477.5731)" />
    <path
       sodipodi:type="arc"
       style="font-size:12;fill:#007f7f;fill-rule:evenodd;stroke-width:0.782624;fill-opacity:1;"
       id="path145"
       d="M 17.500000 308.750000 A 5.625000 5.000000 0 1 0 6.250000,308.750000 A 5.625 5 0 1 0 17.5 308.75 L 11.875000 308.750000 z"
       sodipodi:cx="11.875000"
       sodipodi:cy="308.750000"
       sodipodi:rx="5.625000"
       sodipodi:ry="5.000000"
       transform="matrix(2.312459,0.000000,0.000000,2.601513,431.1804,-276.7445)" />
    <rect
       style="font-size:12;fill-rule:evenodd;stroke-width:0.992152;"
       id="rect146"
       x="452.13723487"
       y="506.96350098"
       width="29.26708412"
       height="26.01518631"
       rx="0"
       ry="0" />
    <rect
       style="font-size:12;fill:#afffba;fill-rule:evenodd;stroke-width:0.757773;fill-opacity:1;"
       id="rect147"
       x="455.38915747"
       y="510.21539307"
       width="22.76328659"
       height="19.51138878"
       rx="0"
       ry="0" />
    <path
       style="fill:#000000;fill-rule:evenodd;stroke:none;stroke-opacity:1;stroke-width:1pt;stroke-linejoin:miter;stroke-linecap:butt;fill-opacity:1;"
       d="M 461.89298 529.72675 L 461.89298 523.22295 L 474.90057 513.46726 L 487.90816 523.22295 L 487.90816 529.72675 L 484.65626 529.72675 L 484.65626 536.23055 L 465.14487 536.23055 L 465.14487 529.72675 L 461.89298 529.72675 z "
       id="path148"
       sodipodi:nodetypes="cccccccccc" />
    <path
       style="fill:#ff7572;fill-rule:evenodd;stroke:none;stroke-opacity:1;stroke-width:1pt;stroke-linejoin:miter;stroke-linecap:butt;fill-opacity:1;"
       d="M 461.89298 526.47485 L 474.90057 516.71916 L 487.90816 526.47485 L 481.40436 526.47485 L 481.40436 536.23055 L 468.39677 536.23055 L 468.39677 526.47485 L 461.89298 526.47485 z "
       id="path149"
       sodipodi:nodetypes="cccccccc" />
  </g>
  <g
     id="g4096"
     transform="matrix(0.397412,0.000000,0.000000,0.397412,314.6482,220.7661)">
    <path
       style="font-size:12;fill-rule:evenodd;stroke-width:1pt;"
       d="M 524.14792 790.07767 C 542.61992 793.77167 546.31592 806.70267 542.61992 810.39667 C 538.92692 814.09167 529.69092 817.78567 522.30192 812.24367 C 514.91092 806.70267 514.91092 793.77167 524.14792 790.07767 z "
       id="path4085" />
    <path
       style="font-size:12;fill-rule:evenodd;stroke-width:1pt;"
       d="M 337.21492 791.31167 C 335.41492 791.79167 320.37792 778.83367 308.46992 784.83967 C 296.56492 790.84467 288.57292 804.29167 299.69492 809.80967 C 310.81792 815.32767 318.76892 808.96467 328.51992 802.11767 C 338.27192 795.27167 337.91992 793.95267 337.21492 791.31167 z "
       id="path4086" />
    <path
       style="font-size:12;fill-rule:evenodd;stroke-width:1pt;"
       d="M 556.92292 758.43767 C 566.96892 755.92567 590.17492 758.43767 586.47892 773.21367 C 582.78592 787.99367 551.38392 782.44967 531.06192 775.06367 C 529.21492 760.28467 552.18792 759.62067 556.92292 758.43767 z "
       id="path4087" />
    <path
       style="font-size:12;fill-rule:evenodd;stroke-width:1pt;"
       d="M 226.74512 642.14767 C 218.23812 650.65467 213.98412 661.75567 213.98412 672.85767 L 603.30292 672.85767 C 603.30292 661.75567 599.04992 650.65467 590.54292 642.14767 L 439.35392 490.95907 C 422.33992 473.94507 394.94692 473.94507 377.93292 490.95907 L 226.74512 642.14767 z "
       id="path567" />
    <path
       style="font-size:12;fill-rule:evenodd;stroke-width:1pt;fill:#ffffff;fill-opacity:1;"
       d="M 364.63192 524.89367 C 347.26892 533.70867 318.74492 570.74367 318.74492 576.03267 L 318.20392 598.05567 L 367.66192 593.09567 L 385.37492 551.62767 L 399.11892 599.04867 L 435.08492 575.04067 L 458.35292 585.95267 L 462.57392 554.00867 L 504.88892 574.44467 C 504.88892 573.78367 504.84092 573.12267 504.74292 572.46367 C 504.64492 571.80567 504.49892 571.14867 504.30292 570.49767 C 504.10792 569.84567 503.86392 569.19967 503.57092 568.55967 C 503.27792 567.92067 502.93592 567.28867 502.54492 566.66567 C 502.15492 566.04367 501.71492 565.43067 501.22692 564.82967 C 500.73792 564.22867 500.20092 563.64067 499.61492 563.06667 C 499.02892 562.49167 498.39392 561.93267 497.70992 561.38967 C 497.02592 560.84667 496.29292 560.32067 495.51092 559.81367 L 424.07192 506.83247 C 411.56692 498.72647 408.89292 493.96447 396.38792 502.07047 L 364.63192 524.89367 z "
       id="path568" />
    <path
       style="font-size:12;fill-rule:evenodd;stroke-width:1pt;"
       d="M 300.24292 706.24967 C 291.73592 697.74267 213.98412 683.30067 213.98412 672.19867 L 603.30292 672.19867 C 603.30292 683.30067 606.07892 692.29567 579.73592 704.25967 C 526.88392 728.26167 502.38492 721.86767 489.78592 734.46667 C 477.18692 747.06567 512.51392 754.21167 523.29992 770.98667 C 496.50292 801.12467 464.69392 801.19567 452.09492 813.79467 C 439.49592 826.39367 476.26892 825.28767 463.66992 837.88667 C 439.90192 854.90067 404.40292 863.00667 387.38892 845.99267 C 395.05392 813.12967 352.73492 828.89967 340.13592 816.30067 C 327.53692 803.70167 365.88592 790.26667 353.28692 777.66767 C 340.68692 765.06867 277.14092 753.30467 264.54192 740.70567 C 251.94312 728.10667 312.84192 718.84867 300.24292 706.24967 z "
       id="path573" />
    <path
       style="font-size:12;fill-rule:evenodd;stroke-width:1pt;fill:#ffffff;fill-opacity:1;"
       d="M 341.59992 713.97767 C 364.11492 719.81667 389.15292 727.46267 409.25092 727.59967 L 410.11992 736.65367 C 392.90992 734.87967 356.48792 726.57967 347.90192 722.19367 L 341.59992 713.97767 z "
       id="path574" />
    <g
       id="g606"
       transform="translate(205.0994,465.3039)">
      <path
         style="fill:#ffffff;fill-rule:evenodd;stroke:#000001;stroke-opacity:1;stroke-width:10;stroke-linejoin:miter;stroke-linecap:butt;fill-opacity:1;stroke-dasharray:none;"
         d="M 163.266 241.131 C 182.523 248.248 227.671 253.198 249.294 234.223 C 259.551 225.851 272.947 210.571 263.737 194.663 C 253.715 176.086 211.477 178.235 197.174 200.942 C 182.845 224.737 145.925 234.506 163.266 241.131 z "
         id="path603"
         sodipodi:nodetypes="cssss" />
      <path
         style="fill:#000000;fill-rule:nonzero;stroke:none;fill-opacity:1;stroke-opacity:1;stroke-width:3pt;stroke-linejoin:miter;stroke-linecap:butt;"
         id="path604"
         d="M 206.31563 230.03187 C 208.62163 229.13687 211.23763 229.15987 213.66163 228.56687 C 217.83363 227.54687 222.18063 226.82987 226.10363 225.19287 C 229.21563 223.89487 231.86163 221.54187 234.76863 219.76387 C 236.29463 218.82987 237.79363 217.83387 239.40363 217.05687 C 244.68763 214.50587 250.10063 212.20387 255.44963 209.77787 C 250.62863 214.21887 246.39121 222.20501 241.17521 226.09201 C 237.42521 228.88701 233.09221 231.09401 228.74121 232.81401 C 224.34421 234.55301 219.60921 235.64701 214.93221 236.46801 C 208.58421 237.58201 201.89963 234.90987 195.47763 235.62687 C 199.09063 233.76187 202.55963 231.48987 206.31563 230.03187 z "
         sodipodi:nodetypes="csssscssscs" />
      <path
         style="fill:#fefffe;fill-rule:evenodd;stroke:#000000;stroke-opacity:1;stroke-width:10;stroke-linejoin:miter;stroke-linecap:butt;fill-opacity:1;stroke-dasharray:none;"
         d="M 246.988 180.613 C 258.095 184.428 266.817 192.452 268.879 207.74 C 280.618 195.369 319.227 183.028 394.381 126.897 L 394.345 40.4293 C 282.605 119.409 261.582 170.143 246.988 180.613 z "
         id="path575"
         sodipodi:nodetypes="ccccc" />
    </g>
  </g>
  <g
     id="g4108"
     transform="translate(-11.51654,-2.879134)">
    <path
       sodipodi:type="arc"
       style="font-size:12;fill:#ffffff;fill-rule:evenodd;stroke:#0075bd;stroke-width:5.66193;"
       id="path586"
       d="M 827.751114 586.662231 A 248.325333 248.325333 0 1 0 331.100449,586.662231 A 248.325 248.325 0 1 0 827.751 586.662 L 579.425781 586.662231 z"
       sodipodi:cx="579.425781"
       sodipodi:cy="586.662231"
       sodipodi:rx="248.325333"
       sodipodi:ry="248.325333"
       transform="matrix(0.310145,0.000000,0.000000,0.310145,-63.55797,314.2515)" />
    <path
       sodipodi:type="arc"
       style="font-size:12;fill:#0075bd;fill-rule:evenodd;stroke:#0075bd;stroke-width:5.66193;"
       id="path591"
       d="M 827.751114 586.662231 A 248.325333 248.325333 0 1 0 331.100449,586.662231 A 248.325 248.325 0 1 0 827.751 586.662 L 579.425781 586.662231 z"
       sodipodi:cx="579.425781"
       sodipodi:cy="586.662231"
       sodipodi:rx="248.325333"
       sodipodi:ry="248.325333"
       transform="matrix(0.293857,0.000000,0.000000,0.293857,-54.12037,323.8069)" />
    <path
       style="font-size:12;fill:#ffffff;fill-rule:evenodd;stroke-width:3.57779pt;"
       d="M 106.52526 554.41896 L 106.52526 467.20259 L 86.968921 486.97867 L 86.968921 457.8168 L 116.14783 428.42997 L 145.32673 457.8168 L 145.32673 486.97867 L 125.77039 467.20259 L 125.77039 554.41896 L 106.52526 554.41896 z "
       id="path707"
       sodipodi:nodetypes="cccccccccc" />
  </g>
  <g
     id="g4154"
     transform="matrix(0.168394,0.000000,0.000000,0.168394,330.9904,62.23151)">
    <text
       xml:space="preserve"
       style="fill:#009d00;fill-opacity:1;stroke:none;font-family:Nimbus Sans L;font-style:normal;font-weight:bold;font-size:16;stroke-opacity:1;stroke-width:0.262942;stroke-linejoin:round;stroke-linecap:round;text-anchor:start;writing-mode:lr;stroke-dasharray:none;"
       x="-28.8664532"
       y="-19.9629893"
       id="text614"
       transform="scale(-38.93130,-38.93130)"
       sodipodi:linespacing="100%"><tspan
         x="-28.8664532"
         y="-19.9629898"
         sodipodi:role="line"
         id="tspan615"
         style="stroke:none;stroke-opacity:1;stroke-width:0.262942;stroke-dasharray:none;stroke-linejoin:round;stroke-linecap:round;fill:#009d00;fill-opacity:1;">P</tspan></text>
    <text
       xml:space="preserve"
       style="fill:#007700;fill-opacity:1;stroke:none;font-family:Nimbus Sans L;font-style:normal;font-weight:bold;font-size:16;stroke-opacity:1;stroke-width:0.262942;stroke-linejoin:round;stroke-linecap:round;text-anchor:start;writing-mode:lr;stroke-dasharray:none;"
       x="24.0841522"
       y="41.2922796"
       id="text608"
       transform="scale(38.93130,38.93130)"
       sodipodi:linespacing="100%"><tspan
         x="24.0841522"
         y="41.2922783"
         sodipodi:role="line"
         id="tspan609"
         style="stroke:none;stroke-opacity:1;stroke-width:0.262942;stroke-dasharray:none;stroke-linejoin:round;stroke-linecap:round;fill:#007700;fill-opacity:1;">P</tspan></text>
    <text
       xml:space="preserve"
       style="fill:#005f00;fill-opacity:1;stroke:none;font-family:Nimbus Sans L;font-style:normal;font-weight:bold;font-size:16;stroke-opacity:1;stroke-width:0.262942;stroke-linejoin:round;stroke-linecap:round;text-anchor:start;writing-mode:lr;stroke-dasharray:none;"
       x="-28.8664532"
       y="46.7425322"
       id="text611"
       transform="scale(-38.93130,38.93130)"
       sodipodi:linespacing="100%"><tspan
         x="-28.8664532"
         y="46.7425308"
         sodipodi:role="line"
         id="tspan612"
         style="stroke:none;stroke-opacity:1;stroke-width:0.262942;stroke-dasharray:none;stroke-linejoin:round;stroke-linecap:round;fill:#005f00;fill-opacity:1;">P</tspan></text>
  </g>
</svg>
