<?xml version="1.0" encoding="UTF-8" standalone="no"?>
<!DOCTYPE svg PUBLIC "-//W3C//DTD SVG 20010904//EN"
"http://www.w3.org/TR/2001/REC-SVG-20010904/DTD/svg10.dtd">
<!-- Created with Inkscape ("http://www.inkscape.org/") -->
<svg
   id="svg559"
   sodipodi:version="0.32"
   width="600pt"
   height="500pt"
   sodipodi:docname="glade/about.svg"
   inkscape:version="0.37cvs"
   sodipodi:docbase="glade"
   xmlns="http://www.w3.org/2000/svg"
   xmlns:inkscape="http://www.inkscape.org/namespaces/inkscape"
   xmlns:sodipodi="http://sodipodi.sourceforge.net/DTD/sodipodi-0.dtd"
   xmlns:xlink="http://www.w3.org/1999/xlink">
  <defs
     id="defs561">
    <linearGradient
       id="linearGradient583">
      <stop
         style="stop-color:#ffffff;stop-opacity:1;"
         offset="0.000000"
         id="stop584" />
      <stop
         style="stop-color:#ffffff;stop-opacity:0;"
         offset="1.000000"
         id="stop585" />
    </linearGradient>
    <linearGradient
       xlink:href="#linearGradient583"
       id="linearGradient586"
       x1="0.497940"
       y1="0.009092"
       x2="0.485597"
       y2="0.972727" />
  </defs>
  <sodipodi:namedview
     id="base" />
  <rect
     style="font-size:12;fill:#0083ab;fill-rule:evenodd;stroke:#000000;stroke-width:6.86497;"
     id="rect582"
     width="480.000031"
     height="605.026863"
     x="11.250000"
     y="11.250000"
     ry="54.020255"
     rx="0.000000" />
  <rect
     style="fill-rule:evenodd;stroke:none;fill:#fdffff;fill-opacity:1;stroke-opacity:1;stroke-width:1pt;stroke-linejoin:miter;stroke-linecap:butt;"
     id="rect133"
     x="165.887863"
     y="217.289717"
     width="123.052948"
     height="91.900313"
     rx="0.000000"
     ry="0.000000" />
  <path
     style="font-size:12;fill-rule:evenodd;stroke-width:1pt;"
     d="M 364.356 345.595 C 382.828 349.289 386.524 362.22 382.828 365.914 C 379.135 369.609 369.899 373.303 362.51 367.761 C 355.119 362.22 355.119 349.289 364.356 345.595 z "
     id="path580" />
  <path
     style="font-size:12;fill-rule:evenodd;stroke-width:1pt;"
     d="M 177.423 346.829 C 175.623 347.309 160.586 334.351 148.678 340.357 C 136.773 346.362 128.781 359.809 139.903 365.327 C 151.026 370.845 158.977 364.482 168.728 357.635 C 178.48 350.789 178.128 349.47 177.423 346.829 z "
     id="path582" />
  <path
     style="font-size:12;fill-rule:evenodd;stroke-width:1pt;"
     d="M 397.131 313.955 C 407.177 311.443 430.383 313.955 426.687 328.731 C 422.994 343.511 391.592 337.967 371.27 330.581 C 369.423 315.802 392.396 315.138 397.131 313.955 z "
     id="path583" />
  <path
     style="font-size:12;fill:#ffffff;fill-rule:evenodd;stroke-width:1pt;fill-opacity:1;"
     d="M 237.765 41.2639 L 119.324 161.472 L 377.418 155.285 L 256.326 41.2639 L 237.765 41.2639 z "
     id="path615"
     sodipodi:nodetypes="ccccc" />
  <path
     style="font-size:12;fill-rule:evenodd;stroke-width:1pt;fill:#000000;fill-opacity:1;"
     d="M 66.9532 197.665 C 58.4462 206.172 54.1922 217.273 54.1922 228.375 L 443.511 228.375 C 443.511 217.273 439.258 206.172 430.751 197.665 L 279.562 46.4764 C 262.548 29.4624 235.155 29.4624 218.141 46.4764 L 66.9532 197.665 z M 204.84 80.411 C 187.477 89.226 158.953 126.261 158.953 131.55 L 158.412 153.573 L 207.87 148.613 L 225.583 107.145 L 239.327 154.566 L 275.293 130.558 L 298.561 141.47 L 302.782 109.526 L 345.097 129.962 C 345.097 129.301 345.049 128.64 344.951 127.981 C 344.853 127.323 344.707 126.666 344.511 126.015 C 344.316 125.363 344.072 124.717 343.779 124.077 C 343.486 123.438 343.144 122.806 342.753 122.183 C 342.363 121.561 341.923 120.948 341.435 120.347 C 340.946 119.746 340.409 119.158 339.823 118.584 C 339.237 118.009 338.602 117.45 337.918 116.907 C 337.234 116.364 336.501 115.838 335.719 115.331 L 264.28 62.3498 C 251.775 54.2438 249.101 49.4818 236.596 57.5878 L 204.84 80.411 z "
     id="path588" />
  <path
     style="font-size:12;fill-rule:evenodd;stroke-width:1pt;fill:#000000;fill-opacity:1;"
     d="M 140.451 261.767 C 131.944 253.26 54.1922 238.818 54.1922 227.716 L 443.511 227.716 C 443.511 238.818 446.287 247.813 419.944 259.777 C 367.092 283.779 342.593 277.385 329.994 289.984 C 317.395 302.583 352.722 309.729 363.508 326.504 C 336.711 356.642 304.902 356.713 292.303 369.312 C 279.704 381.911 316.477 380.805 303.878 393.404 C 280.11 410.418 244.611 418.524 227.597 401.51 C 235.262 368.647 192.943 384.417 180.344 371.818 C 167.745 359.219 206.094 345.784 193.495 333.185 C 180.895 320.586 117.349 308.822 104.75 296.223 C 92.1512 283.624 153.05 274.366 140.451 261.767 z M 181.808 269.495 C 204.323 275.334 229.361 282.98 249.459 283.117 L 250.328 292.171 C 233.118 290.397 196.696 282.097 188.11 277.711 L 181.808 269.495 z "
     id="path591" />
  <path
     transform="matrix(1.22224,0,0,1,-6.51054,0)"
     style="font-size:40;font-weight:normal;fill:#ffffff;stroke-width:1pt;font-family:Century Schoolbook L;"
     d="M 355.812 429.87 L 331.772 429.87 L 331.772 431.75 L 332.492 431.75 C 335.732 431.75 336.092 431.95 336.092 433.63 L 336.092 434.79 L 336.092 453.83 L 336.092 454.99 C 336.092 456.67 335.732 456.87 332.492 456.87 L 331.772 456.87 L 331.772 458.75 L 356.332 458.75 L 357.132 448.07 L 355.372 448.07 C 354.852 450.87 353.932 453.35 352.972 454.51 C 351.732 456.11 349.452 456.87 346.092 456.87 L 343.452 456.87 C 342.252 456.87 341.252 456.63 340.892 456.27 C 340.612 456.03 340.572 455.79 340.572 454.95 L 340.572 444.75 L 341.372 444.75 C 343.812 444.75 344.812 444.99 345.612 445.83 C 346.652 446.87 347.052 448.15 347.132 450.51 L 349.012 450.51 L 349.012 437.39 L 347.132 437.39 C 346.932 441.31 345.332 442.87 341.532 442.87 L 340.572 442.87 L 340.572 433.75 C 340.572 432.03 340.932 431.75 343.092 431.75 L 345.172 431.75 C 348.692 431.75 350.412 432.11 351.772 433.23 C 353.092 434.27 354.052 436.51 354.652 440.11 L 356.372 440.11 L 355.812 429.87 z M 302.732 445.91 L 307.252 445.91 C 310.852 445.91 312.732 445.63 314.332 444.87 C 317.172 443.51 318.772 440.95 318.772 437.79 C 318.772 434.75 317.372 432.43 314.732 431.11 C 313.172 430.31 310.692 429.87 307.932 429.87 L 293.932 429.87 L 293.932 431.75 L 294.652 431.75 C 297.892 431.75 298.252 431.95 298.252 433.63 L 298.252 434.79 L 298.252 453.83 L 298.252 454.99 C 298.252 456.67 297.892 456.87 294.652 456.87 L 293.932 456.87 L 293.932 458.75 L 307.372 458.75 L 307.372 456.87 L 306.332 456.87 C 303.092 456.87 302.732 456.67 302.732 454.99 L 302.732 453.83 L 302.732 445.91 z M 302.732 444.03 L 302.732 433.79 C 302.732 431.95 302.972 431.75 305.172 431.75 L 307.732 431.75 C 311.892 431.75 313.852 433.71 313.852 437.95 C 313.852 442.07 311.812 444.03 307.572 444.03 L 302.732 444.03 z M 267.932 429.31 L 266.252 429.31 L 257.052 452.63 C 256.252 454.71 256.092 454.99 255.492 455.63 C 254.852 456.39 253.732 456.87 252.652 456.87 L 252.492 456.87 L 252.492 458.75 L 263.092 458.75 L 263.092 456.87 L 262.292 456.87 C 260.132 456.87 259.052 456.11 259.052 454.59 C 259.052 454.11 259.172 453.55 259.412 452.91 L 260.732 449.39 L 271.332 449.39 L 273.492 454.75 C 273.732 455.35 273.812 455.63 273.812 455.83 C 273.812 456.47 272.812 456.87 271.332 456.87 L 269.652 456.87 L 269.652 458.75 L 282.052 458.75 L 282.052 456.87 L 281.492 456.87 C 279.492 456.87 279.052 456.55 278.132 454.31 L 267.932 429.31 z M 265.972 435.87 L 270.492 447.23 L 261.532 447.23 L 265.972 435.87 z M 238.372 429.59 L 236.852 429.59 L 235.252 431.95 C 232.412 429.87 230.852 429.27 228.172 429.27 C 224.292 429.27 221.092 430.83 218.372 434.07 C 215.812 437.11 214.612 440.47 214.612 444.59 C 214.612 453.19 220.252 459.35 228.132 459.35 C 234.532 459.35 238.612 455.59 239.532 448.87 L 237.652 448.55 C 237.252 450.67 236.772 452.11 236.052 453.31 C 234.412 456.07 231.852 457.47 228.612 457.47 C 222.692 457.47 219.892 453.35 219.892 444.75 C 219.892 440.23 220.492 437.19 221.852 434.79 C 223.092 432.55 225.572 431.15 228.132 431.15 C 230.932 431.15 233.412 432.63 234.932 435.19 C 235.692 436.51 236.292 438.07 237.212 441.15 L 238.972 441.15 L 238.372 429.59 z M 198.332 429.63 L 196.852 429.63 L 195.252 432.03 C 193.372 430.23 190.812 429.27 187.972 429.27 C 182.732 429.27 179.212 432.63 179.212 437.63 C 179.212 441.99 181.372 444.15 187.252 445.67 L 191.052 446.63 C 194.012 447.39 194.292 447.47 195.132 448.11 C 196.332 449.03 196.972 450.35 196.972 451.91 C 196.972 453.51 196.372 454.83 195.172 455.91 C 193.852 457.07 192.532 457.51 190.332 457.51 C 187.372 457.51 185.252 456.59 183.372 454.51 C 181.692 452.63 180.852 450.75 180.252 447.67 L 178.532 447.67 L 178.692 459.07 L 180.252 459.07 L 182.052 456.35 C 184.732 458.55 186.972 459.35 190.452 459.35 C 196.332 459.35 200.092 455.91 200.092 450.55 C 200.092 448.07 199.252 445.95 197.692 444.43 C 196.612 443.39 195.052 442.71 191.852 441.91 L 187.572 440.83 C 184.012 439.91 182.332 438.35 182.332 435.91 C 182.332 433.11 184.612 431.19 188.012 431.19 C 190.812 431.19 193.092 432.39 194.692 434.67 C 195.852 436.31 196.572 437.99 197.092 440.03 L 198.812 440.03 L 198.332 429.63 z M 144.252 445.67 L 144.252 434.79 L 144.252 433.63 C 144.252 431.95 144.612 431.75 147.852 431.75 L 148.612 431.75 L 148.612 429.87 L 135.452 429.87 L 135.452 431.75 L 136.172 431.75 C 139.412 431.75 139.772 431.95 139.772 433.63 L 139.772 434.79 L 139.772 453.83 L 139.772 454.99 C 139.772 456.67 139.412 456.87 136.172 456.87 L 135.452 456.87 L 135.452 458.75 L 148.612 458.75 L 148.612 456.87 L 147.852 456.87 C 144.612 456.87 144.252 456.67 144.252 454.99 L 144.252 453.83 L 144.252 448.75 L 148.892 444.07 L 155.852 454.27 C 156.492 455.23 156.652 455.55 156.652 455.95 C 156.652 456.59 155.892 456.87 153.932 456.87 L 152.692 456.87 L 152.692 458.75 L 166.372 458.75 L 166.372 456.87 L 165.612 456.87 C 163.412 456.87 162.852 456.59 161.692 454.87 L 152.012 440.91 L 157.972 434.95 C 159.892 432.91 162.332 431.75 164.732 431.75 L 164.732 429.87 L 152.412 429.87 L 152.412 431.75 L 153.412 431.75 C 155.252 431.75 156.012 432.11 156.012 432.95 C 156.012 433.51 155.212 434.67 154.052 435.83 L 144.252 445.67 z M 99.5319 429.87 L 91.2919 429.87 L 91.2919 431.75 L 92.2919 431.75 C 94.3319 431.75 95.2519 432.07 95.9719 433.07 L 95.9719 450.07 C 95.9719 455.55 95.1719 456.71 91.3319 456.87 L 91.3319 458.75 L 102.732 458.75 L 102.732 456.87 C 98.9319 456.71 98.1319 455.55 98.1319 450.07 L 98.1319 435.23 L 115.972 459.31 L 117.652 459.31 L 117.652 438.55 C 117.652 433.07 118.452 431.91 122.292 431.75 L 122.292 429.87 L 110.892 429.87 L 110.892 431.75 C 114.692 431.91 115.492 433.07 115.492 438.55 L 115.492 451.11 L 99.5319 429.87 z M 73.5319 434.79 L 73.5319 433.63 C 73.5319 431.95 73.8919 431.75 77.0919 431.75 L 77.8919 431.75 L 77.8919 429.87 L 64.6519 429.87 L 64.6519 431.75 L 65.4519 431.75 C 68.6919 431.75 69.0519 431.95 69.0519 433.63 L 69.0519 434.79 L 69.0519 453.83 L 69.0519 454.99 C 69.0519 456.67 68.6919 456.87 65.4519 456.87 L 64.6519 456.87 L 64.6519 458.75 L 77.8919 458.75 L 77.8919 456.87 L 77.0919 456.87 C 73.8919 456.87 73.5319 456.67 73.5319 454.99 L 73.5319 453.83 L 73.5319 434.79 z "
     id="path93" />
  <a
     id="a580"
     xlink:href="http://www.inkscape.org/"
     xlink:title="The Inkscape Website">
    <path
       style="font-size:28;font-weight:normal;fill:#ffffff;stroke-width:1pt;font-family:Helvetica;"
       d="M 395.786 568.572 L 395.786 570.7 C 394.61 568.964 393.182 568.152 391.306 568.152 C 387.582 568.152 385.062 571.4 385.062 576.16 C 385.062 578.568 385.706 580.528 386.91 581.928 C 388.002 583.16 389.57 583.888 391.11 583.888 C 392.958 583.888 394.246 583.104 395.562 581.256 L 395.562 582.012 C 395.562 584 395.31 585.204 394.722 586.016 C 394.106 586.884 392.902 587.388 391.474 587.388 C 390.41 587.388 389.458 587.108 388.814 586.604 C 388.282 586.184 388.058 585.792 387.918 584.924 L 385.538 584.924 C 385.79 587.696 387.946 589.348 391.39 589.348 C 393.574 589.348 395.45 588.648 396.402 587.472 C 397.522 586.128 397.942 584.28 397.942 580.836 L 397.942 568.572 L 395.786 568.572 z M 391.558 570.308 C 394.078 570.308 395.562 572.436 395.562 576.104 C 395.562 579.604 394.05 581.732 391.586 581.732 C 389.038 581.732 387.498 579.576 387.498 576.02 C 387.498 572.492 389.066 570.308 391.558 570.308 z M 376.858 568.572 L 376.858 583.244 L 379.21 583.244 L 379.21 575.628 C 379.21 573.528 379.742 572.156 380.862 571.344 C 381.59 570.812 382.29 570.644 383.914 570.616 L 383.914 568.236 C 383.522 568.18 383.326 568.152 383.018 568.152 C 381.506 568.152 380.358 569.048 379.014 571.232 L 379.014 568.572 L 376.858 568.572 z M 366.974 568.152 C 362.858 568.152 360.366 571.092 360.366 576.02 C 360.366 580.948 362.83 583.888 367.002 583.888 C 371.118 583.888 373.638 580.948 373.638 576.132 C 373.638 571.064 371.202 568.152 366.974 568.152 z M 367.002 570.308 C 369.634 570.308 371.202 572.464 371.202 576.104 C 371.202 579.548 369.578 581.732 367.002 581.732 C 364.398 581.732 362.802 579.576 362.802 576.02 C 362.802 572.492 364.398 570.308 367.002 570.308 z M 356.922 580.332 L 354.01 580.332 L 354.01 583.244 L 356.922 583.244 L 356.922 580.332 z M 350.37 576.692 C 350.37 574.452 350.202 573.108 349.782 572.016 C 348.83 569.608 346.59 568.152 343.846 568.152 C 339.758 568.152 337.126 571.288 337.126 576.104 C 337.126 580.92 339.674 583.888 343.79 583.888 C 347.15 583.888 349.474 581.984 350.062 578.792 L 347.71 578.792 C 347.066 580.724 345.75 581.732 343.874 581.732 C 342.39 581.732 341.13 581.06 340.346 579.828 C 339.786 578.988 339.59 578.148 339.562 576.692 L 350.37 576.692 z M 339.618 574.788 C 339.814 572.072 341.466 570.308 343.818 570.308 C 346.114 570.308 347.878 572.212 347.878 574.62 C 347.878 574.676 347.878 574.732 347.85 574.788 L 339.618 574.788 z M 321.95 589.348 L 324.302 589.348 L 324.302 581.704 C 325.534 583.216 326.906 583.888 328.81 583.888 C 332.59 583.888 335.082 580.836 335.082 576.16 C 335.082 571.232 332.674 568.152 328.782 568.152 C 326.794 568.152 325.198 569.048 324.106 570.784 L 324.106 568.572 L 321.95 568.572 L 321.95 589.348 z M 328.39 570.336 C 330.966 570.336 332.646 572.604 332.646 576.104 C 332.646 579.436 330.938 581.704 328.39 581.704 C 325.926 581.704 324.302 579.464 324.302 576.02 C 324.302 572.576 325.926 570.336 328.39 570.336 z M 319.85 581.872 C 319.598 581.928 319.486 581.928 319.346 581.928 C 318.534 581.928 318.086 581.508 318.086 580.78 L 318.086 572.156 C 318.086 569.552 316.182 568.152 312.57 568.152 C 310.442 568.152 308.678 568.768 307.698 569.86 C 307.026 570.616 306.746 571.456 306.69 572.912 L 309.042 572.912 C 309.238 571.12 310.302 570.308 312.486 570.308 C 314.586 570.308 315.762 571.092 315.762 572.492 L 315.762 573.108 C 315.762 574.088 315.174 574.508 313.326 574.732 C 310.022 575.152 309.518 575.264 308.622 575.628 C 306.914 576.328 306.046 577.644 306.046 579.548 C 306.046 582.208 307.894 583.888 310.862 583.888 C 312.71 583.888 314.194 583.244 315.846 581.732 C 316.014 583.216 316.742 583.888 318.254 583.888 C 318.73 583.888 319.094 583.832 319.85 583.636 L 319.85 581.872 z M 315.762 578.624 C 315.762 579.408 315.538 579.884 314.838 580.528 C 313.886 581.396 312.738 581.844 311.366 581.844 C 309.546 581.844 308.482 580.976 308.482 579.492 C 308.482 577.952 309.518 577.168 312.01 576.804 C 314.474 576.468 314.978 576.356 315.762 575.992 L 315.762 578.624 z M 304.058 573.5 C 303.946 572.072 303.638 571.148 303.078 570.336 C 302.07 568.964 300.306 568.152 298.262 568.152 C 294.314 568.152 291.738 571.288 291.738 576.16 C 291.738 580.892 294.258 583.888 298.234 583.888 C 301.734 583.888 303.946 581.788 304.226 578.204 L 301.874 578.204 C 301.482 580.556 300.278 581.732 298.29 581.732 C 295.714 581.732 294.174 579.632 294.174 576.16 C 294.174 572.492 295.686 570.308 298.234 570.308 C 300.194 570.308 301.426 571.456 301.706 573.5 L 304.058 573.5 z M 289.134 572.66 C 289.106 569.776 287.202 568.152 283.814 568.152 C 280.398 568.152 278.186 569.916 278.186 572.632 C 278.186 574.928 279.362 576.02 282.834 576.86 L 285.018 577.392 C 286.642 577.784 287.286 578.372 287.286 579.436 C 287.286 580.808 285.914 581.732 283.87 581.732 C 282.61 581.732 281.546 581.368 280.958 580.752 C 280.594 580.332 280.426 579.912 280.286 578.876 L 277.822 578.876 C 277.934 582.264 279.838 583.888 283.674 583.888 C 287.37 583.888 289.722 582.068 289.722 579.24 C 289.722 577.056 288.49 575.852 285.578 575.152 L 283.338 574.62 C 281.434 574.172 280.622 573.556 280.622 572.52 C 280.622 571.176 281.826 570.308 283.73 570.308 C 285.606 570.308 286.614 571.12 286.67 572.66 L 289.134 572.66 z M 266.818 562.832 L 264.494 562.832 L 264.494 583.244 L 266.818 583.244 L 266.818 577.532 L 269.086 575.292 L 274.042 583.244 L 276.926 583.244 L 270.934 573.64 L 276.03 568.572 L 273.034 568.572 L 266.818 574.788 L 266.818 562.832 z M 249.262 568.572 L 249.262 583.244 L 251.614 583.244 L 251.614 575.152 C 251.614 572.156 253.182 570.196 255.59 570.196 C 257.438 570.196 258.614 571.316 258.614 573.08 L 258.614 583.244 L 260.938 583.244 L 260.938 572.156 C 260.938 569.72 259.118 568.152 256.29 568.152 C 254.106 568.152 252.706 568.992 251.418 571.036 L 251.418 568.572 L 249.262 568.572 z M 245.286 568.572 L 242.962 568.572 L 242.962 583.244 L 245.286 583.244 L 245.286 568.572 z M 245.286 562.832 L 242.934 562.832 L 242.934 565.772 L 245.286 565.772 L 245.286 562.832 z M 238.65 580.332 L 235.738 580.332 L 235.738 583.244 L 238.65 583.244 L 238.65 580.332 z M 228.598 583.244 L 232.91 568.572 L 230.278 568.572 L 227.366 579.996 L 224.482 568.572 L 221.626 568.572 L 218.826 579.996 L 215.83 568.572 L 213.254 568.572 L 217.51 583.244 L 220.142 583.244 L 222.97 571.736 L 225.938 583.244 L 228.598 583.244 z M 208.382 583.244 L 212.694 568.572 L 210.062 568.572 L 207.15 579.996 L 204.266 568.572 L 201.41 568.572 L 198.61 579.996 L 195.614 568.572 L 193.038 568.572 L 197.294 583.244 L 199.926 583.244 L 202.754 571.736 L 205.722 583.244 L 208.382 583.244 z M 188.166 583.244 L 192.478 568.572 L 189.846 568.572 L 186.934 579.996 L 184.05 568.572 L 181.194 568.572 L 178.394 579.996 L 175.398 568.572 L 172.822 568.572 L 177.078 583.244 L 179.71 583.244 L 182.538 571.736 L 185.506 583.244 L 188.166 583.244 z M 171.282 562.832 L 164.646 583.804 L 166.186 583.804 L 172.822 562.832 L 171.282 562.832 z M 163.498 562.832 L 156.862 583.804 L 158.402 583.804 L 165.038 562.832 L 163.498 562.832 z M 155.294 580.332 L 152.382 580.332 L 152.382 583.244 L 155.294 583.244 L 155.294 580.332 z M 155.294 568.572 L 152.382 568.572 L 152.382 571.484 L 155.294 571.484 L 155.294 568.572 z M 135.246 589.348 L 137.598 589.348 L 137.598 581.704 C 138.83 583.216 140.202 583.888 142.106 583.888 C 145.886 583.888 148.378 580.836 148.378 576.16 C 148.378 571.232 145.97 568.152 142.078 568.152 C 140.09 568.152 138.494 569.048 137.402 570.784 L 137.402 568.572 L 135.246 568.572 L 135.246 589.348 z M 141.686 570.336 C 144.262 570.336 145.942 572.604 145.942 576.104 C 145.942 579.436 144.234 581.704 141.686 581.704 C 139.222 581.704 137.598 579.464 137.598 576.02 C 137.598 572.576 139.222 570.336 141.686 570.336 z M 133.062 568.572 L 130.654 568.572 L 130.654 564.54 L 128.33 564.54 L 128.33 568.572 L 126.342 568.572 L 126.342 570.476 L 128.33 570.476 L 128.33 581.564 C 128.33 583.048 129.338 583.888 131.158 583.888 C 131.718 583.888 132.278 583.832 133.062 583.692 L 133.062 581.732 C 132.754 581.816 132.39 581.844 131.942 581.844 C 130.934 581.844 130.654 581.564 130.654 580.528 L 130.654 570.476 L 133.062 570.476 L 133.062 568.572 z M 125.278 568.572 L 122.87 568.572 L 122.87 564.54 L 120.546 564.54 L 120.546 568.572 L 118.558 568.572 L 118.558 570.476 L 120.546 570.476 L 120.546 581.564 C 120.546 583.048 121.554 583.888 123.374 583.888 C 123.934 583.888 124.494 583.832 125.278 583.692 L 125.278 581.732 C 124.97 581.816 124.606 581.844 124.158 581.844 C 123.15 581.844 122.87 581.564 122.87 580.528 L 122.87 570.476 L 125.278 570.476 L 125.278 568.572 z M 104.558 562.832 L 104.558 583.244 L 106.882 583.244 L 106.882 575.152 C 106.882 572.156 108.45 570.196 110.858 570.196 C 111.614 570.196 112.37 570.448 112.93 570.868 C 113.602 571.344 113.882 572.044 113.882 573.08 L 113.882 583.244 L 116.206 583.244 L 116.206 572.156 C 116.206 569.692 114.442 568.152 111.586 568.152 C 109.514 568.152 108.254 568.796 106.882 570.588 L 106.882 562.832 L 104.558 562.832 z "
       id="path96" />
  </a>
  <path
     transform="translate(-3.0944,0)"
     style="font-size:32;font-weight:normal;stroke-width:1pt;font-family:Helvetica;"
     d="M 406.312 532.503 C 406.28 529.207 404.104 527.351 400.232 527.351 C 396.328 527.351 393.8 529.367 393.8 532.471 C 393.8 535.095 395.144 536.343 399.112 537.303 L 401.608 537.911 C 403.464 538.359 404.2 539.031 404.2 540.247 C 404.2 541.815 402.632 542.871 400.296 542.871 C 398.856 542.871 397.64 542.455 396.968 541.751 C 396.552 541.271 396.36 540.791 396.2 539.607 L 393.384 539.607 C 393.512 543.479 395.688 545.335 400.072 545.335 C 404.296 545.335 406.984 543.255 406.984 540.023 C 406.984 537.527 405.576 536.151 402.248 535.351 L 399.688 534.743 C 397.512 534.231 396.584 533.527 396.584 532.343 C 396.584 530.807 397.96 529.815 400.136 529.815 C 402.28 529.815 403.432 530.743 403.496 532.503 L 406.312 532.503 z M 376.744 527.831 L 376.744 544.599 L 379.432 544.599 L 379.432 535.351 C 379.432 531.927 381.224 529.687 383.976 529.687 C 386.088 529.687 387.432 530.967 387.432 532.983 L 387.432 544.599 L 390.088 544.599 L 390.088 531.927 C 390.088 529.143 388.008 527.351 384.776 527.351 C 382.28 527.351 380.68 528.311 379.208 530.647 L 379.208 527.831 L 376.744 527.831 z M 365.416 527.351 C 360.712 527.351 357.864 530.711 357.864 536.343 C 357.864 541.975 360.68 545.335 365.448 545.335 C 370.152 545.335 373.032 541.975 373.032 536.471 C 373.032 530.679 370.248 527.351 365.416 527.351 z M 365.448 529.815 C 368.456 529.815 370.248 532.279 370.248 536.439 C 370.248 540.375 368.392 542.871 365.448 542.871 C 362.472 542.871 360.648 540.407 360.648 536.343 C 360.648 532.311 362.472 529.815 365.448 529.815 z M 354.888 527.831 L 342.376 527.831 L 342.376 530.167 L 351.72 530.167 L 341.704 542.199 L 341.704 544.599 L 355.336 544.599 L 355.336 542.263 L 344.936 542.263 L 354.888 530.199 L 354.888 527.831 z M 338.408 527.831 L 335.752 527.831 L 335.752 544.599 L 338.408 544.599 L 338.408 527.831 z M 338.408 521.271 L 335.72 521.271 L 335.72 524.631 L 338.408 524.631 L 338.408 521.271 z M 325.16 527.831 L 325.16 544.599 L 327.848 544.599 L 327.848 535.895 C 327.848 533.495 328.456 531.927 329.736 530.999 C 330.568 530.391 331.368 530.199 333.224 530.167 L 333.224 527.447 C 332.776 527.383 332.552 527.351 332.2 527.351 C 330.472 527.351 329.16 528.375 327.624 530.871 L 327.624 527.831 L 325.16 527.831 z M 313.864 527.351 C 309.16 527.351 306.312 530.711 306.312 536.343 C 306.312 541.975 309.128 545.335 313.896 545.335 C 318.6 545.335 321.48 541.975 321.48 536.471 C 321.48 530.679 318.696 527.351 313.864 527.351 z M 313.896 529.815 C 316.904 529.815 318.696 532.279 318.696 536.439 C 318.696 540.375 316.84 542.871 313.896 542.871 C 310.92 542.871 309.096 540.407 309.096 536.343 C 309.096 532.311 310.92 529.815 313.896 529.815 z M 289.608 521.271 L 289.608 544.599 L 292.264 544.599 L 292.264 535.351 C 292.264 531.927 294.056 529.687 296.808 529.687 C 297.672 529.687 298.536 529.975 299.176 530.455 C 299.944 530.999 300.264 531.799 300.264 532.983 L 300.264 544.599 L 302.92 544.599 L 302.92 531.927 C 302.92 529.111 300.904 527.351 297.64 527.351 C 295.272 527.351 293.832 528.087 292.264 530.135 L 292.264 521.271 L 289.608 521.271 z M 270.024 527.831 L 270.024 544.599 L 272.712 544.599 L 272.712 535.895 C 272.712 533.495 273.32 531.927 274.6 530.999 C 275.432 530.391 276.232 530.199 278.088 530.167 L 278.088 527.447 C 277.64 527.383 277.416 527.351 277.064 527.351 C 275.336 527.351 274.024 528.375 272.488 530.871 L 272.488 527.831 L 270.024 527.831 z M 265.448 544.599 L 265.448 527.831 L 262.792 527.831 L 262.792 537.335 C 262.792 540.759 261 542.999 258.216 542.999 C 256.104 542.999 254.76 541.719 254.76 539.703 L 254.76 527.831 L 252.104 527.831 L 252.104 540.759 C 252.104 543.543 254.184 545.335 257.448 545.335 C 259.912 545.335 261.48 544.471 263.048 542.263 L 263.048 544.599 L 265.448 544.599 z M 240.936 527.351 C 236.232 527.351 233.384 530.711 233.384 536.343 C 233.384 541.975 236.2 545.335 240.968 545.335 C 245.672 545.335 248.552 541.975 248.552 536.471 C 248.552 530.679 245.768 527.351 240.936 527.351 z M 240.968 529.815 C 243.976 529.815 245.768 532.279 245.768 536.439 C 245.768 540.375 243.912 542.871 240.968 542.871 C 237.992 542.871 236.168 540.407 236.168 536.343 C 236.168 532.311 237.992 529.815 240.968 529.815 z M 228.648 527.831 L 224.008 540.887 L 219.72 527.831 L 216.872 527.831 L 222.536 544.663 L 221.512 547.319 C 221.096 548.503 220.488 548.951 219.368 548.951 C 218.984 548.951 218.536 548.887 217.96 548.759 L 217.96 551.159 C 218.504 551.447 219.048 551.575 219.752 551.575 C 220.616 551.575 221.544 551.287 222.248 550.775 C 223.08 550.167 223.56 549.463 224.072 548.119 L 231.528 527.831 L 228.648 527.831 z M 205.384 521.271 L 202.728 521.271 L 202.728 529.943 C 201.608 528.247 199.816 527.351 197.576 527.351 C 193.224 527.351 190.376 530.839 190.376 536.183 C 190.376 541.847 193.16 545.335 197.672 545.335 C 199.976 545.335 201.576 544.471 203.016 542.391 L 203.016 544.599 L 205.384 544.599 L 205.384 521.271 z M 198.024 529.847 C 200.904 529.847 202.728 532.407 202.728 536.407 C 202.728 540.279 200.872 542.839 198.056 542.839 C 195.112 542.839 193.16 540.247 193.16 536.343 C 193.16 532.439 195.112 529.847 198.024 529.847 z M 173.992 527.831 L 173.992 544.599 L 176.68 544.599 L 176.68 535.351 C 176.68 531.927 178.472 529.687 181.224 529.687 C 183.336 529.687 184.68 530.967 184.68 532.983 L 184.68 544.599 L 187.336 544.599 L 187.336 531.927 C 187.336 529.143 185.256 527.351 182.024 527.351 C 179.528 527.351 177.928 528.311 176.456 530.647 L 176.456 527.831 L 173.992 527.831 z M 171.08 543.031 C 170.792 543.095 170.664 543.095 170.504 543.095 C 169.576 543.095 169.064 542.615 169.064 541.783 L 169.064 531.927 C 169.064 528.951 166.888 527.351 162.76 527.351 C 160.328 527.351 158.312 528.055 157.192 529.303 C 156.424 530.167 156.104 531.127 156.04 532.791 L 158.728 532.791 C 158.952 530.743 160.168 529.815 162.664 529.815 C 165.064 529.815 166.408 530.711 166.408 532.311 L 166.408 533.015 C 166.408 534.135 165.736 534.615 163.624 534.871 C 159.848 535.351 159.272 535.479 158.248 535.895 C 156.296 536.695 155.304 538.199 155.304 540.375 C 155.304 543.415 157.416 545.335 160.808 545.335 C 162.92 545.335 164.616 544.599 166.504 542.871 C 166.696 544.567 167.528 545.335 169.256 545.335 C 169.8 545.335 170.216 545.271 171.08 545.047 L 171.08 543.031 z M 166.408 539.319 C 166.408 540.215 166.152 540.759 165.352 541.495 C 164.264 542.487 162.952 542.999 161.384 542.999 C 159.304 542.999 158.088 542.007 158.088 540.311 C 158.088 538.551 159.272 537.655 162.12 537.239 C 164.936 536.855 165.512 536.727 166.408 536.311 L 166.408 539.319 z M 137.896 551.575 L 140.584 551.575 L 140.584 542.839 C 141.992 544.567 143.56 545.335 145.736 545.335 C 150.056 545.335 152.904 541.847 152.904 536.503 C 152.904 530.871 150.152 527.351 145.704 527.351 C 143.432 527.351 141.608 528.375 140.36 530.359 L 140.36 527.831 L 137.896 527.831 L 137.896 551.575 z M 145.256 529.847 C 148.2 529.847 150.12 532.439 150.12 536.439 C 150.12 540.247 148.168 542.839 145.256 542.839 C 142.44 542.839 140.584 540.279 140.584 536.343 C 140.584 532.407 142.44 529.847 145.256 529.847 z M 129.512 535.927 L 135.144 527.831 L 132.136 527.831 L 128.104 533.911 L 124.072 527.831 L 121.032 527.831 L 126.632 536.055 L 120.712 544.599 L 123.752 544.599 L 128.008 538.167 L 132.2 544.599 L 135.304 544.599 L 129.512 535.927 z M 104.68 533.975 L 117.384 533.975 L 117.384 531.351 L 104.68 531.351 L 104.68 523.895 L 117.864 523.895 L 117.864 521.271 L 101.704 521.271 L 101.704 544.599 L 118.44 544.599 L 118.44 541.975 L 104.68 541.975 L 104.68 533.975 z "
     id="path95" />
  <path
     style="font-size:26;font-weight:bold;stroke-width:1pt;font-family:Helvetica;"
     d="M 678.368 50.4213 L 674.468 50.4213 L 674.468 54.2173 L 678.368 54.2173 L 678.368 50.4213 z M 678.368 40.6973 L 674.468 40.6973 L 674.468 44.4933 L 678.368 44.4933 L 678.368 40.6973 z M 670.204 44.7013 C 670.152 41.7373 667.864 39.9433 664.094 39.9433 C 660.532 39.9433 658.322 41.7373 658.322 44.6233 C 658.322 45.5593 658.608 46.3653 659.102 46.9113 C 659.596 47.4053 660.038 47.6393 661.39 48.0813 L 665.732 49.4333 C 666.642 49.7193 666.954 50.0053 666.954 50.5773 C 666.954 51.4353 665.94 51.9553 664.25 51.9553 C 663.314 51.9553 662.56 51.7733 662.092 51.4613 C 661.702 51.1753 661.546 50.8893 661.39 50.1353 L 657.828 50.1353 C 657.932 53.2033 660.194 54.8153 664.458 54.8153 C 666.408 54.8153 667.89 54.3993 668.93 53.5673 C 669.97 52.7353 670.594 51.4353 670.594 50.0573 C 670.594 48.2373 669.684 47.0673 667.838 46.5213 L 663.236 45.1953 C 662.222 44.8833 661.962 44.6753 661.962 44.1033 C 661.962 43.3233 662.794 42.8033 664.068 42.8033 C 665.81 42.8033 666.668 43.4273 666.694 44.7013 L 670.204 44.7013 z M 648.598 40.1773 L 648.598 54.2173 L 652.238 54.2173 L 652.238 46.7553 C 652.238 44.6233 653.304 43.5573 655.436 43.5573 C 655.826 43.5573 656.086 43.5833 656.58 43.6613 L 656.58 39.9693 C 656.372 39.9433 656.242 39.9433 656.138 39.9433 C 654.474 39.9433 653.018 41.0353 652.238 42.9333 L 652.238 40.1773 L 648.598 40.1773 z M 638.9 39.9433 C 634.61 39.9433 631.984 42.7773 631.984 47.3793 C 631.984 52.0073 634.61 54.8153 638.926 54.8153 C 643.19 54.8153 645.868 51.9813 645.868 47.4833 C 645.868 42.7253 643.294 39.9433 638.9 39.9433 z M 638.926 42.8813 C 640.928 42.8813 642.228 44.6753 642.228 47.4313 C 642.228 50.0573 640.876 51.8773 638.926 51.8773 C 636.95 51.8773 635.624 50.0573 635.624 47.3793 C 635.624 44.7013 636.95 42.8813 638.926 42.8813 z M 630.242 40.4633 L 628.214 40.4633 L 628.214 36.6933 L 624.574 36.6933 L 624.574 40.4633 L 622.78 40.4633 L 622.78 42.8813 L 624.574 42.8813 L 624.574 51.5133 C 624.574 53.7233 625.744 54.8153 628.136 54.8153 C 628.942 54.8153 629.592 54.7373 630.242 54.5293 L 630.242 51.9813 C 629.878 52.0333 629.67 52.0593 629.41 52.0593 C 628.448 52.0593 628.214 51.7733 628.214 50.5253 L 628.214 42.8813 L 630.242 42.8813 L 630.242 40.4633 z M 620.596 54.2173 L 620.596 40.1773 L 616.956 40.1773 L 616.956 48.9653 C 616.956 50.6293 615.786 51.7213 614.018 51.7213 C 612.458 51.7213 611.678 50.8893 611.678 49.1993 L 611.678 40.1773 L 608.038 40.1773 L 608.038 49.9533 C 608.038 53.0473 609.754 54.8153 612.744 54.8153 C 614.642 54.8153 615.916 54.1133 616.956 52.5533 L 616.956 54.2173 L 620.596 54.2173 z M 592.178 35.2633 L 592.178 54.2173 L 595.818 54.2173 L 595.818 52.7873 C 596.702 54.1653 597.924 54.8153 599.692 54.8153 C 603.046 54.8153 605.594 51.6173 605.594 47.3793 C 605.594 45.4813 605.022 43.5573 604.086 42.2053 C 603.124 40.8273 601.408 39.9433 599.692 39.9433 C 597.95 39.9433 596.702 40.5933 595.818 41.9973 L 595.818 35.2633 L 592.178 35.2633 z M 598.886 42.9853 C 600.68 42.9853 601.954 44.8053 601.954 47.4053 C 601.954 49.9533 600.68 51.7733 598.886 51.7733 C 597.04 51.7733 595.818 50.0053 595.818 47.3273 C 595.818 44.7793 597.066 42.9853 598.886 42.9853 z M 588.798 40.1773 L 585.158 40.1773 L 585.158 54.2173 L 588.798 54.2173 L 588.798 40.1773 z M 588.798 35.2633 L 585.158 35.2633 L 585.158 38.5133 L 588.798 38.5133 L 588.798 35.2633 z M 574.94 40.1773 L 574.94 54.2173 L 578.58 54.2173 L 578.58 46.7553 C 578.58 44.6233 579.646 43.5573 581.778 43.5573 C 582.168 43.5573 582.428 43.5833 582.922 43.6613 L 582.922 39.9693 C 582.714 39.9433 582.584 39.9433 582.48 39.9433 C 580.816 39.9433 579.36 41.0353 578.58 42.9333 L 578.58 40.1773 L 574.94 40.1773 z M 572.47 40.4633 L 570.442 40.4633 L 570.442 36.6933 L 566.802 36.6933 L 566.802 40.4633 L 565.008 40.4633 L 565.008 42.8813 L 566.802 42.8813 L 566.802 51.5133 C 566.802 53.7233 567.972 54.8153 570.364 54.8153 C 571.17 54.8153 571.82 54.7373 572.47 54.5293 L 572.47 51.9813 C 572.106 52.0333 571.898 52.0593 571.638 52.0593 C 570.676 52.0593 570.442 51.7733 570.442 50.5253 L 570.442 42.8813 L 572.47 42.8813 L 572.47 40.4633 z M 550.396 40.1773 L 550.396 54.2173 L 554.036 54.2173 L 554.036 45.7933 C 554.036 44.1293 555.206 43.0373 556.974 43.0373 C 558.534 43.0373 559.314 43.8953 559.314 45.5593 L 559.314 54.2173 L 562.954 54.2173 L 562.954 44.8053 C 562.954 41.7113 561.238 39.9433 558.248 39.9433 C 556.35 39.9433 555.076 40.6453 554.036 42.2053 L 554.036 40.1773 L 550.396 40.1773 z M 540.698 39.9433 C 536.408 39.9433 533.782 42.7773 533.782 47.3793 C 533.782 52.0073 536.408 54.8153 540.724 54.8153 C 544.988 54.8153 547.666 51.9813 547.666 47.4833 C 547.666 42.7253 545.092 39.9433 540.698 39.9433 z M 540.724 42.8813 C 542.726 42.8813 544.026 44.6753 544.026 47.4313 C 544.026 50.0573 542.674 51.8773 540.724 51.8773 C 538.748 51.8773 537.422 50.0573 537.422 47.3793 C 537.422 44.7013 538.748 42.8813 540.724 42.8813 z M 531.832 41.6853 C 531.702 40.0473 531.364 39.0073 530.558 37.9413 C 529.102 36.0173 526.762 34.9513 523.928 34.9513 C 518.572 34.9513 515.244 38.7733 515.244 44.9093 C 515.244 50.9933 518.546 54.8153 523.824 54.8153 C 528.53 54.8153 531.676 52.0853 531.91 47.7433 L 528.114 47.7433 C 527.88 50.1613 526.346 51.5393 523.928 51.5393 C 520.912 51.5393 519.144 49.0953 519.144 44.9613 C 519.144 40.7753 520.99 38.2793 524.058 38.2793 C 525.41 38.2793 526.528 38.7473 527.256 39.6573 C 527.672 40.1773 527.88 40.6713 528.114 41.6853 L 531.832 41.6853 z "
     id="path91" />
  <text
     style="fill:black;stroke:none;font-family:Helvetica;font-style:normal;font-weight:normal;font-size:20;text-anchor:start;writing-mode:lr;fill-opacity:1;stroke-opacity:1;stroke-width:1pt;stroke-linejoin:miter;stroke-linecap:butt;"
     x="628.290283"
     y="91.7358061"
     id="text23"
     transform="scale(0.850928,0.850928)"><tspan
       x="628.290283"
       y="91.7358093"
       sodipodi:role="line"
       id="tspan47">John Bintz</tspan><tspan
       sodipodi:role="line"
       id="tspan586"
       x="628.290283"
       y="111.735809">Hans Breuer</tspan><tspan
       sodipodi:role="line"
       id="tspan589"
       x="628.290283"
       y="131.735809">Bulia Byak</tspan><tspan
       sodipodi:role="line"
       id="tspan591"
       x="628.290283"
       y="151.735809">Chema Celorio</tspan><tspan
       sodipodi:role="line"
       id="tspan593"
       x="628.290283"
       y="171.735809">Zbigniew Chyla</tspan><tspan
       sodipodi:role="line"
       id="tspan595"
       x="628.290283"
       y="191.735809">Kees Cook</tspan><tspan
       sodipodi:role="line"
       id="tspan597"
       x="628.290283"
       y="211.735809">Robert Crosbie</tspan><tspan
       sodipodi:role="line"
       id="tspan599"
       x="628.290283"
       y="231.735809">Jon Cruz</tspan><tspan
       sodipodi:role="line"
       id="tspan601"
       x="628.290283"
       y="251.735809">Danilo Egan</tspan><tspan
       sodipodi:role="line"
       id="tspan603"
       x="628.290283"
       y="271.735809">Frank Felfe</tspan><tspan
       sodipodi:role="line"
       id="tspan605"
       x="628.290283"
       y="291.735809">Ted Gould</tspan><tspan
       sodipodi:role="line"
       id="tspan607"
       x="628.290283"
       y="311.735809">Bryce Harrington</tspan><tspan
       sodipodi:role="line"
       id="tspan609"
       x="628.290283"
       y="331.735809">Nathan Hurst</tspan><tspan
       sodipodi:role="line"
       id="tspan611"
       x="628.290283"
       y="351.735809">Thomas Ingham</tspan><tspan
       sodipodi:role="line"
       id="tspan613"
       x="628.290283"
       y="371.735809">Bob Jamison</tspan><tspan
       sodipodi:role="line"
       id="tspan615"
       x="628.290283"
       y="391.735809">Lauris Kaplinski</tspan><tspan
       sodipodi:role="line"
       id="tspan617"
       x="628.290283"
       y="411.735809">Lynn Kerby</tspan><tspan
       sodipodi:role="line"
       id="tspan619"
       x="628.290283"
       y="431.735809">Petr Kovar</tspan><tspan
       sodipodi:role="line"
       id="tspan621"
       x="628.290283"
       y="451.735809">Raph Levien</tspan><tspan
       sodipodi:role="line"
       id="tspan623"
       x="628.290283"
       y="471.735809">Vitaly Lipatov</tspan><tspan
       sodipodi:role="line"
       id="tspan625"
       x="628.290283"
       y="491.735809">Dmitry G. Mastrukov</tspan><tspan
       sodipodi:role="line"
       id="tspan627"
       x="628.290283"
       y="511.735809">Michael Meeks</tspan><tspan
       sodipodi:role="line"
       id="tspan629"
       x="628.290283"
       y="531.735809">Frederico Mena</tspan><tspan
       sodipodi:role="line"
       id="tspan631"
       x="628.290283"
       y="551.735809">MenTaLguY</tspan><tspan
       sodipodi:role="line"
       id="tspan633"
       x="628.290283"
       y="571.735809">Yukihiro Nakai</tspan><tspan
       sodipodi:role="line"
       id="tspan635"
       x="628.290283"
       y="591.735809">Christian Neumair</tspan><tspan
       sodipodi:role="line"
       id="tspan637"
       x="628.290283"
       y="611.735809">Mitsuru Oka</tspan><tspan
       sodipodi:role="line"
       id="tspan639"
       x="628.290283"
       y="631.735809">Christian Schaller</tspan><tspan
       sodipodi:role="line"
       id="tspan641"
       x="628.290283"
       y="651.735809">Tom von Schwerdtner</tspan><tspan
       sodipodi:role="line"
       id="tspan643"
       x="628.290283"
       y="671.735809">Daniel Yacob</tspan><tspan
       sodipodi:role="line"
       id="tspan645"
       x="628.290283"
       y="691.735809">Masatake Yamato</tspan></text>
  <text
     style="fill:#ffffff;stroke:none;font-family:Arial;font-style:normal;font-weight:bold;font-size:36;text-anchor:middle;writing-mode:lr;fill-opacity:1;stroke-opacity:1;stroke-width:1pt;stroke-linejoin:miter;stroke-linecap:butt;"
     x="246.201307"
     y="502.733246"
     id="version"
     sodipodi:linespacing="100%"><tspan
       x="246.201309"
       y="502.733246"
       sodipodi:role="line"
       id="tspan588">[% Release %]</tspan></text>
</svg>
