/* XPM */
static char * add_element_node_xpm[] = {
"24 24 4 1",
" 	c None",
".	c #000000",
"+	c #F8E008",
"@	c #008080",
"                        ",
"    ...                 ",
"    .+.                 ",
"    .+.                 ",
" ....+....              ",
" .+++++++..  ...        ",
" ....+.....  .@@.       ",
"    .+.@@.    .@@.      ",
"    .+.@.      .@@.     ",
"    ....        .@@.    ",
"   .@@.          .@@.   ",
"  .@@.            .@@.  ",
" .@@.              .@@. ",
"  .@@.            .@@.  ",
"   .@@.          .@@.   ",
"    .@@.        .@@.    ",
"     .@@.      .@@.     ",
"      .@@.    .@@.      ",
"       .@@.  .@@.       ",
"        ...  ...        ",
"                        ",
"                        ",
"                        ",
"                        "};
