/* XPM */
static char * al_center_hor_xpm[] = {
"24 24 5 1",
" 	c None",
".	c #000000",
"+	c #9797D8",
"@	c #808080",
"#	c #F8E008",
"                        ",
" .....................  ",
" .+++++++++++++++++++.  ",
" .+++++++++++++++++++.@ ",
" .+++++++++++++++++++.@ ",
" .+++++++++++++++++++.@ ",
" .+++++++++.+++++++++.@ ",
" .++++.++++.++++.++++.@ ",
" .++++..+++.+++..++++.@ ",
" .++++.#.++.++.#.++++.@ ",
" .+....##.+.+.##....+.@ ",
" .+.######...######.+.@ ",
" .+....##.+.+.##....+.@ ",
" .++++.#.++.++.#.++++.@ ",
" .++++..+++.+++..++++.@ ",
" .++++.++++.++++.++++.@ ",
" .+++++++++.+++++++++.@ ",
" .+++++++++++++++++++.@ ",
" .+++++++++++++++++++.@ ",
" .+++++++++++++++++++.@ ",
" .+++++++++++++++++++.@ ",
" .....................@ ",
"  @@@@@@@@@@@@@@@@@@@@@ ",
"                        "};
