/* XPM */
static char * al_left_out_xpm[] = {
"24 24 6 1",
" 	c None",
".	c #000000",
"+	c #010101",
"@	c #9797D8",
"#	c #F8E008",
"$	c #7F7F7F",
"                        ",
"          ............++",
"          .@@@@@@@@@@@@@",
"          .@@@@@@@@@@@@@",
"          .@@@@@@@@@@@@@",
"          .@@@@@@@@@@@@@",
"          .@@@@@@@@@@@@@",
"     .    .@@@@@@@@@@@@@",
"     ..   .@@@@@@@@@@@@@",
"     .#.  .@@@@@@@@@@@@@",
"  ....##. .@@@@@@@@@@@@@",
"  .######..@@@@@@@@@@@@@",
"  ....##. .@@@@@@@@@@@@@",
"     .#.  .@@@@@@@@@@@@@",
"     ..   .@@@@@@@@@@@@@",
"     .    .@@@@@@@@@@@@@",
"          .@@@@@@@@@@@@@",
"          .@@@@@@@@@@@@@",
"          .@@@@@@@@@@@@@",
"          .@@@@@@@@@@@@@",
"          .@@@@@@@@@@@@@",
"          ..............",
"           $$$$$$$$$$$$$",
"                        "};
