/* XPM */
static char * al_right_in_xpm[] = {
"24 24 7 1",
" 	c None",
".	c #000000",
"+	c #9797D8",
"@	c #7F7F7F",
"#	c #F8E008",
"$	c #010101",
"%	c #818181",
"                        ",
"..............          ",
"+++++++++++++.@         ",
"+++++++++++++.@         ",
"+++++++++++++.@         ",
"+++++++++++++.@         ",
"+++++++++++++.@         ",
"++++++++.++++.@         ",
"++++++++..+++.@         ",
"++++++++.#.++.@         ",
"+++++....##.+.@         ",
"+++++.######..@         ",
"+++++....##.+.@         ",
"++++++++.#.++.@         ",
"++++++++..+++.@         ",
"++++++++.++++.@         ",
"+++++++++++++.@         ",
"+++++++++++++.@         ",
"+++++++++++++.@         ",
"+++++++++++++.@         ",
"+++++++++++++.@         ",
"$$............@         ",
"%%%%%%%%@@%%@@@         ",
"                        "};
