/* XPM */
static char * al_top_out_xpm[] = {
"24 24 6 1",
" 	c None",
".	c #000000",
"+	c #F8E008",
"@	c #9797D8",
"#	c #818181",
"$	c #010101",
"                        ",
"                        ",
"          ...           ",
"          .+.           ",
"          .+.           ",
"       ....+....        ",
"        .+++++.         ",
"         .+++.          ",
"          .+.           ",
"           .            ",
" .....................  ",
" .@@@@@@@@@@@@@@@@@@@.# ",
" .@@@@@@@@@@@@@@@@@@@.# ",
" .@@@@@@@@@@@@@@@@@@@.# ",
" .@@@@@@@@@@@@@@@@@@@.# ",
" .@@@@@@@@@@@@@@@@@@@.# ",
" .@@@@@@@@@@@@@@@@@@@.# ",
" .@@@@@@@@@@@@@@@@@@@.# ",
" .@@@@@@@@@@@@@@@@@@@.# ",
" .@@@@@@@@@@@@@@@@@@@.# ",
" .@@@@@@@@@@@@@@@@@@@.# ",
" .@@@@@@@@@@@@@@@@@@@.# ",
" .@@@@@@@@@@@@@@@@@@@$# ",
" .@@@@@@@@@@@@@@@@@@@$# "};
