/* XPM */
static char * align_tc_xpm[] = {
"24 24 5 1",
" 	c None",
".	c None",
"+	c #000000",
"@	c #A5A5FF",
"#	c #F8E008",
"........................",
"........................",
"........................",
"........................",
"........................",
"........................",
"++++++++++++++++++++++++",
"@@@@@@@@@@@++@@@@@@@@@@@",
"@@@@@@@@@@+##+@@@@@@@@@@",
"@@@@@@@@@+####+@@@@@@@@@",
"@@@@@@@@+######+@@@@@@@@",
"@@@@@@@++++##++++@@@@@@@",
"@@@@@@@@@@+##+@@@@@@@@@@",
"@@@@@@@@@@+##+@@@@@@@@@@",
"@@@@@@@@@@+##+@@@@@@@@@@",
"@@@@@@@@@@+##+@@@@@@@@@@",
"@@@@@@@@@@++++@@@@@@@@@@",
"@@@@@@@@@@@@@@@@@@@@@@@@",
"@@@@@@@@@@@@@@@@@@@@@@@@",
"@@@@@@@@@@@@@@@@@@@@@@@@",
"@@@@@@@@@@@@@@@@@@@@@@@@",
"@@@@@@@@@@@@@@@@@@@@@@@@",
"@@@@@@@@@@@@@@@@@@@@@@@@",
"@@@@@@@@@@@@@@@@@@@@@@@@"};
