/* XPM */
static char * align_br_xpm[] = {
"24 24 6 1",
" 	c None",
".	c #A5A5FF",
"+	c #000000",
"@	c #7F7F7F",
"#	c None",
"$	c #F8E008",
".................+@#####",
".................+@#####",
".................+@#####",
".................+@#####",
".................+@#####",
".................+@#####",
".................+@#####",
".................+@#####",
"..........+......+@#####",
".........+$+.....+@#####",
"........+$$$+...++@#####",
".........+$$$+.+++@#####",
"..........+$$$+$++@#####",
"...........+$$$$++@#####",
"............+$$$++@#####",
"...........+$$$$++@#####",
"..........++++++++@#####",
"++++++++++++++++++@#####",
"@@@@@@@@@@@@@@@@@@@#####",
"########################",
"########################",
"########################",
"########################",
"########################"};
