/* XPM */
static char * angle_180_xpm[] = {
"21 21 3 1",
" 	c None",
".	c #000000",
"+	c #FFFFFF",
"          .+         ",
"          .+         ",
"          ...        ",
"          .++..+     ",
"          .+  +.+    ",
"          .+    .+   ",
"          .+     .+  ",
"          .+     .+  ",
"          .+      .+ ",
"          .+      .+ ",
".....................",
" +++++++++.+++++++.++",
"          .+      .++",
"          .+     .+  ",
"          .+  .  .+  ",
"          .+  .+.+   ",
"          .+ ...+    ",
"          .+....+    ",
"          .......    ",
"          .+++++++   ",
"          .+         "};
