/* XPM */
static char * arrows_hor_xpm[] = {
"24 24 3 1",
" 	c None",
".	c #000000",
"+	c #F8E008",
"                        ",
"                        ",
"                        ",
"                        ",
"                        ",
"                        ",
"                        ",
"                        ",
"        .      .        ",
"       ..      ..       ",
"      .+.      .+.      ",
"     .++........++.     ",
"    .++++++++++++++.    ",
"     .++........++.     ",
"      .+.      .+.      ",
"       ..      ..       ",
"        .      .        ",
"                        ",
"                        ",
"                        ",
"                        ",
"                        ",
"                        ",
"                        "};
