/* XPM */
static char * cap_butt_xpm[] = {
"24 24 5 1",
" 	c None",
".	c #59597F",
"+	c #9797D8",
"@	c #000000",
"#	c #999999",
"                        ",
"                        ",
"                        ",
"                        ",
"                        ",
"            ............",
"            .+++++++++++",
"            .+++++++++++",
"            .+++++++++++",
"         @@@@@@@++++++++",
"         @##.++@++++++++",
"         @# .++@++++++++",
"         @# .++@++++++++",
"         @# .++@++++++++",
"         @# .++@++++++++",
"         @@@@@@@++++++++",
"          ##.+++++++++++",
"            .+++++++++++",
"            .+++++++++++",
"            ............",
"                        ",
"                        ",
"                        ",
"                        "};
