/* XPM */
static char * div_xpm[] = {
"24 24 6 1",
" 	c None",
".	c #000000",
"+	c #999999",
"@	c #F8E008",
"#	c #0000BD",
"$	c #9797D8",
"                        ",
"           .            ",
"       .   .   .        ",
"      ..   .+  ..       ",
"     .@.   .+  .@.      ",
"    .@@.........@@.     ",
"   .@@@@@@@.@@@@@@@.    ",
"    .@@.........@@.     ",
"     .@.   .+  .@.      ",
"      ..   .+  ..       ",
"       .   .+  .        ",
"           .+           ",
"                        ",
"        #######         ",
"        #$$$$$#$        ",
"        #$    #$        ",
"........#$    #.........",
"++++++++#$    #+++++++++",
"        #$    #$        ",
"        #######$        ",
"         $$$$$$$        ",
"                        ",
"                        ",
"                        "};
