/* XPM */
static char * dt_inactive_xpm[] = {
"15 17 43 1",
" 	c None",
".	c #000000",
"+	c #E1E1E1",
"@	c #E0E0E0",
"#	c #DBDBDB",
"$	c #D5D5D5",
"%	c #CECECE",
"&	c #E3E3E3",
"*	c #E9E9E9",
"=	c #EBEBEB",
"-	c #D3D3D3",
";	c #CACACA",
">	c #C1C1C1",
",	c #F1F1F1",
"'	c #F5F5F5",
")	c #D6D6D6",
"!	c #CDCDCD",
"~	c #C3C3C3",
"{	c #FFFFFF",
"]	c #D7D7D7",
"^	c #C4C4C4",
"/	c #BABABA",
"(	c #B9B9B9",
"_	c #B7B7B7",
":	c #C6C6C6",
"<	c #BDBDBD",
"[	c #B4B4B4",
"}	c #C7C7C7",
"|	c #C0C0C0",
"1	c #B8B8B8",
"2	c #B0B0B0",
"3	c #B2B2B2",
"4	c #ACACAC",
"5	c #ABABAB",
"6	c #909090",
"7	c #A2A2A2",
"8	c #B3B3B3",
"9	c #C5C5C5",
"0	c #E7E7E7",
"a	c #919191",
"b	c #A6A6A6",
"c	c #BCBCBC",
"d	c #D2D2D2",
"               ",
"     .....     ",
"   ..+@#$%..   ",
"  .&*=*&#-;>.  ",
"  .*,',*@)!~.  ",
" .+='{'=+]%^/. ",
" .@*,',*@)!~(. ",
" .#&*=*&#-;>_. ",
" .$#@+@#$%:<[. ",
" .%-)])-%}|12. ",
"  .;!%!;:|(3.  ",
"  .>~^~><134.  ",
"   .(/(_[25.   ",
"    .6789).    ",
"    .0)98.a    ",
"     .6bcd.    ",
"    .0dcb.a    "};
