/* XPM */
static char * duplicate_xml_node_xpm[] = {
"24 24 4 1",
" 	c None",
".	c #000000",
"+	c #008080",
"@	c #808080",
"                        ",
"                        ",
"  ................      ",
"  .++++++++++++++.      ",
"  .++++++++++++++.      ",
"  .++++++++++++++.      ",
"  .++++++++++++++.      ",
"  .++++++++++++++.....  ",
"  .++++++++++++++.@@@.  ",
"  .++++++++++++++.@@@.  ",
"  .++++++++++++++.@@@.  ",
"  .++++++++++++++.@@@.  ",
"  .++++++++++++++.@@@.  ",
"  .++++++++++++++.@@@.  ",
"  .++++++++++++++.@@@.  ",
"  ................@@@.  ",
"      .@@@@@@@@@@@@@@.  ",
"      .@@@@@@@@@@@@@@.  ",
"      .@@@@@@@@@@@@@@.  ",
"      .@@@@@@@@@@@@@@.  ",
"      ................  ",
"                        ",
"                        ",
"                        "};
