/* XPM */
static char * edge_down_xpm[] = {
"8 8 3 1",
" 	c None",
".	c #FFFFFF",
"+	c #404040",
"    .   ",
"    .+  ",
"    .+  ",
"    .+  ",
".....+  ",
" +++++  ",
"        ",
"        "};
