/* XPM */
static char * edit_undo_xpm[] = {
"24 24 7 1",
" 	c None",
".	c #000000",
"+	c #8B4018",
"@	c #833C18",
"#	c #944420",
"$	c #733418",
"%	c #5A2810",
"                        ",
"                        ",
"                        ",
"                        ",
"                        ",
"         .              ",
"        ..              ",
"       .+@...           ",
"      .+#++@$..         ",
"       .++...$$.        ",
"        ..   .%.        ",
"         .    .%.       ",
"               ..       ",
"               ..       ",
"               .        ",
"              .         ",
"                        ",
"                        ",
"                        ",
"                        ",
"                        ",
"                        ",
"                        ",
"                        "};
