/* XPM */
static char * ellipse_xpm[] = {
"24 24 39 1",
" 	c None",
".	c #000000",
"+	c #1A1A1A",
"@	c #2D2D2D",
"#	c #464646",
"$	c #575757",
"%	c #5E5E5E",
"&	c #505050",
"*	c #4C4C4C",
"=	c #161616",
"-	c #0A0A0A",
";	c #434343",
">	c #868686",
",	c #989898",
"'	c #A7A7A7",
")	c #A2A2A2",
"!	c #959595",
"~	c #828282",
"{	c #393939",
"]	c #727272",
"^	c #AEAEAE",
"/	c #939393",
"(	c #8E8E8E",
"_	c #7A7A7A",
":	c #666666",
"<	c #131313",
"[	c #606060",
"}	c #B0B0B0",
"|	c #888888",
"1	c #7F7F7F",
"2	c #6C6C6C",
"3	c #686868",
"4	c #040404",
"5	c #484848",
"6	c #333333",
"7	c #353535",
"8	c #3D3D3D",
"9	c #1E1E1E",
"0	c #0E0E0E",
"                        ",
"                        ",
"                        ",
"                        ",
"                        ",
"                        ",
"                        ",
"                        ",
"                        ",
"       ...........      ",
"    ...+@#$%%&*=.....   ",
"  ..-=;>,'),,!!~%$@=-.. ",
" ..-{])^^^'/!!((~~_:{-. ",
" ..<[,^}'),/!|~1_231[=. ",
" ..4+[)',!!!(|~_3::&+4. ",
"  ...-{*:(,/>>>1335-... ",
"    ....+667;#88;9...   ",
"       ..006......      ",
"                        ",
"                        ",
"                        ",
"                        ",
"                        ",
"                        "};
