/* XPM */
static char * fill_pattern_xpm[] = {
"24 24 401 2",
"  	c None",
". 	c #59597D",
"+ 	c #CD7A58",
"@ 	c #CE7E50",
"# 	c #AF664E",
"$ 	c #773432",
"% 	c #C37C52",
"& 	c #F1A06B",
"* 	c #753329",
"= 	c #7B4135",
"- 	c #B85C3E",
"; 	c #AD513D",
"> 	c #A34938",
", 	c #A14A3C",
"' 	c #974437",
") 	c #923F35",
"! 	c #7E392F",
"~ 	c #78352C",
"{ 	c #783730",
"] 	c #70332E",
"^ 	c #682D2B",
"/ 	c #672A2F",
"( 	c #C97351",
"_ 	c #D48153",
": 	c #B56C52",
"< 	c #7C3E41",
"[ 	c #B67654",
"} 	c #E89F73",
"| 	c #713737",
"1 	c #5E2F2C",
"2 	c #893824",
"3 	c #823429",
"4 	c #782D23",
"5 	c #772F27",
"6 	c #712D25",
"7 	c #75322B",
"8 	c #6D2A24",
"9 	c #6B2A24",
"0 	c #6A2C29",
"a 	c #672C2B",
"b 	c #602729",
"c 	c #5D2A2D",
"d 	c #C06B4C",
"e 	c #DB875C",
"f 	c #AF654C",
"g 	c #773537",
"h 	c #BC7752",
"i 	c #E6986B",
"j 	c #662A29",
"k 	c #623130",
"l 	c #8B3B2B",
"m 	c #7F3536",
"n 	c #813A3B",
"o 	c #7C383A",
"p 	c #662627",
"q 	c #662728",
"r 	c #512521",
"s 	c #4F2321",
"t 	c #4A2223",
"u 	c #472326",
"v 	c #411F24",
"w 	c #411C21",
"x 	c #B16149",
"y 	c #CE794E",
"z 	c #B97256",
"A 	c #834943",
"B 	c #C28254",
"C 	c #EA9E67",
"D 	c #632C1F",
"E 	c #8E584E",
"F 	c #B0573C",
"G 	c #9E4E37",
"H 	c #A65A3E",
"I 	c #A94C37",
"J 	c #7D3A25",
"K 	c #793C2C",
"L 	c #6B2D27",
"M 	c #6D2B2B",
"N 	c #65282B",
"O 	c #5D282A",
"P 	c #522423",
"Q 	c #AE604C",
"R 	c #CF7B50",
"S 	c #B27054",
"T 	c #7E453F",
"U 	c #C08054",
"V 	c #E89E69",
"W 	c #613127",
"X 	c #6E3D38",
"Y 	c #97412A",
"Z 	c #8F4430",
"` 	c #783928",
" .	c #822F2F",
"..	c #67312B",
"+.	c #652B1F",
"@.	c #512C2C",
"#.	c #5B292F",
"$.	c #54252C",
"%.	c #472427",
"&.	c #4C2528",
"*.	c #482425",
"=.	c #B56853",
"-.	c #D6835B",
";.	c #AE6B52",
">.	c #824845",
",.	c #C4835B",
"'.	c #DB9164",
").	c #582B2B",
"!.	c #4B2023",
"~.	c #AD5A46",
"{.	c #B2644D",
"].	c #824A3F",
"^.	c #753645",
"/.	c #552D2E",
"(.	c #9B5D46",
"_.	c #2F1D25",
":.	c #45212A",
"<.	c #4C2227",
"[.	c #402021",
"}.	c #411D23",
"|.	c #411A1C",
"1.	c #B36751",
"2.	c #BD6C46",
"3.	c #985542",
"4.	c #6F3638",
"5.	c #A66747",
"6.	c #CE8563",
"7.	c #50262D",
"8.	c #593235",
"9.	c #D8886C",
"0.	c #D77F54",
"a.	c #B06A4C",
"b.	c #803D44",
"c.	c #5E382E",
"d.	c #E49C6A",
"e.	c #2F1E24",
"f.	c #5C2F2F",
"g.	c #7E3F33",
"h.	c #793F2F",
"i.	c #733B32",
"j.	c #7A3B2F",
"k.	c #AB614A",
"l.	c #B66842",
"m.	c #9B5A4B",
"n.	c #68343A",
"o.	c #9F6649",
"p.	c #C78263",
"q.	c #542A30",
"r.	c #613836",
"s.	c #D18461",
"t.	c #D88653",
"u.	c #C37344",
"v.	c #924B44",
"w.	c #5F402C",
"x.	c #E1A163",
"y.	c #2C1A20",
"z.	c #632E2B",
"A.	c #91422E",
"B.	c #91442B",
"C.	c #8B4233",
"D.	c #8B3E2C",
"E.	c #A35A43",
"F.	c #B1603C",
"G.	c #975647",
"H.	c #5D2F32",
"I.	c #945D43",
"J.	c #B66F54",
"K.	c #401F20",
"L.	c #5A2C28",
"M.	c #B6704A",
"N.	c #C27E4F",
"O.	c #CD844E",
"P.	c #B66F5D",
"Q.	c #5A4636",
"R.	c #EABB7E",
"S.	c #2B1B1F",
"T.	c #66312C",
"U.	c #923F2B",
"V.	c #903F26",
"W.	c #8F4131",
"X.	c #8F3F30",
"Y.	c #A25A45",
"Z.	c #B05A39",
"`.	c #995848",
" +	c #572F29",
".+	c #A0634B",
"++	c #C97864",
"@+	c #31211C",
"#+	c #5E2829",
"$+	c #B77751",
"%+	c #BC774E",
"&+	c #C28451",
"*+	c #BB7053",
"=+	c #4C342E",
"-+	c #D8935B",
";+	c #212430",
">+	c #492C38",
",+	c #5D292E",
"'+	c #5C292A",
")+	c #5A262B",
"!+	c #5A272D",
"~+	c #A15D4C",
"{+	c #AC5A3D",
"]+	c #935547",
"^+	c #5A332E",
"/+	c #9E624B",
"(+	c #C47565",
"_+	c #2E1E1B",
":+	c #6B3334",
"<+	c #BB754F",
"[+	c #C37651",
"}+	c #C6814F",
"|+	c #E8977A",
"1+	c #513431",
"2+	c #D28753",
"3+	c #281B1C",
"4+	c #4E2226",
"5+	c #702C2D",
"6+	c #632122",
"7+	c #65232B",
"8+	c #5D2428",
"9+	c #A06053",
"0+	c #A05139",
"a+	c #814339",
"b+	c #58312D",
"c+	c #925742",
"d+	c #B4675A",
"e+	c #2E2020",
"f+	c #6D3234",
"g+	c #BC704B",
"h+	c #C06D4C",
"i+	c #D28856",
"j+	c #D38061",
"k+	c #583935",
"l+	c #DD9160",
"m+	c #291919",
"n+	c #532528",
"o+	c #611D1F",
"p+	c #69292B",
"q+	c #63242D",
"r+	c #5F232A",
"s+	c #723630",
"t+	c #984E3C",
"u+	c #81443D",
"v+	c #532B2A",
"w+	c #844939",
"x+	c #9A5048",
"y+	c #312528",
"z+	c #682B2D",
"A+	c #C4744F",
"B+	c #B86345",
"C+	c #D68E59",
"D+	c #C3724E",
"E+	c #543A34",
"F+	c #CE8656",
"G+	c #232025",
"H+	c #432127",
"I+	c #602C2C",
"J+	c #572824",
"K+	c #592B2E",
"L+	c #58272A",
"M+	c #723935",
"N+	c #833A2A",
"O+	c #743934",
"P+	c #5C3433",
"Q+	c #6E3526",
"R+	c #762E28",
"S+	c #3F3339",
"T+	c #6D2F30",
"U+	c #C1704A",
"V+	c #BE6B4D",
"W+	c #BF7842",
"X+	c #CB7E57",
"Y+	c #503932",
"Z+	c #C88454",
"`+	c #261A16",
" @	c #6C423D",
".@	c #965B4B",
"+@	c #9C6751",
"@@	c #93614D",
"#@	c #895541",
"$@	c #894238",
"%@	c #813D38",
"&@	c #773434",
"*@	c #6E3330",
"=@	c #63332A",
"-@	c #5C3229",
";@	c #66322F",
">@	c #7E3A28",
",@	c #BE7044",
"'@	c #BF7346",
")@	c #BE734B",
"!@	c #AB563F",
"~@	c #543A2D",
"{@	c #D48D62",
"]@	c #251C21",
"^@	c #905C3C",
"/@	c #DC9E67",
"(@	c #F3A977",
"_@	c #BA825C",
":@	c #9E6742",
"<@	c #843F3A",
"[@	c #7B3B36",
"}@	c #753634",
"|@	c #6A2F32",
"1@	c #663432",
"2@	c #603130",
"3@	c #6B3337",
"4@	c #894136",
"5@	c #CD7A55",
"6@	c #B7663E",
"7@	c #C47551",
"8@	c #AF5541",
"9@	c #55362C",
"0@	c #C57A54",
"a@	c #362228",
"b@	c #A76A4B",
"c@	c #E39F6A",
"d@	c #F9AA7A",
"e@	c #B87C57",
"f@	c #9D5F3D",
"g@	c #55222D",
"h@	c #502129",
"i@	c #50242A",
"j@	c #491F27",
"k@	c #492327",
"l@	c #472125",
"m@	c #602D36",
"n@	c #824239",
"o@	c #B86C4A",
"p@	c #AA5439",
"q@	c #BA6648",
"r@	c #B15443",
"s@	c #55332D",
"t@	c #D68566",
"u@	c #4D2830",
"v@	c #BD7456",
"w@	c #D28852",
"x@	c #F39E6E",
"y@	c #BF7C5A",
"z@	c #9A5339",
"A@	c #481C2F",
"B@	c #441D2C",
"C@	c #411D2A",
"D@	c #3F1E29",
"E@	c #3B1E21",
"F@	c #3F1D22",
"G@	c #5E2E36",
"H@	c #7B4035",
"I@	c #B36C4C",
"J@	c #A14B39",
"K@	c #B25F46",
"L@	c #AA4D3E",
"M@	c #543330",
"N@	c #BD6D53",
"O@	c #5C2D35",
"P@	c #C67758",
"Q@	c #DE945D",
"R@	c #EB9364",
"S@	c #B67250",
"T@	c #964E38",
"U@	c #682D34",
"V@	c #6A3238",
"W@	c #642E35",
"X@	c #5B2C38",
"Y@	c #562730",
"Z@	c #602A35",
"`@	c #722C39",
" #	c #853630",
".#	c #C27054",
"+#	c #A25045",
"@#	c #A85A42",
"##	c #A14A39",
"$#	c #472A27",
"%#	c #B56A52",
"&#	c #5E292F",
"*#	c #D1805F",
"=#	c #E6A065",
"-#	c #E18E5D",
";#	c #AF6F4D",
">#	c #793423",
",#	c #622A28",
"'#	c #642D2D",
")#	c #612B2F",
"!#	c #57232E",
"~#	c #4D1C29",
"{#	c #54212E",
"]#	c #6B2A32",
"^#	c #8B3C35",
"/#	c #BE6550",
"(#	c #934B2F",
"_#	c #A9563A",
":#	c #A84846",
"<#	c #533A28",
"[#	c #D07B51",
"}#	c #652E2E",
"|#	c #D07C53",
"1#	c #DA8F5B",
"2#	c #E28C68",
"3#	c #A3624C",
"4#	c #874735",
"                                                ",
"  . . . . . . . . . . . . . . . . . . . . . .   ",
"  . + @ # $ % & * = - ; > , ' ) ! ~ { ] ^ / .   ",
"  . ( _ : < [ } | 1 2 3 4 5 6 7 8 9 0 a b c .   ",
"  . d e f g h i j k l m n o p q r s t u v w .   ",
"  . x y z A B C D E F G H I J K L M N O O P .   ",
"  . Q R S T U V W X Y Z `  ...+.@.#.$.%.&.*..   ",
"  . =.-.;.>.,.'.).!.~.{.].^./.(._.:.<.[.}.|..   ",
"  . 1.2.3.4.5.6.7.8.9.0.a.b.c.d.e.f.g.h.i.j..   ",
"  . k.l.m.n.o.p.q.r.s.t.u.v.w.x.y.z.A.B.C.D..   ",
"  . E.F.G.H.I.J.K.L.M.N.O.P.Q.R.S.T.U.V.W.X..   ",
"  . Y.Z.`. +.+++@+#+$+%+&+*+=+-+;+>+,+'+)+!+.   ",
"  . ~+{+]+^+/+(+_+:+<+[+}+|+1+2+3+4+5+6+7+8+.   ",
"  . 9+0+a+b+c+d+e+f+g+h+i+j+k+l+m+n+o+p+q+r+.   ",
"  . s+t+u+v+w+x+y+z+A+B+C+D+E+F+G+H+I+J+K+L+.   ",
"  . M+N+O+P+Q+R+S+T+U+V+W+X+Y+Z+`+ @.@+@@@#@.   ",
"  . $@%@&@*@=@-@;@>@,@'@)@!@~@{@]@^@/@(@_@:@.   ",
"  . <@[@}@|@1@2@3@4@5@6@7@8@9@0@a@b@c@d@e@f@.   ",
"  . g@h@i@j@k@l@m@n@o@p@q@r@s@t@u@v@w@x@y@z@.   ",
"  . A@B@C@D@E@F@G@H@I@J@K@L@M@N@O@P@Q@R@S@T@.   ",
"  . U@V@W@X@Y@Z@`@ #.#+#@###$#%#&#*#=#-#;#>#.   ",
"  . ,#'#)#!#~#{#]#^#/#(#_#:#<#[#}#|#1#2#3#4#.   ",
"  . . . . . . . . . . . . . . . . . . . . . .   ",
"                                                "};
