/* XPM */
static char *magick[] = {
/* columns rows colors chars-per-pixel */
"24 24 18 1",
"  c Gray0",
". c Gray11",
"X c Gray14",
"o c Gray22",
"O c #7f0000",
"+ c #484848",
"@ c #555555",
"# c #6c6c6c",
"$ c #717171",
"% c #8e8e8e",
"& c #909090",
"* c #aaaaaa",
"= c #b4b4b4",
"- c Gray78",
"; c #d8d8d8",
": c Gray89",
"> c #fdfdfd",
", c None",
/* pixels */
",,,,,,,,,,,  ,,,,,,,,,,,",
",,,,,,,,,,,  ,,,,,,,,,,,",
",,,,,,,,,,,  ,,,,,,,,,,,",
",,,,,,,,,,,  ,+X ,,,,,,,",
",,,,,,,,,,,  &#+X ,,,,,,",
",,,,,,,,,,,  ,&#+X ,,,,,",
",,,,,,,,,,,: ;=&#+X ,,,,",
",,,,,,,,,,   >;=&#+X ,,,",
",,,,,,,,OO   :>;=&#+X ,,",
",,,,,OOOO    -:>;=&#+X ,",
",,,,OOOO  @$ *-:>;=&#+X,",
",,,,OO   .o@$%*-:>;=&#+,",
",,,OO     .o@$%*-:>;=&#,",
",,OO  ,    .o@$%*-:>;= ,",
",,OO ,,,,   .o@$%*-:>;,,",
",,O  ,,,,,   .o@$%*-: ,,",
",,O ,,,,,,,,  .o@$%* ,,,",
",,O ,,,,,,,,,  .o@$%,,,,",
",,O,,,,,,,,,,,  .o@,,,,,",
",,,,,,,,,,,,,,,   ,,,,,,",
",,,,,,,,,,,,,,,,,,,,,,,,",
",,,,,,,,,,,,,,,,,,,,,,,,",
",,,,,,,,,,,,,,,,,,,,,,,,",
",,,,,,,,,,,,,,,,,,,,,,,,"
};
