/* XPM */
static char * fill_none_xpm[] = {
"24 24 3 1",
" 	c None",
".	c #59597D",
"+	c #000000",
"                        ",
" ...................... ",
" .                    . ",
" .                    . ",
" .                    . ",
" .   ++          ++   . ",
" .   +++        +++   . ",
" .    +++      +++    . ",
" .     +++    +++     . ",
" .      +++  +++      . ",
" .       ++++++       . ",
" .        ++++        . ",
" .        ++++        . ",
" .       ++++++       . ",
" .      +++  +++      . ",
" .     +++    +++     . ",
" .    +++      +++    . ",
" .   +++        +++   . ",
" .   ++          ++   . ",
" .                    . ",
" .                    . ",
" .                    . ",
" ...................... ",
"                        "};
