/* XPM */
static char *magick[] = {
/* columns rows colors chars-per-pixel */
"24 24 7 1",
"  c Gray0",
". c #070000",
"X c #3c0000",
"o c #7f0000",
"O c #989898",
"+ c Gray89",
"@ c None",
/* pixels */
"@@@@@@@@@@@@@@@@@@@@@@@@",
"@@@@@@@@@@@@@@@@@@@@@@@@",
"@@@@@@@@@@@@@@@@@@@@@@@@",
"@@@@@@@@@@@@@@@@@@@@@@@@",
"@@@@@@@@@@@@@@@@@@oo@@@@",
"@@@@@@@@@@@@@@@@@ .X@@@@",
"@@@@@@@@@@@@@@@@   @@@@@",
"@@@@@@@@@@@@@@@   @@@@@@",
"@@@@@@@@@@@@@@@  @@@@@@@",
"@@@@@@@@@@@@@@   @@@@@@@",
"@@@@@@@@@@@@@   @@@@@@@@",
"@@@@@@@@@@@@   @@@@@@@@@",
"@@@oooo@@@@@   @@@@@@@@@",
"@@oo@@oo@@@   @@@@@@@@@@",
"@@o@@@@o@@O  @@@@@@@@@@@",
"@@o@@@oo@@+ @@@@@@@@@@@@",
"@o@@@@o@@o@@@@@@@@@@@@@@",
"@o@@@oo@@o@@@@@@@@@@@@@@",
"@@@@@o@@@o@@@@@@@@@@@@@@",
"@@@@@o@@@o@@@@@@@@@@@@@@",
"@@@@@o@@@o@@@@@@@@@@@@@@",
"@@@@@o@@oo@@@@@@@@@@@@@@",
"@@@@@oooo@@@@@@@@@@@@@@@",
"@@@@@@@@@@@@@@@@@@@@@@@@"
};
