/* XPM */
static char * line_dashed_xpm[] = {
"24 24 4 1",
" 	c None",
".	c #59597F",
"+	c #9797D8",
"@	c #E8FF77",
"                        ",
"                        ",
"                        ",
"                        ",
"                        ",
"                        ",
"                        ",
"                        ",
"...    ..........    ...",
"++.    .++++++++.    .++",
"++.    .++++++++.    .++",
"++.    .++++++++.    .++",
"++.    .++++++++.    .++",
"++.    .++++++++.    .++",
"...    ..........    ...",
"@@@@@@@@@@@@@@@@@@@@@@@@",
"@@@@@@@@@@@@@@@@@@@@@@@@",
"@@@@@@@@@@@@@@@@@@@@@@@@",
"@@@@@@@@@@@@@@@@@@@@@@@@",
"@@@@@@@@@@@@@@@@@@@@@@@@",
"@@@@@@@@@@@@@@@@@@@@@@@@",
"@@@@@@@@@@@@@@@@@@@@@@@@",
"@@@@@@@@@@@@@@@@@@@@@@@@",
"@@@@@@@@@@@@@@@@@@@@@@@@"};
