/* XPM */
static char * line_doubled_xpm[] = {
"24 24 4 1",
" 	c None",
".	c #59597F",
"+	c #E8FF77",
"@	c #9797D8",
"                        ",
"                        ",
"                        ",
"                        ",
"                        ",
"                        ",
"                        ",
"                        ",
"...++++..........++++...",
"@@.++++.@@@@@@@@.++++.@@",
"@@.++++.@@@@@@@@.++++.@@",
"@@.++++.@@@@@@@@.++++.@@",
"@@.++++.@@@@@@@@.++++.@@",
"@@.++++.@@@@@@@@.++++.@@",
"...++++..........++++...",
"++++++++++++++++++++++++",
"++++++++++++++++++++++++",
"++++++++++++++++++++++++",
"++++++++++++++++++++++++",
"++++++++++++++++++++++++",
"++++++++++++++++++++++++",
"++++++++++++++++++++++++",
"++++++++++++++++++++++++",
"++++++++++++++++++++++++"};
