/* XPM */
static char *noarrow[]={
"32 32 3 1",
". c None",
"# c #59597f",
"a c #9797d8",
"................................",
"................................",
"................................",
"................................",
"................................",
"................................",
"................................",
"................................",
"................................",
"................................",
"................................",
"................................",
"................................",
"................................",
".............###################",
".............#aaaaaaaaaaaaaaaaaa",
".............###################",
"................................",
"................................",
"................................",
"................................",
"................................",
"................................",
"................................",
"................................",
"................................",
"................................",
"................................",
"................................",
"................................",
"................................",
"................................"};
