/* XPM */
static char *arrowhead[]={
"32 32 3 1",
". c None",
"# c #59597f",
"a c #9797d8",
"................................",
"................................",
"................................",
"................................",
"................................",
"................................",
"................................",
"................................",
"....................#...........",
"..................###...........",
"................##aa#...........",
"..............##aaaa#...........",
"............##aaaaaa#...........",
"..........##aaaaaaaa#...........",
"........##aaaaaaaaaa############",
"......##aaaaaaaaaaaaaaaaaaaaaaaa",
"........##aaaaaaaaaa############",
"..........##aaaaaaaa#...........",
"............##aaaaaa#...........",
"..............##aaaa#...........",
"................##aa#...........",
"..................###...........",
"....................#...........",
"................................",
"................................",
"................................",
"................................",
"................................",
"................................",
"................................",
"................................",
"................................"};
