/* XPM */
static char * arrowhead_end_xpm[] = {
"32 32 3 1",
" 	c None",
".	c #59597F",
"+	c #9797D8",
"                                ",
"                                ",
"                                ",
"                                ",
"                                ",
"                                ",
"                                ",
"                                ",
"                                ",
"           .                    ",
"           ...                  ",
"           .++..                ",
"           .++++..              ",
"           .++++++..            ",
"           .++++++++..          ",
"............++++++++++..        ",
"++++++++++++++++++++++++..      ",
"............++++++++++..        ",
"           .++++++++..          ",
"           .++++++..            ",
"           .++++..              ",
"           .++..                ",
"           ...                  ",
"           .                    ",
"                                ",
"                                ",
"                                ",
"                                ",
"                                ",
"                                ",
"                                ",
"                                "};
