/* XPM */
static char * node_cusp_xpm[] = {
"24 24 6 1",
" 	c None",
".	c #FFFFFF",
"+	c #000000",
"@	c #0000BD",
"#	c #A1A1E6",
"$	c #999999",
"                        ",
"                        ",
"                        ",
".                      +",
"+.                    +.",
" +.                  +. ",
"  +.                +.  ",
"   +.              +.   ",
"    +.            +.    ",
"     +.          +.     ",
"      +.        +.      ",
"       +.      +.       ",
"        @@@@@@@.        ",
"        @#####@#        ",
"        @#    @#       $",
"        @#    @#        ",
"        @#    @#        ",
"        @#    @#        ",
"        @@@@@@@#        ",
"         #######        ",
"                        ",
"                        ",
"                        ",
"                        "};
