/* XPM */
static char *magick[] = {
/* columns rows colors chars-per-pixel */
"24 24 12 1",
"  c Gray0",
". c #200000",
"X c #760000",
"o c #7f0000",
"O c #820000",
"+ c #930000",
"@ c #9b0000",
"# c #a50000",
"$ c #af0000",
"% c #ca0000",
"& c Red",
"* c None",
/* pixels */
"************************",
"************************",
"************************",
"************************",
"************************",
"************************",
"*****  *****************",
"*****    ***************",
"******    **************",
"********    ************",
"*********    ********o**",
"**********    ******oo**",
"************ .X&***o&ooo",
"************ $o@**o&&&&o",
"**********   Oo%***o&ooo",
"********     #+o****oo**",
"******     **********o**",
"***      ***************",
"***    *****************",
"************************",
"************************",
"************************",
"************************",
"************************"
};
