/* XPM */
static char * node_smooth_xpm[] = {
"24 24 5 1",
" 	c None",
".	c #000000",
"+	c #FFFFFF",
"@	c #0000BD",
"#	c #A1A1E6",
"                        ",
"                        ",
"                        ",
"                        ",
"                        ",
"                        ",
"                        ",
"                        ",
"                        ",
"                       .",
".                     .+",
"+.                   .+ ",
" +.     @@@@@@@     .+  ",
"  +..   @#####@#  ..+   ",
"   ++...@#    @...++    ",
"     +++@#    @+++      ",
"        @#    @#        ",
"        @#    @#        ",
"        @@@@@@@#        ",
"         #######        ",
"                        ",
"                        ",
"                        ",
"                        "};
