/* XPM */
static char * node_symetric_xpm[] = {
"24 24 6 1",
" 	c None",
".	c #000000",
"+	c #FFFFFF",
"@	c #999999",
"#	c #0000BD",
"$	c #A1A1E6",
"                        ",
"                        ",
"                        ",
"                        ",
"                        ",
".+                    .+",
".+                    .+",
".+                    .+",
" .@                  .+ ",
" .+                  .+ ",
"  .@                .+  ",
"  +.@   #######    .+   ",
"   +..@ #$$$$$#$ ..+    ",
"... ++..#$    #$.++ ... ",
".+.######$    ######.+.+",
"...+$$$$#$    #$$$$$...+",
" +++    #$    #$     +++",
"        #######$        ",
"         $$$$$$$        ",
"                        ",
"                        ",
"                        ",
"                        ",
"                        "};
