/* XPM */
static char * node_insert_xpm[] = {
"24 24 7 1",
" 	c None",
".	c #000000",
"+	c #F8E008",
"@	c #0000BD",
"#	c #A1A1E6",
"$	c #010101",
"%	c #FFFFFF",
"                        ",
"                        ",
"          ...           ",
"          .+.           ",
"          .+.           ",
"       ....+....        ",
"       .+++++++.        ",
"       ....+....        ",
"          .+.           ",
"          .+.           ",
"          ...           ",
"                        ",
"                        ",
"        @@@@@@@         ",
"        @#####@#        ",
"        @#    @#        ",
"........@#    @$......$$",
"%%%%%%%%@#    @%%%%%%%%%",
"        @#    @#        ",
"        @@@@@@@#        ",
"         #######        ",
"                        ",
"                        ",
"                        "};
