/* XPM */
static char * object_reset_xpm[] = {
"24 24 4 1",
" 	c None",
".	c #000000",
"+	c #FFFFFF",
"@	c #F8E008",
"                        ",
"                        ",
"         ...            ",
"       ...++....        ",
"      ..++  +++...      ",
"  .  ..      . ++..     ",
" .@...   ....@.  +..    ",
" .@@.   ..++.@.   +.    ",
"  .@@. ..  .@@.    +.   ",
"  +.@.+.   .@.+.   +.   ",
"  +..@..  .@@.+..  +.   ",
"  +. .@. .@@.  +.  +.   ",
"  +. .@@.@@..  +.  +.   ",
"  +.  .@@@. .  +.  +.   ",
"  +.  .@@@. .  +.. +.   ",
"  +. .@@.@@..  +.  +.   ",
"  +..@@...@.   +.  +.   ",
"  ..@@.  .@@. +.. +..   ",
" .@@@..   .@@... .+..   ",
"  ...+..   .@@. +...... ",
"      ++.....@. +.....  ",
"        ++..+.  +...    ",
"          ++    +.++    ",
"                ++      "};
