/* XPM */
static char * object_font_xpm[] = {
"24 24 5 1",
" 	c None",
".	c #662800",
"+	c #C64800",
"@	c #515151",
"#	c #000000",
"                        ",
"                        ",
"             .......    ",
"           ..  .   ..   ",
"          ..   .   ..   ",
"         ..   ..  ..    ",
"    .....+.   ....      ",
"    ...++.    .   ...   ",
"       .+.    .    ..   ",
"      ..+.   ..    ..   ",
"      . ...  .  .... .  ",
"     ..  .. .  . .. ..  ",
"     ..  .+....+.    .  ",
"    .++..++.  ..        ",
"    .+....+.  ..        ",
"   .+.    .+. ..        ",
"  .+++.  .+++.+.     .  ",
"  .....  ..... .    ..  ",
"                .... .  ",
"                        ",
"                        ",
" @@@@@@@@@@@@@@@@@@@@@@ ",
"                        ",
"           #####  ##### "};
