/* XPM */
static char * properties_fill_xpm[] = {
"20 20 12 1",
" 	c None",
".	c #000000",
"+	c #808080",
"@	c #B4B4B4",
"#	c #F4F4F4",
"$	c #FFFFFF",
"%	c #000001",
"&	c #CDCDCD",
"*	c #999999",
"=	c #FB8005",
"-	c #8E8E8E",
";	c #848484",
"                    ",
"       .+           ",
"      .+.           ",
"      .+.+ .        ",
"      .+.+.@.       ",
"      .+ .##@.      ",
"       ..$$##@.     ",
"       .%$$$##@.    ",
"      .&#%$$$##@.   ",
"     .@&&#$$$$##@.  ",
"    .*@@&&#$$$$##@. ",
"   =.**@@&&#$$$$#+.+",
"   =...*@@&&#$$$+..+",
"   == +.*@@&&#$+..+ ",
"   ==  +.*@@&&+..+  ",
"   ==   +.*@@-..+   ",
"   ==    +.*;..     ",
"  ===     +...      ",
" ======    +++      ",
"=== ====            "};
