/* XPM */
static char * scale_xpm[] = {
"24 24 5 1",
" 	c None",
".	c #000000",
"+	c #F8E008",
"@	c #7F7F80",
"#	c #8F8FCC",
"                        ",
" .....................  ",
" .+++.               .@ ",
" .++.                .@ ",
" .+.+.               .@ ",
" .. .+.   .          .@ ",
" .   .+. ..          .@ ",
" .    .+.+.          .@ ",
" .     .++.          .@ ",
" .    .+++.          .@ ",
" .   ........#...#....@ ",
" .        ###########.@ ",
" .        .##########.@ ",
" .        .##########.@ ",
" .        .##########.@ ",
" .        ###########.@ ",
" .        .##########.@ ",
" .        .##########.@ ",
" .        .##########.@ ",
" .        ###########.@ ",
" .        .##########.@ ",
" .....................@ ",
"  @@@@@@@@@@@@@@@@@@@@@ ",
"                        "};
