/* XPM */
static char * selection_down_xpm[] = {
"24 24 5 1",
" 	c None",
".	c #000000",
"+	c #08FEF8",
"@	c #04817E",
"#	c #04807C",
"                        ",
"                        ",
"                        ",
"                        ",
"                        ",
"                        ",
"                        ",
"                        ",
"      ..        ..      ",
"     .+@.      .#+.     ",
"     .@+#.    .#+@.     ",
"      .@+#.  .#+@.      ",
"       .@+#..#+@.       ",
"        .@+##+@.        ",
"         .@++@.         ",
"          .@@.          ",
"           ..           ",
"                        ",
"                        ",
"                        ",
"                        ",
"                        ",
"                        ",
"                        "};
