/* XPM */
static char * selection_bot_xpm[] = {
"24 24 4 1",
" 	c None",
".	c #000000",
"+	c #04807C",
"@	c #08FEF8",
"                        ",
"                        ",
"                        ",
"                        ",
"                        ",
"                        ",
"                        ",
"                        ",
"                        ",
"                        ",
"      ..        ..      ",
"     .++.      .++.     ",
"     .+@+.    .+@+.     ",
"      .+@+.  .+@+.      ",
"       .+@+..+@+.       ",
"        .+@++@+.        ",
"         .+@@+.         ",
"          .++.          ",
"           ..           ",
"  ....................  ",
"  .@@@@@@@@@@@@@@@@@@.  ",
"  ....................  ",
"                        ",
"                        "};
