/* XPM */
static char * selection_up_xpm[] = {
"24 24 5 1",
" 	c None",
".	c #000000",
"+	c #04817E",
"@	c #08FEF8",
"#	c #04807C",
"                        ",
"                        ",
"                        ",
"                        ",
"                        ",
"                        ",
"                        ",
"           ..           ",
"          .++.          ",
"         .+@@+.         ",
"        .+@##@+.        ",
"       .+@#..#@+.       ",
"      .+@#.  .#@+.      ",
"     .+@#.    .#@+.     ",
"     .@#.      .+@.     ",
"      ..        ..      ",
"                        ",
"                        ",
"                        ",
"                        ",
"                        ",
"                        ",
"                        ",
"                        "};
