/* XPM */
static char *magick[] = {
/* columns rows colors chars-per-pixel */
"24 24 53 1",
"  c Gray0",
". c #7f0000",
"X c #6e7269",
"o c #6f7269",
"O c #70736a",
"+ c #70736b",
"@ c #71746b",
"# c #72756c",
"$ c #72756d",
"% c #73766d",
"& c #75776f",
"* c #767970",
"= c #797b73",
"- c #7d7f77",
"; c #7f817a",
": c Red",
"> c #80827b",
", c #80837b",
"< c #81837c",
"1 c #81847c",
"2 c #82847c",
"3 c #82857d",
"4 c #84867f",
"5 c #8c8e87",
"6 c #8c8f88",
"7 c #8d8f88",
"8 c #8d8f89",
"9 c #8d9089",
"0 c #8e9089",
"q c #8e908a",
"w c #8e918a",
"e c #90928c",
"r c #94968f",
"t c #979993",
"y c #999b94",
"u c #9b9d97",
"i c #9c9d98",
"p c #9d9f99",
"a c #9d9f9a",
"s c #9ea09a",
"d c #9fa19c",
"f c #a1a39d",
"g c #a2a49e",
"h c #a3a59f",
"j c #a4a6a0",
"k c #a5a7a2",
"l c #a6a8a3",
"z c #a8aaa5",
"x c #a9aba6",
"c c #abaca7",
"v c #abada8",
"b c #acaea9",
"n c None",
/* pixels */
"nnnnnnnnnnnnnnnnnnnnnnnn",
"nnnnnnnnnnnnnnnnnnnnnnnn",
"nnnnnnnnnnnnnnnnnnnnnnnn",
"nnnnnnnnnnnnnnnnnnnnnnnn",
"nnnn               nnnnn",
"nnnn               nnnnn",
"nnnn  u5%*100tidh  nnnnn",
"nnnn  d0>O*1700tu  nnnnn",
"nnnn  h05=X*>5000  nnnnn",
"nnnn  kt0<&O*.470  nnn.n",
"nnnn  ku05;%O.:17  nn:.n",
"nnnn  li071...::1  n::..",
"nnnn  zdr05.:::::  :::::",
"nnnn  zfy07...::*  n::..",
"nnnn  chu005>.:X%  nn:.n",
"nnnn  vhie071.*%X  nnn.n",
"nnnn  bkst005<-&@  nnnnn",
"nnnn               nnnnn",
"nnnn               nnnnn",
"nnnnnnnnnnnnnnnnnnnnnnnn",
"nnnnnnnnnnnnnnnnnnnnnnnn",
"nnnnnnnnnnnnnnnnnnnnnnnn",
"nnnnnnnnnnnnnnnnnnnnnnnn",
"nnnnnnnnnnnnnnnnnnnnnnnn"
};
