/* XPM */
static char * toolbox_select_xpm[] = {
"12 12 4 1",
" 	c None",
".	c #000000",
"+	c #6BCEC9",
"@	c #0DD8C7",
"...      ...",
".+..@...@.+.",
"...@@@@@@...",
" @@@@@@@@@. ",
" .@@@@@@@@. ",
" .@@@@@@@@@ ",
" .@@@@@@@@. ",
" @@@@@@@@@. ",
" .@@@@@@@@. ",
"...@@@@@@...",
".+.@...@..+.",
"...      ..."};
