/* XPM */
static char * unknown_xpm[] = {
"16 16 2 1",
" 	c None",
".	c #585858",
"                ",
"                ",
"                ",
"                ",
"    .      .    ",
"     .    .     ",
"      .  .      ",
"       .        ",
"        .       ",
"      .  .      ",
"     .    .     ",
"    .      .    ",
"                ",
"                ",
"                ",
"                "};
