/* XPM */
static char * writing_mode_lr_xpm[] = {
"24 24 2 1",
" 	c None",
".	c #000000",
"                        ",
"                        ",
"                        ",
"   . .  . .    .    .   ",
"   .... .... ... ....   ",
"                        ",
"                        ",
"     . .  .   .         ",
"   ... ..... ..         ",
"                        ",
"                        ",
"    . ..   .   .  .     ",
"   .. .... ..... ..     ",
"                        ",
"                        ",
"    .. .  .  ..         ",
"   ..... .. ...         ",
"                        ",
"                        ",
"   .  .   ..   .  .     ",
"   .. ... ... ... ...   ",
"                        ",
"                        ",
"                        "};
