/* XPM */
static char * zoom_page_xpm[] = {
"24 24 5 1",
" 	c None",
".	c #000000",
"+	c #FFFFFF",
"@	c #7E7E7E",
"#	c #4B4B4B",
"                        ",
"        .......         ",
"      ..+++++++..       ",
"     .+++++++++++.      ",
"    .+...........+.     ",
"   .++.+++++++++.@+.    ",
"  .+++.+++++++++.@++.   ",
"  .+++.+++++++++.@++.   ",
" .++++.+++++++++.@+++.  ",
" .++++.+++++++++.@+++.  ",
" .++++.+++++++++.@+++.  ",
" .++++.+++++++++.@+++.  ",
" .++++.+++++++++.@+++.  ",
" .++++.+++++++++.@+++.  ",
" .++++.+++++++++.@+++.  ",
"  .+++.+++++++++.@++.   ",
"  .+++.+++++++++.@++.   ",
"   .++...........@+.    ",
"    .++@@@@@@@@@@@...   ",
"     .+++++++++++.##..  ",
"      ..+++++++.. .##.. ",
"        .......    .##..",
"                    .##.",
"                     .##"};
