/* XPM */
static char *magick[] = {
/* columns rows colors chars-per-pixel */
"24 24 27 1",
"  c Gray0",
". c #373737",
"X c #7f0000",
"o c Gray33",
"O c Gray36",
"+ c Gray41",
"@ c #727272",
"# c #767676",
"$ c Gray49",
"% c #868686",
"& c #888888",
"* c Gray54",
"= c Gray57",
"- c #989898",
"; c Gray60",
": c #9d9d9d",
"> c #a4a4a4",
", c Gray65",
"< c #aaaaaa",
"1 c #aeaeae",
"2 c Gray69",
"3 c #b1b1b1",
"4 c #b2b2b2",
"5 c Gray72",
"6 c #bcbcbc",
"7 c #c1c1c1",
"8 c None",
/* pixels */
"888888888888888888888888",
"888888888888888888888888",
"888888888888888888888888",
"888888888888888888888888",
"888888888888888888888888",
"8888     888888888888888",
"888 .#&=o 88888888888888",
"88 .@$&-,O 8888888888888",
"88 #$%-:<3 8888888888888",
"88 &&=-,36 8888888888888",
"88 =-:-156 88XX8X88X8888",
"88 o,<357+ 8888888888888",
"888 O366+  8888888888888",
"8888        888888888888",
"8888888888   88888888888",
"88888888888   8888888888",
"88888888888    888888888",
"888888888888   888888888",
"8888888888888   88888888",
"88888888888888   8888888",
"88888888888888   8888888",
"888888888888888888888888",
"888888888888888888888888",
"888888888888888888888888"
};
