/* XPM */
static char * zoom_draw_xpm[] = {
"24 24 7 1",
" 	c None",
".	c #000000",
"+	c #FFFFFF",
"@	c #047FFC",
"#	c #F8E008",
"$	c #FD4003",
"%	c #4B4B4B",
"                        ",
"        .......         ",
"      ..++++.....       ",
"     .+++++.@@@@@.      ",
"    .+++++.@@@@@@@.     ",
"   .+++++.@@@@@@@@@.    ",
"  .++++++.@@@@@@@@@..   ",
"  ..........@@@@@@@..   ",
" .+.#######.@@@@@@@.+.  ",
" .+.#######.@...@@@.+.  ",
" .+.#######..$$$.@+++.  ",
" .+.#######..$$$..+++.  ",
" .+.#######.$...$.+++.  ",
" .+.#######.$.+.$.+++.  ",
" .+.######..$...$.+++.  ",
"  ..######.$$$$$$$.+.   ",
"  ..######.$.....$.+.   ",
"   ........$.+++.$..    ",
"    .+++++...+++.....   ",
"     .+++++++++++.%%..  ",
"      ..+++++++.. .%%.. ",
"        .......    .%%..",
"                    .%%.",
"                     .%%"};
