/* XPM */
static char * zoom_select_xpm[] = {
"24 24 4 1",
" 	c None",
".	c #000000",
"+	c #FFFFFF",
"@	c #4B4B4B",
"                        ",
"        .......         ",
"      ..+++++++..       ",
"     .+++++++++++.      ",
"    .+++++++++++++.     ",
"   .+++++++++++++++.    ",
"  .++...+...+...+.++.   ",
"  .++++++++++++++.++.   ",
" .+++.+++++++++++.+++.  ",
" .+++.+++++++++++++++.  ",
" .+++.+++++++++++.+++.  ",
" .+++++++++++++++.+++.  ",
" .+++.+++++++++++.+++.  ",
" .+++.+++++++++++++++.  ",
" .+++.+++++++++++.+++.  ",
"  .++++++++++++++.++.   ",
"  .++...+...+...+.++.   ",
"   .+++++++++++++++.    ",
"    .+++++++++++++...   ",
"     .+++++++++++.@@..  ",
"      ..+++++++.. .@@.. ",
"        .......    .@@..",
"                    .@@.",
"                     .@@"};
