/* XPM */
static char * roundhole_xpm[] = {
"24 24 4 1",
" 	c None",
".	c #000000",
"+	c #4B4B4B",
"@	c #FFFFFF",
"                        ",
" ......+++   ++.        ",
" .@@@@@@@@   @@@..      ",
" .@@@@@@@@   @@@@@.     ",
" .@@@@@@@@   @@@@@@.    ",
" .@@@@@@@@   @@@@@@@.   ",
" .@@@@@@@@ + @@@@@@@@.  ",
" .@@@@@@@@ .+@@@@@@@@.  ",
" .@@@@@@@@ ..+@@@@@@@@. ",
" .@@@@@@@@ ...+@@@@@@@. ",
" .@@@@@+.......+@@@@@@. ",
" .@@@@@+........+@@@@@. ",
" .@@@@@+.......+@@@@@@. ",
" .@@@@@@@@ ...+@@@@@@@. ",
" .@@@@@@@@ ..+@@@@@@@@. ",
" .@@@@@@@@ .+@@@@@@@@.  ",
" .@@@@@@@@ + @@@@@@@@.  ",
" .@@@@@@@@   @@@@@@@.   ",
" .@@@@@@@@   @@@@@@.    ",
" .@@@@@@@@   @@@@@.     ",
" .@@@@@@@@   @@@..      ",
" ......+++   ++.        ",
"                        ",
"                        "};
