<?xml version="1.0" encoding="UTF-8" standalone="no"?>
<!DOCTYPE svg PUBLIC "-//W3C//DTD SVG 1.0//EN"
"http://www.w3.org/TR/2001/REC-SVG-20010904/DTD/svg10.dtd">
<!-- Created with Inkscape (http://www.inkscape.org/) -->
<svg
   id="svg4005"
   sodipodi:version="0.32"
   inkscape:version="0.37"
   xmlns="http://www.w3.org/2000/svg"
   xmlns:sodipodi="http://sodipodi.sourceforge.net/DTD/sodipodi-0.dtd"
   xmlns:inkscape="http://www.inkscape.org/namespaces/inkscape"
   xmlns:xlink="http://www.w3.org/1999/xlink"
   width="640pt"
   height="480pt"
   sodipodi:docbase="/home/phillipsjd"
   sodipodi:docname="default-slide.svg">
  <defs
     id="defs4007" />
  <sodipodi:namedview
     id="base"
     pagecolor="#ffffff"
     bordercolor="#666666"
     borderopacity="1.0"
     inkscape:pageopacity="0.0"
     inkscape:pageshadow="2"
     inkscape:zoom="0.61399264"
     inkscape:cx="560.374313"
     inkscape:cy="168.524112"
     inkscape:window-width="1022"
     inkscape:window-height="740"
     inkscape:window-x="0"
     inkscape:window-y="5" />
  <rect
     style="font-size:12;fill:#0082ab;fill-rule:evenodd;stroke:none;stroke-width:2.05668pt;"
     id="rect3983"
     width="809.03658677"
     height="607.49723486"
     x="-2.87913237"
     y="1.14018638" />
  <path
     style="font-size:12;fill:#ffffff;fill-opacity:0.28125;fill-rule:evenodd;stroke-width:1pt;"
     d="M -6.9309667 4.717227 L -6.9309667 135.49412 L 813.35064 130.51124 L 813.35064 13.907581 L -6.9309667 4.717227 z "
     id="path4096"
     sodipodi:nodetypes="ccccc" />
  <path
     style="font-size:12;fill:#ffffff;fill-opacity:0.28125;fill-rule:evenodd;stroke-width:1pt;"
     d="M -84.060682 556.08606 C -97.93004 556.08606 -102.00175 611.53619 -88.132392 611.53619 L 813.52575 611.53619 L 811.48989 563.17268 L -84.060682 556.08606 z "
     id="path4024"
     sodipodi:nodetypes="ccccc" />
  <path
     style="font-size:40;font-weight:normal;fill:#ffffff;stroke-width:1pt;font-family:Century Schoolbook L;fill-opacity:1;"
     d="M 757.06679 30.654473 L 698.25153 30.654473 L 698.25153 34.417669 L 700.0131 34.417669 C 707.93991 34.417669 708.82073 34.818049 708.82073 38.180867 L 708.82073 40.502841 L 708.82073 78.615094 L 708.82073 80.93712 C 708.82073 84.299962 707.93991 84.700279 700.0131 84.700279 L 698.25153 84.700279 L 698.25153 88.463477 L 758.33897 88.463477 L 760.29621 67.085368 L 755.99031 67.085368 C 754.71801 72.690107 752.46724 77.654306 750.11848 79.976278 C 747.08482 83.179055 741.50665 84.700279 733.28622 84.700279 L 726.82733 84.700279 C 723.89152 84.700279 721.4449 84.219897 720.56415 83.499278 C 719.8791 83.018858 719.78122 82.538489 719.78122 80.857003 L 719.78122 60.439699 L 721.73851 60.439699 C 727.70814 60.439699 730.15461 60.920157 732.11189 62.601566 C 734.65631 64.683342 735.63489 67.245488 735.83069 71.96949 L 740.43019 71.96949 L 740.43019 45.707211 L 735.83069 45.707211 C 735.3413 53.553868 731.42683 56.676501 722.12998 56.676501 L 719.78122 56.676501 L 719.78122 38.421052 C 719.78122 34.978155 720.66204 34.417669 725.94654 34.417669 L 731.03539 34.417669 C 739.64726 34.417669 743.85532 35.138275 747.18268 37.380183 C 750.41211 39.461906 752.76078 43.945736 754.22876 51.151841 L 758.43681 51.151841 L 757.06679 30.654473 z M 627.20365 62.761737 L 638.26208 62.761737 C 647.06966 62.761737 651.66915 62.201237 655.58361 60.679948 C 662.53192 57.957618 666.4464 52.833301 666.4464 46.507894 C 666.4464 40.422787 663.0212 35.77884 656.56229 33.136564 C 652.74563 31.535208 646.6782 30.654473 639.92569 30.654473 L 605.67394 30.654473 L 605.67394 34.417669 L 607.43548 34.417669 C 615.36234 34.417669 616.24308 34.818049 616.24308 38.180867 L 616.24308 40.502841 L 616.24308 78.615094 L 616.24308 80.93712 C 616.24308 84.299962 615.36234 84.700279 607.43548 84.700279 L 605.67394 84.700279 L 605.67394 88.463477 L 638.5557 88.463477 L 638.5557 84.700279 L 636.01121 84.700279 C 628.08438 84.700279 627.20365 84.299962 627.20365 80.93712 L 627.20365 78.615094 L 627.20365 62.761737 z M 627.20365 58.99854 L 627.20365 38.501116 C 627.20365 34.818049 627.79079 34.417669 633.17327 34.417669 L 639.43642 34.417669 C 649.61406 34.417669 654.40929 38.340998 654.40929 46.828183 C 654.40929 55.075146 649.41834 58.99854 639.04496 58.99854 L 627.20365 58.99854 z M 542.06354 29.533536 L 537.95332 29.533536 L 515.44498 76.213055 C 513.48777 80.376569 513.09636 80.93712 511.62842 82.218187 C 510.0626 83.739465 507.32249 84.700279 504.6802 84.700279 L 504.28872 84.700279 L 504.28872 88.463477 L 530.22217 88.463477 L 530.22217 84.700279 L 528.26493 84.700279 C 522.9804 84.700279 520.33812 83.179055 520.33812 80.136449 C 520.33812 79.175595 520.63171 78.054648 521.21887 76.773554 L 524.44834 69.727582 L 550.38185 69.727582 L 555.66639 80.456687 C 556.25353 81.657752 556.44926 82.218187 556.44926 82.618477 C 556.44926 83.899608 554.00274 84.700279 550.38185 84.700279 L 546.27163 84.700279 L 546.27163 88.463477 L 576.60883 88.463477 L 576.60883 84.700279 L 575.23882 84.700279 C 570.34567 84.700279 569.2692 84.059779 567.01838 79.57595 L 542.06354 29.533536 z M 537.26827 42.664682 L 548.3267 65.403962 L 526.40555 65.403962 L 537.26827 42.664682 z M 469.74338 30.094036 L 466.02462 30.094036 L 462.11014 34.818049 C 455.1619 30.654473 451.3453 29.45347 444.78853 29.45347 C 435.29583 29.45347 427.46685 32.576128 420.81224 39.061603 C 414.54903 45.146776 411.61318 51.872447 411.61318 60.119474 C 411.61318 77.334055 425.41179 89.664463 444.69064 89.664463 C 460.3486 89.664463 470.33058 82.138096 472.58136 68.686725 L 467.9819 68.046159 C 467.00323 72.28974 465.82889 75.172212 464.06741 77.574239 C 460.055 83.098925 453.79183 85.901319 445.86502 85.901319 C 431.38135 85.901319 424.53099 77.654306 424.53099 60.439699 C 424.53099 51.392078 425.9989 45.306881 429.32625 40.502841 C 432.35997 36.019024 438.42731 33.216681 444.69064 33.216681 C 451.54104 33.216681 457.60847 36.179143 461.32726 41.303524 C 463.18661 43.945736 464.65454 47.068393 466.90542 53.233605 L 471.21132 53.233605 L 469.74338 30.094036 z M 371.78323 30.174102 L 368.16236 30.174102 L 364.24784 34.978155 C 359.64836 31.375089 353.38515 29.45347 346.43704 29.45347 C 333.61714 29.45347 325.00523 36.179143 325.00523 46.187645 C 325.00523 54.915026 330.28979 59.23871 344.67557 62.281303 L 353.97235 64.202922 C 361.21418 65.724185 361.89919 65.884331 363.95433 67.165436 C 366.8902 69.006962 368.45594 71.649264 368.45594 74.771883 C 368.45594 77.974529 366.98801 80.616831 364.0522 82.77866 C 360.82272 85.100635 357.59323 85.981372 352.21081 85.981372 C 344.96911 85.981372 339.78241 84.13978 335.18292 79.976278 C 331.07265 76.213055 329.01759 72.449871 327.54963 66.284685 L 323.34155 66.284685 L 323.73301 89.104013 L 327.54963 89.104013 L 331.95338 83.659398 C 338.51022 88.063107 343.99044 89.664463 352.5044 89.664463 C 366.8902 89.664463 376.08924 82.77866 376.08924 72.049554 C 376.08924 67.085368 374.03412 62.841738 370.21747 59.799158 C 367.57521 57.717435 363.75857 56.356251 355.92956 54.754895 L 345.45838 52.593052 C 336.74869 50.751512 332.63845 47.628855 332.63845 42.744734 C 332.63845 37.140024 338.21662 33.296683 346.53489 33.296683 C 353.38515 33.296683 358.9633 35.698775 362.87785 40.262643 C 365.71586 43.545406 367.47735 46.90825 368.74954 50.991698 L 372.95763 50.991698 L 371.78323 30.174102 z M 239.47361 62.281303 L 239.47361 40.502841 L 239.47361 38.180867 C 239.47361 34.818049 240.3544 34.417669 248.28122 34.417669 L 250.14062 34.417669 L 250.14062 30.654473 L 217.94391 30.654473 L 217.94391 34.417669 L 219.70543 34.417669 C 227.63229 34.417669 228.51301 34.818049 228.51301 38.180867 L 228.51301 40.502841 L 228.51301 78.615094 L 228.51301 80.93712 C 228.51301 84.299962 227.63229 84.700279 219.70543 84.700279 L 217.94391 84.700279 L 217.94391 88.463477 L 250.14062 88.463477 L 250.14062 84.700279 L 248.28122 84.700279 C 240.3544 84.700279 239.47361 84.299962 239.47361 80.93712 L 239.47361 78.615094 L 239.47361 68.446541 L 250.82565 59.078527 L 267.8537 79.495832 C 269.41945 81.417503 269.81091 82.058056 269.81091 82.858727 C 269.81091 84.13978 267.95157 84.700279 263.1563 84.700279 L 260.12254 84.700279 L 260.12254 88.463477 L 293.59142 88.463477 L 293.59142 84.700279 L 291.7321 84.700279 C 286.34966 84.700279 284.9796 84.13978 282.14157 80.696885 L 258.45887 52.753186 L 273.04035 40.823091 C 277.73778 36.739644 283.70735 34.417669 289.57914 34.417669 L 289.57914 30.654473 L 259.43755 30.654473 L 259.43755 34.417669 L 261.88409 34.417669 C 266.38573 34.417669 268.24512 35.138275 268.24512 36.819684 C 268.24512 37.94063 266.2879 40.262643 263.44989 42.584565 L 239.47361 62.281303 z M 130.06343 30.654473 L 109.90379 30.654473 L 109.90379 34.417669 L 112.35036 34.417669 C 117.34132 34.417669 119.59216 35.058209 121.35363 37.059867 L 121.35363 71.088764 C 121.35363 82.058056 119.39644 84.38003 110.00167 84.700279 L 110.00167 88.463477 L 137.89262 88.463477 L 137.89262 84.700279 C 128.59549 84.38003 126.63821 82.058056 126.63821 71.088764 L 126.63821 41.383577 L 170.28504 89.584479 L 174.39526 89.584479 L 174.39526 48.029184 C 174.39526 37.059867 176.35254 34.737984 185.74729 34.417669 L 185.74729 30.654473 L 157.85651 30.654473 L 157.85651 34.417669 C 167.15341 34.737984 169.11064 37.059867 169.11064 48.029184 L 169.11064 73.170501 L 130.06343 30.654473 z M 66.452985 40.502841 L 66.452985 38.180867 C 66.452985 34.818049 67.333726 34.417669 75.162697 34.417669 L 77.119955 34.417669 L 77.119955 30.654473 L 44.727561 30.654473 L 44.727561 34.417669 L 46.684817 34.417669 C 54.611599 34.417669 55.492408 34.818049 55.492408 38.180867 L 55.492408 40.502841 L 55.492408 78.615094 L 55.492408 80.93712 C 55.492408 84.299962 54.611599 84.700279 46.684817 84.700279 L 44.727561 84.700279 L 44.727561 88.463477 L 77.119955 88.463477 L 77.119955 84.700279 L 75.162697 84.700279 C 67.333726 84.700279 66.452985 84.299962 66.452985 80.93712 L 66.452985 78.615094 L 66.452985 40.502841 z "
     id="path4000" />
  <text
     xml:space="preserve"
     style="fill:#ffffff;fill-opacity:1;stroke:none;font-family:Nimbus Sans L;font-style:normal;font-weight:bold;font-size:11;stroke-opacity:1;stroke-width:1pt;stroke-linejoin:miter;stroke-linecap:butt;text-anchor:start;writing-mode:lr;"
     x="211.917099"
     y="342.888186"
     id="text4130"
     transform="scale(1.715513,1.715507)"
     sodipodi:linespacing="100%"><tspan
       x="211.917099"
       y="342.888184"
       sodipodi:role="line"
       id="tspan4270"
       style="fill:#ffffff;fill-opacity:1;">Jon Phillips . jon@rejon.org . www.rejon.org</tspan></text>
  <text
     xml:space="preserve"
     style="fill:#ffffff;fill-opacity:1;stroke:none;font-family:Nimbus Sans L;font-style:normal;font-weight:bold;font-size:11;stroke-opacity:1;stroke-width:1pt;stroke-linejoin:miter;stroke-linecap:butt;text-anchor:start;writing-mode:lr;"
     x="28.7008682"
     y="78.5576324"
     id="text4147"
     transform="scale(2.540608,2.540608)"
     sodipodi:linespacing="100%"><tspan
       x="28.7008686"
       y="78.5576324"
       sodipodi:role="line"
       id="tspan4148">Point Number One is about nothing.</tspan></text>
  <text
     xml:space="preserve"
     style="fill:#ffffff;fill-opacity:1;stroke:none;font-family:Nimbus Sans L;font-style:normal;font-weight:normal;font-size:10;stroke-opacity:1;stroke-width:1pt;stroke-linejoin:miter;stroke-linecap:butt;text-anchor:start;writing-mode:lr;"
     x="45.5287128"
     y="93.6054535"
     id="text4150"
     transform="scale(2.540608,2.540608)"
     sodipodi:linespacing="150%"><tspan
       x="45.5287132"
       y="93.6054535"
       sodipodi:role="line"
       id="tspan4188">Subpoint is this one in reference to number one.</tspan><tspan
       x="45.5287132"
       y="108.605453"
       sodipodi:role="line"
       id="tspan4190">Subpoint refers to point numero uno.</tspan></text>
  <path
     style="font-size:12;fill-rule:evenodd;stroke-width:1pt;fill:#ffffff;fill-opacity:0.214876;"
     d="M 60.365874 15.206693 C 57.236837 15.206693 54.123751 16.398331 51.726051 18.796031 L 9.0986891 61.423393 C 6.7426379 63.779399 5.5820656 66.829911 5.5411149 69.904396 C 5.5412592 69.910076 5.5408272 69.930474 5.5411149 69.93616 C 5.5406422 69.98007 5.5093508 70.019305 5.5093508 70.063216 L 5.636407 70.063216 C 6.3378519 73.170509 27.482528 77.139107 29.840617 79.497141 C 33.391627 83.048187 16.220442 85.634117 19.771412 89.185177 C 23.322428 92.736194 41.218371 96.052723 44.769723 99.603783 C 48.320739 103.1548 37.534036 106.94785 41.085093 110.49886 C 44.636109 114.04992 56.554644 109.6221 54.394232 118.88457 C 59.189638 123.67996 69.199447 121.39295 75.898497 116.59755 C 79.449519 113.04654 69.075749 113.35105 72.6268 109.80005 C 76.17781 106.24898 85.148936 106.22408 92.70167 97.729713 C 89.661624 93.001671 79.684945 90.989202 83.235991 87.438154 C 86.786996 83.887138 93.719106 85.690349 108.61545 78.925388 C 116.04025 75.553322 115.25414 73.033513 115.25414 69.904396 L 115.22238 69.904396 C 115.18148 66.829841 113.9891 63.779453 111.63304 61.423393 L 69.037461 18.796031 C 66.639761 16.398331 63.494911 15.206693 60.365874 15.206693 z M 83.839505 37.473296 L 84.855955 38.203869 C 85.076331 38.346777 85.298456 38.495515 85.491236 38.648566 C 85.684026 38.801584 85.866062 38.962951 86.031225 39.125027 C 86.196408 39.286812 86.338111 39.463832 86.475922 39.633251 C 86.613457 39.802642 86.747202 39.966158 86.85709 40.141476 C 86.916065 40.235446 86.964854 40.332024 87.01591 40.427353 L 83.839505 37.473296 z M 104.80377 93.949786 C 103.80869 93.917899 102.87522 94.026905 102.16735 94.203898 C 100.8328 94.537367 94.372792 94.707739 94.893387 98.873213 C 100.62113 100.95493 109.44867 102.53073 110.48953 98.364993 C 111.27083 95.241484 107.78901 94.045447 104.80377 93.949786 z M 34.764046 101.22375 C 33.886812 101.12152 32.998462 101.21349 32.159393 101.63668 C 28.803977 103.32923 26.547051 107.13305 29.681797 108.6883 C 32.816839 110.24355 35.033319 108.42641 37.781631 106.49658 C 40.530239 104.56706 40.457955 104.19163 40.259227 103.44724 C 39.878744 103.54872 37.395747 101.53045 34.764046 101.22375 z M 92.924019 103.12959 C 90.320548 104.17074 90.332644 107.79365 92.415794 109.35535 C 94.498384 110.91738 97.092446 109.88856 98.133318 108.84712 C 99.175036 107.80598 98.13035 104.17074 92.924019 103.12959 z "
     id="path4170" />
  <path
     style="font-size:12;fill:#ffffff;fill-opacity:0.28125;fill-rule:evenodd;stroke-width:1pt;"
     d="M -16.877466 576.21301 C -30.746824 576.21301 -38.890244 618.46897 -25.020886 618.46897 L 809.45404 620.50483 L 813.52575 571.61291 L -16.877466 576.21301 z "
     id="path4171"
     sodipodi:nodetypes="ccccc" />
  <path
     style="font-size:12;fill:#ffffff;fill-opacity:0.28125;fill-rule:evenodd;stroke-width:1pt;"
     d="M -13.937461 140.69389 C -29.034805 140.69389 -30.474372 155.49482 -15.377028 155.49482 L 813.48337 148.4082 L 816.81411 123.428 L -13.937461 140.69389 z "
     id="path4172"
     sodipodi:nodetypes="ccccc" />
  <path
     style="font-size:12;fill:#ffffff;fill-opacity:0.28125;fill-rule:evenodd;stroke-width:1pt;"
     d="M -15.455453 146.95697 C -29.324816 146.95697 -29.324811 165.7617 -15.455453 165.7617 L 809.45404 156.11082 L 810.19501 147.33972 L -15.455453 146.95697 z "
     id="path4183"
     sodipodi:nodetypes="ccccc" />
  <path
     style="font-size:12;fill:#ffffff;fill-opacity:0.28125;fill-rule:evenodd;stroke-width:1pt;"
     d="M -14.841611 583.15834 C -28.710974 583.15834 -28.710969 616.21406 -14.841611 616.21406 L 809.45404 618.24992 L 811.4899 592.28081 L -14.841611 583.15834 z "
     id="path4184"
     sodipodi:nodetypes="ccccc" />
  <text
     xml:space="preserve"
     style="fill:#ffffff;fill-opacity:1;stroke:none;font-family:Nimbus Sans L;font-style:normal;font-weight:bold;font-size:12;stroke-opacity:1;stroke-width:1pt;stroke-linejoin:miter;stroke-linecap:butt;text-anchor:start;writing-mode:lr;"
     x="66.3477173"
     y="70.5547842"
     id="text4185"
     transform="scale(1.715513,1.715507)"
     sodipodi:linespacing="100%"><tspan
       x="66.3477173"
       y="70.5547867"
       sodipodi:role="line"
       id="tspan4186">Open Source Scalable Vector Graphics Editor . www.inkscape.org</tspan></text>
  <text
     xml:space="preserve"
     style="fill:#ffffff;fill-opacity:1;stroke:none;font-family:Nimbus Sans L;font-style:normal;font-weight:bold;font-size:11;stroke-opacity:1;stroke-width:1pt;stroke-linejoin:miter;stroke-linecap:butt;text-anchor:start;writing-mode:lr;"
     x="28.7008686"
     y="181.573921"
     id="text4204"
     transform="scale(2.540608,2.540608)"
     sodipodi:linespacing="100%"><tspan
       x="28.7008686"
       y="181.573914"
       sodipodi:role="line"
       id="tspan4205">Point Number Two is this one.</tspan></text>
  <text
     xml:space="preserve"
     style="fill:#ffffff;fill-opacity:1;stroke:none;font-family:Nimbus Sans L;font-style:normal;font-weight:normal;font-size:10;stroke-opacity:1;stroke-width:1pt;stroke-linejoin:miter;stroke-linecap:butt;text-anchor:start;writing-mode:lr;"
     x="45.5287132"
     y="196.621742"
     id="text4207"
     transform="scale(2.540608,2.540608)"
     sodipodi:linespacing="150%"><tspan
       x="45.5287132"
       y="196.621735"
       sodipodi:role="line"
       id="tspan4208">Subpoint talks about two, but not one.</tspan><tspan
       x="45.5287132"
       y="211.621735"
       sodipodi:role="line"
       id="tspan4210">Subpoint thinks about two and one in a way.</tspan></text>
  <text
     xml:space="preserve"
     style="fill:#ffffff;fill-opacity:1;stroke:none;font-family:Nimbus Sans L;font-style:normal;font-weight:bold;font-size:11;stroke-opacity:1;stroke-width:1pt;stroke-linejoin:miter;stroke-linecap:butt;text-anchor:start;writing-mode:lr;"
     x="28.7008682"
     y="130.289063"
     id="text4212"
     transform="scale(2.540608,2.540608)"
     sodipodi:linespacing="100%"><tspan
       x="28.7008686"
       y="130.289063"
       sodipodi:role="line"
       id="tspan4213">Point Number Two is this one.</tspan></text>
  <text
     xml:space="preserve"
     style="fill:#ffffff;fill-opacity:1;stroke:none;font-family:Nimbus Sans L;font-style:normal;font-weight:normal;font-size:10;stroke-opacity:1;stroke-width:1pt;stroke-linejoin:miter;stroke-linecap:butt;text-anchor:start;writing-mode:lr;"
     x="45.5287128"
     y="145.336884"
     id="text4215"
     transform="scale(2.540608,2.540608)"
     sodipodi:linespacing="150%"><tspan
       x="45.5287132"
       y="145.336884"
       sodipodi:role="line"
       id="tspan4216">Subpoint talks about two, but not one.</tspan><tspan
       x="45.5287132"
       y="160.336884"
       sodipodi:role="line"
       id="tspan4218">Subpoint thinks about two and one in a way.</tspan></text>
</svg>
