<?xml version="1.0" encoding="UTF-8" standalone="no"?>
<!DOCTYPE svg PUBLIC "-//W3C//DTD SVG 20010904//EN"
"http://www.w3.org/TR/2001/REC-SVG-20010904/DTD/svg10.dtd">
<svg
   id="svg4005"
   sodipodi:version="0.32"
   inkscape:version="0.38cvs"
   width="640pt"
   height="480pt"
   sodipodi:docname="/usr/src/inkscape-project/inkscape/share/examples/default-slide.svg"
   xmlns="http://www.w3.org/2000/svg"
   xmlns:inkscape="http://www.inkscape.org/namespaces/inkscape"
   xmlns:sodipodi="http://sodipodi.sourceforge.net/DTD/sodipodi-0.dtd"
   xmlns:xml="http://www.w3.org/XML/1998/namespace"
   xmlns:xlink="http://www.w3.org/1999/xlink"
   sodipodi:docbase="/usr/src/inkscape-project/inkscape/share/examples">
  <defs
     id="defs4007" />
  <sodipodi:namedview
     id="base"
     pagecolor="#ffffff"
     bordercolor="#666666"
     borderopacity="1.0"
     inkscape:pageopacity="0.0"
     inkscape:pageshadow="2"
     inkscape:zoom="0.61399264"
     inkscape:cx="507.86093458"
     inkscape:cy="13.79913071"
     inkscape:window-width="1022"
     inkscape:window-height="740"
     inkscape:window-x="67"
     inkscape:window-y="116" />
  <rect
     style="font-size:12;fill:#0082ab;fill-rule:evenodd;stroke:none;stroke-width:2.05668pt;"
     id="rect3983"
     width="809.03658677"
     height="607.49723486"
     x="-2.87913237"
     y="1.14018638" />
  <path
     style="font-size:12;fill:#ffffff;fill-opacity:0.28125;fill-rule:evenodd;stroke-width:1pt;"
     d="M -6.9309667 4.717227 L -6.9309667 135.49412 L 813.35064 130.51124 L 813.35064 13.907581 L -6.9309667 4.717227 z "
     id="path4096"
     sodipodi:nodetypes="ccccc" />
  <path
     style="font-size:12;fill:#ffffff;fill-opacity:0.28125;fill-rule:evenodd;stroke-width:1pt;"
     d="M -84.060682 556.08606 C -97.93004 556.08606 -102.00175 611.53619 -88.132392 611.53619 L 813.52575 611.53619 L 811.48989 563.17268 L -84.060682 556.08606 z "
     id="path4024"
     sodipodi:nodetypes="ccccc" />
  <text
     xml:space="preserve"
     style="fill:#ffffff;fill-opacity:1;stroke:none;font-family:Nimbus Sans L;font-style:normal;font-weight:bold;font-size:11;stroke-opacity:1;stroke-width:1pt;stroke-linejoin:miter;stroke-linecap:butt;text-anchor:start;writing-mode:lr;"
     x="211.917099"
     y="342.888186"
     id="text4130"
     transform="scale(1.715513,1.715507)"
     sodipodi:linespacing="100%"><tspan
       x="211.91709900"
       y="342.88818359"
       sodipodi:role="line"
       id="tspan4270"
       style="fill:#ffffff;fill-opacity:1;">Jon Phillips . jon@rejon.org . www.rejon.org</tspan></text>
  <text
     xml:space="preserve"
     style="fill:#ffffff;fill-opacity:1;stroke:none;font-family:Nimbus Sans L;font-style:normal;font-weight:bold;font-size:11;stroke-opacity:1;stroke-width:1pt;stroke-linejoin:miter;stroke-linecap:butt;text-anchor:start;writing-mode:lr;"
     x="28.7008682"
     y="78.5576324"
     id="text4147"
     transform="scale(2.540608,2.540608)"
     sodipodi:linespacing="100%"><tspan
       x="28.70086861"
       y="78.55763245"
       sodipodi:role="line"
       id="tspan4148">Point Number One is about nothing.</tspan></text>
  <text
     xml:space="preserve"
     style="fill:#ffffff;fill-opacity:1;stroke:none;font-family:Nimbus Sans L;font-style:normal;font-weight:normal;font-size:10;stroke-opacity:1;stroke-width:1pt;stroke-linejoin:miter;stroke-linecap:butt;text-anchor:start;writing-mode:lr;"
     x="45.5287128"
     y="93.6054535"
     id="text4150"
     transform="scale(2.540608,2.540608)"
     sodipodi:linespacing="150%"><tspan
       x="45.52871323"
       y="93.60545349"
       sodipodi:role="line"
       id="tspan4188">Subpoint is this one in reference to number one.</tspan><tspan
       x="45.52871323"
       y="108.60545349"
       sodipodi:role="line"
       id="tspan4190">Subpoint refers to point numero uno.</tspan></text>
  <path
     style="font-size:12;fill-rule:evenodd;stroke-width:1pt;fill:#ffffff;fill-opacity:0.214876;"
     d="M 60.365874 15.206693 C 57.236837 15.206693 54.123751 16.398331 51.726051 18.796031 L 9.0986891 61.423393 C 6.7426379 63.779399 5.5820656 66.829911 5.5411149 69.904396 C 5.5412592 69.910076 5.5408272 69.930474 5.5411149 69.93616 C 5.5406422 69.98007 5.5093508 70.019305 5.5093508 70.063216 L 5.636407 70.063216 C 6.3378519 73.170509 27.482528 77.139107 29.840617 79.497141 C 33.391627 83.048187 16.220442 85.634117 19.771412 89.185177 C 23.322428 92.736194 41.218371 96.052723 44.769723 99.603783 C 48.320739 103.1548 37.534036 106.94785 41.085093 110.49886 C 44.636109 114.04992 56.554644 109.6221 54.394232 118.88457 C 59.189638 123.67996 69.199447 121.39295 75.898497 116.59755 C 79.449519 113.04654 69.075749 113.35105 72.6268 109.80005 C 76.17781 106.24898 85.148936 106.22408 92.70167 97.729713 C 89.661624 93.001671 79.684945 90.989202 83.235991 87.438154 C 86.786996 83.887138 93.719106 85.690349 108.61545 78.925388 C 116.04025 75.553322 115.25414 73.033513 115.25414 69.904396 L 115.22238 69.904396 C 115.18148 66.829841 113.9891 63.779453 111.63304 61.423393 L 69.037461 18.796031 C 66.639761 16.398331 63.494911 15.206693 60.365874 15.206693 z M 83.839505 37.473296 L 84.855955 38.203869 C 85.076331 38.346777 85.298456 38.495515 85.491236 38.648566 C 85.684026 38.801584 85.866062 38.962951 86.031225 39.125027 C 86.196408 39.286812 86.338111 39.463832 86.475922 39.633251 C 86.613457 39.802642 86.747202 39.966158 86.85709 40.141476 C 86.916065 40.235446 86.964854 40.332024 87.01591 40.427353 L 83.839505 37.473296 z M 104.80377 93.949786 C 103.80869 93.917899 102.87522 94.026905 102.16735 94.203898 C 100.8328 94.537367 94.372792 94.707739 94.893387 98.873213 C 100.62113 100.95493 109.44867 102.53073 110.48953 98.364993 C 111.27083 95.241484 107.78901 94.045447 104.80377 93.949786 z M 34.764046 101.22375 C 33.886812 101.12152 32.998462 101.21349 32.159393 101.63668 C 28.803977 103.32923 26.547051 107.13305 29.681797 108.6883 C 32.816839 110.24355 35.033319 108.42641 37.781631 106.49658 C 40.530239 104.56706 40.457955 104.19163 40.259227 103.44724 C 39.878744 103.54872 37.395747 101.53045 34.764046 101.22375 z M 92.924019 103.12959 C 90.320548 104.17074 90.332644 107.79365 92.415794 109.35535 C 94.498384 110.91738 97.092446 109.88856 98.133318 108.84712 C 99.175036 107.80598 98.13035 104.17074 92.924019 103.12959 z "
     id="path4170" />
  <path
     style="font-size:12;fill:#ffffff;fill-opacity:0.28125;fill-rule:evenodd;stroke-width:1pt;"
     d="M -16.877466 576.21301 C -30.746824 576.21301 -38.890244 618.46897 -25.020886 618.46897 L 809.45404 620.50483 L 813.52575 571.61291 L -16.877466 576.21301 z "
     id="path4171"
     sodipodi:nodetypes="ccccc" />
  <path
     style="font-size:12;fill:#ffffff;fill-opacity:0.28125;fill-rule:evenodd;stroke-width:1pt;"
     d="M -13.937461 140.69389 C -29.034805 140.69389 -30.474372 155.49482 -15.377028 155.49482 L 813.48337 148.4082 L 816.81411 123.428 L -13.937461 140.69389 z "
     id="path4172"
     sodipodi:nodetypes="ccccc" />
  <path
     style="font-size:12;fill:#ffffff;fill-opacity:0.28125;fill-rule:evenodd;stroke-width:1pt;"
     d="M -15.455453 146.95697 C -29.324816 146.95697 -29.324811 165.7617 -15.455453 165.7617 L 809.45404 156.11082 L 810.19501 147.33972 L -15.455453 146.95697 z "
     id="path4183"
     sodipodi:nodetypes="ccccc" />
  <path
     style="font-size:12;fill:#ffffff;fill-opacity:0.28125;fill-rule:evenodd;stroke-width:1pt;"
     d="M -14.841611 583.15834 C -28.710974 583.15834 -28.710969 616.21406 -14.841611 616.21406 L 809.45404 618.24992 L 811.4899 592.28081 L -14.841611 583.15834 z "
     id="path4184"
     sodipodi:nodetypes="ccccc" />
  <text
     xml:space="preserve"
     style="fill:#ffffff;fill-opacity:1;stroke:none;font-family:Nimbus Sans L;font-style:normal;font-weight:bold;font-size:12;stroke-opacity:1;stroke-width:1pt;stroke-linejoin:miter;stroke-linecap:butt;text-anchor:start;writing-mode:lr;"
     x="66.3477173"
     y="70.5547842"
     id="text4185"
     transform="scale(1.715513,1.715507)"
     sodipodi:linespacing="100%"><tspan
       x="66.34771729"
       y="70.55478668"
       sodipodi:role="line"
       id="tspan4186">Open Source Scalable Vector Graphics Editor . www.inkscape.org</tspan></text>
  <text
     xml:space="preserve"
     style="fill:#ffffff;fill-opacity:1;stroke:none;font-family:Nimbus Sans L;font-style:normal;font-weight:bold;font-size:11;stroke-opacity:1;stroke-width:1pt;stroke-linejoin:miter;stroke-linecap:butt;text-anchor:start;writing-mode:lr;"
     x="28.7008686"
     y="181.573921"
     id="text4204"
     transform="scale(2.540608,2.540608)"
     sodipodi:linespacing="100%"><tspan
       x="28.70086861"
       y="181.57391357"
       sodipodi:role="line"
       id="tspan4205">Point Number Two is this one.</tspan></text>
  <text
     xml:space="preserve"
     style="fill:#ffffff;fill-opacity:1;stroke:none;font-family:Nimbus Sans L;font-style:normal;font-weight:normal;font-size:10;stroke-opacity:1;stroke-width:1pt;stroke-linejoin:miter;stroke-linecap:butt;text-anchor:start;writing-mode:lr;"
     x="45.5287132"
     y="196.621742"
     id="text4207"
     transform="scale(2.540608,2.540608)"
     sodipodi:linespacing="150%"><tspan
       x="45.52871323"
       y="196.62173462"
       sodipodi:role="line"
       id="tspan4208">Subpoint talks about two, but not one.</tspan><tspan
       x="45.52871323"
       y="211.62173462"
       sodipodi:role="line"
       id="tspan4210">Subpoint thinks about two and one in a way.</tspan></text>
  <text
     xml:space="preserve"
     style="fill:#ffffff;fill-opacity:1;stroke:none;font-family:Nimbus Sans L;font-style:normal;font-weight:bold;font-size:11;stroke-opacity:1;stroke-width:1pt;stroke-linejoin:miter;stroke-linecap:butt;text-anchor:start;writing-mode:lr;"
     x="28.7008682"
     y="130.289063"
     id="text4212"
     transform="scale(2.540608,2.540608)"
     sodipodi:linespacing="100%"><tspan
       x="28.70086861"
       y="130.28906250"
       sodipodi:role="line"
       id="tspan4213">Point Number Two is this one.</tspan></text>
  <text
     xml:space="preserve"
     style="fill:#ffffff;fill-opacity:1;stroke:none;font-family:Nimbus Sans L;font-style:normal;font-weight:normal;font-size:10;stroke-opacity:1;stroke-width:1pt;stroke-linejoin:miter;stroke-linecap:butt;text-anchor:start;writing-mode:lr;"
     x="45.5287128"
     y="145.336884"
     id="text4215"
     transform="scale(2.540608,2.540608)"
     sodipodi:linespacing="150%"><tspan
       x="45.52871323"
       y="145.33688354"
       sodipodi:role="line"
       id="tspan4216">Subpoint talks about two, but not one.</tspan><tspan
       x="45.52871323"
       y="160.33688354"
       sodipodi:role="line"
       id="tspan4218">Subpoint thinks about two and one in a way.</tspan></text>
  <path
     style="font-size:40;font-weight:normal;fill:#000000;stroke-width:1pt;font-family:Century Schoolbook L;fill-opacity:0.5;"
     d="M 756.07168,28.788044 L 697.25638,28.788044 L 697.25638,32.551235 L 699.01798,32.551235 C 706.94478,32.551235 707.82558,32.951615 707.82558,36.314435 L 707.82558,38.636405 L 707.82558,76.748705 L 707.82558,79.070735 C 707.82558,82.433575 706.94478,82.833895 699.01798,82.833895 L 697.25638,82.833895 L 697.25638,86.597075 L 757.34388,86.597075 L 759.30108,65.218994 L 754.99518,65.218994 C 753.72288,70.823724 751.47208,75.787925 749.12338,78.109895 C 746.08968,81.312665 740.51158,82.833895 732.29108,82.833895 L 725.83218,82.833895 C 722.89638,82.833895 720.44978,82.353515 719.56908,81.632895 C 718.88398,81.152475 718.78608,80.672105 718.78608,78.990615 L 718.78608,58.573304 L 720.74338,58.573304 C 726.71298,58.573304 729.15948,59.053764 731.11678,60.735194 C 733.66118,62.816964 734.63978,65.379114 734.83558,70.103104 L 739.43508,70.103104 L 739.43508,43.840775 L 734.83558,43.840775 C 734.34618,51.687454 730.43168,54.810084 721.13488,54.810084 L 718.78608,54.810084 L 718.78608,36.554615 C 718.78608,33.111715 719.66688,32.551235 724.95138,32.551235 L 730.04028,32.551235 C 738.65218,32.551235 742.86018,33.271835 746.18758,35.513745 C 749.41698,37.595475 751.76568,42.079305 753.23368,49.285424 L 757.44168,49.285424 L 756.07168,28.788044 z M 626.20858,60.895364 L 637.26698,60.895364 C 646.07458,60.895364 650.67408,60.334864 654.58858,58.813554 C 661.53688,56.091204 665.45138,50.966884 665.45138,44.641475 C 665.45138,38.556355 662.02618,33.912405 655.56718,31.270135 C 651.75058,29.668785 645.68318,28.788044 638.93058,28.788044 L 604.67888,28.788044 L 604.67888,32.551235 L 606.44038,32.551235 C 614.36728,32.551235 615.24798,32.951615 615.24798,36.314435 L 615.24798,38.636405 L 615.24798,76.748705 L 615.24798,79.070735 C 615.24798,82.433575 614.36728,82.833895 606.44038,82.833895 L 604.67888,82.833895 L 604.67888,86.597075 L 637.56058,86.597075 L 637.56058,82.833895 L 635.01608,82.833895 C 627.08928,82.833895 626.20858,82.433575 626.20858,79.070735 L 626.20858,76.748705 L 626.20858,60.895364 z M 626.20858,57.132144 L 626.20858,36.634685 C 626.20858,32.951615 626.79568,32.551235 632.17818,32.551235 L 638.44138,32.551235 C 648.61898,32.551235 653.41418,36.474565 653.41418,44.961765 C 653.41418,53.208734 648.42328,57.132144 638.04988,57.132144 L 626.20858,57.132144 z M 541.06848,27.667114 L 536.95828,27.667114 L 514.44988,74.346665 C 512.49268,78.510185 512.10128,79.070735 510.63338,80.351805 C 509.06758,81.873075 506.32748,82.833895 503.68518,82.833895 L 503.29368,82.833895 L 503.29368,86.597075 L 529.22708,86.597075 L 529.22708,82.833895 L 527.26988,82.833895 C 521.98538,82.833895 519.34308,81.312665 519.34308,78.270065 C 519.34308,77.309205 519.63668,76.188265 520.22378,74.907165 L 523.45328,67.861204 L 549.38678,67.861204 L 554.67138,78.590305 C 555.25848,79.791365 555.45418,80.351805 555.45418,80.752095 C 555.45418,82.033225 553.00768,82.833895 549.38678,82.833895 L 545.27658,82.833895 L 545.27658,86.597075 L 575.61378,86.597075 L 575.61378,82.833895 L 574.24378,82.833895 C 569.35058,82.833895 568.27418,82.193395 566.02328,77.709565 L 541.06848,27.667114 z M 536.27318,40.798245 L 547.33168,63.537584 L 525.41048,63.537584 L 536.27318,40.798245 z M 468.74828,28.227614 L 465.02958,28.227614 L 461.11508,32.951615 C 454.16678,28.788044 450.35018,27.587044 443.79348,27.587044 C 434.30078,27.587044 426.47178,30.709705 419.81718,37.195165 C 413.55398,43.280345 410.61808,50.006034 410.61808,58.253074 C 410.61808,75.467665 424.41678,87.798055 443.69558,87.798055 C 459.35358,87.798055 469.33548,80.271715 471.58628,66.820344 L 466.98688,66.179784 C 466.00818,70.423354 464.83378,73.305825 463.07238,75.707855 C 459.05998,81.232535 452.79678,84.034915 444.86998,84.034915 C 430.38628,84.034915 423.53598,75.787925 423.53598,58.573304 C 423.53598,49.525664 425.00388,43.440445 428.33118,38.636405 C 431.36488,34.152585 437.43228,31.350255 443.69558,31.350255 C 450.54598,31.350255 456.61338,34.312705 460.33218,39.437085 C 462.19158,42.079305 463.65948,45.201975 465.91038,51.367184 L 470.21628,51.367184 L 468.74828,28.227614 z M 370.78818,28.307674 L 367.16728,28.307674 L 363.25278,33.111715 C 358.65328,29.508665 352.39008,27.587044 345.44198,27.587044 C 332.62208,27.587044 324.01018,34.312705 324.01018,44.321225 C 324.01018,53.048614 329.29478,57.372314 343.68058,60.414924 L 352.97728,62.336544 C 360.21918,63.857804 360.90418,64.017954 362.95928,65.299064 C 365.89518,67.140584 367.46088,69.782874 367.46088,72.905495 C 367.46088,76.108145 365.99298,78.750445 363.05718,80.912275 C 359.82768,83.234245 356.59818,84.114965 351.21578,84.114965 C 343.97408,84.114965 338.78738,82.273395 334.18788,78.109895 C 330.07758,74.346665 328.02258,70.583484 326.55458,64.418304 L 322.34648,64.418304 L 322.73798,87.237605 L 326.55458,87.237605 L 330.95838,81.793015 C 337.51518,86.196705 342.99538,87.798055 351.50938,87.798055 C 365.89518,87.798055 375.09418,80.912275 375.09418,70.183164 C 375.09418,65.218994 373.03908,60.975364 369.22248,57.932764 C 366.58018,55.851014 362.76358,54.489834 354.93448,52.888474 L 344.46338,50.726634 C 335.75368,48.885095 331.64338,45.762435 331.64338,40.878295 C 331.64338,35.273585 337.22158,31.430255 345.53988,31.430255 C 352.39008,31.430255 357.96828,33.832335 361.88278,38.396205 C 364.72078,41.678975 366.48228,45.041835 367.75448,49.125284 L 371.96258,49.125284 L 370.78818,28.307674 z M 238.47858,60.414924 L 238.47858,38.636405 L 238.47858,36.314435 C 238.47858,32.951615 239.35938,32.551235 247.28618,32.551235 L 249.14558,32.551235 L 249.14558,28.788044 L 216.94888,28.788044 L 216.94888,32.551235 L 218.71038,32.551235 C 226.63728,32.551235 227.51798,32.951615 227.51798,36.314435 L 227.51798,38.636405 L 227.51798,76.748705 L 227.51798,79.070735 C 227.51798,82.433575 226.63728,82.833895 218.71038,82.833895 L 216.94888,82.833895 L 216.94888,86.597075 L 249.14558,86.597075 L 249.14558,82.833895 L 247.28618,82.833895 C 239.35938,82.833895 238.47858,82.433575 238.47858,79.070735 L 238.47858,76.748705 L 238.47858,66.580164 L 249.83058,57.212134 L 266.85868,77.629445 C 268.42438,79.551115 268.81588,80.191675 268.81588,80.992345 C 268.81588,82.273395 266.95658,82.833895 262.16128,82.833895 L 259.12748,82.833895 L 259.12748,86.597075 L 292.59638,86.597075 L 292.59638,82.833895 L 290.73708,82.833895 C 285.35468,82.833895 283.98458,82.273395 281.14658,78.830495 L 257.46388,50.886774 L 272.04528,38.956655 C 276.74278,34.873205 282.71228,32.551235 288.58408,32.551235 L 288.58408,28.788044 L 258.44248,28.788044 L 258.44248,32.551235 L 260.88908,32.551235 C 265.39068,32.551235 267.25008,33.271835 267.25008,34.953245 C 267.25008,36.074195 265.29288,38.396205 262.45488,40.718125 L 238.47858,60.414924 z M 129.06838,28.788044 L 108.90878,28.788044 L 108.90878,32.551235 L 111.35528,32.551235 C 116.34628,32.551235 118.59718,33.191775 120.35858,35.193435 L 120.35858,69.222374 C 120.35858,80.191675 118.40138,82.513645 109.00668,82.833895 L 109.00668,86.597075 L 136.89758,86.597075 L 136.89758,82.833895 C 127.60048,82.513645 125.64318,80.191675 125.64318,69.222374 L 125.64318,39.517145 L 169.28998,87.718075 L 173.40018,87.718075 L 173.40018,46.162765 C 173.40018,35.193435 175.35748,32.871545 184.75218,32.551235 L 184.75218,28.788044 L 156.86148,28.788044 L 156.86148,32.551235 C 166.15838,32.871545 168.11558,35.193435 168.11558,46.162765 L 168.11558,71.304114 L 129.06838,28.788044 z M 65.457978,38.636405 L 65.457978,36.314435 C 65.457978,32.951615 66.338678,32.551235 74.167678,32.551235 L 76.124878,32.551235 L 76.124878,28.788044 L 43.732478,28.788044 L 43.732478,32.551235 L 45.689778,32.551235 C 53.616578,32.551235 54.497378,32.951615 54.497378,36.314435 L 54.497378,38.636405 L 54.497378,76.748705 L 54.497378,79.070735 C 54.497378,82.433575 53.616578,82.833895 45.689778,82.833895 L 43.732478,82.833895 L 43.732478,86.597075 L 76.124878,86.597075 L 76.124878,82.833895 L 74.167678,82.833895 C 66.338678,82.833895 65.457978,82.433575 65.457978,79.070735 L 65.457978,76.748705 L 65.457978,38.636405 z "
     id="path773" />
  <path
     style="font-size:40;font-weight:normal;fill:#ffffff;stroke-width:1pt;font-family:Century Schoolbook L;fill-opacity:1;"
     d="M 759.23678,30.451825 L 700.42148,30.451825 L 700.42148,34.215025 L 702.18308,34.215025 C 710.10988,34.215025 710.99068,34.615405 710.99068,37.978225 L 710.99068,40.300195 L 710.99068,78.412445 L 710.99068,80.734475 C 710.99068,84.097315 710.10988,84.497635 702.18308,84.497635 L 700.42148,84.497635 L 700.42148,88.260834 L 760.50898,88.260834 L 762.46618,66.882724 L 758.16028,66.882724 C 756.88798,72.487465 754.63718,77.451665 752.28848,79.773635 C 749.25478,82.976405 743.67658,84.497635 735.45618,84.497635 L 728.99728,84.497635 C 726.06148,84.497635 723.61488,84.017255 722.73408,83.296635 C 722.04908,82.816215 721.95118,82.335845 721.95118,80.654355 L 721.95118,60.237054 L 723.90848,60.237054 C 729.87808,60.237054 732.32458,60.717514 734.28188,62.398924 C 736.82628,64.480694 737.80488,67.042844 738.00068,71.766845 L 742.60018,71.766845 L 742.60018,45.504565 L 738.00068,45.504565 C 737.51128,53.351224 733.59678,56.473854 724.29998,56.473854 L 721.95118,56.473854 L 721.95118,38.218405 C 721.95118,34.775505 722.83198,34.215025 728.11648,34.215025 L 733.20538,34.215025 C 741.81728,34.215025 746.02528,34.935625 749.35268,37.177535 C 752.58208,39.259265 754.93078,43.743095 756.39878,50.949194 L 760.60678,50.949194 L 759.23678,30.451825 z M 629.37368,62.559094 L 640.43208,62.559094 C 649.23968,62.559094 653.83918,61.998594 657.75368,60.477304 C 664.70198,57.754974 668.61638,52.630654 668.61638,46.305245 C 668.61638,40.220145 665.19118,35.576195 658.73228,32.933915 C 654.91568,31.332565 648.84818,30.451825 642.09568,30.451825 L 607.84398,30.451825 L 607.84398,34.215025 L 609.60548,34.215025 C 617.53238,34.215025 618.41308,34.615405 618.41308,37.978225 L 618.41308,40.300195 L 618.41308,78.412445 L 618.41308,80.734475 C 618.41308,84.097315 617.53238,84.497635 609.60548,84.497635 L 607.84398,84.497635 L 607.84398,88.260834 L 640.72568,88.260834 L 640.72568,84.497635 L 638.18128,84.497635 C 630.25438,84.497635 629.37368,84.097315 629.37368,80.734475 L 629.37368,78.412445 L 629.37368,62.559094 z M 629.37368,58.795894 L 629.37368,38.298475 C 629.37368,34.615405 629.96078,34.215025 635.34328,34.215025 L 641.60648,34.215025 C 651.78408,34.215025 656.57928,38.138355 656.57928,46.625535 C 656.57928,54.872504 651.58838,58.795894 641.21498,58.795894 L 629.37368,58.795894 z M 544.23358,29.330895 L 540.12338,29.330895 L 517.61498,76.010405 C 515.65778,80.173925 515.26638,80.734475 513.79848,82.015545 C 512.23258,83.536815 509.49248,84.497635 506.85018,84.497635 L 506.45878,84.497635 L 506.45878,88.260834 L 532.39218,88.260834 L 532.39218,84.497635 L 530.43498,84.497635 C 525.15038,84.497635 522.50818,82.976405 522.50818,79.933805 C 522.50818,78.972945 522.80178,77.852005 523.38888,76.570905 L 526.61838,69.524934 L 552.55188,69.524934 L 557.83638,80.254045 C 558.42358,81.455105 558.61928,82.015545 558.61928,82.415835 C 558.61928,83.696965 556.17278,84.497635 552.55188,84.497635 L 548.44168,84.497635 L 548.44168,88.260834 L 578.77888,88.260834 L 578.77888,84.497635 L 577.40888,84.497635 C 572.51568,84.497635 571.43918,83.857135 569.18838,79.373305 L 544.23358,29.330895 z M 539.43828,42.462035 L 550.49668,65.201314 L 528.57558,65.201314 L 539.43828,42.462035 z M 471.91338,29.891395 L 468.19468,29.891395 L 464.28018,34.615405 C 457.33188,30.451825 453.51528,29.250825 446.95858,29.250825 C 437.46588,29.250825 429.63688,32.373485 422.98228,38.858955 C 416.71908,44.944135 413.78318,51.669804 413.78318,59.916824 C 413.78318,77.131405 427.58178,89.461814 446.86068,89.461814 C 462.51858,89.461814 472.50058,81.935455 474.75138,68.484074 L 470.15188,67.843514 C 469.17328,72.087095 467.99888,74.969565 466.23748,77.371595 C 462.22498,82.896275 455.96188,85.698675 448.03508,85.698675 C 433.55138,85.698675 426.70098,77.451665 426.70098,60.237054 C 426.70098,51.189434 428.16888,45.104235 431.49628,40.300195 C 434.52998,35.816375 440.59738,33.014035 446.86068,33.014035 C 453.71108,33.014035 459.77848,35.976495 463.49728,41.100875 C 465.35668,43.743095 466.82458,46.865745 469.07548,53.030954 L 473.38138,53.030954 L 471.91338,29.891395 z M 373.95328,29.971455 L 370.33238,29.971455 L 366.41788,34.775505 C 361.81838,31.172445 355.55518,29.250825 348.60708,29.250825 C 335.78718,29.250825 327.17528,35.976495 327.17528,45.984995 C 327.17528,54.712384 332.45978,59.036064 346.84558,62.078654 L 356.14238,64.000274 C 363.38418,65.521534 364.06918,65.681684 366.12438,66.962794 C 369.06018,68.804314 370.62598,71.446614 370.62598,74.569235 C 370.62598,77.771885 369.15808,80.414185 366.22218,82.576015 C 362.99278,84.897985 359.76328,85.778725 354.38088,85.778725 C 347.13918,85.778725 341.95248,83.937135 337.35298,79.773635 C 333.24268,76.010405 331.18758,72.247225 329.71968,66.082034 L 325.51158,66.082034 L 325.90308,88.901364 L 329.71968,88.901364 L 334.12338,83.456755 C 340.68028,87.860465 346.16048,89.461814 354.67438,89.461814 C 369.06018,89.461814 378.25928,82.576015 378.25928,71.846905 C 378.25928,66.882724 376.20418,62.639094 372.38748,59.596514 C 369.74528,57.514784 365.92858,56.153604 358.09958,54.552244 L 347.62838,52.390404 C 338.91868,50.548864 334.80848,47.426205 334.80848,42.542085 C 334.80848,36.937375 340.38668,33.094035 348.70488,33.094035 C 355.55518,33.094035 361.13328,35.496125 365.04788,40.059995 C 367.88588,43.342765 369.64738,46.705605 370.91958,50.789054 L 375.12768,50.789054 L 373.95328,29.971455 z M 241.64368,62.078654 L 241.64368,40.300195 L 241.64368,37.978225 C 241.64368,34.615405 242.52438,34.215025 250.45128,34.215025 L 252.31068,34.215025 L 252.31068,30.451825 L 220.11398,30.451825 L 220.11398,34.215025 L 221.87548,34.215025 C 229.80228,34.215025 230.68308,34.615405 230.68308,37.978225 L 230.68308,40.300195 L 230.68308,78.412445 L 230.68308,80.734475 C 230.68308,84.097315 229.80228,84.497635 221.87548,84.497635 L 220.11398,84.497635 L 220.11398,88.260834 L 252.31068,88.260834 L 252.31068,84.497635 L 250.45128,84.497635 C 242.52438,84.497635 241.64368,84.097315 241.64368,80.734475 L 241.64368,78.412445 L 241.64368,68.243894 L 252.99568,58.875884 L 270.02368,79.293185 C 271.58948,81.214855 271.98098,81.855415 271.98098,82.656085 C 271.98098,83.937135 270.12158,84.497635 265.32628,84.497635 L 262.29258,84.497635 L 262.29258,88.260834 L 295.76148,88.260834 L 295.76148,84.497635 L 293.90208,84.497635 C 288.51968,84.497635 287.14958,83.937135 284.31158,80.494235 L 260.62888,52.550544 L 275.21038,40.620445 C 279.90778,36.536995 285.87738,34.215025 291.74918,34.215025 L 291.74918,30.451825 L 261.60758,30.451825 L 261.60758,34.215025 L 264.05408,34.215025 C 268.55578,34.215025 270.41518,34.935625 270.41518,36.617035 C 270.41518,37.737985 268.45788,40.059995 265.61988,42.381915 L 241.64368,62.078654 z M 132.23348,30.451825 L 112.07378,30.451825 L 112.07378,34.215025 L 114.52038,34.215025 C 119.51138,34.215025 121.76218,34.855565 123.52368,36.857225 L 123.52368,70.886114 C 123.52368,81.855415 121.56648,84.177385 112.17168,84.497635 L 112.17168,88.260834 L 140.06268,88.260834 L 140.06268,84.497635 C 130.76548,84.177385 128.80828,81.855415 128.80828,70.886114 L 128.80828,41.180935 L 172.45508,89.381834 L 176.56528,89.381834 L 176.56528,47.826535 C 176.56528,36.857225 178.52258,34.535335 187.91728,34.215025 L 187.91728,30.451825 L 160.02658,30.451825 L 160.02658,34.215025 C 169.32348,34.535335 171.28068,36.857225 171.28068,47.826535 L 171.28068,72.967855 L 132.23348,30.451825 z M 68.622978,40.300195 L 68.622978,37.978225 C 68.622978,34.615405 69.503778,34.215025 77.332678,34.215025 L 79.289978,34.215025 L 79.289978,30.451825 L 46.897578,30.451825 L 46.897578,34.215025 L 48.854878,34.215025 C 56.781578,34.215025 57.662378,34.615405 57.662378,37.978225 L 57.662378,40.300195 L 57.662378,78.412445 L 57.662378,80.734475 C 57.662378,84.097315 56.781578,84.497635 48.854878,84.497635 L 46.897578,84.497635 L 46.897578,88.260834 L 79.289978,88.260834 L 79.289978,84.497635 L 77.332678,84.497635 C 69.503778,84.497635 68.622978,84.097315 68.622978,80.734475 L 68.622978,78.412445 L 68.622978,40.300195 z "
     id="path780" />
</svg>
