<?xml version="1.0" encoding="UTF-8" standalone="no"?>
<!DOCTYPE svg PUBLIC "-//W3C//DTD SVG 20010904//EN"
"http://www.w3.org/TR/2001/REC-SVG-20010904/DTD/svg10.dtd">
<!-- Created with Inkscape (http://www.inkscape.org/) -->
<svg
   id="svg586"
   sodipodi:version="0.32"
   inkscape:version="0.37"
   width="640pt"
   height="480pt"
   sodipodi:docname="intro.svg"
   xmlns="http://www.w3.org/2000/svg"
   xmlns:inkscape="http://www.inkscape.org/namespaces/inkscape"
   xmlns:sodipodi="http://sodipodi.sourceforge.net/DTD/sodipodi-0.dtd"
   xmlns:xml="http://www.w3.org/XML/1998/namespace"
   xmlns:xlink="http://www.w3.org/1999/xlink"
   sodipodi:docbase="/home/phillipsjd/temp/inkscape-project/inkscape/share/examples">
  <defs
     id="defs588" />
  <sodipodi:namedview
     id="base"
     pagecolor="#ffffff"
     bordercolor="#666666"
     borderopacity="1.0"
     inkscape:pageopacity="0.0"
     inkscape:pageshadow="2"
     inkscape:zoom="0.86831672"
     inkscape:cx="369.448869"
     inkscape:cy="296.545227"
     inkscape:window-width="1022"
     inkscape:window-height="740"
     inkscape:window-x="0"
     inkscape:window-y="5" />
  <rect
     style="font-size:12;fill:#0082ab;fill-rule:evenodd;stroke:none;stroke-width:2.05668pt;"
     id="rect3983"
     width="809.03658677"
     height="607.49723486"
     x="-2.87913237"
     y="1.14018638" />
  <path
     style="fill:#ffffff;fill-rule:evenodd;stroke:black;stroke-opacity:1;stroke-width:1pt;stroke-linejoin:miter;stroke-linecap:butt;fill-opacity:1;"
     d="M 427.55137 346.63623 L 302.30905 306.32835 L 270.63858 137.89903 L 371.40826 35.689778 L 423.23267 54.404148 L 519.68365 149.41556 L 427.55137 346.63623 z "
     id="path727" />
  <rect
     style="font-size:12;fill:#ffffff;fill-opacity:0.28125;fill-rule:evenodd;stroke-width:1pt;"
     id="rect4004"
     width="881.01494795"
     height="394.44131470"
     x="-28.56889523"
     y="101.90985870"
     ry="0" />
  <path
     style="font-size:12;fill:#ffffff;fill-opacity:0.28125;fill-rule:evenodd;stroke-width:1pt;"
     d="M -84.060682 556.08606 C -97.93004 556.08606 -102.00175 611.53619 -88.132392 611.53619 L 813.52575 611.53619 L 811.48989 563.17268 L -84.060682 556.08606 z "
     id="path4024"
     sodipodi:nodetypes="ccccc" />
  <path
     style="font-size:12;fill:#ffffff;fill-opacity:0.28125;fill-rule:evenodd;stroke-width:1pt;"
     d="M -16.877466 576.21301 C -30.746824 576.21301 -38.890244 618.46897 -25.020886 618.46897 L 809.45404 620.50483 L 813.52575 571.61291 L -16.877466 576.21301 z "
     id="path4171"
     sodipodi:nodetypes="ccccc" />
  <path
     style="font-size:12;fill:#ffffff;fill-opacity:0.28125;fill-rule:evenodd;stroke-width:1pt;"
     d="M -14.841611 583.15834 C -28.710974 583.15834 -28.710969 616.21406 -14.841611 616.21406 L 809.45404 618.24992 L 811.4899 592.28081 L -14.841611 583.15834 z "
     id="path4184"
     sodipodi:nodetypes="ccccc" />
  <path
     style="font-size:12;fill:#ffffff;fill-opacity:0.28125;fill-rule:evenodd;stroke-width:1pt;"
     d="M -10.740256 19.373125 C -26.093523 19.628321 -27.791284 3.545086 -12.438017 3.2898903 L 830.58502 -3.008414 L 834.36679 24.120757 L -10.740256 19.373125 z "
     id="path4172"
     sodipodi:nodetypes="ccccc" />
  <path
     style="font-size:12;fill:#ffffff;fill-opacity:0.28125;fill-rule:evenodd;stroke-width:1pt;"
     d="M -12.382907 12.582795 C -26.487377 12.817234 -26.784407 -7.6475964 -12.679936 -7.8820348 L 826.36572 -11.322919 L 827.2578 -1.7900222 L -12.382907 12.582795 z "
     id="path4183"
     sodipodi:nodetypes="ccccc" />
  <path
     style="font-size:40;font-weight:normal;fill:#ffffff;stroke-width:1pt;font-family:Century Schoolbook L;fill-opacity:1;"
     d="M 757.06679 456.76627 L 698.25153 456.76627 L 698.25153 460.52947 L 700.0131 460.52947 C 707.93991 460.52947 708.82073 460.92985 708.82073 464.29267 L 708.82073 466.61464 L 708.82073 504.72689 L 708.82073 507.04892 C 708.82073 510.41176 707.93991 510.81208 700.0131 510.81208 L 698.25153 510.81208 L 698.25153 514.57528 L 758.33897 514.57528 L 760.29621 493.19717 L 755.99031 493.19717 C 754.71801 498.80191 752.46724 503.76611 750.11848 506.08808 C 747.08482 509.29085 741.50665 510.81208 733.28622 510.81208 L 726.82733 510.81208 C 723.89152 510.81208 721.4449 510.3317 720.56415 509.61108 C 719.8791 509.13066 719.78122 508.65029 719.78122 506.9688 L 719.78122 486.5515 L 721.73851 486.5515 C 727.70814 486.5515 730.15461 487.03196 732.11189 488.71337 C 734.65631 490.79514 735.63489 493.35729 735.83069 498.08129 L 740.43019 498.08129 L 740.43019 471.81901 L 735.83069 471.81901 C 735.3413 479.66567 731.42683 482.7883 722.12998 482.7883 L 719.78122 482.7883 L 719.78122 464.53285 C 719.78122 461.08995 720.66204 460.52947 725.94654 460.52947 L 731.03539 460.52947 C 739.64726 460.52947 743.85532 461.25007 747.18268 463.49198 C 750.41211 465.57371 752.76078 470.05754 754.22876 477.26364 L 758.43681 477.26364 L 757.06679 456.76627 z M 627.20365 488.87354 L 638.26208 488.87354 C 647.06966 488.87354 651.66915 488.31304 655.58361 486.79175 C 662.53192 484.06942 666.4464 478.9451 666.4464 472.61969 C 666.4464 466.53459 663.0212 461.89064 656.56229 459.24836 C 652.74563 457.64701 646.6782 456.76627 639.92569 456.76627 L 605.67394 456.76627 L 605.67394 460.52947 L 607.43548 460.52947 C 615.36234 460.52947 616.24308 460.92985 616.24308 464.29267 L 616.24308 466.61464 L 616.24308 504.72689 L 616.24308 507.04892 C 616.24308 510.41176 615.36234 510.81208 607.43548 510.81208 L 605.67394 510.81208 L 605.67394 514.57528 L 638.5557 514.57528 L 638.5557 510.81208 L 636.01121 510.81208 C 628.08438 510.81208 627.20365 510.41176 627.20365 507.04892 L 627.20365 504.72689 L 627.20365 488.87354 z M 627.20365 485.11034 L 627.20365 464.61292 C 627.20365 460.92985 627.79079 460.52947 633.17327 460.52947 L 639.43642 460.52947 C 649.61406 460.52947 654.40929 464.4528 654.40929 472.93998 C 654.40929 481.18695 649.41834 485.11034 639.04496 485.11034 L 627.20365 485.11034 z M 542.06354 455.64534 L 537.95332 455.64534 L 515.44498 502.32485 C 513.48777 506.48837 513.09636 507.04892 511.62842 508.32999 C 510.0626 509.85126 507.32249 510.81208 504.6802 510.81208 L 504.28872 510.81208 L 504.28872 514.57528 L 530.22217 514.57528 L 530.22217 510.81208 L 528.26493 510.81208 C 522.9804 510.81208 520.33812 509.29085 520.33812 506.24825 C 520.33812 505.28739 520.63171 504.16645 521.21887 502.88535 L 524.44834 495.83938 L 550.38185 495.83938 L 555.66639 506.56849 C 556.25353 507.76955 556.44926 508.32999 556.44926 508.73028 C 556.44926 510.01141 554.00274 510.81208 550.38185 510.81208 L 546.27163 510.81208 L 546.27163 514.57528 L 576.60883 514.57528 L 576.60883 510.81208 L 575.23882 510.81208 C 570.34567 510.81208 569.2692 510.17158 567.01838 505.68775 L 542.06354 455.64534 z M 537.26827 468.77648 L 548.3267 491.51576 L 526.40555 491.51576 L 537.26827 468.77648 z M 469.74338 456.20584 L 466.02462 456.20584 L 462.11014 460.92985 C 455.1619 456.76627 451.3453 455.56527 444.78853 455.56527 C 435.29583 455.56527 427.46685 458.68793 420.81224 465.1734 C 414.54903 471.25858 411.61318 477.98425 411.61318 486.23127 C 411.61318 503.44585 425.41179 515.77626 444.69064 515.77626 C 460.3486 515.77626 470.33058 508.2499 472.58136 494.79852 L 467.9819 494.15796 C 467.00323 498.40154 465.82889 501.28401 464.06741 503.68604 C 460.055 509.21072 453.79183 512.01312 445.86502 512.01312 C 431.38135 512.01312 424.53099 503.76611 424.53099 486.5515 C 424.53099 477.50388 425.9989 471.41868 429.32625 466.61464 C 432.35997 462.13082 438.42731 459.32848 444.69064 459.32848 C 451.54104 459.32848 457.60847 462.29094 461.32726 467.41532 C 463.18661 470.05754 464.65454 473.18019 466.90542 479.3454 L 471.21132 479.3454 L 469.74338 456.20584 z M 371.78323 456.2859 L 368.16236 456.2859 L 364.24784 461.08995 C 359.64836 457.48689 353.38515 455.56527 346.43704 455.56527 C 333.61714 455.56527 325.00523 462.29094 325.00523 472.29944 C 325.00523 481.02683 330.28979 485.35051 344.67557 488.3931 L 353.97235 490.31472 C 361.21418 491.83598 361.89919 491.99613 363.95433 493.27724 C 366.8902 495.11876 368.45594 497.76106 368.45594 500.88368 C 368.45594 504.08633 366.98801 506.72863 364.0522 508.89046 C 360.82272 511.21243 357.59323 512.09317 352.21081 512.09317 C 344.96911 512.09317 339.78241 510.25158 335.18292 506.08808 C 331.07265 502.32485 329.01759 498.56167 327.54963 492.39648 L 323.34155 492.39648 L 323.73301 515.21581 L 327.54963 515.21581 L 331.95338 509.7712 C 338.51022 514.17491 343.99044 515.77626 352.5044 515.77626 C 366.8902 515.77626 376.08924 508.89046 376.08924 498.16135 C 376.08924 493.19717 374.03412 488.95354 370.21747 485.91096 C 367.57521 483.82923 363.75857 482.46805 355.92956 480.86669 L 345.45838 478.70485 C 336.74869 476.86331 332.63845 473.74065 332.63845 468.85653 C 332.63845 463.25182 338.21662 459.40848 346.53489 459.40848 C 353.38515 459.40848 358.9633 461.81057 362.87785 466.37444 C 365.71586 469.65721 367.47735 473.02005 368.74954 477.1035 L 372.95763 477.1035 L 371.78323 456.2859 z M 239.47361 488.3931 L 239.47361 466.61464 L 239.47361 464.29267 C 239.47361 460.92985 240.3544 460.52947 248.28122 460.52947 L 250.14062 460.52947 L 250.14062 456.76627 L 217.94391 456.76627 L 217.94391 460.52947 L 219.70543 460.52947 C 227.63229 460.52947 228.51301 460.92985 228.51301 464.29267 L 228.51301 466.61464 L 228.51301 504.72689 L 228.51301 507.04892 C 228.51301 510.41176 227.63229 510.81208 219.70543 510.81208 L 217.94391 510.81208 L 217.94391 514.57528 L 250.14062 514.57528 L 250.14062 510.81208 L 248.28122 510.81208 C 240.3544 510.81208 239.47361 510.41176 239.47361 507.04892 L 239.47361 504.72689 L 239.47361 494.55834 L 250.82565 485.19033 L 267.8537 505.60763 C 269.41945 507.5293 269.81091 508.16986 269.81091 508.97053 C 269.81091 510.25158 267.95157 510.81208 263.1563 510.81208 L 260.12254 510.81208 L 260.12254 514.57528 L 293.59142 514.57528 L 293.59142 510.81208 L 291.7321 510.81208 C 286.34966 510.81208 284.9796 510.25158 282.14157 506.80868 L 258.45887 478.86499 L 273.04035 466.93489 C 277.73778 462.85144 283.70735 460.52947 289.57914 460.52947 L 289.57914 456.76627 L 259.43755 456.76627 L 259.43755 460.52947 L 261.88409 460.52947 C 266.38573 460.52947 268.24512 461.25007 268.24512 462.93148 C 268.24512 464.05243 266.2879 466.37444 263.44989 468.69636 L 239.47361 488.3931 z M 130.06343 456.76627 L 109.90379 456.76627 L 109.90379 460.52947 L 112.35036 460.52947 C 117.34132 460.52947 119.59216 461.17001 121.35363 463.17167 L 121.35363 497.20056 C 121.35363 508.16986 119.39644 510.49183 110.00167 510.81208 L 110.00167 514.57528 L 137.89262 514.57528 L 137.89262 510.81208 C 128.59549 510.49183 126.63821 508.16986 126.63821 497.20056 L 126.63821 467.49538 L 170.28504 515.69628 L 174.39526 515.69628 L 174.39526 474.14098 C 174.39526 463.17167 176.35254 460.84978 185.74729 460.52947 L 185.74729 456.76627 L 157.85651 456.76627 L 157.85651 460.52947 C 167.15341 460.84978 169.11064 463.17167 169.11064 474.14098 L 169.11064 499.2823 L 130.06343 456.76627 z M 66.452985 466.61464 L 66.452985 464.29267 C 66.452985 460.92985 67.333726 460.52947 75.162697 460.52947 L 77.119955 460.52947 L 77.119955 456.76627 L 44.727561 456.76627 L 44.727561 460.52947 L 46.684817 460.52947 C 54.611599 460.52947 55.492408 460.92985 55.492408 464.29267 L 55.492408 466.61464 L 55.492408 504.72689 L 55.492408 507.04892 C 55.492408 510.41176 54.611599 510.81208 46.684817 510.81208 L 44.727561 510.81208 L 44.727561 514.57528 L 77.119955 514.57528 L 77.119955 510.81208 L 75.162697 510.81208 C 67.333726 510.81208 66.452985 510.41176 66.452985 507.04892 L 66.452985 504.72689 L 66.452985 466.61464 z "
     id="path4235" />
  <text
     xml:space="preserve"
     style="fill:#ffffff;fill-opacity:1;stroke:none;font-family:Nimbus Sans L;font-style:normal;font-weight:bold;font-size:12;stroke-opacity:1;stroke-width:1pt;stroke-linejoin:miter;stroke-linecap:butt;text-anchor:start;writing-mode:lr;"
     x="47.3599968"
     y="319.821775"
     id="text4185"
     transform="scale(1.715513,1.715507)"
     sodipodi:linespacing="100%"><tspan
       x="47.3599968"
       y="319.821777"
       sodipodi:role="line"
       id="tspan4186">Open Source Scalable Vector Graphics Editor . www.inkscape.org</tspan></text>
  <path
     style="font-size:12;fill:#ffffff;fill-opacity:0.28125;fill-rule:evenodd;stroke-width:1pt;"
     d="M -13.937461 80.457638 C -29.034805 80.457638 -30.474372 95.258556 -15.377028 95.258556 L 813.48337 88.171942 L 816.81411 63.191763 L -13.937461 80.457638 z "
     id="path4264"
     sodipodi:nodetypes="ccccc"
     transform="translate(0.000000,2.879134)" />
  <path
     style="font-size:12;fill:#ffffff;fill-opacity:0.28125;fill-rule:evenodd;stroke-width:1pt;"
     d="M -15.455453 100.22977 C -29.324816 100.22977 -29.324811 119.03449 -15.455453 119.03449 L 809.45404 109.38362 L 810.19501 100.61252 L -15.455453 100.22977 z "
     id="path4265"
     sodipodi:nodetypes="ccccc" />
  <path
     style="font-size:12;fill:#ffffff;fill-opacity:0.28125;fill-rule:evenodd;stroke-width:1pt;"
     d="M -10.740256 524.77194 C -26.093523 524.98567 -27.791284 511.51536 -12.438017 511.30162 L 830.58502 506.02656 L 834.36679 528.74826 L -10.740256 524.77194 z "
     id="path4266"
     sodipodi:nodetypes="ccccc" />
  <path
     style="font-size:12;fill:#ffffff;fill-opacity:0.28125;fill-rule:evenodd;stroke-width:1pt;"
     d="M -12.382907 519.08478 C -26.487377 519.28113 -26.784407 502.14107 -12.679936 501.94472 L 826.36572 499.06285 L 827.2578 507.04701 L -12.382907 519.08478 z "
     id="path4267"
     sodipodi:nodetypes="ccccc" />
  <path
     style="font-size:12;fill:#ffffff;fill-opacity:0.28125;fill-rule:evenodd;stroke-width:1pt;"
     d="M -10.740256 43.177509 C -26.093523 43.391245 -27.791284 29.92093 -12.438017 29.707194 L 830.58502 24.432127 L 834.36679 47.15383 L -10.740256 43.177509 z "
     id="path4268"
     sodipodi:nodetypes="ccccc"
     transform="translate(0.000000,31.67047)" />
  <path
     style="font-size:12;fill:#ffffff;fill-opacity:0.28125;fill-rule:evenodd;stroke-width:1pt;"
     d="M -12.382907 37.490352 C -26.487377 37.686703 -26.784407 20.546637 -12.679936 20.350286 L 826.36572 17.468416 L 827.2578 25.452576 L -12.382907 37.490352 z "
     id="path4269"
     sodipodi:nodetypes="ccccc"
     transform="translate(0.000000,31.67047)" />
  <path
     style="font-size:12;fill-rule:evenodd;stroke-width:1pt;fill:#000000;fill-opacity:1;"
     d="M 446.7807 326.72951 C 463.67321 330.10765 467.05318 341.93303 463.67321 345.31117 C 460.29597 348.69019 451.84967 352.06833 445.09245 347.00016 C 438.33345 341.93303 438.33345 330.10765 446.7807 326.72951 z "
     id="path580"
     transform="matrix(1.190291,0.000000,0.000000,1.190291,-19.52718,-22.05891)" />
  <path
     style="font-size:12;fill-rule:evenodd;stroke-width:1pt;fill:#000000;fill-opacity:1;"
     d="M 275.83162 327.85795 C 274.18559 328.29696 260.43431 316.44695 249.54452 321.93936 C 238.65751 327.43099 231.34876 339.72818 241.51978 344.77435 C 251.69175 349.82052 258.96284 344.00157 267.88002 337.74005 C 276.79818 331.47948 276.47641 330.27324 275.83162 327.85795 z "
     id="path582"
     transform="matrix(1.190291,0.000000,0.000000,1.190291,-19.52718,-22.05891)" />
  <path
     style="font-size:12;fill-rule:evenodd;stroke-width:1pt;fill:#000000;fill-opacity:1;"
     d="M 476.75319 297.79488 C 485.9401 295.49777 507.16192 297.79488 503.78195 311.30758 C 500.40476 324.8238 471.68779 319.75374 453.10352 312.99935 C 451.41437 299.48402 472.42311 298.87685 476.75319 297.79488 z "
     id="path583"
     transform="matrix(1.190291,0.000000,0.000000,1.190291,-19.52718,-22.05891)" />
  <text
     xml:space="preserve"
     style="font-size:12;font-weight:normal;stroke-width:1pt;font-family:helvetica;fill:#000000;fill-opacity:1;"
     x="587.931478"
     y="80.9117502"
     id="text3984"
     transform="matrix(6.235698,0.000000,0.000000,6.235698,-19.52718,-22.05891)"><tspan
       id="tspan3985"
       style="fill:#000000;fill-opacity:1;"></tspan></text>
  <text
     xml:space="preserve"
     style="font-size:12;font-weight:normal;stroke-width:1pt;font-family:helvetica;fill:#000000;fill-opacity:1;"
     x="-100.181543"
     y="-254.207917"
     id="text3990"
     transform="matrix(6.235698,0.000000,0.000000,6.235698,-19.52718,-22.05891)"><tspan
       id="tspan3991"
       style="fill:#000000;fill-opacity:1;"></tspan></text>
  <path
     style="font-size:12;fill-rule:evenodd;stroke-width:1pt;fill:#000000;fill-opacity:1;"
     d="M 386.531250 27.375000 C 374.446830 27.375000 362.384980 31.990024 353.125000 41.250000 L 188.531250 205.812500 C 179.455250 214.888330 174.899180 226.687950 174.718750 238.531250 L 174.656250 238.531250 C 174.656250 238.573420 174.716700 238.613990 174.718750 238.656250 C 174.716240 238.855020 174.656250 239.051220 174.656250 239.250000 L 174.937500 239.250000 C 178.087620 251.235250 259.481410 266.512850 268.562500 275.593750 C 282.276600 289.307970 215.973570 299.379470 229.687500 313.093750 C 243.401600 326.807850 312.565850 339.629440 326.281250 353.343750 C 339.995370 367.057850 298.254470 381.660900 311.968750 395.375000 C 325.682850 409.089290 371.749820 391.946870 363.406250 427.718750 C 381.926210 446.238710 420.565570 437.394970 446.437500 418.875000 C 460.151600 405.160900 420.129530 406.370380 433.843750 392.656250 C 447.557850 378.941970 482.174860 378.868010 511.343750 346.062500 C 499.602990 327.802700 461.160770 320.026730 474.875000 306.312500 C 488.589100 292.598400 515.251130 299.563960 572.781250 273.437500 C 600.865090 260.682880 598.545050 250.995360 598.437500 239.250000 C 598.435240 239.002850 598.437500 238.780300 598.437500 238.531250 L 598.375000 238.531250 C 598.194630 226.687940 593.607070 214.888320 584.531250 205.812500 L 419.968750 41.250000 C 410.708770 31.990024 398.615670 27.375000 386.531250 27.375000 z M 385.125000 48.781250 C 390.497280 48.921198 394.836270 53.016564 403.343750 58.531250 L 481.093750 116.187500 C 481.944870 116.739430 482.755470 117.315180 483.500000 117.906250 C 484.244550 118.497220 484.924630 119.124050 485.562500 119.750000 C 486.200410 120.374820 486.780240 121.001950 487.312500 121.656250 C 487.843660 122.310430 488.325600 122.979180 488.750000 123.656250 C 489.175590 124.334440 489.556190 125.023290 489.875000 125.718750 C 490.194020 126.415460 490.444120 127.134070 490.656250 127.843750 C 490.869620 128.552380 491.049670 129.252580 491.156250 129.968750 C 491.262950 130.686160 491.312500 131.405590 491.312500 132.125000 L 445.250000 109.875000 L 440.656250 144.656250 L 415.312500 132.781250 L 376.187500 158.906250 L 361.218750 107.281250 L 341.937500 152.437500 L 288.093750 157.812500 L 288.687500 133.843750 C 288.687500 128.086700 319.725170 87.782735 338.625000 78.187500 L 373.218750 53.343750 C 378.323170 50.034934 381.901630 48.697281 385.125000 48.781250 z M 313.562500 284.000000 C 338.070350 290.355840 365.341940 298.694650 387.218750 298.843750 L 388.156250 308.687500 C 369.422840 306.756510 329.783570 297.711670 320.437500 292.937500 L 313.562500 284.000000 z "
     id="path706" />
</svg>
