<?xml version="1.0" encoding="UTF-8" standalone="no"?>
<!DOCTYPE svg PUBLIC "-//W3C//DTD SVG 1.0//EN"
"http://www.w3.org/TR/2001/REC-SVG-20010904/DTD/svg10.dtd">
<!-- Created with Inkscape (http://www.inkscape.org/) -->
<svg
   id="svg586"
   sodipodi:version="0.32"
   inkscape:version="0.37"
   xmlns="http://www.w3.org/2000/svg"
   xmlns:sodipodi="http://sodipodi.sourceforge.net/DTD/sodipodi-0.dtd"
   xmlns:inkscape="http://www.inkscape.org/namespaces/inkscape"
   xmlns:xlink="http://www.w3.org/1999/xlink"
   width="640pt"
   height="480pt"
   sodipodi:docbase="/home/phillipsjd"
   sodipodi:docname="intro.svg">
  <defs
     id="defs588" />
  <sodipodi:namedview
     id="base"
     pagecolor="#ffffff"
     bordercolor="#666666"
     borderopacity="1.0"
     inkscape:pageopacity="0.0"
     inkscape:pageshadow="2"
     inkscape:zoom="0.61399264"
     inkscape:cx="351.653894"
     inkscape:cy="223.507904"
     inkscape:window-width="640"
     inkscape:window-height="501"
     inkscape:window-x="345"
     inkscape:window-y="103" />
  <rect
     style="font-size:12;fill:#0082ab;fill-rule:evenodd;stroke:none;stroke-width:2.05668pt;"
     id="rect3983"
     width="809.03658677"
     height="607.49723486"
     x="-2.87913237"
     y="1.14018638" />
  <rect
     style="font-size:12;fill:#ffffff;fill-opacity:0.28125;fill-rule:evenodd;stroke-width:1pt;"
     id="rect4004"
     width="881.01494795"
     height="394.44131470"
     x="-28.56889523"
     y="101.90985870"
     ry="0" />
  <path
     style="font-size:12;fill:#ffffff;fill-opacity:0.28125;fill-rule:evenodd;stroke-width:1pt;"
     d="M -84.060682 556.08606 C -97.93004 556.08606 -102.00175 611.53619 -88.132392 611.53619 L 813.52575 611.53619 L 811.48989 563.17268 L -84.060682 556.08606 z "
     id="path4024"
     sodipodi:nodetypes="ccccc" />
  <path
     style="font-size:12;fill:#ffffff;fill-opacity:0.28125;fill-rule:evenodd;stroke-width:1pt;"
     d="M -16.877466 576.21301 C -30.746824 576.21301 -38.890244 618.46897 -25.020886 618.46897 L 809.45404 620.50483 L 813.52575 571.61291 L -16.877466 576.21301 z "
     id="path4171"
     sodipodi:nodetypes="ccccc" />
  <path
     style="font-size:12;fill:#ffffff;fill-opacity:0.28125;fill-rule:evenodd;stroke-width:1pt;"
     d="M -14.841611 583.15834 C -28.710974 583.15834 -28.710969 616.21406 -14.841611 616.21406 L 809.45404 618.24992 L 811.4899 592.28081 L -14.841611 583.15834 z "
     id="path4184"
     sodipodi:nodetypes="ccccc" />
  <path
     style="font-size:12;fill:#ffffff;fill-opacity:0.28125;fill-rule:evenodd;stroke-width:1pt;"
     d="M -10.740256 19.373125 C -26.093523 19.628321 -27.791284 3.545086 -12.438017 3.2898903 L 830.58502 -3.008414 L 834.36679 24.120757 L -10.740256 19.373125 z "
     id="path4172"
     sodipodi:nodetypes="ccccc" />
  <path
     style="font-size:12;fill:#ffffff;fill-opacity:0.28125;fill-rule:evenodd;stroke-width:1pt;"
     d="M -12.382907 12.582795 C -26.487377 12.817234 -26.784407 -7.6475964 -12.679936 -7.8820348 L 826.36572 -11.322919 L 827.2578 -1.7900222 L -12.382907 12.582795 z "
     id="path4183"
     sodipodi:nodetypes="ccccc" />
  <path
     style="font-size:40;font-weight:normal;fill:#ffffff;stroke-width:1pt;font-family:Century Schoolbook L;fill-opacity:1;"
     d="M 757.06679 456.76627 L 698.25153 456.76627 L 698.25153 460.52947 L 700.0131 460.52947 C 707.93991 460.52947 708.82073 460.92985 708.82073 464.29267 L 708.82073 466.61464 L 708.82073 504.72689 L 708.82073 507.04892 C 708.82073 510.41176 707.93991 510.81208 700.0131 510.81208 L 698.25153 510.81208 L 698.25153 514.57528 L 758.33897 514.57528 L 760.29621 493.19717 L 755.99031 493.19717 C 754.71801 498.80191 752.46724 503.76611 750.11848 506.08808 C 747.08482 509.29085 741.50665 510.81208 733.28622 510.81208 L 726.82733 510.81208 C 723.89152 510.81208 721.4449 510.3317 720.56415 509.61108 C 719.8791 509.13066 719.78122 508.65029 719.78122 506.9688 L 719.78122 486.5515 L 721.73851 486.5515 C 727.70814 486.5515 730.15461 487.03196 732.11189 488.71337 C 734.65631 490.79514 735.63489 493.35729 735.83069 498.08129 L 740.43019 498.08129 L 740.43019 471.81901 L 735.83069 471.81901 C 735.3413 479.66567 731.42683 482.7883 722.12998 482.7883 L 719.78122 482.7883 L 719.78122 464.53285 C 719.78122 461.08995 720.66204 460.52947 725.94654 460.52947 L 731.03539 460.52947 C 739.64726 460.52947 743.85532 461.25007 747.18268 463.49198 C 750.41211 465.57371 752.76078 470.05754 754.22876 477.26364 L 758.43681 477.26364 L 757.06679 456.76627 z M 627.20365 488.87354 L 638.26208 488.87354 C 647.06966 488.87354 651.66915 488.31304 655.58361 486.79175 C 662.53192 484.06942 666.4464 478.9451 666.4464 472.61969 C 666.4464 466.53459 663.0212 461.89064 656.56229 459.24836 C 652.74563 457.64701 646.6782 456.76627 639.92569 456.76627 L 605.67394 456.76627 L 605.67394 460.52947 L 607.43548 460.52947 C 615.36234 460.52947 616.24308 460.92985 616.24308 464.29267 L 616.24308 466.61464 L 616.24308 504.72689 L 616.24308 507.04892 C 616.24308 510.41176 615.36234 510.81208 607.43548 510.81208 L 605.67394 510.81208 L 605.67394 514.57528 L 638.5557 514.57528 L 638.5557 510.81208 L 636.01121 510.81208 C 628.08438 510.81208 627.20365 510.41176 627.20365 507.04892 L 627.20365 504.72689 L 627.20365 488.87354 z M 627.20365 485.11034 L 627.20365 464.61292 C 627.20365 460.92985 627.79079 460.52947 633.17327 460.52947 L 639.43642 460.52947 C 649.61406 460.52947 654.40929 464.4528 654.40929 472.93998 C 654.40929 481.18695 649.41834 485.11034 639.04496 485.11034 L 627.20365 485.11034 z M 542.06354 455.64534 L 537.95332 455.64534 L 515.44498 502.32485 C 513.48777 506.48837 513.09636 507.04892 511.62842 508.32999 C 510.0626 509.85126 507.32249 510.81208 504.6802 510.81208 L 504.28872 510.81208 L 504.28872 514.57528 L 530.22217 514.57528 L 530.22217 510.81208 L 528.26493 510.81208 C 522.9804 510.81208 520.33812 509.29085 520.33812 506.24825 C 520.33812 505.28739 520.63171 504.16645 521.21887 502.88535 L 524.44834 495.83938 L 550.38185 495.83938 L 555.66639 506.56849 C 556.25353 507.76955 556.44926 508.32999 556.44926 508.73028 C 556.44926 510.01141 554.00274 510.81208 550.38185 510.81208 L 546.27163 510.81208 L 546.27163 514.57528 L 576.60883 514.57528 L 576.60883 510.81208 L 575.23882 510.81208 C 570.34567 510.81208 569.2692 510.17158 567.01838 505.68775 L 542.06354 455.64534 z M 537.26827 468.77648 L 548.3267 491.51576 L 526.40555 491.51576 L 537.26827 468.77648 z M 469.74338 456.20584 L 466.02462 456.20584 L 462.11014 460.92985 C 455.1619 456.76627 451.3453 455.56527 444.78853 455.56527 C 435.29583 455.56527 427.46685 458.68793 420.81224 465.1734 C 414.54903 471.25858 411.61318 477.98425 411.61318 486.23127 C 411.61318 503.44585 425.41179 515.77626 444.69064 515.77626 C 460.3486 515.77626 470.33058 508.2499 472.58136 494.79852 L 467.9819 494.15796 C 467.00323 498.40154 465.82889 501.28401 464.06741 503.68604 C 460.055 509.21072 453.79183 512.01312 445.86502 512.01312 C 431.38135 512.01312 424.53099 503.76611 424.53099 486.5515 C 424.53099 477.50388 425.9989 471.41868 429.32625 466.61464 C 432.35997 462.13082 438.42731 459.32848 444.69064 459.32848 C 451.54104 459.32848 457.60847 462.29094 461.32726 467.41532 C 463.18661 470.05754 464.65454 473.18019 466.90542 479.3454 L 471.21132 479.3454 L 469.74338 456.20584 z M 371.78323 456.2859 L 368.16236 456.2859 L 364.24784 461.08995 C 359.64836 457.48689 353.38515 455.56527 346.43704 455.56527 C 333.61714 455.56527 325.00523 462.29094 325.00523 472.29944 C 325.00523 481.02683 330.28979 485.35051 344.67557 488.3931 L 353.97235 490.31472 C 361.21418 491.83598 361.89919 491.99613 363.95433 493.27724 C 366.8902 495.11876 368.45594 497.76106 368.45594 500.88368 C 368.45594 504.08633 366.98801 506.72863 364.0522 508.89046 C 360.82272 511.21243 357.59323 512.09317 352.21081 512.09317 C 344.96911 512.09317 339.78241 510.25158 335.18292 506.08808 C 331.07265 502.32485 329.01759 498.56167 327.54963 492.39648 L 323.34155 492.39648 L 323.73301 515.21581 L 327.54963 515.21581 L 331.95338 509.7712 C 338.51022 514.17491 343.99044 515.77626 352.5044 515.77626 C 366.8902 515.77626 376.08924 508.89046 376.08924 498.16135 C 376.08924 493.19717 374.03412 488.95354 370.21747 485.91096 C 367.57521 483.82923 363.75857 482.46805 355.92956 480.86669 L 345.45838 478.70485 C 336.74869 476.86331 332.63845 473.74065 332.63845 468.85653 C 332.63845 463.25182 338.21662 459.40848 346.53489 459.40848 C 353.38515 459.40848 358.9633 461.81057 362.87785 466.37444 C 365.71586 469.65721 367.47735 473.02005 368.74954 477.1035 L 372.95763 477.1035 L 371.78323 456.2859 z M 239.47361 488.3931 L 239.47361 466.61464 L 239.47361 464.29267 C 239.47361 460.92985 240.3544 460.52947 248.28122 460.52947 L 250.14062 460.52947 L 250.14062 456.76627 L 217.94391 456.76627 L 217.94391 460.52947 L 219.70543 460.52947 C 227.63229 460.52947 228.51301 460.92985 228.51301 464.29267 L 228.51301 466.61464 L 228.51301 504.72689 L 228.51301 507.04892 C 228.51301 510.41176 227.63229 510.81208 219.70543 510.81208 L 217.94391 510.81208 L 217.94391 514.57528 L 250.14062 514.57528 L 250.14062 510.81208 L 248.28122 510.81208 C 240.3544 510.81208 239.47361 510.41176 239.47361 507.04892 L 239.47361 504.72689 L 239.47361 494.55834 L 250.82565 485.19033 L 267.8537 505.60763 C 269.41945 507.5293 269.81091 508.16986 269.81091 508.97053 C 269.81091 510.25158 267.95157 510.81208 263.1563 510.81208 L 260.12254 510.81208 L 260.12254 514.57528 L 293.59142 514.57528 L 293.59142 510.81208 L 291.7321 510.81208 C 286.34966 510.81208 284.9796 510.25158 282.14157 506.80868 L 258.45887 478.86499 L 273.04035 466.93489 C 277.73778 462.85144 283.70735 460.52947 289.57914 460.52947 L 289.57914 456.76627 L 259.43755 456.76627 L 259.43755 460.52947 L 261.88409 460.52947 C 266.38573 460.52947 268.24512 461.25007 268.24512 462.93148 C 268.24512 464.05243 266.2879 466.37444 263.44989 468.69636 L 239.47361 488.3931 z M 130.06343 456.76627 L 109.90379 456.76627 L 109.90379 460.52947 L 112.35036 460.52947 C 117.34132 460.52947 119.59216 461.17001 121.35363 463.17167 L 121.35363 497.20056 C 121.35363 508.16986 119.39644 510.49183 110.00167 510.81208 L 110.00167 514.57528 L 137.89262 514.57528 L 137.89262 510.81208 C 128.59549 510.49183 126.63821 508.16986 126.63821 497.20056 L 126.63821 467.49538 L 170.28504 515.69628 L 174.39526 515.69628 L 174.39526 474.14098 C 174.39526 463.17167 176.35254 460.84978 185.74729 460.52947 L 185.74729 456.76627 L 157.85651 456.76627 L 157.85651 460.52947 C 167.15341 460.84978 169.11064 463.17167 169.11064 474.14098 L 169.11064 499.2823 L 130.06343 456.76627 z M 66.452985 466.61464 L 66.452985 464.29267 C 66.452985 460.92985 67.333726 460.52947 75.162697 460.52947 L 77.119955 460.52947 L 77.119955 456.76627 L 44.727561 456.76627 L 44.727561 460.52947 L 46.684817 460.52947 C 54.611599 460.52947 55.492408 460.92985 55.492408 464.29267 L 55.492408 466.61464 L 55.492408 504.72689 L 55.492408 507.04892 C 55.492408 510.41176 54.611599 510.81208 46.684817 510.81208 L 44.727561 510.81208 L 44.727561 514.57528 L 77.119955 514.57528 L 77.119955 510.81208 L 75.162697 510.81208 C 67.333726 510.81208 66.452985 510.41176 66.452985 507.04892 L 66.452985 504.72689 L 66.452985 466.61464 z "
     id="path4235" />
  <text
     xml:space="preserve"
     style="fill:#ffffff;fill-opacity:1;stroke:none;font-family:Nimbus Sans L;font-style:normal;font-weight:bold;font-size:12;stroke-opacity:1;stroke-width:1pt;stroke-linejoin:miter;stroke-linecap:butt;text-anchor:start;writing-mode:lr;"
     x="47.3599968"
     y="319.821775"
     id="text4185"
     transform="scale(1.715513,1.715507)"
     sodipodi:linespacing="100%"><tspan
       x="47.3599968"
       y="319.821777"
       sodipodi:role="line"
       id="tspan4186">Open Source Scalable Vector Graphics Editor . www.inkscape.org</tspan></text>
  <path
     style="font-size:12;fill:#ffffff;fill-opacity:0.28125;fill-rule:evenodd;stroke-width:1pt;"
     d="M -13.937461 80.457638 C -29.034805 80.457638 -30.474372 95.258556 -15.377028 95.258556 L 813.48337 88.171942 L 816.81411 63.191763 L -13.937461 80.457638 z "
     id="path4264"
     sodipodi:nodetypes="ccccc"
     transform="translate(0.000000,2.879134)" />
  <path
     style="font-size:12;fill:#ffffff;fill-opacity:0.28125;fill-rule:evenodd;stroke-width:1pt;"
     d="M -15.455453 100.22977 C -29.324816 100.22977 -29.324811 119.03449 -15.455453 119.03449 L 809.45404 109.38362 L 810.19501 100.61252 L -15.455453 100.22977 z "
     id="path4265"
     sodipodi:nodetypes="ccccc" />
  <path
     style="font-size:12;fill:#ffffff;fill-opacity:0.28125;fill-rule:evenodd;stroke-width:1pt;"
     d="M -10.740256 524.77194 C -26.093523 524.98567 -27.791284 511.51536 -12.438017 511.30162 L 830.58502 506.02656 L 834.36679 528.74826 L -10.740256 524.77194 z "
     id="path4266"
     sodipodi:nodetypes="ccccc" />
  <path
     style="font-size:12;fill:#ffffff;fill-opacity:0.28125;fill-rule:evenodd;stroke-width:1pt;"
     d="M -12.382907 519.08478 C -26.487377 519.28113 -26.784407 502.14107 -12.679936 501.94472 L 826.36572 499.06285 L 827.2578 507.04701 L -12.382907 519.08478 z "
     id="path4267"
     sodipodi:nodetypes="ccccc" />
  <path
     style="font-size:12;fill:#ffffff;fill-opacity:0.28125;fill-rule:evenodd;stroke-width:1pt;"
     d="M -10.740256 43.177509 C -26.093523 43.391245 -27.791284 29.92093 -12.438017 29.707194 L 830.58502 24.432127 L 834.36679 47.15383 L -10.740256 43.177509 z "
     id="path4268"
     sodipodi:nodetypes="ccccc"
     transform="translate(0.000000,31.67047)" />
  <path
     style="font-size:12;fill:#ffffff;fill-opacity:0.28125;fill-rule:evenodd;stroke-width:1pt;"
     d="M -12.382907 37.490352 C -26.487377 37.686703 -26.784407 20.546637 -12.679936 20.350286 L 826.36572 17.468416 L 827.2578 25.452576 L -12.382907 37.490352 z "
     id="path4269"
     sodipodi:nodetypes="ccccc"
     transform="translate(0.000000,31.67047)" />
  <g
     id="g4239"
     transform="matrix(1.190291,0.000000,0.000000,1.190291,-19.52718,-22.05891)">
    <rect
       style="font-size:12;fill:#fdffff;fill-rule:evenodd;stroke-width:1pt;"
       id="rect133"
       x="265.28278553"
       y="209.39511572"
       width="112.53113556"
       height="84.04225159"
       rx="0"
       ry="0" />
    <path
       style="font-size:12;fill-rule:evenodd;stroke-width:1pt;"
       d="M 446.7807 326.72951 C 463.67321 330.10765 467.05318 341.93303 463.67321 345.31117 C 460.29597 348.69019 451.84967 352.06833 445.09245 347.00016 C 438.33345 341.93303 438.33345 330.10765 446.7807 326.72951 z "
       id="path580" />
    <path
       style="font-size:12;fill-rule:evenodd;stroke-width:1pt;"
       d="M 275.83162 327.85795 C 274.18559 328.29696 260.43431 316.44695 249.54452 321.93936 C 238.65751 327.43099 231.34876 339.72818 241.51978 344.77435 C 251.69175 349.82052 258.96284 344.00157 267.88002 337.74005 C 276.79818 331.47948 276.47641 330.27324 275.83162 327.85795 z "
       id="path582" />
    <path
       style="font-size:12;fill-rule:evenodd;stroke-width:1pt;"
       d="M 476.75319 297.79488 C 485.9401 295.49777 507.16192 297.79488 503.78195 311.30758 C 500.40476 324.8238 471.68779 319.75374 453.10352 312.99935 C 451.41437 299.48402 472.42311 298.87685 476.75319 297.79488 z "
       id="path583" />
    <path
       style="font-size:12;fill:#ffffff;fill-rule:evenodd;stroke-width:1pt;"
       d="M 331.014 48.420652 L 222.70049 158.35017 L 458.72575 152.69221 L 347.98788 48.420652 L 331.014 48.420652 z "
       id="path615"
       sodipodi:nodetypes="ccccc" />
    <path
       style="font-size:12;fill-rule:evenodd;stroke-width:1pt;"
       d="M 174.80775 191.44854 C 167.02808 199.22805 163.13779 209.37986 163.13779 219.53254 L 519.16736 219.53254 C 519.16736 209.37986 515.27802 199.22805 507.49851 191.44854 L 369.23707 53.187432 C 353.67789 37.628252 328.6271 37.628252 313.06791 53.187432 L 174.80775 191.44854 z M 300.90425 84.220472 C 285.02593 92.281722 258.94094 126.15004 258.94094 130.98671 L 258.44619 151.12659 L 303.67522 146.59074 L 319.87364 108.66853 L 332.44236 152.03479 L 365.33307 130.07961 L 386.61156 140.05858 L 390.47166 110.84593 L 429.16838 129.53446 C 429.16838 128.93006 429.12448 128.32561 429.03484 127.72289 C 428.94531 127.12121 428.81177 126.52032 428.63251 125.92498 C 428.45428 125.32876 428.23105 124.73802 427.96303 124.15269 C 427.69518 123.56841 427.38237 122.99047 427.02482 122.4207 C 426.66827 121.85187 426.26577 121.29131 425.81953 120.74171 C 425.37235 120.19201 424.88132 119.6544 424.34539 119.12947 C 423.8095 118.60359 423.22879 118.09235 422.60327 117.59586 C 421.97776 117.09928 421.30741 116.61825 420.59236 116.15456 L 355.26184 67.703622 C 343.82601 60.290732 341.3807 55.935862 329.94502 63.348762 L 300.90425 84.220472 z "
       id="path588" />
    <path
       style="font-size:12;fill-rule:evenodd;stroke-width:1pt;"
       d="M 242.02103 250.06931 C 234.24135 242.28979 163.13779 229.08272 163.13779 218.92998 L 519.16736 218.92998 C 519.16736 229.08272 521.70603 237.30848 497.61545 248.24951 C 449.28265 270.19914 426.8785 264.352 415.35686 275.87364 C 403.83511 287.39539 436.14138 293.93032 446.00515 309.27094 C 421.49946 336.83186 392.41033 336.89687 380.88869 348.41866 C 369.36694 359.94031 402.9956 358.92891 391.47396 370.45055 C 369.73817 386.00974 337.27458 393.42264 321.71539 377.86345 C 328.72507 347.8104 290.02452 362.23202 278.50288 350.71022 C 266.98109 339.18858 302.05109 326.90234 290.52944 315.3807 C 279.0067 303.85889 220.89427 293.10086 209.37263 281.57922 C 197.85114 270.05743 253.54267 261.59105 242.02103 250.06931 z M 279.84177 257.13655 C 300.43156 262.4763 323.32863 269.46853 341.70801 269.59379 L 342.50285 277.8736 C 326.76434 276.25131 293.45673 268.66097 285.60481 264.65004 L 279.84177 257.13655 z "
       id="path591" />
    <text
       xml:space="preserve"
       style="fill:black;fill-opacity:1;stroke:none;font-family:helvetica;font-style:normal;font-weight:normal;font-size:12px;stroke-opacity:1;stroke-width:1pt;stroke-linejoin:miter;stroke-linecap:butt;"
       x="587.931478"
       y="80.9117502"
       id="text3984"
       transform="scale(5.238801,5.238801)"><tspan
         id="tspan3985"></tspan></text>
    <text
       xml:space="preserve"
       style="fill:black;fill-opacity:1;stroke:none;font-family:helvetica;font-style:normal;font-weight:normal;font-size:12px;stroke-opacity:1;stroke-width:1pt;stroke-linejoin:miter;stroke-linecap:butt;"
       x="-100.181543"
       y="-254.207917"
       id="text3990"
       transform="scale(5.238801,5.238801)"><tspan
         id="tspan3991"></tspan></text>
  </g>
</svg>
