<?xml version="1.0" encoding="UTF-8" standalone="no"?>
<!DOCTYPE svg PUBLIC "-//W3C//DTD SVG 20010904//EN"
"http://www.w3.org/TR/2001/REC-SVG-20010904/DTD/svg10.dtd">
<svg
   id="svg586"
   sodipodi:version="0.32"
   inkscape:version="0.38cvs"
   width="640pt"
   height="480pt"
   sodipodi:docname="/usr/src/inkscape-project/inkscape/share/examples/intro.svg"
   sodipodi:docbase="/usr/src/inkscape-project/inkscape/share/examples"
   xmlns="http://www.w3.org/2000/svg"
   xmlns:inkscape="http://www.inkscape.org/namespaces/inkscape"
   xmlns:sodipodi="http://sodipodi.sourceforge.net/DTD/sodipodi-0.dtd"
   xmlns:xml="http://www.w3.org/XML/1998/namespace"
   xmlns:xlink="http://www.w3.org/1999/xlink">
  <defs
     id="defs588" />
  <sodipodi:namedview
     id="base"
     pagecolor="#ffffff"
     bordercolor="#666666"
     borderopacity="1.0"
     inkscape:pageopacity="0.0"
     inkscape:pageshadow="2"
     inkscape:zoom="0.61399264"
     inkscape:cx="434.36115035"
     inkscape:cy="196.05224213"
     inkscape:window-width="1022"
     inkscape:window-height="740"
     inkscape:window-x="151"
     inkscape:window-y="43" />
  <rect
     style="font-size:12;fill:#0082ab;fill-rule:evenodd;stroke:none;stroke-width:2.05668pt;"
     id="rect3983"
     width="809.03658677"
     height="607.49723486"
     x="-2.87913237"
     y="1.14018638" />
  <rect
     style="font-size:12;fill:#ffffff;fill-opacity:0.28125;fill-rule:evenodd;stroke-width:1pt;"
     id="rect4004"
     width="881.01495361"
     height="394.44131470"
     x="-27.22891045"
     y="105.54451257"
     ry="0.00000000" />
  <path
     style="fill:#ffffff;fill-rule:evenodd;stroke:black;stroke-opacity:1;stroke-width:1pt;stroke-linejoin:miter;stroke-linecap:butt;fill-opacity:1;"
     d="M 434.63799,346.63623 L 309.39567,306.32835 L 277.72520,137.89903 L 378.49488,35.689778 L 430.31929,54.404148 L 526.77027,149.41556 L 434.63799,346.63623 z "
     id="path727" />
  <path
     style="font-size:12;fill:#ffffff;fill-opacity:0.28125;fill-rule:evenodd;stroke-width:1pt;"
     d="M -84.060682 556.08606 C -97.93004 556.08606 -102.00175 611.53619 -88.132392 611.53619 L 813.52575 611.53619 L 811.48989 563.17268 L -84.060682 556.08606 z "
     id="path4024"
     sodipodi:nodetypes="ccccc" />
  <path
     style="font-size:12;fill:#ffffff;fill-opacity:0.28125;fill-rule:evenodd;stroke-width:1pt;"
     d="M -16.877466 576.21301 C -30.746824 576.21301 -38.890244 618.46897 -25.020886 618.46897 L 809.45404 620.50483 L 813.52575 571.61291 L -16.877466 576.21301 z "
     id="path4171"
     sodipodi:nodetypes="ccccc" />
  <path
     style="font-size:12;fill:#ffffff;fill-opacity:0.28125;fill-rule:evenodd;stroke-width:1pt;"
     d="M -14.841611 583.15834 C -28.710974 583.15834 -28.710969 616.21406 -14.841611 616.21406 L 809.45404 618.24992 L 811.4899 592.28081 L -14.841611 583.15834 z "
     id="path4184"
     sodipodi:nodetypes="ccccc" />
  <path
     style="font-size:12;fill:#ffffff;fill-opacity:0.28125;fill-rule:evenodd;stroke-width:1pt;"
     d="M -10.740256 19.373125 C -26.093523 19.628321 -27.791284 3.545086 -12.438017 3.2898903 L 830.58502 -3.008414 L 834.36679 24.120757 L -10.740256 19.373125 z "
     id="path4172"
     sodipodi:nodetypes="ccccc" />
  <path
     style="font-size:12;fill:#ffffff;fill-opacity:0.28125;fill-rule:evenodd;stroke-width:1pt;"
     d="M -12.382907 12.582795 C -26.487377 12.817234 -26.784407 -7.6475964 -12.679936 -7.8820348 L 826.36572 -11.322919 L 827.2578 -1.7900222 L -12.382907 12.582795 z "
     id="path4183"
     sodipodi:nodetypes="ccccc" />
  <text
     xml:space="preserve"
     style="fill:#ffffff;fill-opacity:1;stroke:none;font-family:Nimbus Sans L;font-style:normal;font-weight:bold;font-size:12;stroke-opacity:1;stroke-width:1pt;stroke-linejoin:miter;stroke-linecap:butt;text-anchor:start;writing-mode:lr;"
     x="47.3599968"
     y="319.821775"
     id="text4185"
     transform="scale(1.715513,1.715507)"
     sodipodi:linespacing="100%"><tspan
       x="47.35999680"
       y="319.82177734"
       sodipodi:role="line"
       id="tspan4186">Open Source Scalable Vector Graphics Editor . www.inkscape.org</tspan></text>
  <path
     style="font-size:12;fill:#ffffff;fill-opacity:0.28125;fill-rule:evenodd;stroke-width:1pt;"
     d="M -13.937461 80.457638 C -29.034805 80.457638 -30.474372 95.258556 -15.377028 95.258556 L 813.48337 88.171942 L 816.81411 63.191763 L -13.937461 80.457638 z "
     id="path4264"
     sodipodi:nodetypes="ccccc"
     transform="translate(0.000000,2.879134)" />
  <path
     style="font-size:12;fill:#ffffff;fill-opacity:0.28125;fill-rule:evenodd;stroke-width:1pt;"
     d="M -15.455453 100.22977 C -29.324816 100.22977 -29.324811 119.03449 -15.455453 119.03449 L 809.45404 109.38362 L 810.19501 100.61252 L -15.455453 100.22977 z "
     id="path4265"
     sodipodi:nodetypes="ccccc" />
  <path
     style="font-size:12;fill:#ffffff;fill-opacity:0.28125;fill-rule:evenodd;stroke-width:1pt;"
     d="M -10.740256 524.77194 C -26.093523 524.98567 -27.791284 511.51536 -12.438017 511.30162 L 830.58502 506.02656 L 834.36679 528.74826 L -10.740256 524.77194 z "
     id="path4266"
     sodipodi:nodetypes="ccccc" />
  <path
     style="font-size:12;fill:#ffffff;fill-opacity:0.28125;fill-rule:evenodd;stroke-width:1pt;"
     d="M -12.382907 519.08478 C -26.487377 519.28113 -26.784407 502.14107 -12.679936 501.94472 L 826.36572 499.06285 L 827.2578 507.04701 L -12.382907 519.08478 z "
     id="path4267"
     sodipodi:nodetypes="ccccc" />
  <path
     style="font-size:12;fill:#ffffff;fill-opacity:0.28125;fill-rule:evenodd;stroke-width:1pt;"
     d="M -10.740256 43.177509 C -26.093523 43.391245 -27.791284 29.92093 -12.438017 29.707194 L 830.58502 24.432127 L 834.36679 47.15383 L -10.740256 43.177509 z "
     id="path4268"
     sodipodi:nodetypes="ccccc"
     transform="translate(0.000000,31.67047)" />
  <path
     style="font-size:12;fill:#ffffff;fill-opacity:0.28125;fill-rule:evenodd;stroke-width:1pt;"
     d="M -12.382907 37.490352 C -26.487377 37.686703 -26.784407 20.546637 -12.679936 20.350286 L 826.36572 17.468416 L 827.2578 25.452576 L -12.382907 37.490352 z "
     id="path4269"
     sodipodi:nodetypes="ccccc"
     transform="translate(0.000000,31.67047)" />
  <path
     style="font-size:12;fill-rule:evenodd;stroke-width:1pt;fill:#000000;fill-opacity:1;"
     d="M 519.35848,366.84429 C 539.46549,370.86525 543.48863,384.94090 539.46549,388.96187 C 535.44559,392.98388 525.39203,397.00485 517.34897,390.97226 C 509.30380,384.94090 509.30380,370.86525 519.35848,366.84429 z "
     id="path580" />
  <path
     style="font-size:12;fill-rule:evenodd;stroke-width:1pt;fill:#000000;fill-opacity:1;"
     d="M 315.87933,368.18746 C 313.92008,368.71001 297.55205,354.60505 284.59003,361.14261 C 271.63132,367.67925 262.93178,382.31649 275.03826,388.32290 C 287.14586,394.32931 295.80057,387.40306 306.41461,379.95003 C 317.02982,372.49813 316.64682,371.06236 315.87933,368.18746 z "
     id="path582" />
  <path
     style="font-size:12;fill-rule:evenodd;stroke-width:1pt;fill:#000000;fill-opacity:1;"
     d="M 555.03447,332.40366 C 565.96956,329.66943 591.22971,332.40366 587.20656,348.48770 C 583.18672,364.57594 549.00517,358.54109 526.88448,350.50140 C 524.87390,334.41422 549.88041,333.69151 555.03447,332.40366 z "
     id="path583" />
  <path
     style="font-size:12;fill-rule:evenodd;stroke-width:1pt;fill:#000000;fill-opacity:1;"
     d="M 390.07456,27.375000 C 377.99014,27.375000 365.92829,31.990024 356.66831,41.250000 L 192.07456,205.81250 C 182.99856,214.88833 178.44249,226.68795 178.26206,238.53125 L 178.19956,238.53125 C 178.19956,238.57342 178.26001,238.61399 178.26206,238.65625 C 178.25955,238.85502 178.19956,239.05122 178.19956,239.25000 L 178.48081,239.25000 C 181.63093,251.23525 263.02472,266.51285 272.10581,275.59375 C 285.81991,289.30797 219.51688,299.37947 233.23081,313.09375 C 246.94491,326.80785 316.10916,339.62944 329.82456,353.34375 C 343.53868,367.05785 301.79778,381.66090 315.51206,395.37500 C 329.22616,409.08929 375.29313,391.94687 366.94956,427.71875 C 385.46952,446.23871 424.10888,437.39497 449.98081,418.87500 C 463.69491,405.16090 423.67284,406.37038 437.38706,392.65625 C 451.10116,378.94197 485.71817,378.86801 514.88706,346.06250 C 503.14630,327.80270 464.70408,320.02673 478.41831,306.31250 C 492.13241,292.59840 518.79444,299.56396 576.32456,273.43750 C 604.40840,260.68288 602.08836,250.99536 601.98081,239.25000 C 601.97855,239.00285 601.98081,238.78030 601.98081,238.53125 L 601.91831,238.53125 C 601.73794,226.68794 597.15038,214.88832 588.07456,205.81250 L 423.51206,41.250000 C 414.25208,31.990024 402.15898,27.375000 390.07456,27.375000 z M 388.66831,48.781250 C 394.04059,48.921198 398.37958,53.016564 406.88706,58.531250 L 484.63706,116.18750 C 485.48818,116.73943 486.29878,117.31518 487.04331,117.90625 C 487.78786,118.49722 488.46794,119.12405 489.10581,119.75000 C 489.74372,120.37482 490.32355,121.00195 490.85581,121.65625 C 491.38697,122.31043 491.86891,122.97918 492.29331,123.65625 C 492.71890,124.33444 493.09950,125.02329 493.41831,125.71875 C 493.73733,126.41546 493.98743,127.13407 494.19956,127.84375 C 494.41293,128.55238 494.59298,129.25258 494.69956,129.96875 C 494.80626,130.68616 494.85581,131.40559 494.85581,132.12500 L 448.79331,109.87500 L 444.19956,144.65625 L 418.85581,132.78125 L 379.73081,158.90625 L 364.76206,107.28125 L 345.48081,152.43750 L 291.63706,157.81250 L 292.23081,133.84375 C 292.23081,128.08670 323.26848,87.782735 342.16831,78.187500 L 376.76206,53.343750 C 381.86648,50.034934 385.44494,48.697281 388.66831,48.781250 z M 317.10581,284.00000 C 341.61366,290.35584 368.88525,298.69465 390.76206,298.84375 L 391.69956,308.68750 C 372.96615,306.75651 333.32688,297.71167 323.98081,292.93750 L 317.10581,284.00000 z "
     id="path706" />
  <path
     style="font-size:40;font-weight:normal;fill:#000000;stroke-width:1pt;font-family:Century Schoolbook L;fill-opacity:0.5;"
     d="M 753.90169,455.10249 L 695.08644,455.10249 L 695.08644,458.86568 L 696.84801,458.86568 C 704.77482,458.86568 705.65564,459.26606 705.65564,462.62888 L 705.65564,464.95085 L 705.65564,503.06315 L 705.65564,505.38518 C 705.65564,508.74802 704.77482,509.14834 696.84801,509.14834 L 695.08644,509.14834 L 695.08644,512.91152 L 755.17387,512.91152 L 757.13111,491.53344 L 752.82521,491.53344 C 751.55291,497.13817 749.30214,502.10237 746.95339,504.42434 C 743.91973,507.62711 738.34156,509.14834 730.12113,509.14834 L 723.66224,509.14834 C 720.72643,509.14834 718.27981,508.66796 717.39906,507.94734 C 716.71401,507.46692 716.61613,506.98655 716.61613,505.30506 L 716.61613,484.88775 L 718.57342,484.88775 C 724.54305,484.88775 726.98952,485.36821 728.94680,487.04964 C 731.49122,489.13141 732.46980,491.69356 732.66560,496.41755 L 737.26510,496.41755 L 737.26510,470.15522 L 732.66560,470.15522 C 732.17621,478.00190 728.26174,481.12453 718.96489,481.12453 L 716.61613,481.12453 L 716.61613,462.86906 C 716.61613,459.42616 717.49695,458.86568 722.78145,458.86568 L 727.87030,458.86568 C 736.48217,458.86568 740.69023,459.58628 744.01759,461.82819 C 747.24702,463.90992 749.59568,468.39375 751.06366,475.59987 L 755.27171,475.59987 L 753.90169,455.10249 z M 624.03854,487.20981 L 635.09697,487.20981 C 643.90457,487.20981 648.50406,486.64931 652.41852,485.12800 C 659.36683,482.40565 663.28131,477.28133 663.28131,470.95592 C 663.28131,464.87080 659.85611,460.22685 653.39720,457.58458 C 649.58054,455.98323 643.51311,455.10249 636.76058,455.10249 L 602.50885,455.10249 L 602.50885,458.86568 L 604.27039,458.86568 C 612.19725,458.86568 613.07799,459.26606 613.07799,462.62888 L 613.07799,464.95085 L 613.07799,503.06315 L 613.07799,505.38518 C 613.07799,508.74802 612.19725,509.14834 604.27039,509.14834 L 602.50885,509.14834 L 602.50885,512.91152 L 635.39059,512.91152 L 635.39059,509.14834 L 632.84610,509.14834 C 624.91927,509.14834 624.03854,508.74802 624.03854,505.38518 L 624.03854,503.06315 L 624.03854,487.20981 z M 624.03854,483.44659 L 624.03854,462.94913 C 624.03854,459.26606 624.62568,458.86568 630.00816,458.86568 L 636.27131,458.86568 C 646.44897,458.86568 651.24420,462.78901 651.24420,471.27621 C 651.24420,479.52318 646.25325,483.44659 635.87985,483.44659 L 624.03854,483.44659 z M 538.89846,453.98156 L 534.78824,453.98156 L 512.27990,500.66111 C 510.32269,504.82463 509.93128,505.38518 508.46334,506.66625 C 506.89752,508.18752 504.15741,509.14834 501.51512,509.14834 L 501.12364,509.14834 L 501.12364,512.91152 L 527.05709,512.91152 L 527.05709,509.14834 L 525.09985,509.14834 C 519.81532,509.14834 517.17304,507.62711 517.17304,504.58451 C 517.17304,503.62365 517.46663,502.50271 518.05379,501.22161 L 521.28326,494.17565 L 547.21677,494.17565 L 552.50131,504.90475 C 553.08845,506.10581 553.28418,506.66625 553.28418,507.06654 C 553.28418,508.34767 550.83766,509.14834 547.21677,509.14834 L 543.10655,509.14834 L 543.10655,512.91152 L 573.44375,512.91152 L 573.44375,509.14834 L 572.07374,509.14834 C 567.18058,509.14834 566.10411,508.50784 563.85329,504.02401 L 538.89846,453.98156 z M 534.10319,467.11269 L 545.16162,489.85203 L 523.24047,489.85203 L 534.10319,467.11269 z M 466.57829,454.54206 L 462.85953,454.54206 L 458.94505,459.26606 C 451.99680,455.10249 448.18020,453.90149 441.62345,453.90149 C 432.13075,453.90149 424.30177,457.02415 417.64716,463.50961 C 411.38395,469.59479 408.44809,476.32048 408.44809,484.56752 C 408.44809,501.78211 422.24671,514.11250 441.52556,514.11250 C 457.18351,514.11250 467.16549,506.58616 469.41627,493.13479 L 464.81681,492.49423 C 463.83814,496.73780 462.66380,499.62027 460.90232,502.02230 C 456.88991,507.54698 450.62673,510.34936 442.69994,510.34936 C 428.21628,510.34936 421.36591,502.10237 421.36591,484.88775 C 421.36591,475.84011 422.83382,469.75489 426.16118,464.95085 C 429.19490,460.46703 435.26223,457.66470 441.52556,457.66470 C 448.37594,457.66470 454.44337,460.62715 458.16217,465.75153 C 460.02152,468.39375 461.48945,471.51642 463.74033,477.68163 L 468.04623,477.68163 L 466.57829,454.54206 z M 368.61817,454.62212 L 364.99730,454.62212 L 361.08278,459.42616 C 356.48330,455.82311 350.22009,453.90149 343.27198,453.90149 C 330.45207,453.90149 321.84016,460.62715 321.84016,470.63567 C 321.84016,479.36306 327.12472,483.68676 341.51051,486.72937 L 350.80729,488.65099 C 358.04912,490.17225 358.73413,490.33240 360.78927,491.61351 C 363.72514,493.45503 365.29088,496.09732 365.29088,499.21994 C 365.29088,502.42259 363.82295,505.06489 360.88714,507.22672 C 357.65766,509.54869 354.42817,510.42941 349.04575,510.42941 C 341.80405,510.42941 336.61734,508.58784 332.01785,504.42434 C 327.90758,500.66111 325.85252,496.89793 324.38456,490.73275 L 320.17648,490.73275 L 320.56794,513.55205 L 324.38456,513.55205 L 328.78831,508.10746 C 335.34515,512.51115 340.82537,514.11250 349.33934,514.11250 C 363.72514,514.11250 372.92415,507.22672 372.92415,496.49761 C 372.92415,491.53344 370.86904,487.28981 367.05241,484.24721 C 364.41015,482.16546 360.59351,480.80428 352.76450,479.20292 L 342.29332,477.04108 C 333.58362,475.19954 329.47338,472.07688 329.47338,467.19274 C 329.47338,461.58803 335.05155,457.74470 343.36983,457.74470 C 350.22009,457.74470 355.79824,460.14678 359.71279,464.71065 C 362.55080,467.99342 364.31229,471.35628 365.58448,475.43973 L 369.79255,475.43973 L 368.61817,454.62212 z M 236.30854,486.72937 L 236.30854,464.95085 L 236.30854,462.62888 C 236.30854,459.26606 237.18933,458.86568 245.11617,458.86568 L 246.97557,458.86568 L 246.97557,455.10249 L 214.77883,455.10249 L 214.77883,458.86568 L 216.54035,458.86568 C 224.46721,458.86568 225.34793,459.26606 225.34793,462.62888 L 225.34793,464.95085 L 225.34793,503.06315 L 225.34793,505.38518 C 225.34793,508.74802 224.46721,509.14834 216.54035,509.14834 L 214.77883,509.14834 L 214.77883,512.91152 L 246.97557,512.91152 L 246.97557,509.14834 L 245.11617,509.14834 C 237.18933,509.14834 236.30854,508.74802 236.30854,505.38518 L 236.30854,503.06315 L 236.30854,492.89461 L 247.66060,483.52658 L 264.68865,503.94389 C 266.25440,505.86556 266.64586,506.50612 266.64586,507.30679 C 266.64586,508.58784 264.78652,509.14834 259.99125,509.14834 L 256.95749,509.14834 L 256.95749,512.91152 L 290.42637,512.91152 L 290.42637,509.14834 L 288.56705,509.14834 C 283.18461,509.14834 281.81455,508.58784 278.97652,505.14494 L 255.29382,477.20122 L 269.87530,465.27110 C 274.57273,461.18765 280.54230,458.86568 286.41409,458.86568 L 286.41409,455.10249 L 256.27250,455.10249 L 256.27250,458.86568 L 258.71904,458.86568 C 263.22068,458.86568 265.08007,459.58628 265.08007,461.26769 C 265.08007,462.38864 263.12285,464.71065 260.28484,467.03257 L 236.30854,486.72937 z M 126.89836,455.10249 L 106.73873,455.10249 L 106.73873,458.86568 L 109.18530,458.86568 C 114.17627,458.86568 116.42711,459.50622 118.18858,461.50788 L 118.18858,495.53682 C 118.18858,506.50612 116.23139,508.82809 106.83661,509.14834 L 106.83661,512.91152 L 134.72755,512.91152 L 134.72755,509.14834 C 125.43042,508.82809 123.47314,506.50612 123.47314,495.53682 L 123.47314,465.83159 L 167.11996,514.03252 L 171.23018,514.03252 L 171.23018,472.47721 C 171.23018,461.50788 173.18746,459.18599 182.58220,458.86568 L 182.58220,455.10249 L 154.69143,455.10249 L 154.69143,458.86568 C 163.98833,459.18599 165.94556,461.50788 165.94556,472.47721 L 165.94556,497.61856 L 126.89836,455.10249 z M 63.287919,464.95085 L 63.287919,462.62888 C 63.287919,459.26606 64.168660,458.86568 71.997636,458.86568 L 73.954894,458.86568 L 73.954894,455.10249 L 41.562499,455.10249 L 41.562499,458.86568 L 43.519755,458.86568 C 51.446537,458.86568 52.327347,459.26606 52.327347,462.62888 L 52.327347,464.95085 L 52.327347,503.06315 L 52.327347,505.38518 C 52.327347,508.74802 51.446537,509.14834 43.519755,509.14834 L 41.562499,509.14834 L 41.562499,512.91152 L 73.954894,512.91152 L 73.954894,509.14834 L 71.997636,509.14834 C 64.168660,509.14834 63.287919,508.74802 63.287919,505.38518 L 63.287919,503.06315 L 63.287919,464.95085 z "
     id="path642" />
  <text
     xml:space="preserve"
     style="font-size:12;font-weight:normal;stroke-width:1pt;font-family:helvetica;fill:#000000;fill-opacity:0.5;"
     x="585.99698294"
     y="77.67562103"
     id="text3984"
     transform="scale(6.235699,6.235700)"><tspan
       id="tspan3985"
       style="fill:#000000;fill-opacity:0.5;"></tspan></text>
  <text
     xml:space="preserve"
     style="font-size:12;font-weight:normal;stroke-width:1pt;font-family:helvetica;fill:#000000;fill-opacity:0.5;"
     x="-102.11594736"
     y="-257.44400024"
     id="text3990"
     transform="scale(6.235699,6.235700)"><tspan
       id="tspan3991"
       style="fill:#000000;fill-opacity:0.5;"></tspan></text>
  <path
     style="font-size:40;font-weight:normal;fill:#ffffff;stroke-width:1pt;font-family:Century Schoolbook L;fill-opacity:1;"
     d="M 757.06679 456.76627 L 698.25153 456.76627 L 698.25153 460.52947 L 700.0131 460.52947 C 707.93991 460.52947 708.82073 460.92985 708.82073 464.29267 L 708.82073 466.61464 L 708.82073 504.72689 L 708.82073 507.04892 C 708.82073 510.41176 707.93991 510.81208 700.0131 510.81208 L 698.25153 510.81208 L 698.25153 514.57528 L 758.33897 514.57528 L 760.29621 493.19717 L 755.99031 493.19717 C 754.71801 498.80191 752.46724 503.76611 750.11848 506.08808 C 747.08482 509.29085 741.50665 510.81208 733.28622 510.81208 L 726.82733 510.81208 C 723.89152 510.81208 721.4449 510.3317 720.56415 509.61108 C 719.8791 509.13066 719.78122 508.65029 719.78122 506.9688 L 719.78122 486.5515 L 721.73851 486.5515 C 727.70814 486.5515 730.15461 487.03196 732.11189 488.71337 C 734.65631 490.79514 735.63489 493.35729 735.83069 498.08129 L 740.43019 498.08129 L 740.43019 471.81901 L 735.83069 471.81901 C 735.3413 479.66567 731.42683 482.7883 722.12998 482.7883 L 719.78122 482.7883 L 719.78122 464.53285 C 719.78122 461.08995 720.66204 460.52947 725.94654 460.52947 L 731.03539 460.52947 C 739.64726 460.52947 743.85532 461.25007 747.18268 463.49198 C 750.41211 465.57371 752.76078 470.05754 754.22876 477.26364 L 758.43681 477.26364 L 757.06679 456.76627 z M 627.20365 488.87354 L 638.26208 488.87354 C 647.06966 488.87354 651.66915 488.31304 655.58361 486.79175 C 662.53192 484.06942 666.4464 478.9451 666.4464 472.61969 C 666.4464 466.53459 663.0212 461.89064 656.56229 459.24836 C 652.74563 457.64701 646.6782 456.76627 639.92569 456.76627 L 605.67394 456.76627 L 605.67394 460.52947 L 607.43548 460.52947 C 615.36234 460.52947 616.24308 460.92985 616.24308 464.29267 L 616.24308 466.61464 L 616.24308 504.72689 L 616.24308 507.04892 C 616.24308 510.41176 615.36234 510.81208 607.43548 510.81208 L 605.67394 510.81208 L 605.67394 514.57528 L 638.5557 514.57528 L 638.5557 510.81208 L 636.01121 510.81208 C 628.08438 510.81208 627.20365 510.41176 627.20365 507.04892 L 627.20365 504.72689 L 627.20365 488.87354 z M 627.20365 485.11034 L 627.20365 464.61292 C 627.20365 460.92985 627.79079 460.52947 633.17327 460.52947 L 639.43642 460.52947 C 649.61406 460.52947 654.40929 464.4528 654.40929 472.93998 C 654.40929 481.18695 649.41834 485.11034 639.04496 485.11034 L 627.20365 485.11034 z M 542.06354 455.64534 L 537.95332 455.64534 L 515.44498 502.32485 C 513.48777 506.48837 513.09636 507.04892 511.62842 508.32999 C 510.0626 509.85126 507.32249 510.81208 504.6802 510.81208 L 504.28872 510.81208 L 504.28872 514.57528 L 530.22217 514.57528 L 530.22217 510.81208 L 528.26493 510.81208 C 522.9804 510.81208 520.33812 509.29085 520.33812 506.24825 C 520.33812 505.28739 520.63171 504.16645 521.21887 502.88535 L 524.44834 495.83938 L 550.38185 495.83938 L 555.66639 506.56849 C 556.25353 507.76955 556.44926 508.32999 556.44926 508.73028 C 556.44926 510.01141 554.00274 510.81208 550.38185 510.81208 L 546.27163 510.81208 L 546.27163 514.57528 L 576.60883 514.57528 L 576.60883 510.81208 L 575.23882 510.81208 C 570.34567 510.81208 569.2692 510.17158 567.01838 505.68775 L 542.06354 455.64534 z M 537.26827 468.77648 L 548.3267 491.51576 L 526.40555 491.51576 L 537.26827 468.77648 z M 469.74338 456.20584 L 466.02462 456.20584 L 462.11014 460.92985 C 455.1619 456.76627 451.3453 455.56527 444.78853 455.56527 C 435.29583 455.56527 427.46685 458.68793 420.81224 465.1734 C 414.54903 471.25858 411.61318 477.98425 411.61318 486.23127 C 411.61318 503.44585 425.41179 515.77626 444.69064 515.77626 C 460.3486 515.77626 470.33058 508.2499 472.58136 494.79852 L 467.9819 494.15796 C 467.00323 498.40154 465.82889 501.28401 464.06741 503.68604 C 460.055 509.21072 453.79183 512.01312 445.86502 512.01312 C 431.38135 512.01312 424.53099 503.76611 424.53099 486.5515 C 424.53099 477.50388 425.9989 471.41868 429.32625 466.61464 C 432.35997 462.13082 438.42731 459.32848 444.69064 459.32848 C 451.54104 459.32848 457.60847 462.29094 461.32726 467.41532 C 463.18661 470.05754 464.65454 473.18019 466.90542 479.3454 L 471.21132 479.3454 L 469.74338 456.20584 z M 371.78323 456.2859 L 368.16236 456.2859 L 364.24784 461.08995 C 359.64836 457.48689 353.38515 455.56527 346.43704 455.56527 C 333.61714 455.56527 325.00523 462.29094 325.00523 472.29944 C 325.00523 481.02683 330.28979 485.35051 344.67557 488.3931 L 353.97235 490.31472 C 361.21418 491.83598 361.89919 491.99613 363.95433 493.27724 C 366.8902 495.11876 368.45594 497.76106 368.45594 500.88368 C 368.45594 504.08633 366.98801 506.72863 364.0522 508.89046 C 360.82272 511.21243 357.59323 512.09317 352.21081 512.09317 C 344.96911 512.09317 339.78241 510.25158 335.18292 506.08808 C 331.07265 502.32485 329.01759 498.56167 327.54963 492.39648 L 323.34155 492.39648 L 323.73301 515.21581 L 327.54963 515.21581 L 331.95338 509.7712 C 338.51022 514.17491 343.99044 515.77626 352.5044 515.77626 C 366.8902 515.77626 376.08924 508.89046 376.08924 498.16135 C 376.08924 493.19717 374.03412 488.95354 370.21747 485.91096 C 367.57521 483.82923 363.75857 482.46805 355.92956 480.86669 L 345.45838 478.70485 C 336.74869 476.86331 332.63845 473.74065 332.63845 468.85653 C 332.63845 463.25182 338.21662 459.40848 346.53489 459.40848 C 353.38515 459.40848 358.9633 461.81057 362.87785 466.37444 C 365.71586 469.65721 367.47735 473.02005 368.74954 477.1035 L 372.95763 477.1035 L 371.78323 456.2859 z M 239.47361 488.3931 L 239.47361 466.61464 L 239.47361 464.29267 C 239.47361 460.92985 240.3544 460.52947 248.28122 460.52947 L 250.14062 460.52947 L 250.14062 456.76627 L 217.94391 456.76627 L 217.94391 460.52947 L 219.70543 460.52947 C 227.63229 460.52947 228.51301 460.92985 228.51301 464.29267 L 228.51301 466.61464 L 228.51301 504.72689 L 228.51301 507.04892 C 228.51301 510.41176 227.63229 510.81208 219.70543 510.81208 L 217.94391 510.81208 L 217.94391 514.57528 L 250.14062 514.57528 L 250.14062 510.81208 L 248.28122 510.81208 C 240.3544 510.81208 239.47361 510.41176 239.47361 507.04892 L 239.47361 504.72689 L 239.47361 494.55834 L 250.82565 485.19033 L 267.8537 505.60763 C 269.41945 507.5293 269.81091 508.16986 269.81091 508.97053 C 269.81091 510.25158 267.95157 510.81208 263.1563 510.81208 L 260.12254 510.81208 L 260.12254 514.57528 L 293.59142 514.57528 L 293.59142 510.81208 L 291.7321 510.81208 C 286.34966 510.81208 284.9796 510.25158 282.14157 506.80868 L 258.45887 478.86499 L 273.04035 466.93489 C 277.73778 462.85144 283.70735 460.52947 289.57914 460.52947 L 289.57914 456.76627 L 259.43755 456.76627 L 259.43755 460.52947 L 261.88409 460.52947 C 266.38573 460.52947 268.24512 461.25007 268.24512 462.93148 C 268.24512 464.05243 266.2879 466.37444 263.44989 468.69636 L 239.47361 488.3931 z M 130.06343 456.76627 L 109.90379 456.76627 L 109.90379 460.52947 L 112.35036 460.52947 C 117.34132 460.52947 119.59216 461.17001 121.35363 463.17167 L 121.35363 497.20056 C 121.35363 508.16986 119.39644 510.49183 110.00167 510.81208 L 110.00167 514.57528 L 137.89262 514.57528 L 137.89262 510.81208 C 128.59549 510.49183 126.63821 508.16986 126.63821 497.20056 L 126.63821 467.49538 L 170.28504 515.69628 L 174.39526 515.69628 L 174.39526 474.14098 C 174.39526 463.17167 176.35254 460.84978 185.74729 460.52947 L 185.74729 456.76627 L 157.85651 456.76627 L 157.85651 460.52947 C 167.15341 460.84978 169.11064 463.17167 169.11064 474.14098 L 169.11064 499.2823 L 130.06343 456.76627 z M 66.452985 466.61464 L 66.452985 464.29267 C 66.452985 460.92985 67.333726 460.52947 75.162697 460.52947 L 77.119955 460.52947 L 77.119955 456.76627 L 44.727561 456.76627 L 44.727561 460.52947 L 46.684817 460.52947 C 54.611599 460.52947 55.492408 460.92985 55.492408 464.29267 L 55.492408 466.61464 L 55.492408 504.72689 L 55.492408 507.04892 C 55.492408 510.41176 54.611599 510.81208 46.684817 510.81208 L 44.727561 510.81208 L 44.727561 514.57528 L 77.119955 514.57528 L 77.119955 510.81208 L 75.162697 510.81208 C 67.333726 510.81208 66.452985 510.41176 66.452985 507.04892 L 66.452985 504.72689 L 66.452985 466.61464 z "
     id="path4235" />
</svg>
